<?xml version="1.0" encoding="UTF-8"?>
<svg width="166.67" height="206.67" version="1.1" viewBox="0 0 166.67 206.67" xmlns="http://www.w3.org/2000/svg" xmlns:cc="http://creativecommons.org/ns#" xmlns:dc="http://purl.org/dc/elements/1.1/" xmlns:rdf="http://www.w3.org/1999/02/22-rdf-syntax-ns#">
 <metadata>
  <rdf:RDF>
   <cc:Work rdf:about="">
    <dc:format>image/svg+xml</dc:format>
    <dc:type rdf:resource="http://purl.org/dc/dcmitype/StillImage"/>
    <dc:title/>
   </cc:Work>
  </rdf:RDF>
 </metadata>
 <g transform="translate(-36.602 -1.4825)" stroke-width="1.3333">
<!--  <path d="m115.75 203.09c0.9625-0.38516 2.1125-0.3378 2.5556 0.1052 0.44305 0.44305-0.34445 0.75819-1.75 0.70029-1.5533-0.064-1.8692-0.37992-0.80556-0.80554z" fill="#a3a3a3"/>-->
<!--  <path d="m127.03 201.74c1.2973-0.33805 3.0973-0.31582 4 0.0495 0.90271 0.36524-0.15871 0.64183-2.3587 0.61465-2.2-0.0272-2.9386-0.326-1.6413-0.66405zm34.568-119.74c0.0272-2.2 0.326-2.9386 0.66405-1.6413 0.33806 1.2973 0.31583 3.0973-0.0493 4-0.36531 0.90271-0.64189-0.15871-0.61472-2.3587z" fill="#8c8c8c"/>-->
<!--  <path d="m112.61 202.33c-0.35002-0.91667-0.48105-45.467-0.29119-99l0.34519-97.333 0.66637 99c0.36651 54.45 0.49754 99 0.29119 99-0.20635-9e-5 -0.66155-0.75016-1.0116-1.6668zm8.3867-0.54971c0.91667-0.36988 2.4167-0.36988 3.3333 0 0.91666 0.36988 0.16666 0.67252-1.6667 0.67252s-2.5833-0.30264-1.6667-0.67252zm9.7719-66.561c0.064-1.5533 0.37992-1.8692 0.80556-0.80556 0.38516 0.96249 0.33779 2.1125-0.10527 2.5556-0.44305 0.44305-0.75819-0.34445-0.70029-1.75zm0-40c0.064-1.5533 0.37992-1.8692 0.80556-0.80556 0.38516 0.9625 0.33779 2.1125-0.10527 2.5556-0.44305 0.44306-0.75819-0.34444-0.70029-1.75z" fill="#767676"/>-->
<!--  <path d="m115.67 201.78c0.91667-0.36988 2.4167-0.36988 3.3333 0 0.91667 0.36988 0.16667 0.67252-1.6667 0.67252-1.8333 0-2.5833-0.30264-1.6667-0.67252z" fill="#494949"/>-->
<!--  <path d="m113.33 104.47v-97.541l10.76 3.8458c14.483 5.1764 22.631 8.8606 25.661 11.602 6.1343 5.5515 6.6994 8.346 11.069 54.742l0.92203 9.7901-29.508-0.91354-0.77059 4.6667c-0.42382 2.5667-0.77719 13.59-0.78526 24.496-0.0156 21.132 2.0951 39.013 7.3998 62.684 1.7887 7.9819 3.2522 15.862 3.2522 17.511 0 3.7315-2.6171 4.6205-17 5.7749l-11 0.88288z" fill="#333"/>-->
   <path d="" fill="#ffffff" stroke-width=".25111"/>
 </g>

</svg>
