<?xml version="1.0" encoding="UTF-8"?>
<svg width="800" height="803" version="1.1" viewBox="0 0 800 803" xmlns="http://www.w3.org/2000/svg" xmlns:cc="http://creativecommons.org/ns#" xmlns:dc="http://purl.org/dc/elements/1.1/" xmlns:rdf="http://www.w3.org/1999/02/22-rdf-syntax-ns#">
 <metadata>
  <rdf:RDF>
   <cc:Work rdf:about="">
    <dc:format>image/svg+xml</dc:format>
    <dc:type rdf:resource="http://purl.org/dc/dcmitype/StillImage"/>
    <dc:title/>
   </cc:Work>
  </rdf:RDF>
 </metadata>
 <path d="m539 744.5v-25.5h3c2.4135 0 3 0.42508 3 2.1743v2.1743l2.4674-2.318c3.7165-3.4915 11.021-3.903 15.441-0.86978 6.0498 4.1523 7.5483 7.1228 7.8983 15.657 0.26474 6.4553-0.054 8.4013-1.9956 12.182-4.0668 7.9199-15.336 11.454-20.789 6.5196-2.2932-2.0753-2.6904-1.2615-2.4316 4.9804 0.35512 8.5627-0.32192 10.5-3.6696 10.5h-2.9205zm22.387 3.4522c5.7134-6.79 3.7298-21.004-3.3396-23.933-3.7941-1.5716-8.1411-0.0514-10.605 3.7087-2.4423 3.7275-3.0186 12.957-1.0963 17.558 2.8101 6.7256 10.481 8.0854 15.041 2.6664zm-461.42 6.7978c-11.12-5.6074-12.269-26.453-1.8753-34.015 4.134-3.0076 10.176-3.3682 14.425-0.86089 1.9814 1.1691 3.7143 2.1256 3.8508 2.1256s0.2233-3.7125 0.19284-8.25l-0.0554-8.25 6.5-0.62672v51.127h-3c-2.3678 0-3-0.43651-3-2.0714 0-1.9276-0.11494-1.9565-1.6552-0.41625-3.9952 3.9952-9.1001 4.4059-15.383 1.2377zm15.287-8.8004c2.2117-4.3637 2.2485-12.1 0.0792-16.672-2.1896-4.6142-7.2308-6.9264-11.034-5.0607-5.2529 2.5772-6.6605 6.1964-6.4 16.456 0.1209 4.7616 3.7545 9.9581 7.3901 10.569 3.827 0.64274 8.1087-1.6314 9.9643-5.2924zm22.066 9.6412c-5.3988-2.4405-6.3147-5.6373-6.3147-22.041v-14.55h2.893c1.7852 0 3.1395 0.6424 3.5368 1.6776 0.35408 0.9227 0.5802 7.3155 0.50251 14.206-0.13322 11.815-0.0151 12.631 2.074 14.322 3.1846 2.5787 8.1666 2.2896 11.348-0.65844 2.8932-2.6814 2.9018-2.7413 2.6702-18.798l-0.15504-10.75h7.1309v37h-3c-2.3481 0-3-0.44112-3-2.0299 0-2.0143-0.0223-2.0135-2.8959 0.11111-3.6514 2.6996-10.59 3.4079-14.789 1.5097zm97.185-0.47156c-7.165-3.2902-9.6727-7.8913-9.7032-17.804-0.0453-14.733 12.244-23.347 24.703-17.316 4.8644 2.3548 8.213 7.6282 9.1404 14.394l0.63126 4.6056h-28.31l0.65738 2.75c1.5336 6.4156 5.0984 9.45 11.102 9.45 3.082 0 4.3327-0.65454 6.8789-3.6 2.1101-2.441 3.9632-3.6 5.756-3.6 3.6563 0 3.481 2.9772-0.43825 7.4409-4.8807 5.5589-13.099 7.0393-20.418 3.6784zm17.047-23.869c-1.8674-7.6682-10.925-10.026-16.624-4.3269-1.6077 1.6077-2.9231 3.8577-2.9231 5 0 1.9656 0.54187 2.0769 10.108 2.0769h10.108zm57.712 24.982c-4.4404-0.72968-5.2588-3.6018-5.2588-18.454v-13.777h-2.5c-2 0-2.5-0.5-2.5-2.5s0.5-2.5 2.5-2.5c2.3149 0 2.5005-0.35169 2.5063-4.75 6e-3 -4.2265 0.33624-4.9377 3-6.4535l2.9937-1.7035v12.907h3.4115c2.71 0 3.3426 0.35985 3.0765 1.75-0.18426 0.9625-0.36944 2.0875-0.41152 2.5s-1.4265 0.75-3.0765 0.75h-3v12.441c0 12.888 0.2689 13.744 4.386 13.952 1.5294 0.0774 2.2015 0.86744 2.4304 2.8569 0.20041 1.7417-0.16624 2.778-1 2.8265-0.72403 0.0421-1.9914 0.17704-2.8164 0.2999-0.825 0.12287-2.5085 0.0577-3.7412-0.14491zm17.025 0.0672c-3.6736-0.71101-7.2841-5.892-7.2841-10.452 0-3.0717 0.66662-4.6668 2.8719-6.8721 3.0604-3.0605 3.6622-3.2635 14.878-5.0197 6.9706-1.0915 7.25-1.2414 7.25-3.8899 0-4.0802-3.1441-6.3944-8.5763-6.3122-4.6792 0.0707-7.8726 1.9361-8.91 5.2045-0.3931 1.2386-1.3397 1.5754-3.5255 1.2546-3.4203-0.502-3.5914-1.1443-1.4218-5.3398 4.4094-8.527 24.026-9.1343 28.155-0.87176 0.79084 1.5827 1.2546 6.9707 1.2639 14.685 8e-3 6.7017 0.4536 13.339 0.98999 14.75 0.92862 2.4424 0.8123 2.5651-2.4326 2.5651-2.4398 0-3.575-0.52651-3.9961-1.8534-0.55936-1.7624-0.81657-1.7378-5.2369 0.5-4.3481 2.2013-8.6005 2.7022-14.026 1.6522zm14.966-8.0641c2.0793-1.9726 2.75-3.5552 2.75-6.4891 0-3.2238-0.29609-3.7937-1.75-3.3687-0.9625 0.2814-4.3992 0.98286-7.6372 1.5588-7.2339 1.2867-8.8037 2.4913-8.4139 6.4564 0.59411 6.0432 9.4769 7.1306 15.051 1.8426zm58.128 7.3284c-5.952-2.5905-7.982-8.5612-4.9224-14.478 1.8839-3.6431 6.2507-5.6203 15.542-7.0369 4.1236-0.62876 7.8932-1.5389 8.3768-2.0225 1.3973-1.3973-0.19389-5.8589-2.5367-7.1127-2.644-1.415-9.0541-1.4027-11.717 0.0225-1.0918 0.58429-2.2708 1.9628-2.6201 3.0634-0.47273 1.4894-1.5128 2.0011-4.0677 2.0011-1.8879 0-3.4326-0.26949-3.4326-0.59887 0-2.2892 3.781-7.7536 6.2474-9.029 7.978-4.1256 21.42-2.177 23.6 3.4211 0.57969 1.4887 1.2222 8.5568 1.4279 15.707 0.20565 7.15 0.72604 13.788 1.1564 14.75 0.66263 1.4819 0.24776 1.75-2.7078 1.75-2.602 0-3.6183-0.48913-3.9929-1.9218-0.48384-1.8502-0.68059-1.8316-5.2861 0.5-5.3267 2.6967-10.375 3.0267-15.066 0.98483zm11.881-4.6183c4.2836-1.1896 6.2814-3.7434 7.3047-9.3379 0.68259-3.7317 0.61313-3.8694-1.676-3.3219-1.3135 0.31413-5.218 1.1155-8.6766 1.7808-6.8615 1.3198-8.8492 3.2574-7.7666 7.5707 0.54953 2.1895 3.2924 4.1349 6.0551 4.2946 0.55 0.0318 2.6918-0.41201 4.7595-0.98623zm96.701 3.7524c-10.346-5.4713-12.294-22.25-3.648-31.428 7.9648-8.4551 22.053-6.2814 26.783 4.1322 1.0238 2.2544 1.8714 5.7864 1.8835 7.8489l0.02196 3.75h-13.5c-13.039 0-13.5 0.0716-13.5 2.0957 0 2.91 2.8864 7.5055 5.6395 8.979 4.8655 2.6039 12.444 0.38934 13.852-4.048 0.67682-2.1325 3.9088-2.6922 6.4081-1.1099 2.3153 1.4659-1.7047 7.2078-6.8844 9.8332-5.7164 2.8975-11.51 2.8796-17.055-0.0527zm18.04-22.263c0-2.084-1.9472-5.6429-3.9133-7.1525-1.9515-1.4983-8.5352-1.6473-11.142-0.25216-1.9028 1.0184-4.9446 5.891-4.9446 7.9207 0 0.6629 3.6846 1.0497 10 1.0497 8.4088 0 10-0.24914 10-1.5657zm57.966 22.316c-6.8468-3.4558-9.1106-8.1968-8.752-18.329 0.24835-7.0168 0.64527-8.55 3.0188-11.661 5.5214-7.2366 17.114-8.7838 24.367-3.252 4.5846 3.4968 6.7407 8.4926 6.7094 15.546-0.045 10.145-2.9582 15.23-10.541 18.398-5.1364 2.1462-9.5764 1.9355-14.802-0.70227zm14.755-6.0283c3.0095-2.7315 4.6146-8.052 4.0202-13.326-0.63223-5.6091-3.021-9.197-7.3189-10.993-2.9674-1.2398-3.877-1.2398-6.8444 0-5.1577 2.155-7.0313 5.7499-6.9085 13.255 0.12032 7.3568 1.9206 10.834 6.6562 12.858 3.7544 1.6044 7.3305 0.98693 10.396-1.7949zm47.779 7.7768c-0.55-0.17797-2.1925-0.58523-3.6501-0.90502-3.8292-0.84015-4.8499-4.8901-4.8499-19.243 0-11.31-0.15451-12.351-1.8333-12.351-1.0083 0-2.1575 0.32414-2.5536 0.7203-0.39617 0.39617-2.2394 0.58943-4.0961 0.42946-2.359-0.20324-3.9995 0.33281-5.4464 1.7797-1.8436 1.8436-2.0832 3.3587-2.1859 13.821-0.15431 15.718 0.0904 14.704-3.6346 15.063l-3.25 0.31336v-37.127h3c2.3101 0 3 0.44949 3 1.9546 0 1.7843 0.22191 1.7326 2.5472-0.59271 2.352-2.352 2.999-2.4948 8.4415-1.8632l5.8942 0.6841 0.30853-4.7915c0.27082-4.206 0.7057-5.0227 3.5585-6.6834l3.25-1.8919v13.184h3c2.5333 0 3 0.38889 3 2.5 0 2.1166-0.46467 2.5-3.0299 2.5h-3.0299l0.27987 12.75 0.27988 12.75 2.656 0.30735c1.8878 0.21846 2.8419 1.048 3.2987 2.868 0.35348 1.4084 0.50829 2.6766 0.34402 2.8184-0.69988 0.60405-4.3802 1.3019-5.2987 1.0048zm60.716-0.94831c-5.6163-2.5349-7.5421-11.322-3.4679-15.824 2.7817-3.0738 6.18-4.3678 15.002-5.7127 8.113-1.2368 8.25-1.3051 8.25-4.1124 0-3.6204-3.7884-6.2704-8.6999-6.0858-5.1918 0.19518-6.8208 0.92092-8.309 3.7015-1.6965 3.1699-6.9911 3.5941-6.9911 0.56016 0-5.9345 9.69-10.866 19.15-9.7454 10.13 1.1998 11.836 4.4371 11.845 22.484 3e-3 6.2237 0.47141 12.186 1.0408 13.25 0.93506 1.7472 0.6842 1.9343-2.5936 1.9343-2.7455 0-3.7518-0.47038-4.1341-1.9324-0.49499-1.8928-0.58732-1.8896-4.5142 0.15715-5.1303 2.6741-12.316 3.2486-16.577 1.3254zm13.185-4.9446c4.2187-1.7627 6.5986-5.127 6.5986-9.3281 0-3.627-0.036-3.644-5-2.3633-1.925 0.49664-5.1909 1.1902-7.2576 1.5412-6.9103 1.1736-8.5032 8.0896-2.4271 10.538 3.099 1.2486 4.3093 1.1907 8.0861-0.38739zm-681.4-20.106v-25.5h7v51h-7zm16 7.0634v-18.563h3c2.3481 0 3 0.44112 3 2.0299 0 2.0224 0.0105 2.0222 2.8465-0.0746 5.8883-4.3534 15.014-3.4902 19.187 1.8148 1.7611 2.2388 1.9661 4.102 1.9661 17.865v15.365h-5.8488l-0.32558-13.898c-0.28069-11.982-0.58827-14.188-2.2306-16-4.555-5.0255-14.522-0.87806-14.66 6.1005-0.03599 1.8138-0.14849 7.7978-0.25 13.298l-0.18457 10-6.5 0.62672zm114 0v-18.563h3c2.318 0 3 0.44779 3 1.9699 0 1.8682 0.18778 1.8424 3.6396-0.5 2.1103-1.4321 5.0724-2.4699 7.0497-2.4699 4.0613 0 8.8126 2.2594 9.7192 4.6218 0.56974 1.4847 1.0065 1.3549 3.5096-1.0432 3.4212-3.2777 9.656-4.4119 14.11-2.5669 5.1627 2.1385 5.9717 5.1104 5.9717 21.939v15.05h-5.8524l-0.32378-14.583c-0.29012-13.067-0.52549-14.73-2.2649-16-2.8839-2.1056-7.095-1.7203-10.178 0.93116-2.7098 2.3308-2.7294 2.4401-2.6258 14.601 0.0574 6.7388-0.13722 12.882-0.43255 13.652-0.29533 0.76962-1.8388 1.3993-3.43 1.3993h-2.893v-13.777c0-16.008-0.80239-18.223-6.6022-18.223-4.5936 0-8.3797 3.6778-8.4463 8.2046-0.0266 1.8125-0.13914 7.7954-0.25 13.295l-0.20156 10-6.5 0.62672zm96-0.0634v-18.5h3.107c2.2546 0 2.9594 0.38468 2.5689 1.4022-0.93624 2.4398 0.59149 2.6952 2.9377 0.4911 3.0237-2.8406 9.8673-3.5549 14.703-1.5346 5.6639 2.3665 6.6838 5.8168 6.6838 22.609v14.032h-7v-14c0-12.667-0.19048-14.19-2-16-2.8074-2.8074-8.1681-2.619-11.694 0.411-2.7825 2.391-2.8085 2.5236-3.1332 16l-0.32748 13.589h-5.845v-18.5zm94-0.0664v-18.566l2.75 0.31642c1.8971 0.21828 2.7072 0.85752 2.612 2.0611-0.11584 1.4646 0.33796 1.3442 2.8267-0.75 3.2412-2.7273 7.4336-3.2225 10.194-1.204 1.4934 1.092 1.5828 1.6908 0.58071 3.89-1.0454 2.2944-1.6288 2.5398-4.9734 2.0912-3.3253-0.44601-4.0156-0.16272-5.6396 2.3142-1.4985 2.2855-1.9172 5.2566-2.2009 15.618l-0.35043 12.796h-5.7992v-18.566zm22 0.12978v-18.563h6l0.15438 8.75c0.0849 4.8125 0.13378 13.025 0.1086 18.25l-0.0458 9.5-6.2172 0.62672v-18.563zm71-7.1571v-25.594l14.326 0.34377c13.676 0.32817 14.514 0.4685 18.48 3.0949 4.9488 3.2771 7.7726 8.3874 9.0499 16.378 2.2125 13.841-3.3023 26.484-13.103 30.039-1.8078 0.65576-8.9172 1.2138-16.003 1.256l-12.75 0.0761v-25.594zm28.439 17.226c8.7895-5.7591 8.7895-28.505 0-34.264-1.9743-1.2936-5.316-1.9012-12.084-2.1972l-9.3548-0.40913v39.477l9.3548-0.40915c6.7678-0.296 10.11-0.90364 12.084-2.1972zm174.56-10.132v-18.5h7v37h-7zm24.638 17.724c-0.57848-0.936-13.638-35.231-13.638-35.815 0-0.22509 1.5175-0.40926 3.3722-0.40926h3.3723l5.0268 14.25c4.416 12.518 5.1411 13.946 5.9673 11.75 0.51724-1.375 2.8617-7.7875 5.21-14.25l4.2695-11.75h3.3662c3.2612 0 3.3333 0.0857 2.3114 2.75-0.58012 1.5125-3.4557 9.05-6.3902 16.75s-5.6468 14.788-6.0275 15.75c-0.70225 1.7758-5.8878 2.5141-6.8397 0.97385zm-298.64-46.724c0-3.2222 0.2381-3.5 3-3.5 1.65 0 3.031 0.3375 3.0689 0.75s0.2322 1.9875 0.43178 3.5c0.33468 2.5363 0.0962 2.75-3.0689 2.75-3.2554 0-3.4318-0.17992-3.4318-3.5zm274 0c0-3.3333 0.16667-3.5 3.5-3.5s3.5 0.16667 3.5 3.5-0.16667 3.5-3.5 3.5-3.5-0.16667-3.5-3.5zm-484.63-28.443c-4.3262-2.1686-11.401-6.4071-15.722-9.4187l-7.8567-5.4758-4.1433 1.7461c-9.8107 4.1344-22.283 6.0734-36.143 5.619-28.49-0.93399-50.15-13.963-61.556-37.028-6.7823-13.715-8.2973-21.293-8.2973-41.5 0-14.905 0.32407-18.678 2.1857-25.446 7.1579-26.022 23.129-42.67 47.712-49.733 6.7534-1.9404 10.296-2.2857 23.455-2.2857 13.159 0 16.702 0.34523 23.455 2.2857 26.804 7.7016 43.686 26.852 49.084 55.679 2.2909 12.234 1.5966 34.6-1.428 46-2.5435 9.5864-6.7671 18.511-12.153 25.679l-3.9653 5.2773 4.7537 2.8216c2.6145 1.5519 8.3529 4.9368 12.752 7.522 6.8407 4.0201 8.1799 5.2562 9.2539 8.541 1.0697 3.2718 1.013 4.3522-0.383 7.294-1.8412 3.8801-5.825 6.3653-10.204 6.3653-1.6136 0-6.4735-1.7743-10.8-3.943zm-47.949-33.96c2.7792-1.1186 2.8264-1.2373 1-2.5099-1.0544-0.73465-5.5171-3.2384-9.9171-5.564-4.4-2.3256-9.0125-5.1605-10.25-6.2998-2.9049-2.6745-2.939-7.3606-0.0757-10.408 4.319-4.5973 14.445-2.175 28.326 6.7758 3.85 2.4827 7.5345 4.8373 8.1878 5.2324 1.8337 1.1092 6.901-7.0557 9.8724-15.907 5.316-15.836 4.2289-38.496-2.5493-53.139-11.565-24.985-44.8-31.585-64.807-12.871-5.7615 5.3892-9.1849 11.38-12.339 21.594-3.0076 9.7392-3.2524 30.78-0.47617 40.929 4.5516 16.639 15.522 28.805 29.541 32.762 5.3078 1.4982 19.161 1.148 23.488-0.59377zm117.08 25.241c-21-4.4422-36.574-20.037-41.036-41.092-2.0345-9.6005-1.8437-22.442 0.46762-31.479 6.6691-26.076 26.123-40.732 54.068-40.732 27.809 0 48.447 15.547 54.451 41.018 3.478 14.756 1.1444 34.422-5.5823 47.042-3.7379 7.013-13.751 16.798-20.892 20.417-11.109 5.6293-28.249 7.6234-41.476 4.8254zm25.5-22.78c5.5736-2.7135 11.184-9.8951 13.636-17.455 2.7457-8.4644 2.4374-25.634-0.60129-33.484-5.6158-14.506-19.229-21.596-33.419-17.403-2.5991 0.76793-6.0187 3.1072-9.2787 6.3475-4.1553 4.1301-5.569 6.4466-7.2446 11.872-2.3921 7.7449-2.9094 21.954-1.0997 30.21 4.0528 18.489 21.816 27.795 38.007 19.912zm71.013 23.735c-4.0614-0.80667-7.6794-4.0016-9.3994-8.3001-1.4024-3.5049-1.6137-10.002-1.6137-49.612 0-50.443 0.0174-50.591 6.42-54.495 8.8859-5.4186 20.58 1.235 20.58 11.71v2.6595l4.3131-3.9757c9.7643-9.0005 20.988-12.964 33.687-11.896 9.5824 0.80573 16.452 4.1009 22.445 10.767l4.5397 5.0492 5.2577-4.7522c2.8917-2.6137 8.1827-6.1294 11.758-7.8128 5.8112-2.7362 7.5067-3.0625 16-3.0792 5.225-0.0102 11.371 0.54179 13.657 1.2268 6.2687 1.8779 13.464 7.1522 17.024 12.478 5.266 7.8795 5.754 12.326 5.7881 52.74 0.0276 32.753-0.14687 36.825-1.6993 39.662-3.995 7.301-11.534 9.8634-19.132 6.5025-8.0733-3.5712-8.066-3.534-8.6382-44.164-0.47037-33.396-0.6226-35.737-2.5686-39.5-6.8564-13.258-27.126-7.6954-31.901 8.7545-1.1826 4.0743-1.5793 11.944-1.7766 35.246-0.23671 27.943-0.39124 30.233-2.2541 33.395-4.3869 7.4478-11.444 9.7625-18.843 6.1807-8.008-3.8766-8.0826-4.2647-8.6574-45.076-0.53715-38.138-0.60377-38.62-6.0054-43.502-1.7454-1.5775-3.6071-1.9954-8.8524-1.987-7.9278 0.0127-13.707 2.5836-16.481 7.3321-4.1908 7.1721-4.8482 12.499-5.5165 44.705-0.69491 33.488-0.82745 34.271-6.4082 37.865-2.6212 1.688-8.1929 2.5818-11.723 1.8807zm181.32-0.3539c-4.7657-1.4342-8.0777-6.0094-8.8158-12.179-0.34617-2.8932-0.49163-34.06-0.32324-69.26 0.28129-58.801 0.44964-64.288 2.0723-67.544 3.3306-6.6832 11.865-9.0026 18.42-5.0058 5.5691 3.3957 5.7706 4.3994 6.3138 31.446l0.5 24.896 5.4938-4.6918c10.207-8.7169 21.144-12.298 34.506-11.3 20.759 1.5512 35.724 15.171 41.191 37.489 2.1942 8.9568 2.163 28.41-0.0596 37.211-5.5673 22.046-19.163 35.922-38.292 39.081-13.853 2.2878-27.038-1.8374-37.37-11.692l-5.9688-5.6932-2e-3 3.4022c-4e-3 9.6101-8.8069 16.507-17.666 13.841zm56.336-23.618c5.0427-2.3424 11.146-9.2362 13.521-15.272 1.8236-4.6348 2.1887-7.6096 2.2149-18.049 0.0272-10.84-0.28227-13.289-2.33-18.441-5.2077-13.102-16.164-19.424-28.77-16.603-4.8152 1.0776-6.5675 2.1466-11.338 6.917-7.4065 7.4065-10.185 15.14-10.231 28.481-0.0522 15.053 4.2558 25.303 13.092 31.15 6.7473 4.4651 16.534 5.2107 23.841 1.8163zm83.331 23.366c-7.225-1.6472-15.494-6.2516-19.132-10.653-5.5708-6.7402-7.3462-11.751-7.2753-20.534 0.0782-9.6861 2.9493-16.239 9.617-21.95 7.0765-6.061 9.05-6.719 40.79-13.6 7.975-1.729 16.75-3.8875 19.5-4.7966 4.986-1.6484 4.9991-1.6642 4.6895-5.653-0.49494-6.3764-4.1046-12.714-8.4508-14.838-4.4374-2.1681-16.813-2.5478-23.545-0.72243-5.2296 1.418-11.078 6.5274-16.339 14.274l-3.9292 5.786h-5.2402c-19.382 0-15.146-25.208 5.9088-35.162 10.107-4.7782 18.754-6.1058 35.906-5.5129 27.175 0.93934 36.88 6.7204 42.264 25.174 1.0857 3.7218 1.5215 11.902 1.7048 32 0.22378 24.542 0.44708 27.667 2.4526 34.322 3.3174 11.009 3.0847 14.869-1.1292 18.73-7.5128 6.885-15.176 5.1212-22.675-5.2189-4.2943-5.9213-4.6747-6.1995-6.587-4.8172-5.9807 4.3234-15.743 9.5847-21.029 11.334-7.8783 2.6066-20.443 3.4459-27.5 1.8369zm33.48-21.133c10.269-5.0241 14.151-12.012 14.891-26.804 0.39051-7.8077 0.83323-7.5844-9.6091-4.8454-3.9936 1.0476-11.586 2.8655-16.873 4.04-15.539 3.4523-20.707 8.1009-19.63 17.658 0.59368 5.2671 5.1798 10.832 10.216 12.397 5.2351 1.6267 15.007 0.48896 21.005-2.4456zm-99.98-176.21c-23.042-5.4322-30.289-7.402-42.5-11.55-15.209-5.1672-30.204-11.383-43.288-17.945l-7.7875-3.9059-14.212 6.9646c-21.372 10.473-41.922 16.866-67.712 21.066-28.054 4.568-68.539 4.7268-99 0.38832-40.711-5.7984-75.091-15.02-114-30.577-21.033-8.4096-52.674-23.805-70.5-34.303-12.438-7.3248-18.36-11.379-12-8.2147 25.094 12.485 62.014 25.937 92.14 33.571 37.624 9.5349 65.697 13.204 101.35 13.245 46.237 0.0538 83.822-7.6573 117.51-24.11 17.549-8.5699 16.954-7.508 7.8416-13.982-4.249-3.0189-13.507-10.088-20.573-15.709l-12.848-10.22-5.7104 2.5571c-17.473 7.8242-36.911 13.167-57.869 15.907-15.561 2.0341-49.466 2.3703-63.841 0.63308-63.335-7.6545-121.5-28.956-179.63-65.781-6.528-4.1357-11.869-7.7156-11.869-7.9555s5.5125 2.33 12.25 5.7108c55.778 27.989 112.13 42.236 166.75 42.156 38.645-0.056 67.527-6.1544 96.209-20.314l8.7093-4.2997-11.209-11.63c-14.098-14.628-20.709-22.354-20.709-24.201 0-0.79321 0.54-1.9822 1.2-2.6422 2.664-2.664 5.3299-1.1599 12.5 7.0529 3.9601 4.5359 11.409 12.425 16.553 17.531l9.3529 9.2842 7.9469-5.9189c21.09-15.708 38.674-39.91 46.986-64.67 5.7462-17.118 6.8893-25.221 6.9088-48.979 0.0196-23.799-0.65078-29.054-6.5678-51.479-8.6084-32.625-26.551-68.074-50.88-100.52-13.072-17.434-22.556-28.281-39.347-45-7.7333-7.7-13.406-13.514-12.606-12.92 19.933 14.8 34.615 27.14 49.861 41.905 46.491 45.024 79.687 97.626 93.017 147.4 5.8899 21.99 6.5384 26.995 6.5577 50.62 0.0202 24.715-0.65152 29.592-6.5889 47.84-9.21 28.306-27.201 51.593-53.24 68.914l-6.8467 4.5544 9.3467 7.4277c13.964 11.097 30.34 22.765 31.937 22.755 3.3279-0.0211 23.168-17.17 32.515-28.105 21.137-24.727 33.332-52.86 37.881-87.386 0.85506-6.4899 0.86721-31.506 0.0195-40.215-4.9378-50.734-30.67-108.33-70.879-158.65-14.056-17.591-32.187-37.057-47.364-50.852-7.5697-6.8805-15.338-13.966-17.263-15.746-4.7079-4.3523 13.781 8.1762 27 18.295 86.296 66.062 142.73 149.78 155.5 230.67 2.186 13.847 2.6196 37.693 0.93649 51.5-5.4438 44.658-27.528 81.732-65.012 109.14l-2.9242 2.138 9 4.2269c26.211 12.31 61.314 23.75 81.2 26.462 5.7624 0.78588 7.6166 2.2767 7.1271 5.7303-0.28186 1.9883-0.94516 2.3266-4.8268 2.4616-2.475 0.0861-5.4-0.0556-6.5-0.31494z" fill="#8d2429"/>
</svg>
