<?xml version="1.0" encoding="UTF-8"?>
<svg enable-background="new 0 0 595.3 841.9" version="1.1" viewBox="0 0 595.3 841.9" xml:space="preserve" xmlns="http://www.w3.org/2000/svg" xmlns:cc="http://creativecommons.org/ns#" xmlns:dc="http://purl.org/dc/elements/1.1/" xmlns:rdf="http://www.w3.org/1999/02/22-rdf-syntax-ns#"><metadata><rdf:RDF><cc:Work rdf:about=""><dc:format>image/svg+xml</dc:format><dc:type rdf:resource="http://purl.org/dc/dcmitype/StillImage"/><dc:title/></cc:Work></rdf:RDF></metadata>
<style type="text/css">
	.st0{fill:#E8E8E8;}
	.st1{fill:url(#SVGID_1_);}
	.st2{fill:url(#SVGID_2_);}
	.st3{opacity:0.38;}
	.st4{fill:#C6C1C1;}
	.st5{fill:#D3D1D1;}
	.st6{fill:url(#SVGID_3_);stroke:url(#SVGID_4_);stroke-miterlimit:10;}
	.st7{opacity:0.38;fill:#D3D1D1;stroke:#D3D1D1;stroke-miterlimit:10;}
	.st8{opacity:0.38;fill:#C6C1C1;stroke:#C6C1C1;stroke-miterlimit:10;}
	.st9{fill:#D3D3D3;}
</style>



<g transform="translate(-6.7804 20.24)">
	<linearGradient id="SVGID_1_" x1="161.5" x2="443" y1="337.52" y2="337.52" gradientUnits="userSpaceOnUse">
		<stop stop-color="#fff" offset="0"/>
		<stop stop-color="#bbb" offset="1"/>
	</linearGradient>
	<path class="st1" d="m346.5 197.1s28.5 6.6 48 21.5c19.5 15 24 37.6 27 47 3 9.5 20 51 21.5 64.1 0 0-4 13.1-39 10.5 0 0-2-17.3-9.3-24.7s-18.5-24.8-18.5-24.8-2.2 2.7-3.2 24.8-4.5 46.6-1 69.2 15 63.2 18.5 83.7c0 0-74 12.6-167.5 8.4 0 0 9.2-85.3 10.2-92.1s3.3-20.2-8.2-75.9c0 0 2.7-20.5-4.3-7.9s-8.8 13.7-10.3 20.5-8.8 20.8-8.8 20.8-38.5-1.6-40-13.1c0 0 10-58.7 38-98.8 12.7-18.2 12-16.3 54-31.5 0 0 4 18.4 47.5 46.5-0.1 0.2 39.4-26.3 45.4-48.2z" fill="url(#SVGID_1_)"/>
	
		<linearGradient id="SVGID_2_" x1="161.01" x2="443.38" y1="337.61" y2="337.61" gradientUnits="userSpaceOnUse">
			<stop stop-color="#fff" offset="0"/>
			<stop stop-color="#989898" offset="1"/>
		</linearGradient>
		<path class="st2" d="m346.5 197.1c7.2 1.7 14.1 4 21 6.7 6.8 2.7 13.5 5.9 19.8 9.7 3.1 1.9 6.2 4 9 6.3s5.5 4.9 7.9 7.7c4.7 5.6 8.5 12.1 11.3 18.9 1.4 3.4 2.6 6.9 3.7 10.4s2 7.1 3.2 10.5c2.4 6.9 5.1 13.7 7.7 20.6s5.1 13.8 7.5 20.7c1.2 3.5 2.3 7 3.4 10.5 0.5 1.8 1 3.5 1.5 5.3 0.4 1.8 0.8 3.6 1.1 5.4v0.2c-0.7 1.8-2 3.1-3.4 4.3s-2.9 2.1-4.6 2.9c-3.2 1.5-6.7 2.4-10.2 3s-7.1 0.8-10.6 0.9-7.1-0.1-10.6-0.3h-0.3v-0.3c-0.6-4.7-1.7-9.4-3.3-13.9-0.8-2.3-1.7-4.4-2.9-6.5-0.6-1-1.3-2-2-2.9s-1.6-1.7-2.4-2.6c-3.2-3.6-6.1-7.5-8.9-11.4s-5.5-7.9-8.2-11.9h0.7c-0.2 0.2-0.3 0.8-0.5 1.2-0.1 0.4-0.3 0.9-0.4 1.3l-0.6 2.7c-0.3 1.8-0.6 3.7-0.8 5.6-0.4 3.7-0.7 7.5-0.9 11.2-0.3 7.5-0.9 15-1.4 22.5-1.1 15-2 30-0.4 44.9 0.9 7.4 2.4 14.8 4 22.1s3.3 14.6 5.1 21.9l5.2 21.9c1.7 7.3 3.4 14.6 4.7 22.1v0.2h-0.2c-13.8 2.2-27.8 3.7-41.7 5.1-13.9 1.3-27.9 2.4-41.9 3-14 0.7-28 1.1-42 1.1-14 0.1-28-0.3-42-0.8h-0.3v-0.3l4.5-42.1 4.6-42.1c0.4-3.5 0.8-7 1.3-10.5 0.4-3.5 0.5-7 0.5-10.5-0.1-7-0.8-14-1.8-21-1.9-14-4.5-27.8-7.3-41.7v-0.2c0.3-2.6 0.5-5.3 0.5-7.9 0-0.7-0.1-1.3-0.1-1.9-0.1-0.6-0.3-1.3-0.5-1.6-0.1-0.1-0.2-0.1-0.4 0s-0.4 0.3-0.6 0.5c-0.4 0.4-0.8 1-1.2 1.5-0.7 1.1-1.3 2.3-2 3.4l-2 3.5-4.1 6.9c-1.3 2.3-2.4 4.7-3 7.2-0.3 1.3-0.6 2.6-1 3.9s-0.9 2.5-1.4 3.8c-2 5-4.3 9.8-6.7 14.5l-0.1 0.3h-0.3c-3.7-0.2-7.3-0.5-11-0.9s-7.3-1-10.9-1.8-7.2-1.7-10.6-3.2c-1.7-0.7-3.4-1.6-4.9-2.8-0.7-0.6-1.4-1.3-2-2.1-0.5-0.8-0.9-1.8-1.1-2.7v-0.2c2.6-14 6.3-27.8 10.7-41.4 4.5-13.5 9.8-26.8 16.4-39.5 3.3-6.3 7-12.5 11.1-18.3 2.1-2.9 4.1-5.8 6.4-8.6s4.9-5.3 8-7.2 6.4-3.3 9.7-4.7c3.3-1.3 6.7-2.6 10-3.8l20.1-7.2 0.3-0.1 0.1 0.4c0.3 1.3 0.9 2.6 1.6 3.8 0.6 1.2 1.4 2.4 2.1 3.6 0.8 1.2 1.5 2.3 2.4 3.4l1.3 1.7 2.6 3.2 1.4 1.5c0.9 1 1.9 2.1 2.9 3.1l3 3 3.1 2.8c1 1 2.1 1.9 3.2 2.8l3.2 2.7c2.2 1.7 4.4 3.5 6.7 5.1s4.5 3.3 6.8 4.9l7 4.7h-0.3c4.6-3.2 9.1-6.5 13.5-10s8.6-7.2 12.7-11.1c4-3.9 7.9-8 11.4-12.4 3.2-4.4 6.3-9.1 7.9-14.6zm0 0.1c-0.7 2.7-1.9 5.3-3.3 7.7-1.4 2.5-3 4.8-4.7 7-3.4 4.5-7.3 8.6-11.3 12.5s-8.3 7.6-12.6 11.2c-4.4 3.5-8.8 6.9-13.5 10.1l-0.1 0.1-0.1-0.1-7-4.7c-2.3-1.6-4.6-3.3-6.9-4.9-2.3-1.7-4.5-3.4-6.7-5.1l-3.2-2.7c-1.1-0.9-2.2-1.8-3.2-2.8l-3.1-2.8-3-3c-1-1-2-2-2.9-3.1l-4.2-4.8-1.3-1.7c-0.9-1.1-1.6-2.3-2.4-3.5-0.7-1.2-1.5-2.4-2.1-3.7-0.7-1.3-1.2-2.5-1.6-4l0.4 0.2-20.1 7.3c-3.3 1.2-6.7 2.5-10 3.8s-6.5 2.8-9.5 4.6c-3 1.9-5.6 4.3-7.8 7s-4.3 5.7-6.3 8.6c-4.1 5.8-7.7 11.9-11 18.2-6.6 12.6-11.9 25.8-16.3 39.3s-8.1 27.3-10.7 41.2v-0.1c0.2 1.7 1.3 3.1 2.7 4.2s3 2 4.6 2.7c3.3 1.4 6.9 2.4 10.4 3.1 3.6 0.8 7.2 1.3 10.8 1.8 3.6 0.4 7.3 0.8 10.9 0.9l-0.4 0.3c2.4-4.7 4.7-9.5 6.7-14.4 0.5-1.2 1-2.5 1.4-3.7 0.4-1.3 0.7-2.5 1-3.8s0.7-2.6 1.3-3.9c0.5-1.2 1.2-2.4 1.8-3.6l4.1-6.9 2-3.5c0.7-1.1 1.3-2.3 2-3.5 0.4-0.6 0.8-1.1 1.3-1.6 0.3-0.3 0.5-0.5 0.9-0.7 0.2-0.1 0.4-0.2 0.7-0.1 0.3 0 0.5 0.2 0.7 0.4 0.6 0.7 0.7 1.4 0.8 2.1s0.1 1.4 0.2 2c0 2.7-0.2 5.4-0.5 8v-0.2c2.8 13.8 5.4 27.7 7.3 41.7 0.9 7 1.6 14.1 1.8 21.1 0 3.5-0.1 7.1-0.5 10.6-0.5 3.5-0.9 7-1.3 10.5l-4.7 42.1-4.6 42.1-0.3-0.3c14 0.5 28 1 42 0.9 14 0 28-0.4 42-1.1 14-0.6 27.9-1.7 41.9-3 13.9-1.3 27.8-2.9 41.7-5.1l-0.2 0.2c-1.3-7.4-3-14.7-4.7-22l-5.3-21.9c-1.8-7.3-3.5-14.6-5.1-21.9s-3.1-14.7-4.1-22.2c-1.7-15-0.8-30.1 0.2-45.1 0.5-7.5 1.1-15 1.4-22.5 0.2-3.8 0.4-7.5 0.8-11.3 0.2-1.9 0.4-3.7 0.7-5.6 0.2-0.9 0.3-1.9 0.6-2.8 0.1-0.5 0.2-0.9 0.4-1.4s0.3-0.9 0.6-1.4l0.3-0.5 0.4 0.5c2.6 4 5.4 8 8.2 11.9s5.7 7.7 8.9 11.3c0.8 0.9 1.7 1.7 2.5 2.7s1.5 2 2.1 3c1.2 2.1 2.2 4.4 3 6.7 1.6 4.6 2.6 9.3 3.3 14.1l-0.7 0.1c3.5 0.3 7 0.4 10.6 0.3 3.5-0.1 7-0.3 10.5-0.9s6.9-1.5 10-3c1.6-0.7 3.1-1.6 4.4-2.7s2.5-2.4 3.1-3.9v0.2c-0.2-1.8-0.6-3.6-1-5.3-0.4-1.8-0.9-3.5-1.4-5.3-1-3.5-2.2-7-3.3-10.5-2.4-6.9-4.9-13.8-7.4-20.7s-5.2-13.7-7.6-20.6c-1.2-3.5-2.1-7-3.2-10.5s-2.3-7-3.7-10.3c-2.8-6.7-6.5-13.1-11.2-18.7-2.4-2.8-4.9-5.4-7.8-7.7-2.8-2.3-5.8-4.4-8.9-6.3-6.2-3.8-12.9-7-19.7-9.8-6.8-3-13.8-5.3-20.9-7.1z" fill="url(#SVGID_2_)"/>
	
</g>










<linearGradient id="SVGID_3_" x1="309.99" x2="309.99" y1="602.89" y2="459.39" gradientTransform="translate(-.3 9.8)" gradientUnits="userSpaceOnUse">
	<stop stop-color="#fff" offset="0"/>
	<stop stop-color="#bbb" offset="1"/>
</linearGradient>
<linearGradient id="SVGID_4_" x1="215.46" x2="404.48" y1="531.08" y2="531.08" gradientTransform="translate(-.3 9.8)" gradientUnits="userSpaceOnUse">
	<stop stop-color="#fff" offset="0"/>
	<stop stop-color="#989898" offset="1"/>
</linearGradient>













</svg>
