<?xml version="1.0" encoding="UTF-8"?>
<svg width="142.67" height="122.67" version="1.1" viewBox="0 0 142.67 122.67" xmlns="http://www.w3.org/2000/svg" xmlns:cc="http://creativecommons.org/ns#" xmlns:dc="http://purl.org/dc/elements/1.1/" xmlns:rdf="http://www.w3.org/1999/02/22-rdf-syntax-ns#">
 <metadata>
  <rdf:RDF>
   <cc:Work rdf:about="">
    <dc:format>image/svg+xml</dc:format>
    <dc:type rdf:resource="http://purl.org/dc/dcmitype/StillImage"/>
    <dc:title/>
   </cc:Work>
  </rdf:RDF>
 </metadata>
 <g transform="translate(-2.5284 1.0098)" stroke-width="1.3333">
  <path d="m25.333 115.91c-4.0333-0.70542-10.253-2.2444-13.821-3.42l-6.4876-2.1374c4.4799-31.724 1.1063-73.723 12.471-102.84 1.3638-2.9932 1.8869-3.2078 4.3604-1.7889 3.8861 2.2291 80.718 1.9465 92.811-0.34139 4.7667-0.90185 10.317-1.9493 12.333-2.3277l3.6667-0.68796v9.1975c0 5.0586 1.4373 18.177 3.194 29.151 2.2047 13.773 3.4184 28.068 3.9187 46.149l0.72471 26.196c-24.955 4.932-50.108 8.9007-54.612-15.676-1.5104-8.2689-3.3481-16.612-4.0839-18.541-0.73579-1.9288-1.8353-7.9272-2.4433-13.33-1.3153-11.687-3.4901-14.846-7.7357-11.239-2.0956 1.7806-3.3374 5.4738-4.8401 14.395-1.1117 6.6-3.2655 15.6-4.7862 20s-3.3575 12.164-4.0817 17.253c-0.72422 5.0893-1.5563 9.4929-1.8491 9.7857-1.2361 1.2361-21.991 1.3817-28.739 0.2016z" fill="#333"/>
 </g>
</svg>
