<svg width="324.27" height="200.53" version="1.1" viewBox="0 0 324.27 200.53" xmlns="http://www.w3.org/2000/svg">
 <g transform="translate(-.80286 1.203)" stroke-width="1.0667" fill="gray">
  <path d="m244.27 115.73c35.49-35.493 64.767-64.533 65.06-64.533 0.29334 0-28.504 29.04-63.993 64.533-35.49 35.493-64.767 64.533-65.06 64.533-0.29334 0 28.504-29.04 63.993-64.533zm-203.21-40.267-23.458-23.733 23.733 23.458c22.053 21.797 24.214 24.009 23.458 24.009-0.15167 0-10.832-10.68-23.733-23.733z"/>
  <path d="m157.33 185.73c-1.76-0.45259-4.4-1.4391-5.8667-2.1923-4.2446-2.1797-135.4-133.51-137.65-137.84-6.263-12.036-1.1978-27.695 11.083-34.262l4.4302-2.369h267.73l4.4302 2.369c12.013 6.4237 17.215 21.973 11.341 33.898-2.1994 4.4649-133.3 135.69-138.02 138.15-4.4874 2.3394-12.915 3.4218-17.488 2.2459z"/>
 </g>
</svg>
