<svg width="322.13" height="204.8" version="1.1" viewBox="0 0 322.13 204.8" xmlns="http://www.w3.org/2000/svg">
 <g transform="translate(-.41812 -8.2269)" stroke-width="1.0667" fill="gray">
  <path d="m77.333 91.733c35.196-35.2 64.233-64 64.527-64s-28.264 28.8-63.46 64c-35.196 35.2-64.233 64-64.527 64-0.29333 0 28.264-28.8 63.46-64z"/>
  <path d="m27.2 197.41c-8.8917-2.1933-15.567-8.7944-18.285-18.081-1.9126-6.5356-1.3807-12.17 1.7083-18.097 2.6226-5.0321 133.77-135.89 138.71-138.4 5.3909-2.7408 16.331-2.5608 21.867 0.35971 5.0929 2.6868 136.08 133.64 138.43 138.4 5.887 11.902 0.6806 27.472-11.335 33.898l-4.4302 2.369-131.73 0.16779c-72.453 0.09227-133.17-0.18741-134.93-0.62155z"/>
 </g>
</svg>
