<?xml version="1.0" encoding="UTF-8"?>
<svg width="166.67" height="206.67" version="1.1" viewBox="0 0 166.67 206.67" xmlns="http://www.w3.org/2000/svg" xmlns:cc="http://creativecommons.org/ns#" xmlns:dc="http://purl.org/dc/elements/1.1/" xmlns:rdf="http://www.w3.org/1999/02/22-rdf-syntax-ns#">
 <g transform="translate(7.3525 3.5796)">
  <path d="m38.436 199.21c-4.4-0.62421-9.5555-1.732-11.457-2.4617l-3.4567-1.3267 2.4928-19.113c1.371-10.512 3.6766-26.238 5.1233-34.947 1.4468-8.7086 2.6195-19.209 2.6061-23.333-0.0224-6.8734-2.8674-30.386-4.7391-39.166-0.90213-4.2319-3.2364-4.9531-3.2364-1 0 2.4995-0.88889 2.6667-14.183 2.6667h-14.183l0.86736-9c0.47705-4.95 1.4278-15 2.1129-22.333 0.68503-7.3333 2.2003-16.033 3.3672-19.333 3.9028-11.037 7.0821-13.413 28.403-21.23l17.241-6.3214 1.5734 4.3511c1.9134 5.2913 8.6399 11.394 17.516 15.892l6.6174 3.3533 6.6174-3.3533c8.8761-4.4979 15.603-10.601 17.516-15.892l1.5734-4.3511 17.241 6.3214c21.321 7.8172 24.5 10.194 28.403 21.23 1.167 3.3 2.6822 12 3.3672 19.333 0.68503 7.3333 1.6358 17.383 2.1129 22.333l0.86736 9h-14.183c-13.294 0-14.183-0.16713-14.183-2.6667 0-3.6197-2.2017-3.384-3.1132 0.33333-2.1953 8.9532-5.0184 35.915-4.5581 43.531 0.29262 4.8411 2.3967 21.402 4.6757 36.802 6.0124 40.627 6.1091 36.862-1.0044 39.101-7.0831 2.2285-69.018 3.422-82 1.5802z" fill="#333" stroke-width="1.3333"/>
  <g transform="translate(-7.5631 -3.4656)" stroke-width="1.3333">
   <path d="m59.667 204.39c1.65-0.31781 4.35-0.31781 6 0 1.65 0.3178 0.3 0.57783-3 0.57783s-4.65-0.26003-3-0.57783zm-10.667-1.2754c0.91667-0.36988 2.4167-0.36988 3.3333 0 0.91667 0.36988 0.16667 0.67252-1.6667 0.67252-1.8333 0-2.5833-0.30264-1.6667-0.67252zm45.357-0.0832c2.3965-0.29674 5.9965-0.29062 8 0.0136 2.0035 0.30424 0.0428 0.54703-4.3572 0.53955-4.4-8e-3 -6.0393-0.2564-3.6428-0.55315zm18.276-98.367c1.2e-4 -54.267 0.16509-76.272 0.3666-48.902s0.20142 71.771-2.1e-4 98.667-0.36651 4.5016-0.36639-49.765zm-81.861 90.556c0.06397-1.5533 0.37992-1.8692 0.80556-0.80556 0.38516 0.96249 0.33779 2.1125-0.10527 2.5556-0.44306 0.44305-0.75819-0.34445-0.70029-1.75zm1.3333-10.667c0.06397-1.5533 0.37992-1.8692 0.80556-0.80556 0.38516 0.9625 0.33779 2.1125-0.10527 2.5556-0.44306 0.44306-0.75819-0.34445-0.70029-1.75zm1.4386-9.8889c0-1.8333 0.30263-2.5833 0.67251-1.6667 0.36988 0.91667 0.36988 2.4167 0 3.3333-0.36988 0.91666-0.67251 0.16666-0.67251-1.6667zm2.5614-19.444c0.06397-1.5533 0.37992-1.8692 0.80556-0.80556 0.38516 0.96249 0.33779 2.1125-0.10527 2.5556-0.44306 0.44305-0.75819-0.34445-0.70029-1.75zm4.368-33.222c-4e-3 -6.6 0.2214-9.4681 0.50104-6.3736s0.28296 8.4945 0.0073 12c-0.27548 3.5055-0.50427 0.97356-0.50834-5.6264zm-20.14-37.586c1.2833-0.33537 3.3833-0.33537 4.6667 0 1.2833 0.33537 0.23333 0.60976-2.3333 0.60976s-3.6167-0.27439-2.3333-0.60976zm-13.456-24.414c0-1.8333 0.30263-2.5833 0.67251-1.6667 0.36988 0.91667 0.36988 2.4167 0 3.3333-0.36988 0.91667-0.67251 0.16667-0.67251-1.6667zm1.2281-18.111c0.063979-1.5533 0.37992-1.8692 0.80556-0.80556 0.38516 0.9625 0.33779 2.1125-0.10526 2.5556-0.44306 0.44306-0.75819-0.34444-0.70029-1.75z" fill="#8c8c8c"/>
   <path d="m46 202.6c-4.4-0.58192-9.5555-1.655-11.457-2.3848l-3.4567-1.3267 2.4928-19.113c1.371-10.512 3.6766-26.238 5.1233-34.947 1.4468-8.7086 2.6195-19.209 2.6061-23.333-0.02239-6.8734-2.8674-30.386-4.7391-39.166-0.90212-4.2319-3.2364-4.9531-3.2364-1 0 2.4995-0.88889 2.6667-14.183 2.6667h-14.183l0.86736-9c0.47705-4.95 1.4278-15 2.1129-22.333 0.68503-7.3333 2.2003-16.033 3.3672-19.333 3.9028-11.037 7.0821-13.413 28.403-21.23l17.241-6.3214 1.5734 4.3511c3.0693 8.4879 20.745 20.157 28.09 18.543 9.3641-2.0567 22.679-13.597 22.702-19.676 5e-3 -1.2833 0.60879-2.3333 1.3421-2.3333 0.87677 0 1.3333 33.487 1.3333 97.795v97.795l-16.209 0.87156c-19.993 1.075-39.228 0.87233-49.791-0.52459z" fill="#333"/>
  </g>
 </g>
</svg>
