<?xml version="1.0" encoding="utf-8"?>
<!-- Generator: Adobe Illustrator 24.1.0, SVG Export Plug-In . SVG Version: 6.00 Build 0)  -->
<svg version="1.1" id="Capa_1" xmlns="http://www.w3.org/2000/svg" xmlns:xlink="http://www.w3.org/1999/xlink" x="0px" y="0px"
	 viewBox="0 0 1701.4 963.8" enable-background="new 0 0 1701.4 963.8" xml:space="preserve">
<g id="Remera_principal">
	<path fill="#EDEDED" d="M480.1,899.2c0,0-41.4,1.3-52.2-1.3c-10.7-2.7-59.8-1.3-101.3,2.7c-41.4,4-89-6.7-89-6.7s6.1-25.3,6.1-49.2
		c0-24,27.6-123.7,33.8-187.6c6.1-63.9,4.6-146.4,4.6-173s-18.4-139.7-23-188.9s-32.2-113.1-36.8-142.4s3.1-53.2,3.1-53.2
		s41.4-22.6,61.4-27.9c19.9-5.3,61.4-30.6,61.4-30.6c3.1,27.9,36.8,63.9,66.8,79s49.8,32.8,49.8,32.8h15.3h15.3
		c0,0,19.9-17.7,49.8-32.8s63.7-51,66.8-79c0,0,41.4,25.3,61.4,30.6c19.9,5.3,61.4,27.9,61.4,27.9s7.7,24,3.1,53.2
		s-32.2,93.1-36.8,142.4c-4.6,49.2-23,162.3-23,188.9s-1.5,109.1,4.6,173s33.8,163.7,33.8,187.6c0,24,6.1,49.2,6.1,49.2
		s-47.6,10.6-89,6.7c-41.4-4-90.5-5.3-101.3-2.7C521.5,900.5,480.1,899.2,480.1,899.2z"/>
	<path fill="#EDEDED" d="M734.8,99.5c0,0,19.9,10.6,29.2,39.9s14.6,85.8,23.8,104.5c9.2,18.6,32.2,70.5,30.7,75.8
		s-12.3,49.2-108.9,55.9L694,353.5c0,0,4.9-70.6,17.9-111.4S749.4,136.1,734.8,99.5z"/>
	<path fill="#EDEDED" d="M225.4,99.5c0,0-19.9,10.6-29.2,39.9c-9.2,29.3-14.6,85.8-23.8,104.5s-32.2,70.5-30.7,75.8
		s12.3,49.3,109,55.9l15.6-22.1c0,0-4.9-70.6-17.9-111.4C235.3,201.3,210.8,136.1,225.4,99.5z"/>
	<path fill="#EDEDED" d="M1244.2,88.7h-15.4c0,0-64.5-4-116.7-41.2c0,0-69.1,39.9-102.8,47.9c0,0-10.7,2.7-18.4,5.3
		c0,0-12.3,31.9,12.3,107.8c24.6,75.8,44.5,231.5,43,243.5s10.7,101.1,0,179.6s-36.8,219.5-41.4,266.1c0,0,23,14.6,69.1,9.3
		s101.3-8,112.1-6.7c10.7,1.3,58.3,1.3,58.3,1.3h-1.5c0,0,47.6,0,58.3-1.3c10.7-1.3,66,1.3,112.1,6.7s69.1-9.3,69.1-9.3
		c-4.6-46.6-30.7-187.6-41.4-266.1c-10.7-78.5,1.5-167.7,0-179.6s18.4-167.7,43-243.5s12.3-107.8,12.3-107.8
		c-7.7-2.7-18.4-5.3-18.4-5.3c-33.8-8-102.8-47.9-102.8-47.9c-52.5,37.2-117,41.2-117,41.2h-15.4"/>
	<path fill="#EDEDED" d="M1495.2,101.3c0,0,16.9,5.3,29.2,33.3c12.3,27.9,15.4,55.9,15.4,79.8s38.4,91.8,38.4,98.5
		s3.1,22.6-15.4,37.3c-18.4,14.6-58.3,35.9-93.6,29.3l-16.6-25.7c0,0,13.4-94,34.6-156.3S1495.2,101.3,1495.2,101.3z"/>
	<path fill="#EDEDED" d="M991.7,101.3c0,0-16.9,5.3-29.2,33.3c-12.3,27.9-15.4,55.9-15.4,79.8s-38.4,91.8-38.4,98.5
		s-3.1,22.6,15.4,37.3c18.4,14.6,58.3,35.9,93.6,29.3l16.6-25.7c0,0-13.4-94-34.6-156.3C978.6,135.3,991.7,101.3,991.7,101.3z"/>
</g>
<g id="Número_Espalda">
	<text transform="matrix(1 0 0 1 1123.1658 464.0016)" fill="#AA1A1A" font-family="'SablonUp-College'" font-size="300px">10</text>
</g>
<g id="Nombre">
	<text transform="matrix(1 0 0 1 1096.9656 219.8414)" fill="#AA1A1A" font-family="'SablonUp-College'" font-size="94px">nombre</text>
	
		<text transform="matrix(1 0 0 1 1096.9656 219.8414)" fill="none" stroke="#AA1A1A" stroke-width="0.25" stroke-miterlimit="10" font-family="'SablonUp-College'" font-size="94px">nombre</text>
</g>
<g id="Remera_cuello_y_puños">
	<path fill="#030323" d="M1463.7,371.2c0,0,83.9-6.6,111.4-66.4l3.1,6.2c0,0,4.1,21-11.7,35.7c-15.5,14.6-61.5,38.8-98,33.4
		L1463.7,371.2z"/>
	<path fill="#030323" d="M1021.2,372.5c0,0-83.9-6.6-111.4-66.4l-3.1,6.2c0,0-4.1,21,11.7,35.7c15.5,14.6,61.5,38.8,98,33.4
		L1021.2,372.5z"/>
	<path fill="#030323" d="M815.8,308.8l2.8,10.2c0,0-4.3,50-109.4,56.7l-5.5-8.4C703.6,367.3,788.8,356.9,815.8,308.8z"/>
	<path fill="#030323" d="M145,308.8l-2.8,10.2c0,0,4.3,50,109.4,56.7l5.5-8.4C257.1,367.3,171.9,356.9,145,308.8z"/>
	<path fill="#030323" d="M481.9,129.1c-21.5-8-62.9-29.3-90.5-59.9S376,22.7,376,22.7l-27.6,20C353,68,376,99.9,411.3,118.5
		s55.2,34.6,55.2,34.6h15.3h-1.5h15.3c0,0,19.9-16,55.2-34.6s58.3-50.6,62.9-75.8l-27.6-20c0,0,12.3,16-15.3,46.6
		s-69.1,51.9-90.5,59.9"/>
	<path fill="#030323" d="M481.9,56.3h-21.5c-21.5,0-41.4-6.7-41.4-6.7C376,36.3,376.8,21,376.8,21s-11.5,12.4,10,41.8
		c0,0,33.8,18.7,72.1,17.4h23h-1.5h23c38.4,1.3,72.1-17.4,72.1-17.4c21.5-29.4,10-41.8,10-41.8s0.8,15.3-42.2,28.6
		c0,0-19.9,6.7-41.4,6.7h-21.5"/>
	<path opacity="0.96" fill="#030323" enable-background="new    " d="M1242.7,88h20c72.1-9.3,112.1-41.2,112.1-41.2l-26.1-20
		c-32.2,33.3-93.6,34.6-93.6,34.6h-12.3h-20c0,0-44.5,0-87.5-34.6l-23,20c0,0,41.4,29.3,92.1,38.6C1204.3,85.4,1222.7,88,1242.7,88z
		"/>
</g>
<g id="Short">
</g>
<g id="GENERICO">
	
		<linearGradient id="SVGID_1_" gradientUnits="userSpaceOnUse" x1="407.9" y1="851.3" x2="552.8" y2="851.3" gradientTransform="matrix(1 0 0 -1 0 964)">
		<stop  offset="0" style="stop-color:#FFFFFF"/>
		<stop  offset="0.2497" style="stop-color:#D2D2D2"/>
		<stop  offset="0.6011" style="stop-color:#989898"/>
		<stop  offset="0.8615" style="stop-color:#747474"/>
		<stop  offset="1" style="stop-color:#666666"/>
	</linearGradient>
	<path fill="url(#SVGID_1_)" d="M407.9,86l72.2,53.4L552.8,86C552.8,86,481.5,105,407.9,86z"/>
	<g opacity="0.53">
		<g>
			
				<linearGradient id="SVGID_2_" gradientUnits="userSpaceOnUse" x1="701.2482" y1="666.033" x2="743.8762" y2="666.033" gradientTransform="matrix(1 0 0 -1 0 964)">
				<stop  offset="0.1336" style="stop-color:#070606;stop-opacity:0.3"/>
				<stop  offset="1" style="stop-color:#070606;stop-opacity:0"/>
			</linearGradient>
			<path fill="url(#SVGID_2_)" d="M731.1,365c-4-25.1-3.1-50.9,2.5-75.8c4.8-21.3,13.2-42.7,9.1-64.1
				c-10.3,10.5-20.9,21.4-26.4,34.4c-2.4,5.6-3.8,11.4-5.1,17.3c-5.8,24.8-11.7,50.1-9.6,75.4c0.7,8,4.4,17.9,13.7,18.6
				c5.4,0.4,10.3-2.8,14.5-5.8"/>
		</g>
	</g>
	<g opacity="0.58">
		<g>
			
				<linearGradient id="SVGID_3_" gradientUnits="userSpaceOnUse" x1="822.0897" y1="656.9391" x2="700.835" y2="726.9456" gradientTransform="matrix(1 0 0 -1 0 964)">
				<stop  offset="0" style="stop-color:#FFFFFF;stop-opacity:0.3"/>
				<stop  offset="1" style="stop-color:#FFFFFF;stop-opacity:0"/>
			</linearGradient>
			<path fill="url(#SVGID_3_)" d="M732.3,370.3c-5.3-26.9-1.2-54.4,2.9-81.4c6.1-40.3,12.2-80.5,18.4-120.8c1-6.4,1.8-13.3-2.1-18.8
				c10.6,41.4,22.6,82.5,36,123.3c3.1,9.4,6.4,18.9,12.2,27.3c6,8.7,15.2,18.4,10.5,27.7c-2.9,5.9-10.4,8.9-15.6,13.4
				c-4.4,3.8-7.2,8.8-11.9,12.4c-4.2,3.3-9.6,5.1-14.8,6.9c-11.8,4-23.5,8.1-35.3,12.1"/>
		</g>
	</g>
	<g opacity="0.53">
		<g>
			
				<linearGradient id="SVGID_4_" gradientUnits="userSpaceOnUse" x1="2525.4863" y1="666.033" x2="2568.114" y2="666.033" gradientTransform="matrix(-1 0 0 -1 2789 964)">
				<stop  offset="0.1336" style="stop-color:#070606;stop-opacity:0.3"/>
				<stop  offset="1" style="stop-color:#070606;stop-opacity:0"/>
			</linearGradient>
			<path fill="url(#SVGID_4_)" d="M233.7,365c4-25.1,3.1-50.9-2.5-75.8c-4.8-21.3-13.2-42.7-9.1-64.1c10.3,10.5,20.9,21.4,26.4,34.4
				c2.4,5.6,3.8,11.4,5.1,17.3c5.8,24.8,11.7,50.1,9.6,75.4c-0.7,8-4.4,17.9-13.7,18.6c-5.4,0.4-10.3-2.8-14.5-5.8"/>
		</g>
	</g>
	<g opacity="0.58">
		<g>
			
				<linearGradient id="SVGID_5_" gradientUnits="userSpaceOnUse" x1="2646.3896" y1="656.9391" x2="2525.135" y2="726.9456" gradientTransform="matrix(-1 0 0 -1 2789 964)">
				<stop  offset="0" style="stop-color:#FFFFFF;stop-opacity:0.3"/>
				<stop  offset="1" style="stop-color:#FFFFFF;stop-opacity:0"/>
			</linearGradient>
			<path fill="url(#SVGID_5_)" d="M232.4,370.3c5.3-26.9,1.2-54.4-2.9-81.4c-6.1-40.3-12.2-80.5-18.4-120.8
				c-1-6.4-1.8-13.3,2.1-18.8c-10.6,41.4-22.6,82.5-36,123.3c-3.1,9.4-6.4,18.9-12.2,27.3c-6,8.7-15.2,18.4-10.5,27.7
				c2.9,5.9,10.4,8.9,15.6,13.4c4.4,3.8,7.2,8.8,11.9,12.4c4.2,3.3,9.6,5.1,14.8,6.9c11.8,4,23.5,8.1,35.3,12.1"/>
		</g>
	</g>
	
		<radialGradient id="SVGID_6_" cx="882.2411" cy="647.9509" r="51.9607" gradientTransform="matrix(1.5345 0 0 -1.3306 -872.349 914.4926)" gradientUnits="userSpaceOnUse">
		<stop  offset="0" style="stop-color:#000000;stop-opacity:0"/>
		<stop  offset="0.1171" style="stop-color:#030303;stop-opacity:0"/>
		<stop  offset="0.1875" style="stop-color:#0B0B0B;stop-opacity:0"/>
		<stop  offset="0.2456" style="stop-color:#191919;stop-opacity:0"/>
		<stop  offset="0.297" style="stop-color:#2E2E2E;stop-opacity:0"/>
		<stop  offset="0.344" style="stop-color:#484848;stop-opacity:0"/>
		<stop  offset="0.3877" style="stop-color:#686868;stop-opacity:0"/>
		<stop  offset="0.429" style="stop-color:#8F8F8F;stop-opacity:0"/>
		<stop  offset="0.4683" style="stop-color:#BBBBBB;stop-opacity:0"/>
		<stop  offset="0.5047" style="stop-color:#EDEDED;stop-opacity:0"/>
		<stop  offset="0.517" style="stop-color:#FFFFFF;stop-opacity:0"/>
		<stop  offset="0.5619" style="stop-color:#F1F1F1;stop-opacity:2.785662e-02"/>
		<stop  offset="0.6461" style="stop-color:#CECDCD;stop-opacity:8.015504e-02"/>
		<stop  offset="0.7606" style="stop-color:#949393;stop-opacity:0.1513"/>
		<stop  offset="0.8995" style="stop-color:#454444;stop-opacity:0.2376"/>
		<stop  offset="1" style="stop-color:#070606;stop-opacity:0.3"/>
	</radialGradient>
	<path opacity="0.36" fill="url(#SVGID_6_)" enable-background="new    " d="M482.2,57.9h-21.5c-21.5,0-41.4-6.7-41.4-6.7
		c-43-13.3-42.2-28.6-42.2-28.6s-11.5,12.4,10,41.8c0,0,33.8,18.7,72.1,17.4h23h-1.5h23c38.4,1.3,72.1-17.4,72.1-17.4
		c21.5-29.4,10-41.8,10-41.8s0.8,15.3-42.2,28.6c0,0-19.9,6.7-41.4,6.7h-21.5"/>
	
		<linearGradient id="SVGID_7_" gradientUnits="userSpaceOnUse" x1="2598.2" y1="876.2" x2="2863.6001" y2="876.2" gradientTransform="matrix(-1 0 0 -1 3212 964)">
		<stop  offset="0" style="stop-color:#070606;stop-opacity:0.3"/>
		<stop  offset="4.446354e-02" style="stop-color:#0D0C0C;stop-opacity:0.2724"/>
		<stop  offset="0.1064" style="stop-color:#1F1E1E;stop-opacity:0.2339"/>
		<stop  offset="0.1786" style="stop-color:#3D3C3C;stop-opacity:0.1891"/>
		<stop  offset="0.2585" style="stop-color:#666666;stop-opacity:0.1394"/>
		<stop  offset="0.3449" style="stop-color:#9B9B9B;stop-opacity:8.575617e-02"/>
		<stop  offset="0.4352" style="stop-color:#DADADA;stop-opacity:2.964893e-02"/>
		<stop  offset="0.4829" style="stop-color:#FFFFFF;stop-opacity:0"/>
		<stop  offset="0.9488" style="stop-color:#4D4D4D;stop-opacity:0"/>
	</linearGradient>
	<path opacity="0.36" fill="url(#SVGID_7_)" enable-background="new    " d="M480.4,129.1c21.5-8,62.9-29.3,90.5-59.9
		s15.3-46.6,15.3-46.6l27.6,20c-4.6,25.3-27.6,57.2-62.9,75.8C515.6,137,495.7,153,495.7,153h-15.3h1.5h-15.3c0,0-19.9-16-55.2-34.6
		s-58.4-50.5-63-75.8l27.6-20c0,0-12.3,16,15.3,46.6s69.1,51.9,90.5,59.9"/>
	
		<linearGradient id="SVGID_8_" gradientUnits="userSpaceOnUse" x1="707.4" y1="591.3" x2="707.4" y2="591.3" gradientTransform="matrix(1 0 0 -1 0 964)">
		<stop  offset="0" style="stop-color:#FFFFFF;stop-opacity:0.3"/>
		<stop  offset="1" style="stop-color:#FFFFFF;stop-opacity:0"/>
	</linearGradient>
	<path fill="url(#SVGID_8_)" d="M707.4,372.7"/>
	<path fill="none" stroke="#070606" stroke-width="0.5" stroke-linecap="round" stroke-miterlimit="10" stroke-dasharray="2.5" d="
		M780.8,95.4"/>
	<path fill="none" stroke="#070606" stroke-width="0.5" stroke-linecap="round" stroke-miterlimit="10" stroke-dasharray="2.5" d="
		M708,373"/>
	<path fill="none" stroke="#070606" stroke-width="0.5" stroke-linecap="round" stroke-miterlimit="10" stroke-dasharray="2.5" d="
		M780.4,93.6"/>
	
		<path opacity="0.71" fill="none" stroke="#070606" stroke-width="0.25" stroke-linecap="round" stroke-miterlimit="10" stroke-dasharray="2.5" enable-background="new    " d="
		M708,373c0,0,93.6-9.3,110.5-58.5"/>
	
		<path opacity="0.71" fill="none" stroke="#070606" stroke-width="0.25" stroke-linecap="round" stroke-miterlimit="10" stroke-dasharray="2.5" enable-background="new    " d="
		M706.4,369c0,0,93.6-9.3,110.5-58.5"/>
	
		<path opacity="0.71" fill="none" stroke="#070606" stroke-width="0.25" stroke-linecap="round" stroke-miterlimit="10" stroke-dasharray="2.5" enable-background="new    " d="
		M253.7,371.6c0,0-93.6-9.3-110.5-58.5"/>
	
		<path opacity="0.71" fill="none" stroke="#070606" stroke-width="0.25" stroke-linecap="round" stroke-miterlimit="10" stroke-dasharray="2.5" enable-background="new    " d="
		M255.3,367.6c0,0-93.6-9.3-110.5-58.5"/>
	<g opacity="0.53">
		
			<linearGradient id="SVGID_9_" gradientUnits="userSpaceOnUse" x1="2051.5" y1="339.6" x2="2119.0447" y2="339.6" gradientTransform="matrix(-1 0 0 -1 2774 964)">
			<stop  offset="0.1336" style="stop-color:#070606;stop-opacity:0.3"/>
			<stop  offset="1" style="stop-color:#070606;stop-opacity:0"/>
		</linearGradient>
		<path fill="url(#SVGID_9_)" d="M693.4,351c-13.5,38.3-28.7,71.5-34.6,111.1c-4.8,33-4.3,66.3-2.8,99.5
			c4.9,109.7,46.6,336.2,46.6,336.2s15.3-2.7,19.9-4c-10.7-121.1-49.1-206.2-44.5-335.3c0.9-26.5-1.8-54.7,0-81.2
			C680.8,435.5,690.6,393,693.4,351L693.4,351z"/>
	</g>
	<g opacity="0.53">
		
			<linearGradient id="SVGID_10_" gradientUnits="userSpaceOnUse" x1="194.584" y1="342.6336" x2="267.4858" y2="342.6336" gradientTransform="matrix(0.9999 -1.304139e-02 -1.304139e-02 -0.9999 44.4828 968.1785)">
			<stop  offset="0.1336" style="stop-color:#070606;stop-opacity:0.3"/>
			<stop  offset="1" style="stop-color:#070606;stop-opacity:0"/>
		</linearGradient>
		<path fill="url(#SVGID_10_)" d="M265.1,349.2c14.1,38.1,29.8,71.1,36.2,110.7c5.3,32.9,5.3,66.3,4.3,99.5
			c-3.3,109.7-41.5,336.7-41.5,336.7s-21.4-1.9-26-3.1c8.9-121.2,47.2-203,45.5-336.4c-1.3-26.4,1-54.8-1.2-81.2
			C278.9,433.5,268.5,391.1,265.1,349.2L265.1,349.2z"/>
	</g>
	<g opacity="0.97">
		<g>
			<g>
				
					<linearGradient id="SVGID_11_" gradientUnits="userSpaceOnUse" x1="223.4972" y1="767.6971" x2="735.2288" y2="767.6971" gradientTransform="matrix(0.9998 0 0 -1.012 0.3152 972.5113)">
					<stop  offset="0" style="stop-color:#FFFFFF;stop-opacity:0.3"/>
					<stop  offset="1" style="stop-color:#FFFFFF;stop-opacity:0"/>
				</linearGradient>
				<path fill="url(#SVGID_11_)" d="M702.9,271.5c-23,30.7-32.6,73-74,78.2c-36.6,4.6-89.8-23.6-126.6-26.7
					c-41.3-3.5-80.7,13.6-120.7,23.3c-40,9.7-88.1-3.7-113.3-32.6c-11.5-13.2-18-48.9-21.5-65.2c-11.4-52.7-18.5-74-22.8-127.4
					c-0.3-4.1-0.6-8.3,1.1-12c2-4.4,6.5-7.6,10.8-10.5c28.1-19.3,56.3-38.8,87.4-54.2c4.3-2.1,9.1-4.2,13.8-3.1
					c5.1,1.2,8.1,5.6,10.7,9.6c25.9,38.9,65.1,70.8,111.2,90.6c5.7,2.4,11.6,4.7,17.9,5.2c12.9,1.1,24.9-5.3,35.9-11.4
					c35.5-19.9,72.2-40.7,95.1-71.8c3.2-4.3,6.4-9.1,11.9-10.9c7.2-2.4,15,1.1,21.6,4.6c25.7,13.4,51.4,26.9,77.1,40.3
					c5,2.6,10.2,5.4,13.2,9.8c2.4,3.5,3,7.7,3.4,11.7c4.4,52.1-41.7,100.7-32.5,152.3"/>
			</g>
		</g>
	</g>
	<path fill="#1A1A1A" d="M672.2,831.9c-5.9,8.7-22.3,10-37.8,3.4c0.4,0.2,0.9,0.5,1.3,0.7c16.5,8.4,35,7.8,41.3-1.5
		c6-8.8-1.3-22.3-16.4-30.8C672.5,812.2,677.7,823.9,672.2,831.9z"/>
	<path fill="#1A1A1A" d="M663.9,827.6c-5.4,7.3-19.5,7.8-32.5,1.7c0.4,0.2,0.7,0.4,1.1,0.6c13.8,7.7,29.6,7.8,35.4,0.1
		c5.5-7.4-0.2-19.1-12.7-26.9C665,810.7,668.9,820.9,663.9,827.6z"/>
	<path fill="#1A1A1A" d="M693.7,857.4c-0.7,0.4-1.3,0.8-1.9,1c-0.6,0.2-1.3,0.3-2.1,0.3c-0.7,0-1.3-0.1-1.8-0.4
		c-0.5-0.2-0.9-0.6-1.2-1s-0.4-0.9-0.4-1.3c0-0.7,0.2-1.2,0.7-1.7s1.1-0.8,2-0.9c0.2,0,0.6-0.1,1.3-0.2c0.7-0.1,1.3-0.2,1.8-0.3
		s1-0.2,1.6-0.4c0-0.6-0.2-1.1-0.4-1.4c-0.3-0.3-0.8-0.4-1.6-0.4c-0.7,0-1.2,0.1-1.6,0.3c-0.4,0.2-0.7,0.4-0.9,0.8
		c-0.3,0.3-0.4,0.6-0.5,0.7c-0.1,0.1-0.3,0.2-0.7,0.2c-0.3,0-0.6-0.1-0.8-0.3s-0.3-0.4-0.3-0.7c0-0.4,0.2-0.8,0.5-1.2s0.9-0.7,1.6-1
		c0.7-0.3,1.6-0.4,2.7-0.4c1.2,0,2.2,0.1,2.8,0.4c0.7,0.2,1.2,0.6,1.5,1.2c0.3,0.5,0.4,1.2,0.4,2.1c0,0.6,0,1,0,1.4s0,0.8,0,1.3
		c0,0.4,0.1,0.9,0.3,1.4s0.3,0.8,0.3,0.9c0,0.2-0.1,0.5-0.4,0.7c-0.3,0.2-0.6,0.3-0.9,0.3c-0.3,0-0.6-0.1-0.8-0.3
		C694.2,858.2,694,857.9,693.7,857.4z M693.5,854c-0.4,0.1-1,0.3-1.8,0.4c-0.8,0.1-1.3,0.2-1.6,0.3s-0.6,0.2-0.8,0.4
		c-0.3,0.2-0.4,0.5-0.4,0.8c0,0.4,0.2,0.7,0.5,0.9c0.3,0.3,0.7,0.4,1.2,0.4s1-0.1,1.5-0.3s0.8-0.5,1-0.8c0.3-0.4,0.4-1,0.4-1.8
		L693.5,854L693.5,854z"/>
	<path fill="#1A1A1A" d="M675.3,846.9v3.6c0.5-0.5,1-0.8,1.6-1.1c0.5-0.2,1.2-0.4,2-0.4c0.9,0,1.7,0.2,2.4,0.6
		c0.7,0.4,1.2,0.9,1.6,1.6c0.4,0.7,0.6,1.6,0.6,2.5c0,0.7-0.1,1.4-0.3,2s-0.5,1.1-0.9,1.6c-0.4,0.4-0.9,0.8-1.5,1s-1.2,0.4-1.9,0.4
		c-0.4,0-0.8,0-1.2-0.1s-0.7-0.2-0.9-0.3c-0.3-0.1-0.5-0.3-0.7-0.4c-0.2-0.2-0.4-0.4-0.7-0.7v0.2c0,0.4-0.1,0.8-0.4,1
		c-0.2,0.2-0.6,0.3-0.9,0.3c-0.4,0-0.7-0.1-0.9-0.3s-0.3-0.6-0.3-1V847c0-0.5,0.1-0.8,0.3-1.1c0.2-0.2,0.5-0.4,0.9-0.4
		s0.8,0.1,1,0.4C675.2,846.2,675.3,846.5,675.3,846.9z M675.4,854c0,0.9,0.3,1.7,0.8,2.2s1.2,0.8,2,0.8c0.7,0,1.3-0.3,1.8-0.8
		s0.8-1.3,0.8-2.2c0-0.6-0.1-1.2-0.3-1.6c-0.2-0.5-0.5-0.8-0.9-1s-0.8-0.4-1.3-0.4s-1,0.1-1.4,0.4c-0.4,0.2-0.7,0.6-1,1.1
		C675.5,852.8,675.4,853.4,675.4,854z"/>
	<path fill="#1A1A1A" d="M665.7,854.1v3.2c0,0.5-0.1,0.9-0.4,1.1c-0.3,0.3-0.6,0.4-1,0.4s-0.8-0.1-1-0.4c-0.3-0.3-0.4-0.6-0.4-1.1
		v-3.8c0-0.6,0-1.1-0.1-1.4c0-0.3-0.2-0.6-0.4-0.8s-0.5-0.3-1-0.3c-0.9,0-1.5,0.3-1.8,0.8s-0.4,1.3-0.4,2.3v3.2
		c0,0.5-0.1,0.9-0.4,1.1c-0.3,0.3-0.6,0.4-1,0.4s-0.8-0.1-1-0.4c-0.3-0.2-0.4-0.6-0.4-1.1v-6.8c0-0.4,0.1-0.8,0.4-1
		c0.2-0.2,0.6-0.3,0.9-0.3c0.4,0,0.7,0.1,0.9,0.3c0.3,0.2,0.4,0.5,0.4,0.9v0.2c0.5-0.5,1-0.9,1.5-1.1c0.5-0.2,1.1-0.3,1.8-0.3
		s1.3,0.1,1.8,0.4c0.5,0.2,0.9,0.6,1.2,1.1c0.5-0.5,1-0.9,1.5-1.1c0.5-0.2,1.1-0.3,1.8-0.3s1.4,0.1,1.9,0.4c0.5,0.3,0.9,0.6,1.2,1.1
		c0.2,0.4,0.4,1.1,0.4,2v4.6c0,0.5-0.1,0.9-0.4,1.1c-0.3,0.3-0.6,0.4-1,0.4s-0.8-0.1-1-0.4c-0.3-0.2-0.4-0.6-0.4-1.1v-4
		c0-0.5,0-0.9-0.1-1.2s-0.2-0.6-0.4-0.8s-0.6-0.3-1-0.3s-0.7,0.1-1,0.3s-0.6,0.4-0.8,0.7C665.8,852.4,665.7,853.1,665.7,854.1z"/>
	<path fill="#1A1A1A" d="M654.9,854c0,0.7-0.1,1.4-0.4,2c-0.3,0.6-0.6,1.1-1.1,1.5s-1.1,0.8-1.7,1c-0.7,0.2-1.4,0.3-2.3,0.3
		c-0.8,0-1.6-0.1-2.2-0.3c-0.7-0.2-1.2-0.6-1.7-1s-0.9-0.9-1.1-1.5c-0.3-0.6-0.4-1.2-0.4-2c0-0.7,0.1-1.4,0.4-2
		c0.3-0.6,0.6-1.1,1.1-1.5s1-0.8,1.7-1s1.4-0.3,2.2-0.3s1.6,0.1,2.3,0.3s1.3,0.6,1.7,1c0.5,0.4,0.8,0.9,1.1,1.5
		C654.7,852.6,654.9,853.2,654.9,854z M652.1,854c0-1-0.2-1.7-0.7-2.3c-0.5-0.5-1.2-0.8-2-0.8c-0.5,0-1,0.1-1.4,0.4
		c-0.4,0.2-0.7,0.6-0.9,1.1s-0.3,1-0.3,1.6s0.1,1.2,0.3,1.6c0.2,0.5,0.5,0.8,0.9,1.1c0.4,0.2,0.9,0.4,1.4,0.4c0.8,0,1.5-0.3,2-0.8
		C651.9,855.7,652.1,854.9,652.1,854z"/>
	<path fill="#1A1A1A" d="M639.3,857c0.4,0.3,0.9,0.5,1.4,0.7s0.9,0.4,1,0.6c0.2,0.1,0.2,0.3,0.2,0.6c0,0.2-0.1,0.4-0.3,0.6
		c-0.2,0.2-0.4,0.3-0.7,0.3c-0.2,0-0.5-0.1-0.8-0.2c-0.3-0.1-0.7-0.3-1.1-0.6c-0.4-0.2-0.9-0.5-1.4-0.9c-1,0.4-2.2,0.6-3.6,0.6
		c-1.1,0-2.2-0.2-3.1-0.5c-0.9-0.3-1.7-0.8-2.3-1.4c-0.6-0.6-1.1-1.3-1.4-2.1c-0.3-0.8-0.5-1.7-0.5-2.7s0.2-1.9,0.5-2.7
		s0.8-1.5,1.4-2.1c0.6-0.6,1.4-1,2.3-1.3c0.9-0.3,1.9-0.5,3-0.5c1.5,0,2.8,0.3,3.9,0.8c1.1,0.5,1.9,1.3,2.5,2.3s0.8,2.2,0.8,3.5
		C641.2,854.2,640.5,855.8,639.3,857z M636.9,855.6c0.4-0.4,0.7-0.9,0.9-1.5s0.3-1.2,0.3-2c0-0.9-0.2-1.7-0.5-2.4s-0.8-1.2-1.5-1.6
		c-0.6-0.4-1.4-0.5-2.2-0.5c-0.6,0-1.1,0.1-1.6,0.3s-0.9,0.5-1.3,0.8c-0.4,0.4-0.7,0.9-0.9,1.4c-0.2,0.6-0.3,1.2-0.3,1.9
		c0,1.5,0.4,2.6,1.2,3.4c0.8,0.8,1.8,1.2,3,1.2c0.5,0,1-0.1,1.5-0.3c-0.3-0.2-0.7-0.4-1.2-0.6c-0.5-0.2-0.8-0.4-1-0.5
		s-0.3-0.3-0.3-0.5s0.1-0.3,0.2-0.5c0.2-0.1,0.4-0.2,0.6-0.2C634.5,854.2,635.5,854.7,636.9,855.6z"/>
	<path fill="none" stroke="#070606" stroke-width="0.25" stroke-linecap="round" stroke-miterlimit="10" stroke-dasharray="2.5" d="
		M343.6,43.7c0,0,7.5,43.9,62.8,77.2s55.2,37.3,55.2,37.3H480h18.4c0,0,0-4,55.2-37.3s62.8-77.2,62.8-77.2"/>
	
		<linearGradient id="SVGID_12_" gradientUnits="userSpaceOnUse" x1="347.4" y1="877.8" x2="612.7" y2="877.8" gradientTransform="matrix(1 0 0 -1 0 964)">
		<stop  offset="0" style="stop-color:#070606;stop-opacity:0.3"/>
		<stop  offset="4.446354e-02" style="stop-color:#0D0C0C;stop-opacity:0.2724"/>
		<stop  offset="0.1064" style="stop-color:#1F1E1E;stop-opacity:0.2339"/>
		<stop  offset="0.1786" style="stop-color:#3D3C3C;stop-opacity:0.1891"/>
		<stop  offset="0.2585" style="stop-color:#666666;stop-opacity:0.1394"/>
		<stop  offset="0.3449" style="stop-color:#9B9B9B;stop-opacity:8.575617e-02"/>
		<stop  offset="0.4352" style="stop-color:#DADADA;stop-opacity:2.964893e-02"/>
		<stop  offset="0.4829" style="stop-color:#FFFFFF;stop-opacity:0"/>
		<stop  offset="0.9488" style="stop-color:#4D4D4D;stop-opacity:0"/>
	</linearGradient>
	<path opacity="0.36" fill="url(#SVGID_12_)" enable-background="new    " d="M480.8,127.5c-21.5-8-62.9-29.3-90.5-59.9
		C362.7,37,375,21,375,21l-27.6,20c4.6,25.3,27.6,57.2,62.9,75.8s55.2,34.6,55.2,34.6h15.3h-1.5h15.3c0,0,19.9-16,55.2-34.6
		s58.3-50.6,62.9-75.8l-27.6-20c0,0,12.3,16-15.3,46.6s-69.1,51.9-90.5,59.9"/>
	<path fill="none" d="M403.1,81c0,0,86.8,21.4,153.2,0"/>
	<path fill="#FFFFFF" d="M480,106.7c-2.4,3.2-8.7,3.4-14.4,0.8c0.2,0.1,0.3,0.2,0.5,0.3c6.1,3.4,13.2,3.4,15.7,0
		c2.4-3.2-0.1-8.4-5.6-11.8C480.5,99.3,482.3,103.8,480,106.7z"/>
	<path fill="#FFFFFF" d="M483.7,108.6c-2.6,3.8-9.9,4.4-16.8,1.5c0.2,0.1,0.4,0.2,0.6,0.3c7.3,3.7,15.5,3.4,18.3-0.6
		c2.7-3.9-0.6-9.8-7.3-13.5C483.8,100,486.1,105.1,483.7,108.6z"/>
	<path fill="#FFFFFF" d="M469.1,119.6c0.2,0.1,0.4,0.2,0.6,0.3c0.2,0.1,0.4,0.2,0.5,0.3c0.1,0.1,0.1,0.1,0.1,0.3
		c0,0.1,0,0.2-0.1,0.2c-0.1,0.1-0.2,0.1-0.3,0.1c-0.1,0-0.2,0-0.4-0.1c-0.1-0.1-0.3-0.1-0.5-0.2s-0.4-0.2-0.6-0.4
		c-0.4,0.2-1,0.3-1.6,0.3c-0.5,0-1-0.1-1.4-0.2s-0.7-0.3-1-0.6c-0.3-0.3-0.5-0.6-0.6-0.9c-0.1-0.4-0.2-0.8-0.2-1.2
		c0-0.4,0.1-0.8,0.2-1.2c0.1-0.4,0.4-0.7,0.6-0.9c0.3-0.3,0.6-0.4,1-0.6c0.4-0.1,0.8-0.2,1.3-0.2c0.7,0,1.3,0.1,1.7,0.4
		c0.5,0.2,0.9,0.6,1.1,1c0.3,0.4,0.4,0.9,0.4,1.5C469.9,118.4,469.6,119.1,469.1,119.6z M468,119c0.2-0.2,0.3-0.4,0.4-0.6
		s0.1-0.5,0.1-0.9s-0.1-0.8-0.2-1.1c-0.2-0.3-0.4-0.5-0.7-0.7c-0.3-0.2-0.6-0.2-1-0.2c-0.3,0-0.5,0-0.7,0.1s-0.4,0.2-0.6,0.4
		c-0.2,0.2-0.3,0.4-0.4,0.6c-0.1,0.3-0.1,0.5-0.1,0.9c0,0.6,0.2,1.1,0.5,1.5c0.4,0.3,0.8,0.5,1.3,0.5c0.2,0,0.4,0,0.7-0.1
		c-0.1-0.1-0.3-0.2-0.5-0.3c-0.2-0.1-0.4-0.2-0.4-0.2c-0.1,0-0.1-0.1-0.1-0.2s0-0.1,0.1-0.2s0.2-0.1,0.2-0.1
		C467,118.4,467.4,118.6,468,119z"/>
	<path fill="#FFFFFF" d="M475.3,118.3c0,0.3-0.1,0.6-0.2,0.9s-0.3,0.5-0.5,0.7s-0.5,0.3-0.8,0.4s-0.6,0.2-1,0.2s-0.7-0.1-1-0.2
		s-0.5-0.2-0.8-0.4c-0.2-0.2-0.4-0.4-0.5-0.7c-0.1-0.3-0.2-0.5-0.2-0.9c0-0.3,0.1-0.6,0.2-0.9s0.3-0.5,0.5-0.7s0.5-0.3,0.8-0.4
		s0.6-0.2,1-0.2s0.7,0.1,1,0.2s0.6,0.2,0.8,0.4c0.2,0.2,0.4,0.4,0.5,0.7C475.3,117.7,475.3,118,475.3,118.3z M474.1,118.3
		c0-0.4-0.1-0.8-0.3-1c-0.2-0.2-0.5-0.4-0.9-0.4c-0.2,0-0.4,0.1-0.6,0.2s-0.3,0.3-0.4,0.5s-0.1,0.4-0.1,0.7c0,0.3,0,0.5,0.1,0.7
		s0.2,0.4,0.4,0.5c0.2,0.1,0.4,0.2,0.6,0.2c0.4,0,0.7-0.1,0.9-0.4C474,119,474.1,118.7,474.1,118.3z"/>
	<path fill="#FFFFFF" d="M480.1,118.4v1.4c0,0.2-0.1,0.4-0.2,0.5s-0.3,0.2-0.5,0.2s-0.3-0.1-0.4-0.2s-0.2-0.3-0.2-0.5v-1.7
		c0-0.3,0-0.5,0-0.6s-0.1-0.3-0.2-0.4s-0.2-0.1-0.4-0.1c-0.4,0-0.7,0.1-0.8,0.4c-0.1,0.2-0.2,0.6-0.2,1v1.4c0,0.2-0.1,0.4-0.2,0.5
		s-0.3,0.2-0.5,0.2s-0.3-0.1-0.5-0.2c-0.1-0.1-0.2-0.3-0.2-0.5v-3c0-0.2,0.1-0.3,0.2-0.4s0.2-0.2,0.4-0.2c0.2,0,0.3,0,0.4,0.1
		s0.2,0.2,0.2,0.4v0.1c0.2-0.2,0.4-0.4,0.7-0.5c0.2-0.1,0.5-0.2,0.8-0.2s0.6,0.1,0.8,0.2c0.2,0.1,0.4,0.3,0.5,0.5
		c0.2-0.2,0.4-0.4,0.7-0.5c0.2-0.1,0.5-0.2,0.8-0.2s0.6,0.1,0.9,0.2c0.2,0.1,0.4,0.3,0.5,0.5s0.2,0.5,0.2,0.9v2
		c0,0.2-0.1,0.4-0.2,0.5s-0.3,0.2-0.5,0.2s-0.3-0.1-0.5-0.2c-0.1-0.1-0.2-0.3-0.2-0.5V118c0-0.2,0-0.4,0-0.5s-0.1-0.2-0.2-0.3
		c-0.1-0.1-0.2-0.1-0.4-0.1c-0.2,0-0.3,0-0.5,0.1c-0.1,0.1-0.3,0.2-0.3,0.3C480.2,117.6,480.1,117.9,480.1,118.4z"/>
	<path fill="#FFFFFF" d="M485.1,115.2v1.6c0.2-0.2,0.5-0.4,0.7-0.5s0.5-0.2,0.9-0.2s0.8,0.1,1.1,0.2c0.3,0.2,0.5,0.4,0.7,0.7
		c0.2,0.3,0.3,0.7,0.3,1.1c0,0.3,0,0.6-0.1,0.9s-0.2,0.5-0.4,0.7c-0.2,0.2-0.4,0.3-0.6,0.4c-0.3,0.1-0.5,0.2-0.8,0.2
		c-0.2,0-0.4,0-0.5-0.1c-0.2,0-0.3-0.1-0.4-0.1c-0.1-0.1-0.2-0.1-0.3-0.2c-0.1-0.1-0.2-0.2-0.3-0.3v0.1c0,0.2-0.1,0.3-0.2,0.4
		s-0.3,0.2-0.4,0.2c-0.2,0-0.3-0.1-0.4-0.2s-0.2-0.2-0.2-0.4v-4.6c0-0.2,0.1-0.4,0.2-0.5s0.2-0.2,0.4-0.2c0.2,0,0.3,0.1,0.4,0.2
		C485,114.9,485.1,115,485.1,115.2z M485.2,118.3c0,0.4,0.1,0.7,0.3,1c0.2,0.2,0.5,0.3,0.9,0.3c0.3,0,0.6-0.1,0.8-0.3
		c0.2-0.2,0.3-0.6,0.3-1c0-0.3,0-0.5-0.1-0.7s-0.2-0.4-0.4-0.5c-0.2-0.1-0.4-0.2-0.6-0.2s-0.4,0.1-0.6,0.2s-0.3,0.3-0.4,0.5
		C485.2,117.8,485.2,118,485.2,118.3z"/>
	<path fill="#FFFFFF" d="M492.6,119.8c-0.3,0.2-0.6,0.3-0.9,0.4s-0.6,0.1-0.9,0.1s-0.6-0.1-0.8-0.2c-0.2-0.1-0.4-0.2-0.5-0.4
		c-0.1-0.2-0.2-0.4-0.2-0.6c0-0.3,0.1-0.5,0.3-0.7c0.2-0.2,0.5-0.3,0.9-0.4c0.1,0,0.3-0.1,0.6-0.1c0.3-0.1,0.6-0.1,0.8-0.1
		c0.2,0,0.5-0.1,0.7-0.2c0-0.3-0.1-0.5-0.2-0.6s-0.3-0.2-0.7-0.2c-0.3,0-0.5,0-0.7,0.1s-0.3,0.2-0.4,0.3c-0.1,0.1-0.2,0.2-0.2,0.3
		c0,0-0.1,0.1-0.3,0.1c-0.1,0-0.3,0-0.4-0.1s-0.1-0.2-0.1-0.3c0-0.2,0.1-0.4,0.2-0.5c0.2-0.2,0.4-0.3,0.7-0.4
		c0.3-0.1,0.7-0.2,1.2-0.2s1,0.1,1.3,0.2s0.5,0.3,0.6,0.5s0.2,0.5,0.2,0.9c0,0.2,0,0.5,0,0.6c0,0.2,0,0.4,0,0.6s0,0.4,0.1,0.6
		s0.1,0.3,0.1,0.4s-0.1,0.2-0.2,0.3c-0.1,0.1-0.2,0.1-0.4,0.1c-0.1,0-0.2-0.1-0.4-0.2C492.8,120.1,492.7,120,492.6,119.8z
		 M492.5,118.3c-0.2,0.1-0.4,0.1-0.8,0.2c-0.3,0.1-0.6,0.1-0.7,0.1s-0.3,0.1-0.4,0.2s-0.2,0.2-0.2,0.4c0,0.2,0.1,0.3,0.2,0.4
		s0.3,0.2,0.6,0.2c0.2,0,0.5,0,0.7-0.1s0.4-0.2,0.4-0.3c0.1-0.2,0.2-0.4,0.2-0.8L492.5,118.3L492.5,118.3z"/>
	
		<radialGradient id="SVGID_13_" cx="1383.5123" cy="644.1399" r="62.5297" gradientTransform="matrix(1.535 0 0 -1.3306 -880.1415 914.4926)" gradientUnits="userSpaceOnUse">
		<stop  offset="0" style="stop-color:#000000;stop-opacity:0"/>
		<stop  offset="0.1171" style="stop-color:#030303;stop-opacity:0"/>
		<stop  offset="0.1875" style="stop-color:#0B0B0B;stop-opacity:0"/>
		<stop  offset="0.2456" style="stop-color:#191919;stop-opacity:0"/>
		<stop  offset="0.297" style="stop-color:#2E2E2E;stop-opacity:0"/>
		<stop  offset="0.344" style="stop-color:#484848;stop-opacity:0"/>
		<stop  offset="0.3877" style="stop-color:#686868;stop-opacity:0"/>
		<stop  offset="0.429" style="stop-color:#8F8F8F;stop-opacity:0"/>
		<stop  offset="0.4683" style="stop-color:#BBBBBB;stop-opacity:0"/>
		<stop  offset="0.5047" style="stop-color:#EDEDED;stop-opacity:0"/>
		<stop  offset="0.517" style="stop-color:#FFFFFF;stop-opacity:0"/>
		<stop  offset="0.5619" style="stop-color:#F1F1F1;stop-opacity:2.785662e-02"/>
		<stop  offset="0.6461" style="stop-color:#CECDCD;stop-opacity:8.015504e-02"/>
		<stop  offset="0.7606" style="stop-color:#949393;stop-opacity:0.1513"/>
		<stop  offset="0.8995" style="stop-color:#454444;stop-opacity:0.2376"/>
		<stop  offset="1" style="stop-color:#070606;stop-opacity:0.3"/>
	</radialGradient>
	<path opacity="0.25" fill="url(#SVGID_13_)" enable-background="new    " d="M1242.7,88h20c72.1-9.3,112.1-41.2,112.1-41.2
		l-26.1-20c-32.2,33.3-93.6,34.6-93.6,34.6h-12.3h-20c0,0-44.5,0-87.5-34.6l-23,20c0,0,41.4,29.3,92.1,38.6
		C1204.3,85.4,1222.7,88,1242.7,88z"/>
	<g opacity="0.13">
		
			<radialGradient id="SVGID_14_" cx="1705.261" cy="206.9612" r="141.596" gradientTransform="matrix(-1.535 0 0 -1.3306 4041.1338 914.4926)" gradientUnits="userSpaceOnUse">
			<stop  offset="0" style="stop-color:#FFFFFF;stop-opacity:0.3"/>
			<stop  offset="1" style="stop-color:#FFFFFF;stop-opacity:0"/>
		</radialGradient>
		<path fill="url(#SVGID_14_)" d="M1388.5,901c7.6-69,12-138.2,13.1-207.5c1.7-107.5-4.1-217.8,37.3-319.1
			c-20.2,84.3-20.2,171.1-20.1,257.2c0,18.7,0,37.5,2.4,56.1c2.7,22,8.6,43.6,13.6,65.2c10.8,47,17.2,94.7,23.6,142.3
			c0.3,2.1,0.5,4.4-0.9,6.2c-1.9,2.3-5.6,2.5-8.8,2.4c-19.4-0.4-38.7-2.2-57.8-5.3"/>
	</g>
	<g opacity="0.53">
		
			<linearGradient id="SVGID_15_" gradientUnits="userSpaceOnUse" x1="571.3" y1="335.75" x2="647.0449" y2="335.75" gradientTransform="matrix(1 0 0 -1 432 964)">
			<stop  offset="0.1336" style="stop-color:#070606;stop-opacity:0.3"/>
			<stop  offset="1" style="stop-color:#070606;stop-opacity:0"/>
		</linearGradient>
		<path fill="url(#SVGID_15_)" d="M1034.7,354.5c13.5,38.3,34.7,72.1,40.5,111.8c4.8,33,4.3,66.3,2.8,99.5
			c-4.9,109.7-46.6,336.2-46.6,336.2s-23.5-0.2-28.1-1.6c19-155.3,43.4-212,47.4-335c-0.9-26.5-1.2-56.6-3-83
			C1044.9,440.5,1041.7,398.5,1034.7,354.5L1034.7,354.5z"/>
	</g>
	<g opacity="0.53">
		
			<linearGradient id="SVGID_16_" gradientUnits="userSpaceOnUse" x1="1934.9" y1="335.2" x2="2006.3448" y2="335.2" gradientTransform="matrix(-1 0 0 -1 3416 964)">
			<stop  offset="0.1336" style="stop-color:#070606;stop-opacity:0.3"/>
			<stop  offset="1" style="stop-color:#070606;stop-opacity:0"/>
		</linearGradient>
		<path fill="url(#SVGID_16_)" d="M1448.1,354.2c-13.5,38.3-28.7,71.5-34.6,111.1c-4.8,33-4.3,66.3-2.8,99.5
			c4.9,109.7,42,338.6,42,338.6s23.8-2.7,28.4-4c-10.7-121.1-36.6-203.4-44.7-337.3c0.9-26.5-0.4-57.9,1.4-84.3
			C1440.6,435.9,1445.3,396.1,1448.1,354.2L1448.1,354.2z"/>
	</g>
	<g opacity="0.97">
		<g>
			
				<radialGradient id="SVGID_17_" cx="1743.5356" cy="244.5839" r="126.3403" gradientTransform="matrix(-1.535 0 0 -1.6324 4041.1338 1053.9883)" gradientUnits="userSpaceOnUse">
				<stop  offset="0" style="stop-color:#FFFFFF;stop-opacity:0.3"/>
				<stop  offset="1" style="stop-color:#FFFFFF;stop-opacity:0"/>
			</radialGradient>
			<path fill="url(#SVGID_17_)" d="M1342.5,790.1c0.6,35,1.2,69.9,1.8,104.9c0.3,16.9-3.1,38.9-18.8,41.7
				c-9.2,1.7-18.2-5.2-22.6-13.9s-5.1-18.9-5.6-28.8c-6.6-128.3,6.2-257.8,37.8-381.9c11.8-46.2,28.3-94.9,65.1-122.5
				c10.2-7.7,21.8-13.5,33.8-17.1c-75.1,126.4-107.6,280.7-90.3,429.1"/>
		</g>
	</g>
	<g opacity="0.97">
		<g>
			
				<radialGradient id="SVGID_18_" cx="839.33" cy="299.1661" r="126.3403" gradientTransform="matrix(1.535 0 0 -1.6324 -220.0782 1053.9883)" gradientUnits="userSpaceOnUse">
				<stop  offset="0" style="stop-color:#FFFFFF;stop-opacity:0.3"/>
				<stop  offset="1" style="stop-color:#FFFFFF;stop-opacity:0"/>
			</radialGradient>
			<path fill="url(#SVGID_18_)" d="M1090.6,701c-0.6,35-1.2,69.9-1.8,104.9c-0.3,16.9,3.1,38.9,18.8,41.7
				c9.2,1.7,18.2-5.2,22.6-13.9s5.1-18.9,5.6-28.8c6.6-128.3-6.2-257.8-37.8-381.9c-11.8-46.2-28.3-94.9-65.1-122.5
				c-10.2-7.7-21.8-13.5-33.8-17.1c75.1,126.4,107.6,280.7,90.3,429.1"/>
		</g>
	</g>
	<g opacity="0.53">
		<g>
			
				<linearGradient id="SVGID_19_" gradientUnits="userSpaceOnUse" x1="1460.0649" y1="689.1229" x2="1502.698" y2="689.1229" gradientTransform="matrix(1 0 0 -1 0 964)">
				<stop  offset="0.1336" style="stop-color:#070606;stop-opacity:0.3"/>
				<stop  offset="1" style="stop-color:#070606;stop-opacity:0"/>
			</linearGradient>
			<path fill="url(#SVGID_19_)" d="M1489.9,368.5c-4-35.1-3.1-71,2.5-105.8c4.8-29.7,13.2-59.7,9.1-89.5
				c-10.3,14.7-20.9,29.8-26.4,48c-2.4,7.8-3.8,16-5.1,24.1c-5.9,34.7-11.7,69.9-9.6,105.2c0.7,11.2,4.4,25,13.7,26
				c5.4,0.6,10.3-3.9,14.5-8.1"/>
		</g>
	</g>
	<g opacity="0.53">
		<g>
			
				<linearGradient id="SVGID_20_" gradientUnits="userSpaceOnUse" x1="1766.8196" y1="689.1229" x2="1809.4526" y2="689.1229" gradientTransform="matrix(-1 0 0 -1 2789 964)">
				<stop  offset="0.1336" style="stop-color:#070606;stop-opacity:0.3"/>
				<stop  offset="1" style="stop-color:#070606;stop-opacity:0"/>
			</linearGradient>
			<path fill="url(#SVGID_20_)" d="M992.3,368.5c4-35.1,3.1-71-2.5-105.8c-4.8-29.7-13.2-59.7-9.1-89.5c10.3,14.7,20.9,29.8,26.4,48
				c2.4,7.8,3.8,16,5.1,24.1c5.9,34.7,11.7,69.9,9.6,105.2c-0.7,11.2-4.4,25-13.7,26c-5.4,0.6-10.3-3.9-14.5-8.1"/>
		</g>
	</g>
	<g opacity="0.19">
		<g>
			
				<linearGradient id="SVGID_21_" gradientUnits="userSpaceOnUse" x1="985.7391" y1="762.85" x2="1497.8743" y2="762.85" gradientTransform="matrix(1 0 0 -1 0 964)">
				<stop  offset="0" style="stop-color:#FFFFFF;stop-opacity:0.3"/>
				<stop  offset="1" style="stop-color:#FFFFFF;stop-opacity:0"/>
			</linearGradient>
			<path fill="url(#SVGID_21_)" d="M1020.1,344.2l444.8,11.3c0,0,44.1-164.6,30.3-237.5c0,0-90.6-31.3-121.3-71.2
				c0,0-124.3,111.1-261,0c0,0-84.4,66-125.9,71.2c0,0-10.9,135,31.4,216"/>
		</g>
	</g>
	<path fill="none" stroke="#070606" stroke-width="0.25" stroke-linecap="round" stroke-miterlimit="10" stroke-dasharray="2.5" d="
		M1107.2,51.1c0,0,56.4,46.5,136.2,45h1.5c79.8,1.5,136.2-45,136.2-45"/>
	<path fill="#FF0600" stroke="#0D0D0C" stroke-width="0.25" stroke-miterlimit="10" d="M480.1,80.2c0,0-13,0-37.8-0.5
		s-56.6-16.8-56.6-16.8L407.8,85c0,0,32.4,9.2,52.4,9.2c19.9,0,19.9,0,19.9,0s0,0,19.9,0c19.9,0,52.8-8.2,52.8-8.2l23.1-23
		c0,0-33.2,16.2-58,16.7C493.1,80.2,480.1,80.2,480.1,80.2z"/>
	<path fill="none" d="M362.3,72.3L362.3,72.3c32.6,11.4,71.8,17.2,116.5,17.3h0.8h0.3c0.1,0,0.2,0,0.3,0h0.7
		c44.6,0,83.8-5.9,116.5-17.3l0,0"/>
	<g opacity="0.99">
		
			<text transform="matrix(1.1363 0.1972 -0.171 0.9853 403.4639 83.1606)" fill="#CCCCCC" font-family="'LucidaSansUnicode'" font-size="9.3142px">Q</text>
		
			<text transform="matrix(1.1408 0.1695 -0.1469 0.9892 412.6514 84.7315)" fill="#CCCCCC" font-family="'LucidaSansUnicode'" font-size="9.3137px">o</text>
		
			<text transform="matrix(1.1445 0.1405 -0.1218 0.9926 420.1666 85.8559)" fill="#CCCCCC" font-family="'LucidaSansUnicode'" font-size="9.3146px">m</text>
		
			<text transform="matrix(1.1477 0.1129 -9.793454e-02 0.9952 431.1068 87.1652)" fill="#CCCCCC" font-family="'LucidaSansUnicode'" font-size="9.3142px">b</text>
		
			<text transform="matrix(1.1495 9.242293e-02 -8.014198e-02 0.9968 438.8287 87.9118)" fill="#CCCCCC" font-family="'LucidaSansUnicode'" font-size="9.3142px">a</text>
		
			<text transform="matrix(1.1507 7.718186e-02 -6.692611e-02 0.9978 445.7407 88.4528)" fill="#CCCCCC" font-family="'LucidaSansUnicode'" font-size="9.3146px"> </text>
		
			<text transform="matrix(1.1517 6.211215e-02 -5.385881e-02 0.9985 450.1171 88.7481)" fill="#CCCCCC" font-family="'LucidaSansUnicode'" font-size="9.3137px">-</text>
		
			<text transform="matrix(1.1522 4.742713e-02 -4.112512e-02 0.9992 457.3452 89.1235)" fill="#CCCCCC" font-family="'LucidaSansUnicode'" font-size="9.3146px"> </text>
		
			<text transform="matrix(1.1529 3.078442e-02 -2.669387e-02 0.9996 461.7216 89.3136)" fill="#CCCCCC" font-family="'LucidaSansUnicode'" font-size="9.3138px">Q</text>
		
			<text transform="matrix(1.1531 1.118512e-02 -9.698865e-03 1 471.0598 89.5455)" fill="#CCCCCC" font-family="'LucidaSansUnicode'" font-size="9.3146px">o</text>
		
			<text transform="matrix(1.1532 -8.250588e-03 7.154268e-03 1 478.6678 89.626)" fill="#CCCCCC" font-family="'LucidaSansUnicode'" font-size="9.3142px">m</text>
		
			<text transform="matrix(1.1529 -2.933238e-02 2.543475e-02 0.9997 489.6845 89.526)" fill="#CCCCCC" font-family="'LucidaSansUnicode'" font-size="9.3142px">b</text>
		
			<text transform="matrix(1.1523 -4.720632e-02 4.093365e-02 0.9992 497.4585 89.3171)" fill="#CCCCCC" font-family="'LucidaSansUnicode'" font-size="9.3146px">a</text>
		
			<text transform="matrix(1.1516 -6.148535e-02 5.331531e-02 0.9986 504.3899 89.0196)" fill="#CCCCCC" font-family="'LucidaSansUnicode'" font-size="9.3142px"> </text>
		
			<text transform="matrix(1.1507 -7.653645e-02 6.636646e-02 0.9978 508.7699 88.7899)" fill="#CCCCCC" font-family="'LucidaSansUnicode'" font-size="9.3142px">-</text>
		
			<text transform="matrix(1.1496 -9.216890e-02 7.992169e-02 0.9968 515.9808 88.2935)" fill="#CCCCCC" font-family="'LucidaSansUnicode'" font-size="9.3142px"> </text>
		
			<text transform="matrix(1.1479 -0.1113 9.651723e-02 0.9953 520.3574 87.9544)" fill="#CCCCCC" font-family="'LucidaSansUnicode'" font-size="9.3139px">Q</text>
		
			<text transform="matrix(1.1452 -0.136 0.1179 0.993 529.6359 87.0364)" fill="#CCCCCC" font-family="'LucidaSansUnicode'" font-size="9.3142px">o</text>
		
			<text transform="matrix(1.1413 -0.1646 0.1428 0.9898 537.1807 86.1501)" fill="#CCCCCC" font-family="'LucidaSansUnicode'" font-size="9.3146px">m</text>
		
			<text transform="matrix(1.1366 -0.1953 0.1693 0.9856 548.0798 84.5445)" fill="#CCCCCC" font-family="'LucidaSansUnicode'" font-size="9.3145px">b</text>
	</g>
	<g>
		<g>
			<defs>
				<path id="SVGID_22_" d="M479.4,900.5c0,0-41.4,1.3-52.2-1.3s-59.8-1.3-101.3,2.7c-41.4,4-89-6.7-89-6.7s6.1-25.3,6.1-49.2
					c0-24,27.6-123.7,33.8-187.6s4.6-146.4,4.6-173c0-26.6-18.4-139.7-23-188.9S226.2,183.3,221.6,154s3.1-53.2,3.1-53.2
					s41.4-22.6,61.4-27.9c19.9-5.3,61.4-30.6,61.4-30.6c3.1,27.9,36.8,63.9,66.8,79s49.8,32.8,49.8,32.8h15.3h15.3
					c0,0,19.9-17.7,49.8-32.8s63.7-51,66.8-79c0,0,41.4,25.3,61.4,30.6s61.4,27.9,61.4,27.9s7.7,24,3.1,53.2s-32.2,93.1-36.8,142.4
					s-23,162.3-23,188.9c0,26.6-1.5,109.1,4.6,173s34.6,164.8,34.6,188.7c3.8,26.1,6,47,6,47s-48.2,11.8-89.7,7.8
					c-41.4-4-90.5-5.3-101.3-2.7C520.8,901.8,479.4,900.5,479.4,900.5z"/>
			</defs>
			<clipPath id="SVGID_23_">
				<use xlink:href="#SVGID_22_"  overflow="visible"/>
			</clipPath>
			<g clip-path="url(#SVGID_23_)">
				<path fill="#0B0828" d="M479.5,646c-85,0-108.2-13.6-134.5-24.5c-47.6-19.8-64.5-6.4-64.5-6.4v-2c0,0,16.9-13.3,64.5,6.4
					c26.3,10.9,49.5,24.5,134.5,24.5s108.2-13.6,134.5-24.5c47.6-19.8,64.5-6.4,64.5-6.4v2c0,0-16.9-13.3-64.5,6.4
					C587.7,632.5,564.5,646,479.5,646z"/>
				<path fill="#0B0828" d="M479.5,652.5c-86.1,0-109.5-13.7-136.2-24.8c-48.2-20-65.3-6.5-65.3-6.5V619c0,0,17.2-13.5,65.4,6.5
					c26.6,11.1,50.1,24.8,136.1,24.8s109.5-13.7,136.2-24.8c48.2-20,65.4-6.5,65.4-6.5v2.2c0,0-17.1-13.5-65.3,6.5
					C589,638.8,565.6,652.5,479.5,652.5z"/>
				<path fill="#0B0828" d="M479.5,659c-87.1,0-110.9-13.9-137.8-25.1c-48.8-20.3-66.1-6.6-66.1-6.6V625c0,0,17.4-13.7,66.2,6.6
					c27,11.2,50.6,25.1,137.7,25.1s110.8-13.9,137.8-25.1c48.8-20.3,66.2-6.6,66.2-6.6v2.4c0,0-17.4-13.7-66.1,6.6
					C590.3,645.1,566.6,659,479.5,659z"/>
				<path fill="#0B0828" d="M479.5,665.5c-88.2,0-112.2-14.1-139.5-25.4c-49.4-20.5-66.9-6.7-66.9-6.7v-2.5c0,0,17.7-13.8,67,6.7
					c27.3,11.3,51.2,25.4,139.4,25.4s112.2-14.1,139.5-25.4c49.4-20.5,67-6.8,67-6.8v2.5c0,0-17.6-13.8-66.9,6.7
					C591.7,651.4,567.6,665.5,479.5,665.5z"/>
				<path fill="#0B0828" d="M479.5,671.9c-89.2,0-113.5-14.2-141.2-25.7c-50-20.7-67.7-6.7-67.7-6.7v-2.6c0,0,17.9-14,67.9,6.8
					c27.6,11.5,51.8,25.7,141,25.7s113.5-14.2,141.1-25.7c50-20.7,67.8-6.9,67.8-6.9v2.7c0,0-17.8-14-67.7,6.7
					C593,657.7,568.7,671.9,479.5,671.9z"/>
				<path fill="#0B0828" d="M479.5,678.4c-90.3,0-114.9-14.4-142.8-26c-50.5-21-68.5-6.8-68.5-6.8v-2.8c0,0,18.2-14.1,68.7,6.9
					c27.9,11.6,52.3,26,142.6,26s114.8-14.4,142.8-26c50.5-21,68.6-7,68.6-7v2.9c0,0-18-14.2-68.5,6.8
					C594.3,664,569.7,678.4,479.5,678.4z"/>
				<path fill="#0B0828" d="M479.4,684.9c-91.3,0-116.2-14.6-144.5-26.3c-51.1-21.2-69.3-6.9-69.3-6.9v-3c0,0,18.4-14.3,69.5,7
					C363.4,667.4,388,682,479.3,682s116.2-14.6,144.4-26.3c51.1-21.2,69.4-7.1,69.4-7.1v3.1c0,0-18.2-14.3-69.3,6.9
					C595.7,670.3,570.8,684.9,479.4,684.9z"/>
				<path fill="#0B0828" d="M479.4,691.4c-92.4,0-117.5-14.7-146.1-26.6c-51.7-21.5-70.1-7-70.1-7v-3.1c0,0,18.6-14.4,70.4,7.1
					c28.6,11.9,53.5,26.6,145.8,26.6s117.5-14.8,146.1-26.6c51.7-21.5,70.2-7.2,70.2-7.2v3.3c0,0-18.4-14.5-70.1,7
					C597,676.6,571.8,691.4,479.4,691.4z"/>
				<path fill="#0B0828" d="M479.4,697.9c-93.4,0-118.9-14.9-147.8-26.9c-52.3-21.7-70.9-7.1-70.9-7.1v-3.3c0,0,18.9-14.6,71.2,7.1
					c28.9,12,54,26.9,147.4,26.9s118.8-14.9,147.8-26.9c52.3-21.7,71-7.3,71-7.3v3.4c0,0-18.6-14.7-70.9,7.1
					C598.3,683,572.8,697.9,479.4,697.9z"/>
				<path fill="#0B0828" d="M479.4,704.4c-94.5,0-120.2-15.1-149.5-27.2c-52.9-22-71.7-7.1-71.7-7.1v-3.4c0,0,19.1-14.7,72,7.2
					c29.2,12.1,54.6,27.2,149.1,27.2s120.2-15.1,149.4-27.2c52.9-22,71.9-7.4,71.9-7.4v3.6c0,0-18.8-14.8-71.7,7.1
					C599.6,689.3,573.9,704.4,479.4,704.4z"/>
				<path fill="#0B0828" d="M479.4,710.8c-95.5,0-121.6-15.2-151.1-27.5c-53.5-22.2-72.5-7.2-72.5-7.2v-3.6c0,0,19.4-14.9,72.9,7.3
					c29.6,12.3,55.2,27.5,150.7,27.5s121.5-15.3,151.1-27.5c53.5-22.2,72.7-7.5,72.7-7.5v3.8c0,0-19-15-72.5,7.2
					C601,695.6,574.9,710.8,479.4,710.8z"/>
				<path fill="#0B0828" d="M479.4,717.3c-96.6,0-122.9-15.4-152.8-27.8c-54.1-22.5-73.3-7.3-73.3-7.3v-3.8c0,0,19.6-15,73.7,7.4
					c29.9,12.4,55.7,27.8,152.3,27.8s122.8-15.4,152.7-27.8c54.1-22.5,73.5-7.6,73.5-7.6v4c0,0-19.2-15.2-73.3,7.3
					C602.3,701.9,576,717.3,479.4,717.3z"/>
				<path fill="#0B0828" d="M479.4,723.8c-97.6,0-124.2-15.6-154.5-28.1c-54.7-22.7-74.1-7.4-74.1-7.4v-3.9c0,0,19.9-15.2,74.5,7.5
					c30.2,12.6,56.3,28.1,153.9,28.1s124.2-15.6,154.4-28.1c54.7-22.7,74.3-7.7,74.3-7.7v4.1c0,0-19.5-15.3-74.1,7.4
					C603.6,708.2,577,723.8,479.4,723.8z"/>
				<path fill="#0B0828" d="M479.4,730.3c-98.7,0-125.6-15.8-156.1-28.4c-55.3-22.9-74.9-7.5-74.9-7.5v-4.1c0,0,20.1-15.4,75.4,7.6
					c30.5,12.7,56.9,28.5,155.5,28.5s125.5-15.8,156-28.5c55.3-22.9,75.1-7.8,75.1-7.8v4.3c0,0-19.7-15.5-74.9,7.5
					C604.9,714.5,578,730.3,479.4,730.3z"/>
				<path fill="#0B0828" d="M479.4,736.8c-99.7,0-126.9-15.9-157.8-28.7c-55.8-23.2-75.7-7.5-75.7-7.5v-4.2c0,0,20.4-15.5,76.2,7.7
					c30.9,12.8,57.4,28.8,157.1,28.8S606,717,636.9,704.1c55.8-23.2,75.9-8,75.9-8v4.5c0,0-19.9-15.7-75.7,7.5
					C606.3,720.8,579.1,736.8,479.4,736.8z"/>
				<path fill="#0B0828" d="M479.4,743.2c-100.8,0-128.2-16.1-159.4-29c-56.4-23.4-76.5-7.6-76.5-7.6v-4.4c0,0,20.6-15.7,77,7.8
					c31.2,13,58,29.1,158.8,29.1S607.5,723,638.7,710c56.4-23.4,76.7-8.1,76.7-8.1v4.7c0,0-20.1-15.8-76.5,7.6
					C607.6,727.2,580.1,743.2,479.4,743.2z"/>
				<path fill="#0B0828" d="M479.3,749.7c-101.8,0-129.6-16.3-161.1-29.3c-57-23.7-77.3-7.7-77.3-7.7v-4.5c0,0,20.8-15.8,77.9,7.9
					c31.5,13.1,58.6,29.4,160.4,29.4s129.5-16.3,161-29.4c57-23.7,77.5-8.2,77.5-8.2v4.9c0,0-20.3-16-77.3,7.7
					C608.9,733.5,581.2,749.7,479.3,749.7z"/>
				<path fill="#0B0828" d="M479.3,756.2c-102.9,0-130.9-16.4-162.8-29.6c-57.6-23.9-78.1-7.8-78.1-7.8v-4.7c0,0,21.1-16,78.7,7.9
					c31.8,13.2,59.1,29.7,162,29.7S610,735.2,641.8,722c57.6-23.9,78.4-8.3,78.4-8.3v5c0,0-20.5-16.2-78.1,7.8
					C610.3,739.8,582.2,756.2,479.3,756.2z"/>
				<path fill="#0B0828" d="M479.3,762.7c-103.9,0-132.3-16.6-164.4-30c-58.2-24.2-78.9-7.9-78.9-7.9v-4.9c0,0,21.3-16.1,79.5,8
					c32.2,13.4,59.7,30,163.6,30s132.1-16.6,164.3-30c58.2-24.2,79.2-8.4,79.2-8.4v5.2c0,0-20.7-16.3-78.9,7.9
					C611.6,746.1,583.2,762.7,479.3,762.7z"/>
				<path fill="#0B0828" d="M479.3,769.2c-105,0-133.6-16.8-166.1-30.3c-58.8-24.4-79.7-7.9-79.7-7.9v-5c0,0,21.6-16.3,80.4,8.1
					c32.5,13.5,60.3,30.3,165.2,30.3s133.5-16.8,166-30.3c58.8-24.4,80-8.5,80-8.5v5.4c0,0-20.9-16.5-79.7,7.9
					C612.9,752.4,584.3,769.2,479.3,769.2z"/>
				<path fill="#0B0828" d="M479.3,775.6c-106,0-134.9-16.9-167.8-30.6c-59.4-24.7-80.5-8-80.5-8v-5.2c0,0,21.8-16.4,81.2,8.2
					c32.8,13.6,60.8,30.6,166.9,30.6s134.8-16.9,167.6-30.6c59.4-24.7,80.8-8.6,80.8-8.6v5.6c0,0-21.1-16.6-80.5,8
					C614.2,758.7,585.3,775.6,479.3,775.6z"/>
				<path fill="#0B0828" d="M479.3,782.1c-107.1,0-136.3-17.1-169.4-30.9c-60-24.9-81.3-8.1-81.3-8.1v-5.3c0,0,22.1-16.6,82,8.3
					C343.8,759.9,372,777,479.1,777s136.1-17.1,169.3-30.9c60-24.9,81.6-8.7,81.6-8.7v5.8c0,0-21.3-16.8-81.3,8.1
					C615.6,765,586.4,782.1,479.3,782.1z"/>
				<path fill="#0B0828" d="M479.3,788.6c-108.1,0-137.6-17.3-171.1-31.2c-60.5-25.1-82.1-8.2-82.1-8.2v-5.5c0,0,22.3-16.7,82.9,8.4
					c33.5,13.9,62,31.2,170.1,31.2s137.5-17.3,171-31.2c60.5-25.1,82.4-8.8,82.4-8.8v5.9c0,0-21.5-17-82.1,8.2
					C616.9,771.3,587.4,788.6,479.3,788.6z"/>
				<path fill="#0B0828" d="M479.3,795.1c-109.2,0-138.9-17.4-172.7-31.5c-61.1-25.4-82.9-8.3-82.9-8.3v-5.7c0,0,22.6-16.9,83.7,8.5
					c33.8,14,62.5,31.5,171.7,31.5s138.8-17.5,172.6-31.5c61.1-25.4,83.2-8.9,83.2-8.9v6.1c0,0-21.8-17.1-82.9,8.3
					C618.2,777.7,588.4,795.1,479.3,795.1z"/>
				<path fill="#0B0828" d="M479.3,801.6C369,801.6,339,784,304.9,769.8c-61.7-25.6-83.7-8.3-83.7-8.3v-5.8c0,0,22.8-17.1,84.5,8.6
					C339.8,778.4,368.8,796,479,796s140.1-17.6,174.3-31.8c61.7-25.6,84.1-9,84.1-9v6.3c0,0-22-17.3-83.7,8.3
					C619.5,784,589.5,801.6,479.3,801.6z"/>
				<path fill="#0B0828" d="M479.3,808c-111.3,0-141.7-17.7-176.1-32c-62.3-25.9-84.5-8.4-84.5-8.4v-6c0,0,23-17.2,85.4,8.7
					c34.5,14.3,63.7,32.1,174.9,32.1s141.5-17.8,175.9-32.1c62.3-25.9,84.9-9.2,84.9-9.2v6.5c0,0-22.2-17.5-84.5,8.4
					C620.9,790.3,590.5,808,479.3,808z"/>
				<path fill="#0B0828" d="M479.2,814.5c-112.3,0-142.9-17.9-177.7-32.4c-62.9-26.1-85.3-8.5-85.3-8.5v-6.1c0,0,23.3-17.4,86.2,8.8
					c34.8,14.4,64.2,32.4,176.6,32.4s142.8-18,177.6-32.4c62.9-26.1,85.7-9.3,85.7-9.3v6.6c0,0-22.4-17.6-85.3,8.5
					C622.2,796.6,591.6,814.5,479.2,814.5z"/>
				<path fill="#0B0828" d="M479.2,821c-113.4,0-144.3-18.1-179.4-32.7c-63.5-26.4-86.1-8.6-86.1-8.6v-6.3c0,0,23.5-17.5,87,8.8
					C335.9,796.9,365.6,815,479,815s144.1-18.1,179.2-32.7c63.5-26.4,86.5-9.4,86.5-9.4v6.8c0,0-22.6-17.8-86.1,8.6
					C623.5,802.9,592.6,821,479.2,821z"/>
				<path fill="#0B0828" d="M479.2,827.5c-114.4,0-145.6-18.3-181.1-33c-64.1-26.6-86.9-8.6-86.9-8.6v-6.5c0,0,23.8-17.7,87.9,8.9
					c35.4,14.7,65.4,33,179.8,33s145.5-18.3,180.9-33c64.1-26.6,87.3-9.5,87.3-9.5v7c0,0-22.8-18-86.9,8.6
					C624.8,809.2,593.6,827.5,479.2,827.5z"/>
				<path fill="#0B0828" d="M479.2,834c-115.5,0-147-18.4-182.7-33.3c-64.7-26.9-87.7-8.7-87.7-8.7v-6.6c0,0,24-17.8,88.7,9
					c35.8,14.8,65.9,33.3,181.4,33.3s146.8-18.5,182.5-33.3c64.7-26.9,88.1-9.6,88.1-9.6v7.2c0,0-23-18.1-87.7,8.7
					C626.2,815.5,594.7,834,479.2,834z"/>
				<path fill="#0B0828" d="M479.2,840.5c-116.5,0-148.3-18.6-184.4-33.6c-65.3-27.1-88.5-8.8-88.5-8.8v-6.8c0,0,24.3-18,89.5,9.1
					c36.1,15,66.5,33.6,183,33.6s148.1-18.6,184.2-33.6c65.3-27.1,88.9-9.7,88.9-9.7v7.4c0,0-23.2-18.3-88.5,8.8
					C627.5,821.9,595.7,840.5,479.2,840.5z"/>
				<path fill="#0B0828" d="M479.2,846.9c-117.6,0-149.6-18.8-186-33.9c-65.8-27.3-89.3-8.9-89.3-8.9v-6.9c0,0,24.5-18.1,90.4,9.2
					c36.4,15.1,67.1,33.9,184.6,33.9s149.5-18.8,185.9-33.9c65.8-27.3,89.7-9.8,89.7-9.8v7.5c0,0-23.4-18.5-89.3,8.9
					C628.8,828.2,596.8,846.9,479.2,846.9z"/>
				<path fill="#0B0828" d="M479.2,853.4c-118.6,0-151-18.9-187.7-34.2c-66.4-27.6-90.1-9-90.1-9v-7.1c0,0,24.7-18.3,91.2,9.3
					c36.7,15.3,67.6,34.2,186.3,34.2s150.8-19,187.5-34.2c66.4-27.6,90.6-9.9,90.6-9.9v7.7c0,0-23.6-18.6-90.1,9
					C630.2,834.5,597.8,853.4,479.2,853.4z"/>
				<path fill="#0B0828" d="M479.2,859.9c-119.7,0-152.3-19.1-189.4-34.5c-67-27.8-90.9-9-90.9-9v-7.3c0,0,25-18.4,92,9.4
					c37.1,15.4,68.3,34.5,188,34.5S631,833.9,668,818.5c67-27.8,91.4-10,91.4-10v7.9c0,0-23.9-18.8-90.9,9
					C631.5,840.8,598.8,859.9,479.2,859.9z"/>
				<path fill="#0B0828" d="M479.2,866.4c-120.7,0-153.6-19.3-191-34.8c-67.6-28.1-91.7-9.1-91.7-9.1v-7.4c0,0,25.2-18.6,92.8,9.5
					c37.4,15.5,68.8,34.8,189.5,34.8s153.5-19.3,190.8-34.8c67.6-28.1,92.2-10.1,92.2-10.1v8.1c0,0-24.1-19-91.7,9.1
					C632.8,847.1,599.9,866.4,479.2,866.4z"/>
				<path fill="#0B0828" d="M479.2,872.9c-121.8,0-155-19.4-192.7-35.1c-68.2-28.3-92.5-9.2-92.5-9.2V821c0,0,25.5-18.8,93.7,9.6
					c37.7,15.7,69.3,35.1,191.1,35.1s154.8-19.5,192.5-35.1c68.2-28.3,93-10.3,93-10.3v8.3c0,0-24.3-19.1-92.5,9.2
					C634.1,853.4,600.9,872.9,479.2,872.9z"/>
				<path fill="#0B0828" d="M479.1,879.3c-122.8,0-156.3-19.6-194.4-35.4c-68.8-28.6-93.3-9.3-93.3-9.3v-7.7c0,0,25.7-18.9,94.5,9.7
					c38,15.8,69.9,35.4,192.7,35.4s156.1-19.6,194.1-35.4c68.8-28.6,93.8-10.4,93.8-10.4v8.4c0,0-24.5-19.3-93.3,9.3
					C635.5,859.7,602,879.3,479.1,879.3z"/>
				<path fill="#0B0828" d="M479.1,885.8c-123.9,0-157.7-19.8-196-35.7c-69.4-28.8-94.1-9.4-94.1-9.4v-7.9c0,0,26-19.1,95.3,9.7
					c38.4,15.9,70.5,35.7,194.4,35.7s157.4-19.8,195.8-35.7c69.4-28.8,94.6-10.5,94.6-10.5v8.6c0,0-24.7-19.4-94.1,9.4
					C636.8,866,603,885.8,479.1,885.8z"/>
				<path fill="#0B0828" d="M479.1,892.3c-124.9,0-159-19.9-197.7-36c-70-29.1-94.9-9.4-94.9-9.4v-8c0,0,26.2-19.2,96.2,9.8
					c38.7,16.1,71,36,196,36s158.8-20,197.5-36c70-29.1,95.4-10.6,95.4-10.6v8.8c0,0-24.9-19.6-94.9,9.4
					C638.1,872.4,604,892.3,479.1,892.3z"/>
				<path fill="#0B0828" d="M479.1,898.8c-126,0-160.3-20.1-199.3-36.3c-70.6-29.3-95.7-9.5-95.7-9.5v-8.2c0,0,26.5-19.4,97,9.9
					c39,16.2,71.6,36.4,197.6,36.4s160.1-20.2,199.1-36.4C748.4,825.4,774,844,774,844v9c0,0-25.1-19.8-95.7,9.5
					C639.4,878.7,605.1,898.8,479.1,898.8z"/>
				<path fill="#0B0828" d="M479.1,905.3c-127,0-161.7-20.3-201-36.6c-71.1-29.5-96.5-9.6-96.5-9.6v-8.4c0,0,26.7-19.5,97.8,10
					c39.3,16.3,72.2,36.7,199.2,36.7s161.4-20.3,200.8-36.7c71.1-29.5,97.1-10.8,97.1-10.8v9.1c0,0-25.3-19.9-96.5,9.6
					C640.8,885,606.1,905.3,479.1,905.3z"/>
				<path fill="#0B0828" d="M479.1,911.7c-128.1,0-163-20.4-202.7-36.9c-71.7-29.8-97.3-9.7-97.3-9.7v-8.5c0,0,26.9-19.7,98.7,10.1
					c39.7,16.5,72.7,37,200.8,37s162.8-20.5,202.4-37c71.7-29.8,97.9-10.9,97.9-10.9v9.3c0,0-25.5-20.1-97.3,9.7
					C642.1,891.3,607.2,911.7,479.1,911.7z"/>
				<path fill="#0B0828" d="M479.1,918.2c-129.1,0-164.3-20.6-204.3-37.2c-72.3-30-98.1-9.8-98.1-9.8v-8.7c0,0,27.2-19.8,99.5,10.2
					c40,16.6,73.3,37.3,202.4,37.3s164.1-20.7,204.1-37.3c72.3-30,98.7-11,98.7-11v9.5c0,0-25.7-20.3-98.1,9.8
					C643.4,897.6,608.2,918.2,479.1,918.2z"/>
				<path fill="#0B0828" d="M479.1,924.7c-130.2,0-165.7-20.8-206-37.5c-72.9-30.3-98.9-9.8-98.9-9.8v-8.8c0,0,27.4-20,100.3,10.3
					c40.3,16.7,73.9,37.6,204.1,37.6s165.4-20.8,205.7-37.6c72.9-30.3,99.5-11.1,99.5-11.1v9.7c0,0-25.9-20.4-98.9,9.8
					C644.8,903.9,609.2,924.7,479.1,924.7z"/>
				<path fill="#0B0828" d="M479.1,931.2c-131.2,0-167-21-207.7-37.8c-73.5-30.5-99.6-9.9-99.6-9.9v-9c0,0,27.7-20.2,101.2,10.4
					c40.6,16.9,74.4,37.9,205.7,37.9s166.8-21,207.4-37.9c73.5-30.5,100.3-11.2,100.3-11.2v9.9c0,0-26.2-20.6-99.6,9.9
					C646.1,910.2,610.3,931.2,479.1,931.2z"/>
				<path fill="#0B0828" d="M479,937.7c-132.3,0-168.4-21.1-209.3-38.1c-74.1-30.8-100.4-10-100.4-10v-9.2c0,0,27.9-20.3,102,10.5
					c41,17,75,38.2,207.3,38.2s168.1-21.2,209.1-38.2c74.1-30.8,101.1-11.3,101.1-11.3v10c0,0-26.4-20.8-100.4,10
					C647.4,916.6,611.3,937.7,479,937.7z"/>
				<path fill="#0B0828" d="M479,944.2c-133.3,0-169.7-21.3-211-38.4c-74.7-31-101.2-10.1-101.2-10.1v-9.3c0,0,28.2-20.5,102.8,10.6
					c41.3,17.1,75.6,38.5,208.9,38.5S648,914,689.3,896.9c74.7-31,101.9-11.5,101.9-11.5v10.2c0,0-26.6-20.9-101.2,10.1
					C648.7,922.9,612.4,944.2,479,944.2z"/>
				<path fill="#0B0828" d="M479,950.6c-134.4,0-171-21.5-212.6-38.7c-75.3-31.3-102-10.2-102-10.2v-9.5c0,0,28.4-20.6,103.7,10.6
					c41.6,17.3,76.1,38.8,210.5,38.8s170.8-21.5,212.4-38.8c75.3-31.3,102.7-11.6,102.7-11.6v10.4c0,0-26.8-21.1-102,10.2
					C650.1,929.2,613.4,950.6,479,950.6z"/>
				<path fill="#0B0828" d="M479,957.1c-135.4,0-172.4-21.6-214.3-39c-75.8-31.5-102.8-10.2-102.8-10.2v-9.6
					c0,0,28.7-20.8,104.5,10.7c41.9,17.4,76.7,39.1,212.1,39.1s172.1-21.7,214-39.1c75.8-31.5,103.6-11.7,103.6-11.7v10.6
					c0,0-27-21.3-102.8,10.2C651.4,935.5,614.5,957.1,479,957.1z"/>
				<path fill="#0B0828" d="M479,963.6c-136.5,0-173.7-21.8-216-39.3C186.6,892.6,159.4,914,159.4,914v-9.8
					c0,0,28.9-20.9,105.3,10.8c42.3,17.6,77.3,39.4,213.8,39.4S652,932.5,694.2,915c76.4-31.7,104.4-11.8,104.4-11.8V914
					c0,0-27.2-21.4-103.6,10.3C652.7,941.8,615.5,963.6,479,963.6z"/>
				<path fill="#0B0828" d="M479,970.1c-137.5,0-175-22-217.6-39.6c-77-32-104.4-10.4-104.4-10.4v-10c0,0,29.1-21.1,106.2,10.9
					c42.6,17.7,77.8,39.7,215.4,39.7s174.8-22,217.3-39.7c77-32,105.2-11.9,105.2-11.9V920c0,0-27.4-21.6-104.4,10.4
					C654,948.1,616.5,970.1,479,970.1z"/>
				<path fill="#0B0828" d="M479,976.6c-138.6,0-176.4-22.1-219.3-39.9c-77.6-32.2-105.2-10.5-105.2-10.5v-10.1
					c0,0,29.4-21.2,107,11c42.9,17.8,78.4,40,217,40s176.1-22.2,219-40c77.6-32.2,106-12,106-12v11.1c0,0-27.6-21.8-105.2,10.5
					C655.4,954.4,617.6,976.6,479,976.6z"/>
			</g>
		</g>
	</g>
	<g>
		<g>
			<defs>
				<path id="SVGID_24_" d="M1240.4,906.6c0,0-41.4,1.3-52.2-1.3c-10.7-2.7-59.9-1.3-101.3,2.7c-41.1,10.5-82.1-6.5-82.1-6.5
					s2-29,7-53c4.9-23.6,18-121,30.3-186.8c13.7-83.2,8.1-142.7,8.1-169.5s-26.3-143.1-30.9-192.6s-32.2-113.7-36.8-143.1
					s3.1-53.5,3.1-53.5s41.4-22.7,61.4-28.1c20-5.3,61.4-30.8,61.4-30.8c3.1,28.1,36.8,64.2,66.8,79.4s49.9,32.9,49.9,32.9h15.4
					h15.4c0,0,19.9-17.7,49.9-32.9s63.7-51.3,66.8-79.4c0,0,41.4,25.4,61.4,30.8c20,5.3,61.4,28.1,61.4,28.1s7.7,24.1,3.1,53.5
					s-32.2,93.6-36.8,143.1c-4.6,49.5-23,163.1-23,189.9c0,26.7-5,118.4,8.5,183c6.1,64.2,24.8,150.7,27.8,174.1
					c5,27,8.2,54.8,8.2,54.8s-27.2,16.2-89,6.7c-41.4-4-90.6-5.3-101.3-2.7C1281.8,908,1240.4,906.6,1240.4,906.6z"/>
			</defs>
			<clipPath id="SVGID_25_">
				<use xlink:href="#SVGID_24_"  overflow="visible"/>
			</clipPath>
			<g clip-path="url(#SVGID_25_)">
				<path fill="#0B0828" d="M1238.7,654.5c-85,0-108.2-13.6-134.5-24.5c-47.6-19.8-64.5-6.4-64.5-6.4v-2c0,0,16.9-13.3,64.5,6.4
					c26.3,10.9,49.5,24.5,134.5,24.5s108.2-13.6,134.5-24.5c47.6-19.8,64.5-6.4,64.5-6.4v2c0,0-16.9-13.3-64.5,6.4
					C1346.9,640.9,1323.7,654.5,1238.7,654.5z"/>
				<path fill="#0B0828" d="M1238.7,661c-86.1,0-109.5-13.7-136.2-24.8c-48.2-20-65.3-6.5-65.3-6.5v-2.2c0,0,17.2-13.5,65.4,6.5
					c26.6,11.1,50.1,24.8,136.1,24.8s109.5-13.7,136.2-24.8c48.2-20,65.4-6.5,65.4-6.5v2.2c0,0-17.1-13.5-65.3,6.5
					C1348.2,647.2,1324.8,661,1238.7,661z"/>
				<path fill="#0B0828" d="M1238.7,667.4c-87.1,0-110.9-13.9-137.8-25.1c-48.8-20.3-66.1-6.6-66.1-6.6v-2.3c0,0,17.4-13.7,66.2,6.6
					c27,11.2,50.6,25.1,137.7,25.1s110.8-13.9,137.8-25.1c48.8-20.3,66.2-6.6,66.2-6.6v2.4c0,0-17.4-13.7-66.1,6.6
					C1349.6,653.5,1325.8,667.4,1238.7,667.4z"/>
				<path fill="#0B0828" d="M1238.7,673.9c-88.2,0-112.2-14.1-139.5-25.4c-49.4-20.5-66.9-6.7-66.9-6.7v-2.5c0,0,17.7-13.8,67,6.7
					c27.3,11.3,51.2,25.4,139.4,25.4c88.2,0,112.2-14.1,139.5-25.4c49.4-20.5,67-6.8,67-6.8v2.5c0,0-17.6-13.8-66.9,6.7
					C1350.9,659.9,1326.8,673.9,1238.7,673.9z"/>
				<path fill="#0B0828" d="M1238.7,680.4c-89.2,0-113.5-14.2-141.2-25.7c-50-20.7-67.7-6.7-67.7-6.7v-2.6c0,0,17.9-14,67.9,6.8
					c27.6,11.5,51.8,25.7,141,25.7s113.5-14.2,141.1-25.7c50-20.7,67.8-6.9,67.8-6.9v2.7c0,0-17.8-14-67.7,6.7
					C1352.2,666.2,1327.9,680.4,1238.7,680.4z"/>
				<path fill="#0B0828" d="M1238.7,686.9c-90.3,0-114.9-14.4-142.8-26c-50.5-21-68.5-6.8-68.5-6.8v-2.8c0,0,18.2-14.1,68.7,6.9
					c27.9,11.6,52.3,26,142.6,26c90.3,0,114.8-14.4,142.8-26c50.5-21,68.6-7,68.6-7v2.9c0,0-18-14.2-68.5,6.8
					C1353.5,672.5,1328.9,686.9,1238.7,686.9z"/>
				<path fill="#0B0828" d="M1238.7,693.4c-91.3,0-116.2-14.6-144.5-26.3c-51.1-21.2-69.3-6.9-69.3-6.9v-3c0,0,18.4-14.3,69.5,7
					c28.3,11.7,52.9,26.3,144.2,26.3c91.3,0,116.2-14.6,144.4-26.3c51.1-21.2,69.4-7.1,69.4-7.1v3.1c0,0-18.2-14.3-69.3,6.9
					C1354.9,678.8,1330,693.4,1238.7,693.4z"/>
				<path fill="#0B0828" d="M1238.7,699.8c-92.4,0-117.5-14.7-146.1-26.6c-51.7-21.5-70.1-7-70.1-7v-3.1c0,0,18.6-14.4,70.4,7.1
					c28.6,11.9,53.5,26.6,145.8,26.6s117.5-14.8,146.1-26.6c51.7-21.5,70.2-7.2,70.2-7.2v3.3c0,0-18.4-14.5-70.1,7
					C1356.2,685.1,1331,699.8,1238.7,699.8z"/>
				<path fill="#0B0828" d="M1238.6,706.3c-93.4,0-118.9-14.9-147.8-26.9c-52.3-21.7-70.9-7.1-70.9-7.1V669c0,0,18.9-14.6,71.2,7.1
					c28.9,12,54,26.9,147.4,26.9s118.8-14.9,147.8-26.9c52.3-21.7,71-7.3,71-7.3v3.4c0,0-18.6-14.7-70.9,7.1
					C1357.5,691.4,1332,706.3,1238.6,706.3z"/>
				<path fill="#0B0828" d="M1238.6,712.8c-94.5,0-120.2-15.1-149.5-27.2c-52.9-22-71.7-7.1-71.7-7.1v-3.4c0,0,19.1-14.7,72,7.2
					c29.2,12.1,54.6,27.2,149.1,27.2s120.2-15.1,149.4-27.2c52.9-22,71.9-7.4,71.9-7.4v3.6c0,0-18.8-14.8-71.7,7.1
					C1358.8,697.7,1333.1,712.8,1238.6,712.8z"/>
				<path fill="#0B0828" d="M1238.6,719.3c-95.5,0-121.6-15.2-151.1-27.5c-53.5-22.2-72.5-7.2-72.5-7.2V681c0,0,19.4-14.9,72.9,7.3
					c29.6,12.3,55.2,27.5,150.7,27.5s121.5-15.3,151.1-27.5c53.5-22.2,72.7-7.5,72.7-7.5v3.8c0,0-19-15-72.5,7.2
					C1360.2,704,1334.1,719.3,1238.6,719.3z"/>
				<path fill="#0B0828" d="M1238.6,725.8c-96.6,0-122.9-15.4-152.8-27.8c-54.1-22.5-73.3-7.3-73.3-7.3v-3.8c0,0,19.6-15,73.7,7.4
					c29.9,12.4,55.7,27.8,152.3,27.8s122.8-15.4,152.7-27.8c54.1-22.5,73.5-7.6,73.5-7.6v4c0,0-19.2-15.2-73.3,7.3
					C1361.5,710.4,1335.2,725.8,1238.6,725.8z"/>
				<path fill="#0B0828" d="M1238.6,732.3c-97.6,0-124.2-15.6-154.5-28.1c-54.7-22.7-74.1-7.4-74.1-7.4v-3.9c0,0,19.9-15.2,74.5,7.5
					c30.2,12.6,56.3,28.1,153.9,28.1s124.2-15.6,154.4-28.1c54.7-22.7,74.3-7.7,74.3-7.7v4.1c0,0-19.5-15.3-74.1,7.4
					C1362.8,716.7,1336.2,732.3,1238.6,732.3z"/>
				<path fill="#0B0828" d="M1238.6,738.7c-98.7,0-125.6-15.8-156.1-28.4c-55.3-22.9-74.9-7.5-74.9-7.5v-4.1c0,0,20.1-15.4,75.4,7.6
					c30.5,12.7,56.9,28.5,155.5,28.5s125.5-15.8,156-28.5c55.3-22.9,75.1-7.8,75.1-7.8v4.3c0,0-19.7-15.5-74.9,7.5
					C1364.2,723,1337.3,738.7,1238.6,738.7z"/>
				<path fill="#0B0828" d="M1238.6,745.2c-99.7,0-126.9-15.9-157.8-28.7c-55.8-23.2-75.7-7.5-75.7-7.5v-4.2c0,0,20.4-15.5,76.2,7.7
					c30.9,12.8,57.4,28.8,157.1,28.8s126.8-15.9,157.7-28.8c55.8-23.2,75.9-8,75.9-8v4.5c0,0-19.9-15.7-75.7,7.5
					C1365.5,729.3,1338.3,745.2,1238.6,745.2z"/>
				<path fill="#0B0828" d="M1238.6,751.7c-100.8,0-128.2-16.1-159.4-29c-56.4-23.4-76.5-7.6-76.5-7.6v-4.4c0,0,20.6-15.7,77,7.8
					c31.2,13,58,29.1,158.8,29.1s128.2-16.1,159.4-29.1c56.4-23.4,76.7-8.1,76.7-8.1v4.7c0,0-20.1-15.8-76.5,7.6
					C1366.8,735.6,1339.3,751.7,1238.6,751.7z"/>
				<path fill="#0B0828" d="M1238.6,758.2c-101.8,0-129.6-16.3-161.1-29.3c-57-23.7-77.3-7.7-77.3-7.7v-4.5c0,0,20.8-15.8,77.9,7.9
					c31.5,13.1,58.6,29.4,160.4,29.4s129.5-16.3,161-29.4c57-23.7,77.5-8.2,77.5-8.2v4.9c0,0-20.3-16-77.3,7.7
					C1368.1,741.9,1340.4,758.2,1238.6,758.2z"/>
				<path fill="#0B0828" d="M1238.6,764.7c-102.9,0-130.9-16.4-162.8-29.6c-57.6-23.9-78.1-7.8-78.1-7.8v-4.7c0,0,21.1-16,78.7,7.9
					c31.8,13.2,59.1,29.7,162,29.7s130.8-16.4,162.7-29.7c57.6-23.9,78.4-8.3,78.4-8.3v5c0,0-20.5-16.2-78.1,7.8
					C1369.5,748.2,1341.4,764.7,1238.6,764.7z"/>
				<path fill="#0B0828" d="M1238.5,771.1c-103.9,0-132.3-16.6-164.4-30c-58.2-24.2-78.9-7.9-78.9-7.9v-4.9c0,0,21.3-16.1,79.5,8
					c32.2,13.4,59.7,30,163.6,30s132.1-16.6,164.3-30c58.2-24.2,79.2-8.4,79.2-8.4v5.2c0,0-20.7-16.3-78.9,7.9
					C1370.8,754.5,1342.5,771.1,1238.5,771.1z"/>
				<path fill="#0B0828" d="M1238.5,777.6c-105,0-133.6-16.8-166.1-30.3c-58.8-24.4-79.7-7.9-79.7-7.9v-5c0,0,21.6-16.3,80.4,8.1
					c32.5,13.5,60.3,30.3,165.2,30.3c105,0,133.5-16.8,166-30.3c58.8-24.4,80-8.5,80-8.5v5.4c0,0-20.9-16.5-79.7,7.9
					C1372.1,760.9,1343.5,777.6,1238.5,777.6z"/>
				<path fill="#0B0828" d="M1238.5,784.1c-106,0-134.9-16.9-167.8-30.6c-59.4-24.7-80.5-8-80.5-8v-5.2c0,0,21.8-16.4,81.2,8.2
					c32.8,13.6,60.8,30.6,166.9,30.6s134.8-16.9,167.6-30.6c59.4-24.7,80.8-8.6,80.8-8.6v5.6c0,0-21.1-16.6-80.5,8
					C1373.4,767.2,1344.5,784.1,1238.5,784.1z"/>
				<path fill="#0B0828" d="M1238.5,790.6c-107.1,0-136.3-17.1-169.4-30.9c-60-24.9-81.3-8.1-81.3-8.1v-5.3c0,0,22.1-16.6,82,8.3
					c33.2,13.8,61.4,30.9,168.5,30.9s136.1-17.1,169.3-30.9c60-24.9,81.6-8.7,81.6-8.7v5.8c0,0-21.3-16.8-81.3,8.1
					C1374.8,773.5,1345.6,790.6,1238.5,790.6z"/>
				<path fill="#0B0828" d="M1238.5,797.1c-108.1,0-137.6-17.3-171.1-31.2c-60.5-25.1-82.1-8.2-82.1-8.2v-5.5
					c0,0,22.3-16.7,82.9,8.4c33.5,13.9,62,31.2,170.1,31.2s137.5-17.3,171-31.2c60.5-25.1,82.4-8.8,82.4-8.8v5.9
					c0,0-21.5-17-82.1,8.2C1376.1,779.8,1346.6,797.1,1238.5,797.1z"/>
				<path fill="#0B0828" d="M1238.5,803.5c-109.2,0-138.9-17.4-172.7-31.5c-61.1-25.4-82.9-8.3-82.9-8.3V758c0,0,22.6-16.9,83.7,8.5
					c33.8,14,62.5,31.5,171.7,31.5s138.8-17.5,172.6-31.5c61.1-25.4,83.2-8.9,83.2-8.9v6.1c0,0-21.8-17.1-82.9,8.2
					C1377.4,786.1,1347.7,803.5,1238.5,803.5z"/>
				<path fill="#0B0828" d="M1238.5,810c-110.2,0-140.3-17.6-174.4-31.8c-61.7-25.6-83.7-8.3-83.7-8.3v-5.8c0,0,22.8-17.1,84.5,8.6
					c34.1,14.2,63.1,31.8,173.3,31.8s140.1-17.6,174.3-31.8c61.7-25.6,84.1-9,84.1-9v6.3c0,0-22-17.3-83.7,8.3
					C1378.8,792.4,1348.7,810,1238.5,810z"/>
				<path fill="#0B0828" d="M1238.5,816.5c-111.3,0-141.6-17.8-176.1-32.1c-62.3-25.9-84.5-8.4-84.5-8.4v-6c0,0,23-17.2,85.4,8.7
					c34.5,14.3,63.7,32.1,174.9,32.1c111.3,0,141.5-17.8,175.9-32.1c62.3-25.9,84.9-9.2,84.9-9.2v6.5c0,0-22.2-17.5-84.5,8.4
					C1380.1,798.7,1349.7,816.5,1238.5,816.5z"/>
				<path fill="#0B0828" d="M1238.5,823c-112.3,0-142.9-17.9-177.7-32.4c-62.9-26.1-85.3-8.5-85.3-8.5V776c0,0,23.3-17.4,86.2,8.8
					c34.8,14.4,64.2,32.4,176.6,32.4s142.8-18,177.6-32.4c62.9-26.1,85.7-9.3,85.7-9.3v6.6c0,0-22.4-17.6-85.3,8.5
					C1381.4,805.1,1350.8,823,1238.5,823z"/>
				<path fill="#0B0828" d="M1238.4,829.5c-113.4,0-144.3-18.1-179.4-32.7c-63.5-26.4-86.1-8.6-86.1-8.6v-6.3c0,0,23.5-17.5,87,8.8
					c35.1,14.6,64.8,32.7,178.2,32.7c113.4,0,144.1-18.1,179.2-32.7c63.5-26.4,86.5-9.4,86.5-9.4v6.8c0,0-22.6-17.8-86.1,8.6
					C1382.7,811.4,1351.8,829.5,1238.4,829.5z"/>
				<path fill="#0B0828" d="M1238.4,835.9c-114.4,0-145.6-18.3-181.1-33c-64.1-26.6-86.9-8.6-86.9-8.6v-6.5c0,0,23.8-17.7,87.9,8.9
					c35.4,14.7,65.4,33,179.8,33s145.5-18.3,180.9-33c64.1-26.6,87.3-9.5,87.3-9.5v7c0,0-22.8-18-86.9,8.6
					C1384.1,817.7,1352.9,835.9,1238.4,835.9z"/>
				<path fill="#0B0828" d="M1238.4,842.4c-115.5,0-147-18.4-182.7-33.3c-64.7-26.9-87.7-8.7-87.7-8.7v-6.6c0,0,24-17.8,88.7,9
					c35.8,14.8,65.9,33.3,181.4,33.3s146.8-18.5,182.5-33.3c64.7-26.9,88.1-9.6,88.1-9.6v7.2c0,0-23-18.1-87.7,8.7
					C1385.4,824,1353.9,842.4,1238.4,842.4z"/>
				<path fill="#0B0828" d="M1238.4,848.9c-116.5,0-148.3-18.6-184.4-33.6c-65.3-27.1-88.5-8.8-88.5-8.8v-6.8c0,0,24.3-18,89.5,9.1
					c36.1,15,66.5,33.6,183,33.6s148.1-18.6,184.2-33.6c65.3-27.1,88.9-9.7,88.9-9.7v7.4c0,0-23.2-18.3-88.5,8.8
					C1386.7,830.3,1354.9,848.9,1238.4,848.9z"/>
				<path fill="#0B0828" d="M1238.4,855.4c-117.6,0-149.6-18.8-186-33.9c-65.8-27.3-89.3-8.9-89.3-8.9v-6.9c0,0,24.5-18.1,90.4,9.2
					c36.4,15.1,67.1,33.9,184.6,33.9s149.5-18.8,185.9-33.9c65.8-27.3,89.7-9.8,89.7-9.8v7.5c0,0-23.4-18.5-89.3,8.9
					C1388,836.6,1356,855.4,1238.4,855.4z"/>
				<path fill="#0B0828" d="M1238.4,861.9c-118.6,0-151-18.9-187.7-34.2c-66.4-27.6-90.1-9-90.1-9v-7.1c0,0,24.7-18.3,91.2,9.3
					c36.7,15.3,67.6,34.2,186.3,34.2s150.8-19,187.5-34.2c66.4-27.6,90.6-9.9,90.6-9.9v7.7c0,0-23.6-18.6-90.1,9
					C1389.4,842.9,1357,861.9,1238.4,861.9z"/>
				<path fill="#0B0828" d="M1238.4,868.4c-119.7,0-152.3-19.1-189.4-34.5c-67-27.8-90.9-9-90.9-9v-7.3c0,0,25-18.4,92,9.4
					c37.1,15.4,68.2,34.5,187.9,34.5s152.1-19.1,189.2-34.5c67-27.8,91.4-10,91.4-10v7.9c0,0-23.8-18.8-90.9,9
					C1390.7,849.2,1358.1,868.4,1238.4,868.4z"/>
				<path fill="#0B0828" d="M1238.4,874.8c-120.7,0-153.6-19.3-191-34.8c-67.6-28.1-91.7-9.1-91.7-9.1v-7.4c0,0,25.2-18.6,92.8,9.5
					c37.4,15.5,68.8,34.8,189.5,34.8s153.5-19.3,190.8-34.8c67.6-28.1,92.2-10.1,92.2-10.1v8.1c0,0-24.1-19-91.7,9.1
					C1392,855.6,1359.1,874.8,1238.4,874.8z"/>
				<path fill="#0B0828" d="M1238.4,881.3c-121.8,0-155-19.4-192.7-35.1c-68.2-28.3-92.5-9.2-92.5-9.2v-7.6c0,0,25.5-18.8,93.7,9.6
					c37.7,15.7,69.3,35.1,191.1,35.1c121.8,0,154.8-19.5,192.5-35.1c68.2-28.3,93-10.3,93-10.3v8.3c0,0-24.3-19.1-92.5,9.2
					C1393.4,861.9,1360.1,881.3,1238.4,881.3z"/>
				<path fill="#0B0828" d="M1238.4,887.8c-122.8,0-156.3-19.6-194.4-35.4c-68.8-28.6-93.3-9.3-93.3-9.3v-7.7
					c0,0,25.7-18.9,94.5,9.7c38,15.8,69.9,35.4,192.7,35.4s156.1-19.6,194.1-35.4c68.8-28.6,93.8-10.4,93.8-10.4v8.4
					c0,0-24.5-19.3-93.3,9.3C1394.7,868.2,1361.2,887.8,1238.4,887.8z"/>
				<path fill="#0B0828" d="M1238.3,894.3c-123.9,0-157.7-19.8-196-35.7c-69.4-28.8-94.1-9.4-94.1-9.4v-7.9c0,0,26-19.1,95.3,9.7
					c38.4,15.9,70.5,35.7,194.4,35.7s157.4-19.8,195.8-35.7c69.4-28.8,94.6-10.5,94.6-10.5v8.6c0,0-24.7-19.5-94.1,9.4
					C1396,874.5,1362.2,894.3,1238.3,894.3z"/>
				<path fill="#0B0828" d="M1238.3,900.8c-124.9,0-159-19.9-197.7-36c-70-29.1-94.9-9.4-94.9-9.4v-8c0,0,26.2-19.2,96.2,9.8
					c38.7,16.1,71,36,196,36s158.8-20,197.5-36c70-29.1,95.4-10.6,95.4-10.6v8.8c0,0-24.9-19.6-94.9,9.4
					C1397.3,880.8,1363.3,900.8,1238.3,900.8z"/>
				<path fill="#0B0828" d="M1238.3,907.2c-126,0-160.3-20.1-199.3-36.3c-70.6-29.3-95.7-9.5-95.7-9.5v-8.2c0,0,26.5-19.4,97,9.9
					c39,16.2,71.6,36.4,197.6,36.4s160.1-20.2,199.1-36.4c70.6-29.3,96.2-10.7,96.2-10.7v9c0,0-25.1-19.8-95.7,9.5
					C1398.7,887.1,1364.3,907.2,1238.3,907.2z"/>
				<path fill="#0B0828" d="M1238.3,913.7c-127,0-161.7-20.3-201-36.6c-71.1-29.5-96.5-9.6-96.5-9.6v-8.4c0,0,26.7-19.5,97.8,10
					c39.3,16.3,72.2,36.7,199.2,36.7s161.4-20.3,200.8-36.7c71.1-29.5,97.1-10.8,97.1-10.8v9.1c0,0-25.3-19.9-96.5,9.6
					C1400,893.4,1365.3,913.7,1238.3,913.7z"/>
				<path fill="#0B0828" d="M1238.3,920.2c-128.1,0-163-20.4-202.7-36.9c-71.7-29.8-97.3-9.7-97.3-9.7v-8.5c0,0,26.9-19.7,98.7,10.1
					c39.7,16.5,72.7,37,200.8,37s162.8-20.5,202.4-37c71.7-29.8,97.9-10.9,97.9-10.9v9.3c0,0-25.5-20.1-97.3,9.7
					C1401.3,899.8,1366.4,920.2,1238.3,920.2z"/>
				<path fill="#0B0828" d="M1238.3,926.7c-129.1,0-164.3-20.6-204.3-37.2c-72.3-30-98.1-9.8-98.1-9.8V871c0,0,27.2-19.8,99.5,10.2
					c40,16.6,73.3,37.3,202.4,37.3s164.1-20.7,204.1-37.3c72.3-30,98.7-11,98.7-11v9.5c0,0-25.7-20.3-98.1,9.8
					C1402.6,906.1,1367.4,926.7,1238.3,926.7z"/>
				<path fill="#0B0828" d="M1238.3,933.2c-130.2,0-165.7-20.8-206-37.5c-72.9-30.3-98.9-9.8-98.9-9.8v-8.8c0,0,27.4-20,100.3,10.3
					c40.3,16.7,73.9,37.6,204.1,37.6s165.4-20.8,205.7-37.6c72.9-30.3,99.5-11.1,99.5-11.1v9.7c0,0-25.9-20.4-98.9,9.8
					C1404,912.4,1368.5,933.2,1238.3,933.2z"/>
				<path fill="#0B0828" d="M1238.3,939.6c-131.2,0-167-21-207.7-37.8c-73.5-30.5-99.6-9.9-99.6-9.9v-9c0,0,27.7-20.2,101.2,10.4
					c40.6,16.9,74.4,37.9,205.7,37.9s166.8-21,207.4-37.9c73.5-30.5,100.3-11.2,100.3-11.2v9.9c0,0-26.2-20.6-99.6,9.9
					C1405.3,918.7,1369.5,939.6,1238.3,939.6z"/>
				<path fill="#0B0828" d="M1238.3,946.1c-132.3,0-168.4-21.1-209.3-38.1c-74.1-30.8-100.4-10-100.4-10v-9.2
					c0,0,27.9-20.3,102,10.5c41,17,75,38.2,207.3,38.2s168.1-21.2,209.1-38.2c74-30.8,101-11.3,101-11.3v10c0,0-26.4-20.8-100.4,10
					C1406.6,925,1370.5,946.1,1238.3,946.1z"/>
				<path fill="#0B0828" d="M1238.3,952.6c-133.3,0-169.7-21.3-211-38.4c-74.7-31-101.2-10.1-101.2-10.1v-9.3
					c0,0,28.2-20.5,102.8,10.6c41.3,17.1,75.6,38.5,208.9,38.5s169.4-21.3,210.7-38.5c74.7-31,101.9-11.5,101.9-11.5v10.2
					c0,0-26.6-20.9-101.2,10.1C1407.9,931.3,1371.6,952.6,1238.3,952.6z"/>
				<path fill="#0B0828" d="M1238.2,959.1c-134.4,0-171-21.5-212.6-38.7c-75.3-31.3-102-10.2-102-10.2v-9.5
					c0,0,28.4-20.6,103.7,10.6c41.6,17.3,76.1,38.8,210.5,38.8s170.8-21.5,212.4-38.8c75.3-31.3,102.7-11.6,102.7-11.6v10.4
					c0,0-26.8-21.1-102,10.2C1409.3,937.6,1372.6,959.1,1238.2,959.1z"/>
				<path fill="#0B0828" d="M1238.2,965.6c-135.4,0-172.4-21.6-214.3-39c-75.8-31.5-102.8-10.2-102.8-10.2v-9.6
					c0,0,28.7-20.8,104.5,10.7c41.9,17.4,76.7,39.1,212.1,39.1s172.1-21.7,214-39.1c75.8-31.5,103.6-11.7,103.6-11.7v10.6
					c0,0-27-21.3-102.8,10.2C1410.6,943.9,1373.7,965.6,1238.2,965.6z"/>
				<path fill="#0B0828" d="M1238.2,972.1c-136.5,0-173.7-21.8-216-39.3c-76.4-31.7-103.6-10.3-103.6-10.3v-9.8
					c0,0,28.9-20.9,105.3,10.8c42.3,17.6,77.3,39.4,213.8,39.4s173.4-21.8,215.7-39.4c76.4-31.7,104.4-11.8,104.4-11.8v10.8
					c0,0-27.2-21.4-103.6,10.3C1411.9,950.3,1374.7,972.1,1238.2,972.1z"/>
				<path fill="#0B0828" d="M1238.2,978.5c-137.5,0-175-22-217.6-39.6c-77-32-104.4-10.4-104.4-10.4v-10c0,0,29.1-21.1,106.2,10.9
					c42.6,17.7,77.8,39.7,215.4,39.7s174.8-22,217.3-39.7c77-32,105.2-11.9,105.2-11.9v10.9c0,0-27.4-21.6-104.4,10.4
					C1413.3,956.6,1375.7,978.5,1238.2,978.5z"/>
				<path fill="#0B0828" d="M1238.2,985c-138.6,0-176.4-22.1-219.3-39.9c-77.6-32.2-105.2-10.5-105.2-10.5v-10.1
					c0,0,29.4-21.2,107,11c42.9,17.8,78.4,40,217,40s176.1-22.2,219-40c77.6-32.2,106-12,106-12v11.1c0,0-27.6-21.8-105.2,10.5
					C1414.6,962.9,1376.8,985,1238.2,985z"/>
			</g>
		</g>
	</g>
</g>
<g id="Número_delantero">
	<text transform="matrix(1.0493 0 0 1 596.9189 309.9839)" fill="#AA1A1A" font-family="'SablonUp-College'" font-size="90px">10</text>
</g>
<g id="Remera_escudo">
	
		<image overflow="visible" enable-background="new    " width="200" height="200" xlink:href="../../../../../Downloads/escudo-01.png"  transform="matrix(0.5725 0 0 0.5456 267.4136 227.0238)">
	</image>
</g>
</svg>
