<?xml version="1.0" encoding="utf-8"?>
<!-- Generator: Adobe Illustrator 24.1.0, SVG Export Plug-In . SVG Version: 6.00 Build 0)  -->
<svg version="1.1" id="Capa_1" xmlns="http://www.w3.org/2000/svg" xmlns:xlink="http://www.w3.org/1999/xlink" x="0px" y="0px"
	 viewBox="0 0 850.4 963.8" style="enable-background:new 0 0 850.4 963.8;" xml:space="preserve">
<style type="text/css">
	.st0{fill:#E7EAEF;stroke:#BCC0C8;stroke-miterlimit:10;}
	.st1{fill:#E20A13;stroke:#242422;stroke-width:0.75;stroke-miterlimit:10;}
	.st2{fill:#48A035;}
	.st3{fill:#44413F;}
	.st4{opacity:0.75;fill:#FFFFFF;stroke:#989EA2;stroke-width:0.75;stroke-miterlimit:10;}
	.st5{opacity:0.75;fill:#FFFFFF;stroke:#9CA1A4;stroke-width:0.75;stroke-miterlimit:10;}
	.st6{opacity:0.5;}
	.st7{fill:none;stroke:#12110B;stroke-width:0.5;stroke-linecap:round;stroke-miterlimit:10;}
	.st8{fill:none;stroke:#12110B;stroke-width:0.5;stroke-linecap:round;stroke-miterlimit:10;stroke-dasharray:2.6356,2.6356;}
	.st9{fill:none;stroke:#12110B;stroke-width:0.5;stroke-linecap:round;stroke-miterlimit:10;stroke-dasharray:2.4725,2.4725;}
	.st10{fill:none;stroke:#12110B;stroke-width:0.5;stroke-linecap:round;stroke-miterlimit:10;stroke-dasharray:2.4723,2.4723;}
	.st11{fill:none;stroke:#12110B;stroke-width:0.5;stroke-linecap:round;stroke-miterlimit:10;stroke-dasharray:2.5011,2.5011;}
	.st12{fill:none;stroke:#12110B;stroke-width:0.5;stroke-linecap:round;stroke-miterlimit:10;stroke-dasharray:2.501,2.501;}
	.st13{fill:none;stroke:#12110B;stroke-width:0.5;stroke-linecap:round;stroke-miterlimit:10;stroke-dasharray:2.4908,2.4908;}
	.st14{fill:none;stroke:#12110B;stroke-width:0.5;stroke-linecap:round;stroke-miterlimit:10;stroke-dasharray:2.4844,2.4844;}
	.st15{fill:none;stroke:#12110B;stroke-width:0.5;stroke-linecap:round;stroke-miterlimit:10;stroke-dasharray:2.5262,2.5262;}
	.st16{fill:none;stroke:#12110B;stroke-width:0.5;stroke-linecap:round;stroke-miterlimit:10;stroke-dasharray:2.5171,2.5171;}
	.st17{fill:none;stroke:#12110B;stroke-width:0.5;stroke-linecap:round;stroke-miterlimit:10;stroke-dasharray:2.5258,2.5258;}
	.st18{fill:none;stroke:#12110B;stroke-width:0.5;stroke-linecap:round;stroke-miterlimit:10;stroke-dasharray:2.4845,2.4845;}
	.st19{opacity:0.1;}
	.st20{fill:none;stroke:#FFFFFF;stroke-linecap:round;stroke-miterlimit:10;}
	.st21{fill:none;stroke:#FFFFFF;stroke-width:0.979;stroke-linecap:round;stroke-miterlimit:10;}
	.st22{fill:none;stroke:#FFFFFF;stroke-width:0.958;stroke-linecap:round;stroke-miterlimit:10;}
	.st23{fill:none;stroke:#FFFFFF;stroke-width:0.937;stroke-linecap:round;stroke-miterlimit:10;}
	.st24{fill:none;stroke:#FFFFFF;stroke-width:0.916;stroke-linecap:round;stroke-miterlimit:10;}
	.st25{fill:none;stroke:#FFFFFF;stroke-width:0.895;stroke-linecap:round;stroke-miterlimit:10;}
	.st26{fill:none;stroke:#FFFFFF;stroke-width:0.874;stroke-linecap:round;stroke-miterlimit:10;}
	.st27{fill:none;stroke:#FFFFFF;stroke-width:0.853;stroke-linecap:round;stroke-miterlimit:10;}
	.st28{fill:none;stroke:#FFFFFF;stroke-width:0.832;stroke-linecap:round;stroke-miterlimit:10;}
	.st29{fill:none;stroke:#FFFFFF;stroke-width:0.811;stroke-linecap:round;stroke-miterlimit:10;}
	.st30{fill:none;stroke:#FFFFFF;stroke-width:0.79;stroke-linecap:round;stroke-miterlimit:10;}
	.st31{fill:none;stroke:#FFFFFF;stroke-width:0.769;stroke-linecap:round;stroke-miterlimit:10;}
	.st32{fill:none;stroke:#FFFFFF;stroke-width:0.748;stroke-linecap:round;stroke-miterlimit:10;}
	.st33{fill:none;stroke:#FFFFFF;stroke-width:0.727;stroke-linecap:round;stroke-miterlimit:10;}
	.st34{fill:none;stroke:#FFFFFF;stroke-width:0.706;stroke-linecap:round;stroke-miterlimit:10;}
	.st35{fill:none;stroke:#FFFFFF;stroke-width:0.685;stroke-linecap:round;stroke-miterlimit:10;}
	.st36{fill:none;stroke:#FFFFFF;stroke-width:0.664;stroke-linecap:round;stroke-miterlimit:10;}
	.st37{fill:none;stroke:#FFFFFF;stroke-width:0.643;stroke-linecap:round;stroke-miterlimit:10;}
	.st38{fill:none;stroke:#FFFFFF;stroke-width:0.622;stroke-linecap:round;stroke-miterlimit:10;}
	.st39{fill:none;stroke:#FFFFFF;stroke-width:0.6009;stroke-linecap:round;stroke-miterlimit:10;}
	.st40{fill:none;stroke:#FFFFFF;stroke-width:0.5799;stroke-linecap:round;stroke-miterlimit:10;}
	.st41{fill:none;stroke:#FFFFFF;stroke-width:0.5589;stroke-linecap:round;stroke-miterlimit:10;}
	.st42{fill:none;}
	.st43{opacity:0.93;}
	.st44{fill:#3C3C3B;}
	.st45{fill:#FFFFFF;}
	.st46{opacity:0.36;fill:url(#SVGID_2_);}
	.st47{opacity:0.36;fill:url(#SVGID_3_);}
	.st48{fill:url(#SVGID_4_);}
	.st49{fill:url(#SVGID_5_);}
	.st50{opacity:0.13;}
	.st51{filter:url(#Adobe_OpacityMaskFilter);}
	.st52{mask:url(#SVGID_6_);}
	.st53{fill:url(#SVGID_7_);}
	.st54{opacity:0.76;}
	.st55{filter:url(#Adobe_OpacityMaskFilter_1_);}
	.st56{mask:url(#SVGID_8_);}
	.st57{fill:url(#SVGID_9_);}
	.st58{filter:url(#Adobe_OpacityMaskFilter_2_);}
	.st59{mask:url(#SVGID_10_);}
	.st60{fill:url(#SVGID_11_);}
	.st61{filter:url(#Adobe_OpacityMaskFilter_3_);}
	.st62{mask:url(#SVGID_12_);}
	.st63{fill:url(#SVGID_13_);}
	.st64{filter:url(#Adobe_OpacityMaskFilter_4_);}
	.st65{mask:url(#SVGID_14_);}
	.st66{fill:url(#SVGID_15_);}
	.st67{opacity:0.54;}
	.st68{filter:url(#Adobe_OpacityMaskFilter_5_);}
	.st69{mask:url(#SVGID_16_);}
	.st70{filter:url(#Adobe_OpacityMaskFilter_6_);}
	.st71{fill:url(#SVGID_17_);}
	.st72{filter:url(#Adobe_OpacityMaskFilter_7_);}
	.st73{mask:url(#SVGID_18_);}
	.st74{filter:url(#Adobe_OpacityMaskFilter_8_);}
	.st75{fill:url(#SVGID_19_);}
	.st76{opacity:0.33;}
	.st77{filter:url(#Adobe_OpacityMaskFilter_9_);}
	.st78{mask:url(#SVGID_20_);}
	.st79{filter:url(#Adobe_OpacityMaskFilter_10_);}
	.st80{fill:url(#SVGID_21_);}
	.st81{opacity:0.25;}
	.st82{filter:url(#Adobe_OpacityMaskFilter_11_);}
	.st83{mask:url(#SVGID_22_);}
	.st84{fill:url(#SVGID_23_);}
	.st85{filter:url(#Adobe_OpacityMaskFilter_12_);}
	.st86{mask:url(#SVGID_24_);}
	.st87{fill:url(#SVGID_25_);}
	.st88{filter:url(#Adobe_OpacityMaskFilter_13_);}
	.st89{mask:url(#SVGID_26_);}
	.st90{fill:url(#SVGID_27_);}
	.st91{opacity:0.83;}
	.st92{filter:url(#Adobe_OpacityMaskFilter_14_);}
	.st93{mask:url(#SVGID_28_);}
	.st94{fill:url(#SVGID_29_);}
	.st95{filter:url(#Adobe_OpacityMaskFilter_15_);}
	.st96{mask:url(#SVGID_30_);}
	.st97{fill:url(#SVGID_31_);}
	.st98{filter:url(#Adobe_OpacityMaskFilter_16_);}
	.st99{mask:url(#SVGID_32_);}
	.st100{fill:url(#SVGID_33_);}
	.st101{opacity:0.29;}
	.st102{fill:url(#SVGID_34_);}
	.st103{fill:url(#SVGID_35_);}
	.st104{filter:url(#Adobe_OpacityMaskFilter_17_);}
	.st105{mask:url(#SVGID_36_);}
	.st106{filter:url(#Adobe_OpacityMaskFilter_18_);}
	.st107{fill:url(#SVGID_37_);}
	.st108{fill:url(#SVGID_38_);}
	.st109{opacity:0.36;fill:url(#SVGID_39_);}
</style>
<g id="Remera_cuello_y_puños">
</g>
<g id="Remera_principal">
</g>
<g id="Mangas">
</g>
<g id="Estampa">
</g>
<g id="Banda_Central">
</g>
<path class="st0" d="M652,863.5l-13.9-33c0,0-133.3,35.5-438.9,0l-11.1,33C188.1,863.5,424.2,896.5,652,863.5z"/>
<path id="TIRA_LIMPIEZA_1_" class="st1" d="M535.1,52.3c-2.8,4.9-6.8,10.9-12.1,17.1c-22.2,8-53.9,14.9-97.1,14.9h-0.3c0,0,0,0,0,0
	h0c0,0,0,0,0,0h-0.8c0,0,0,0,0,0h0c0,0,0,0,0,0h-0.3c-43.3,0-74.9-6.9-97.1-14.9c-5.3-6.2-9.2-12.2-12.1-17.1c0.5,0.2,1,0.4,1.5,0.7
	c0.5,0.2,0.9,0.4,1.4,0.6c0.3,0.1,0.5,0.2,0.8,0.3c0.5,0.2,1,0.4,1.4,0.6c0.3,0.1,0.6,0.2,0.8,0.3c0.5,0.2,0.9,0.4,1.4,0.5
	c0.3,0.1,0.7,0.3,1,0.4c22.3,8.6,55.1,16.3,100.8,16.3h1.6c45.7,0,78.5-7.8,100.8-16.3c0.3-0.1,0.7-0.3,1-0.4
	c0.5-0.2,0.9-0.4,1.4-0.5c0.3-0.1,0.6-0.2,0.8-0.3c0.5-0.2,1-0.4,1.4-0.6c0.3-0.1,0.5-0.2,0.8-0.3c0.5-0.2,0.9-0.4,1.4-0.6
	C534.1,52.7,534.6,52.5,535.1,52.3z"/>
<path class="st2" d="M679.8,904.6c-1.1-6.1-1.8-12.4-2.3-18.6c-6.6-72.1-17.8-173.8-19.5-197.6c-1.8-23.8-5.3-51.3-4.7-80.8
	c0.7-20.1-0.6-37.2-0.2-57.1c-2.7-30.2,1.3-91.2,1.3-91.2c0-17.7-1-34,2.2-48.9c0,0,0,0,0-0.1c0.9-8.4,1.9-16.7,3-24.7v0
	c9-128.1,42.6-205.9,60.8-243.5c-19.4-14.7-51.6-25.5-60.1-28.9c-1.4-0.6-2.7-1-3.8-1.5c-50.2-20.2-79-38.4-94.7-49.5
	c0.3-0.5,0.5-1,0.7-1.5c-1.8,3.7-3.9,7.6-6.4,11.7c-9.8,15.1-32.7,35.5-58.6,46c-18.5,7.5-28,15.8-28,15.8h-44.2c0,0-0.1,0-0.1,0v0
	c0,0,0,0,0,0c0,0,0,0,0,0v0c0,0-0.1,0-0.1,0h-44.2c0,0-9.6-8.3-28-15.8c-25.9-10.4-48.8-30.9-58.6-46c-2.5-4-4.6-7.9-6.4-11.7
	c0.2,0.5,0.5,1,0.7,1.5c-15.7,11.1-44.5,29.3-94.7,49.5c-1.1,0.4-2.4,0.9-3.8,1.5c-8.5,3.4-40.6,14.2-60.1,28.9
	c18.1,37.6,51.8,115.4,60.8,243.5v0c1.1,8,2.1,16.3,3,24.7c0,0,0,0,0,0.1c3.2,14.9,2.2,31.2,2.2,48.9c0,0,4,61,1.3,91.2
	c0.3,19.9-0.9,37-0.2,57.1c0.5,29.4-3,57-4.7,80.8c-1.8,23.8-12.9,125.4-19.5,197.6c-0.6,6.3-1.3,12.5-2.3,18.6
	c-1.2,7.2-6,27.5-2.1,31.4c2.2,2.2,6.9,3.8,13,5.1c4.2,0.9,8.9,1.6,13.9,2.1c5,0.5,10.1,0.9,14.9,1.3c22,2.3,55.6-5,98-2.8
	c33.9,1.8,73.4,4.3,116.9,5.9h0h0h0c43.5-1.5,83-4.1,116.9-5.9c42.4-2.2,76.1,5.1,98,2.8c4.9-0.3,10-0.7,14.9-1.3
	c5-0.6,9.7-1.3,13.9-2.1c6-1.3,10.8-2.9,13-5.1C685.8,932.2,681,911.8,679.8,904.6z"/>
<path class="st3" d="M114.5,118.9c4.8-3.4,10-6.7,15.3-9.7c-6.8,6.2-8.5,16.3-4.4,24.4c0.5,1,1,2,1.6,3.1c0,0.1,0.1,0.2,0.1,0.2
	c17.2,34.6,54.2,112.9,63.6,246.5v0c-2.8,6.1-5,9.9-8,17.1c-0.7,1.7-0.6,6.7-3.1,8.7c-51.2-2.9-117-24.5-139.4-36.9
	c-0.7-0.4-1.4-0.7-2-1c-1.8-0.9-3.4-1.9-4.7-2.9c-0.8-3.8,2.6-4.9,3.4-7.3c11.6-36.3,23.9-64.2,28.3-98.4
	c11.1-86.5,16.8-112.1,38.8-134.3C106.5,125.7,111.6,120.9,114.5,118.9z"/>
<path class="st3" d="M288.5,63.4c-15.7,11.1-44.5,29.3-94.7,49.5c-1.1,0.4-2.4,0.9-3.8,1.5c-8.5,3.4-40.6,14.2-60.1,28.9
	c-1-2.1-2-4.1-2.9-5.9c0-0.1-0.1-0.2-0.1-0.2c-0.6-1.1-1.1-2.2-1.6-3.2c-4.1-8.2-2.5-18.4,4.4-24.7c19.7-11.3,41.2-19.4,51.1-23.4
	c59.8-24,86-44.3,97.4-52.7c-0.2,0.1-0.3,0.3-0.5,0.4C279,38.8,281.8,50,288.5,63.4z"/>
<path class="st3" d="M735.8,118.9c-4.8-3.4-10-6.7-15.3-9.7c6.8,6.2,8.5,16.3,4.4,24.4c-0.5,1-1,2-1.6,3.1c0,0.1-0.1,0.2-0.1,0.2
	c-17.2,34.6-54.2,112.9-63.6,246.5v0c2.8,6.1,5,9.9,8,17.1c0.7,1.7,0.6,6.7,3.1,8.7c51.2-2.9,117-24.5,139.4-36.9
	c0.7-0.4,1.4-0.7,2-1c1.8-0.9,3.4-1.9,4.7-2.9c0.8-3.8-2.6-4.9-3.4-7.3c-11.6-36.3-23.9-64.2-28.3-98.4
	c-11.1-86.5-16.8-112.1-38.8-134.3C743.8,125.7,738.7,120.9,735.8,118.9z"/>
<path class="st3" d="M561.8,63.4c15.7,11.1,44.5,29.3,94.7,49.5c1.1,0.4,2.4,0.9,3.8,1.5c8.5,3.4,40.6,14.2,60.1,28.9
	c1-2.1,2-4.1,2.9-5.9c0-0.1,0.1-0.2,0.1-0.2c0.6-1.1,1.1-2.2,1.6-3.2c4.1-8.2,2.5-18.4-4.4-24.7c-19.7-11.3-41.2-19.4-51.1-23.4
	c-59.8-24-86-44.3-97.4-52.7c0.2,0.1,0.3,0.3,0.5,0.4C571.4,38.8,568.5,50,561.8,63.4z"/>
<path class="st4" d="M179.6,409.2c0,0-3.4,3.8-5.1,5.3c-2.7,2.5-5.7,9.8-8.3,15.5c-0.4,0.8-0.7,2.7-3.4,2.7
	c-36.7-0.8-100-19.8-121.6-30.8c-0.6-0.3-10-4.3-11.2-6.1c-0.8-1.1-0.5-2.3,0-3.5c3.3-8.1,5.5-13.4,5.2-16.8
	c-0.3-3.2-1.8-7.1-1.8-7.2c1.3,1,2.9,2,4.7,2.9c0.4,0.2,0.8,0.4,1.2,0.6c0.3,0.1,0.6,0.3,0.9,0.4c10.5,5.9,34.2,15.4,63.7,23.4
	c1,0.3,2.1,0.6,3.1,0.8C130.6,402.8,156.6,407.9,179.6,409.2z"/>
<path class="st4" d="M672,408c0,0,3.4,3.8,5.1,5.3c2.7,2.5,5.7,9.8,8.3,15.5c0.4,0.8,0.7,2.7,3.4,2.7c36.7-0.8,100-19.8,121.6-30.8
	c0.6-0.3,10-4.3,11.2-6.1c0.8-1.1,0.5-2.3,0-3.5c-3.3-8.1-5.5-13.4-5.2-16.8c0.3-3.2,1.8-7.1,1.8-7.2c-1.3,1-2.9,2-4.7,2.9
	c-0.4,0.2-0.8,0.4-1.2,0.6c-0.3,0.1-0.6,0.3-0.9,0.4c-10.5,5.9-34.2,15.4-63.7,23.4c-1,0.3-2.1,0.6-3.1,0.8
	C721,401.6,695,406.7,672,408z"/>
<path class="st5" d="M306.2,18.5c-1.2-0.8-2.3-1-2.9-0.5c-0.1,0.1-0.1,0.2-0.2,0.3c-0.1,0.1-0.1,0.2-0.2,0.3
	c-0.1,0.2-0.1,0.4-0.2,0.7c-0.1,0.9,0,2.3,0.4,4.3c0.1,0.5,0.2,1,0.4,1.5c0.2,0.9,0.5,1.9,0.9,3c0.1,0.2,0.1,0.4,0.2,0.7
	c0.2,0.7,0.5,1.4,0.8,2.2c0.2,0.5,0.4,1,0.6,1.6c0.2,0.5,0.4,1.1,0.6,1.7c0.8,2,1.7,4.3,2.8,6.8c0.5,1.1,1,2.3,1.5,3.4
	c0.2,0.3,0.3,0.7,0.5,1c1,1.9,2.2,4.3,3.7,6.9c0.5,0.2,1,0.4,1.5,0.7c0.5,0.2,0.9,0.4,1.4,0.6c0.3,0.1,0.5,0.2,0.8,0.3
	c0.5,0.2,1,0.4,1.4,0.6c0.3,0.1,0.6,0.2,0.8,0.3c0.5,0.2,0.9,0.4,1.4,0.5c0.3,0.1,0.7,0.3,1,0.4c22.3,8.6,55.1,16.3,100.8,16.3h1.6
	c45.7,0,78.5-7.8,100.8-16.3c0.3-0.1,0.7-0.3,1-0.4c0.5-0.2,0.9-0.4,1.4-0.5c0.3-0.1,0.6-0.2,0.8-0.3c0.5-0.2,1-0.4,1.4-0.6
	c0.3-0.1,0.5-0.2,0.8-0.3c0.5-0.2,0.9-0.4,1.4-0.6c0.5-0.2,1-0.4,1.5-0.6c1.5-2.6,2.7-5,3.7-6.9c0.2-0.3,0.3-0.7,0.5-1
	c0.7-1.6,1.2-2.7,1.4-3.2c0-0.1,0.1-0.1,0.1-0.2c1.1-2.5,2-4.7,2.8-6.8c0.2-0.6,0.4-1.1,0.6-1.7c0.2-0.5,0.4-1.1,0.6-1.6
	c0.3-0.8,0.5-1.5,0.8-2.2c0.1-0.2,0.2-0.4,0.2-0.7c0.4-1.1,0.7-2.1,0.9-3c0.1-0.5,0.3-1,0.4-1.5c0.4-1.9,0.5-3.3,0.4-4.3
	c0-0.3-0.1-0.5-0.2-0.7c0-0.1-0.1-0.2-0.2-0.3c-0.1-0.1-0.1-0.2-0.2-0.3c-0.6-0.6-1.7-0.3-2.9,0.5c-0.1,0.1-0.2,0.1-0.3,0.2v0h0l0,0
	c-12.8,9.4-48.6,28.5-117.9,28.5h-1.5c-69.3-0.1-105.1-19.1-117.9-28.5c0,0,0,0,0,0v0C306.4,18.7,306.3,18.6,306.2,18.5z"/>
<path class="st5" d="M425.1,134.1h-44.2c0,0-9.6-8.3-28-15.8c-25.9-10.4-48.8-30.9-58.6-46c-2.1-3.5-4-6.9-5.6-10.1
	c-6.7-13.4-9.6-24.6-10.8-29.8c0.2-0.1,0.3-0.2,0.5-0.4c0.2-0.1,0.4-0.3,0.6-0.4c4.6-3.5,11.2-8.4,14.3-11.3
	c2.1-1.9,3.8-3.6,4.9-4.7c0.8-0.8,1.8-1.3,2.9-1.3c1,0,1.8,0.4,2.4,0.8c0.6,0.4,1.1,0.9,1.6,1.3c0.5,0.4,0.9,0.7,1.5,1.2
	c-0.1-0.1-0.2-0.1-0.3-0.2c-1.2-0.8-2.3-1-2.9-0.5c-0.1,0.1-0.1,0.2-0.2,0.3c-0.1,0.1-0.1,0.2-0.2,0.3c-0.1,0.2-0.1,0.4-0.2,0.7
	c-0.1,0.9,0,2.3,0.4,4.3c0.1,0.5,0.2,1,0.4,1.5c0.2,0.9,0.5,1.9,0.9,3c0.1,0.2,0.1,0.4,0.2,0.7c0.2,0.7,0.5,1.4,0.8,2.2
	c0.2,0.5,0.4,1,0.6,1.6c0.2,0.5,0.4,1.1,0.6,1.7c0.8,2,1.7,4.3,2.8,6.8c0.5,1.1,1,2.3,1.5,3.4c0.1,0.2,0.2,0.5,0.3,0.7
	c0.1,0.1,0.1,0.2,0.2,0.3c1,1.9,2.2,4.3,3.7,6.9c2.8,4.9,6.8,10.9,12.1,17.1c10.1,11.9,25.1,24.9,46.9,34.1
	C427.2,124.5,425.1,134.1,425.1,134.1z"/>
<path class="st5" d="M572.5,32.4c-1.2,5.2-4.1,16.4-10.8,29.8c-1.6,3.3-3.5,6.7-5.6,10.1c-9.8,15.1-32.7,35.5-58.6,46
	c-18.5,7.5-28,15.8-28,15.8h-44.2c0,0-2.2-9.5,50.8-31.8C498,93,513,80.1,523,68.2c5.3-6.2,9.2-12.2,12.1-17.1
	c1.5-2.6,2.7-5,3.7-6.9c0.1-0.1,0.1-0.2,0.2-0.3c0.1-0.2,0.2-0.5,0.3-0.7c0.7-1.6,1.2-2.7,1.4-3.2c0-0.1,0.1-0.1,0.1-0.2
	c1.1-2.5,2-4.7,2.8-6.8c0.2-0.6,0.4-1.1,0.6-1.7c0.2-0.5,0.4-1.1,0.6-1.6c0.3-0.8,0.5-1.5,0.8-2.2c0.1-0.2,0.2-0.4,0.2-0.7
	c0.4-1.1,0.7-2.1,0.9-3c0.2-0.5,0.3-1,0.4-1.5c0.4-1.9,0.5-3.3,0.4-4.3c0-0.3-0.1-0.5-0.2-0.7c0-0.1-0.1-0.2-0.2-0.3
	c-0.1-0.1-0.1-0.2-0.2-0.3c-0.6-0.6-1.7-0.3-2.9,0.5c-0.1,0.1-0.2,0.1-0.3,0.2c0.6-0.4,1-0.8,1.5-1.2c0.5-0.4,1.1-0.9,1.6-1.3
	c0.6-0.4,1.5-0.8,2.4-0.8c1.1,0,2.1,0.5,2.9,1.3c1,1.1,2.7,2.8,4.9,4.7c3.2,2.9,9.8,7.8,14.3,11.3c0.2,0.1,0.4,0.3,0.6,0.4
	C572.2,32.1,572.4,32.3,572.5,32.4z"/>
<g class="st6">
	<g>
		<path class="st7" d="M583.5,37.2c-0.1,0.4-0.2,0.8-0.3,1.2"/>
		<path class="st8" d="M582.5,40.9c-2.2,7.9-5.2,15.7-8.9,23.4"/>
		<path class="st7" d="M573,65.5C573,65.5,573,65.5,573,65.5c-0.2,0.4-0.4,0.8-0.6,1.1"/>
	</g>
</g>
<g class="st6">
	<g>
		<path class="st7" d="M278.8,37.2c0.1,0.4,0.2,0.8,0.3,1.2"/>
		<path class="st8" d="M279.8,40.9c2.2,7.9,5.2,15.7,8.9,23.4"/>
		<path class="st7" d="M289.3,65.5C289.3,65.5,289.3,65.5,289.3,65.5c0.2,0.4,0.4,0.8,0.6,1.1"/>
	</g>
</g>
<g class="st6">
	<g>
		<line class="st7" x1="35.5" y1="363.1" x2="36.5" y2="363.9"/>
		<path class="st9" d="M38.5,365.3c0.8,0.5,1.6,1,2.5,1.4l1.2,0.6c0.4,0.2,0.7,0.4,1.1,0.6c10,5.7,33.2,14.9,62.3,22.8l3,0.8
			c18.2,4.9,45.2,11,70.9,12.5"/>
		<line class="st7" x1="180.7" y1="404.1" x2="181.9" y2="404.1"/>
	</g>
</g>
<g class="st6">
	<g>
		<path class="st7" d="M515.4,77.5c-0.4,0.1-0.8,0.2-1.2,0.4"/>
		<path class="st10" d="M511.8,78.5c-25.1,7.3-53.9,11-85.9,11h-1.5c-32.6,0-61.9-3.9-87.3-11.4"/>
		<path class="st7" d="M335.9,77.8c-0.4-0.1-0.8-0.2-1.2-0.4"/>
	</g>
</g>
<g class="st6">
	<g>
		<line class="st7" x1="668.4" y1="404.1" x2="669.6" y2="404.1"/>
		<path class="st9" d="M672.1,403.9c25.3-1.7,51.8-7.6,69.7-12.4c0.6-0.2,3.1-0.8,3.1-0.8c29-7.9,52.2-17.1,62.3-22.8
			c0.3-0.2,0.6-0.3,1-0.5l1.3-0.6c1.3-0.7,2.5-1.4,3.5-2.1"/>
		<line class="st7" x1="813.9" y1="363.9" x2="814.9" y2="363.1"/>
	</g>
</g>
<g class="st6">
	<g>
		<path class="st7" d="M170.6,907.6c0.4,0.2,0.7,0.4,1.1,0.6"/>
		<path class="st11" d="M173.9,909.2c1.8,0.6,3.9,1,6.8,1.6c4.2,0.9,8.9,1.6,13.9,2.1c4.9,0.6,10,1,14.9,1.3
			c21.9,2.3,55.5-5,97.7-2.8c29.7,1.6,63.7,3.7,101,5.3c2.4,0.1,9.1,0.5,15.7,0.5c7.6,0,15.2-0.5,18.4-0.6c36.1-1.5,69.1-3.6,98-5.1
			c42.3-2.2,75.8,5.1,97.7,2.8c4.8-0.3,10-0.7,14.9-1.3c4.9-0.5,9.7-1.2,13.9-2.1c3.8-0.8,7-1.7,9.5-2.9"/>
		<path class="st7" d="M677.4,907.4c0.4-0.2,0.7-0.4,1.1-0.6"/>
	</g>
</g>
<g class="st6">
	<g>
		<path class="st7" d="M138.9,104.3c0.1,0.4,0.2,0.8,0.1,1.2"/>
		<path class="st12" d="M138.1,107.9c-1.5,2.6-4.4,5-4.4,5c-5,4.5-6.3,12.3-3.2,18.5l1.5,3.1c0.1,0.1,0.1,0.3,0.2,0.4
			c0.4,0.9,0.9,1.8,1.4,2.7"/>
		<path class="st7" d="M134.2,138.7c0.2,0.4,0.4,0.7,0.6,1.1"/>
	</g>
</g>
<g class="st6">
	<g>
		<path class="st7" d="M711.4,104.3c-0.1,0.4-0.2,0.8-0.1,1.2"/>
		<path class="st13" d="M712.1,107.9c1.5,2.6,4.4,5,4.4,5c5,4.5,6.3,12.3,3.2,18.5l-1.5,3.1c-0.1,0.1-0.1,0.3-0.2,0.4
			c-0.4,0.8-0.8,1.7-1.3,2.6"/>
		<path class="st7" d="M716.1,138.6c-0.2,0.4-0.4,0.7-0.6,1.1"/>
	</g>
</g>
<g class="st6">
	<g>
		<path class="st7" d="M191.6,393.5c0.3-0.3,0.5-0.6,0.8-1"/>
		<path class="st14" d="M193.7,390.4c2.7-5.5,2.3-13,2.1-15.2c-9.5-118.6-40.5-192.4-57.6-228.2"/>
		<path class="st7" d="M137.7,145.9c-0.2-0.4-0.4-0.8-0.5-1.1c0.3-0.2,0.7-0.5,1-0.7"/>
		<path class="st15" d="M140.3,142.7c15.7-9.9,36.4-17.7,47-21.6c2.1-0.8,3.8-1.4,5-1.9l1.4-0.5c0.9-0.3,1.7-0.7,2.4-1
			c34.6-13.9,64.2-29,88.3-44.9"/>
		<path class="st7" d="M285.4,72c0.3-0.2,0.7-0.5,1-0.7c0.2,0.4,0.4,0.7,0.6,1.1"/>
		<path class="st16" d="M288.3,74.6c0.3,0.5,0.6,1,0.9,1.5l0.1,0.1c10,15.3,33.4,36.8,61.2,48.1c17.2,6.9,26.3,14.7,26.4,14.8
			l1.6,1.4h42.1h9.1h39.8l2.3,0l1.6-1.4c0.1-0.1,9.2-7.8,26.4-14.8c27.8-11.2,51.2-32.8,61.2-48.1l0.1-0.1c0.5-0.8,1-1.7,1.5-2.5"/>
		<path class="st7" d="M563.3,72.4c0.2-0.4,0.4-0.7,0.6-1.1c0.3,0.2,0.7,0.5,1,0.7"/>
		<path class="st17" d="M567,73.4c23.8,15.6,53.1,30.5,87.2,44.2c0.7,0.3,1.6,0.6,2.4,1l1.4,0.5c1.2,0.5,2.9,1.1,5,1.9
			c10.9,4.1,32.2,12,48,22.3"/>
		<path class="st7" d="M712.1,144c0.3,0.2,0.7,0.5,1,0.7c-0.2,0.4-0.4,0.7-0.5,1.1"/>
		<path class="st18" d="M711.5,148.1c-17.2,36.2-47.6,109.7-57,227.1c-0.2,2.3-0.6,10.7,2.7,16.2"/>
		<path class="st7" d="M657.9,392.5c0.2,0.3,0.5,0.7,0.8,1"/>
	</g>
</g>
<g class="st19">
	<path class="st20" d="M186.1,872.2c41.1,5.1,67.7-1.5,105.6-1.4c57.9,0.3,95.5,5,129,5.6c46,0.9,95.7-6.7,134.4-6
		c53.3,1,68.6,5.2,100.3,1.1"/>
	<path class="st21" d="M189.4,850.2c40.5,5,66.7-1.5,104.1-1.3c57.1,0.3,94.2,4.8,127.3,5.4c45.4,0.8,94.2-6.5,132.2-5.8
		c52.7,1,67.9,5.1,98.8,1.2"/>
	<path class="st22" d="M192.8,828.2c39.9,4.8,65.7-1.5,102.6-1.3c56.3,0.3,93,4.6,125.6,5.2c44.7,0.8,92.6-6.3,130.1-5.5
		c52.2,1,67.3,4.9,97.4,1.2"/>
	<path class="st23" d="M196.2,806.2c39.4,4.6,64.8-1.4,101.1-1.3c55.4,0.3,91.8,4.5,123.9,5c44,0.8,91.1-6,128-5.3
		c51.6,1,66.6,4.8,95.9,1.3"/>
	<path class="st24" d="M199.6,784.2c38.8,4.5,63.8-1.4,99.5-1.2c54.6,0.3,90.6,4.3,122.2,4.8c43.3,0.8,89.5-5.8,125.9-5.1
		c51,0.9,66,4.7,94.5,1.3"/>
	<path class="st25" d="M203,762.2c38.2,4.3,62.8-1.4,98-1.2c53.7,0.3,89.4,4.1,120.5,4.7c42.7,0.8,88-5.5,123.8-4.9
		c50.5,0.9,65.3,4.6,93,1.4"/>
	<path class="st26" d="M206.4,740.2c37.6,4.2,61.8-1.3,96.5-1.2c52.9,0.3,88.2,3.9,118.8,4.5c42,0.7,86.4-5.3,121.6-4.7
		c49.9,0.9,64.6,4.5,91.6,1.4"/>
	<path class="st27" d="M209.8,718.3c37.1,4,60.9-1.3,95-1.1c52.1,0.3,86.9,3.7,117.1,4.3c41.3,0.7,84.8-5.1,119.5-4.4
		c49.3,0.9,64,4.3,90.1,1.5"/>
	<path class="st28" d="M213.2,696.3c36.5,3.8,59.9-1.3,93.5-1.1c51.2,0.2,85.7,3.5,115.4,4.1c40.7,0.7,83.3-4.8,117.4-4.2
		c48.8,0.8,63.3,4.2,88.6,1.5"/>
	<path class="st29" d="M216.6,674.3c35.9,3.7,58.9-1.2,91.9-1.1c50.4,0.2,84.5,3.4,113.7,3.9c40,0.7,81.7-4.6,115.3-4
		c48.2,0.8,62.7,4.1,87.2,1.6"/>
	<path class="st30" d="M220,652.3c35.3,3.5,58-1.2,90.4-1.1c49.5,0.2,83.3,3.2,112,3.7c39.3,0.7,80.2-4.3,113.2-3.8
		c47.6,0.8,62,4,85.7,1.6"/>
	<path class="st31" d="M223.4,630.3c34.7,3.3,57-1.2,88.9-1c48.7,0.2,82.1,3,110.3,3.5c38.7,0.6,78.6-4.1,111.1-3.6
		c47.1,0.8,61.4,3.9,84.3,1.7"/>
	<path class="st32" d="M226.7,608.3c34.2,3.2,56-1.1,87.4-1c47.8,0.2,80.8,2.8,108.6,3.3c38,0.6,77-3.9,108.9-3.3
		c46.5,0.8,60.7,3.7,82.8,1.7"/>
	<path class="st33" d="M230.1,586.3c33.6,3,55.1-1.1,85.9-1c47,0.2,79.6,2.6,106.8,3.1c37.3,0.6,75.5-3.6,106.8-3.1
		c46,0.7,60,3.6,81.4,1.8"/>
	<path class="st34" d="M233.5,564.3c33,2.9,54.1-1.1,84.3-0.9c46.2,0.2,78.4,2.5,105.1,2.9c36.7,0.6,73.9-3.4,104.7-2.9
		c45.4,0.7,59.4,3.5,79.9,1.8"/>
	<path class="st35" d="M236.9,542.3c32.4,2.7,53.1-1,82.8-0.9c45.3,0.2,77.2,2.3,103.4,2.7c36,0.6,72.4-3.2,102.6-2.7
		c44.8,0.7,58.7,3.4,78.5,1.9"/>
	<path class="st36" d="M240.3,520.3c31.9,2.5,52.1-1,81.3-0.9c44.5,0.2,76,2.1,101.7,2.5c35.3,0.5,70.8-2.9,100.5-2.5
		c44.3,0.7,58.1,3.3,77,1.9"/>
	<path class="st37" d="M243.7,498.3c31.3,2.4,51.2-1,79.8-0.8c43.6,0.2,74.8,1.9,100,2.3c34.7,0.5,69.3-2.7,98.3-2.2
		c43.7,0.6,57.4,3.1,75.5,1.9"/>
	<path class="st38" d="M247.1,476.3c30.7,2.2,50.2-0.9,78.3-0.8c42.8,0.2,73.5,1.7,98.3,2.1c34,0.5,67.7-2.4,96.2-2
		c43.1,0.6,56.7,3,74.1,2"/>
	<path class="st39" d="M250.5,454.4c30.1,2.1,49.2-0.9,76.7-0.8c42,0.2,72.3,1.6,96.6,1.9c33.3,0.5,66.1-2.2,94.1-1.8
		c42.6,0.6,56.1,2.9,72.6,2"/>
	<path class="st40" d="M253.9,432.4c29.6,1.9,48.3-0.9,75.2-0.7c41.1,0.2,71.1,1.4,94.9,1.7c32.7,0.5,64.6-2,92-1.6
		c42,0.6,55.4,2.8,71.2,2.1"/>
	<path class="st41" d="M257.3,410.4c29,1.7,47.3-0.8,73.7-0.7c40.3,0.2,69.9,1.2,93.2,1.5c32,0.4,63-1.7,89.9-1.4
		c41.5,0.5,54.8,2.7,69.7,2.1"/>
</g>
<path id="SVGID_x5F_1_x5F_" class="st42" d="M327.2,66.6C327.2,66.6,327.2,66.6,327.2,66.6c27.4,10.1,60.3,15.3,97.9,15.3l0.6,0
	l0.2,0c0.1,0,0.2,0,0.3,0h0.6c37.5,0,70.4-5.2,97.9-15.3l0,0"/>
<text class="st43"><textPath  xlink:href="#SVGID_x5F_1_x5F_" startOffset="0%">
<tspan  style="fill:#D9D9D9; font-family:'LucidaSansUnicode'; font-size:8.2584px; letter-spacing:86.9;">Qomba - Qomba - Qomba - Qomba</tspan></textPath>
</text>
<path class="st44" d="M628.9,872.2c-5,7.7-19,8.9-32.2,3c0.4,0.2,0.7,0.4,1.1,0.6c14.1,7.5,29.8,6.9,35.2-1.3
	c5.1-7.8-1.1-19.8-13.9-27.3C629.1,854.8,633.5,865.1,628.9,872.2z"/>
<path class="st44" d="M621.8,868.4c-4.6,6.4-16.6,7-27.7,1.5c0.3,0.2,0.6,0.4,0.9,0.6c11.7,6.9,25.2,6.9,30.2,0
	c4.7-6.5-0.2-16.9-10.8-23.9C622.7,853.5,626,862.5,621.8,868.4z"/>
<path class="st44" d="M645.8,894.9c-0.6,0.4-1.1,0.7-1.6,0.9c-0.5,0.2-1.1,0.3-1.8,0.3c-0.6,0-1.1-0.1-1.6-0.3
	c-0.5-0.2-0.8-0.5-1-0.9c-0.2-0.4-0.4-0.8-0.4-1.2c0-0.6,0.2-1.1,0.6-1.5c0.4-0.4,1-0.7,1.7-0.8c0.1,0,0.5-0.1,1.1-0.2
	c0.6-0.1,1.1-0.2,1.5-0.3c0.4-0.1,0.9-0.2,1.4-0.3c0-0.6-0.2-1-0.4-1.2c-0.2-0.3-0.7-0.4-1.4-0.4c-0.6,0-1,0.1-1.3,0.2
	c-0.3,0.1-0.6,0.4-0.8,0.7c-0.2,0.3-0.4,0.5-0.5,0.6c-0.1,0.1-0.3,0.1-0.6,0.1c-0.3,0-0.5-0.1-0.7-0.2c-0.2-0.2-0.3-0.3-0.3-0.6
	c0-0.4,0.1-0.7,0.4-1.1c0.3-0.3,0.8-0.6,1.4-0.9c0.6-0.2,1.4-0.3,2.3-0.3c1,0,1.8,0.1,2.4,0.3c0.6,0.2,1,0.6,1.2,1
	c0.2,0.5,0.4,1.1,0.4,1.9c0,0.5,0,0.9,0,1.3c0,0.3,0,0.7,0,1.2c0,0.4,0.1,0.8,0.2,1.2c0.1,0.4,0.2,0.7,0.2,0.8
	c0,0.2-0.1,0.4-0.3,0.6c-0.2,0.2-0.5,0.3-0.8,0.3c-0.2,0-0.5-0.1-0.7-0.3C646.3,895.6,646.1,895.3,645.8,894.9z M645.7,891.8
	c-0.3,0.1-0.8,0.2-1.5,0.4c-0.7,0.1-1.1,0.2-1.4,0.3c-0.3,0.1-0.5,0.2-0.7,0.3c-0.2,0.2-0.3,0.4-0.3,0.7c0,0.3,0.1,0.6,0.4,0.8
	c0.3,0.2,0.6,0.3,1.1,0.3c0.5,0,0.9-0.1,1.3-0.3c0.4-0.2,0.7-0.4,0.9-0.7c0.2-0.3,0.3-0.8,0.3-1.6V891.8z"/>
<path class="st44" d="M631.5,885.6v3.2c0.4-0.4,0.9-0.7,1.3-0.9c0.5-0.2,1-0.3,1.7-0.3c0.8,0,1.5,0.2,2,0.5c0.6,0.3,1,0.8,1.4,1.4
	c0.3,0.6,0.5,1.4,0.5,2.2c0,0.6-0.1,1.2-0.3,1.8c-0.2,0.5-0.4,1-0.8,1.4c-0.3,0.4-0.8,0.7-1.2,0.9c-0.5,0.2-1,0.3-1.6,0.3
	c-0.4,0-0.7,0-1-0.1c-0.3-0.1-0.6-0.2-0.8-0.3c-0.2-0.1-0.4-0.3-0.6-0.4c-0.2-0.1-0.4-0.3-0.6-0.6v0.2c0,0.4-0.1,0.7-0.3,0.9
	c-0.2,0.2-0.5,0.3-0.8,0.3c-0.3,0-0.6-0.1-0.8-0.3c-0.2-0.2-0.3-0.5-0.3-0.9v-9.2c0-0.4,0.1-0.8,0.3-1c0.2-0.2,0.5-0.3,0.8-0.3
	c0.4,0,0.6,0.1,0.8,0.3C631.4,884.9,631.5,885.2,631.5,885.6z M631.6,891.8c0,0.8,0.2,1.5,0.6,1.9c0.4,0.4,1,0.7,1.7,0.7
	c0.6,0,1.1-0.2,1.5-0.7c0.4-0.5,0.6-1.1,0.6-2c0-0.6-0.1-1-0.3-1.4c-0.2-0.4-0.4-0.7-0.8-0.9c-0.3-0.2-0.7-0.3-1.1-0.3
	c-0.4,0-0.8,0.1-1.2,0.3c-0.3,0.2-0.6,0.5-0.8,1C631.7,890.8,631.6,891.3,631.6,891.8z"/>
<path class="st44" d="M622,891.9v2.8c0,0.4-0.1,0.8-0.3,1c-0.2,0.2-0.5,0.3-0.9,0.3c-0.4,0-0.6-0.1-0.9-0.3c-0.2-0.2-0.3-0.6-0.3-1
	v-3.4c0-0.5,0-0.9-0.1-1.2c0-0.3-0.1-0.5-0.3-0.7c-0.2-0.2-0.5-0.3-0.8-0.3c-0.8,0-1.3,0.2-1.5,0.7c-0.2,0.5-0.4,1.2-0.4,2v2.9
	c0,0.4-0.1,0.8-0.3,1c-0.2,0.2-0.5,0.3-0.9,0.3c-0.4,0-0.6-0.1-0.9-0.3c-0.2-0.2-0.3-0.6-0.3-1v-6c0-0.4,0.1-0.7,0.3-0.9
	c0.2-0.2,0.5-0.3,0.8-0.3c0.3,0,0.6,0.1,0.8,0.3c0.2,0.2,0.3,0.5,0.3,0.8v0.2c0.4-0.4,0.8-0.8,1.3-1c0.5-0.2,1-0.3,1.5-0.3
	c0.6,0,1.1,0.1,1.5,0.3c0.4,0.2,0.8,0.5,1,1c0.4-0.4,0.8-0.8,1.3-1c0.5-0.2,1-0.3,1.5-0.3c0.6,0,1.2,0.1,1.7,0.3
	c0.5,0.2,0.8,0.5,1,1c0.2,0.4,0.3,1,0.3,1.8v4.1c0,0.4-0.1,0.8-0.3,1c-0.2,0.2-0.5,0.3-0.9,0.3c-0.4,0-0.6-0.1-0.9-0.3
	c-0.2-0.2-0.3-0.6-0.3-1v-3.5c0-0.5,0-0.8-0.1-1.1c0-0.3-0.2-0.5-0.3-0.7c-0.2-0.2-0.5-0.3-0.9-0.3c-0.3,0-0.6,0.1-0.9,0.2
	c-0.3,0.2-0.5,0.4-0.6,0.7C622.1,890.4,622,891,622,891.9z"/>
<path class="st44" d="M612.7,891.8c0,0.6-0.1,1.2-0.3,1.7c-0.2,0.5-0.5,1-0.9,1.4c-0.4,0.4-0.9,0.7-1.5,0.9
	c-0.6,0.2-1.2,0.3-1.9,0.3c-0.7,0-1.3-0.1-1.9-0.3c-0.6-0.2-1.1-0.5-1.5-0.9c-0.4-0.4-0.7-0.8-0.9-1.4c-0.2-0.5-0.3-1.1-0.3-1.7
	c0-0.6,0.1-1.2,0.3-1.8c0.2-0.5,0.5-1,0.9-1.4c0.4-0.4,0.9-0.7,1.5-0.9c0.6-0.2,1.2-0.3,1.9-0.3c0.7,0,1.3,0.1,1.9,0.3
	c0.6,0.2,1.1,0.5,1.5,0.9c0.4,0.4,0.7,0.8,0.9,1.4C612.6,890.6,612.7,891.1,612.7,891.8z M610.4,891.8c0-0.9-0.2-1.5-0.6-2
	c-0.4-0.5-1-0.7-1.7-0.7c-0.5,0-0.9,0.1-1.2,0.3c-0.3,0.2-0.6,0.5-0.8,0.9c-0.2,0.4-0.3,0.9-0.3,1.5c0,0.6,0.1,1,0.3,1.4
	c0.2,0.4,0.5,0.7,0.8,0.9c0.3,0.2,0.8,0.3,1.2,0.3c0.7,0,1.3-0.2,1.7-0.7C610.2,893.3,610.4,892.6,610.4,891.8z"/>
<path class="st44" d="M600.7,894.5c0.4,0.2,0.8,0.4,1.2,0.7c0.4,0.2,0.7,0.4,0.9,0.5c0.1,0.1,0.2,0.3,0.2,0.5c0,0.2-0.1,0.3-0.3,0.5
	c-0.2,0.2-0.4,0.2-0.6,0.2c-0.2,0-0.4-0.1-0.7-0.2c-0.3-0.1-0.6-0.3-1-0.5c-0.4-0.2-0.8-0.5-1.2-0.8c-0.8,0.4-1.8,0.6-3,0.6
	c-1,0-1.9-0.1-2.6-0.4c-0.8-0.3-1.4-0.7-1.9-1.2c-0.5-0.5-0.9-1.2-1.2-1.9c-0.3-0.7-0.4-1.5-0.4-2.4c0-0.9,0.1-1.7,0.4-2.4
	c0.3-0.7,0.7-1.3,1.2-1.9c0.5-0.5,1.2-0.9,1.9-1.2c0.8-0.3,1.6-0.4,2.6-0.4c1.3,0,2.4,0.2,3.4,0.7c0.9,0.5,1.6,1.2,2.1,2
	c0.5,0.9,0.7,1.9,0.7,3.1C602.4,892,601.8,893.4,600.7,894.5z M598.8,893.2c0.4-0.4,0.6-0.8,0.8-1.3c0.2-0.5,0.3-1.1,0.3-1.7
	c0-0.8-0.1-1.5-0.4-2.2c-0.3-0.6-0.7-1.1-1.3-1.4c-0.5-0.3-1.2-0.5-1.9-0.5c-0.5,0-1,0.1-1.4,0.3c-0.4,0.2-0.8,0.4-1.1,0.8
	c-0.3,0.3-0.6,0.8-0.7,1.3c-0.2,0.5-0.3,1.1-0.3,1.7c0,1.3,0.3,2.3,1,3c0.7,0.7,1.5,1.1,2.6,1.1c0.4,0,0.9-0.1,1.3-0.2
	c-0.3-0.2-0.6-0.4-1-0.5c-0.4-0.2-0.7-0.3-0.8-0.4c-0.2-0.1-0.2-0.2-0.2-0.4c0-0.2,0.1-0.3,0.2-0.4c0.1-0.1,0.3-0.2,0.5-0.2
	C596.7,892,597.5,892.4,598.8,893.2z"/>
<path class="st45" d="M427.9,102.7c-2.4,3.4-8.8,3.7-14.6,0.8c0.2,0.1,0.3,0.2,0.5,0.3c6.2,3.7,13.3,3.7,15.9,0
	c2.5-3.5-0.1-9.1-5.7-12.8C428.4,94.7,430.2,99.5,427.9,102.7z"/>
<path class="st45" d="M431.6,104.8c-2.7,4.1-10,4.7-17,1.6c0.2,0.1,0.4,0.2,0.6,0.3c7.4,4,15.7,3.7,18.5-0.7
	c2.7-4.2-0.6-10.6-7.3-14.6C431.8,95.4,434.1,101,431.6,104.8z"/>
<path class="st45" d="M416.8,116.6c0.2,0.1,0.4,0.2,0.6,0.4c0.2,0.1,0.4,0.2,0.5,0.3c0.1,0.1,0.1,0.2,0.1,0.3c0,0.1,0,0.2-0.1,0.3
	c-0.1,0.1-0.2,0.1-0.3,0.1c-0.1,0-0.2,0-0.4-0.1c-0.1-0.1-0.3-0.1-0.5-0.3c-0.2-0.1-0.4-0.3-0.6-0.4c-0.4,0.2-1,0.3-1.6,0.3
	c-0.5,0-1-0.1-1.4-0.2c-0.4-0.2-0.7-0.4-1-0.6c-0.3-0.3-0.5-0.6-0.6-1c-0.1-0.4-0.2-0.8-0.2-1.3c0-0.5,0.1-0.9,0.2-1.3
	c0.1-0.4,0.4-0.7,0.6-1c0.3-0.3,0.6-0.5,1-0.6c0.4-0.1,0.8-0.2,1.4-0.2c0.7,0,1.3,0.1,1.8,0.4c0.5,0.3,0.9,0.6,1.1,1.1
	c0.3,0.5,0.4,1,0.4,1.7C417.7,115.3,417.4,116.1,416.8,116.6z M415.8,116c0.2-0.2,0.3-0.4,0.4-0.7c0.1-0.3,0.1-0.6,0.1-0.9
	c0-0.4-0.1-0.8-0.2-1.2c-0.2-0.3-0.4-0.6-0.7-0.7c-0.3-0.2-0.6-0.2-1-0.2c-0.3,0-0.5,0-0.7,0.1c-0.2,0.1-0.4,0.2-0.6,0.4
	c-0.2,0.2-0.3,0.4-0.4,0.7c-0.1,0.3-0.1,0.6-0.1,0.9c0,0.7,0.2,1.2,0.5,1.6c0.4,0.4,0.8,0.6,1.3,0.6c0.2,0,0.5,0,0.7-0.1
	c-0.1-0.1-0.3-0.2-0.5-0.3c-0.2-0.1-0.4-0.2-0.4-0.2c-0.1-0.1-0.1-0.1-0.1-0.2c0-0.1,0-0.2,0.1-0.2c0.1-0.1,0.2-0.1,0.2-0.1
	C414.7,115.4,415.1,115.6,415.8,116z"/>
<path class="st45" d="M423.1,115.2c0,0.3-0.1,0.6-0.2,0.9c-0.1,0.3-0.3,0.5-0.5,0.7c-0.2,0.2-0.5,0.4-0.8,0.5
	c-0.3,0.1-0.6,0.2-1,0.2c-0.4,0-0.7-0.1-1-0.2c-0.3-0.1-0.6-0.3-0.8-0.5c-0.2-0.2-0.4-0.4-0.5-0.7c-0.1-0.3-0.2-0.6-0.2-0.9
	c0-0.3,0.1-0.7,0.2-0.9c0.1-0.3,0.3-0.5,0.5-0.7c0.2-0.2,0.5-0.4,0.8-0.5c0.3-0.1,0.6-0.2,1-0.2c0.4,0,0.7,0.1,1,0.2
	c0.3,0.1,0.6,0.3,0.8,0.5c0.2,0.2,0.4,0.4,0.5,0.7C423.1,114.6,423.1,114.9,423.1,115.2z M421.9,115.2c0-0.5-0.1-0.8-0.3-1.1
	c-0.2-0.3-0.5-0.4-0.9-0.4c-0.2,0-0.5,0.1-0.6,0.2c-0.2,0.1-0.3,0.3-0.4,0.5c-0.1,0.2-0.1,0.5-0.1,0.8c0,0.3,0,0.6,0.1,0.8
	c0.1,0.2,0.2,0.4,0.4,0.5c0.2,0.1,0.4,0.2,0.6,0.2c0.4,0,0.7-0.1,0.9-0.4C421.8,116,421.9,115.7,421.9,115.2z"/>
<path class="st45" d="M428,115.3v1.5c0,0.2-0.1,0.4-0.2,0.5c-0.1,0.1-0.3,0.2-0.5,0.2c-0.2,0-0.3-0.1-0.5-0.2
	c-0.1-0.1-0.2-0.3-0.2-0.5V115c0-0.3,0-0.5,0-0.7c0-0.2-0.1-0.3-0.2-0.4c-0.1-0.1-0.2-0.2-0.4-0.2c-0.4,0-0.7,0.1-0.8,0.4
	c-0.1,0.3-0.2,0.6-0.2,1.1v1.5c0,0.2-0.1,0.4-0.2,0.5c-0.1,0.1-0.3,0.2-0.5,0.2c-0.2,0-0.3-0.1-0.5-0.2c-0.1-0.1-0.2-0.3-0.2-0.5
	v-3.2c0-0.2,0.1-0.4,0.2-0.5c0.1-0.1,0.2-0.2,0.4-0.2c0.2,0,0.3,0.1,0.4,0.2c0.1,0.1,0.2,0.2,0.2,0.4v0.1c0.2-0.2,0.4-0.4,0.7-0.5
	c0.2-0.1,0.5-0.2,0.8-0.2c0.3,0,0.6,0.1,0.8,0.2c0.2,0.1,0.4,0.3,0.6,0.5c0.2-0.2,0.4-0.4,0.7-0.5c0.2-0.1,0.5-0.2,0.8-0.2
	c0.3,0,0.6,0.1,0.9,0.2c0.2,0.1,0.4,0.3,0.5,0.5c0.1,0.2,0.2,0.5,0.2,1v2.2c0,0.2-0.1,0.4-0.2,0.5c-0.1,0.1-0.3,0.2-0.5,0.2
	c-0.2,0-0.3-0.1-0.5-0.2c-0.1-0.1-0.2-0.3-0.2-0.5v-1.9c0-0.2,0-0.4,0-0.6c0-0.1-0.1-0.3-0.2-0.4c-0.1-0.1-0.3-0.1-0.5-0.1
	c-0.2,0-0.3,0-0.5,0.1c-0.1,0.1-0.3,0.2-0.3,0.4C428.1,114.5,428,114.8,428,115.3z"/>
<path class="st45" d="M433,111.9v1.7c0.2-0.2,0.5-0.4,0.7-0.5c0.2-0.1,0.5-0.2,0.9-0.2c0.4,0,0.8,0.1,1.1,0.3
	c0.3,0.2,0.5,0.4,0.7,0.8c0.2,0.3,0.3,0.7,0.3,1.2c0,0.3,0,0.7-0.1,0.9c-0.1,0.3-0.2,0.5-0.4,0.7c-0.2,0.2-0.4,0.4-0.7,0.5
	c-0.3,0.1-0.5,0.2-0.9,0.2c-0.2,0-0.4,0-0.5-0.1c-0.2,0-0.3-0.1-0.4-0.2c-0.1-0.1-0.2-0.1-0.3-0.2c-0.1-0.1-0.2-0.2-0.3-0.3v0.1
	c0,0.2-0.1,0.4-0.2,0.5c-0.1,0.1-0.3,0.2-0.4,0.2c-0.2,0-0.3-0.1-0.4-0.2c-0.1-0.1-0.2-0.3-0.2-0.5v-4.9c0-0.2,0.1-0.4,0.2-0.5
	c0.1-0.1,0.2-0.2,0.4-0.2c0.2,0,0.3,0.1,0.4,0.2C433,111.5,433,111.7,433,111.9z M433.1,115.2c0,0.4,0.1,0.8,0.3,1
	c0.2,0.2,0.5,0.4,0.9,0.4c0.3,0,0.6-0.1,0.8-0.4c0.2-0.2,0.3-0.6,0.3-1.1c0-0.3,0-0.6-0.1-0.8c-0.1-0.2-0.2-0.4-0.4-0.5
	c-0.2-0.1-0.4-0.2-0.6-0.2c-0.2,0-0.4,0.1-0.6,0.2c-0.2,0.1-0.3,0.3-0.4,0.5C433.1,114.7,433.1,114.9,433.1,115.2z"/>
<path class="st45" d="M440.6,116.9c-0.3,0.2-0.6,0.4-0.9,0.5c-0.3,0.1-0.6,0.2-0.9,0.2c-0.3,0-0.6-0.1-0.8-0.2
	c-0.2-0.1-0.4-0.3-0.6-0.5c-0.1-0.2-0.2-0.4-0.2-0.6c0-0.3,0.1-0.6,0.3-0.8c0.2-0.2,0.5-0.4,0.9-0.4c0.1,0,0.3-0.1,0.6-0.1
	c0.3-0.1,0.6-0.1,0.8-0.2c0.2,0,0.5-0.1,0.7-0.2c0-0.3-0.1-0.5-0.2-0.7c-0.1-0.1-0.4-0.2-0.7-0.2c-0.3,0-0.5,0-0.7,0.1
	c-0.2,0.1-0.3,0.2-0.4,0.4c-0.1,0.2-0.2,0.3-0.2,0.3c0,0.1-0.1,0.1-0.3,0.1c-0.1,0-0.3,0-0.4-0.1c-0.1-0.1-0.1-0.2-0.1-0.3
	c0-0.2,0.1-0.4,0.2-0.6c0.2-0.2,0.4-0.3,0.7-0.5c0.3-0.1,0.7-0.2,1.2-0.2c0.5,0,1,0.1,1.3,0.2c0.3,0.1,0.5,0.3,0.7,0.6
	c0.1,0.3,0.2,0.6,0.2,1c0,0.3,0,0.5,0,0.7c0,0.2,0,0.4,0,0.6c0,0.2,0,0.4,0.1,0.7c0.1,0.2,0.1,0.4,0.1,0.4c0,0.1-0.1,0.2-0.2,0.3
	c-0.1,0.1-0.3,0.1-0.4,0.1c-0.1,0-0.3-0.1-0.4-0.2C440.8,117.2,440.7,117.1,440.6,116.9z M440.5,115.2c-0.2,0.1-0.4,0.1-0.8,0.2
	c-0.3,0.1-0.6,0.1-0.7,0.1c-0.1,0-0.3,0.1-0.4,0.2c-0.1,0.1-0.2,0.2-0.2,0.4c0,0.2,0.1,0.3,0.2,0.4c0.1,0.1,0.3,0.2,0.6,0.2
	c0.2,0,0.5,0,0.7-0.1c0.2-0.1,0.4-0.2,0.5-0.4c0.1-0.2,0.2-0.5,0.2-0.8V115.2z"/>
<linearGradient id="SVGID_2_" gradientUnits="userSpaceOnUse" x1="277.7661" y1="74.262" x2="425.0711" y2="74.262">
	<stop  offset="0" style="stop-color:#12110B;stop-opacity:0.3"/>
	<stop  offset="0.1471" style="stop-color:#12110B;stop-opacity:0.2559"/>
	<stop  offset="1" style="stop-color:#12110B;stop-opacity:0"/>
</linearGradient>
<path class="st46" d="M425.1,134.2h-44.2c0,0-9.6-8.3-28-15.8c-25.9-10.4-48.8-30.9-58.6-46c-2.1-3.5-4-6.9-5.6-10.1
	c-6.7-13.4-9.6-24.6-10.8-29.8c0.2-0.1,0.3-0.2,0.5-0.4c0.2-0.1,0.4-0.3,0.6-0.4c4.6-3.5,11.2-8.4,14.3-11.3
	c2.1-1.9,3.8-3.6,4.9-4.7c0.8-0.8,1.8-1.3,2.9-1.3c1,0,1.8,0.4,2.4,0.8c0.6,0.4,1.1,0.9,1.6,1.3c0.5,0.4,0.9,0.7,1.5,1.2
	c-0.1-0.1-0.2-0.1-0.3-0.2c-1.2-0.8-2.3-1-2.9-0.5c-0.1,0.1-0.1,0.2-0.2,0.3c-0.1,0.1-0.1,0.2-0.2,0.3c-0.1,0.2-0.1,0.4-0.2,0.7
	c-0.1,0.9,0,2.3,0.4,4.3c0.1,0.5,0.2,1,0.4,1.5c0.2,0.9,0.5,1.9,0.9,3c0.1,0.2,0.1,0.4,0.2,0.7c0.2,0.7,0.5,1.4,0.8,2.2
	c0.2,0.5,0.4,1,0.6,1.6c0.2,0.5,0.4,1.1,0.6,1.7c0.8,2,1.7,4.3,2.8,6.8c0.5,1.1,1,2.3,1.5,3.4c0.1,0.2,0.2,0.5,0.3,0.7
	c0.1,0.1,0.1,0.2,0.2,0.3c1,1.9,2.2,4.3,3.7,6.9c2.8,4.9,6.8,10.9,12.1,17.1c10.1,11.9,25.1,24.9,46.9,34.1
	C427.2,124.7,425.1,134.2,425.1,134.2z"/>
<linearGradient id="SVGID_3_" gradientUnits="userSpaceOnUse" x1="572.5424" y1="74.1592" x2="425.2386" y2="74.1592">
	<stop  offset="0" style="stop-color:#12110B;stop-opacity:0.3"/>
	<stop  offset="0.1471" style="stop-color:#12110B;stop-opacity:0.2559"/>
	<stop  offset="1" style="stop-color:#12110B;stop-opacity:0"/>
</linearGradient>
<path class="st47" d="M572.5,32.4c-1.2,5.2-4.1,16.4-10.8,29.8c-1.6,3.3-3.5,6.7-5.6,10.1c-9.8,15.1-32.7,35.5-58.6,46
	c-18.5,7.5-28,15.8-28,15.8h-44.2c0,0-2.2-9.5,50.8-31.8C498,93,513,80.1,523,68.2c5.3-6.2,9.2-12.2,12.1-17.1
	c1.5-2.6,2.7-5,3.7-6.9c0.1-0.1,0.1-0.2,0.2-0.3c0.1-0.2,0.2-0.5,0.3-0.7c0.7-1.6,1.2-2.7,1.4-3.2c0-0.1,0.1-0.1,0.1-0.2
	c1.1-2.5,2-4.7,2.8-6.8c0.2-0.6,0.4-1.1,0.6-1.7c0.2-0.5,0.4-1.1,0.6-1.6c0.3-0.8,0.5-1.5,0.8-2.2c0.1-0.2,0.2-0.4,0.2-0.7
	c0.4-1.1,0.7-2.1,0.9-3c0.2-0.5,0.3-1,0.4-1.5c0.4-1.9,0.5-3.3,0.4-4.3c0-0.3-0.1-0.5-0.2-0.7c0-0.1-0.1-0.2-0.2-0.3
	c-0.1-0.1-0.1-0.2-0.2-0.3c-0.6-0.6-1.7-0.3-2.9,0.5c-0.1,0.1-0.2,0.1-0.3,0.2c0.6-0.4,1-0.8,1.5-1.2c0.5-0.4,1.1-0.9,1.6-1.3
	c0.6-0.4,1.5-0.8,2.4-0.8c1.1,0,2.1,0.5,2.9,1.3c1,1.1,2.7,2.8,4.9,4.7c3.2,2.9,9.8,7.8,14.3,11.3c0.2,0.1,0.4,0.3,0.6,0.4
	C572.2,32.1,572.4,32.3,572.5,32.4z"/>
<linearGradient id="SVGID_4_" gradientUnits="userSpaceOnUse" x1="167.5" y1="714.0111" x2="213.3338" y2="714.0111">
	<stop  offset="0.1336" style="stop-color:#12110B;stop-opacity:0.3"/>
	<stop  offset="1" style="stop-color:#12110B;stop-opacity:0"/>
</linearGradient>
<path class="st48" d="M198.4,482.5c0,0,21.3,246.1,13.1,463c0,0-30.3-0.9-40.2-7.2c-9.9-6.3,3-43.5,3.6-57.9
	c0.6-14.5,8.4-120.3,11.3-140.4C189,719.9,207.1,541.7,198.4,482.5z"/>
<linearGradient id="SVGID_5_" gradientUnits="userSpaceOnUse" x1="214.5593" y1="712.8485" x2="260.3931" y2="712.8485" gradientTransform="matrix(-1 0 0 1 898 0)">
	<stop  offset="0.1336" style="stop-color:#12110B;stop-opacity:0.3"/>
	<stop  offset="1" style="stop-color:#12110B;stop-opacity:0"/>
</linearGradient>
<path class="st49" d="M652.6,481.4c0,0-21.3,246.1-13.1,463c0,0,30.3-0.9,40.2-7.2c9.9-6.3-3-45.5-3.6-59.9
	c-0.6-14.5-8.4-118.3-11.3-138.4C661.9,718.7,643.8,540.6,652.6,481.4z"/>
<g class="st50">
	<defs>
		<filter id="Adobe_OpacityMaskFilter" filterUnits="userSpaceOnUse" x="511.9" y="276" width="165.4" height="670.3">
			<feFlood  style="flood-color:white;flood-opacity:1" result="back"/>
			<feBlend  in="SourceGraphic" in2="back" mode="normal"/>
		</filter>
	</defs>
	<mask maskUnits="userSpaceOnUse" x="511.9" y="276" width="165.4" height="670.3" id="SVGID_6_">
		<g class="st51">
			<image style="overflow:visible;" width="171" height="675" xlink:href="788B0ECF.jpg"  transform="matrix(1 0 0 1 509 273.8)">
			</image>
		</g>
	</mask>
	<g class="st52">
		
			<linearGradient id="SVGID_7_" gradientUnits="userSpaceOnUse" x1="272.8755" y1="611.1431" x2="438.2668" y2="611.1431" gradientTransform="matrix(-1 0 0 1 950.1758 0)">
			<stop  offset="0.1336" style="stop-color:#12110B;stop-opacity:0.3"/>
			<stop  offset="1" style="stop-color:#12110B;stop-opacity:0"/>
		</linearGradient>
		<path class="st53" d="M561,898.2c6.3-71.1,20.9-141.6,24.6-212.9c5.3-100.2-10.9-200.7-1.9-300.7c0.6-6.2,1.3-12.6,4.1-18.3
			c2.6-5.1,6.7-9.4,10.8-13.6c14.5-14.8,64.1-61.9,78.6-76.8c0.9,21.2-68.4,104.9-77,124.6c-12.1,27.8,7.3,25.8,7.5,55.7
			c0.6,106,1.2,212.1,1.8,318.1c0.3,51.9,0.7,104.5,15.1,154.7c0.7,2.4,1.4,5,0.1,7.2c-1.7,3-6,3.6-9.6,3.8
			c-33.9,2.1-67.8,4.2-101.7,6.4c-4.6-107.9,0.7-216.2,16-323.2c9.3,7.7,10.4,20.5,10.8,32c1.6,47.7,3.2,95.5,4.7,143.2
			c1.1,33,2.3,66.5,12.4,98.2"/>
	</g>
</g>
<g class="st54">
	<defs>
		<filter id="Adobe_OpacityMaskFilter_1_" filterUnits="userSpaceOnUse" x="597.6" y="527" width="42.2" height="417.5">
			<feFlood  style="flood-color:white;flood-opacity:1" result="back"/>
			<feBlend  in="SourceGraphic" in2="back" mode="normal"/>
		</filter>
	</defs>
	<mask maskUnits="userSpaceOnUse" x="597.6" y="527" width="42.2" height="417.5" id="SVGID_8_">
		<g class="st55">
			<image style="overflow:visible;" width="47" height="422" xlink:href="788B0ECD.jpg"  transform="matrix(1 0 0 1 595 524.8)">
			</image>
		</g>
	</mask>
	<g class="st56">
		<linearGradient id="SVGID_9_" gradientUnits="userSpaceOnUse" x1="597.5806" y1="735.7287" x2="639.7952" y2="735.7287">
			<stop  offset="0" style="stop-color:#FFFFFF;stop-opacity:0.3"/>
			<stop  offset="1" style="stop-color:#FFFFFF;stop-opacity:0"/>
		</linearGradient>
		<path class="st57" d="M639.8,943.2c-23.4-123.8-34-249.6-31.6-375.2c0.3-14,0.5-28.8-7.1-41c-17,136.7,34.7,277.7-2,411
			c12.4-1.8,25.5,0.5,36.3,6.5"/>
	</g>
</g>
<g class="st50">
	<defs>
		<filter id="Adobe_OpacityMaskFilter_2_" filterUnits="userSpaceOnUse" x="524.5" y="344.9" width="98.7" height="596.4">
			<feFlood  style="flood-color:white;flood-opacity:1" result="back"/>
			<feBlend  in="SourceGraphic" in2="back" mode="normal"/>
		</filter>
	</defs>
	<mask maskUnits="userSpaceOnUse" x="524.5" y="344.9" width="98.7" height="596.4" id="SVGID_10_">
		<g class="st58">
			<image style="overflow:visible;" width="104" height="601" xlink:href="788B0ED3.jpg"  transform="matrix(1 0 0 1 522 342.8)">
			</image>
		</g>
	</mask>
	<g class="st59">
		
			<radialGradient id="SVGID_11_" cx="790.4979" cy="546.781" r="180.779" gradientTransform="matrix(1.2894 0 0 1.1798 -445.4276 -1.9817)" gradientUnits="userSpaceOnUse">
			<stop  offset="0" style="stop-color:#FFFFFF;stop-opacity:0.3"/>
			<stop  offset="1" style="stop-color:#FFFFFF;stop-opacity:0"/>
		</radialGradient>
		<path class="st60" d="M537.7,769.1c-16.6-29.6-7.2-37.8-8.2-71.1c-1.5-47.5-3-95-4.5-142.6c-0.9-27.8-1.6-56.2,8.2-82.5
			c7.7-20.7,21.6-38.9,35.3-56.8c18.2-23.8,36.4-47.6,54.7-71.3c-21.9,51.8-31.5,113.8-39.5,168.9c-4.4,29.9,0.2,67.4,4,97.4
			c13.6,108.9-20.9,254.1-21.2,330.2c-2.5-7-17.6-136-20.1-143L537.7,769.1z"/>
	</g>
</g>
<g class="st50">
	<defs>
		<filter id="Adobe_OpacityMaskFilter_3_" filterUnits="userSpaceOnUse" x="225.8" y="344.9" width="98.7" height="596.4">
			<feFlood  style="flood-color:white;flood-opacity:1" result="back"/>
			<feBlend  in="SourceGraphic" in2="back" mode="normal"/>
		</filter>
	</defs>
	<mask maskUnits="userSpaceOnUse" x="225.8" y="344.9" width="98.7" height="596.4" id="SVGID_12_">
		<g class="st61">
			<image style="overflow:visible;" width="104" height="601" xlink:href="788B0ED5.jpg"  transform="matrix(1 0 0 1 223 342.8)">
			</image>
		</g>
	</mask>
	<g class="st62">
		
			<radialGradient id="SVGID_13_" cx="370.3883" cy="546.781" r="180.779" gradientTransform="matrix(-1.2894 0 0 1.1798 752.6824 -1.9817)" gradientUnits="userSpaceOnUse">
			<stop  offset="0" style="stop-color:#FFFFFF;stop-opacity:0.3"/>
			<stop  offset="1" style="stop-color:#FFFFFF;stop-opacity:0"/>
		</radialGradient>
		<path class="st63" d="M311.2,769.1c16.6-29.6,7.2-37.8,8.2-71.1c1.5-47.5,3-95,4.5-142.6c0.9-27.8,1.6-56.2-8.2-82.5
			c-7.7-20.7-21.6-38.9-35.3-56.8c-18.2-23.8-36.4-47.6-54.7-71.3c21.9,51.8,31.5,113.8,39.5,168.9c4.4,29.9-0.2,67.4-4,97.4
			c-13.6,108.9,26.9,254.1,27.2,330.2c2.5-7,11.6-136,14.1-143L311.2,769.1z"/>
	</g>
</g>
<g class="st50">
	<defs>
		<filter id="Adobe_OpacityMaskFilter_4_" filterUnits="userSpaceOnUse" x="168.3" y="276" width="166.5" height="670.3">
			<feFlood  style="flood-color:white;flood-opacity:1" result="back"/>
			<feBlend  in="SourceGraphic" in2="back" mode="normal"/>
		</filter>
	</defs>
	<mask maskUnits="userSpaceOnUse" x="168.3" y="276" width="166.5" height="670.3" id="SVGID_14_">
		<g class="st64">
			<image style="overflow:visible;" width="171" height="675" xlink:href="788B0ED7.jpg"  transform="matrix(1 0 0 1 166 273.8)">
			</image>
		</g>
	</mask>
	<g class="st65">
		<linearGradient id="SVGID_15_" gradientUnits="userSpaceOnUse" x1="168.3222" y1="611.1431" x2="334.7827" y2="611.1431">
			<stop  offset="0.1336" style="stop-color:#12110B;stop-opacity:0.3"/>
			<stop  offset="1" style="stop-color:#12110B;stop-opacity:0"/>
		</linearGradient>
		<path class="st66" d="M284.6,898.2c-6.3-71.1-20.9-141.6-24.6-212.9c-5.3-100.2,10.9-200.7,1.9-300.7c-0.6-6.2-1.3-12.6-4.1-18.3
			c-2.6-5.1-6.7-9.4-10.8-13.6c-14.5-14.8-64.1-61.9-78.6-76.8c-0.9,21.2,68.4,104.9,77,124.6c12.1,27.8-7.3,25.8-7.5,55.7
			c-0.6,106-1.2,212.1-1.8,318.1c-0.3,51.9-0.7,104.5-15.1,154.7c-0.7,2.4-1.4,5-0.1,7.2c1.7,3,6,3.6,9.6,3.8
			c33.9,2.1,67.8,4.2,101.7,6.4c4.6-107.9,4.6-322.8-10.7-429.9c-9.3,7.7-6.6,185.1-7,196.6c-1.6,47.7-7.6,39.7-9.2,87.4
			c-1.1,33-6.8,64.4-16.9,96.1"/>
	</g>
</g>
<g class="st67">
	<defs>
		<filter id="Adobe_OpacityMaskFilter_5_" filterUnits="userSpaceOnUse" x="611.1" y="248.3" width="69.1" height="340.1">
			<feFlood  style="flood-color:white;flood-opacity:1" result="back"/>
			<feBlend  in="SourceGraphic" in2="back" mode="normal"/>
		</filter>
	</defs>
	<mask maskUnits="userSpaceOnUse" x="611.1" y="248.3" width="69.1" height="340.1" id="SVGID_16_">
		<g class="st68">
			<image style="overflow:visible;" width="74" height="345" xlink:href="788B0ED4.jpg"  transform="matrix(1 0 0 1 609 245.8)">
			</image>
		</g>
	</mask>
	<g class="st69">
		<defs>
			<filter id="Adobe_OpacityMaskFilter_6_" filterUnits="userSpaceOnUse" x="611.1" y="248.3" width="69.1" height="340.1">
				<feFlood  style="flood-color:white;flood-opacity:1" result="back"/>
				<feBlend  in="SourceGraphic" in2="back" mode="normal"/>
			</filter>
		</defs>
		<mask maskUnits="userSpaceOnUse" x="611.1" y="248.3" width="69.1" height="340.1" id="SVGID_16_">
			<g class="st70">
				<image style="overflow:visible;" width="74" height="345" xlink:href="788B0EDC.jpg"  transform="matrix(1 0 0 1 609 245.8)">
				</image>
			</g>
		</mask>
		<g>
			
				<linearGradient id="SVGID_17_" gradientUnits="userSpaceOnUse" x1="281.7381" y1="418.3283" x2="386.7991" y2="418.3283" gradientTransform="matrix(-1 0 0 1 962 0)">
				<stop  offset="0" style="stop-color:#12110B;stop-opacity:0.3"/>
				<stop  offset="0.9795" style="stop-color:#12110B;stop-opacity:0"/>
			</linearGradient>
			<path class="st71" d="M680.3,248.3c0,0-44.6,61.2-66.1,97.5c-12,20.3,13.3,20.1,39.9,242.6l4.7-205.8L680.3,248.3z"/>
		</g>
	</g>
</g>
<g class="st67">
	<defs>
		<filter id="Adobe_OpacityMaskFilter_7_" filterUnits="userSpaceOnUse" x="168.3" y="253.3" width="69.9" height="340.1">
			<feFlood  style="flood-color:white;flood-opacity:1" result="back"/>
			<feBlend  in="SourceGraphic" in2="back" mode="normal"/>
		</filter>
	</defs>
	<mask maskUnits="userSpaceOnUse" x="168.3" y="253.3" width="69.9" height="340.1" id="SVGID_18_">
		<g class="st72">
			<image style="overflow:visible;" width="75" height="345" xlink:href="788B0EDD.jpg"  transform="matrix(1 0 0 1 166 250.8)">
			</image>
		</g>
	</mask>
	<g class="st73">
		<defs>
			<filter id="Adobe_OpacityMaskFilter_8_" filterUnits="userSpaceOnUse" x="168.3" y="253.3" width="69.9" height="340.1">
				<feFlood  style="flood-color:white;flood-opacity:1" result="back"/>
				<feBlend  in="SourceGraphic" in2="back" mode="normal"/>
			</filter>
		</defs>
		<mask maskUnits="userSpaceOnUse" x="168.3" y="253.3" width="69.9" height="340.1" id="SVGID_18_">
			<g class="st74">
				<image style="overflow:visible;" width="75" height="345" xlink:href="788B0EDF.jpg"  transform="matrix(1 0 0 1 166 250.8)">
				</image>
			</g>
		</mask>
		<g>
			
				<linearGradient id="SVGID_19_" gradientUnits="userSpaceOnUse" x1="200.3355" y1="423.3092" x2="306.4977" y2="423.3092" gradientTransform="matrix(1 0 0 1 -32 0)">
				<stop  offset="0" style="stop-color:#12110B;stop-opacity:0.3"/>
				<stop  offset="0.9795" style="stop-color:#12110B;stop-opacity:0"/>
			</linearGradient>
			<path class="st75" d="M168.3,253.3c0,0,44.6,61.2,66.1,97.5c12,20.3-6,20.1-32.6,242.6l-12-205.8L168.3,253.3z"/>
		</g>
	</g>
</g>
<g class="st76">
	<defs>
		<filter id="Adobe_OpacityMaskFilter_9_" filterUnits="userSpaceOnUse" x="115.2" y="34" width="614.7" height="328.6">
			<feFlood  style="flood-color:white;flood-opacity:1" result="back"/>
			<feBlend  in="SourceGraphic" in2="back" mode="normal"/>
		</filter>
	</defs>
	<mask maskUnits="userSpaceOnUse" x="115.2" y="34" width="614.7" height="328.6" id="SVGID_20_">
		<g class="st77">
			<image style="overflow:visible;" width="619" height="333" xlink:href="6C1923FC.jpg"  transform="matrix(1 0 0 1 113 31.8)">
			</image>
		</g>
	</mask>
	<g class="st78">
		<defs>
			<filter id="Adobe_OpacityMaskFilter_10_" filterUnits="userSpaceOnUse" x="115.2" y="34" width="614.7" height="328.6">
				<feFlood  style="flood-color:white;flood-opacity:1" result="back"/>
				<feBlend  in="SourceGraphic" in2="back" mode="normal"/>
			</filter>
		</defs>
		<mask maskUnits="userSpaceOnUse" x="115.2" y="34" width="614.7" height="328.6" id="SVGID_20_">
			<g class="st79">
				<image style="overflow:visible;" width="619" height="333" xlink:href="6C1923FB.jpg"  transform="matrix(1 0 0 1 113 31.8)">
				</image>
			</g>
		</mask>
		<g>
			<linearGradient id="SVGID_21_" gradientUnits="userSpaceOnUse" x1="588.9739" y1="334.2637" x2="240.6334" y2="-14.0768">
				<stop  offset="0" style="stop-color:#FFFFFF;stop-opacity:0.3"/>
				<stop  offset="1" style="stop-color:#FFFFFF;stop-opacity:0"/>
			</linearGradient>
			<path class="st80" d="M115.2,111.3c0,0,56.6,177.7,127.8,222.5c82.1,51.7,286.2,22.2,328.8,0c42.5-22.2,106.2-65,158.1-207.8
				L547.8,34c0,0-34.8,56.9-104.5,68.2s-77.2-0.1-77.2-0.1S288,69.7,271.6,36.2L115.2,111.3z"/>
		</g>
	</g>
</g>
<g class="st81">
	<defs>
		<filter id="Adobe_OpacityMaskFilter_11_" filterUnits="userSpaceOnUse" x="159.6" y="180.8" width="546" height="767.6">
			<feFlood  style="flood-color:white;flood-opacity:1" result="back"/>
			<feBlend  in="SourceGraphic" in2="back" mode="normal"/>
		</filter>
	</defs>
	<mask maskUnits="userSpaceOnUse" x="159.6" y="180.8" width="546" height="767.6" id="SVGID_22_">
		<g class="st82">
			<image style="overflow:visible;" width="551" height="773" xlink:href="6C1923F4.jpg"  transform="matrix(1 0 0 1 157 177.8)">
			</image>
		</g>
	</mask>
	<g class="st83">
		<linearGradient id="SVGID_23_" gradientUnits="userSpaceOnUse" x1="159.6049" y1="564.551" x2="705.558" y2="564.551">
			<stop  offset="0.1336" style="stop-color:#12110B;stop-opacity:0.3"/>
			<stop  offset="1" style="stop-color:#12110B;stop-opacity:0"/>
		</linearGradient>
		<path class="st84" d="M687.1,936c0,0-25-282.6-30-395.8s17.4-277.7,42.2-343.3c24.8-65.6-28.1,87.5-99.4,113.7
			S301,316.4,301,316.4s-112.9-27.5-141.4-92.9c0,0,63.2,240.7,18.8,552.1L165.9,936C165.9,936,568.9,963.7,687.1,936z"/>
	</g>
</g>
<g>
	<defs>
		<filter id="Adobe_OpacityMaskFilter_12_" filterUnits="userSpaceOnUse" x="738.3" y="118" width="85.4" height="297.2">
			<feFlood  style="flood-color:white;flood-opacity:1" result="back"/>
			<feBlend  in="SourceGraphic" in2="back" mode="normal"/>
		</filter>
	</defs>
	<mask maskUnits="userSpaceOnUse" x="738.3" y="118" width="85.4" height="297.2" id="SVGID_24_">
		<g class="st85">
			<image style="overflow:visible;" width="90" height="302" xlink:href="6C1923F7.jpg"  transform="matrix(1 0 0 1 736 115.8)">
			</image>
		</g>
	</mask>
	<g class="st86">
		<linearGradient id="SVGID_25_" gradientUnits="userSpaceOnUse" x1="738.2905" y1="266.5643" x2="823.6588" y2="266.5643">
			<stop  offset="0.1336" style="stop-color:#12110B;stop-opacity:0.3"/>
			<stop  offset="1" style="stop-color:#12110B;stop-opacity:0"/>
		</linearGradient>
		<path class="st87" d="M787.6,415.2c-28.8-63.7-42.4-133.1-39.6-202c1.3-32.2,5.8-66.2-9.7-95.2c13.2,14.8,26.7,30.1,33.1,48.3
			c6.8,19.4,4.8,40.3,5.3,60.7c1.6,58.7,24.4,114.9,46.9,169.8c-12.7,2.6-24.8,7.7-35.2,14.9"/>
	</g>
</g>
<g class="st43">
	<defs>
		<filter id="Adobe_OpacityMaskFilter_13_" filterUnits="userSpaceOnUse" x="690.7" y="111.2" width="86.9" height="313.9">
			<feFlood  style="flood-color:white;flood-opacity:1" result="back"/>
			<feBlend  in="SourceGraphic" in2="back" mode="normal"/>
		</filter>
	</defs>
	<mask maskUnits="userSpaceOnUse" x="690.7" y="111.2" width="86.9" height="313.9" id="SVGID_26_">
		<g class="st88">
			<image style="overflow:visible;" width="92" height="319" xlink:href="6C1923F5.jpg"  transform="matrix(1 0 0 1 688 108.8)">
			</image>
		</g>
	</mask>
	<g class="st89">
		<linearGradient id="SVGID_27_" gradientUnits="userSpaceOnUse" x1="802.2" y1="232.4903" x2="663.0751" y2="312.8141">
			<stop  offset="0" style="stop-color:#FFFFFF;stop-opacity:0.3"/>
			<stop  offset="0.7436" style="stop-color:#FFFFFF;stop-opacity:0"/>
		</linearGradient>
		<path class="st90" d="M726.1,111.2c10,5.2,16.1,15.2,18.7,25.4c2.5,10.3,1.9,20.9,1.5,31.4c-3.3,82.2,4.4,165.4,31.3,243.8
			c-12.9,7.8-28.2,12.4-43.6,13.2c-1.9,0.1-3.9,0.1-5.6-0.8c-1.4-0.8-2.3-2.2-3-3.6c-34.6-60.5-43.7-132.8-25.3-199
			c9.9-35.5,27.6-70,27.2-106.7"/>
	</g>
</g>
<g class="st91">
	<defs>
		<filter id="Adobe_OpacityMaskFilter_14_" filterUnits="userSpaceOnUse" x="23.8" y="118" width="85.4" height="297.2">
			<feFlood  style="flood-color:white;flood-opacity:1" result="back"/>
			<feBlend  in="SourceGraphic" in2="back" mode="normal"/>
		</filter>
	</defs>
	<mask maskUnits="userSpaceOnUse" x="23.8" y="118" width="85.4" height="297.2" id="SVGID_28_">
		<g class="st92">
			<image style="overflow:visible;" width="91" height="302" xlink:href="6C1923EB.jpg"  transform="matrix(1 0 0 1 21 115.8)">
			</image>
		</g>
	</mask>
	<g class="st93">
		
			<linearGradient id="SVGID_29_" gradientUnits="userSpaceOnUse" x1="818.8505" y1="266.5643" x2="904.2188" y2="266.5643" gradientTransform="matrix(-1 0 0 1 928 0)">
			<stop  offset="0.1336" style="stop-color:#12110B;stop-opacity:0.3"/>
			<stop  offset="1" style="stop-color:#12110B;stop-opacity:0"/>
		</linearGradient>
		<path class="st94" d="M59.9,415.2c28.8-63.7,42.4-133.1,39.6-202c-1.3-32.2-5.8-66.2,9.7-95.2c-13.2,14.8-26.7,30.1-33.1,48.3
			c-6.8,19.4-4.8,40.3-5.3,60.7c-1.6,58.7-24.4,114.9-46.9,169.8c12.7,2.6,24.8,7.7,35.2,14.9"/>
	</g>
</g>
<g class="st43">
	<defs>
		<filter id="Adobe_OpacityMaskFilter_15_" filterUnits="userSpaceOnUse" x="69.9" y="111.2" width="86.9" height="313.9">
			<feFlood  style="flood-color:white;flood-opacity:1" result="back"/>
			<feBlend  in="SourceGraphic" in2="back" mode="normal"/>
		</filter>
	</defs>
	<mask maskUnits="userSpaceOnUse" x="69.9" y="111.2" width="86.9" height="313.9" id="SVGID_30_">
		<g class="st95">
			<image style="overflow:visible;" width="92" height="319" xlink:href="6C1923EC.jpg"  transform="matrix(1 0 0 1 67 108.8)">
			</image>
		</g>
	</mask>
	<g class="st96">
		
			<linearGradient id="SVGID_31_" gradientUnits="userSpaceOnUse" x1="882.76" y1="232.4903" x2="743.6351" y2="312.8141" gradientTransform="matrix(-1 0 0 1 928 0)">
			<stop  offset="0" style="stop-color:#FFFFFF;stop-opacity:0.3"/>
			<stop  offset="0.7436" style="stop-color:#FFFFFF;stop-opacity:0"/>
		</linearGradient>
		<path class="st97" d="M121.3,111.2c-10,5.2-16.1,15.2-18.7,25.4s-1.9,20.9-1.5,31.4c3.3,82.2-4.4,165.4-31.3,243.8
			c12.9,7.8,28.2,12.4,43.6,13.2c1.9,0.1,3.9,0.1,5.6-0.8c1.4-0.8,2.3-2.2,3-3.6c34.6-60.5,43.7-132.8,25.3-199
			c-9.9-35.5-27.6-70-27.2-106.7"/>
	</g>
</g>
<g>
	<defs>
		<filter id="Adobe_OpacityMaskFilter_16_" filterUnits="userSpaceOnUse" x="145.4" y="239.2" width="48.1" height="193.1">
			<feFlood  style="flood-color:white;flood-opacity:1" result="back"/>
			<feBlend  in="SourceGraphic" in2="back" mode="normal"/>
		</filter>
	</defs>
	<mask maskUnits="userSpaceOnUse" x="145.4" y="239.2" width="48.1" height="193.1" id="SVGID_32_">
		<g class="st98">
			<image style="overflow:visible;" width="53" height="198" xlink:href="6C1923EF.jpg"  transform="matrix(1 0 0 1 143 236.8)">
			</image>
		</g>
	</mask>
	<g class="st99">
		
			<linearGradient id="SVGID_33_" gradientUnits="userSpaceOnUse" x1="734.478" y1="335.7162" x2="782.5965" y2="335.7162" gradientTransform="matrix(-1 0 0 1 928 0)">
			<stop  offset="0.1336" style="stop-color:#12110B;stop-opacity:0.3"/>
			<stop  offset="1" style="stop-color:#12110B;stop-opacity:0"/>
		</linearGradient>
		<path class="st100" d="M165.6,239.2c1.3,14.4,2.6,28.8,2.7,43.3c0.1,15.6-2.2,33.3-15.9,42.7c6.4,3,13.8,7.6,12.9,14.1
			c-0.9,7-10.2,9.6-17.1,12.8c-1.1,0.5-2.3,1.2-2.7,2.3c-0.4,1,0.1,2.2,0.6,3.2c7.9,17.4,14,37.2,6.6,54.7c-2.6,6.2-7,12.4-6.1,19
			c6,0.3,12,0.6,18,0.9c2.3-6.9,8.5-12,13.5-17.6c6.7-7.6,11.5-16.7,13.7-26.3c3.5-14.8,1-30.2-1.5-45.2
			c-5.6-34-11.3-68.1-21.7-101.1"/>
	</g>
</g>
<g class="st101">
	<linearGradient id="SVGID_34_" gradientUnits="userSpaceOnUse" x1="722.7444" y1="180.7737" x2="737.126" y2="180.7737">
		<stop  offset="0" style="stop-color:#FFFFFF;stop-opacity:0.3"/>
		<stop  offset="1" style="stop-color:#FFFFFF;stop-opacity:0"/>
	</linearGradient>
	<path class="st102" d="M737.1,252.5c-2.4-19.2-4.8-38.6-4.4-57.9c0.5-26.7,6.3-53.8,0.5-80c-0.6-2.9-3.1-6.6-6-5.3
		c2,9.9,3.9,20,3.1,30.1c-0.7,9.8-4.1,19.3-5.9,29.1c-5.2,28,2.5,56.5,10.1,84.1"/>
</g>
<g class="st101">
	
		<linearGradient id="SVGID_35_" gradientUnits="userSpaceOnUse" x1="806.1987" y1="180.7737" x2="820.5803" y2="180.7737" gradientTransform="matrix(-1 0 0 1 918 0)">
		<stop  offset="0" style="stop-color:#FFFFFF;stop-opacity:0.3"/>
		<stop  offset="1" style="stop-color:#FFFFFF;stop-opacity:0"/>
	</linearGradient>
	<path class="st103" d="M97.4,252.5c2.4-19.2,4.8-38.6,4.4-57.9c-0.5-26.7-6.3-53.8-0.5-80c0.6-2.9,3.1-6.6,6-5.3
		c-2,9.9-3.9,20-3.1,30.1c0.7,9.8,4.1,19.3,5.9,29.1c5.2,28-2.5,56.5-10.1,84.1"/>
</g>
<g>
	<defs>
		<filter id="Adobe_OpacityMaskFilter_17_" filterUnits="userSpaceOnUse" x="659.1" y="236.8" width="48.1" height="193.1">
			<feFlood  style="flood-color:white;flood-opacity:1" result="back"/>
			<feBlend  in="SourceGraphic" in2="back" mode="normal"/>
		</filter>
	</defs>
	<mask maskUnits="userSpaceOnUse" x="659.1" y="236.8" width="48.1" height="193.1" id="SVGID_36_">
		<g class="st104">
			<image style="overflow:visible;" width="53" height="199" xlink:href="6C1923ED.jpg"  transform="matrix(1 0 0 1 657 233.8)">
			</image>
		</g>
	</mask>
	<g class="st105">
		<defs>
			<filter id="Adobe_OpacityMaskFilter_18_" filterUnits="userSpaceOnUse" x="659.1" y="236.8" width="48.1" height="193.1">
				<feFlood  style="flood-color:white;flood-opacity:1" result="back"/>
				<feBlend  in="SourceGraphic" in2="back" mode="normal"/>
			</filter>
		</defs>
		<mask maskUnits="userSpaceOnUse" x="659.1" y="236.8" width="48.1" height="193.1" id="SVGID_36_">
			<g class="st106">
				<image style="overflow:visible;" width="53" height="199" xlink:href="6C1923EA.jpg"  transform="matrix(1 0 0 1 657 233.8)">
				</image>
			</g>
		</mask>
		<g>
			<linearGradient id="SVGID_37_" gradientUnits="userSpaceOnUse" x1="659.0757" y1="333.3567" x2="707.1943" y2="333.3567">
				<stop  offset="0.1336" style="stop-color:#12110B;stop-opacity:0.3"/>
				<stop  offset="1" style="stop-color:#12110B;stop-opacity:0"/>
			</linearGradient>
			<path class="st107" d="M687,236.8c-1.3,14.4-2.6,28.8-2.7,43.3c-0.1,15.6,2.2,33.3,15.9,42.7c-6.4,3-13.8,7.6-12.9,14.1
				c0.9,7,10.2,9.6,17.1,12.8c1.1,0.5,2.3,1.2,2.7,2.3c0.4,1-0.1,2.2-0.6,3.2c-7.9,17.4-14,37.2-6.6,54.7c2.6,6.2,7,12.4,6.1,19
				c-6,0.3-12,0.6-18,0.9c-2.3-6.9-8.5-12-13.5-17.6c-6.7-7.6-11.5-16.7-13.7-26.3c-3.5-14.8-1-30.2,1.5-45.2
				c5.6-34,11.3-68.1,21.7-101.1"/>
		</g>
	</g>
</g>
<linearGradient id="SVGID_38_" gradientUnits="userSpaceOnUse" x1="327.2802" y1="101.7127" x2="521.5502" y2="101.7127">
	<stop  offset="0" style="stop-color:#FFFFFF"/>
	<stop  offset="9.072596e-02" style="stop-color:#F2F2F2"/>
	<stop  offset="0.5168" style="stop-color:#B8B8B8"/>
	<stop  offset="0.8322" style="stop-color:#949494"/>
	<stop  offset="1" style="stop-color:#868686"/>
</linearGradient>
<path class="st108" d="M425.1,134.1c0,0-1.2-7.6,24.9-19.7c26.1-12.1,57-23.9,71.6-44.5c0,0-35,14.2-96,14.4c0,0-62.7,1.3-98.3-14.9
	c0,0,10.5,14.8,30.7,24.7S416.1,116.3,425.1,134.1z"/>
<radialGradient id="SVGID_39_" cx="675.2325" cy="39.7392" r="69.0993" gradientTransform="matrix(1.2894 0 0 1.1798 -445.4276 -1.9817)" gradientUnits="userSpaceOnUse">
	<stop  offset="0" style="stop-color:#1D1D1B;stop-opacity:0"/>
	<stop  offset="0.1214" style="stop-color:#20201E;stop-opacity:0"/>
	<stop  offset="0.1944" style="stop-color:#282826;stop-opacity:0"/>
	<stop  offset="0.2546" style="stop-color:#363634;stop-opacity:0"/>
	<stop  offset="0.3078" style="stop-color:#4A4A49;stop-opacity:0"/>
	<stop  offset="0.3565" style="stop-color:#646463;stop-opacity:0"/>
	<stop  offset="0.4018" style="stop-color:#848483;stop-opacity:0"/>
	<stop  offset="0.4446" style="stop-color:#AAAAAA;stop-opacity:0"/>
	<stop  offset="0.4842" style="stop-color:#D5D5D5;stop-opacity:0"/>
	<stop  offset="0.517" style="stop-color:#FFFFFF;stop-opacity:0"/>
	<stop  offset="0.5626" style="stop-color:#F2F2F1;stop-opacity:2.831993e-02"/>
	<stop  offset="0.6483" style="stop-color:#CFCFCD;stop-opacity:8.151227e-02"/>
	<stop  offset="0.7647" style="stop-color:#969693;stop-opacity:0.1539"/>
	<stop  offset="0.906" style="stop-color:#494844;stop-opacity:0.2416"/>
	<stop  offset="1" style="stop-color:#12110B;stop-opacity:0.3"/>
</radialGradient>
<path class="st109" d="M306.3,18.5c-1.2-0.8-2.3-1-2.9-0.5c-0.1,0.1-0.1,0.2-0.2,0.3c-0.1,0.1-0.1,0.2-0.2,0.3
	c-0.1,0.2-0.1,0.4-0.2,0.7c-0.1,0.9,0,2.3,0.4,4.3c0.1,0.5,0.2,1,0.4,1.5c0.2,0.9,0.5,1.9,0.9,3c0.1,0.2,0.1,0.4,0.2,0.7
	c0.2,0.7,0.5,1.4,0.8,2.2c0.2,0.5,0.4,1,0.6,1.6c0.2,0.5,0.4,1.1,0.6,1.7c0.8,2,1.7,4.3,2.8,6.8c0.5,1.1,1,2.3,1.5,3.4
	c0.2,0.3,0.3,0.7,0.5,1c1,1.9,2.2,4.3,3.7,6.9c0.5,0.2,1,0.4,1.5,0.7c0.5,0.2,0.9,0.4,1.4,0.6c0.3,0.1,0.5,0.2,0.8,0.3
	c0.5,0.2,1,0.4,1.4,0.6c0.3,0.1,0.6,0.2,0.8,0.3c0.5,0.2,0.9,0.4,1.4,0.5c0.3,0.1,0.7,0.3,1,0.4c22.3,8.6,55.1,16.3,100.8,16.3h1.6
	c45.7,0,78.5-7.8,100.8-16.3c0.3-0.1,0.7-0.3,1-0.4c0.5-0.2,0.9-0.4,1.4-0.5c0.3-0.1,0.6-0.2,0.8-0.3c0.5-0.2,1-0.4,1.4-0.6
	c0.3-0.1,0.5-0.2,0.8-0.3c0.5-0.2,0.9-0.4,1.4-0.6c0.5-0.2,1-0.4,1.5-0.6c1.5-2.6,2.7-5,3.7-6.9c0.2-0.3,0.3-0.7,0.5-1
	c0.7-1.6,1.2-2.7,1.4-3.2c0-0.1,0.1-0.1,0.1-0.2c1.1-2.5,2-4.7,2.8-6.8c0.2-0.6,0.4-1.1,0.6-1.7c0.2-0.5,0.4-1.1,0.6-1.6
	c0.3-0.8,0.5-1.5,0.8-2.2c0.1-0.2,0.2-0.4,0.2-0.7c0.4-1.1,0.7-2.1,0.9-3c0.1-0.5,0.3-1,0.4-1.5c0.4-1.9,0.5-3.3,0.4-4.3
	c0-0.3-0.1-0.5-0.2-0.7c0-0.1-0.1-0.2-0.2-0.3c-0.1-0.1-0.1-0.2-0.2-0.3c-0.6-0.6-1.7-0.3-2.9,0.5c-0.1,0.1-0.2,0.1-0.3,0.2v0h0l0,0
	c-12.8,9.4-48.6,28.5-117.9,28.5h-1.5c-69.3-0.1-105.1-19.1-117.9-28.5c0,0,0,0,0,0v0C306.5,18.7,306.4,18.6,306.3,18.5z"/>
<path class="st45" d="M424.2,100.7c-2.4,3.4-8.8,3.7-14.6,0.8c0.2,0.1,0.3,0.2,0.5,0.3c6.2,3.7,13.3,3.7,15.9,0
	c2.5-3.5-0.1-9.1-5.7-12.8C424.7,92.7,426.4,97.5,424.2,100.7z"/>
<path class="st45" d="M427.9,102.7c-2.7,4.1-10,4.7-17,1.6c0.2,0.1,0.4,0.2,0.6,0.3c7.4,4,15.7,3.7,18.5-0.7
	c2.7-4.2-0.6-10.6-7.3-14.6C428,93.4,430.4,98.9,427.9,102.7z"/>
<path class="st45" d="M413.1,114.6c0.2,0.1,0.4,0.2,0.6,0.4c0.2,0.1,0.4,0.2,0.5,0.3c0.1,0.1,0.1,0.2,0.1,0.3c0,0.1,0,0.2-0.1,0.3
	c-0.1,0.1-0.2,0.1-0.3,0.1c-0.1,0-0.2,0-0.4-0.1c-0.1-0.1-0.3-0.1-0.5-0.3c-0.2-0.1-0.4-0.3-0.6-0.4c-0.4,0.2-1,0.3-1.6,0.3
	c-0.5,0-1-0.1-1.4-0.2c-0.4-0.2-0.7-0.4-1-0.6c-0.3-0.3-0.5-0.6-0.6-1c-0.1-0.4-0.2-0.8-0.2-1.3c0-0.5,0.1-0.9,0.2-1.3
	c0.1-0.4,0.4-0.7,0.6-1c0.3-0.3,0.6-0.5,1-0.6c0.4-0.1,0.8-0.2,1.4-0.2c0.7,0,1.3,0.1,1.8,0.4c0.5,0.3,0.9,0.6,1.1,1.1
	c0.3,0.5,0.4,1,0.4,1.7C414,113.3,413.7,114,413.1,114.6z M412.1,113.9c0.2-0.2,0.3-0.4,0.4-0.7c0.1-0.3,0.1-0.6,0.1-0.9
	c0-0.4-0.1-0.8-0.2-1.2c-0.2-0.3-0.4-0.6-0.7-0.7c-0.3-0.2-0.6-0.2-1-0.2c-0.3,0-0.5,0-0.7,0.1c-0.2,0.1-0.4,0.2-0.6,0.4
	c-0.2,0.2-0.3,0.4-0.4,0.7c-0.1,0.3-0.1,0.6-0.1,0.9c0,0.7,0.2,1.2,0.5,1.6c0.4,0.4,0.8,0.6,1.3,0.6c0.2,0,0.5,0,0.7-0.1
	c-0.1-0.1-0.3-0.2-0.5-0.3c-0.2-0.1-0.4-0.2-0.4-0.2c-0.1-0.1-0.1-0.1-0.1-0.2c0-0.1,0-0.2,0.1-0.2c0.1-0.1,0.2-0.1,0.2-0.1
	C410.9,113.3,411.4,113.5,412.1,113.9z"/>
<path class="st45" d="M419.4,113.2c0,0.3-0.1,0.6-0.2,0.9c-0.1,0.3-0.3,0.5-0.5,0.7c-0.2,0.2-0.5,0.4-0.8,0.5
	c-0.3,0.1-0.6,0.2-1,0.2c-0.4,0-0.7-0.1-1-0.2c-0.3-0.1-0.6-0.3-0.8-0.5c-0.2-0.2-0.4-0.4-0.5-0.7c-0.1-0.3-0.2-0.6-0.2-0.9
	c0-0.3,0.1-0.7,0.2-0.9c0.1-0.3,0.3-0.5,0.5-0.7c0.2-0.2,0.5-0.4,0.8-0.5c0.3-0.1,0.6-0.2,1-0.2c0.4,0,0.7,0.1,1,0.2
	c0.3,0.1,0.6,0.3,0.8,0.5c0.2,0.2,0.4,0.4,0.5,0.7C419.4,112.5,419.4,112.8,419.4,113.2z M418.2,113.2c0-0.5-0.1-0.8-0.3-1.1
	c-0.2-0.3-0.5-0.4-0.9-0.4c-0.2,0-0.5,0.1-0.6,0.2c-0.2,0.1-0.3,0.3-0.4,0.5c-0.1,0.2-0.1,0.5-0.1,0.8c0,0.3,0,0.6,0.1,0.8
	c0.1,0.2,0.2,0.4,0.4,0.5c0.2,0.1,0.4,0.2,0.6,0.2c0.4,0,0.7-0.1,0.9-0.4C418.1,114,418.2,113.6,418.2,113.2z"/>
<path class="st45" d="M424.3,113.2v1.5c0,0.2-0.1,0.4-0.2,0.5c-0.1,0.1-0.3,0.2-0.5,0.2c-0.2,0-0.3-0.1-0.5-0.2
	c-0.1-0.1-0.2-0.3-0.2-0.5v-1.8c0-0.3,0-0.5,0-0.7c0-0.2-0.1-0.3-0.2-0.4c-0.1-0.1-0.2-0.2-0.4-0.2c-0.4,0-0.7,0.1-0.8,0.4
	c-0.1,0.3-0.2,0.6-0.2,1.1v1.5c0,0.2-0.1,0.4-0.2,0.5c-0.1,0.1-0.3,0.2-0.5,0.2c-0.2,0-0.3-0.1-0.5-0.2c-0.1-0.1-0.2-0.3-0.2-0.5
	v-3.2c0-0.2,0.1-0.4,0.2-0.5c0.1-0.1,0.2-0.2,0.4-0.2c0.2,0,0.3,0.1,0.4,0.2c0.1,0.1,0.2,0.2,0.2,0.4v0.1c0.2-0.2,0.4-0.4,0.7-0.5
	c0.2-0.1,0.5-0.2,0.8-0.2c0.3,0,0.6,0.1,0.8,0.2c0.2,0.1,0.4,0.3,0.6,0.5c0.2-0.2,0.4-0.4,0.7-0.5c0.2-0.1,0.5-0.2,0.8-0.2
	c0.3,0,0.6,0.1,0.9,0.2c0.2,0.1,0.4,0.3,0.5,0.5c0.1,0.2,0.2,0.5,0.2,1v2.2c0,0.2-0.1,0.4-0.2,0.5c-0.1,0.1-0.3,0.2-0.5,0.2
	c-0.2,0-0.3-0.1-0.5-0.2c-0.1-0.1-0.2-0.3-0.2-0.5v-1.9c0-0.2,0-0.4,0-0.6c0-0.1-0.1-0.3-0.2-0.4c-0.1-0.1-0.3-0.1-0.5-0.1
	c-0.2,0-0.3,0-0.5,0.1c-0.1,0.1-0.3,0.2-0.3,0.4C424.3,112.4,424.3,112.8,424.3,113.2z"/>
<path class="st45" d="M429.3,109.8v1.7c0.2-0.2,0.5-0.4,0.7-0.5c0.2-0.1,0.5-0.2,0.9-0.2c0.4,0,0.8,0.1,1.1,0.3
	c0.3,0.2,0.5,0.4,0.7,0.8c0.2,0.3,0.3,0.7,0.3,1.2c0,0.3,0,0.7-0.1,0.9c-0.1,0.3-0.2,0.5-0.4,0.7c-0.2,0.2-0.4,0.4-0.7,0.5
	c-0.3,0.1-0.5,0.2-0.9,0.2c-0.2,0-0.4,0-0.5-0.1c-0.2,0-0.3-0.1-0.4-0.2c-0.1-0.1-0.2-0.1-0.3-0.2c-0.1-0.1-0.2-0.2-0.3-0.3v0.1
	c0,0.2-0.1,0.4-0.2,0.5c-0.1,0.1-0.3,0.2-0.4,0.2c-0.2,0-0.3-0.1-0.4-0.2c-0.1-0.1-0.2-0.3-0.2-0.5v-4.9c0-0.2,0.1-0.4,0.2-0.5
	c0.1-0.1,0.2-0.2,0.4-0.2c0.2,0,0.3,0.1,0.4,0.2C429.2,109.5,429.3,109.6,429.3,109.8z M429.4,113.2c0,0.4,0.1,0.8,0.3,1
	c0.2,0.2,0.5,0.4,0.9,0.4c0.3,0,0.6-0.1,0.8-0.4c0.2-0.2,0.3-0.6,0.3-1.1c0-0.3,0-0.6-0.1-0.8c-0.1-0.2-0.2-0.4-0.4-0.5
	c-0.2-0.1-0.4-0.2-0.6-0.2c-0.2,0-0.4,0.1-0.6,0.2c-0.2,0.1-0.3,0.3-0.4,0.5C429.4,112.6,429.4,112.9,429.4,113.2z"/>
<path class="st45" d="M436.8,114.8c-0.3,0.2-0.6,0.4-0.9,0.5c-0.3,0.1-0.6,0.2-0.9,0.2c-0.3,0-0.6-0.1-0.8-0.2
	c-0.2-0.1-0.4-0.3-0.6-0.5c-0.1-0.2-0.2-0.4-0.2-0.6c0-0.3,0.1-0.6,0.3-0.8c0.2-0.2,0.5-0.4,0.9-0.4c0.1,0,0.3-0.1,0.6-0.1
	c0.3-0.1,0.6-0.1,0.8-0.2c0.2,0,0.5-0.1,0.7-0.2c0-0.3-0.1-0.5-0.2-0.7c-0.1-0.1-0.4-0.2-0.7-0.2c-0.3,0-0.5,0-0.7,0.1
	c-0.2,0.1-0.3,0.2-0.4,0.4c-0.1,0.2-0.2,0.3-0.2,0.3c0,0.1-0.1,0.1-0.3,0.1c-0.1,0-0.3,0-0.4-0.1c-0.1-0.1-0.1-0.2-0.1-0.3
	c0-0.2,0.1-0.4,0.2-0.6c0.2-0.2,0.4-0.3,0.7-0.5c0.3-0.1,0.7-0.2,1.2-0.2c0.5,0,1,0.1,1.3,0.2c0.3,0.1,0.5,0.3,0.7,0.6
	c0.1,0.3,0.2,0.6,0.2,1c0,0.3,0,0.5,0,0.7c0,0.2,0,0.4,0,0.6c0,0.2,0,0.4,0.1,0.7c0.1,0.2,0.1,0.4,0.1,0.4c0,0.1-0.1,0.2-0.2,0.3
	c-0.1,0.1-0.3,0.1-0.4,0.1c-0.1,0-0.3-0.1-0.4-0.2C437.1,115.2,437,115,436.8,114.8z M436.8,113.2c-0.2,0.1-0.4,0.1-0.8,0.2
	c-0.3,0.1-0.6,0.1-0.7,0.1c-0.1,0-0.3,0.1-0.4,0.2c-0.1,0.1-0.2,0.2-0.2,0.4c0,0.2,0.1,0.3,0.2,0.4c0.1,0.1,0.3,0.2,0.6,0.2
	c0.2,0,0.5,0,0.7-0.1c0.2-0.1,0.4-0.2,0.5-0.4c0.1-0.2,0.2-0.5,0.2-0.8V113.2z"/>
</svg>
