<?xml version="1.0" encoding="utf-8"?>
<!-- Generator: Adobe Illustrator 24.1.0, SVG Export Plug-In . SVG Version: 6.00 Build 0)  -->
<svg version="1.1" id="Capa_1" xmlns="http://www.w3.org/2000/svg" xmlns:xlink="http://www.w3.org/1999/xlink" x="0px" y="0px"
	 viewBox="0 0 850.4 963.8" enable-background="new 0 0 850.4 963.8" xml:space="preserve">
<g id="Capa_1_2_">
	<g id="Capa_1_1_">
	</g>
	<g id="Short_principal">
	</g>
</g>
<g id="Remera_principal">
	<path fill="#EDEDED" d="M435.2,919.2c0,0-41.4,1.3-52.2-1.3c-10.7-2.7-59.8-1.3-101.3,2.7c-41.4,4-89-6.7-89-6.7s6.1-25.3,6.1-49.2
		c0-24,27.6-123.7,33.8-187.6s4.6-146.4,4.6-173c0-26.6-18.4-139.7-23-188.9S182,202.1,177.4,172.8s3.1-53.2,3.1-53.2
		s41.4-22.6,61.4-27.9S303.2,61,303.2,61c3.1,27.9,36.8,63.9,66.8,79s49.8,32.8,49.8,32.8h15.3h15.3c0,0,19.9-17.7,49.8-32.8
		c30-15.1,63.7-51,66.8-79c0,0,41.4,25.3,61.4,30.6s61.4,27.9,61.4,27.9s7.7,24,3.1,53.2s-32.2,93.1-36.8,142.4s-23,162.3-23,188.9
		s-1.5,109.1,4.6,173s33.8,163.7,33.8,187.6c0,24,6.1,49.2,6.1,49.2s-47.6,10.6-89,6.7c-41.4-4-90.5-5.3-101.3-2.7
		S435.2,919.2,435.2,919.2z"/>
	<path fill="#EDEDED" d="M689.9,119.6c0,0,19.9,10.6,29.2,39.9s14.6,85.8,23.8,104.5s32.2,70.5,30.7,75.8s-12.3,49.2-108.9,55.9
		L649,373.5c0,0,4.9-70.6,17.9-111.4C679.9,221.4,704.5,156.2,689.9,119.6z"/>
	<path fill="#EDEDED" d="M180.4,119.6c0,0-19.9,10.6-29.2,39.9c-9.2,29.3-14.6,85.8-23.8,104.5s-32.2,70.5-30.7,75.8
		S109,389,205.6,395.7l15.6-22.1c0,0-4.9-70.6-17.9-111.4C190.4,221.4,165.9,156.2,180.4,119.6z"/>
</g>
<g id="Remera_cuello_y_puños">
	<path fill="#030323" d="M770.8,328.8l2.8,10.2c0,0-4.3,50-109.4,56.7l-5.5-8.4C658.7,387.3,743.9,376.9,770.8,328.8z"/>
	<path fill="#030323" d="M100.1,328.8L97.3,339c0,0,4.3,50,109.4,56.7l5.5-8.4C212.2,387.3,127,376.9,100.1,328.8z"/>
	<path fill="#030323" d="M437,149.2c-21.5-8-62.9-29.3-90.5-59.9s-15.3-46.6-15.3-46.6l-27.6,20c4.6,25.3,27.6,57.2,62.9,75.8
		s55.2,34.6,55.2,34.6H437h-1.5h15.3c0,0,19.9-16,55.2-34.6s58.3-50.6,62.9-75.8l-27.6-20c0,0,12.3,16-15.3,46.6
		c-27.6,30.6-69.1,51.9-90.5,59.9"/>
	<path fill="#030323" d="M437,76.3h-21.5c-21.5,0-41.4-6.7-41.4-6.7c-43-13.3-42.2-28.6-42.2-28.6s-11.5,12.4,10,41.8
		c0,0,33.8,18.7,72.1,17.4h23h-1.5h23c38.4,1.3,72.1-17.4,72.1-17.4c21.5-29.4,10-41.8,10-41.8s0.8,15.3-42.2,28.6
		c0,0-19.9,6.7-41.4,6.7h-21.5"/>
</g>
<g id="GENERICO">

		<linearGradient id="SVGID_1_" gradientUnits="userSpaceOnUse" x1="363" y1="831.2" x2="508" y2="831.2" gradientTransform="matrix(1 0 0 -1 0 964)">
		<stop  offset="0" style="stop-color:#FFFFFF"/>
		<stop  offset="0.2497" style="stop-color:#D2D2D2"/>
		<stop  offset="0.6011" style="stop-color:#989898"/>
		<stop  offset="0.8615" style="stop-color:#747474"/>
		<stop  offset="1" style="stop-color:#666666"/>
	</linearGradient>
	<path fill="url(#SVGID_1_)" d="M363,106.1l72.2,53.4l72.8-53.4C507.9,106.1,436.5,125.1,363,106.1z"/>
	<g opacity="0.53">
		<g>

				<linearGradient id="SVGID_2_" gradientUnits="userSpaceOnUse" x1="656.3282" y1="646.033" x2="698.9561" y2="646.033" gradientTransform="matrix(1 0 0 -1 0 964)">
				<stop  offset="0.1336" style="stop-color:#070606;stop-opacity:0.3"/>
				<stop  offset="1" style="stop-color:#070606;stop-opacity:0"/>
			</linearGradient>
			<path fill="url(#SVGID_2_)" d="M686.2,385c-4-25.1-3.1-50.9,2.5-75.8c4.8-21.3,13.2-42.7,9.1-64.1
				c-10.3,10.5-20.9,21.4-26.4,34.4c-2.4,5.6-3.8,11.4-5.1,17.3c-5.8,24.8-11.7,50.1-9.6,75.4c0.7,8,4.4,17.9,13.7,18.6
				c5.4,0.4,10.3-2.8,14.5-5.8"/>
		</g>
	</g>
	<g opacity="0.58">
		<g>

				<linearGradient id="SVGID_3_" gradientUnits="userSpaceOnUse" x1="777.1897" y1="636.8392" x2="655.9351" y2="706.8455" gradientTransform="matrix(1 0 0 -1 0 964)">
				<stop  offset="0" style="stop-color:#FFFFFF;stop-opacity:0.3"/>
				<stop  offset="1" style="stop-color:#FFFFFF;stop-opacity:0"/>
			</linearGradient>
			<path fill="url(#SVGID_3_)" d="M687.4,390.4c-5.3-26.9-1.2-54.4,2.9-81.4c6.1-40.3,12.2-80.5,18.4-120.8c1-6.4,1.8-13.3-2.1-18.8
				c10.6,41.4,22.6,82.5,36,123.3c3.1,9.4,6.4,18.9,12.2,27.3c6,8.7,15.2,18.4,10.5,27.7c-2.9,5.9-10.4,8.9-15.6,13.4
				c-4.4,3.8-7.2,8.8-11.9,12.4c-4.2,3.3-9.6,5.1-14.8,6.9c-11.8,4-23.5,8.1-35.3,12.1"/>
		</g>
	</g>
	<g opacity="0.53">
		<g>

				<linearGradient id="SVGID_4_" gradientUnits="userSpaceOnUse" x1="866.4062" y1="646.033" x2="909.0341" y2="646.033" gradientTransform="matrix(-1 0 0 -1 1085 964)">
				<stop  offset="0.1336" style="stop-color:#070606;stop-opacity:0.3"/>
				<stop  offset="1" style="stop-color:#070606;stop-opacity:0"/>
			</linearGradient>
			<path fill="url(#SVGID_4_)" d="M188.8,385c4-25.1,3.1-50.9-2.5-75.8c-4.8-21.3-13.2-42.7-9.1-64.1c10.3,10.5,20.9,21.4,26.4,34.4
				c2.4,5.6,3.8,11.4,5.1,17.3c5.8,24.8,11.7,50.1,9.6,75.4c-0.7,8-4.4,17.9-13.7,18.6c-5.4,0.4-10.3-2.8-14.5-5.8"/>
		</g>
	</g>
	<g opacity="0.58">
		<g>

				<linearGradient id="SVGID_5_" gradientUnits="userSpaceOnUse" x1="987.2896" y1="636.8391" x2="866.0349" y2="706.8455" gradientTransform="matrix(-1 0 0 -1 1085 964)">
				<stop  offset="0" style="stop-color:#FFFFFF;stop-opacity:0.3"/>
				<stop  offset="1" style="stop-color:#FFFFFF;stop-opacity:0"/>
			</linearGradient>
			<path fill="url(#SVGID_5_)" d="M187.5,390.4c5.3-26.9,1.2-54.4-2.9-81.4c-6.1-40.3-12.2-80.5-18.4-120.8
				c-1-6.4-1.8-13.3,2.1-18.8c-10.6,41.4-22.6,82.5-36,123.3c-3.1,9.4-6.4,18.9-12.2,27.3c-6,8.7-15.2,18.4-10.5,27.7
				c2.9,5.9,10.4,8.9,15.6,13.4c4.4,3.8,7.2,8.8,11.9,12.4c4.2,3.3,9.6,5.1,14.8,6.9c11.8,4,23.5,8.1,35.3,12.1"/>
		</g>
	</g>

		<radialGradient id="SVGID_6_" cx="556.2091" cy="632.9176" r="51.9451" gradientTransform="matrix(1.5345 0 0 -1.3306 -416.9529 914.4926)" gradientUnits="userSpaceOnUse">
		<stop  offset="0" style="stop-color:#000000;stop-opacity:0"/>
		<stop  offset="0.1171" style="stop-color:#030303;stop-opacity:0"/>
		<stop  offset="0.1875" style="stop-color:#0B0B0B;stop-opacity:0"/>
		<stop  offset="0.2456" style="stop-color:#191919;stop-opacity:0"/>
		<stop  offset="0.297" style="stop-color:#2E2E2E;stop-opacity:0"/>
		<stop  offset="0.344" style="stop-color:#484848;stop-opacity:0"/>
		<stop  offset="0.3877" style="stop-color:#686868;stop-opacity:0"/>
		<stop  offset="0.429" style="stop-color:#8F8F8F;stop-opacity:0"/>
		<stop  offset="0.4683" style="stop-color:#BBBBBB;stop-opacity:0"/>
		<stop  offset="0.5047" style="stop-color:#EDEDED;stop-opacity:0"/>
		<stop  offset="0.517" style="stop-color:#FFFFFF;stop-opacity:0"/>
		<stop  offset="0.5619" style="stop-color:#F1F1F1;stop-opacity:2.785662e-02"/>
		<stop  offset="0.6461" style="stop-color:#CECDCD;stop-opacity:8.015504e-02"/>
		<stop  offset="0.7606" style="stop-color:#949393;stop-opacity:0.1513"/>
		<stop  offset="0.8995" style="stop-color:#454444;stop-opacity:0.2376"/>
		<stop  offset="1" style="stop-color:#070606;stop-opacity:0.3"/>
	</radialGradient>
	<path opacity="0.36" fill="url(#SVGID_6_)" enable-background="new    " d="M437.3,78h-21.5c-21.5,0-41.4-6.7-41.4-6.7
		c-43-13.3-42.2-28.6-42.2-28.6s-11.5,12.4,10,41.8c0,0,33.8,18.7,72.1,17.4h23h-1.5h23c38.4,1.3,72.1-17.4,72.1-17.4
		c21.5-29.4,10-41.8,10-41.8s0.8,15.3-42.2,28.6c0,0-19.9,6.7-41.4,6.7h-21.5"/>

		<linearGradient id="SVGID_7_" gradientUnits="userSpaceOnUse" x1="939.2" y1="856.2" x2="1204.5" y2="856.2" gradientTransform="matrix(-1 0 0 -1 1508 964)">
		<stop  offset="0" style="stop-color:#070606;stop-opacity:0.3"/>
		<stop  offset="4.446354e-02" style="stop-color:#0D0C0C;stop-opacity:0.2724"/>
		<stop  offset="0.1064" style="stop-color:#1F1E1E;stop-opacity:0.2339"/>
		<stop  offset="0.1786" style="stop-color:#3D3C3C;stop-opacity:0.1891"/>
		<stop  offset="0.2585" style="stop-color:#666666;stop-opacity:0.1394"/>
		<stop  offset="0.3449" style="stop-color:#9B9B9B;stop-opacity:8.575617e-02"/>
		<stop  offset="0.4352" style="stop-color:#DADADA;stop-opacity:2.964893e-02"/>
		<stop  offset="0.4829" style="stop-color:#FFFFFF;stop-opacity:0"/>
		<stop  offset="0.9488" style="stop-color:#4D4D4D;stop-opacity:0"/>
	</linearGradient>
	<path opacity="0.36" fill="url(#SVGID_7_)" enable-background="new    " d="M435.4,149.1c21.5-8,62.9-29.3,90.5-59.9
		c27.6-30.6,15.3-46.6,15.3-46.6l27.6,20c-4.6,25.3-27.6,57.2-62.9,75.8S450.7,173,450.7,173h-15.3h1.5h-15.3c0,0-19.9-16-55.2-34.6
		s-58.3-50.6-62.9-75.8l27.6-20c0,0-12.3,16,15.3,46.6s69.1,51.9,90.5,59.9"/>

		<linearGradient id="SVGID_8_" gradientUnits="userSpaceOnUse" x1="662.5" y1="571.3" x2="662.5" y2="571.3" gradientTransform="matrix(1 0 0 -1 0 964)">
		<stop  offset="0" style="stop-color:#FFFFFF;stop-opacity:0.3"/>
		<stop  offset="1" style="stop-color:#FFFFFF;stop-opacity:0"/>
	</linearGradient>
	<path fill="url(#SVGID_8_)" d="M662.5,392.7"/>
	<path fill="none" stroke="#070606" stroke-width="0.5" stroke-linecap="round" stroke-miterlimit="10" stroke-dasharray="2.5" d="
		M735.9,115.4"/>
	<path fill="none" stroke="#070606" stroke-width="0.5" stroke-linecap="round" stroke-miterlimit="10" stroke-dasharray="2.5" d="
		M663,393"/>
	<path fill="none" stroke="#070606" stroke-width="0.5" stroke-linecap="round" stroke-miterlimit="10" stroke-dasharray="2.5" d="
		M735.4,113.6"/>

		<path opacity="0.71" fill="none" stroke="#070606" stroke-width="0.25" stroke-linecap="round" stroke-miterlimit="10" stroke-dasharray="2.5" enable-background="new    " d="
		M663,393c0,0,93.6-9.3,110.5-58.5"/>

		<path opacity="0.71" fill="none" stroke="#070606" stroke-width="0.25" stroke-linecap="round" stroke-miterlimit="10" stroke-dasharray="2.5" enable-background="new    " d="
		M661.5,389c0,0,93.6-9.3,110.5-58.5"/>

		<path opacity="0.71" fill="none" stroke="#070606" stroke-width="0.25" stroke-linecap="round" stroke-miterlimit="10" stroke-dasharray="2.5" enable-background="new    " d="
		M208.8,391.7c0,0-93.6-9.3-110.5-58.5"/>

		<path opacity="0.71" fill="none" stroke="#070606" stroke-width="0.25" stroke-linecap="round" stroke-miterlimit="10" stroke-dasharray="2.5" enable-background="new    " d="
		M210.4,387.7c0,0-93.6-9.3-110.5-58.5"/>
	<g opacity="0.53">

			<linearGradient id="SVGID_9_" gradientUnits="userSpaceOnUse" x1="392.4" y1="319.6" x2="459.9448" y2="319.6" gradientTransform="matrix(-1 0 0 -1 1070 964)">
			<stop  offset="0.1336" style="stop-color:#070606;stop-opacity:0.3"/>
			<stop  offset="1" style="stop-color:#070606;stop-opacity:0"/>
		</linearGradient>
		<path fill="url(#SVGID_9_)" d="M648.5,371c-13.5,38.3-28.7,71.5-34.6,111.1c-4.8,33-4.3,66.3-2.8,99.5
			c4.9,109.7,46.6,336.2,46.6,336.2s15.3-2.7,19.9-4c-10.7-121.1-49.1-206.2-44.5-335.3c0.9-26.5-1.8-54.7,0-81.2
			C635.9,455.5,645.6,413,648.5,371L648.5,371z"/>
	</g>
	<g opacity="0.53">

			<linearGradient id="SVGID_10_" gradientUnits="userSpaceOnUse" x1="149.259" y1="312.0104" x2="222.1608" y2="312.0104" gradientTransform="matrix(0.9999 -1.304139e-02 -1.304139e-02 -0.9999 44.404 957.0673)">
			<stop  offset="0.1336" style="stop-color:#070606;stop-opacity:0.3"/>
			<stop  offset="1" style="stop-color:#070606;stop-opacity:0"/>
		</linearGradient>
		<path fill="url(#SVGID_10_)" d="M220.1,369.3c14.1,38.1,29.8,71.1,36.2,110.7c5.3,32.9,5.3,66.3,4.3,99.5
			c-3.3,109.7-41.5,336.7-41.5,336.7s-21.4-1.9-26-3.1c8.9-121.2,47.2-203,45.5-336.4c-1.3-26.4,1-54.8-1.2-81.2
			C233.9,453.6,223.6,411.2,220.1,369.3L220.1,369.3z"/>
	</g>
	<g opacity="0.97">
		<g>
			<g>

					<linearGradient id="SVGID_11_" gradientUnits="userSpaceOnUse" x1="178.76" y1="747.9343" x2="690.4916" y2="747.9343" gradientTransform="matrix(0.9998 0 0 -1.012 0.1434 972.5113)">
					<stop  offset="0" style="stop-color:#FFFFFF;stop-opacity:0.3"/>
					<stop  offset="1" style="stop-color:#FFFFFF;stop-opacity:0"/>
				</linearGradient>
				<path fill="url(#SVGID_11_)" d="M658,291.5c-23,30.7-32.6,73-74,78.2c-36.6,4.6-89.8-23.6-126.6-26.7
					c-41.3-3.5-80.7,13.6-120.7,23.3c-40,9.7-88.1-3.7-113.3-32.6c-11.5-13.2-18-48.9-21.5-65.2c-11.4-52.7-18.5-74-22.8-127.4
					c-0.3-4.1-0.6-8.3,1.1-12c2-4.4,6.5-7.6,10.8-10.5c28.1-19.3,56.3-38.8,87.4-54.2c4.3-2.1,9.1-4.2,13.8-3.1
					c5.1,1.2,8.1,5.6,10.7,9.6c25.9,38.9,65.1,70.8,111.2,90.6c5.7,2.4,11.6,4.7,17.9,5.2c12.9,1.1,24.9-5.3,35.9-11.4
					c35.5-19.9,72.2-40.7,95.1-71.8c3.2-4.3,6.4-9.1,11.9-10.9c7.2-2.4,15,1.1,21.6,4.6c25.7,13.4,51.4,26.9,77.1,40.3
					c5,2.6,10.2,5.4,13.2,9.8c2.4,3.5,3,7.7,3.4,11.7c4.4,52.1-41.7,100.7-32.5,152.3"/>
			</g>
		</g>
	</g>
	<path fill="#1A1A1A" d="M627.3,851.9c-5.9,8.7-22.3,10-37.8,3.4c0.4,0.2,0.9,0.5,1.3,0.7c16.5,8.4,35,7.8,41.3-1.5
		c6-8.8-1.3-22.3-16.4-30.8C627.6,832.2,632.7,843.9,627.3,851.9z"/>
	<path fill="#1A1A1A" d="M619,847.6c-5.4,7.3-19.5,7.8-32.5,1.7c0.4,0.2,0.7,0.4,1.1,0.6c13.8,7.7,29.6,7.8,35.4,0.1
		c5.5-7.4-0.2-19.1-12.7-26.9C620.1,830.8,624,840.9,619,847.6z"/>
	<path fill="#1A1A1A" d="M648.7,877.5c-0.7,0.4-1.3,0.8-1.9,1c-0.6,0.2-1.3,0.3-2.1,0.3c-0.7,0-1.3-0.1-1.8-0.4
		c-0.5-0.2-0.9-0.6-1.2-1s-0.4-0.9-0.4-1.3c0-0.7,0.2-1.2,0.7-1.7s1.1-0.8,2-0.9c0.2,0,0.6-0.1,1.3-0.2c0.7-0.1,1.3-0.2,1.8-0.3
		s1-0.2,1.6-0.4c0-0.6-0.2-1.1-0.4-1.4c-0.3-0.3-0.8-0.4-1.6-0.4c-0.7,0-1.2,0.1-1.6,0.3c-0.4,0.2-0.7,0.4-0.9,0.8
		c-0.3,0.3-0.4,0.6-0.5,0.7c-0.1,0.1-0.3,0.2-0.7,0.2c-0.3,0-0.6-0.1-0.8-0.3s-0.3-0.4-0.3-0.7c0-0.4,0.2-0.8,0.5-1.2s0.9-0.7,1.6-1
		c0.7-0.3,1.6-0.4,2.7-0.4c1.2,0,2.2,0.1,2.8,0.4c0.7,0.2,1.2,0.6,1.5,1.2c0.3,0.5,0.4,1.2,0.4,2.1c0,0.6,0,1,0,1.4s0,0.8,0,1.3
		c0,0.4,0.1,0.9,0.3,1.4s0.3,0.8,0.3,0.9c0,0.2-0.1,0.5-0.4,0.7c-0.3,0.2-0.6,0.3-0.9,0.3c-0.3,0-0.6-0.1-0.8-0.3
		C649.3,878.2,649,877.9,648.7,877.5z M648.5,874c-0.4,0.1-1,0.3-1.8,0.4c-0.8,0.1-1.3,0.2-1.6,0.3s-0.6,0.2-0.8,0.4
		c-0.3,0.2-0.4,0.5-0.4,0.8c0,0.4,0.2,0.7,0.5,0.9c0.3,0.3,0.7,0.4,1.2,0.4s1-0.1,1.5-0.3s0.8-0.5,1-0.8c0.3-0.4,0.4-1,0.4-1.8
		L648.5,874L648.5,874z"/>
	<path fill="#1A1A1A" d="M630.4,867v3.6c0.5-0.5,1-0.8,1.6-1.1c0.5-0.2,1.2-0.4,2-0.4c0.9,0,1.7,0.2,2.4,0.6
		c0.7,0.4,1.2,0.9,1.6,1.6c0.4,0.7,0.6,1.6,0.6,2.5c0,0.7-0.1,1.4-0.3,2s-0.5,1.1-0.9,1.6c-0.4,0.4-0.9,0.8-1.5,1s-1.2,0.4-1.9,0.4
		c-0.4,0-0.8,0-1.2-0.1s-0.7-0.2-0.9-0.3c-0.3-0.1-0.5-0.3-0.7-0.4c-0.2-0.2-0.4-0.4-0.7-0.7v0.2c0,0.4-0.1,0.8-0.4,1
		c-0.2,0.2-0.6,0.3-0.9,0.3c-0.4,0-0.7-0.1-0.9-0.3s-0.3-0.6-0.3-1v-10.4c0-0.5,0.1-0.8,0.3-1.1c0.2-0.2,0.5-0.4,0.9-0.4
		s0.8,0.1,1,0.4C630.3,866.2,630.4,866.5,630.4,867z M630.5,874c0,0.9,0.3,1.7,0.8,2.2s1.2,0.8,2,0.8c0.7,0,1.3-0.3,1.8-0.8
		s0.8-1.3,0.8-2.2c0-0.6-0.1-1.2-0.3-1.6c-0.2-0.5-0.5-0.8-0.9-1s-0.8-0.4-1.3-0.4s-1,0.1-1.4,0.4c-0.4,0.2-0.7,0.6-1,1.1
		C630.6,872.8,630.5,873.4,630.5,874z"/>
	<path fill="#1A1A1A" d="M620.8,874.2v3.2c0,0.5-0.1,0.9-0.4,1.1c-0.3,0.3-0.6,0.4-1,0.4s-0.8-0.1-1-0.4c-0.3-0.3-0.4-0.6-0.4-1.1
		v-3.8c0-0.6,0-1.1-0.1-1.4c0-0.3-0.2-0.6-0.4-0.8s-0.5-0.3-1-0.3c-0.9,0-1.5,0.3-1.8,0.8s-0.4,1.3-0.4,2.3v3.2
		c0,0.5-0.1,0.9-0.4,1.1c-0.3,0.3-0.6,0.4-1,0.4s-0.8-0.1-1-0.4c-0.3-0.2-0.4-0.6-0.4-1.1v-6.8c0-0.4,0.1-0.8,0.4-1
		c0.2-0.2,0.6-0.3,0.9-0.3c0.4,0,0.7,0.1,0.9,0.3c0.3,0.2,0.4,0.5,0.4,0.9v0.2c0.5-0.5,1-0.9,1.5-1.1c0.5-0.2,1.1-0.3,1.8-0.3
		s1.3,0.1,1.8,0.4c0.5,0.2,0.9,0.6,1.2,1.1c0.5-0.5,1-0.9,1.5-1.1c0.5-0.2,1.1-0.3,1.8-0.3s1.4,0.1,1.9,0.4c0.5,0.3,0.9,0.6,1.2,1.1
		c0.2,0.4,0.4,1.1,0.4,2v4.6c0,0.5-0.1,0.9-0.4,1.1c-0.3,0.3-0.6,0.4-1,0.4s-0.8-0.1-1-0.4c-0.3-0.2-0.4-0.6-0.4-1.1v-4
		c0-0.5,0-0.9-0.1-1.2s-0.2-0.6-0.4-0.8s-0.6-0.3-1-0.3s-0.7,0.1-1,0.3s-0.6,0.4-0.8,0.7C620.9,872.4,620.8,873.1,620.8,874.2z"/>
	<path fill="#1A1A1A" d="M610,874c0,0.7-0.1,1.4-0.4,2c-0.3,0.6-0.6,1.1-1.1,1.5s-1.1,0.8-1.7,1c-0.7,0.2-1.4,0.3-2.3,0.3
		c-0.8,0-1.6-0.1-2.2-0.3c-0.7-0.2-1.2-0.6-1.7-1s-0.9-0.9-1.1-1.5c-0.3-0.6-0.4-1.2-0.4-2c0-0.7,0.1-1.4,0.4-2
		c0.3-0.6,0.6-1.1,1.1-1.5s1-0.8,1.7-1s1.4-0.3,2.2-0.3s1.6,0.1,2.3,0.3s1.3,0.6,1.7,1c0.5,0.4,0.8,0.9,1.1,1.5
		C609.8,872.6,610,873.3,610,874z M607.2,874c0-1-0.2-1.7-0.7-2.3c-0.5-0.5-1.2-0.8-2-0.8c-0.5,0-1,0.1-1.4,0.4
		c-0.4,0.2-0.7,0.6-0.9,1.1s-0.3,1-0.3,1.6s0.1,1.2,0.3,1.6c0.2,0.5,0.5,0.8,0.9,1.1c0.4,0.2,0.9,0.4,1.4,0.4c0.8,0,1.5-0.3,2-0.8
		C607,875.7,607.2,874.9,607.2,874z"/>
	<path fill="#1A1A1A" d="M594.3,877c0.4,0.3,0.9,0.5,1.4,0.7s0.9,0.4,1,0.6c0.2,0.1,0.2,0.3,0.2,0.6c0,0.2-0.1,0.4-0.3,0.6
		c-0.2,0.2-0.4,0.3-0.7,0.3c-0.2,0-0.5-0.1-0.8-0.2c-0.3-0.1-0.7-0.3-1.1-0.6c-0.4-0.2-0.9-0.5-1.4-0.9c-1,0.4-2.2,0.6-3.6,0.6
		c-1.1,0-2.2-0.2-3.1-0.5c-0.9-0.3-1.7-0.8-2.3-1.4c-0.6-0.6-1.1-1.3-1.4-2.1c-0.3-0.8-0.5-1.7-0.5-2.7s0.2-1.9,0.5-2.7
		s0.8-1.5,1.4-2.1c0.6-0.6,1.4-1,2.3-1.3c0.9-0.3,1.9-0.5,3-0.5c1.5,0,2.8,0.3,3.9,0.8c1.1,0.5,1.9,1.3,2.5,2.3s0.8,2.2,0.8,3.5
		C596.2,874.2,595.6,875.8,594.3,877z M592,875.6c0.4-0.4,0.7-0.9,0.9-1.5s0.3-1.2,0.3-2c0-0.9-0.2-1.7-0.5-2.4s-0.8-1.2-1.5-1.6
		c-0.6-0.4-1.4-0.5-2.2-0.5c-0.6,0-1.1,0.1-1.6,0.3s-0.9,0.5-1.3,0.8c-0.4,0.4-0.7,0.9-0.9,1.4c-0.2,0.6-0.3,1.2-0.3,1.9
		c0,1.5,0.4,2.6,1.2,3.4c0.8,0.8,1.8,1.2,3,1.2c0.5,0,1-0.1,1.5-0.3c-0.3-0.2-0.7-0.4-1.2-0.6c-0.5-0.2-0.8-0.4-1-0.5
		s-0.3-0.3-0.3-0.5s0.1-0.3,0.2-0.5c0.2-0.1,0.4-0.2,0.6-0.2C589.5,874.3,590.6,874.7,592,875.6z"/>
	<path fill="none" stroke="#070606" stroke-width="0.25" stroke-linecap="round" stroke-miterlimit="10" stroke-dasharray="2.5" d="
		M298.7,63.7c0,0,7.5,43.9,62.8,77.2s55.2,37.3,55.2,37.3h18.4h18.4c0,0,0-4,55.2-37.3s62.8-77.2,62.8-77.2"/>

		<linearGradient id="SVGID_12_" gradientUnits="userSpaceOnUse" x1="302.4" y1="857.7" x2="567.7" y2="857.7" gradientTransform="matrix(1 0 0 -1 0 964)">
		<stop  offset="0" style="stop-color:#070606;stop-opacity:0.3"/>
		<stop  offset="4.446354e-02" style="stop-color:#0D0C0C;stop-opacity:0.2724"/>
		<stop  offset="0.1064" style="stop-color:#1F1E1E;stop-opacity:0.2339"/>
		<stop  offset="0.1786" style="stop-color:#3D3C3C;stop-opacity:0.1891"/>
		<stop  offset="0.2585" style="stop-color:#666666;stop-opacity:0.1394"/>
		<stop  offset="0.3449" style="stop-color:#9B9B9B;stop-opacity:8.575617e-02"/>
		<stop  offset="0.4352" style="stop-color:#DADADA;stop-opacity:2.964893e-02"/>
		<stop  offset="0.4829" style="stop-color:#FFFFFF;stop-opacity:0"/>
		<stop  offset="0.9488" style="stop-color:#4D4D4D;stop-opacity:0"/>
	</linearGradient>
	<path opacity="0.36" fill="url(#SVGID_12_)" enable-background="new    " d="M435.9,147.5c-21.5-8-62.9-29.3-90.5-59.9
		S330,41.1,330,41.1l-27.6,20c4.6,25.3,27.6,57.2,62.9,75.8s55.2,34.6,55.2,34.6h15.3h-1.5h15.3c0,0,19.9-16,55.2-34.6
		s58.3-50.6,62.9-75.8l-27.6-20c0,0,12.3,16-15.3,46.6c-27.6,30.6-69.1,51.9-90.5,59.9"/>
	<path fill="none" d="M358.2,101c0,0,86.8,21.4,153.2,0"/>
	<path fill="#FFFFFF" d="M435.1,126.7c-2.4,3.2-8.7,3.4-14.4,0.8c0.2,0.1,0.3,0.2,0.5,0.3c6.1,3.4,13.2,3.4,15.7,0
		c2.4-3.2-0.1-8.4-5.6-11.8C435.6,119.3,437.3,123.8,435.1,126.7z"/>
	<path fill="#FFFFFF" d="M438.8,128.6c-2.6,3.8-9.9,4.4-16.8,1.5c0.2,0.1,0.4,0.2,0.6,0.3c7.3,3.7,15.5,3.4,18.3-0.6
		c2.7-3.9-0.6-9.8-7.3-13.5C438.9,120,441.2,125.1,438.8,128.6z"/>
	<path fill="#FFFFFF" d="M424.2,139.6c0.2,0.1,0.4,0.2,0.6,0.3s0.4,0.2,0.5,0.3s0.1,0.1,0.1,0.3c0,0.1,0,0.2-0.1,0.2
		c-0.1,0.1-0.2,0.1-0.3,0.1c-0.1,0-0.2,0-0.4-0.1c-0.1-0.1-0.3-0.1-0.5-0.2c-0.2-0.1-0.4-0.2-0.6-0.4c-0.4,0.2-1,0.3-1.6,0.3
		c-0.5,0-1-0.1-1.4-0.2c-0.4-0.1-0.7-0.3-1-0.6s-0.5-0.6-0.6-0.9c-0.1-0.4-0.2-0.8-0.2-1.2s0.1-0.8,0.2-1.2s0.4-0.7,0.6-0.9
		c0.3-0.3,0.6-0.4,1-0.6c0.4-0.1,0.8-0.2,1.3-0.2c0.7,0,1.3,0.1,1.7,0.4c0.5,0.2,0.9,0.6,1.1,1c0.3,0.4,0.4,0.9,0.4,1.5
		C425,138.4,424.7,139.1,424.2,139.6z M423.1,139c0.2-0.2,0.3-0.4,0.4-0.6c0.1-0.2,0.1-0.5,0.1-0.9s-0.1-0.8-0.2-1.1
		c-0.2-0.3-0.4-0.5-0.7-0.7c-0.3-0.2-0.6-0.2-1-0.2c-0.3,0-0.5,0-0.7,0.1s-0.4,0.2-0.6,0.4s-0.3,0.4-0.4,0.6
		c-0.1,0.3-0.1,0.5-0.1,0.9c0,0.6,0.2,1.1,0.5,1.5c0.4,0.3,0.8,0.5,1.3,0.5c0.2,0,0.4,0,0.7-0.1c-0.1-0.1-0.3-0.2-0.5-0.3
		s-0.4-0.2-0.4-0.2c-0.1,0-0.1-0.1-0.1-0.2c0-0.1,0-0.1,0.1-0.2c0.1-0.1,0.2-0.1,0.2-0.1C422,138.4,422.5,138.6,423.1,139z"/>
	<path fill="#FFFFFF" d="M430.4,138.3c0,0.3-0.1,0.6-0.2,0.9c-0.1,0.3-0.3,0.5-0.5,0.7s-0.5,0.3-0.8,0.4c-0.3,0.1-0.6,0.2-1,0.2
		s-0.7-0.1-1-0.2c-0.3-0.1-0.5-0.2-0.8-0.4c-0.2-0.2-0.4-0.4-0.5-0.7s-0.2-0.5-0.2-0.9c0-0.3,0.1-0.6,0.2-0.9
		c0.1-0.3,0.3-0.5,0.5-0.7s0.5-0.3,0.8-0.4c0.3-0.1,0.6-0.2,1-0.2s0.7,0.1,1,0.2c0.3,0.1,0.6,0.2,0.8,0.4c0.2,0.2,0.4,0.4,0.5,0.7
		C430.4,137.7,430.4,138,430.4,138.3z M429.2,138.3c0-0.4-0.1-0.8-0.3-1c-0.2-0.2-0.5-0.4-0.9-0.4c-0.2,0-0.4,0.1-0.6,0.2
		c-0.2,0.1-0.3,0.3-0.4,0.5s-0.1,0.4-0.1,0.7s0,0.5,0.1,0.7s0.2,0.4,0.4,0.5c0.2,0.1,0.4,0.2,0.6,0.2c0.4,0,0.7-0.1,0.9-0.4
		C429.1,139.1,429.2,138.7,429.2,138.3z"/>
	<path fill="#FFFFFF" d="M435.2,138.4v1.4c0,0.2-0.1,0.4-0.2,0.5s-0.3,0.2-0.5,0.2s-0.3-0.1-0.4-0.2c-0.1-0.1-0.2-0.3-0.2-0.5v-1.7
		c0-0.3,0-0.5,0-0.6s-0.1-0.3-0.2-0.4c-0.1-0.1-0.2-0.1-0.4-0.1c-0.4,0-0.7,0.1-0.8,0.4c-0.1,0.2-0.2,0.6-0.2,1v1.4
		c0,0.2-0.1,0.4-0.2,0.5s-0.3,0.2-0.5,0.2s-0.3-0.1-0.5-0.2c-0.1-0.1-0.2-0.3-0.2-0.5v-3c0-0.2,0.1-0.3,0.2-0.4
		c0.1-0.1,0.2-0.2,0.4-0.2c0.2,0,0.3,0,0.4,0.1s0.2,0.2,0.2,0.4v0.1c0.2-0.2,0.4-0.4,0.7-0.5c0.2-0.1,0.5-0.2,0.8-0.2
		s0.6,0.1,0.8,0.2c0.2,0.1,0.4,0.3,0.5,0.5c0.2-0.2,0.4-0.4,0.7-0.5c0.2-0.1,0.5-0.2,0.8-0.2s0.6,0.1,0.9,0.2
		c0.2,0.1,0.4,0.3,0.5,0.5s0.2,0.5,0.2,0.9v2c0,0.2-0.1,0.4-0.2,0.5s-0.3,0.2-0.5,0.2s-0.3-0.1-0.5-0.2c-0.1-0.1-0.2-0.3-0.2-0.5
		V138c0-0.2,0-0.4,0-0.5s-0.1-0.2-0.2-0.3s-0.2-0.1-0.4-0.1c-0.2,0-0.3,0-0.5,0.1c-0.1,0.1-0.3,0.2-0.3,0.3
		C435.3,137.6,435.2,137.9,435.2,138.4z"/>
	<path fill="#FFFFFF" d="M440.2,135.2v1.6c0.2-0.2,0.5-0.4,0.7-0.5s0.5-0.2,0.9-0.2s0.8,0.1,1.1,0.2c0.3,0.2,0.5,0.4,0.7,0.7
		s0.3,0.7,0.3,1.1c0,0.3,0,0.6-0.1,0.9c-0.1,0.3-0.2,0.5-0.4,0.7c-0.2,0.2-0.4,0.3-0.6,0.4c-0.3,0.1-0.5,0.2-0.8,0.2
		c-0.2,0-0.4,0-0.5-0.1c-0.2,0-0.3-0.1-0.4-0.1c-0.1-0.1-0.2-0.1-0.3-0.2c-0.1-0.1-0.2-0.2-0.3-0.3v0.1c0,0.2-0.1,0.3-0.2,0.4
		c-0.1,0.1-0.3,0.2-0.4,0.2c-0.2,0-0.3-0.1-0.4-0.2c-0.1-0.1-0.2-0.2-0.2-0.4v-4.6c0-0.2,0.1-0.4,0.2-0.5s0.2-0.2,0.4-0.2
		c0.2,0,0.3,0.1,0.4,0.2C440.1,134.9,440.2,135,440.2,135.2z M440.2,138.3c0,0.4,0.1,0.7,0.3,1c0.2,0.2,0.5,0.3,0.9,0.3
		c0.3,0,0.6-0.1,0.8-0.3c0.2-0.2,0.3-0.6,0.3-1c0-0.3,0-0.5-0.1-0.7s-0.2-0.4-0.4-0.5c-0.2-0.1-0.4-0.2-0.6-0.2s-0.4,0.1-0.6,0.2
		c-0.2,0.1-0.3,0.3-0.4,0.5C440.3,137.8,440.2,138,440.2,138.3z"/>
	<path fill="#FFFFFF" d="M447.6,139.8c-0.3,0.2-0.6,0.3-0.9,0.4c-0.3,0.1-0.6,0.1-0.9,0.1s-0.6-0.1-0.8-0.2
		c-0.2-0.1-0.4-0.2-0.5-0.4s-0.2-0.4-0.2-0.6c0-0.3,0.1-0.5,0.3-0.7c0.2-0.2,0.5-0.3,0.9-0.4c0.1,0,0.3-0.1,0.6-0.1
		c0.3-0.1,0.6-0.1,0.8-0.1c0.2,0,0.5-0.1,0.7-0.2c0-0.3-0.1-0.5-0.2-0.6s-0.3-0.2-0.7-0.2c-0.3,0-0.5,0-0.7,0.1s-0.3,0.2-0.4,0.3
		s-0.2,0.2-0.2,0.3c0,0-0.1,0.1-0.3,0.1c-0.1,0-0.3,0-0.4-0.1s-0.1-0.2-0.1-0.3c0-0.2,0.1-0.4,0.2-0.5c0.2-0.2,0.4-0.3,0.7-0.4
		c0.3-0.1,0.7-0.2,1.2-0.2s1,0.1,1.3,0.2c0.3,0.1,0.5,0.3,0.6,0.5s0.2,0.5,0.2,0.9c0,0.2,0,0.5,0,0.6c0,0.2,0,0.4,0,0.6
		c0,0.2,0,0.4,0.1,0.6c0.1,0.2,0.1,0.3,0.1,0.4c0,0.1-0.1,0.2-0.2,0.3s-0.2,0.1-0.4,0.1c-0.1,0-0.2-0.1-0.4-0.2
		C447.9,140.2,447.8,140,447.6,139.8z M447.6,138.3c-0.2,0.1-0.4,0.1-0.8,0.2c-0.3,0.1-0.6,0.1-0.7,0.1s-0.3,0.1-0.4,0.2
		c-0.1,0.1-0.2,0.2-0.2,0.4s0.1,0.3,0.2,0.4c0.1,0.1,0.3,0.2,0.6,0.2c0.2,0,0.5,0,0.7-0.1s0.4-0.2,0.4-0.3c0.1-0.2,0.2-0.4,0.2-0.8
		L447.6,138.3L447.6,138.3z"/>
	<path fill="#FF0600" stroke="#0D0D0C" stroke-width="0.25" stroke-miterlimit="10" d="M435.2,100.3c0,0-13,0-37.8-0.5
		C372.6,99.3,340.8,83,340.8,83l22.1,22.1c0,0,32.4,9.2,52.4,9.2c19.9,0,19.9,0,19.9,0s0,0,19.9,0s52.8-8.2,52.8-8.2l23.1-23
		c0,0-33.2,16.2-58,16.7S435.2,100.3,435.2,100.3z"/>
	<path fill="none" d="M317.4,92.4L317.4,92.4c32.6,11.4,71.8,17.2,116.5,17.3h0.8h0.3c0.1,0,0.2,0,0.3,0h0.7
		c44.6,0,83.8-5.9,116.5-17.3l0,0"/>
	<g opacity="0.99">

			<text transform="matrix(1.1363 0.1972 -0.171 0.9853 358.5443 103.1906)" fill="#CCCCCC" font-family="'LucidaSansUnicode'" font-size="9.3142px">Q</text>

			<text transform="matrix(1.1408 0.1695 -0.1469 0.9892 367.7312 104.7617)" fill="#CCCCCC" font-family="'LucidaSansUnicode'" font-size="9.3137px">o</text>

			<text transform="matrix(1.1445 0.1405 -0.1218 0.9926 375.2462 105.8857)" fill="#CCCCCC" font-family="'LucidaSansUnicode'" font-size="9.3146px">m</text>

			<text transform="matrix(1.1477 0.1129 -9.793454e-02 0.9952 386.186 107.1955)" fill="#CCCCCC" font-family="'LucidaSansUnicode'" font-size="9.3142px">b</text>

			<text transform="matrix(1.1495 9.242293e-02 -8.014198e-02 0.9968 393.9091 107.942)" fill="#CCCCCC" font-family="'LucidaSansUnicode'" font-size="9.3142px">a</text>

			<text transform="matrix(1.1507 7.718186e-02 -6.692611e-02 0.9978 400.821 108.4826)" fill="#CCCCCC" font-family="'LucidaSansUnicode'" font-size="9.3146px"> </text>

			<text transform="matrix(1.1517 6.211215e-02 -5.385881e-02 0.9985 405.1967 108.7785)" fill="#CCCCCC" font-family="'LucidaSansUnicode'" font-size="9.3137px">-</text>

			<text transform="matrix(1.1522 4.742713e-02 -4.112512e-02 0.9992 412.4249 109.1535)" fill="#CCCCCC" font-family="'LucidaSansUnicode'" font-size="9.3146px"> </text>

			<text transform="matrix(1.1529 3.078442e-02 -2.669387e-02 0.9996 416.8018 109.3438)" fill="#CCCCCC" font-family="'LucidaSansUnicode'" font-size="9.3138px">Q</text>

			<text transform="matrix(1.1531 1.118512e-02 -9.698865e-03 1 426.1398 109.5756)" fill="#CCCCCC" font-family="'LucidaSansUnicode'" font-size="9.3146px">o</text>

			<text transform="matrix(1.1532 -8.250588e-03 7.154268e-03 1 433.7474 109.6559)" fill="#CCCCCC" font-family="'LucidaSansUnicode'" font-size="9.3142px">m</text>

			<text transform="matrix(1.1529 -2.933238e-02 2.543475e-02 0.9997 444.7643 109.5562)" fill="#CCCCCC" font-family="'LucidaSansUnicode'" font-size="9.3142px">b</text>

			<text transform="matrix(1.1523 -4.720632e-02 4.093365e-02 0.9992 452.5386 109.3475)" fill="#CCCCCC" font-family="'LucidaSansUnicode'" font-size="9.3146px">a</text>

			<text transform="matrix(1.1516 -6.148535e-02 5.331531e-02 0.9986 459.4701 109.0499)" fill="#CCCCCC" font-family="'LucidaSansUnicode'" font-size="9.3142px"> </text>

			<text transform="matrix(1.1507 -7.653645e-02 6.636646e-02 0.9978 463.8503 108.8202)" fill="#CCCCCC" font-family="'LucidaSansUnicode'" font-size="9.3142px">-</text>

			<text transform="matrix(1.1496 -9.216890e-02 7.992169e-02 0.9968 471.0609 108.3234)" fill="#CCCCCC" font-family="'LucidaSansUnicode'" font-size="9.3142px"> </text>

			<text transform="matrix(1.1479 -0.1113 9.651723e-02 0.9953 475.4374 107.9845)" fill="#CCCCCC" font-family="'LucidaSansUnicode'" font-size="9.3139px">Q</text>

			<text transform="matrix(1.1452 -0.136 0.1179 0.993 484.7159 107.0669)" fill="#CCCCCC" font-family="'LucidaSansUnicode'" font-size="9.3142px">o</text>

			<text transform="matrix(1.1413 -0.1646 0.1428 0.9898 492.2613 106.1807)" fill="#CCCCCC" font-family="'LucidaSansUnicode'" font-size="9.3146px">m</text>

			<text transform="matrix(1.1366 -0.1953 0.1693 0.9856 503.1593 104.5748)" fill="#CCCCCC" font-family="'LucidaSansUnicode'" font-size="9.3145px">b</text>
	</g>
	<g>
		<g>
			<defs>
				<path id="SVGID_13_" d="M434.5,920.5c0,0-41.4,1.3-52.2-1.3s-59.8-1.3-101.3,2.7s-89-6.7-89-6.7s6.1-25.3,6.1-49.2
					c0-24,27.6-123.7,33.8-187.6s4.6-146.4,4.6-173c0-26.6-18.4-139.7-23-188.9s-32.2-113.1-36.8-142.4s3.1-53.2,3.1-53.2
					s41.4-22.6,61.4-27.9s61.4-30.6,61.4-30.6c3.1,27.9,36.8,63.9,66.8,79c30,15.1,49.8,32.8,49.8,32.8h15.3h15.3
					c0,0,19.9-17.7,49.8-32.8c30-15.1,63.7-51,66.8-79c0,0,41.4,25.3,61.4,30.6c19.9,5.3,61.4,27.9,61.4,27.9s7.7,24,3.1,53.2
					s-32.2,93.1-36.8,142.4s-23,162.3-23,188.9s-1.5,109.1,4.6,173s34.6,164.8,34.6,188.7c3.8,26.1,6,47,6,47s-48.2,11.8-89.7,7.8
					s-90.5-5.3-101.3-2.7C475.9,921.9,434.5,920.5,434.5,920.5z"/>
			</defs>
			<clipPath id="SVGID_14_">
				<use xlink:href="#SVGID_13_"  overflow="visible"/>
			</clipPath>
			<g clip-path="url(#SVGID_14_)">
				<path fill="#0B0828" d="M434.6,666.1c-85,0-108.2-13.6-134.5-24.5c-47.6-19.8-64.5-6.4-64.5-6.4v-2c0,0,16.9-13.3,64.5,6.4
					c26.3,10.9,49.5,24.5,134.5,24.5s108.2-13.6,134.5-24.5c47.6-19.8,64.5-6.4,64.5-6.4v2c0,0-16.9-13.3-64.5,6.4
					C542.8,652.5,519.6,666.1,434.6,666.1z"/>
				<path fill="#0B0828" d="M434.6,672.5c-86.1,0-109.5-13.7-136.2-24.8c-48.2-20-65.3-6.5-65.3-6.5V639c0,0,17.2-13.5,65.4,6.5
					c26.6,11.1,50.1,24.8,136.1,24.8s109.5-13.7,136.2-24.8c48.2-20,65.4-6.5,65.4-6.5v2.2c0,0-17.1-13.5-65.3,6.5
					C544.1,658.8,520.6,672.5,434.6,672.5z"/>
				<path fill="#0B0828" d="M434.6,679c-87.1,0-110.9-13.9-137.8-25.1c-48.8-20.3-66.1-6.6-66.1-6.6V645c0,0,17.4-13.7,66.2,6.6
					c27,11.2,50.6,25.1,137.7,25.1s110.8-13.9,137.8-25.1c48.8-20.3,66.2-6.6,66.2-6.6v2.4c0,0-17.4-13.7-66.1,6.6
					C545.4,665.1,521.7,679,434.6,679z"/>
				<path fill="#0B0828" d="M434.6,685.5c-88.2,0-112.2-14.1-139.5-25.4c-49.4-20.5-66.9-6.7-66.9-6.7v-2.5c0,0,17.7-13.8,67,6.7
					c27.3,11.3,51.2,25.4,139.4,25.4s112.1-14,139.4-25.4c49.4-20.5,67-6.8,67-6.8v2.5c0,0-17.6-13.8-66.9,6.7
					C546.8,671.4,522.7,685.5,434.6,685.5z"/>
				<path fill="#0B0828" d="M434.5,692c-89.2,0-113.5-14.2-141.2-25.7c-50-20.7-67.7-6.7-67.7-6.7V657c0,0,17.9-14,67.9,6.8
					c27.6,11.5,51.8,25.7,141,25.7s113.5-14.2,141.1-25.7c50-20.7,67.8-6.9,67.8-6.9v2.7c0,0-17.8-14-67.7,6.7
					C548.1,677.7,523.8,692,434.5,692z"/>
				<path fill="#0B0828" d="M434.5,698.5c-90.3,0-114.9-14.4-142.8-26c-50.5-21-68.5-6.8-68.5-6.8v-2.8c0,0,18.2-14.1,68.7,6.9
					c27.9,11.6,52.3,26,142.6,26s114.8-14.4,142.8-26c50.5-21,68.6-7,68.6-7v2.9c0,0-18-14.2-68.5,6.8
					C549.4,684,524.8,698.5,434.5,698.5z"/>
				<path fill="#0B0828" d="M434.5,704.9c-91.3,0-116.2-14.6-144.5-26.3c-51.1-21.2-69.3-6.9-69.3-6.9v-3c0,0,18.4-14.3,69.5,7
					c28.3,11.7,52.9,26.3,144.2,26.3s116.2-14.6,144.4-26.3c51.1-21.2,69.4-7.1,69.4-7.1v3.1c0,0-18.2-14.3-69.3,6.9
					C550.7,690.4,525.8,704.9,434.5,704.9z"/>
				<path fill="#0B0828" d="M434.5,711.4c-92.4,0-117.5-14.7-146.1-26.6c-51.7-21.5-70.1-7-70.1-7v-3.1c0,0,18.6-14.4,70.4,7.1
					c28.6,11.9,53.5,26.6,145.8,26.6s117.5-14.8,146.1-26.6c51.7-21.5,70.2-7.2,70.2-7.2v3.3c0,0-18.4-14.5-70.1,7
					C552.1,696.7,526.9,711.4,434.5,711.4z"/>
				<path fill="#0B0828" d="M434.5,717.9c-93.4,0-118.9-14.9-147.8-26.9c-52.3-21.7-70.9-7.1-70.9-7.1v-3.3c0,0,18.9-14.6,71.2,7.1
					c28.9,12,54,26.9,147.4,26.9s118.8-14.9,147.8-26.9c52.3-21.7,71-7.3,71-7.3v3.4c0,0-18.6-14.7-70.9,7.1
					C553.4,703,527.9,717.9,434.5,717.9z"/>
				<path fill="#0B0828" d="M434.5,724.4c-94.5,0-120.2-15.1-149.5-27.2c-52.9-22-71.7-7.1-71.7-7.1v-3.4c0,0,19.1-14.7,72,7.2
					c29.2,12.1,54.6,27.2,149.1,27.2s120.2-15.1,149.4-27.2c52.9-22,71.9-7.4,71.9-7.4v3.6c0,0-18.8-14.8-71.7,7.1
					C554.7,709.3,529,724.4,434.5,724.4z"/>
				<path fill="#0B0828" d="M434.5,730.9c-95.5,0-121.6-15.2-151.1-27.5c-53.5-22.2-72.5-7.2-72.5-7.2v-3.6c0,0,19.4-14.9,72.9,7.3
					c29.6,12.3,55.2,27.5,150.7,27.5s121.5-15.3,151.1-27.5c53.5-22.2,72.7-7.5,72.7-7.5v3.8c0,0-19-15-72.5,7.2
					C556,715.6,530,730.9,434.5,730.9z"/>
				<path fill="#0B0828" d="M434.5,737.3c-96.6,0-122.9-15.4-152.8-27.8c-54.1-22.5-73.3-7.3-73.3-7.3v-3.8c0,0,19.6-15,73.7,7.4
					c29.9,12.4,55.7,27.8,152.3,27.8s122.8-15.4,152.7-27.8c54.1-22.5,73.5-7.6,73.5-7.6v4c0,0-19.2-15.2-73.3,7.3
					C557.4,721.9,531,737.3,434.5,737.3z"/>
				<path fill="#0B0828" d="M434.5,743.8c-97.6,0-124.2-15.6-154.5-28.1c-54.7-22.7-74.1-7.4-74.1-7.4v-3.9c0,0,19.9-15.2,74.5,7.5
					c30.2,12.6,56.3,28.1,153.9,28.1s124.2-15.6,154.4-28.1c54.7-22.7,74.3-7.7,74.3-7.7v4.1c0,0-19.5-15.3-74.1,7.4
					C558.7,728.2,532.1,743.8,434.5,743.8z"/>
				<path fill="#0B0828" d="M434.5,750.3c-98.7,0-125.6-15.8-156.1-28.4c-55.3-22.9-74.9-7.5-74.9-7.5v-4.1c0,0,20.1-15.4,75.4,7.6
					c30.5,12.7,56.9,28.5,155.5,28.5s125.5-15.8,156-28.5c55.3-22.9,75.1-7.8,75.1-7.8v4.3c0,0-19.7-15.5-74.9,7.5
					C560,734.6,533.1,750.3,434.5,750.3z"/>
				<path fill="#0B0828" d="M434.4,756.8c-99.7,0-126.9-15.9-157.8-28.7c-55.8-23.2-75.7-7.5-75.7-7.5v-4.2c0,0,20.4-15.5,76.2,7.7
					c30.9,12.8,57.4,28.8,157.1,28.8S561.1,736.8,592,724c55.8-23.2,75.9-8,75.9-8v4.5c0,0-19.9-15.7-75.7,7.5
					C561.3,740.9,534.2,756.8,434.4,756.8z"/>
				<path fill="#0B0828" d="M434.4,763.3c-100.8,0-128.2-16.1-159.4-29c-56.4-23.4-76.5-7.6-76.5-7.6v-4.4c0,0,20.6-15.7,77,7.8
					c31.2,13,58,29.1,158.8,29.1s128.2-16.1,159.4-29.1c56.4-23.4,76.7-8.1,76.7-8.1v4.7c0,0-20.1-15.8-76.5,7.6
					C562.7,747.2,535.2,763.3,434.4,763.3z"/>
				<path fill="#0B0828" d="M434.4,769.7c-101.8,0-129.6-16.3-161.1-29.3c-57-23.7-77.3-7.7-77.3-7.7v-4.5c0,0,20.8-15.8,77.9,7.9
					c31.5,13.1,58.6,29.4,160.4,29.4s129.5-16.3,161-29.4c57-23.7,77.5-8.2,77.5-8.2v4.9c0,0-20.3-16-77.3,7.7
					C564,753.5,536.2,769.7,434.4,769.7z"/>
				<path fill="#0B0828" d="M434.4,776.2c-102.9,0-130.9-16.4-162.8-29.6c-57.6-23.9-78.1-7.8-78.1-7.8v-4.7c0,0,21.1-16,78.7,7.9
					c31.8,13.2,59.1,29.7,162,29.7S565,755.3,596.9,742c57.6-23.9,78.4-8.3,78.4-8.3v5c0,0-20.5-16.2-78.1,7.8
					C565.3,759.8,537.3,776.2,434.4,776.2z"/>
				<path fill="#0B0828" d="M434.4,782.7c-103.9,0-132.3-16.6-164.4-30c-58.2-24.2-78.9-7.9-78.9-7.9v-4.9c0,0,21.3-16.1,79.5,8
					c32.2,13.4,59.7,30,163.6,30s132.1-16.6,164.3-30c58.2-24.2,79.2-8.4,79.2-8.4v5.2c0,0-20.7-16.3-78.9,7.9
					C566.7,766.1,538.3,782.7,434.4,782.7z"/>
				<path fill="#0B0828" d="M434.4,789.2c-105,0-133.6-16.8-166.1-30.3c-58.8-24.4-79.7-7.9-79.7-7.9v-5c0,0,21.6-16.3,80.4,8.1
					c32.5,13.5,60.3,30.3,165.2,30.3s133.5-16.8,166-30.3c58.8-24.4,80-8.5,80-8.5v5.4c0,0-20.9-16.5-79.7,7.9
					C568,772.4,539.4,789.2,434.4,789.2z"/>
				<path fill="#0B0828" d="M434.4,795.7c-106,0-134.9-16.9-167.8-30.6c-59.4-24.7-80.5-8-80.5-8v-5.2c0,0,21.8-16.4,81.2,8.2
					c32.8,13.6,60.8,30.6,166.9,30.6s134.8-16.9,167.6-30.6c59.4-24.7,80.8-8.6,80.8-8.6v5.6c0,0-21.1-16.6-80.5,8
					C569.3,778.7,540.4,795.7,434.4,795.7z"/>
				<path fill="#0B0828" d="M434.4,802.2c-107.1,0-136.3-17.1-169.4-30.9c-60-24.9-81.3-8.1-81.3-8.1v-5.3c0,0,22.1-16.6,82,8.3
					c33.2,13.8,61.4,30.9,168.5,30.9s136.1-17.1,169.3-30.9c60-24.9,81.6-8.7,81.6-8.7v5.8c0,0-21.3-16.8-81.3,8.1
					C570.6,785.1,541.4,802.2,434.4,802.2z"/>
				<path fill="#0B0828" d="M434.4,808.6c-108.1,0-137.6-17.3-171.1-31.2c-60.5-25.1-82.1-8.2-82.1-8.2v-5.5c0,0,22.3-16.7,82.9,8.4
					c33.5,13.9,62,31.2,170.1,31.2s137.5-17.3,171-31.2c60.5-25.1,82.4-8.8,82.4-8.8v5.9c0,0-21.5-17-82.1,8.2
					C572,791.4,542.5,808.6,434.4,808.6z"/>
				<path fill="#0B0828" d="M434.4,815.1c-109.2,0-138.9-17.4-172.7-31.5c-61.1-25.4-82.9-8.3-82.9-8.3v-5.7c0,0,22.6-16.9,83.7,8.5
					c33.8,14,62.5,31.5,171.7,31.5s138.8-17.5,172.6-31.5c61.1-25.4,83.2-8.9,83.2-8.9v6.1c0,0-21.8-17.1-82.9,8.3
					C573.3,797.7,543.5,815.1,434.4,815.1z"/>
				<path fill="#0B0828" d="M434.3,821.6c-110.2,0-140.3-17.6-174.4-31.8c-61.7-25.6-83.7-8.3-83.7-8.3v-5.8c0,0,22.8-17.1,84.5,8.6
					c34.1,14.2,63.1,31.8,173.3,31.8s140.1-17.6,174.3-31.8c61.7-25.6,84.1-9,84.1-9v6.3c0,0-22-17.3-83.7,8.3
					C574.6,804,544.6,821.6,434.3,821.6z"/>
				<path fill="#0B0828" d="M434.3,828.1c-111.3,0-141.6-17.8-176.1-32.1c-62.3-25.9-84.5-8.4-84.5-8.4v-6c0,0,23-17.2,85.4,8.7
					c34.5,14.3,63.7,32.1,174.9,32.1s141.5-17.8,175.9-32.1c62.3-25.9,84.9-9.2,84.9-9.2v6.5c0,0-22.2-17.5-84.5,8.4
					C575.9,810.3,545.6,828.1,434.3,828.1z"/>
				<path fill="#0B0828" d="M434.3,834.6c-112.3,0-142.9-17.9-177.7-32.4c-62.9-26.1-85.3-8.5-85.3-8.5v-6.1c0,0,23.3-17.4,86.2,8.8
					c34.8,14.4,64.2,32.4,176.6,32.4s142.8-18,177.6-32.4c62.9-26.1,85.7-9.3,85.7-9.3v6.6c0,0-22.4-17.6-85.3,8.5
					C577.3,816.6,546.6,834.6,434.3,834.6z"/>
				<path fill="#0B0828" d="M434.3,841c-113.4,0-144.3-18.1-179.4-32.7c-63.5-26.4-86.1-8.6-86.1-8.6v-6.3c0,0,23.5-17.5,87,8.8
					c35.1,14.6,64.8,32.7,178.2,32.7s144.1-18.1,179.2-32.7c63.5-26.4,86.5-9.4,86.5-9.4v6.8c0,0-22.6-17.8-86.1,8.6
					C578.6,822.9,547.7,841,434.3,841z"/>
				<path fill="#0B0828" d="M434.3,847.5c-114.4,0-145.6-18.3-181.1-33c-64.1-26.6-86.9-8.6-86.9-8.6v-6.5c0,0,23.8-17.7,87.9,8.9
					c35.4,14.7,65.4,33,179.8,33s145.5-18.3,180.9-33c64.1-26.6,87.3-9.5,87.3-9.5v7c0,0-22.8-18-86.9,8.6
					C579.9,829.3,548.7,847.5,434.3,847.5z"/>
				<path fill="#0B0828" d="M434.3,854c-115.5,0-147-18.4-182.7-33.3c-64.7-26.9-87.7-8.7-87.7-8.7v-6.6c0,0,24-17.8,88.7,9
					c35.8,14.8,65.9,33.3,181.4,33.3s146.8-18.5,182.5-33.3c64.7-26.9,88.1-9.6,88.1-9.6v7.2c0,0-23-18.1-87.7,8.7
					C581.3,835.6,549.8,854,434.3,854z"/>
				<path fill="#0B0828" d="M434.3,860.5c-116.5,0-148.3-18.6-184.4-33.6c-65.3-27.1-88.5-8.8-88.5-8.8v-6.8c0,0,24.3-18,89.5,9.1
					c36.1,15,66.5,33.6,183,33.6s148.1-18.6,184.2-33.6c65.3-27.1,88.9-9.7,88.9-9.7v7.4c0,0-23.2-18.3-88.5,8.8
					C582.6,841.9,550.8,860.5,434.3,860.5z"/>
				<path fill="#0B0828" d="M434.3,867c-117.6,0-149.6-18.8-186-33.9c-65.8-27.3-89.3-8.9-89.3-8.9v-6.9c0,0,24.5-18.1,90.4,9.2
					c36.4,15.1,67.1,33.9,184.6,33.9s149.5-18.8,185.9-33.9c65.8-27.3,89.7-9.8,89.7-9.8v7.5c0,0-23.4-18.5-89.3,8.9
					C583.9,848.2,551.8,867,434.3,867z"/>
				<path fill="#0B0828" d="M434.3,873.4c-118.6,0-151-18.9-187.7-34.2c-66.4-27.6-90.1-9-90.1-9v-7.1c0,0,24.7-18.3,91.2,9.3
					c36.7,15.3,67.6,34.2,186.3,34.2s150.8-19,187.5-34.2c66.4-27.6,90.6-9.9,90.6-9.9v7.7c0,0-23.6-18.6-90.1,9
					C585.2,854.5,552.9,873.4,434.3,873.4z"/>
				<path fill="#0B0828" d="M434.3,879.9c-119.7,0-152.3-19.1-189.4-34.5c-67-27.8-90.9-9-90.9-9v-7.3c0,0,25-18.4,92,9.4
					c37.1,15.4,68.2,34.5,187.9,34.5s152.1-19.1,189.2-34.5c67-27.8,91.4-10,91.4-10v7.9c0,0-23.9-18.8-90.9,9
					C586.6,860.8,553.9,879.9,434.3,879.9z"/>
				<path fill="#0B0828" d="M434.2,886.4c-120.7,0-153.6-19.3-191-34.8c-67.6-28.1-91.7-9.1-91.7-9.1v-7.4c0,0,25.2-18.6,92.8,9.5
					c37.4,15.5,68.8,34.8,189.5,34.8s153.5-19.3,190.8-34.8c67.6-28.1,92.2-10.1,92.2-10.1v8.1c0,0-24.1-19-91.7,9.1
					C587.9,867.1,555,886.4,434.2,886.4z"/>
				<path fill="#0B0828" d="M434.2,892.9c-121.8,0-155-19.4-192.7-35.1c-68.2-28.3-92.5-9.2-92.5-9.2V841c0,0,25.5-18.8,93.7,9.6
					c37.7,15.7,69.3,35.1,191.1,35.1s154.8-19.5,192.5-35.1c68.2-28.3,93-10.3,93-10.3v8.3c0,0-24.3-19.1-92.5,9.2
					C589.2,873.4,556,892.9,434.2,892.9z"/>
				<path fill="#0B0828" d="M434.2,899.4c-122.8,0-156.3-19.6-194.4-35.4c-68.8-28.6-93.3-9.3-93.3-9.3V847c0,0,25.7-18.9,94.5,9.7
					c38,15.8,69.9,35.4,192.7,35.4s156.1-19.6,194.1-35.4c68.8-28.6,93.8-10.4,93.8-10.4v8.4c0,0-24.5-19.3-93.3,9.3
					C590.5,879.8,557,899.4,434.2,899.4z"/>
				<path fill="#0B0828" d="M434.2,905.9c-123.9,0-157.7-19.8-196-35.7c-69.4-28.8-94.1-9.4-94.1-9.4v-7.9c0,0,26-19.1,95.3,9.7
					c38.4,15.9,70.5,35.7,194.4,35.7s157.4-19.8,195.8-35.7c69.4-28.8,94.6-10.5,94.6-10.5v8.6c0,0-24.7-19.4-94.1,9.4
					C591.9,886.1,558.1,905.9,434.2,905.9z"/>
				<path fill="#0B0828" d="M434.2,912.3c-124.9,0-159-19.9-197.7-36c-70-29.1-94.9-9.4-94.9-9.4v-8c0,0,26.2-19.2,96.2,9.8
					c38.7,16.1,71,36,196,36s158.8-20,197.5-36c70-29.1,95.4-10.6,95.4-10.6v8.8c0,0-24.9-19.6-94.9,9.4
					C593.2,892.4,559.1,912.3,434.2,912.3z"/>
				<path fill="#0B0828" d="M434.2,918.8c-126,0-160.3-20.1-199.3-36.3c-70.6-29.3-95.7-9.5-95.7-9.5v-8.2c0,0,26.5-19.4,97,9.9
					c39,16.2,71.6,36.4,197.6,36.4s160.1-20.2,199.1-36.4c70.6-29.3,96.2-10.7,96.2-10.7v9c0,0-25.1-19.8-95.7,9.5
					C594.5,898.7,560.2,918.8,434.2,918.8z"/>
				<path fill="#0B0828" d="M434.2,925.3c-127,0-161.7-20.3-201-36.6c-71.1-29.5-96.5-9.6-96.5-9.6v-8.4c0,0,26.7-19.5,97.8,10
					c39.3,16.3,72.2,36.7,199.2,36.7s161.4-20.3,200.8-36.7c71.1-29.5,97.1-10.8,97.1-10.8v9.1c0,0-25.3-19.9-96.5,9.6
					C595.9,905,561.2,925.3,434.2,925.3z"/>
				<path fill="#0B0828" d="M434.2,931.8c-128.1,0-163-20.4-202.7-36.9c-71.7-29.8-97.3-9.7-97.3-9.7v-8.5c0,0,26.9-19.7,98.7,10.1
					c39.7,16.5,72.7,37,200.8,37s162.8-20.5,202.4-37c71.7-29.8,97.9-10.9,97.9-10.9v9.3c0,0-25.5-20.1-97.3,9.7
					C597.2,911.3,562.2,931.8,434.2,931.8z"/>
				<path fill="#0B0828" d="M434.2,938.3c-129.1,0-164.3-20.6-204.3-37.2c-72.3-30-98.1-9.8-98.1-9.8v-8.7c0,0,27.2-19.8,99.5,10.2
					c40,16.6,73.3,37.3,202.4,37.3s164.1-20.7,204.1-37.3c72.3-30,98.7-11,98.7-11v9.5c0,0-25.7-20.3-98.1,9.8
					C598.5,917.6,563.3,938.3,434.2,938.3z"/>
				<path fill="#0B0828" d="M434.2,944.7c-130.2,0-165.7-20.8-206-37.5c-72.9-30.3-98.9-9.8-98.9-9.8v-8.8c0,0,27.4-20,100.3,10.3
					c40.3,16.7,73.9,37.6,204.1,37.6s165.4-20.8,205.7-37.6c72.9-30.3,99.5-11.1,99.5-11.1v9.7c0,0-25.9-20.4-98.9,9.8
					C599.8,924,564.3,944.7,434.2,944.7z"/>
				<path fill="#0B0828" d="M434.1,951.2c-131.2,0-167-21-207.7-37.8c-73.5-30.5-99.6-9.9-99.6-9.9v-9c0,0,27.7-20.2,101.2,10.4
					c40.6,16.9,74.4,37.9,205.7,37.9s166.8-21,207.4-37.9c73.5-30.5,100.3-11.2,100.3-11.2v9.9c0,0-26.2-20.6-99.6,9.9
					C601.2,930.3,565.4,951.2,434.1,951.2z"/>
				<path fill="#0B0828" d="M434.1,957.7c-132.3,0-168.4-21.1-209.3-38.1c-74.1-30.8-100.4-10-100.4-10v-9.2c0,0,27.9-20.3,102,10.5
					c41,17,75,38.2,207.3,38.2s168.1-21.2,209.1-38.2c74.1-30.8,101.1-11.3,101.1-11.3v10c0,0-26.4-20.8-100.4,10
					C602.5,936.6,566.4,957.7,434.1,957.7z"/>
				<path fill="#0B0828" d="M434.1,964.2c-133.3,0-169.7-21.3-211-38.4c-74.7-31-101.2-10.1-101.2-10.1v-9.3
					c0,0,28.2-20.5,102.8,10.6c41.3,17.1,75.6,38.5,208.9,38.5S603,934.2,644.3,917c74.7-31,101.9-11.5,101.9-11.5v10.2
					c0,0-26.6-20.9-101.2,10.1C603.8,942.9,567.5,964.2,434.1,964.2z"/>
				<path fill="#0B0828" d="M434.1,970.7c-134.4,0-171-21.5-212.6-38.7c-75.3-31.3-102-10.2-102-10.2v-9.5c0,0,28.4-20.6,103.7,10.6
					c41.6,17.3,76.1,38.8,210.5,38.8s170.8-21.5,212.4-38.8c75.3-31.3,102.7-11.6,102.7-11.6v10.4c0,0-26.8-21.1-102,10.2
					C605.1,949.2,568.5,970.7,434.1,970.7z"/>
				<path fill="#0B0828" d="M434.1,977.1c-135.4,0-172.4-21.6-214.3-39C143.9,906.6,117,927.9,117,927.9v-9.6
					c0,0,28.7-20.8,104.5,10.7c41.9,17.4,76.7,39.1,212.1,39.1s172.1-21.7,214-39.1c75.8-31.5,103.6-11.7,103.6-11.7v10.6
					c0,0-27-21.3-102.8,10.2C606.5,955.5,569.5,977.1,434.1,977.1z"/>
				<path fill="#0B0828" d="M434.1,983.6c-136.5,0-173.7-21.8-216-39.3C141.7,912.5,114.5,934,114.5,934v-9.8
					c0,0,28.9-20.9,105.3,10.8c42.3,17.6,77.3,39.4,213.8,39.4S607,952.6,649.3,935c76.4-31.7,104.4-11.8,104.4-11.8V934
					c0,0-27.2-21.4-103.6,10.3C607.8,961.8,570.6,983.6,434.1,983.6z"/>
				<path fill="#0B0828" d="M434.1,990.1c-137.5,0-175-22-217.6-39.6c-77-32-104.4-10.4-104.4-10.4v-10c0,0,29.1-21.1,106.2,10.9
					c42.6,17.7,77.8,39.7,215.4,39.7s174.8-22,217.3-39.7c77-32,105.2-11.9,105.2-11.9V940c0,0-27.4-21.6-104.4,10.4
					C609.1,968.1,571.6,990.1,434.1,990.1z"/>
				<path fill="#0B0828" d="M434.1,996.6c-138.6,0-176.4-22.1-219.3-39.9c-77.6-32.2-105.2-10.5-105.2-10.5v-10.1
					c0,0,29.4-21.2,107,11c42.9,17.8,78.4,40,217,40s176.1-22.2,219-40c77.6-32.2,106-12,106-12v11.1c0,0-27.6-21.8-105.2,10.5
					C610.4,974.5,572.7,996.6,434.1,996.6z"/>
			</g>
		</g>
	</g>
</g>
<g id="Número_delantero" visibility="hidden">
	<text transform="matrix(1.0493 0 0 1 551.999 330.0137)" fill="#AA1A1A" font-family="'SablonUp-College'" font-size="90px">10</text>
</g>
<g id="Remera_escudo" visibility="hidden">

		<image overflow="visible" enable-background="new    " width="200" height="200" xlink:href="../../../../../Downloads/escudo-01.png"  transform="matrix(0.5725 0 0 0.5456 222.4936 247.0539)">
	</image>
</g>
</svg>
