<?xml version="1.0" encoding="utf-8"?>
<!-- Generator: Adobe Illustrator 24.1.0, SVG Export Plug-In . SVG Version: 6.00 Build 0)  -->
<svg version="1.1" id="Capa_1" xmlns="http://www.w3.org/2000/svg" xmlns:xlink="http://www.w3.org/1999/xlink" x="0px" y="0px"
	 viewBox="0 0 850.4 963.8" style="enable-background:new 0 0 850.4 963.8;" xml:space="preserve">
<style type="text/css">
	.st0{fill:#0E0E0D;}
	.st1{fill:#E2E5E5;stroke:#AFB1B2;stroke-miterlimit:10;}
	.st2{clip-path:url(#SVGID_2_);}
	.st3{fill:#A5A2A2;}
	.st4{clip-path:url(#SVGID_4_);}
	.st5{fill:#6D6D6D;}
	.st6{clip-path:url(#SVGID_6_);}
	.st7{fill:#FF0600;stroke:#0D0D0C;stroke-width:0.75;stroke-miterlimit:10;}
	.st8{opacity:0.42;fill:url(#SVGID_7_);}
	.st9{opacity:0.42;fill:url(#SVGID_8_);}
	.st10{fill:url(#SVGID_9_);}
	.st11{fill:url(#SVGID_10_);}
	.st12{opacity:0.13;}
	.st13{filter:url(#Adobe_OpacityMaskFilter);}
	.st14{mask:url(#SVGID_11_);}
	.st15{fill:url(#SVGID_12_);}
	.st16{filter:url(#Adobe_OpacityMaskFilter_1_);}
	.st17{mask:url(#SVGID_13_);}
	.st18{fill:url(#SVGID_14_);}
	.st19{filter:url(#Adobe_OpacityMaskFilter_2_);}
	.st20{mask:url(#SVGID_15_);}
	.st21{fill:url(#SVGID_16_);}
	.st22{opacity:0.54;}
	.st23{filter:url(#Adobe_OpacityMaskFilter_3_);}
	.st24{mask:url(#SVGID_17_);}
	.st25{filter:url(#Adobe_OpacityMaskFilter_4_);}
	.st26{fill:url(#SVGID_18_);}
	.st27{filter:url(#Adobe_OpacityMaskFilter_5_);}
	.st28{mask:url(#SVGID_19_);}
	.st29{filter:url(#Adobe_OpacityMaskFilter_6_);}
	.st30{fill:url(#SVGID_20_);}
	.st31{opacity:0.33;}
	.st32{filter:url(#Adobe_OpacityMaskFilter_7_);}
	.st33{mask:url(#SVGID_21_);}
	.st34{filter:url(#Adobe_OpacityMaskFilter_8_);}
	.st35{fill:url(#SVGID_22_);}
	.st36{filter:url(#Adobe_OpacityMaskFilter_9_);}
	.st37{mask:url(#SVGID_23_);}
	.st38{fill:url(#SVGID_24_);}
	.st39{opacity:0.93;}
	.st40{filter:url(#Adobe_OpacityMaskFilter_10_);}
	.st41{mask:url(#SVGID_25_);}
	.st42{fill:url(#SVGID_26_);}
	.st43{opacity:0.83;}
	.st44{filter:url(#Adobe_OpacityMaskFilter_11_);}
	.st45{mask:url(#SVGID_27_);}
	.st46{fill:url(#SVGID_28_);}
	.st47{filter:url(#Adobe_OpacityMaskFilter_12_);}
	.st48{mask:url(#SVGID_29_);}
	.st49{fill:url(#SVGID_30_);}
	.st50{filter:url(#Adobe_OpacityMaskFilter_13_);}
	.st51{mask:url(#SVGID_31_);}
	.st52{fill:url(#SVGID_32_);}
	.st53{opacity:0.29;}
	.st54{fill:url(#SVGID_33_);}
	.st55{fill:url(#SVGID_34_);}
	.st56{filter:url(#Adobe_OpacityMaskFilter_14_);}
	.st57{mask:url(#SVGID_35_);}
	.st58{filter:url(#Adobe_OpacityMaskFilter_15_);}
	.st59{fill:url(#SVGID_36_);}
	.st60{fill:url(#SVGID_37_);}
	.st61{opacity:0.36;fill:url(#SVGID_38_);}
	.st62{fill:none;}
	.st63{fill:#1A1A1A;}
	.st64{fill:#FFFFFF;}
	.st65{opacity:0.1;}
	.st66{fill:none;stroke:#FFFFFF;stroke-linecap:round;stroke-miterlimit:10;}
	.st67{fill:none;stroke:#FFFFFF;stroke-width:0.979;stroke-linecap:round;stroke-miterlimit:10;}
	.st68{fill:none;stroke:#FFFFFF;stroke-width:0.958;stroke-linecap:round;stroke-miterlimit:10;}
	.st69{fill:none;stroke:#FFFFFF;stroke-width:0.937;stroke-linecap:round;stroke-miterlimit:10;}
	.st70{fill:none;stroke:#FFFFFF;stroke-width:0.916;stroke-linecap:round;stroke-miterlimit:10;}
	.st71{fill:none;stroke:#FFFFFF;stroke-width:0.895;stroke-linecap:round;stroke-miterlimit:10;}
	.st72{fill:none;stroke:#FFFFFF;stroke-width:0.874;stroke-linecap:round;stroke-miterlimit:10;}
	.st73{fill:none;stroke:#FFFFFF;stroke-width:0.853;stroke-linecap:round;stroke-miterlimit:10;}
	.st74{fill:none;stroke:#FFFFFF;stroke-width:0.832;stroke-linecap:round;stroke-miterlimit:10;}
	.st75{fill:none;stroke:#FFFFFF;stroke-width:0.811;stroke-linecap:round;stroke-miterlimit:10;}
	.st76{fill:none;stroke:#FFFFFF;stroke-width:0.79;stroke-linecap:round;stroke-miterlimit:10;}
	.st77{fill:none;stroke:#FFFFFF;stroke-width:0.769;stroke-linecap:round;stroke-miterlimit:10;}
	.st78{fill:none;stroke:#FFFFFF;stroke-width:0.748;stroke-linecap:round;stroke-miterlimit:10;}
	.st79{fill:none;stroke:#FFFFFF;stroke-width:0.727;stroke-linecap:round;stroke-miterlimit:10;}
	.st80{fill:none;stroke:#FFFFFF;stroke-width:0.706;stroke-linecap:round;stroke-miterlimit:10;}
	.st81{fill:none;stroke:#FFFFFF;stroke-width:0.685;stroke-linecap:round;stroke-miterlimit:10;}
	.st82{fill:none;stroke:#FFFFFF;stroke-width:0.664;stroke-linecap:round;stroke-miterlimit:10;}
	.st83{fill:none;stroke:#FFFFFF;stroke-width:0.643;stroke-linecap:round;stroke-miterlimit:10;}
	.st84{fill:none;stroke:#FFFFFF;stroke-width:0.622;stroke-linecap:round;stroke-miterlimit:10;}
	.st85{fill:none;stroke:#FFFFFF;stroke-width:0.6009;stroke-linecap:round;stroke-miterlimit:10;}
	.st86{fill:none;stroke:#FFFFFF;stroke-width:0.5799;stroke-linecap:round;stroke-miterlimit:10;}
	.st87{fill:none;stroke:#FFFFFF;stroke-width:0.5589;stroke-linecap:round;stroke-miterlimit:10;}
	.st88{opacity:0.5;}
	.st89{fill:none;stroke:#070606;stroke-width:0.5;stroke-linecap:round;stroke-miterlimit:10;}
	.st90{fill:none;stroke:#070606;stroke-width:0.5;stroke-linecap:round;stroke-miterlimit:10;stroke-dasharray:2.6356,2.6356;}
	.st91{fill:none;stroke:#070606;stroke-width:0.5;stroke-linejoin:round;stroke-miterlimit:10;}
	.st92{fill:none;stroke:#070606;stroke-width:0.5;stroke-linecap:round;stroke-miterlimit:10;stroke-dasharray:2.4725,2.4725;}
	.st93{fill:none;stroke:#070606;stroke-width:0.5;stroke-linecap:round;stroke-miterlimit:10;stroke-dasharray:2.4723,2.4723;}
	.st94{fill:none;stroke:#070606;stroke-width:0.5;stroke-linecap:round;stroke-miterlimit:10;stroke-dasharray:2.5011,2.5011;}
	.st95{fill:none;stroke:#070606;stroke-width:0.5;stroke-linecap:round;stroke-miterlimit:10;stroke-dasharray:2.501,2.501;}
	.st96{fill:none;stroke:#070606;stroke-width:0.5;stroke-linecap:round;stroke-miterlimit:10;stroke-dasharray:2.4908,2.4908;}
	.st97{fill:none;stroke:#070606;stroke-width:0.5;stroke-linecap:round;stroke-miterlimit:10;stroke-dasharray:2.4844,2.4844;}
	.st98{fill:none;stroke:#070606;stroke-width:0.5;stroke-linecap:round;stroke-miterlimit:10;stroke-dasharray:2.5262,2.5262;}
	.st99{fill:none;stroke:#070606;stroke-width:0.5;stroke-linecap:round;stroke-miterlimit:10;stroke-dasharray:2.5171,2.5171;}
	.st100{fill:none;stroke:#070606;stroke-width:0.5;stroke-linecap:round;stroke-miterlimit:10;stroke-dasharray:2.5258,2.5258;}
	.st101{fill:none;stroke:#070606;stroke-width:0.5;stroke-linecap:round;stroke-miterlimit:10;stroke-dasharray:2.4845,2.4845;}
</style>
<g id="Remera_cuello_y_puños">
</g>
<g id="Remera_principal">
</g>
<g id="Mangas">
</g>
<g id="Estampa">
</g>
<g id="Banda_Central">
</g>
<path class="st0" d="M652,863.1l-13.9-33c0,0-133.3,35.5-438.9,0l-11.1,33C188.1,863.1,424.2,896.2,652,863.1z"/>
<path class="st1" d="M179.6,408.9c0,0-3.4,3.8-5.1,5.3c-2.7,2.5-5.7,9.8-8.3,15.5c-0.4,0.8-0.7,2.7-3.4,2.7
	c-36.7-0.8-100-19.8-121.6-30.8c-0.6-0.3-10-4.3-11.2-6.1c-0.8-1.1-0.5-2.3,0-3.5c3.3-8.1,5.5-13.4,5.2-16.8
	c-0.3-3.2-1.8-7.1-1.8-7.2c1.3,1,2.9,2,4.7,2.9c0.4,0.2,0.8,0.4,1.2,0.6c0.3,0.1,0.6,0.3,0.9,0.4c10.5,5.9,34.2,15.4,63.7,23.4
	c1,0.3,2.1,0.6,3.1,0.8C130.6,402.5,156.6,407.6,179.6,408.9z"/>
<path class="st1" d="M672,407.7c0,0,3.4,3.8,5.1,5.3c2.7,2.5,5.7,9.8,8.3,15.5c0.4,0.8,0.7,2.7,3.4,2.7
	c36.7-0.8,100-19.8,121.6-30.8c0.6-0.3,10-4.3,11.2-6.1c0.8-1.1,0.5-2.3,0-3.5c-3.3-8.1-5.5-13.4-5.2-16.8c0.3-3.2,1.8-7.1,1.8-7.2
	c-1.3,1-2.9,2-4.7,2.9c-0.4,0.2-0.8,0.4-1.2,0.6c-0.3,0.1-0.6,0.3-0.9,0.4c-10.5,5.9-34.2,15.4-63.7,23.4c-1,0.3-2.1,0.6-3.1,0.8
	C721,401.3,695,406.4,672,407.7z"/>
<path class="st1" d="M306.2,18.2c-1.2-0.8-2.3-1-2.9-0.5c-0.1,0.1-0.1,0.2-0.2,0.3c-0.1,0.1-0.1,0.2-0.2,0.3
	c-0.1,0.2-0.1,0.4-0.2,0.7c-0.1,0.9,0,2.3,0.4,4.3c0.1,0.5,0.2,1,0.4,1.5c0.2,0.9,0.5,1.9,0.9,3c0.1,0.2,0.1,0.4,0.2,0.7
	c0.2,0.7,0.5,1.4,0.8,2.2c0.2,0.5,0.4,1,0.6,1.6c0.2,0.5,0.4,1.1,0.6,1.7c0.8,2,1.7,4.3,2.8,6.8c0.5,1.1,1,2.3,1.5,3.4
	c0.2,0.3,0.3,0.7,0.5,1c1,1.9,2.2,4.3,3.7,6.9c0.5,0.2,1,0.4,1.5,0.7c0.5,0.2,0.9,0.4,1.4,0.6c0.3,0.1,0.5,0.2,0.8,0.3
	c0.5,0.2,1,0.4,1.4,0.6c0.3,0.1,0.6,0.2,0.8,0.3c0.5,0.2,0.9,0.4,1.4,0.5c0.3,0.1,0.7,0.3,1,0.4c22.3,8.6,55.1,16.3,100.8,16.3h1.6
	c45.7,0,78.5-7.8,100.8-16.3c0.3-0.1,0.7-0.3,1-0.4c0.5-0.2,0.9-0.4,1.4-0.5c0.3-0.1,0.6-0.2,0.8-0.3c0.5-0.2,1-0.4,1.4-0.6
	c0.3-0.1,0.5-0.2,0.8-0.3c0.5-0.2,0.9-0.4,1.4-0.6c0.5-0.2,1-0.4,1.5-0.6c1.5-2.6,2.7-5,3.7-6.9c0.2-0.3,0.3-0.7,0.5-1
	c0.7-1.6,1.2-2.7,1.4-3.2c0-0.1,0.1-0.1,0.1-0.2c1.1-2.5,2-4.7,2.8-6.8c0.2-0.6,0.4-1.1,0.6-1.7c0.2-0.5,0.4-1.1,0.6-1.6
	c0.3-0.8,0.5-1.5,0.8-2.2c0.1-0.2,0.2-0.4,0.2-0.7c0.4-1.1,0.7-2.1,0.9-3c0.1-0.5,0.3-1,0.4-1.5c0.4-1.9,0.5-3.3,0.4-4.3
	c0-0.3-0.1-0.5-0.2-0.7c0-0.1-0.1-0.2-0.2-0.3c-0.1-0.1-0.1-0.2-0.2-0.3c-0.6-0.6-1.7-0.3-2.9,0.5c-0.1,0.1-0.2,0.1-0.3,0.2v0h0l0,0
	c-12.8,9.4-48.6,28.5-117.9,28.5h-1.5c-69.3-0.1-105.1-19.1-117.9-28.5c0,0,0,0,0,0v0C306.4,18.3,306.3,18.3,306.2,18.2z"/>
<path class="st1" d="M425.1,133.7h-44.2c0,0-9.6-8.3-28-15.8c-25.9-10.4-48.8-30.9-58.6-46c-2.1-3.5-4-6.9-5.6-10.1
	c-6.7-13.4-9.6-24.6-10.8-29.8c0.2-0.1,0.3-0.2,0.5-0.4c0.2-0.1,0.4-0.3,0.6-0.4c4.6-3.5,11.2-8.4,14.3-11.3
	c2.1-1.9,3.8-3.6,4.9-4.7c0.8-0.8,1.8-1.3,2.9-1.3c1,0,1.8,0.4,2.4,0.8c0.6,0.4,1.1,0.9,1.6,1.3c0.5,0.4,0.9,0.7,1.5,1.2
	c-0.1-0.1-0.2-0.1-0.3-0.2c-1.2-0.8-2.3-1-2.9-0.5c-0.1,0.1-0.1,0.2-0.2,0.3c-0.1,0.1-0.1,0.2-0.2,0.3c-0.1,0.2-0.1,0.4-0.2,0.7
	c-0.1,0.9,0,2.3,0.4,4.3c0.1,0.5,0.2,1,0.4,1.5c0.2,0.9,0.5,1.9,0.9,3c0.1,0.2,0.1,0.4,0.2,0.7c0.2,0.7,0.5,1.4,0.8,2.2
	c0.2,0.5,0.4,1,0.6,1.6c0.2,0.5,0.4,1.1,0.6,1.7c0.8,2,1.7,4.3,2.8,6.8c0.5,1.1,1,2.3,1.5,3.4c0.1,0.2,0.2,0.5,0.3,0.7
	c0.1,0.1,0.1,0.2,0.2,0.3c1,1.9,2.2,4.3,3.7,6.9c2.8,4.9,6.8,10.9,12.1,17.1c10.1,11.9,25.1,24.9,46.9,34.1
	C427.2,124.2,425.1,133.7,425.1,133.7z"/>
<path class="st1" d="M572.5,32c-1.2,5.2-4.1,16.4-10.8,29.8c-1.6,3.3-3.5,6.7-5.6,10.1c-9.8,15.1-32.7,35.5-58.6,46
	c-18.5,7.5-28,15.8-28,15.8h-44.2c0,0-2.2-9.5,50.8-31.8C498,92.7,513,79.7,523,67.9c5.3-6.2,9.2-12.2,12.1-17.1
	c1.5-2.6,2.7-5,3.7-6.9c0.1-0.1,0.1-0.2,0.2-0.3c0.1-0.2,0.2-0.5,0.3-0.7c0.7-1.6,1.2-2.7,1.4-3.2c0-0.1,0.1-0.1,0.1-0.2
	c1.1-2.5,2-4.7,2.8-6.8c0.2-0.6,0.4-1.1,0.6-1.7c0.2-0.5,0.4-1.1,0.6-1.6c0.3-0.8,0.5-1.5,0.8-2.2c0.1-0.2,0.2-0.4,0.2-0.7
	c0.4-1.1,0.7-2.1,0.9-3c0.2-0.5,0.3-1,0.4-1.5c0.4-1.9,0.5-3.3,0.4-4.3c0-0.3-0.1-0.5-0.2-0.7c0-0.1-0.1-0.2-0.2-0.3
	c-0.1-0.1-0.1-0.2-0.2-0.3c-0.6-0.6-1.7-0.3-2.9,0.5c-0.1,0.1-0.2,0.1-0.3,0.2c0.6-0.4,1-0.8,1.5-1.2c0.5-0.4,1.1-0.9,1.6-1.3
	c0.6-0.4,1.5-0.8,2.4-0.8c1.1,0,2.1,0.5,2.9,1.3c1,1.1,2.7,2.8,4.9,4.7c3.2,2.9,9.8,7.8,14.3,11.3c0.2,0.1,0.4,0.3,0.6,0.4
	C572.2,31.8,572.4,31.9,572.5,32z"/>
<path class="st1" d="M679.8,904.3c-1.1-6.1-1.8-12.4-2.3-18.6c-6.6-72.1-17.8-173.8-19.5-197.6c-1.8-23.8-5.3-51.3-4.7-80.8
	c0.7-20.1-0.6-37.2-0.2-57.1c-2.7-30.2,1.3-91.2,1.3-91.2c0-17.7-1-34,2.2-48.9c0,0,0,0,0-0.1c0.9-8.4,1.9-16.7,3-24.7v0
	c9-128.1,42.6-205.9,60.8-243.5c-19.4-14.7-51.6-25.5-60.1-28.9c-1.4-0.6-2.7-1-3.8-1.5c-50.2-20.2-79-38.4-94.7-49.5
	c0.3-0.5,0.5-1,0.7-1.5c-1.8,3.7-3.9,7.6-6.4,11.7c-9.8,15.1-32.7,35.5-58.6,46c-18.5,7.5-28,15.8-28,15.8h-44.2c0,0-0.1,0-0.1,0v0
	c0,0,0,0,0,0c0,0,0,0,0,0v0c0,0-0.1,0-0.1,0h-44.2c0,0-9.6-8.3-28-15.8c-25.9-10.4-48.8-30.9-58.6-46c-2.5-4-4.6-7.9-6.4-11.7
	c0.2,0.5,0.5,1,0.7,1.5c-15.7,11.1-44.5,29.3-94.7,49.5c-1.1,0.4-2.4,0.9-3.8,1.5c-8.5,3.4-40.6,14.2-60.1,28.9
	c18.1,37.6,51.8,115.4,60.8,243.5v0c1.1,8,2.1,16.3,3,24.7c0,0,0,0,0,0.1c3.2,14.9,2.2,31.2,2.2,48.9c0,0,4,61,1.3,91.2
	c0.3,19.9-0.9,37-0.2,57.1c0.5,29.4-3,57-4.7,80.8c-1.8,23.8-12.9,125.4-19.5,197.6c-0.6,6.3-1.3,12.5-2.3,18.6
	c-1.2,7.2-6,27.5-2.1,31.4c2.2,2.2,6.9,3.8,13,5.1c4.2,0.9,8.9,1.6,13.9,2.1c5,0.5,10.1,0.9,14.9,1.3c22,2.3,55.6-5,98-2.8
	c33.9,1.8,73.4,4.3,116.9,5.9h0h0h0c43.5-1.5,83-4.1,116.9-5.9c42.4-2.2,76.1,5.1,98,2.8c4.9-0.3,10-0.7,14.9-1.3
	c5-0.6,9.7-1.3,13.9-2.1c6-1.3,10.8-2.9,13-5.1C685.8,931.8,681,911.4,679.8,904.3z"/>
<path class="st1" d="M288.5,63c-15.7,11.1-44.5,29.3-94.7,49.5c-1.1,0.4-2.4,0.9-3.8,1.5c-8.5,3.4-40.6,14.2-60.1,28.9
	c-1-2.1-2-4.1-2.9-5.9c0-0.1-0.1-0.2-0.1-0.2c-0.6-1.1-1.1-2.2-1.6-3.2c-4.1-8.2-2.5-18.4,4.4-24.7c19.7-11.3,41.2-19.4,51.1-23.4
	c59.8-24,86-44.3,97.4-52.7c-0.2,0.1-0.3,0.3-0.5,0.4C279,38.4,281.8,49.6,288.5,63z"/>
<path class="st1" d="M561.8,63c15.7,11.1,44.5,29.3,94.7,49.5c1.1,0.4,2.4,0.9,3.8,1.5c8.5,3.4,40.6,14.2,60.1,28.9
	c1-2.1,2-4.1,2.9-5.9c0-0.1,0.1-0.2,0.1-0.2c0.6-1.1,1.1-2.2,1.6-3.2c4.1-8.2,2.5-18.4-4.4-24.7c-19.7-11.3-41.2-19.4-51.1-23.4
	c-59.8-24-86-44.3-97.4-52.7c0.2,0.1,0.3,0.3,0.5,0.4C571.4,38.4,568.5,49.6,561.8,63z"/>
<path class="st1" d="M114.5,118.6c4.8-3.4,10-6.7,15.3-9.7c-6.8,6.2-8.5,16.3-4.4,24.4c0.5,1,1,2,1.6,3.1c0,0.1,0.1,0.2,0.1,0.2
	c17.2,34.6,54.2,112.9,63.6,246.5v0c-2.8,6.1-5,9.9-8,17.1c-0.7,1.7-0.6,6.7-3.1,8.7c-51.2-2.9-117-24.5-139.4-36.9
	c-0.7-0.4-1.4-0.7-2-1c-1.8-0.9-3.4-1.9-4.7-2.9c-0.8-3.8,2.6-4.9,3.4-7.3c11.6-36.3,23.9-64.2,28.3-98.4
	c11.1-86.5,16.8-112.1,38.8-134.3C106.5,125.4,111.6,120.6,114.5,118.6z"/>
<path class="st1" d="M735.8,118.6c-4.8-3.4-10-6.7-15.3-9.7c6.8,6.2,8.5,16.3,4.4,24.4c-0.5,1-1,2-1.6,3.1c0,0.1-0.1,0.2-0.1,0.2
	c-17.2,34.6-54.2,112.9-63.6,246.5v0c2.8,6.1,5,9.9,8,17.1c0.7,1.7,0.6,6.7,3.1,8.7c51.2-2.9,117-24.5,139.4-36.9
	c0.7-0.4,1.4-0.7,2-1c1.8-0.9,3.4-1.9,4.7-2.9c0.8-3.8-2.6-4.9-3.4-7.3c-11.6-36.3-23.9-64.2-28.3-98.4
	c-11.1-86.5-16.8-112.1-38.8-134.3C743.8,125.4,738.7,120.6,735.8,118.6z"/>
<g>
	<defs>
		<polygon id="SVGID_1_" points="661,368.8 565,461.8 466.9,372.5 230.9,371.9 182,319.9 193.5,373.8 230.9,373.3 258.8,401.8 
			447,401.3 542,483.8 565,461.8 587,483.8 654,421.8 		"/>
	</defs>
	<clipPath id="SVGID_2_">
		<use xlink:href="#SVGID_1_"  style="overflow:visible;"/>
	</clipPath>
	<g class="st2">
		
			<rect x="416.8" y="25.1" transform="matrix(2.221743e-03 -1 1 2.221743e-03 123.1594 711.1261)" class="st3" width="2.3" height="537.5"/>
		
			<rect x="416.7" y="32" transform="matrix(2.221743e-03 -1 1 2.221743e-03 116.2447 717.9949)" class="st3" width="2.3" height="537.5"/>
		
			<rect x="416.7" y="38.9" transform="matrix(2.221743e-03 -1 1 2.221743e-03 109.3306 724.863)" class="st3" width="2.3" height="537.5"/>
		
			<rect x="416.7" y="45.8" transform="matrix(2.221743e-03 -1 1 2.221743e-03 102.4159 731.7318)" class="st3" width="2.3" height="537.5"/>
		
			<rect x="416.7" y="52.7" transform="matrix(2.221743e-03 -1 1 2.221743e-03 95.5018 738.6)" class="st3" width="2.3" height="537.5"/>
		
			<rect x="416.7" y="59.6" transform="matrix(2.221743e-03 -1 1 2.221743e-03 88.5871 745.4688)" class="st3" width="2.3" height="537.5"/>
		
			<rect x="416.7" y="66.5" transform="matrix(2.221743e-03 -1 1 2.221743e-03 81.673 752.337)" class="st3" width="2.3" height="537.5"/>
		
			<rect x="416.7" y="73.4" transform="matrix(2.221743e-03 -1 1 2.221743e-03 74.7583 759.2057)" class="st3" width="2.3" height="537.5"/>
		
			<rect x="416.6" y="80.3" transform="matrix(2.221743e-03 -1 1 2.221743e-03 67.8442 766.0739)" class="st3" width="2.3" height="537.5"/>
		
			<rect x="416.6" y="87.2" transform="matrix(2.221743e-03 -1 1 2.221743e-03 60.9295 772.9427)" class="st3" width="2.3" height="537.5"/>
		
			<rect x="416.7" y="94.1" transform="matrix(2.221743e-03 -1 1 2.221743e-03 54.0805 779.8773)" class="st3" width="2.3" height="537.5"/>
		
			<rect x="416.7" y="101" transform="matrix(2.221743e-03 -1 1 2.221743e-03 47.1658 786.746)" class="st3" width="2.3" height="537.5"/>
		
			<rect x="416.6" y="107.9" transform="matrix(2.221743e-03 -1 1 2.221743e-03 40.2517 793.6142)" class="st3" width="2.3" height="537.5"/>
		
			<rect x="416.6" y="114.8" transform="matrix(2.221743e-03 -1 1 2.221743e-03 33.337 800.483)" class="st3" width="2.3" height="537.5"/>
		
			<rect x="416.6" y="121.7" transform="matrix(2.221743e-03 -1 1 2.221743e-03 26.4229 807.3511)" class="st3" width="2.3" height="537.5"/>
		
			<rect x="416.6" y="128.6" transform="matrix(2.221743e-03 -1 1 2.221743e-03 19.5082 814.2199)" class="st3" width="2.3" height="537.5"/>
		
			<rect x="416.6" y="135.5" transform="matrix(2.221743e-03 -1 1 2.221743e-03 12.5941 821.0881)" class="st3" width="2.3" height="537.5"/>
		
			<rect x="416.6" y="142.4" transform="matrix(2.221743e-03 -1 1 2.221743e-03 5.6794 827.9568)" class="st3" width="2.3" height="537.5"/>
		
			<rect x="416.6" y="149.3" transform="matrix(2.221743e-03 -1 1 2.221743e-03 -1.2347 834.825)" class="st3" width="2.3" height="537.5"/>
		
			<rect x="416.5" y="156.2" transform="matrix(2.221743e-03 -1 1 2.221743e-03 -8.1494 841.6938)" class="st3" width="2.3" height="537.5"/>
		
			<rect x="416.7" y="163.1" transform="matrix(2.221743e-03 -1 1 2.221743e-03 -14.8907 848.7361)" class="st3" width="2.3" height="537.5"/>
		
			<rect x="416.7" y="170" transform="matrix(2.221743e-03 -1 1 2.221743e-03 -21.7396 855.6707)" class="st3" width="2.3" height="537.5"/>
		
			<rect x="416.7" y="176.9" transform="matrix(2.221743e-03 -1 1 2.221743e-03 -28.6543 862.5394)" class="st3" width="2.3" height="537.5"/>
		
			<rect x="416.7" y="183.8" transform="matrix(2.221743e-03 -1 1 2.221743e-03 -35.5685 869.4077)" class="st3" width="2.3" height="537.5"/>
		
			<rect x="416.7" y="190.7" transform="matrix(2.221743e-03 -1 1 2.221743e-03 -42.4832 876.2764)" class="st3" width="2.3" height="537.5"/>
		
			<rect x="416.7" y="197.6" transform="matrix(2.221743e-03 -1 1 2.221743e-03 -49.3973 883.1446)" class="st3" width="2.3" height="537.5"/>
		
			<rect x="416.7" y="204.5" transform="matrix(2.221743e-03 -1 1 2.221743e-03 -56.312 890.0134)" class="st3" width="2.3" height="537.5"/>
		
			<rect x="416.7" y="211.4" transform="matrix(2.221743e-03 -1 1 2.221743e-03 -63.2261 896.8815)" class="st3" width="2.3" height="537.5"/>
		
			<rect x="416.6" y="218.3" transform="matrix(2.221743e-03 -1 1 2.221743e-03 -70.1408 903.7503)" class="st3" width="2.3" height="537.5"/>
		
			<rect x="416.6" y="225.2" transform="matrix(2.221743e-03 -1 1 2.221743e-03 -77.0549 910.6185)" class="st3" width="2.3" height="537.5"/>
		
			<rect x="416.6" y="232.1" transform="matrix(2.221743e-03 -1 1 2.221743e-03 -83.9696 917.4872)" class="st3" width="2.3" height="537.5"/>
	</g>
</g>
<g>
	<defs>
		<polygon id="SVGID_3_" points="662.7,322.1 564,417.8 486.8,342.9 250.4,343.3 170.8,271 184.6,323.3 205.3,344.9 250.4,344 
			280.2,374.8 469.7,374.7 542,438.8 565,416.8 588,439.2 655.9,377.6 		"/>
	</defs>
	<clipPath id="SVGID_4_">
		<use xlink:href="#SVGID_3_"  style="overflow:visible;"/>
	</clipPath>
	<g class="st4">
		
			<rect x="415.8" y="-9.6" transform="matrix(2.221743e-03 -1 1 2.221743e-03 156.9074 675.5022)" class="st5" width="2.3" height="537.5"/>
		
			<rect x="415.8" y="-2.7" transform="matrix(2.221743e-03 -1 1 2.221743e-03 149.9927 682.371)" class="st5" width="2.3" height="537.5"/>
		
			<rect x="415.8" y="4.1" transform="matrix(2.221743e-03 -1 1 2.221743e-03 143.0786 689.2392)" class="st5" width="2.3" height="537.5"/>
		
			<rect x="415.7" y="11" transform="matrix(2.221743e-03 -1 1 2.221743e-03 136.1639 696.1079)" class="st5" width="2.3" height="537.5"/>
		
			<rect x="415.7" y="17.9" transform="matrix(2.221743e-03 -1 1 2.221743e-03 129.2498 702.9761)" class="st5" width="2.3" height="537.5"/>
		
			<rect x="415.7" y="24.8" transform="matrix(2.221743e-03 -1 1 2.221743e-03 122.3351 709.8448)" class="st5" width="2.3" height="537.5"/>
		
			<rect x="415.7" y="31.7" transform="matrix(2.221743e-03 -1 1 2.221743e-03 115.421 716.7131)" class="st5" width="2.3" height="537.5"/>
		
			<rect x="415.7" y="38.6" transform="matrix(2.221743e-03 -1 1 2.221743e-03 108.5063 723.5818)" class="st5" width="2.3" height="537.5"/>
		
			<rect x="415.7" y="45.5" transform="matrix(2.221743e-03 -1 1 2.221743e-03 101.5922 730.45)" class="st5" width="2.3" height="537.5"/>
		
			<rect x="415.6" y="52.4" transform="matrix(2.221743e-03 -1 1 2.221743e-03 94.6775 737.3188)" class="st5" width="2.3" height="537.5"/>
		
			<rect x="415.7" y="59.3" transform="matrix(2.221743e-03 -1 1 2.221743e-03 87.8285 744.2534)" class="st5" width="2.3" height="537.5"/>
		
			<rect x="415.7" y="66.2" transform="matrix(2.221743e-03 -1 1 2.221743e-03 80.9139 751.1221)" class="st5" width="2.3" height="537.5"/>
		
			<rect x="415.7" y="73.1" transform="matrix(2.221743e-03 -1 1 2.221743e-03 73.9997 757.9903)" class="st5" width="2.3" height="537.5"/>
		
			<rect x="415.7" y="80" transform="matrix(2.221743e-03 -1 1 2.221743e-03 67.085 764.8591)" class="st5" width="2.3" height="537.5"/>
		
			<rect x="415.6" y="86.9" transform="matrix(2.221743e-03 -1 1 2.221743e-03 60.1709 771.7272)" class="st5" width="2.3" height="537.5"/>
		
			<rect x="415.6" y="93.8" transform="matrix(2.221743e-03 -1 1 2.221743e-03 53.2562 778.596)" class="st5" width="2.3" height="537.5"/>
		
			<rect x="415.6" y="100.7" transform="matrix(2.221743e-03 -1 1 2.221743e-03 46.3421 785.4642)" class="st5" width="2.3" height="537.5"/>
		
			<rect x="415.6" y="107.6" transform="matrix(2.221743e-03 -1 1 2.221743e-03 39.4274 792.3329)" class="st5" width="2.3" height="537.5"/>
		
			<rect x="415.6" y="114.5" transform="matrix(2.221743e-03 -1 1 2.221743e-03 32.5133 799.2012)" class="st5" width="2.3" height="537.5"/>
		
			<rect x="415.6" y="121.4" transform="matrix(2.221743e-03 -1 1 2.221743e-03 25.5986 806.0699)" class="st5" width="2.3" height="537.5"/>
		
			<rect x="415.7" y="128.3" transform="matrix(2.221743e-03 -1 1 2.221743e-03 18.8573 813.1122)" class="st5" width="2.3" height="537.5"/>
		
			<rect x="415.8" y="135.2" transform="matrix(2.221743e-03 -1 1 2.221743e-03 12.0084 820.0468)" class="st5" width="2.3" height="537.5"/>
		
			<rect x="415.8" y="142.1" transform="matrix(2.221743e-03 -1 1 2.221743e-03 5.0937 826.9155)" class="st5" width="2.3" height="537.5"/>
		
			<rect x="415.7" y="149" transform="matrix(2.221743e-03 -1 1 2.221743e-03 -1.8205 833.7838)" class="st5" width="2.3" height="537.5"/>
		
			<rect x="415.7" y="155.9" transform="matrix(2.221743e-03 -1 1 2.221743e-03 -8.7352 840.6525)" class="st5" width="2.3" height="537.5"/>
		
			<rect x="415.7" y="162.8" transform="matrix(2.221743e-03 -1 1 2.221743e-03 -15.6493 847.5207)" class="st5" width="2.3" height="537.5"/>
		
			<rect x="415.7" y="169.7" transform="matrix(2.221743e-03 -1 1 2.221743e-03 -22.564 854.3895)" class="st5" width="2.3" height="537.5"/>
		
			<rect x="415.7" y="176.6" transform="matrix(2.221743e-03 -1 1 2.221743e-03 -29.4781 861.2576)" class="st5" width="2.3" height="537.5"/>
		
			<rect x="415.7" y="183.5" transform="matrix(2.221743e-03 -1 1 2.221743e-03 -36.3928 868.1264)" class="st5" width="2.3" height="537.5"/>
		
			<rect x="415.6" y="190.4" transform="matrix(2.221743e-03 -1 1 2.221743e-03 -43.3069 874.9946)" class="st5" width="2.3" height="537.5"/>
		
			<rect x="415.6" y="197.3" transform="matrix(2.221743e-03 -1 1 2.221743e-03 -50.2216 881.8633)" class="st5" width="2.3" height="537.5"/>
	</g>
</g>
<g>
	<defs>
		<polygon id="SVGID_5_" points="681.2,256.6 564.8,370.5 508.8,313.5 266.2,308.7 152,195.6 170.6,267.3 216.4,308.7 266.2,309.1 
			298.5,341.7 487.6,342.6 541,393.8 565,370.8 587,393.8 663,325 		"/>
	</defs>
	<clipPath id="SVGID_6_">
		<use xlink:href="#SVGID_5_"  style="overflow:visible;"/>
	</clipPath>
	<g class="st6">
		<rect x="411.5" y="-77" transform="matrix(2.221743e-03 -1 1 2.221743e-03 220.0477 604.0359)" width="2.3" height="537.5"/>
		<rect x="411.5" y="-70.1" transform="matrix(2.221743e-03 -1 1 2.221743e-03 213.133 610.9047)" width="2.3" height="537.5"/>
		<rect x="411.5" y="-63.2" transform="matrix(2.221743e-03 -1 1 2.221743e-03 206.2189 617.7729)" width="2.3" height="537.5"/>
		<rect x="411.5" y="-56.3" transform="matrix(2.221743e-03 -1 1 2.221743e-03 199.3042 624.6417)" width="2.3" height="537.5"/>
		<rect x="411.5" y="-49.4" transform="matrix(2.221743e-03 -1 1 2.221743e-03 192.39 631.5098)" width="2.3" height="537.5"/>
		<rect x="411.5" y="-42.5" transform="matrix(2.221743e-03 -1 1 2.221743e-03 185.4753 638.3786)" width="2.3" height="537.5"/>
		<rect x="411.5" y="-35.6" transform="matrix(2.221743e-03 -1 1 2.221743e-03 178.5612 645.2468)" width="2.3" height="537.5"/>
		<rect x="411.4" y="-28.7" transform="matrix(2.221743e-03 -1 1 2.221743e-03 171.6465 652.1155)" width="2.3" height="537.5"/>
		<rect x="411.4" y="-21.8" transform="matrix(2.221743e-03 -1 1 2.221743e-03 164.7324 658.9837)" width="2.3" height="537.5"/>
		<rect x="411.4" y="-14.9" transform="matrix(2.221743e-03 -1 1 2.221743e-03 157.8177 665.8525)" width="2.3" height="537.5"/>
		<rect x="411.5" y="-8" transform="matrix(2.221743e-03 -1 1 2.221743e-03 150.9688 672.787)" width="2.3" height="537.5"/>
		<rect x="411.4" y="-1.1" transform="matrix(2.221743e-03 -1 1 2.221743e-03 144.0541 679.6558)" width="2.3" height="537.5"/>
		<rect x="411.4" y="5.8" transform="matrix(2.221743e-03 -1 1 2.221743e-03 137.14 686.524)" width="2.3" height="537.5"/>
		<rect x="411.4" y="12.7" transform="matrix(2.221743e-03 -1 1 2.221743e-03 130.2253 693.3928)" width="2.3" height="537.5"/>
		<rect x="411.4" y="19.6" transform="matrix(2.221743e-03 -1 1 2.221743e-03 123.3112 700.261)" width="2.3" height="537.5"/>
		<rect x="411.4" y="26.5" transform="matrix(2.221743e-03 -1 1 2.221743e-03 116.3965 707.1297)" width="2.3" height="537.5"/>
		<rect x="411.4" y="33.4" transform="matrix(2.221743e-03 -1 1 2.221743e-03 109.4823 713.9979)" width="2.3" height="537.5"/>
		<rect x="411.3" y="40.3" transform="matrix(2.221743e-03 -1 1 2.221743e-03 102.5677 720.8666)" width="2.3" height="537.5"/>
		<rect x="411.3" y="47.2" transform="matrix(2.221743e-03 -1 1 2.221743e-03 95.6535 727.7349)" width="2.3" height="537.5"/>
		<rect x="411.3" y="54.1" transform="matrix(2.221743e-03 -1 1 2.221743e-03 88.7388 734.6036)" width="2.3" height="537.5"/>
		<rect x="411.5" y="61" transform="matrix(2.221743e-03 -1 1 2.221743e-03 81.9975 741.6459)" width="2.3" height="537.5"/>
		<rect x="411.5" y="67.9" transform="matrix(2.221743e-03 -1 1 2.221743e-03 75.1486 748.5805)" width="2.3" height="537.5"/>
		<rect x="411.5" y="74.8" transform="matrix(2.221743e-03 -1 1 2.221743e-03 68.2339 755.4493)" width="2.3" height="537.5"/>
		<rect x="411.5" y="81.7" transform="matrix(2.221743e-03 -1 1 2.221743e-03 61.3198 762.3174)" width="2.3" height="537.5"/>
		<rect x="411.5" y="88.6" transform="matrix(2.221743e-03 -1 1 2.221743e-03 54.4051 769.1862)" width="2.3" height="537.5"/>
		<rect x="411.5" y="95.5" transform="matrix(2.221743e-03 -1 1 2.221743e-03 47.491 776.0544)" width="2.3" height="537.5"/>
		<rect x="411.4" y="102.4" transform="matrix(2.221743e-03 -1 1 2.221743e-03 40.5763 782.9232)" width="2.3" height="537.5"/>
		<rect x="411.4" y="109.3" transform="matrix(2.221743e-03 -1 1 2.221743e-03 33.6622 789.7914)" width="2.3" height="537.5"/>
		<rect x="411.4" y="116.2" transform="matrix(2.221743e-03 -1 1 2.221743e-03 26.7475 796.6601)" width="2.3" height="537.5"/>
		<rect x="411.4" y="123.1" transform="matrix(2.221743e-03 -1 1 2.221743e-03 19.8333 803.5283)" width="2.3" height="537.5"/>
		<rect x="411.4" y="130" transform="matrix(2.221743e-03 -1 1 2.221743e-03 12.9186 810.397)" width="2.3" height="537.5"/>
	</g>
</g>
<path id="TIRA_LIMPIEZA_2_" class="st7" d="M535.1,51.9c-2.8,4.9-6.8,10.9-12.1,17.1c-22.2,8-53.9,14.9-97.1,14.9h-0.3c0,0,0,0,0,0
	h0c0,0,0,0,0,0h-0.8c0,0,0,0,0,0h0c0,0,0,0,0,0h-0.3c-43.3,0-74.9-6.9-97.1-14.9c-5.3-6.2-9.2-12.2-12.1-17.1c0.5,0.2,1,0.4,1.5,0.7
	c0.5,0.2,0.9,0.4,1.4,0.6c0.3,0.1,0.5,0.2,0.8,0.3c0.5,0.2,1,0.4,1.4,0.6c0.3,0.1,0.6,0.2,0.8,0.3c0.5,0.2,0.9,0.4,1.4,0.5
	c0.3,0.1,0.7,0.3,1,0.4c22.3,8.6,55.1,16.3,100.8,16.3h1.6c45.7,0,78.5-7.8,100.8-16.3c0.3-0.1,0.7-0.3,1-0.4
	c0.5-0.2,0.9-0.4,1.4-0.5c0.3-0.1,0.6-0.2,0.8-0.3c0.5-0.2,1-0.4,1.4-0.6c0.3-0.1,0.5-0.2,0.8-0.3c0.5-0.2,0.9-0.4,1.4-0.6
	C534.1,52.4,534.6,52.2,535.1,51.9z"/>
<linearGradient id="SVGID_7_" gradientUnits="userSpaceOnUse" x1="426.0711" y1="73.9355" x2="278.7661" y2="73.9355">
	<stop  offset="5.365853e-02" style="stop-color:#666666;stop-opacity:0"/>
	<stop  offset="0.4824" style="stop-color:#3A3A3A;stop-opacity:0.4531"/>
	<stop  offset="1" style="stop-color:#000000"/>
</linearGradient>
<path class="st8" d="M426.1,133.8h-44.2c0,0-9.6-8.3-28-15.8c-25.9-10.4-48.8-30.9-58.6-46c-2.1-3.5-4-6.9-5.6-10.1
	c-6.7-13.4-9.6-24.6-10.8-29.8c0.2-0.1,0.3-0.2,0.5-0.4c0.2-0.1,0.4-0.3,0.6-0.4c4.6-3.5,11.2-8.4,14.3-11.3
	c2.1-1.9,3.8-3.6,4.9-4.7c0.8-0.8,1.8-1.3,2.9-1.3c1,0,1.8,0.4,2.4,0.8c0.6,0.4,1.1,0.9,1.6,1.3c0.5,0.4,0.9,0.7,1.5,1.2
	c-0.1-0.1-0.2-0.1-0.3-0.2c-1.2-0.8-2.3-1-2.9-0.5c-0.1,0.1-0.1,0.2-0.2,0.3c-0.1,0.1-0.1,0.2-0.2,0.3c-0.1,0.2-0.1,0.4-0.2,0.7
	c-0.1,0.9,0,2.3,0.4,4.3c0.1,0.5,0.2,1,0.4,1.5c0.2,0.9,0.5,1.9,0.9,3c0.1,0.2,0.1,0.4,0.2,0.7c0.2,0.7,0.5,1.4,0.8,2.2
	c0.2,0.5,0.4,1,0.6,1.6c0.2,0.5,0.4,1.1,0.6,1.7c0.8,2,1.7,4.3,2.8,6.8c0.5,1.1,1,2.3,1.5,3.4c0.1,0.2,0.2,0.5,0.3,0.7
	c0.1,0.1,0.1,0.2,0.2,0.3c1,1.9,2.2,4.3,3.7,6.9c2.8,4.9,6.8,10.9,12.1,17.1c10.1,11.9,25.1,24.9,46.9,34.1
	C428.2,124.3,426.1,133.8,426.1,133.8z"/>
<linearGradient id="SVGID_8_" gradientUnits="userSpaceOnUse" x1="426.2386" y1="73.8327" x2="573.5424" y2="73.8327">
	<stop  offset="5.365853e-02" style="stop-color:#666666;stop-opacity:0"/>
	<stop  offset="0.4824" style="stop-color:#3A3A3A;stop-opacity:0.4531"/>
	<stop  offset="1" style="stop-color:#000000"/>
</linearGradient>
<path class="st9" d="M573.5,32c-1.2,5.2-4.1,16.4-10.8,29.8c-1.6,3.3-3.5,6.7-5.6,10.1c-9.8,15.1-32.7,35.5-58.6,46
	c-18.5,7.5-28,15.8-28,15.8h-44.2c0,0-2.2-9.5,50.8-31.8C499,92.7,514,79.7,524,67.9c5.3-6.2,9.2-12.2,12.1-17.1
	c1.5-2.6,2.7-5,3.7-6.9c0.1-0.1,0.1-0.2,0.2-0.3c0.1-0.2,0.2-0.5,0.3-0.7c0.7-1.6,1.2-2.7,1.4-3.2c0-0.1,0.1-0.1,0.1-0.2
	c1.1-2.5,2-4.7,2.8-6.8c0.2-0.6,0.4-1.1,0.6-1.7c0.2-0.5,0.4-1.1,0.6-1.6c0.3-0.8,0.5-1.5,0.8-2.2c0.1-0.2,0.2-0.4,0.2-0.7
	c0.4-1.1,0.7-2.1,0.9-3c0.2-0.5,0.3-1,0.4-1.5c0.4-1.9,0.5-3.3,0.4-4.3c0-0.3-0.1-0.5-0.2-0.7c0-0.1-0.1-0.2-0.2-0.3
	c-0.1-0.1-0.1-0.2-0.2-0.3c-0.6-0.6-1.7-0.3-2.9,0.5c-0.1,0.1-0.2,0.1-0.3,0.2c0.6-0.4,1-0.8,1.5-1.2c0.5-0.4,1.1-0.9,1.6-1.3
	c0.6-0.4,1.5-0.8,2.4-0.8c1.1,0,2.1,0.5,2.9,1.3c1,1.1,2.7,2.8,4.9,4.7c3.2,2.9,9.8,7.8,14.3,11.3c0.2,0.1,0.4,0.3,0.6,0.4
	C573.2,31.8,573.4,31.9,573.5,32z"/>
<linearGradient id="SVGID_9_" gradientUnits="userSpaceOnUse" x1="167.5" y1="718.6847" x2="213.3338" y2="718.6847">
	<stop  offset="0.1336" style="stop-color:#070606;stop-opacity:0.3"/>
	<stop  offset="1" style="stop-color:#070606;stop-opacity:0"/>
</linearGradient>
<path class="st10" d="M198.4,487.2c0,0,21.3,246.1,13.1,463c0,0-30.3-0.9-40.2-7.2c-9.9-6.3,3-43.5,3.6-57.9
	c0.6-14.5,8.4-120.3,11.3-140.4C189,724.6,207.1,546.4,198.4,487.2z"/>
<linearGradient id="SVGID_10_" gradientUnits="userSpaceOnUse" x1="214.5593" y1="713.5221" x2="260.3931" y2="713.5221" gradientTransform="matrix(-1 0 0 1 898 0)">
	<stop  offset="0.1336" style="stop-color:#070606;stop-opacity:0.3"/>
	<stop  offset="1" style="stop-color:#070606;stop-opacity:0"/>
</linearGradient>
<path class="st11" d="M652.6,482c0,0-21.3,246.1-13.1,463c0,0,30.3-0.9,40.2-7.2c9.9-6.3-3-45.5-3.6-59.9
	c-0.6-14.5-8.4-118.3-11.3-138.4C661.9,719.4,643.8,541.3,652.6,482z"/>
<g class="st12">
	<defs>
		<filter id="Adobe_OpacityMaskFilter" filterUnits="userSpaceOnUse" x="511.9" y="275.7" width="165.4" height="670.3">
			<feFlood  style="flood-color:white;flood-opacity:1" result="back"/>
			<feBlend  in="SourceGraphic" in2="back" mode="normal"/>
		</filter>
	</defs>
	<mask maskUnits="userSpaceOnUse" x="511.9" y="275.7" width="165.4" height="670.3" id="SVGID_11_">
		<g class="st13">
			<image style="overflow:visible;" width="171" height="676" xlink:href="E0E7099A.jpg"  transform="matrix(1 0 0 1 509 272.8)">
			</image>
		</g>
	</mask>
	<g class="st14">
		
			<linearGradient id="SVGID_12_" gradientUnits="userSpaceOnUse" x1="272.8755" y1="610.8168" x2="438.2668" y2="610.8168" gradientTransform="matrix(-1 0 0 1 950.1758 0)">
			<stop  offset="0.1336" style="stop-color:#070606;stop-opacity:0.3"/>
			<stop  offset="1" style="stop-color:#070606;stop-opacity:0"/>
		</linearGradient>
		<path class="st15" d="M561,897.9c6.3-71.1,20.9-141.6,24.6-212.9c5.3-100.2-10.9-200.7-1.9-300.7c0.6-6.2,1.3-12.6,4.1-18.3
			c2.6-5.1,6.7-9.4,10.8-13.6c14.5-14.8,64.1-61.9,78.6-76.8c0.9,21.2-68.4,104.9-77,124.6c-12.1,27.8,7.3,25.8,7.5,55.7
			c0.6,106,1.2,212.1,1.8,318.1c0.3,51.9,0.7,104.5,15.1,154.7c0.7,2.4,1.4,5,0.1,7.2c-1.7,3-6,3.6-9.6,3.8
			c-33.9,2.1-67.8,4.2-101.7,6.4c-4.6-107.9,0.7-216.2,16-323.2c9.3,7.7,10.4,20.5,10.8,32c1.6,47.7,3.2,95.5,4.7,143.2
			c1.1,33,2.3,66.5,12.4,98.2"/>
	</g>
</g>
<g class="st12">
	<defs>
		<filter id="Adobe_OpacityMaskFilter_1_" filterUnits="userSpaceOnUse" x="225.8" y="344.5" width="98.7" height="596.4">
			<feFlood  style="flood-color:white;flood-opacity:1" result="back"/>
			<feBlend  in="SourceGraphic" in2="back" mode="normal"/>
		</filter>
	</defs>
	<mask maskUnits="userSpaceOnUse" x="225.8" y="344.5" width="98.7" height="596.4" id="SVGID_13_">
		<g class="st16">
			<image style="overflow:visible;" width="104" height="602" xlink:href="E0E7099E.jpg"  transform="matrix(1 0 0 1 223 341.8)">
			</image>
		</g>
	</mask>
	<g class="st17">
		
			<radialGradient id="SVGID_14_" cx="370.3883" cy="546.5043" r="180.779" gradientTransform="matrix(-1.2894 0 0 1.1798 752.6824 -1.9817)" gradientUnits="userSpaceOnUse">
			<stop  offset="0" style="stop-color:#FFFFFF;stop-opacity:0.3"/>
			<stop  offset="1" style="stop-color:#FFFFFF;stop-opacity:0"/>
		</radialGradient>
		<path class="st18" d="M311.2,768.8c16.6-29.6,7.2-37.8,8.2-71.1c1.5-47.5,3-95,4.5-142.6c0.9-27.8,1.6-56.2-8.2-82.5
			c-7.7-20.7-21.6-38.9-35.3-56.8c-18.2-23.8-36.4-47.6-54.7-71.3c21.9,51.8,31.5,113.8,39.5,168.9c4.4,29.9-0.2,67.4-4,97.4
			c-13.6,108.9,26.9,254.1,27.2,330.2c2.5-7,11.6-136,14.1-143L311.2,768.8z"/>
	</g>
</g>
<g class="st12">
	<defs>
		<filter id="Adobe_OpacityMaskFilter_2_" filterUnits="userSpaceOnUse" x="168.3" y="275.7" width="166.5" height="670.3">
			<feFlood  style="flood-color:white;flood-opacity:1" result="back"/>
			<feBlend  in="SourceGraphic" in2="back" mode="normal"/>
		</filter>
	</defs>
	<mask maskUnits="userSpaceOnUse" x="168.3" y="275.7" width="166.5" height="670.3" id="SVGID_15_">
		<g class="st19">
			<image style="overflow:visible;" width="171" height="676" xlink:href="E0E70999.jpg"  transform="matrix(1 0 0 1 166 272.8)">
			</image>
		</g>
	</mask>
	<g class="st20">
		<linearGradient id="SVGID_16_" gradientUnits="userSpaceOnUse" x1="168.3222" y1="610.8168" x2="334.7827" y2="610.8168">
			<stop  offset="0.1336" style="stop-color:#070606;stop-opacity:0.3"/>
			<stop  offset="1" style="stop-color:#070606;stop-opacity:0"/>
		</linearGradient>
		<path class="st21" d="M284.6,897.9c-6.3-71.1-20.9-141.6-24.6-212.9c-5.3-100.2,10.9-200.7,1.9-300.7c-0.6-6.2-1.3-12.6-4.1-18.3
			c-2.6-5.1-6.7-9.4-10.8-13.6c-14.5-14.8-64.1-61.9-78.6-76.8c-0.9,21.2,68.4,104.9,77,124.6c12.1,27.8-7.3,25.8-7.5,55.7
			c-0.6,106-1.2,212.1-1.8,318.1c-0.3,51.9-0.7,104.5-15.1,154.7c-0.7,2.4-1.4,5-0.1,7.2c1.7,3,6,3.6,9.6,3.8
			c33.9,2.1,67.8,4.2,101.7,6.4c4.6-107.9,4.6-322.8-10.7-429.9c-9.3,7.7-6.6,185.1-7,196.6c-1.6,47.7-7.6,39.7-9.2,87.4
			c-1.1,33-6.8,64.4-16.9,96.1"/>
	</g>
</g>
<g class="st22">
	<defs>
		<filter id="Adobe_OpacityMaskFilter_3_" filterUnits="userSpaceOnUse" x="611.1" y="248" width="69.1" height="340.1">
			<feFlood  style="flood-color:white;flood-opacity:1" result="back"/>
			<feBlend  in="SourceGraphic" in2="back" mode="normal"/>
		</filter>
	</defs>
	<mask maskUnits="userSpaceOnUse" x="611.1" y="248" width="69.1" height="340.1" id="SVGID_17_">
		<g class="st23">
			<image style="overflow:visible;" width="74" height="345" xlink:href="E0E7099B.jpg"  transform="matrix(1 0 0 1 609 245.8)">
			</image>
		</g>
	</mask>
	<g class="st24">
		<defs>
			<filter id="Adobe_OpacityMaskFilter_4_" filterUnits="userSpaceOnUse" x="611.1" y="248" width="69.1" height="340.1">
				<feFlood  style="flood-color:white;flood-opacity:1" result="back"/>
				<feBlend  in="SourceGraphic" in2="back" mode="normal"/>
			</filter>
		</defs>
		<mask maskUnits="userSpaceOnUse" x="611.1" y="248" width="69.1" height="340.1" id="SVGID_17_">
			<g class="st25">
				<image style="overflow:visible;" width="74" height="345" xlink:href="E0E70998.jpg"  transform="matrix(1 0 0 1 609 245.8)">
				</image>
			</g>
		</mask>
		<g>
			
				<linearGradient id="SVGID_18_" gradientUnits="userSpaceOnUse" x1="281.7381" y1="418.0019" x2="386.7991" y2="418.0019" gradientTransform="matrix(-1 0 0 1 962 0)">
				<stop  offset="0" style="stop-color:#070606;stop-opacity:0.3"/>
				<stop  offset="0.9795" style="stop-color:#070606;stop-opacity:0"/>
			</linearGradient>
			<path class="st26" d="M680.3,248c0,0-44.6,61.2-66.1,97.5c-12,20.3,13.3,20.1,39.9,242.6l4.7-205.8L680.3,248z"/>
		</g>
	</g>
</g>
<g class="st22">
	<defs>
		<filter id="Adobe_OpacityMaskFilter_5_" filterUnits="userSpaceOnUse" x="168.3" y="253" width="69.9" height="340.1">
			<feFlood  style="flood-color:white;flood-opacity:1" result="back"/>
			<feBlend  in="SourceGraphic" in2="back" mode="normal"/>
		</filter>
	</defs>
	<mask maskUnits="userSpaceOnUse" x="168.3" y="253" width="69.9" height="340.1" id="SVGID_19_">
		<g class="st27">
			<image style="overflow:visible;" width="75" height="345" xlink:href="E0E709A6.jpg"  transform="matrix(1 0 0 1 166 250.8)">
			</image>
		</g>
	</mask>
	<g class="st28">
		<defs>
			<filter id="Adobe_OpacityMaskFilter_6_" filterUnits="userSpaceOnUse" x="168.3" y="253" width="69.9" height="340.1">
				<feFlood  style="flood-color:white;flood-opacity:1" result="back"/>
				<feBlend  in="SourceGraphic" in2="back" mode="normal"/>
			</filter>
		</defs>
		<mask maskUnits="userSpaceOnUse" x="168.3" y="253" width="69.9" height="340.1" id="SVGID_19_">
			<g class="st29">
				<image style="overflow:visible;" width="75" height="345" xlink:href="E0E709A9.jpg"  transform="matrix(1 0 0 1 166 250.8)">
				</image>
			</g>
		</mask>
		<g>
			
				<linearGradient id="SVGID_20_" gradientUnits="userSpaceOnUse" x1="200.3355" y1="422.9828" x2="306.4977" y2="422.9828" gradientTransform="matrix(1 0 0 1 -32 0)">
				<stop  offset="0" style="stop-color:#070606;stop-opacity:0.3"/>
				<stop  offset="0.9795" style="stop-color:#070606;stop-opacity:0"/>
			</linearGradient>
			<path class="st30" d="M168.3,253c0,0,44.6,61.2,66.1,97.5c12,20.3-6,20.1-32.6,242.6l-12-205.8L168.3,253z"/>
		</g>
	</g>
</g>
<g class="st31">
	<defs>
		<filter id="Adobe_OpacityMaskFilter_7_" filterUnits="userSpaceOnUse" x="115.2" y="33.7" width="614.7" height="328.6">
			<feFlood  style="flood-color:white;flood-opacity:1" result="back"/>
			<feBlend  in="SourceGraphic" in2="back" mode="normal"/>
		</filter>
	</defs>
	<mask maskUnits="userSpaceOnUse" x="115.2" y="33.7" width="614.7" height="328.6" id="SVGID_21_">
		<g class="st32">
			<image style="overflow:visible;" width="619" height="334" xlink:href="E0E709AA.jpg"  transform="matrix(1 0 0 1 113 30.8)">
			</image>
		</g>
	</mask>
	<g class="st33">
		<defs>
			<filter id="Adobe_OpacityMaskFilter_8_" filterUnits="userSpaceOnUse" x="115.2" y="33.7" width="614.7" height="328.6">
				<feFlood  style="flood-color:white;flood-opacity:1" result="back"/>
				<feBlend  in="SourceGraphic" in2="back" mode="normal"/>
			</filter>
		</defs>
		<mask maskUnits="userSpaceOnUse" x="115.2" y="33.7" width="614.7" height="328.6" id="SVGID_21_">
			<g class="st34">
				<image style="overflow:visible;" width="619" height="334" xlink:href="E0E709A8.jpg"  transform="matrix(1 0 0 1 113 30.8)">
				</image>
			</g>
		</mask>
		<g>
			<linearGradient id="SVGID_22_" gradientUnits="userSpaceOnUse" x1="588.9739" y1="333.9373" x2="240.6334" y2="-14.4032">
				<stop  offset="0" style="stop-color:#FFFFFF;stop-opacity:0.3"/>
				<stop  offset="1" style="stop-color:#FFFFFF;stop-opacity:0"/>
			</linearGradient>
			<path class="st35" d="M115.2,111c0,0,56.6,177.7,127.8,222.5c82.1,51.7,286.2,22.2,328.8,0c42.5-22.2,106.2-65,158.1-207.8
				l-182.2-92c0,0-34.8,56.9-104.5,68.2s-77.2-0.1-77.2-0.1S288,69.4,271.6,35.9L115.2,111z"/>
		</g>
	</g>
</g>
<g>
	<defs>
		<filter id="Adobe_OpacityMaskFilter_9_" filterUnits="userSpaceOnUse" x="738.3" y="117.6" width="85.4" height="297.2">
			<feFlood  style="flood-color:white;flood-opacity:1" result="back"/>
			<feBlend  in="SourceGraphic" in2="back" mode="normal"/>
		</filter>
	</defs>
	<mask maskUnits="userSpaceOnUse" x="738.3" y="117.6" width="85.4" height="297.2" id="SVGID_23_">
		<g class="st36">
			<image style="overflow:visible;" width="90" height="303" xlink:href="8164639D.jpg"  transform="matrix(1 0 0 1 736 114.8)">
			</image>
		</g>
	</mask>
	<g class="st37">
		<linearGradient id="SVGID_24_" gradientUnits="userSpaceOnUse" x1="738.2905" y1="266.2379" x2="823.6588" y2="266.2379">
			<stop  offset="0.1336" style="stop-color:#070606;stop-opacity:0.3"/>
			<stop  offset="1" style="stop-color:#070606;stop-opacity:0"/>
		</linearGradient>
		<path class="st38" d="M787.6,414.8c-28.8-63.7-42.4-133.1-39.6-202c1.3-32.2,5.8-66.2-9.7-95.2c13.2,14.8,26.7,30.1,33.1,48.3
			c6.8,19.4,4.8,40.3,5.3,60.7c1.6,58.7,24.4,114.9,46.9,169.8c-12.7,2.6-24.8,7.7-35.2,14.9"/>
	</g>
</g>
<g class="st39">
	<defs>
		<filter id="Adobe_OpacityMaskFilter_10_" filterUnits="userSpaceOnUse" x="690.7" y="110.9" width="86.9" height="313.9">
			<feFlood  style="flood-color:white;flood-opacity:1" result="back"/>
			<feBlend  in="SourceGraphic" in2="back" mode="normal"/>
		</filter>
	</defs>
	<mask maskUnits="userSpaceOnUse" x="690.7" y="110.9" width="86.9" height="313.9" id="SVGID_25_">
		<g class="st40">
			<image style="overflow:visible;" width="92" height="318" xlink:href="81646393.jpg"  transform="matrix(1 0 0 1 688 108.8)">
			</image>
		</g>
	</mask>
	<g class="st41">
		<linearGradient id="SVGID_26_" gradientUnits="userSpaceOnUse" x1="802.2" y1="232.1639" x2="663.0751" y2="312.4877">
			<stop  offset="0" style="stop-color:#FFFFFF;stop-opacity:0.3"/>
			<stop  offset="0.7436" style="stop-color:#FFFFFF;stop-opacity:0"/>
		</linearGradient>
		<path class="st42" d="M726.1,110.9c10,5.2,16.1,15.2,18.7,25.4c2.5,10.3,1.9,20.9,1.5,31.4c-3.3,82.2,4.4,165.4,31.3,243.8
			c-12.9,7.8-28.2,12.4-43.6,13.2c-1.9,0.1-3.9,0.1-5.6-0.8c-1.4-0.8-2.3-2.2-3-3.6c-34.6-60.5-43.7-132.8-25.3-199
			c9.9-35.5,27.6-70,27.2-106.7"/>
	</g>
</g>
<g class="st43">
	<defs>
		<filter id="Adobe_OpacityMaskFilter_11_" filterUnits="userSpaceOnUse" x="23.8" y="117.6" width="85.4" height="297.2">
			<feFlood  style="flood-color:white;flood-opacity:1" result="back"/>
			<feBlend  in="SourceGraphic" in2="back" mode="normal"/>
		</filter>
	</defs>
	<mask maskUnits="userSpaceOnUse" x="23.8" y="117.6" width="85.4" height="297.2" id="SVGID_27_">
		<g class="st44">
			<image style="overflow:visible;" width="91" height="303" xlink:href="81646395.jpg"  transform="matrix(1 0 0 1 21 114.8)">
			</image>
		</g>
	</mask>
	<g class="st45">
		
			<linearGradient id="SVGID_28_" gradientUnits="userSpaceOnUse" x1="818.8505" y1="266.2379" x2="904.2188" y2="266.2379" gradientTransform="matrix(-1 0 0 1 928 0)">
			<stop  offset="0.1336" style="stop-color:#070606;stop-opacity:0.3"/>
			<stop  offset="1" style="stop-color:#070606;stop-opacity:0"/>
		</linearGradient>
		<path class="st46" d="M59.9,414.8c28.8-63.7,42.4-133.1,39.6-202c-1.3-32.2-5.8-66.2,9.7-95.2c-13.2,14.8-26.7,30.1-33.1,48.3
			c-6.8,19.4-4.8,40.3-5.3,60.7c-1.6,58.7-24.4,114.9-46.9,169.8c12.7,2.6,24.8,7.7,35.2,14.9"/>
	</g>
</g>
<g class="st39">
	<defs>
		<filter id="Adobe_OpacityMaskFilter_12_" filterUnits="userSpaceOnUse" x="69.9" y="110.9" width="86.9" height="313.9">
			<feFlood  style="flood-color:white;flood-opacity:1" result="back"/>
			<feBlend  in="SourceGraphic" in2="back" mode="normal"/>
		</filter>
	</defs>
	<mask maskUnits="userSpaceOnUse" x="69.9" y="110.9" width="86.9" height="313.9" id="SVGID_29_">
		<g class="st47">
			<image style="overflow:visible;" width="92" height="318" xlink:href="81646397.jpg"  transform="matrix(1 0 0 1 67 108.8)">
			</image>
		</g>
	</mask>
	<g class="st48">
		
			<linearGradient id="SVGID_30_" gradientUnits="userSpaceOnUse" x1="882.76" y1="232.1639" x2="743.6351" y2="312.4877" gradientTransform="matrix(-1 0 0 1 928 0)">
			<stop  offset="0" style="stop-color:#FFFFFF;stop-opacity:0.3"/>
			<stop  offset="0.7436" style="stop-color:#FFFFFF;stop-opacity:0"/>
		</linearGradient>
		<path class="st49" d="M121.3,110.9c-10,5.2-16.1,15.2-18.7,25.4c-2.5,10.3-1.9,20.9-1.5,31.4c3.3,82.2-4.4,165.4-31.3,243.8
			c12.9,7.8,28.2,12.4,43.6,13.2c1.9,0.1,3.9,0.1,5.6-0.8c1.4-0.8,2.3-2.2,3-3.6c34.6-60.5,43.7-132.8,25.3-199
			c-9.9-35.5-27.6-70-27.2-106.7"/>
	</g>
</g>
<g>
	<defs>
		<filter id="Adobe_OpacityMaskFilter_13_" filterUnits="userSpaceOnUse" x="145.4" y="238.8" width="48.1" height="193.1">
			<feFlood  style="flood-color:white;flood-opacity:1" result="back"/>
			<feBlend  in="SourceGraphic" in2="back" mode="normal"/>
		</filter>
	</defs>
	<mask maskUnits="userSpaceOnUse" x="145.4" y="238.8" width="48.1" height="193.1" id="SVGID_31_">
		<g class="st50">
			<image style="overflow:visible;" width="53" height="198" xlink:href="81646394.jpg"  transform="matrix(1 0 0 1 143 236.8)">
			</image>
		</g>
	</mask>
	<g class="st51">
		
			<linearGradient id="SVGID_32_" gradientUnits="userSpaceOnUse" x1="734.478" y1="335.3898" x2="782.5965" y2="335.3898" gradientTransform="matrix(-1 0 0 1 928 0)">
			<stop  offset="0.1336" style="stop-color:#070606;stop-opacity:0.3"/>
			<stop  offset="1" style="stop-color:#070606;stop-opacity:0"/>
		</linearGradient>
		<path class="st52" d="M165.6,238.8c1.3,14.4,2.6,28.8,2.7,43.3c0.1,15.6-2.2,33.3-15.9,42.7c6.4,3,13.8,7.6,12.9,14.1
			c-0.9,7-10.2,9.6-17.1,12.8c-1.1,0.5-2.3,1.2-2.7,2.3c-0.4,1,0.1,2.2,0.6,3.2c7.9,17.4,14,37.2,6.6,54.7c-2.6,6.2-7,12.4-6.1,19
			c6,0.3,12,0.6,18,0.9c2.3-6.9,8.5-12,13.5-17.6c6.7-7.6,11.5-16.7,13.7-26.3c3.5-14.8,1-30.2-1.5-45.2
			c-5.6-34-11.3-68.1-21.7-101.1"/>
	</g>
</g>
<g class="st53">
	<linearGradient id="SVGID_33_" gradientUnits="userSpaceOnUse" x1="722.7444" y1="180.4473" x2="737.126" y2="180.4473">
		<stop  offset="0" style="stop-color:#FFFFFF;stop-opacity:0.3"/>
		<stop  offset="1" style="stop-color:#FFFFFF;stop-opacity:0"/>
	</linearGradient>
	<path class="st54" d="M737.1,252.2c-2.4-19.2-4.8-38.6-4.4-57.9c0.5-26.7,6.3-53.8,0.5-80c-0.6-2.9-3.1-6.6-6-5.3
		c2,9.9,3.9,20,3.1,30.1c-0.7,9.8-4.1,19.3-5.9,29.1c-5.2,28,2.5,56.5,10.1,84.1"/>
</g>
<g class="st53">
	
		<linearGradient id="SVGID_34_" gradientUnits="userSpaceOnUse" x1="806.1987" y1="180.4473" x2="820.5803" y2="180.4473" gradientTransform="matrix(-1 0 0 1 918 0)">
		<stop  offset="0" style="stop-color:#FFFFFF;stop-opacity:0.3"/>
		<stop  offset="1" style="stop-color:#FFFFFF;stop-opacity:0"/>
	</linearGradient>
	<path class="st55" d="M97.4,252.2c2.4-19.2,4.8-38.6,4.4-57.9c-0.5-26.7-6.3-53.8-0.5-80c0.6-2.9,3.1-6.6,6-5.3
		c-2,9.9-3.9,20-3.1,30.1c0.7,9.8,4.1,19.3,5.9,29.1c5.2,28-2.5,56.5-10.1,84.1"/>
</g>
<g>
	<defs>
		<filter id="Adobe_OpacityMaskFilter_14_" filterUnits="userSpaceOnUse" x="659.1" y="236.5" width="48.1" height="193.1">
			<feFlood  style="flood-color:white;flood-opacity:1" result="back"/>
			<feBlend  in="SourceGraphic" in2="back" mode="normal"/>
		</filter>
	</defs>
	<mask maskUnits="userSpaceOnUse" x="659.1" y="236.5" width="48.1" height="193.1" id="SVGID_35_">
		<g class="st56">
			<image style="overflow:visible;" width="53" height="198" xlink:href="8164638C.jpg"  transform="matrix(1 0 0 1 657 233.8)">
			</image>
		</g>
	</mask>
	<g class="st57">
		<defs>
			<filter id="Adobe_OpacityMaskFilter_15_" filterUnits="userSpaceOnUse" x="659.1" y="236.5" width="48.1" height="193.1">
				<feFlood  style="flood-color:white;flood-opacity:1" result="back"/>
				<feBlend  in="SourceGraphic" in2="back" mode="normal"/>
			</filter>
		</defs>
		<mask maskUnits="userSpaceOnUse" x="659.1" y="236.5" width="48.1" height="193.1" id="SVGID_35_">
			<g class="st58">
				<image style="overflow:visible;" width="53" height="198" xlink:href="8164638D.jpg"  transform="matrix(1 0 0 1 657 233.8)">
				</image>
			</g>
		</mask>
		<g>
			<linearGradient id="SVGID_36_" gradientUnits="userSpaceOnUse" x1="659.0757" y1="333.0303" x2="707.1943" y2="333.0303">
				<stop  offset="0.1336" style="stop-color:#070606;stop-opacity:0.3"/>
				<stop  offset="1" style="stop-color:#070606;stop-opacity:0"/>
			</linearGradient>
			<path class="st59" d="M687,236.5c-1.3,14.4-2.6,28.8-2.7,43.3c-0.1,15.6,2.2,33.3,15.9,42.7c-6.4,3-13.8,7.6-12.9,14.1
				c0.9,7,10.2,9.6,17.1,12.8c1.1,0.5,2.3,1.2,2.7,2.3c0.4,1-0.1,2.2-0.6,3.2c-7.9,17.4-14,37.2-6.6,54.7c2.6,6.2,7,12.4,6.1,19
				c-6,0.3-12,0.6-18,0.9c-2.3-6.9-8.5-12-13.5-17.6c-6.7-7.6-11.5-16.7-13.7-26.3c-3.5-14.8-1-30.2,1.5-45.2
				c5.6-34,11.3-68.1,21.7-101.1"/>
		</g>
	</g>
</g>
<linearGradient id="SVGID_37_" gradientUnits="userSpaceOnUse" x1="327.2802" y1="101.3863" x2="521.5502" y2="101.3863">
	<stop  offset="0" style="stop-color:#FFFFFF"/>
	<stop  offset="0.2497" style="stop-color:#D2D2D2"/>
	<stop  offset="0.6011" style="stop-color:#989898"/>
	<stop  offset="0.8615" style="stop-color:#747474"/>
	<stop  offset="1" style="stop-color:#666666"/>
</linearGradient>
<path class="st60" d="M425.1,133.7c0,0-1.2-7.6,24.9-19.7c26.1-12.1,57-23.9,71.6-44.5c0,0-35,14.2-96,14.4c0,0-62.7,1.3-98.3-14.9
	c0,0,10.5,14.8,30.7,24.7S416.1,116,425.1,133.7z"/>
<radialGradient id="SVGID_38_" cx="674.457" cy="38.6149" r="69.0993" gradientTransform="matrix(1.2894 0 0 1.1798 -445.4276 -1.9817)" gradientUnits="userSpaceOnUse">
	<stop  offset="0" style="stop-color:#000000;stop-opacity:0"/>
	<stop  offset="0.1171" style="stop-color:#030303;stop-opacity:0"/>
	<stop  offset="0.1875" style="stop-color:#0B0B0B;stop-opacity:0"/>
	<stop  offset="0.2456" style="stop-color:#191919;stop-opacity:0"/>
	<stop  offset="0.297" style="stop-color:#2E2E2E;stop-opacity:0"/>
	<stop  offset="0.344" style="stop-color:#484848;stop-opacity:0"/>
	<stop  offset="0.3877" style="stop-color:#686868;stop-opacity:0"/>
	<stop  offset="0.429" style="stop-color:#8F8F8F;stop-opacity:0"/>
	<stop  offset="0.4683" style="stop-color:#BBBBBB;stop-opacity:0"/>
	<stop  offset="0.5047" style="stop-color:#EDEDED;stop-opacity:0"/>
	<stop  offset="0.517" style="stop-color:#FFFFFF;stop-opacity:0"/>
	<stop  offset="0.5619" style="stop-color:#F1F1F1;stop-opacity:2.785662e-02"/>
	<stop  offset="0.6461" style="stop-color:#CECDCD;stop-opacity:8.015504e-02"/>
	<stop  offset="0.7606" style="stop-color:#949393;stop-opacity:0.1513"/>
	<stop  offset="0.8995" style="stop-color:#454444;stop-opacity:0.2376"/>
	<stop  offset="1" style="stop-color:#070606;stop-opacity:0.3"/>
</radialGradient>
<path class="st61" d="M305.3,17.2c-1.2-0.8-2.3-1-2.9-0.5c-0.1,0.1-0.1,0.2-0.2,0.3c-0.1,0.1-0.1,0.2-0.2,0.3
	c-0.1,0.2-0.1,0.4-0.2,0.7c-0.1,0.9,0,2.3,0.4,4.3c0.1,0.5,0.2,1,0.4,1.5c0.2,0.9,0.5,1.9,0.9,3c0.1,0.2,0.1,0.4,0.2,0.7
	c0.2,0.7,0.5,1.4,0.8,2.2c0.2,0.5,0.4,1,0.6,1.6c0.2,0.5,0.4,1.1,0.6,1.7c0.8,2,1.7,4.3,2.8,6.8c0.5,1.1,1,2.3,1.5,3.4
	c0.2,0.3,0.3,0.7,0.5,1c1,1.9,2.2,4.3,3.7,6.9c0.5,0.2,1,0.4,1.5,0.7c0.5,0.2,0.9,0.4,1.4,0.6c0.3,0.1,0.5,0.2,0.8,0.3
	c0.5,0.2,1,0.4,1.4,0.6c0.3,0.1,0.6,0.2,0.8,0.3c0.5,0.2,0.9,0.4,1.4,0.5c0.3,0.1,0.7,0.3,1,0.4c22.3,8.6,55.1,16.3,100.8,16.3h1.6
	c45.7,0,78.5-7.8,100.8-16.3c0.3-0.1,0.7-0.3,1-0.4c0.5-0.2,0.9-0.4,1.4-0.5c0.3-0.1,0.6-0.2,0.8-0.3c0.5-0.2,1-0.4,1.4-0.6
	c0.3-0.1,0.5-0.2,0.8-0.3c0.5-0.2,0.9-0.4,1.4-0.6c0.5-0.2,1-0.4,1.5-0.6c1.5-2.6,2.7-5,3.7-6.9c0.2-0.3,0.3-0.7,0.5-1
	c0.7-1.6,1.2-2.7,1.4-3.2c0-0.1,0.1-0.1,0.1-0.2c1.1-2.5,2-4.7,2.8-6.8c0.2-0.6,0.4-1.1,0.6-1.7c0.2-0.5,0.4-1.1,0.6-1.6
	c0.3-0.8,0.5-1.5,0.8-2.2c0.1-0.2,0.2-0.4,0.2-0.7c0.4-1.1,0.7-2.1,0.9-3c0.1-0.5,0.3-1,0.4-1.5c0.4-1.9,0.5-3.3,0.4-4.3
	c0-0.3-0.1-0.5-0.2-0.7c0-0.1-0.1-0.2-0.2-0.3c-0.1-0.1-0.1-0.2-0.2-0.3c-0.6-0.6-1.7-0.3-2.9,0.5c-0.1,0.1-0.2,0.1-0.3,0.2v0h0l0,0
	c-12.8,9.4-48.6,28.5-117.9,28.5h-1.5c-69.3-0.1-105.1-19.1-117.9-28.5c0,0,0,0,0,0v0C305.5,17.3,305.4,17.3,305.3,17.2z"/>
<path id="SVGID_x5F_39_x5F_" class="st62" d="M327.2,66.3C327.2,66.3,327.2,66.3,327.2,66.3c27.4,10.1,60.3,15.3,97.9,15.3l0.6,0
	l0.2,0c0.1,0,0.2,0,0.3,0h0.6c37.5,0,70.4-5.2,97.9-15.3l0,0"/>
<text class="st39"><textPath  xlink:href="#SVGID_x5F_39_x5F_" startOffset="0%">
<tspan  style="fill:#CCCCCC; font-family:'LucidaSansUnicode'; font-size:8.2584px; letter-spacing:86.9;">Qomba - Qomba - Qomba - Qomba</tspan></textPath>
</text>
<path class="st63" d="M628.9,871.9c-5,7.7-19,8.9-32.2,3c0.4,0.2,0.7,0.4,1.1,0.6c14.1,7.5,29.8,6.9,35.2-1.3
	c5.1-7.8-1.1-19.8-13.9-27.3C629.1,854.4,633.5,864.8,628.9,871.9z"/>
<path class="st63" d="M621.8,868.1c-4.6,6.4-16.6,7-27.7,1.5c0.3,0.2,0.6,0.4,0.9,0.6c11.7,6.9,25.2,6.9,30.2,0
	c4.7-6.5-0.2-16.9-10.8-23.9C622.7,853.1,626,862.1,621.8,868.1z"/>
<path class="st63" d="M645.8,894.5c-0.6,0.4-1.1,0.7-1.6,0.9c-0.5,0.2-1.1,0.3-1.8,0.3c-0.6,0-1.1-0.1-1.6-0.3
	c-0.5-0.2-0.8-0.5-1-0.9c-0.2-0.4-0.4-0.8-0.4-1.2c0-0.6,0.2-1.1,0.6-1.5c0.4-0.4,1-0.7,1.7-0.8c0.1,0,0.5-0.1,1.1-0.2
	c0.6-0.1,1.1-0.2,1.5-0.3c0.4-0.1,0.9-0.2,1.4-0.3c0-0.6-0.2-1-0.4-1.2c-0.2-0.3-0.7-0.4-1.4-0.4c-0.6,0-1,0.1-1.3,0.2
	c-0.3,0.1-0.6,0.4-0.8,0.7c-0.2,0.3-0.4,0.5-0.5,0.6c-0.1,0.1-0.3,0.1-0.6,0.1c-0.3,0-0.5-0.1-0.7-0.2c-0.2-0.2-0.3-0.3-0.3-0.6
	c0-0.4,0.1-0.7,0.4-1.1c0.3-0.3,0.8-0.6,1.4-0.9c0.6-0.2,1.4-0.3,2.3-0.3c1,0,1.8,0.1,2.4,0.3c0.6,0.2,1,0.6,1.2,1
	c0.2,0.5,0.4,1.1,0.4,1.9c0,0.5,0,0.9,0,1.3c0,0.3,0,0.7,0,1.2c0,0.4,0.1,0.8,0.2,1.2c0.1,0.4,0.2,0.7,0.2,0.8
	c0,0.2-0.1,0.4-0.3,0.6c-0.2,0.2-0.5,0.3-0.8,0.3c-0.2,0-0.5-0.1-0.7-0.3C646.3,895.2,646.1,894.9,645.8,894.5z M645.7,891.5
	c-0.3,0.1-0.8,0.2-1.5,0.4c-0.7,0.1-1.1,0.2-1.4,0.3c-0.3,0.1-0.5,0.2-0.7,0.3c-0.2,0.2-0.3,0.4-0.3,0.7c0,0.3,0.1,0.6,0.4,0.8
	c0.3,0.2,0.6,0.3,1.1,0.3c0.5,0,0.9-0.1,1.3-0.3c0.4-0.2,0.7-0.4,0.9-0.7c0.2-0.3,0.3-0.8,0.3-1.6V891.5z"/>
<path class="st63" d="M631.5,885.2v3.2c0.4-0.4,0.9-0.7,1.3-0.9c0.5-0.2,1-0.3,1.7-0.3c0.8,0,1.5,0.2,2,0.5c0.6,0.3,1,0.8,1.4,1.4
	c0.3,0.6,0.5,1.4,0.5,2.2c0,0.6-0.1,1.2-0.3,1.8c-0.2,0.5-0.4,1-0.8,1.4c-0.3,0.4-0.8,0.7-1.2,0.9c-0.5,0.2-1,0.3-1.6,0.3
	c-0.4,0-0.7,0-1-0.1c-0.3-0.1-0.6-0.2-0.8-0.3c-0.2-0.1-0.4-0.3-0.6-0.4c-0.2-0.1-0.4-0.3-0.6-0.6v0.2c0,0.4-0.1,0.7-0.3,0.9
	c-0.2,0.2-0.5,0.3-0.8,0.3c-0.3,0-0.6-0.1-0.8-0.3c-0.2-0.2-0.3-0.5-0.3-0.9v-9.2c0-0.4,0.1-0.8,0.3-1c0.2-0.2,0.5-0.3,0.8-0.3
	c0.4,0,0.6,0.1,0.8,0.3C631.4,884.6,631.5,884.9,631.5,885.2z M631.6,891.5c0,0.8,0.2,1.5,0.6,1.9c0.4,0.4,1,0.7,1.7,0.7
	c0.6,0,1.1-0.2,1.5-0.7c0.4-0.5,0.6-1.1,0.6-2c0-0.6-0.1-1-0.3-1.4c-0.2-0.4-0.4-0.7-0.8-0.9c-0.3-0.2-0.7-0.3-1.1-0.3
	c-0.4,0-0.8,0.1-1.2,0.3c-0.3,0.2-0.6,0.5-0.8,1C631.7,890.4,631.6,890.9,631.6,891.5z"/>
<path class="st63" d="M622,891.6v2.8c0,0.4-0.1,0.8-0.3,1c-0.2,0.2-0.5,0.3-0.9,0.3c-0.4,0-0.6-0.1-0.9-0.3c-0.2-0.2-0.3-0.6-0.3-1
	V891c0-0.5,0-0.9-0.1-1.2c0-0.3-0.1-0.5-0.3-0.7c-0.2-0.2-0.5-0.3-0.8-0.3c-0.8,0-1.3,0.2-1.5,0.7c-0.2,0.5-0.4,1.2-0.4,2v2.9
	c0,0.4-0.1,0.8-0.3,1c-0.2,0.2-0.5,0.3-0.9,0.3c-0.4,0-0.6-0.1-0.9-0.3c-0.2-0.2-0.3-0.6-0.3-1v-6c0-0.4,0.1-0.7,0.3-0.9
	c0.2-0.2,0.5-0.3,0.8-0.3c0.3,0,0.6,0.1,0.8,0.3c0.2,0.2,0.3,0.5,0.3,0.8v0.2c0.4-0.4,0.8-0.8,1.3-1c0.5-0.2,1-0.3,1.5-0.3
	c0.6,0,1.1,0.1,1.5,0.3c0.4,0.2,0.8,0.5,1,1c0.4-0.4,0.8-0.8,1.3-1c0.5-0.2,1-0.3,1.5-0.3c0.6,0,1.2,0.1,1.7,0.3
	c0.5,0.2,0.8,0.5,1,1c0.2,0.4,0.3,1,0.3,1.8v4.1c0,0.4-0.1,0.8-0.3,1c-0.2,0.2-0.5,0.3-0.9,0.3c-0.4,0-0.6-0.1-0.9-0.3
	c-0.2-0.2-0.3-0.6-0.3-1v-3.5c0-0.5,0-0.8-0.1-1.1c0-0.3-0.2-0.5-0.3-0.7c-0.2-0.2-0.5-0.3-0.9-0.3c-0.3,0-0.6,0.1-0.9,0.2
	c-0.3,0.2-0.5,0.4-0.6,0.7C622.1,890.1,622,890.7,622,891.6z"/>
<path class="st63" d="M612.7,891.5c0,0.6-0.1,1.2-0.3,1.7c-0.2,0.5-0.5,1-0.9,1.4c-0.4,0.4-0.9,0.7-1.5,0.9
	c-0.6,0.2-1.2,0.3-1.9,0.3c-0.7,0-1.3-0.1-1.9-0.3c-0.6-0.2-1.1-0.5-1.5-0.9c-0.4-0.4-0.7-0.8-0.9-1.4c-0.2-0.5-0.3-1.1-0.3-1.7
	c0-0.6,0.1-1.2,0.3-1.8c0.2-0.5,0.5-1,0.9-1.4c0.4-0.4,0.9-0.7,1.5-0.9c0.6-0.2,1.2-0.3,1.9-0.3c0.7,0,1.3,0.1,1.9,0.3
	c0.6,0.2,1.1,0.5,1.5,0.9c0.4,0.4,0.7,0.8,0.9,1.4C612.6,890.2,612.7,890.8,612.7,891.5z M610.4,891.5c0-0.9-0.2-1.5-0.6-2
	c-0.4-0.5-1-0.7-1.7-0.7c-0.5,0-0.9,0.1-1.2,0.3c-0.3,0.2-0.6,0.5-0.8,0.9c-0.2,0.4-0.3,0.9-0.3,1.5c0,0.6,0.1,1,0.3,1.4
	c0.2,0.4,0.5,0.7,0.8,0.9c0.3,0.2,0.8,0.3,1.2,0.3c0.7,0,1.3-0.2,1.7-0.7C610.2,893,610.4,892.3,610.4,891.5z"/>
<path class="st63" d="M600.7,894.1c0.4,0.2,0.8,0.4,1.2,0.7c0.4,0.2,0.7,0.4,0.9,0.5c0.1,0.1,0.2,0.3,0.2,0.5c0,0.2-0.1,0.3-0.3,0.5
	c-0.2,0.2-0.4,0.2-0.6,0.2c-0.2,0-0.4-0.1-0.7-0.2c-0.3-0.1-0.6-0.3-1-0.5c-0.4-0.2-0.8-0.5-1.2-0.8c-0.8,0.4-1.8,0.6-3,0.6
	c-1,0-1.9-0.1-2.6-0.4c-0.8-0.3-1.4-0.7-1.9-1.2c-0.5-0.5-0.9-1.2-1.2-1.9c-0.3-0.7-0.4-1.5-0.4-2.4c0-0.9,0.1-1.7,0.4-2.4
	c0.3-0.7,0.7-1.3,1.2-1.9c0.5-0.5,1.2-0.9,1.9-1.2c0.8-0.3,1.6-0.4,2.6-0.4c1.3,0,2.4,0.2,3.4,0.7c0.9,0.5,1.6,1.2,2.1,2
	c0.5,0.9,0.7,1.9,0.7,3.1C602.4,891.7,601.8,893.1,600.7,894.1z M598.8,892.9c0.4-0.4,0.6-0.8,0.8-1.3c0.2-0.5,0.3-1.1,0.3-1.7
	c0-0.8-0.1-1.5-0.4-2.2c-0.3-0.6-0.7-1.1-1.3-1.4c-0.5-0.3-1.2-0.5-1.9-0.5c-0.5,0-1,0.1-1.4,0.3c-0.4,0.2-0.8,0.4-1.1,0.8
	c-0.3,0.3-0.6,0.8-0.7,1.3c-0.2,0.5-0.3,1.1-0.3,1.7c0,1.3,0.3,2.3,1,3c0.7,0.7,1.5,1.1,2.6,1.1c0.4,0,0.9-0.1,1.3-0.2
	c-0.3-0.2-0.6-0.4-1-0.5c-0.4-0.2-0.7-0.3-0.8-0.4c-0.2-0.1-0.2-0.2-0.2-0.4c0-0.2,0.1-0.3,0.2-0.4c0.1-0.1,0.3-0.2,0.5-0.2
	C596.7,891.7,597.5,892.1,598.8,892.9z"/>
<path class="st64" d="M427.9,102.4c-2.4,3.4-8.8,3.7-14.6,0.8c0.2,0.1,0.3,0.2,0.5,0.3c6.2,3.7,13.3,3.7,15.9,0
	c2.5-3.5-0.1-9.1-5.7-12.8C428.4,94.4,430.2,99.2,427.9,102.4z"/>
<path class="st64" d="M431.6,104.4c-2.7,4.1-10,4.7-17,1.6c0.2,0.1,0.4,0.2,0.6,0.3c7.4,4,15.7,3.7,18.5-0.7
	c2.7-4.2-0.6-10.6-7.3-14.6C431.8,95.1,434.1,100.6,431.6,104.4z"/>
<path class="st64" d="M416.8,116.3c0.2,0.1,0.4,0.2,0.6,0.4c0.2,0.1,0.4,0.2,0.5,0.3c0.1,0.1,0.1,0.2,0.1,0.3c0,0.1,0,0.2-0.1,0.3
	c-0.1,0.1-0.2,0.1-0.3,0.1c-0.1,0-0.2,0-0.4-0.1c-0.1-0.1-0.3-0.1-0.5-0.3c-0.2-0.1-0.4-0.3-0.6-0.4c-0.4,0.2-1,0.3-1.6,0.3
	c-0.5,0-1-0.1-1.4-0.2c-0.4-0.2-0.7-0.4-1-0.6c-0.3-0.3-0.5-0.6-0.6-1c-0.1-0.4-0.2-0.8-0.2-1.3c0-0.5,0.1-0.9,0.2-1.3
	c0.1-0.4,0.4-0.7,0.6-1c0.3-0.3,0.6-0.5,1-0.6c0.4-0.1,0.8-0.2,1.4-0.2c0.7,0,1.3,0.1,1.8,0.4c0.5,0.3,0.9,0.6,1.1,1.1
	c0.3,0.5,0.4,1,0.4,1.7C417.7,115,417.4,115.8,416.8,116.3z M415.8,115.7c0.2-0.2,0.3-0.4,0.4-0.7c0.1-0.3,0.1-0.6,0.1-0.9
	c0-0.4-0.1-0.8-0.2-1.2c-0.2-0.3-0.4-0.6-0.7-0.7c-0.3-0.2-0.6-0.2-1-0.2c-0.3,0-0.5,0-0.7,0.1c-0.2,0.1-0.4,0.2-0.6,0.4
	c-0.2,0.2-0.3,0.4-0.4,0.7c-0.1,0.3-0.1,0.6-0.1,0.9c0,0.7,0.2,1.2,0.5,1.6c0.4,0.4,0.8,0.6,1.3,0.6c0.2,0,0.5,0,0.7-0.1
	c-0.1-0.1-0.3-0.2-0.5-0.3c-0.2-0.1-0.4-0.2-0.4-0.2c-0.1-0.1-0.1-0.1-0.1-0.2c0-0.1,0-0.2,0.1-0.2c0.1-0.1,0.2-0.1,0.2-0.1
	C414.7,115,415.1,115.2,415.8,115.7z"/>
<path class="st64" d="M423.1,114.9c0,0.3-0.1,0.6-0.2,0.9c-0.1,0.3-0.3,0.5-0.5,0.7c-0.2,0.2-0.5,0.4-0.8,0.5
	c-0.3,0.1-0.6,0.2-1,0.2c-0.4,0-0.7-0.1-1-0.2c-0.3-0.1-0.6-0.3-0.8-0.5c-0.2-0.2-0.4-0.4-0.5-0.7c-0.1-0.3-0.2-0.6-0.2-0.9
	c0-0.3,0.1-0.7,0.2-0.9c0.1-0.3,0.3-0.5,0.5-0.7c0.2-0.2,0.5-0.4,0.8-0.5c0.3-0.1,0.6-0.2,1-0.2c0.4,0,0.7,0.1,1,0.2
	c0.3,0.1,0.6,0.3,0.8,0.5c0.2,0.2,0.4,0.4,0.5,0.7C423.1,114.2,423.1,114.5,423.1,114.9z M421.9,114.9c0-0.5-0.1-0.8-0.3-1.1
	c-0.2-0.3-0.5-0.4-0.9-0.4c-0.2,0-0.5,0.1-0.6,0.2c-0.2,0.1-0.3,0.3-0.4,0.5c-0.1,0.2-0.1,0.5-0.1,0.8c0,0.3,0,0.6,0.1,0.8
	c0.1,0.2,0.2,0.4,0.4,0.5c0.2,0.1,0.4,0.2,0.6,0.2c0.4,0,0.7-0.1,0.9-0.4C421.8,115.7,421.9,115.3,421.9,114.9z"/>
<path class="st64" d="M428,115v1.5c0,0.2-0.1,0.4-0.2,0.5c-0.1,0.1-0.3,0.2-0.5,0.2c-0.2,0-0.3-0.1-0.5-0.2
	c-0.1-0.1-0.2-0.3-0.2-0.5v-1.8c0-0.3,0-0.5,0-0.7c0-0.2-0.1-0.3-0.2-0.4c-0.1-0.1-0.2-0.2-0.4-0.2c-0.4,0-0.7,0.1-0.8,0.4
	c-0.1,0.3-0.2,0.6-0.2,1.1v1.5c0,0.2-0.1,0.4-0.2,0.5c-0.1,0.1-0.3,0.2-0.5,0.2c-0.2,0-0.3-0.1-0.5-0.2c-0.1-0.1-0.2-0.3-0.2-0.5
	v-3.2c0-0.2,0.1-0.4,0.2-0.5c0.1-0.1,0.2-0.2,0.4-0.2c0.2,0,0.3,0.1,0.4,0.2c0.1,0.1,0.2,0.2,0.2,0.4v0.1c0.2-0.2,0.4-0.4,0.7-0.5
	c0.2-0.1,0.5-0.2,0.8-0.2c0.3,0,0.6,0.1,0.8,0.2c0.2,0.1,0.4,0.3,0.6,0.5c0.2-0.2,0.4-0.4,0.7-0.5c0.2-0.1,0.5-0.2,0.8-0.2
	c0.3,0,0.6,0.1,0.9,0.2c0.2,0.1,0.4,0.3,0.5,0.5c0.1,0.2,0.2,0.5,0.2,1v2.2c0,0.2-0.1,0.4-0.2,0.5c-0.1,0.1-0.3,0.2-0.5,0.2
	c-0.2,0-0.3-0.1-0.5-0.2c-0.1-0.1-0.2-0.3-0.2-0.5v-1.9c0-0.2,0-0.4,0-0.6c0-0.1-0.1-0.3-0.2-0.4c-0.1-0.1-0.3-0.1-0.5-0.1
	c-0.2,0-0.3,0-0.5,0.1c-0.1,0.1-0.3,0.2-0.3,0.4C428.1,114.2,428,114.5,428,115z"/>
<path class="st64" d="M433,111.6v1.7c0.2-0.2,0.5-0.4,0.7-0.5c0.2-0.1,0.5-0.2,0.9-0.2c0.4,0,0.8,0.1,1.1,0.3
	c0.3,0.2,0.5,0.4,0.7,0.8c0.2,0.3,0.3,0.7,0.3,1.2c0,0.3,0,0.7-0.1,0.9c-0.1,0.3-0.2,0.5-0.4,0.7c-0.2,0.2-0.4,0.4-0.7,0.5
	c-0.3,0.1-0.5,0.2-0.9,0.2c-0.2,0-0.4,0-0.5-0.1c-0.2,0-0.3-0.1-0.4-0.2c-0.1-0.1-0.2-0.1-0.3-0.2c-0.1-0.1-0.2-0.2-0.3-0.3v0.1
	c0,0.2-0.1,0.4-0.2,0.5c-0.1,0.1-0.3,0.2-0.4,0.2c-0.2,0-0.3-0.1-0.4-0.2c-0.1-0.1-0.2-0.3-0.2-0.5v-4.9c0-0.2,0.1-0.4,0.2-0.5
	c0.1-0.1,0.2-0.2,0.4-0.2c0.2,0,0.3,0.1,0.4,0.2C433,111.2,433,111.4,433,111.6z M433.1,114.9c0,0.4,0.1,0.8,0.3,1
	c0.2,0.2,0.5,0.4,0.9,0.4c0.3,0,0.6-0.1,0.8-0.4c0.2-0.2,0.3-0.6,0.3-1.1c0-0.3,0-0.6-0.1-0.8c-0.1-0.2-0.2-0.4-0.4-0.5
	c-0.2-0.1-0.4-0.2-0.6-0.2c-0.2,0-0.4,0.1-0.6,0.2c-0.2,0.1-0.3,0.3-0.4,0.5C433.1,114.3,433.1,114.6,433.1,114.9z"/>
<path class="st64" d="M440.6,116.5c-0.3,0.2-0.6,0.4-0.9,0.5c-0.3,0.1-0.6,0.2-0.9,0.2c-0.3,0-0.6-0.1-0.8-0.2
	c-0.2-0.1-0.4-0.3-0.6-0.5c-0.1-0.2-0.2-0.4-0.2-0.6c0-0.3,0.1-0.6,0.3-0.8c0.2-0.2,0.5-0.4,0.9-0.4c0.1,0,0.3-0.1,0.6-0.1
	c0.3-0.1,0.6-0.1,0.8-0.2c0.2,0,0.5-0.1,0.7-0.2c0-0.3-0.1-0.5-0.2-0.7c-0.1-0.1-0.4-0.2-0.7-0.2c-0.3,0-0.5,0-0.7,0.1
	c-0.2,0.1-0.3,0.2-0.4,0.4c-0.1,0.2-0.2,0.3-0.2,0.3c0,0.1-0.1,0.1-0.3,0.1c-0.1,0-0.3,0-0.4-0.1c-0.1-0.1-0.1-0.2-0.1-0.3
	c0-0.2,0.1-0.4,0.2-0.6c0.2-0.2,0.4-0.3,0.7-0.5c0.3-0.1,0.7-0.2,1.2-0.2c0.5,0,1,0.1,1.3,0.2c0.3,0.1,0.5,0.3,0.7,0.6
	c0.1,0.3,0.2,0.6,0.2,1c0,0.3,0,0.5,0,0.7c0,0.2,0,0.4,0,0.6c0,0.2,0,0.4,0.1,0.7c0.1,0.2,0.1,0.4,0.1,0.4c0,0.1-0.1,0.2-0.2,0.3
	c-0.1,0.1-0.3,0.1-0.4,0.1c-0.1,0-0.3-0.1-0.4-0.2C440.8,116.9,440.7,116.7,440.6,116.5z M440.5,114.9c-0.2,0.1-0.4,0.1-0.8,0.2
	c-0.3,0.1-0.6,0.1-0.7,0.1c-0.1,0-0.3,0.1-0.4,0.2c-0.1,0.1-0.2,0.2-0.2,0.4c0,0.2,0.1,0.3,0.2,0.4c0.1,0.1,0.3,0.2,0.6,0.2
	c0.2,0,0.5,0,0.7-0.1c0.2-0.1,0.4-0.2,0.5-0.4c0.1-0.2,0.2-0.5,0.2-0.8V114.9z"/>
<g class="st65">
	<path class="st66" d="M186.1,871.9c41.1,5.1,67.7-1.5,105.6-1.4c57.9,0.3,95.5,5,129,5.6c46,0.9,95.7-6.7,134.4-6
		c53.3,1,68.6,5.2,100.3,1.1"/>
	<path class="st67" d="M189.4,849.9c40.5,5,66.7-1.5,104.1-1.3c57.1,0.3,94.2,4.8,127.3,5.4c45.4,0.8,94.2-6.5,132.2-5.8
		c52.7,1,67.9,5.1,98.8,1.2"/>
	<path class="st68" d="M192.8,827.9c39.9,4.8,65.7-1.5,102.6-1.3c56.3,0.3,93,4.6,125.6,5.2c44.7,0.8,92.6-6.3,130.1-5.5
		c52.2,1,67.3,4.9,97.4,1.2"/>
	<path class="st69" d="M196.2,805.9c39.4,4.6,64.8-1.4,101.1-1.3c55.4,0.3,91.8,4.5,123.9,5c44,0.8,91.1-6,128-5.3
		c51.6,1,66.6,4.8,95.9,1.3"/>
	<path class="st70" d="M199.6,783.9c38.8,4.5,63.8-1.4,99.5-1.2c54.6,0.3,90.6,4.3,122.2,4.8c43.3,0.8,89.5-5.8,125.9-5.1
		c51,0.9,66,4.7,94.5,1.3"/>
	<path class="st71" d="M203,761.9c38.2,4.3,62.8-1.4,98-1.2c53.7,0.3,89.4,4.1,120.5,4.7c42.7,0.8,88-5.5,123.8-4.9
		c50.5,0.9,65.3,4.6,93,1.4"/>
	<path class="st72" d="M206.4,739.9c37.6,4.2,61.8-1.3,96.5-1.2c52.9,0.3,88.2,3.9,118.8,4.5c42,0.7,86.4-5.3,121.6-4.7
		c49.9,0.9,64.6,4.5,91.6,1.4"/>
	<path class="st73" d="M209.8,717.9c37.1,4,60.9-1.3,95-1.1c52.1,0.3,86.9,3.7,117.1,4.3c41.3,0.7,84.8-5.1,119.5-4.4
		c49.3,0.9,64,4.3,90.1,1.5"/>
	<path class="st74" d="M213.2,695.9c36.5,3.8,59.9-1.3,93.5-1.1c51.2,0.2,85.7,3.5,115.4,4.1c40.7,0.7,83.3-4.8,117.4-4.2
		c48.8,0.8,63.3,4.2,88.6,1.5"/>
	<path class="st75" d="M216.6,673.9c35.9,3.7,58.9-1.2,91.9-1.1c50.4,0.2,84.5,3.4,113.7,3.9c40,0.7,81.7-4.6,115.3-4
		c48.2,0.8,62.7,4.1,87.2,1.6"/>
	<path class="st76" d="M220,652c35.3,3.5,58-1.2,90.4-1.1c49.5,0.2,83.3,3.2,112,3.7c39.3,0.7,80.2-4.3,113.2-3.8
		c47.6,0.8,62,4,85.7,1.6"/>
	<path class="st77" d="M223.4,630c34.7,3.3,57-1.2,88.9-1c48.7,0.2,82.1,3,110.3,3.5c38.7,0.6,78.6-4.1,111.1-3.6
		c47.1,0.8,61.4,3.9,84.3,1.7"/>
	<path class="st78" d="M226.7,608c34.2,3.2,56-1.1,87.4-1c47.8,0.2,80.8,2.8,108.6,3.3c38,0.6,77-3.9,108.9-3.3
		c46.5,0.8,60.7,3.7,82.8,1.7"/>
	<path class="st79" d="M230.1,586c33.6,3,55.1-1.1,85.9-1c47,0.2,79.6,2.6,106.8,3.1c37.3,0.6,75.5-3.6,106.8-3.1
		c46,0.7,60,3.6,81.4,1.8"/>
	<path class="st80" d="M233.5,564c33,2.9,54.1-1.1,84.3-0.9c46.2,0.2,78.4,2.5,105.1,2.9c36.7,0.6,73.9-3.4,104.7-2.9
		c45.4,0.7,59.4,3.5,79.9,1.8"/>
	<path class="st81" d="M236.9,542c32.4,2.7,53.1-1,82.8-0.9c45.3,0.2,77.2,2.3,103.4,2.7c36,0.6,72.4-3.2,102.6-2.7
		c44.8,0.7,58.7,3.4,78.5,1.9"/>
	<path class="st82" d="M240.3,520c31.9,2.5,52.1-1,81.3-0.9c44.5,0.2,76,2.1,101.7,2.5c35.3,0.5,70.8-2.9,100.5-2.5
		c44.3,0.7,58.1,3.3,77,1.9"/>
	<path class="st83" d="M243.7,498c31.3,2.4,51.2-1,79.8-0.8c43.6,0.2,74.8,1.9,100,2.3c34.7,0.5,69.3-2.7,98.3-2.2
		c43.7,0.6,57.4,3.1,75.5,1.9"/>
	<path class="st84" d="M247.1,476c30.7,2.2,50.2-0.9,78.3-0.8c42.8,0.2,73.5,1.7,98.3,2.1c34,0.5,67.7-2.4,96.2-2
		c43.1,0.6,56.7,3,74.1,2"/>
	<path class="st85" d="M250.5,454c30.1,2.1,49.2-0.9,76.7-0.8c42,0.2,72.3,1.6,96.6,1.9c33.3,0.5,66.1-2.2,94.1-1.8
		c42.6,0.6,56.1,2.9,72.6,2"/>
	<path class="st86" d="M253.9,432c29.6,1.9,48.3-0.9,75.2-0.7c41.1,0.2,71.1,1.4,94.9,1.7c32.7,0.5,64.6-2,92-1.6
		c42,0.6,55.4,2.8,71.2,2.1"/>
	<path class="st87" d="M257.3,410c29,1.7,47.3-0.8,73.7-0.7c40.3,0.2,69.9,1.2,93.2,1.5c32,0.4,63-1.7,89.9-1.4
		c41.5,0.5,54.8,2.7,69.7,2.1"/>
</g>
<g class="st88">
	<g>
		<path class="st89" d="M583.5,36.9c-0.1,0.4-0.2,0.8-0.3,1.2"/>
		<path class="st90" d="M582.5,40.6c-2.2,7.9-5.2,15.7-8.9,23.4"/>
		<path class="st89" d="M573,65.1C573,65.2,573,65.2,573,65.1c-0.2,0.4-0.4,0.8-0.6,1.1"/>
	</g>
</g>
<g class="st88">
	<g>
		<path class="st89" d="M278.8,36.9c0.1,0.4,0.2,0.8,0.3,1.2"/>
		<path class="st90" d="M279.8,40.6c2.2,7.9,5.2,15.7,8.9,23.4"/>
		<path class="st89" d="M289.3,65.1C289.3,65.2,289.3,65.2,289.3,65.1c0.2,0.4,0.4,0.8,0.6,1.1"/>
	</g>
</g>
<path class="st91" d="M169.2,911.7c2.5,1.6,6.6,2.9,11.5,4c4.2,0.9,8.9,1.6,13.9,2.1c4.9,0.6,10,1,14.9,1.3
	c21.9,2.3,55.5-5,97.7-2.8c29.7,1.6,63.7,3.7,101,5.3c2.4,0.1,9.1,0.5,15.7,0.5c7.6,0,15.2-0.5,18.4-0.6c36.1-1.5,69.1-3.6,98-5.1
	c42.3-2.2,75.8,5.1,97.7,2.8c4.8-0.3,10-0.7,14.9-1.3c4.9-0.5,9.7-1.2,13.9-2.1c5-1.1,9.2-2.4,11.7-4.1"/>
<g class="st88">
	<g>
		<line class="st89" x1="35.5" y1="362.8" x2="36.5" y2="363.5"/>
		<path class="st92" d="M38.5,365c0.8,0.5,1.6,1,2.5,1.4l1.2,0.6c0.4,0.2,0.7,0.4,1.1,0.6c10,5.7,33.2,14.9,62.3,22.8l3,0.8
			c18.2,4.9,45.2,11,70.9,12.5"/>
		<line class="st89" x1="180.7" y1="403.7" x2="181.9" y2="403.8"/>
	</g>
</g>
<g class="st88">
	<g>
		<path class="st89" d="M515.4,77.1c-0.4,0.1-0.8,0.2-1.2,0.4"/>
		<path class="st93" d="M511.8,78.2c-25.1,7.3-53.9,11-85.9,11h-1.5c-32.6,0-61.9-3.9-87.3-11.4"/>
		<path class="st89" d="M335.9,77.4c-0.4-0.1-0.8-0.2-1.2-0.4"/>
	</g>
</g>
<g class="st88">
	<g>
		<line class="st89" x1="668.4" y1="403.8" x2="669.6" y2="403.7"/>
		<path class="st92" d="M672.1,403.6c25.3-1.7,51.8-7.6,69.7-12.4c0.6-0.2,3.1-0.8,3.1-0.8c29-7.9,52.2-17.1,62.3-22.8
			c0.3-0.2,0.6-0.3,1-0.5l1.3-0.6c1.3-0.7,2.5-1.4,3.5-2.1"/>
		<line class="st89" x1="813.9" y1="363.5" x2="814.9" y2="362.8"/>
	</g>
</g>
<g class="st88">
	<g>
		<path class="st89" d="M170.6,907.3c0.4,0.2,0.7,0.4,1.1,0.6"/>
		<path class="st94" d="M173.9,908.9c1.8,0.6,3.9,1,6.8,1.6c4.2,0.9,8.9,1.6,13.9,2.1c4.9,0.6,10,1,14.9,1.3
			c21.9,2.3,55.5-5,97.7-2.8c29.7,1.6,63.7,3.7,101,5.3c2.4,0.1,9.1,0.5,15.7,0.5c7.6,0,15.2-0.5,18.4-0.6c36.1-1.5,69.1-3.6,98-5.1
			c42.3-2.2,75.8,5.1,97.7,2.8c4.8-0.3,10-0.7,14.9-1.3c4.9-0.5,9.7-1.2,13.9-2.1c3.8-0.8,7-1.7,9.5-2.9"/>
		<path class="st89" d="M677.4,907.1c0.4-0.2,0.7-0.4,1.1-0.6"/>
	</g>
</g>
<g class="st88">
	<g>
		<path class="st89" d="M138.9,104c0.1,0.4,0.2,0.8,0.1,1.2"/>
		<path class="st95" d="M138.1,107.6c-1.5,2.6-4.4,5-4.4,5c-5,4.5-6.3,12.3-3.2,18.5l1.5,3.1c0.1,0.1,0.1,0.3,0.2,0.4
			c0.4,0.9,0.9,1.8,1.4,2.7"/>
		<path class="st89" d="M134.2,138.4c0.2,0.4,0.4,0.7,0.6,1.1"/>
	</g>
</g>
<g class="st88">
	<g>
		<path class="st89" d="M711.4,104c-0.1,0.4-0.2,0.8-0.1,1.2"/>
		<path class="st96" d="M712.1,107.5c1.5,2.6,4.4,5,4.4,5c5,4.5,6.3,12.3,3.2,18.5l-1.5,3.1c-0.1,0.1-0.1,0.3-0.2,0.4
			c-0.4,0.8-0.8,1.7-1.3,2.6"/>
		<path class="st89" d="M716.1,138.3c-0.2,0.4-0.4,0.7-0.6,1.1"/>
	</g>
</g>
<g class="st88">
	<g>
		<path class="st89" d="M191.6,393.2c0.3-0.3,0.5-0.6,0.8-1"/>
		<path class="st97" d="M193.7,390.1c2.7-5.5,2.3-13,2.1-15.2c-9.5-118.6-40.5-192.4-57.6-228.2"/>
		<path class="st89" d="M137.7,145.5c-0.2-0.4-0.4-0.8-0.5-1.1c0.3-0.2,0.7-0.5,1-0.7"/>
		<path class="st98" d="M140.3,142.3c15.7-9.9,36.4-17.7,47-21.6c2.1-0.8,3.8-1.4,5-1.9l1.4-0.5c0.9-0.3,1.7-0.7,2.4-1
			c34.6-13.9,64.2-29,88.3-44.9"/>
		<path class="st89" d="M285.4,71.7c0.3-0.2,0.7-0.5,1-0.7c0.2,0.4,0.4,0.7,0.6,1.1"/>
		<path class="st99" d="M288.3,74.3c0.3,0.5,0.6,1,0.9,1.5l0.1,0.1c10,15.3,33.4,36.8,61.2,48.1c17.2,6.9,26.3,14.7,26.4,14.8
			l1.6,1.4h42.1h9.1h39.8l2.3,0l1.6-1.4c0.1-0.1,9.2-7.8,26.4-14.8c27.8-11.2,51.2-32.8,61.2-48.1l0.1-0.1c0.5-0.8,1-1.7,1.5-2.5"/>
		<path class="st89" d="M563.3,72.1c0.2-0.4,0.4-0.7,0.6-1.1c0.3,0.2,0.7,0.5,1,0.7"/>
		<path class="st100" d="M567,73.1c23.8,15.6,53.1,30.5,87.2,44.2c0.7,0.3,1.6,0.6,2.4,1l1.4,0.5c1.2,0.5,2.9,1.1,5,1.9
			c10.9,4.1,32.2,12,48,22.3"/>
		<path class="st89" d="M712.1,143.7c0.3,0.2,0.7,0.5,1,0.7c-0.2,0.4-0.4,0.7-0.5,1.1"/>
		<path class="st101" d="M711.5,147.8c-17.2,36.2-47.6,109.7-57,227.1c-0.2,2.3-0.6,10.7,2.7,16.2"/>
		<path class="st89" d="M657.9,392.2c0.2,0.3,0.5,0.7,0.8,1"/>
	</g>
</g>
</svg>
