<?xml version="1.0" encoding="utf-8"?>
<!-- Generator: Adobe Illustrator 24.1.0, SVG Export Plug-In . SVG Version: 6.00 Build 0)  -->
<svg version="1.1" id="Capa_1" xmlns="http://www.w3.org/2000/svg" xmlns:xlink="http://www.w3.org/1999/xlink" x="0px" y="0px"
	 viewBox="0 0 850.4 963.8" style="enable-background:new 0 0 850.4 963.8;" xml:space="preserve">
<style type="text/css">
	.st0{fill:#1D1D1B;}
	.st1{fill:#1E1E1C;}
	.st2{clip-path:url(#SVGID_2_);}
	.st3{fill:#43B28C;}
	.st4{fill:#E22120;stroke:#292A27;stroke-width:0.75;stroke-miterlimit:10;}
	.st5{fill:url(#SVGID_3_);}
	.st6{fill:url(#SVGID_4_);}
	.st7{opacity:0.13;}
	.st8{filter:url(#Adobe_OpacityMaskFilter);}
	.st9{mask:url(#SVGID_5_);}
	.st10{fill:url(#SVGID_6_);}
	.st11{filter:url(#Adobe_OpacityMaskFilter_1_);}
	.st12{mask:url(#SVGID_7_);}
	.st13{fill:url(#SVGID_8_);}
	.st14{filter:url(#Adobe_OpacityMaskFilter_2_);}
	.st15{mask:url(#SVGID_9_);}
	.st16{fill:url(#SVGID_10_);}
	.st17{filter:url(#Adobe_OpacityMaskFilter_3_);}
	.st18{mask:url(#SVGID_11_);}
	.st19{fill:url(#SVGID_12_);}
	.st20{opacity:0.54;}
	.st21{filter:url(#Adobe_OpacityMaskFilter_4_);}
	.st22{mask:url(#SVGID_13_);}
	.st23{filter:url(#Adobe_OpacityMaskFilter_5_);}
	.st24{fill:url(#SVGID_14_);}
	.st25{filter:url(#Adobe_OpacityMaskFilter_6_);}
	.st26{mask:url(#SVGID_15_);}
	.st27{filter:url(#Adobe_OpacityMaskFilter_7_);}
	.st28{fill:url(#SVGID_16_);}
	.st29{filter:url(#Adobe_OpacityMaskFilter_8_);}
	.st30{mask:url(#SVGID_17_);}
	.st31{fill:url(#SVGID_18_);}
	.st32{opacity:0.93;}
	.st33{filter:url(#Adobe_OpacityMaskFilter_9_);}
	.st34{mask:url(#SVGID_19_);}
	.st35{fill:url(#SVGID_20_);}
	.st36{opacity:0.83;}
	.st37{filter:url(#Adobe_OpacityMaskFilter_10_);}
	.st38{mask:url(#SVGID_21_);}
	.st39{fill:url(#SVGID_22_);}
	.st40{filter:url(#Adobe_OpacityMaskFilter_11_);}
	.st41{mask:url(#SVGID_23_);}
	.st42{fill:url(#SVGID_24_);}
	.st43{filter:url(#Adobe_OpacityMaskFilter_12_);}
	.st44{mask:url(#SVGID_25_);}
	.st45{fill:url(#SVGID_26_);}
	.st46{opacity:0.29;}
	.st47{fill:url(#SVGID_27_);}
	.st48{fill:url(#SVGID_28_);}
	.st49{filter:url(#Adobe_OpacityMaskFilter_13_);}
	.st50{mask:url(#SVGID_29_);}
	.st51{filter:url(#Adobe_OpacityMaskFilter_14_);}
	.st52{fill:url(#SVGID_30_);}
	.st53{fill:url(#SVGID_31_);}
	.st54{opacity:0.36;fill:url(#SVGID_32_);}
	.st55{fill:none;}
	.st56{fill:#2F3331;}
	.st57{fill:#FFFFFF;}
	.st58{opacity:0.1;}
	.st59{fill:none;stroke:#FFFFFF;stroke-linecap:round;stroke-miterlimit:10;}
	.st60{fill:none;stroke:#FFFFFF;stroke-width:0.979;stroke-linecap:round;stroke-miterlimit:10;}
	.st61{fill:none;stroke:#FFFFFF;stroke-width:0.958;stroke-linecap:round;stroke-miterlimit:10;}
	.st62{fill:none;stroke:#FFFFFF;stroke-width:0.937;stroke-linecap:round;stroke-miterlimit:10;}
	.st63{fill:none;stroke:#FFFFFF;stroke-width:0.916;stroke-linecap:round;stroke-miterlimit:10;}
	.st64{fill:none;stroke:#FFFFFF;stroke-width:0.895;stroke-linecap:round;stroke-miterlimit:10;}
	.st65{fill:none;stroke:#FFFFFF;stroke-width:0.874;stroke-linecap:round;stroke-miterlimit:10;}
	.st66{fill:none;stroke:#FFFFFF;stroke-width:0.853;stroke-linecap:round;stroke-miterlimit:10;}
	.st67{fill:none;stroke:#FFFFFF;stroke-width:0.832;stroke-linecap:round;stroke-miterlimit:10;}
	.st68{fill:none;stroke:#FFFFFF;stroke-width:0.811;stroke-linecap:round;stroke-miterlimit:10;}
	.st69{fill:none;stroke:#FFFFFF;stroke-width:0.79;stroke-linecap:round;stroke-miterlimit:10;}
	.st70{fill:none;stroke:#FFFFFF;stroke-width:0.769;stroke-linecap:round;stroke-miterlimit:10;}
	.st71{fill:none;stroke:#FFFFFF;stroke-width:0.748;stroke-linecap:round;stroke-miterlimit:10;}
	.st72{fill:none;stroke:#FFFFFF;stroke-width:0.727;stroke-linecap:round;stroke-miterlimit:10;}
	.st73{fill:none;stroke:#FFFFFF;stroke-width:0.706;stroke-linecap:round;stroke-miterlimit:10;}
	.st74{fill:none;stroke:#FFFFFF;stroke-width:0.685;stroke-linecap:round;stroke-miterlimit:10;}
	.st75{fill:none;stroke:#FFFFFF;stroke-width:0.664;stroke-linecap:round;stroke-miterlimit:10;}
	.st76{fill:none;stroke:#FFFFFF;stroke-width:0.643;stroke-linecap:round;stroke-miterlimit:10;}
	.st77{fill:none;stroke:#FFFFFF;stroke-width:0.622;stroke-linecap:round;stroke-miterlimit:10;}
	.st78{fill:none;stroke:#FFFFFF;stroke-width:0.6009;stroke-linecap:round;stroke-miterlimit:10;}
	.st79{fill:none;stroke:#FFFFFF;stroke-width:0.5799;stroke-linecap:round;stroke-miterlimit:10;}
	.st80{fill:none;stroke:#FFFFFF;stroke-width:0.5589;stroke-linecap:round;stroke-miterlimit:10;}
	.st81{opacity:0.5;}
	.st82{fill:none;stroke:#242422;stroke-width:0.5;stroke-linecap:round;stroke-miterlimit:10;}
	.st83{fill:none;stroke:#242422;stroke-width:0.5;stroke-linecap:round;stroke-miterlimit:10;stroke-dasharray:2.6356,2.6356;}
	.st84{fill:none;stroke:#242422;stroke-width:0.5;stroke-linejoin:round;stroke-miterlimit:10;}
	.st85{fill:none;stroke:#242422;stroke-width:0.5;stroke-linecap:round;stroke-miterlimit:10;stroke-dasharray:2.4725,2.4725;}
	.st86{fill:none;stroke:#242422;stroke-width:0.5;stroke-linecap:round;stroke-miterlimit:10;stroke-dasharray:2.4723,2.4723;}
	.st87{fill:none;stroke:#242422;stroke-width:0.5;stroke-linecap:round;stroke-miterlimit:10;stroke-dasharray:2.5011,2.5011;}
	.st88{fill:none;stroke:#242422;stroke-width:0.5;stroke-linecap:round;stroke-miterlimit:10;stroke-dasharray:2.501,2.501;}
	.st89{fill:none;stroke:#242422;stroke-width:0.5;stroke-linecap:round;stroke-miterlimit:10;stroke-dasharray:2.4908,2.4908;}
	.st90{fill:none;stroke:#242422;stroke-width:0.5;stroke-linecap:round;stroke-miterlimit:10;stroke-dasharray:2.4844,2.4844;}
	.st91{fill:none;stroke:#242422;stroke-width:0.5;stroke-linecap:round;stroke-miterlimit:10;stroke-dasharray:2.5262,2.5262;}
	.st92{fill:none;stroke:#242422;stroke-width:0.5;stroke-linecap:round;stroke-miterlimit:10;stroke-dasharray:2.5171,2.5171;}
	.st93{fill:none;stroke:#242422;stroke-width:0.5;stroke-linecap:round;stroke-miterlimit:10;stroke-dasharray:2.5258,2.5258;}
	.st94{fill:none;stroke:#242422;stroke-width:0.5;stroke-linecap:round;stroke-miterlimit:10;stroke-dasharray:2.4845,2.4845;}
</style>
<g id="Remera_cuello_y_puños">
</g>
<g id="Remera_principal">
</g>
<g id="Mangas">
</g>
<g id="Estampa">
</g>
<g id="Banda_Central">
</g>
<path class="st0" d="M657.5,862.4l-13.9-33c0,0-133.3,35.5-438.9,0l-11.1,33C193.6,862.4,429.8,895.4,657.5,862.4z"/>
<path class="st1" d="M185.1,408.1c0,0-3.4,3.8-5.1,5.3c-2.7,2.5-5.7,9.8-8.3,15.5c-0.4,0.8-0.7,2.7-3.4,2.7
	c-36.7-0.8-100-19.8-121.6-30.8c-0.6-0.3-10-4.3-11.2-6.1c-0.8-1.1-0.5-2.3,0-3.5c3.3-8.1,5.5-13.4,5.2-16.8
	c-0.3-3.2-1.8-7.1-1.8-7.2c1.3,1,2.9,2,4.7,2.9c0.4,0.2,0.8,0.4,1.2,0.6c0.3,0.1,0.6,0.3,0.9,0.4c10.5,5.9,34.2,15.4,63.7,23.4
	c1,0.3,2.1,0.6,3.1,0.8C136.1,401.7,162.1,406.8,185.1,408.1z"/>
<path class="st1" d="M677.5,407c0,0,3.4,3.8,5.1,5.3c2.7,2.5,5.7,9.8,8.3,15.5c0.4,0.8,0.7,2.7,3.4,2.7
	c36.7-0.8,100-19.8,121.6-30.8c0.6-0.3,10-4.3,11.2-6.1c0.8-1.1,0.5-2.3,0-3.5c-3.3-8.1-5.5-13.4-5.2-16.8c0.3-3.2,1.8-7.1,1.8-7.2
	c-1.3,1-2.9,2-4.7,2.9c-0.4,0.2-0.8,0.4-1.2,0.6c-0.3,0.1-0.6,0.3-0.9,0.4c-10.5,5.9-34.2,15.4-63.7,23.4c-1,0.3-2.1,0.6-3.1,0.8
	C726.5,400.6,700.5,405.6,677.5,407z"/>
<path class="st1" d="M311.7,17.4c-1.2-0.8-2.3-1-2.9-0.5c-0.1,0.1-0.1,0.2-0.2,0.3c-0.1,0.1-0.1,0.2-0.2,0.3
	c-0.1,0.2-0.1,0.4-0.2,0.7c-0.1,0.9,0,2.3,0.4,4.3c0.1,0.5,0.2,1,0.4,1.5c0.2,0.9,0.5,1.9,0.9,3c0.1,0.2,0.1,0.4,0.2,0.7
	c0.2,0.7,0.5,1.4,0.8,2.2c0.2,0.5,0.4,1,0.6,1.6c0.2,0.5,0.4,1.1,0.6,1.7c0.8,2,1.7,4.3,2.8,6.8c0.5,1.1,1,2.3,1.5,3.4
	c0.2,0.3,0.3,0.7,0.5,1c1,1.9,2.2,4.3,3.7,6.9c0.5,0.2,1,0.4,1.5,0.7c0.5,0.2,0.9,0.4,1.4,0.6c0.3,0.1,0.5,0.2,0.8,0.3
	c0.5,0.2,1,0.4,1.4,0.6c0.3,0.1,0.6,0.2,0.8,0.3c0.5,0.2,0.9,0.4,1.4,0.5c0.3,0.1,0.7,0.3,1,0.4c22.3,8.6,55.1,16.3,100.8,16.3h1.6
	c45.7,0,78.5-7.8,100.8-16.3c0.3-0.1,0.7-0.3,1-0.4c0.5-0.2,0.9-0.4,1.4-0.5c0.3-0.1,0.6-0.2,0.8-0.3c0.5-0.2,1-0.4,1.4-0.6
	c0.3-0.1,0.5-0.2,0.8-0.3c0.5-0.2,0.9-0.4,1.4-0.6c0.5-0.2,1-0.4,1.5-0.6c1.5-2.6,2.7-5,3.7-6.9c0.2-0.3,0.3-0.7,0.5-1
	c0.7-1.6,1.2-2.7,1.4-3.2c0-0.1,0.1-0.1,0.1-0.2c1.1-2.5,2-4.7,2.8-6.8c0.2-0.6,0.4-1.1,0.6-1.7c0.2-0.5,0.4-1.1,0.6-1.6
	c0.3-0.8,0.5-1.5,0.8-2.2c0.1-0.2,0.2-0.4,0.2-0.7c0.4-1.1,0.7-2.1,0.9-3c0.1-0.5,0.3-1,0.4-1.5c0.4-1.9,0.5-3.3,0.4-4.3
	c0-0.3-0.1-0.5-0.2-0.7c0-0.1-0.1-0.2-0.2-0.3c-0.1-0.1-0.1-0.2-0.2-0.3c-0.6-0.6-1.7-0.3-2.9,0.5c-0.1,0.1-0.2,0.1-0.3,0.2v0h0l0,0
	c-12.8,9.4-48.6,28.5-117.9,28.5h-1.5C360.7,46.1,324.8,27.1,312,17.7c0,0,0,0,0,0v0C311.9,17.6,311.8,17.5,311.7,17.4z"/>
<path class="st1" d="M430.6,134h-44.2c0,0-9.6-8.3-28-15.8c-25.9-10.4-48.8-30.9-58.6-46c-2.1-3.5-4-6.9-5.6-10.1
	c-6.7-13.4-9.6-24.6-10.8-29.8c0.2-0.1,0.3-0.2,0.5-0.4c0.2-0.1,0.4-0.3,0.6-0.4c4.6-3.5,11.2-8.4,14.3-11.3
	c2.1-1.9,3.8-3.6,4.9-4.7c0.8-0.8,1.8-1.3,2.9-1.3c1,0,1.8,0.4,2.4,0.8c0.6,0.4,1.1,0.9,1.6,1.3c0.5,0.4,0.9,0.7,1.5,1.2
	c-0.1-0.1-0.2-0.1-0.3-0.2c-1.2-0.8-2.3-1-2.9-0.5c-0.1,0.1-0.1,0.2-0.2,0.3c-0.1,0.1-0.1,0.2-0.2,0.3c-0.1,0.2-0.1,0.4-0.2,0.7
	c-0.1,0.9,0,2.3,0.4,4.3c0.1,0.5,0.2,1,0.4,1.5c0.2,0.9,0.5,1.9,0.9,3c0.1,0.2,0.1,0.4,0.2,0.7c0.2,0.7,0.5,1.4,0.8,2.2
	c0.2,0.5,0.4,1,0.6,1.6c0.2,0.5,0.4,1.1,0.6,1.7c0.8,2,1.7,4.3,2.8,6.8c0.5,1.1,1,2.3,1.5,3.4c0.1,0.2,0.2,0.5,0.3,0.7
	c0.1,0.1,0.1,0.2,0.2,0.3c1,1.9,2.2,4.3,3.7,6.9c2.8,4.9,6.8,10.9,12.1,17.1c10.1,11.9,25.1,24.9,46.9,34.1
	C432.7,124.5,430.6,134,430.6,134z"/>
<path class="st1" d="M578.1,32.3c-1.2,5.2-4.1,16.4-10.8,29.8c-1.6,3.3-3.5,6.7-5.6,10.1c-9.8,15.1-32.7,35.5-58.6,46
	c-18.5,7.5-28,15.8-28,15.8h-44.2c0,0-2.2-9.5,50.8-31.8c21.9-9.2,36.9-22.2,46.9-34.1c5.3-6.2,9.2-12.2,12.1-17.1
	c1.5-2.6,2.7-5,3.7-6.9c0.1-0.1,0.1-0.2,0.2-0.3c0.1-0.2,0.2-0.5,0.3-0.7c0.7-1.6,1.2-2.7,1.4-3.2c0-0.1,0.1-0.1,0.1-0.2
	c1.1-2.5,2-4.7,2.8-6.8c0.2-0.6,0.4-1.1,0.6-1.7c0.2-0.5,0.4-1.1,0.6-1.6c0.3-0.8,0.5-1.5,0.8-2.2c0.1-0.2,0.2-0.4,0.2-0.7
	c0.4-1.1,0.7-2.1,0.9-3c0.2-0.5,0.3-1,0.4-1.5c0.4-1.9,0.5-3.3,0.4-4.3c0-0.3-0.1-0.5-0.2-0.7c0-0.1-0.1-0.2-0.2-0.3
	c-0.1-0.1-0.1-0.2-0.2-0.3c-0.6-0.6-1.7-0.3-2.9,0.5c-0.1,0.1-0.2,0.1-0.3,0.2c0.6-0.4,1-0.8,1.5-1.2c0.5-0.4,1.1-0.9,1.6-1.3
	c0.6-0.4,1.5-0.8,2.4-0.8c1.1,0,2.1,0.5,2.9,1.3c1,1.1,2.7,2.8,4.9,4.7c3.2,2.9,9.8,7.8,14.3,11.3c0.2,0.1,0.4,0.3,0.6,0.4
	C577.7,32,577.9,32.2,578.1,32.3z"/>
<path class="st0" d="M685.3,903.5c-1.1-6.1-1.8-12.4-2.3-18.6c-6.6-72.1-17.8-173.8-19.5-197.6c-1.8-23.8-5.3-51.3-4.7-80.8
	c0.7-20.1-0.6-37.2-0.2-57.1c-2.7-30.2,1.3-91.2,1.3-91.2c0-17.7-1-34,2.2-48.9c0,0,0,0,0-0.1c0.9-8.4,1.9-16.7,3-24.7v0
	c9-128.1,42.6-205.9,60.8-243.5c-19.4-14.7-51.6-25.5-60.1-28.9c-1.4-0.6-2.7-1-3.8-1.5c-50.2-20.2-79-38.4-94.7-49.5
	c0.3-0.5,0.5-1,0.7-1.5c-1.8,3.7-3.9,7.6-6.4,11.7c-9.8,15.1-32.7,35.5-58.6,46c-18.5,7.5-28,15.8-28,15.8h-44.2c0,0-0.1,0-0.1,0v0
	c0,0,0,0,0,0c0,0,0,0,0,0v0c0,0-0.1,0-0.1,0h-44.2c0,0-9.6-8.3-28-15.8c-25.9-10.4-48.8-30.9-58.6-46c-2.5-4-4.6-7.9-6.4-11.7
	c0.2,0.5,0.5,1,0.7,1.5c-15.7,11.1-44.5,29.3-94.7,49.5c-1.1,0.4-2.4,0.9-3.8,1.5c-8.5,3.4-40.6,14.2-60.1,28.9
	c18.1,37.6,51.8,115.4,60.8,243.5v0c1.1,8,2.1,16.3,3,24.7c0,0,0,0,0,0.1c3.2,14.9,2.2,31.2,2.2,48.9c0,0,4,61,1.3,91.2
	c0.3,19.9-0.9,37-0.2,57.1c0.5,29.4-3,57-4.7,80.8c-1.8,23.8-12.9,125.4-19.5,197.6c-0.6,6.3-1.3,12.5-2.3,18.6
	c-1.2,7.2-6,27.5-2.1,31.4c2.2,2.2,6.9,3.8,13,5.1c4.2,0.9,8.9,1.6,13.9,2.1c5,0.5,10.1,0.9,14.9,1.3c22,2.3,55.6-5,98-2.8
	c33.9,1.8,73.4,4.3,116.9,5.9h0h0h0c43.5-1.5,83-4.1,116.9-5.9c42.4-2.2,76.1,5.1,98,2.8c4.9-0.3,10-0.7,14.9-1.3
	c5-0.6,9.7-1.3,13.9-2.1c6-1.3,10.8-2.9,13-5.1C691.3,931.1,686.6,910.7,685.3,903.5z"/>
<path class="st0" d="M294,62.3c-15.7,11.1-44.5,29.3-94.7,49.5c-1.1,0.4-2.4,0.9-3.8,1.5c-8.5,3.4-40.6,14.2-60.1,28.9
	c-1-2.1-2-4.1-2.9-5.9c0-0.1-0.1-0.2-0.1-0.2c-0.6-1.1-1.1-2.2-1.6-3.2c-4.1-8.2-2.5-18.4,4.4-24.7c19.7-11.3,41.2-19.4,51.1-23.4
	c59.8-24,86-44.3,97.4-52.7c-0.2,0.1-0.3,0.3-0.5,0.4C284.5,37.7,287.3,48.9,294,62.3z"/>
<path class="st0" d="M567.3,62.3c15.7,11.1,44.5,29.3,94.7,49.5c1.1,0.4,2.4,0.9,3.8,1.5c8.5,3.4,40.6,14.2,60.1,28.9
	c1-2.1,2-4.1,2.9-5.9c0-0.1,0.1-0.2,0.1-0.2c0.6-1.1,1.1-2.2,1.6-3.2c4.1-8.2,2.5-18.4-4.4-24.7c-19.7-11.3-41.2-19.4-51.1-23.4
	c-59.8-24-86-44.3-97.4-52.7c0.2,0.1,0.3,0.3,0.5,0.4C576.9,37.7,574,48.9,567.3,62.3z"/>
<path class="st0" d="M120,117.9c4.8-3.4,10-6.7,15.3-9.7c-6.8,6.2-8.5,16.3-4.4,24.4c0.5,1,1,2,1.6,3.1c0,0.1,0.1,0.2,0.1,0.2
	c17.2,34.6,54.2,112.9,63.6,246.5v0c-2.8,6.1-5,9.9-8,17.1c-0.7,1.7-0.6,6.7-3.1,8.7c-51.2-2.9-117-24.5-139.4-36.9
	c-0.7-0.4-1.4-0.7-2-1c-1.8-0.9-3.4-1.9-4.7-2.9c-0.8-3.8,2.6-4.9,3.4-7.3c11.6-36.3,23.9-64.2,28.3-98.4
	c11.1-86.5,16.8-112.1,38.8-134.3C112,124.6,117.1,119.9,120,117.9z"/>
<path class="st0" d="M741.4,117.9c-4.8-3.4-10-6.7-15.3-9.7c6.8,6.2,8.5,16.3,4.4,24.4c-0.5,1-1,2-1.6,3.1c0,0.1-0.1,0.2-0.1,0.2
	c-17.2,34.6-54.2,112.9-63.6,246.5v0c2.8,6.1,5,9.9,8,17.1c0.7,1.7,0.6,6.7,3.1,8.7c51.2-2.9,117-24.5,139.4-36.9
	c0.7-0.4,1.4-0.7,2-1c1.8-0.9,3.4-1.9,4.7-2.9c0.8-3.8-2.6-4.9-3.4-7.3c-11.6-36.3-23.9-64.2-28.3-98.4
	c-11.1-86.5-16.8-112.1-38.8-134.3C749.3,124.6,744.2,119.9,741.4,117.9z"/>
<g>
	<defs>
		<path id="SVGID_1_" d="M430.4,944c0,0-54.3,0-80.7-3.9c-26.5-3.8-76-1.7-76-1.7c-49.7,7.1-76.3,0.9-88.2-1.1
			c-11.9-2-17.1-2.3-10.9-29.8c6.2-27.5,3.7-35.8,19.4-183.7c25.9-243.4,2.1-339.9,2.1-339.9s-21.8-185.3-70-268.6
			C196,87.4,283,33,283,33c1.4,13,22.6,60.8,47.9,69.5s55.2,30.7,55.2,30.7h44.4h0.2h44.4c0,0,29.9-22,55.2-30.7S576.9,46,578.2,33
			c0,0,90.8,54.1,160.8,82c-65.1,104.6-73.4,249.9-73.4,249.9s-18.6,211.5,1.7,358.9c20.3,147.4,13.2,156.2,19.4,183.7
			c6.2,27.5,1,27.8-10.9,29.8c-11.9,2-38.6,8.2-88.2,1.1c0,0-49.5-2.1-76,1.7c-26.5,3.8-80.7,3.9-80.7,3.9"/>
	</defs>
	<clipPath id="SVGID_2_">
		<use xlink:href="#SVGID_1_"  style="overflow:visible;"/>
	</clipPath>
	<g class="st2">
		<g>
			<g>
				<polygon class="st3" points="749,255.2 748.9,245.3 748.9,235.9 412.5,244.5 				"/>
			</g>
			<g>
				<polygon class="st3" points="848.2,342.6 848.2,332.7 848.1,323.2 511.7,331.8 				"/>
			</g>
			<g>
				<polygon class="st3" points="879.7,498.6 879.6,488.7 879.6,479.3 441.6,488.3 				"/>
			</g>
			<g>
				<polygon class="st3" points="779.5,678.8 779.5,668.9 779.4,659.5 341.4,668.5 				"/>
			</g>
			<g>
				<polygon class="st3" points="879.7,870 879.6,860.1 879.6,850.6 441.6,859.7 				"/>
			</g>
			<g>
				<polygon class="st3" points="95.2,225.2 95.3,215.3 95.3,205.9 431.7,214.5 				"/>
			</g>
			<g>
				<polygon class="st3" points="34.9,80.9 34.9,71 34.9,61.6 371.3,70.2 				"/>
			</g>
			<g>
				<polygon class="st3" points="63.8,381.2 63.8,371.3 63.9,361.9 501.9,371 				"/>
			</g>
			<g>
				<polygon class="st3" points="164,561.5 164,551.6 164,542.2 602,551.2 				"/>
			</g>
			<g>
				<polygon class="st3" points="-55.1,911.4 -55,901.5 -55,892 383,901.1 				"/>
			</g>
			<g>
				<polygon class="st3" points="63.8,752.6 63.8,742.7 63.9,733.3 501.9,742.4 				"/>
			</g>
			<g>
				<polygon class="st3" points="938.5,146.6 938.5,139.1 938.5,132 602,138.9 				"/>
			</g>
		</g>
	</g>
</g>
<path id="TIRA_LIMPIEZA_2_" class="st4" d="M540.6,51.2c-2.8,4.9-6.8,10.9-12.1,17.1c-22.2,8-53.9,14.9-97.1,14.9h-0.3c0,0,0,0,0,0
	h0c0,0,0,0,0,0h-0.8c0,0,0,0,0,0h0c0,0,0,0,0,0h-0.3c-43.3,0-74.9-6.9-97.1-14.9c-5.3-6.2-9.2-12.2-12.1-17.1c0.5,0.2,1,0.4,1.5,0.7
	c0.5,0.2,0.9,0.4,1.4,0.6c0.3,0.1,0.5,0.2,0.8,0.3c0.5,0.2,1,0.4,1.4,0.6c0.3,0.1,0.6,0.2,0.8,0.3c0.5,0.2,0.9,0.4,1.4,0.5
	c0.3,0.1,0.7,0.3,1,0.4c22.3,8.6,55.1,16.3,100.8,16.3h1.6c45.7,0,78.5-7.8,100.8-16.3c0.3-0.1,0.7-0.3,1-0.4
	c0.5-0.2,0.9-0.4,1.4-0.5c0.3-0.1,0.6-0.2,0.8-0.3c0.5-0.2,1-0.4,1.4-0.6c0.3-0.1,0.5-0.2,0.8-0.3c0.5-0.2,0.9-0.4,1.4-0.6
	C539.6,51.6,540.1,51.4,540.6,51.2z"/>
<linearGradient id="SVGID_3_" gradientUnits="userSpaceOnUse" x1="173.012" y1="717.9347" x2="218.8458" y2="717.9347">
	<stop  offset="0.1336" style="stop-color:#242422;stop-opacity:0.3"/>
	<stop  offset="1" style="stop-color:#242422;stop-opacity:0"/>
</linearGradient>
<path class="st5" d="M203.9,486.5c0,0,21.3,246.1,13.1,463c0,0-30.3-0.9-40.2-7.2c-9.9-6.3,3-43.5,3.6-57.9
	c0.6-14.5,8.4-120.3,11.3-140.4C194.6,723.8,212.6,545.7,203.9,486.5z"/>
<linearGradient id="SVGID_4_" gradientUnits="userSpaceOnUse" x1="209.0473" y1="712.7721" x2="254.8811" y2="712.7721" gradientTransform="matrix(-1 0 0 1 898 0)">
	<stop  offset="0.1336" style="stop-color:#242422;stop-opacity:0.3"/>
	<stop  offset="1" style="stop-color:#242422;stop-opacity:0"/>
</linearGradient>
<path class="st6" d="M658.1,481.3c0,0-21.3,246.1-13.1,463c0,0,30.3-0.9,40.2-7.2c9.9-6.3-3-45.5-3.6-59.9
	c-0.6-14.5-8.4-118.3-11.3-138.4C667.4,718.7,649.4,540.5,658.1,481.3z"/>
<g class="st7">
	<defs>
		<filter id="Adobe_OpacityMaskFilter" filterUnits="userSpaceOnUse" x="517.4" y="274.9" width="165.4" height="670.3">
			<feFlood  style="flood-color:white;flood-opacity:1" result="back"/>
			<feBlend  in="SourceGraphic" in2="back" mode="normal"/>
		</filter>
	</defs>
	<mask maskUnits="userSpaceOnUse" x="517.4" y="274.9" width="165.4" height="670.3" id="SVGID_5_">
		<g class="st8">
			<image style="overflow:visible;" width="170" height="675" xlink:href="A97535EF.jpg"  transform="matrix(1 0 0 1 515 272.8)">
			</image>
		</g>
	</mask>
	<g class="st9">
		
			<linearGradient id="SVGID_6_" gradientUnits="userSpaceOnUse" x1="267.3635" y1="610.0668" x2="432.7548" y2="610.0668" gradientTransform="matrix(-1 0 0 1 950.1758 0)">
			<stop  offset="0.1336" style="stop-color:#242422;stop-opacity:0.3"/>
			<stop  offset="1" style="stop-color:#242422;stop-opacity:0"/>
		</linearGradient>
		<path class="st10" d="M566.6,897.1c6.3-71.1,20.9-141.6,24.6-212.9c5.3-100.2-10.9-200.7-1.9-300.7c0.6-6.2,1.3-12.6,4.1-18.3
			c2.6-5.1,6.7-9.4,10.8-13.6c14.5-14.8,64.1-61.9,78.6-76.8c0.9,21.2-68.4,104.9-77,124.6c-12.1,27.8,7.3,25.8,7.5,55.7
			c0.6,106,1.2,212.1,1.8,318.1c0.3,51.9,0.7,104.5,15.1,154.7c0.7,2.4,1.4,5,0.1,7.2c-1.7,3-6,3.6-9.6,3.8
			c-33.9,2.1-67.8,4.2-101.7,6.4c-4.6-107.9,0.7-216.2,16-323.2c9.3,7.7,10.4,20.5,10.8,32c1.6,47.7,3.2,95.5,4.7,143.2
			c1.1,33,2.3,66.5,12.4,98.2"/>
	</g>
</g>
<g class="st7">
	<defs>
		<filter id="Adobe_OpacityMaskFilter_1_" filterUnits="userSpaceOnUse" x="530" y="343.8" width="98.7" height="596.4">
			<feFlood  style="flood-color:white;flood-opacity:1" result="back"/>
			<feBlend  in="SourceGraphic" in2="back" mode="normal"/>
		</filter>
	</defs>
	<mask maskUnits="userSpaceOnUse" x="530" y="343.8" width="98.7" height="596.4" id="SVGID_7_">
		<g class="st11">
			<image style="overflow:visible;" width="103" height="602" xlink:href="A97535ED.jpg"  transform="matrix(1 0 0 1 528 340.8)">
			</image>
		</g>
	</mask>
	<g class="st12">
		
			<radialGradient id="SVGID_8_" cx="794.7727" cy="545.8687" r="180.779" gradientTransform="matrix(1.2894 0 0 1.1798 -445.4276 -1.9817)" gradientUnits="userSpaceOnUse">
			<stop  offset="0" style="stop-color:#FFFFFF;stop-opacity:0.3"/>
			<stop  offset="1" style="stop-color:#FFFFFF;stop-opacity:0"/>
		</radialGradient>
		<path class="st13" d="M543.2,768c-16.6-29.6-7.2-37.8-8.2-71.1c-1.5-47.5-3-95-4.5-142.6c-0.9-27.8-1.6-56.2,8.2-82.5
			c7.7-20.7,21.6-38.9,35.3-56.8c18.2-23.8,36.4-47.6,54.7-71.3c-21.9,51.8-31.5,113.8-39.5,168.9c-4.4,29.9,0.2,67.4,4,97.4
			c13.6,108.9-20.9,254.1-21.2,330.2c-2.5-7-17.6-136-20.1-143L543.2,768z"/>
	</g>
</g>
<g class="st7">
	<defs>
		<filter id="Adobe_OpacityMaskFilter_2_" filterUnits="userSpaceOnUse" x="231.3" y="344.8" width="98.7" height="596.4">
			<feFlood  style="flood-color:white;flood-opacity:1" result="back"/>
			<feBlend  in="SourceGraphic" in2="back" mode="normal"/>
		</filter>
	</defs>
	<mask maskUnits="userSpaceOnUse" x="231.3" y="344.8" width="98.7" height="596.4" id="SVGID_9_">
		<g class="st14">
			<image style="overflow:visible;" width="103" height="602" xlink:href="A97535F3.jpg"  transform="matrix(1 0 0 1 229 341.8)">
			</image>
		</g>
	</mask>
	<g class="st15">
		
			<radialGradient id="SVGID_10_" cx="366.1136" cy="546.7162" r="180.779" gradientTransform="matrix(-1.2894 0 0 1.1798 752.6824 -1.9817)" gradientUnits="userSpaceOnUse">
			<stop  offset="0" style="stop-color:#FFFFFF;stop-opacity:0.3"/>
			<stop  offset="1" style="stop-color:#FFFFFF;stop-opacity:0"/>
		</radialGradient>
		<path class="st16" d="M316.7,769c16.6-29.6,7.2-37.8,8.2-71.1c1.5-47.5,3-95,4.5-142.6c0.9-27.8,1.6-56.2-8.2-82.5
			c-7.7-20.7-21.6-38.9-35.3-56.8c-18.2-23.8-36.4-47.6-54.7-71.3c21.9,51.8,31.5,113.8,39.5,168.9c4.4,29.9-0.2,67.4-4,97.4
			C253.2,720,293.7,865.1,294,941.2c2.5-7,11.6-136,14.1-143L316.7,769z"/>
	</g>
</g>
<g class="st7">
	<defs>
		<filter id="Adobe_OpacityMaskFilter_3_" filterUnits="userSpaceOnUse" x="173.8" y="274.9" width="166.5" height="670.3">
			<feFlood  style="flood-color:white;flood-opacity:1" result="back"/>
			<feBlend  in="SourceGraphic" in2="back" mode="normal"/>
		</filter>
	</defs>
	<mask maskUnits="userSpaceOnUse" x="173.8" y="274.9" width="166.5" height="670.3" id="SVGID_11_">
		<g class="st17">
			<image style="overflow:visible;" width="172" height="675" xlink:href="A97535F5.jpg"  transform="matrix(1 0 0 1 171 272.8)">
			</image>
		</g>
	</mask>
	<g class="st18">
		<linearGradient id="SVGID_12_" gradientUnits="userSpaceOnUse" x1="173.8343" y1="610.0668" x2="340.2947" y2="610.0668">
			<stop  offset="0.1336" style="stop-color:#242422;stop-opacity:0.3"/>
			<stop  offset="1" style="stop-color:#242422;stop-opacity:0"/>
		</linearGradient>
		<path class="st19" d="M290.1,897.1c-6.3-71.1-20.9-141.6-24.6-212.9c-5.3-100.2,10.9-200.7,1.9-300.7c-0.6-6.2-1.3-12.6-4.1-18.3
			c-2.6-5.1-6.7-9.4-10.8-13.6c-14.5-14.8-64.1-61.9-78.6-76.8c-0.9,21.2,68.4,104.9,77,124.6c12.1,27.8-7.3,25.8-7.5,55.7
			c-0.6,106-1.2,212.1-1.8,318.1c-0.3,51.9-0.7,104.5-15.1,154.7c-0.7,2.4-1.4,5-0.1,7.2c1.7,3,6,3.6,9.6,3.8
			c33.9,2.1,67.8,4.2,101.7,6.4c4.6-107.9,4.6-322.8-10.7-429.9c-9.3,7.7-6.6,185.1-7,196.6c-1.6,47.7-7.6,39.7-9.2,87.4
			c-1.1,33-6.8,64.4-16.9,96.1"/>
	</g>
</g>
<g class="st20">
	<defs>
		<filter id="Adobe_OpacityMaskFilter_4_" filterUnits="userSpaceOnUse" x="616.6" y="247.2" width="69.1" height="340.1">
			<feFlood  style="flood-color:white;flood-opacity:1" result="back"/>
			<feBlend  in="SourceGraphic" in2="back" mode="normal"/>
		</filter>
	</defs>
	<mask maskUnits="userSpaceOnUse" x="616.6" y="247.2" width="69.1" height="340.1" id="SVGID_13_">
		<g class="st21">
			<image style="overflow:visible;" width="74" height="345" xlink:href="A97535F7.jpg"  transform="matrix(1 0 0 1 614 244.8)">
			</image>
		</g>
	</mask>
	<g class="st22">
		<defs>
			<filter id="Adobe_OpacityMaskFilter_5_" filterUnits="userSpaceOnUse" x="616.6" y="247.2" width="69.1" height="340.1">
				<feFlood  style="flood-color:white;flood-opacity:1" result="back"/>
				<feBlend  in="SourceGraphic" in2="back" mode="normal"/>
			</filter>
		</defs>
		<mask maskUnits="userSpaceOnUse" x="616.6" y="247.2" width="69.1" height="340.1" id="SVGID_13_">
			<g class="st23">
				<image style="overflow:visible;" width="74" height="345" xlink:href="A97535F4.jpg"  transform="matrix(1 0 0 1 614 244.8)">
				</image>
			</g>
		</mask>
		<g>
			
				<linearGradient id="SVGID_14_" gradientUnits="userSpaceOnUse" x1="276.2261" y1="417.2519" x2="381.2871" y2="417.2519" gradientTransform="matrix(-1 0 0 1 962 0)">
				<stop  offset="0" style="stop-color:#242422;stop-opacity:0.3"/>
				<stop  offset="0.9795" style="stop-color:#242422;stop-opacity:0"/>
			</linearGradient>
			<path class="st24" d="M685.8,247.2c0,0-44.6,61.2-66.1,97.5c-12,20.3,13.3,20.1,39.9,242.6l4.7-205.8L685.8,247.2z"/>
		</g>
	</g>
</g>
<g class="st20">
	<defs>
		<filter id="Adobe_OpacityMaskFilter_6_" filterUnits="userSpaceOnUse" x="173.8" y="252.2" width="69.9" height="340.1">
			<feFlood  style="flood-color:white;flood-opacity:1" result="back"/>
			<feBlend  in="SourceGraphic" in2="back" mode="normal"/>
		</filter>
	</defs>
	<mask maskUnits="userSpaceOnUse" x="173.8" y="252.2" width="69.9" height="340.1" id="SVGID_15_">
		<g class="st25">
			<image style="overflow:visible;" width="75" height="345" xlink:href="A97535FC.jpg"  transform="matrix(1 0 0 1 171 249.8)">
			</image>
		</g>
	</mask>
	<g class="st26">
		<defs>
			<filter id="Adobe_OpacityMaskFilter_7_" filterUnits="userSpaceOnUse" x="173.8" y="252.2" width="69.9" height="340.1">
				<feFlood  style="flood-color:white;flood-opacity:1" result="back"/>
				<feBlend  in="SourceGraphic" in2="back" mode="normal"/>
			</filter>
		</defs>
		<mask maskUnits="userSpaceOnUse" x="173.8" y="252.2" width="69.9" height="340.1" id="SVGID_15_">
			<g class="st27">
				<image style="overflow:visible;" width="75" height="345" xlink:href="A97535FD.jpg"  transform="matrix(1 0 0 1 171 249.8)">
				</image>
			</g>
		</mask>
		<g>
			
				<linearGradient id="SVGID_16_" gradientUnits="userSpaceOnUse" x1="205.8475" y1="422.2328" x2="312.0097" y2="422.2328" gradientTransform="matrix(1 0 0 1 -32 0)">
				<stop  offset="0" style="stop-color:#242422;stop-opacity:0.3"/>
				<stop  offset="0.9795" style="stop-color:#242422;stop-opacity:0"/>
			</linearGradient>
			<path class="st28" d="M173.8,252.2c0,0,44.6,61.2,66.1,97.5c12,20.3-6,20.1-32.6,242.6l-12-205.8L173.8,252.2z"/>
		</g>
	</g>
</g>
<g>
	<defs>
		<filter id="Adobe_OpacityMaskFilter_8_" filterUnits="userSpaceOnUse" x="743.8" y="116.9" width="85.4" height="297.2">
			<feFlood  style="flood-color:white;flood-opacity:1" result="back"/>
			<feBlend  in="SourceGraphic" in2="back" mode="normal"/>
		</filter>
	</defs>
	<mask maskUnits="userSpaceOnUse" x="743.8" y="116.9" width="85.4" height="297.2" id="SVGID_17_">
		<g class="st29">
			<image style="overflow:visible;" width="91" height="302" xlink:href="A97535FF.jpg"  transform="matrix(1 0 0 1 741 114.8)">
			</image>
		</g>
	</mask>
	<g class="st30">
		<linearGradient id="SVGID_18_" gradientUnits="userSpaceOnUse" x1="743.8025" y1="265.4879" x2="829.1708" y2="265.4879">
			<stop  offset="0.1336" style="stop-color:#242422;stop-opacity:0.3"/>
			<stop  offset="1" style="stop-color:#242422;stop-opacity:0"/>
		</linearGradient>
		<path class="st31" d="M793.1,414.1c-28.8-63.7-42.4-133.1-39.6-202c1.3-32.2,5.8-66.2-9.7-95.2c13.2,14.8,26.7,30.1,33.1,48.3
			c6.8,19.4,4.8,40.3,5.3,60.7c1.6,58.7,24.4,114.9,46.9,169.8c-12.7,2.6-24.8,7.7-35.2,14.9"/>
	</g>
</g>
<g class="st32">
	<defs>
		<filter id="Adobe_OpacityMaskFilter_9_" filterUnits="userSpaceOnUse" x="696.2" y="110.1" width="86.9" height="313.9">
			<feFlood  style="flood-color:white;flood-opacity:1" result="back"/>
			<feBlend  in="SourceGraphic" in2="back" mode="normal"/>
		</filter>
	</defs>
	<mask maskUnits="userSpaceOnUse" x="696.2" y="110.1" width="86.9" height="313.9" id="SVGID_19_">
		<g class="st33">
			<image style="overflow:visible;" width="92" height="319" xlink:href="7DF0CB9C.jpg"  transform="matrix(1 0 0 1 694 107.8)">
			</image>
		</g>
	</mask>
	<g class="st34">
		<linearGradient id="SVGID_20_" gradientUnits="userSpaceOnUse" x1="807.712" y1="231.4139" x2="668.5872" y2="311.7377">
			<stop  offset="0" style="stop-color:#FFFFFF;stop-opacity:0.3"/>
			<stop  offset="0.7436" style="stop-color:#FFFFFF;stop-opacity:0"/>
		</linearGradient>
		<path class="st35" d="M731.6,110.1c10,5.2,16.1,15.2,18.7,25.4c2.5,10.3,1.9,20.9,1.5,31.4c-3.3,82.2,4.4,165.4,31.3,243.8
			c-12.9,7.8-28.2,12.4-43.6,13.2c-1.9,0.1-3.9,0.1-5.6-0.8c-1.4-0.8-2.3-2.2-3-3.6c-34.6-60.5-43.7-132.8-25.3-199
			c9.9-35.5,27.6-70,27.2-106.7"/>
	</g>
</g>
<g class="st36">
	<defs>
		<filter id="Adobe_OpacityMaskFilter_10_" filterUnits="userSpaceOnUse" x="29.3" y="116.9" width="85.4" height="297.2">
			<feFlood  style="flood-color:white;flood-opacity:1" result="back"/>
			<feBlend  in="SourceGraphic" in2="back" mode="normal"/>
		</filter>
	</defs>
	<mask maskUnits="userSpaceOnUse" x="29.3" y="116.9" width="85.4" height="297.2" id="SVGID_21_">
		<g class="st37">
			<image style="overflow:visible;" width="90" height="302" xlink:href="7DF0CB9B.jpg"  transform="matrix(1 0 0 1 27 114.8)">
			</image>
		</g>
	</mask>
	<g class="st38">
		
			<linearGradient id="SVGID_22_" gradientUnits="userSpaceOnUse" x1="813.3384" y1="265.4879" x2="898.7067" y2="265.4879" gradientTransform="matrix(-1 0 0 1 928 0)">
			<stop  offset="0.1336" style="stop-color:#242422;stop-opacity:0.3"/>
			<stop  offset="1" style="stop-color:#242422;stop-opacity:0"/>
		</linearGradient>
		<path class="st39" d="M65.4,414.1c28.8-63.7,42.4-133.1,39.6-202c-1.3-32.2-5.8-66.2,9.7-95.2c-13.2,14.8-26.7,30.1-33.1,48.3
			c-6.8,19.4-4.8,40.3-5.3,60.7c-1.6,58.7-24.4,114.9-46.9,169.8c12.7,2.6,24.8,7.7,35.2,14.9"/>
	</g>
</g>
<g class="st32">
	<defs>
		<filter id="Adobe_OpacityMaskFilter_11_" filterUnits="userSpaceOnUse" x="75.4" y="110.1" width="86.9" height="313.9">
			<feFlood  style="flood-color:white;flood-opacity:1" result="back"/>
			<feBlend  in="SourceGraphic" in2="back" mode="normal"/>
		</filter>
	</defs>
	<mask maskUnits="userSpaceOnUse" x="75.4" y="110.1" width="86.9" height="313.9" id="SVGID_23_">
		<g class="st40">
			<image style="overflow:visible;" width="92" height="319" xlink:href="7DF0CB94.jpg"  transform="matrix(1 0 0 1 73 107.8)">
			</image>
		</g>
	</mask>
	<g class="st41">
		
			<linearGradient id="SVGID_24_" gradientUnits="userSpaceOnUse" x1="877.248" y1="231.4139" x2="738.1231" y2="311.7377" gradientTransform="matrix(-1 0 0 1 928 0)">
			<stop  offset="0" style="stop-color:#FFFFFF;stop-opacity:0.3"/>
			<stop  offset="0.7436" style="stop-color:#FFFFFF;stop-opacity:0"/>
		</linearGradient>
		<path class="st42" d="M126.8,110.1c-10,5.2-16.1,15.2-18.7,25.4c-2.5,10.3-1.9,20.9-1.5,31.4c3.3,82.2-4.4,165.4-31.3,243.8
			c12.9,7.8,28.2,12.4,43.6,13.2c1.9,0.1,3.9,0.1,5.6-0.8c1.4-0.8,2.3-2.2,3-3.6c34.6-60.5,43.7-132.8,25.3-199
			c-9.9-35.5-27.6-70-27.2-106.7"/>
	</g>
</g>
<g>
	<defs>
		<filter id="Adobe_OpacityMaskFilter_12_" filterUnits="userSpaceOnUse" x="150.9" y="238.1" width="48.1" height="193.1">
			<feFlood  style="flood-color:white;flood-opacity:1" result="back"/>
			<feBlend  in="SourceGraphic" in2="back" mode="normal"/>
		</filter>
	</defs>
	<mask maskUnits="userSpaceOnUse" x="150.9" y="238.1" width="48.1" height="193.1" id="SVGID_25_">
		<g class="st43">
			<image style="overflow:visible;" width="54" height="198" xlink:href="7DF0CB97.jpg"  transform="matrix(1 0 0 1 148 235.8)">
			</image>
		</g>
	</mask>
	<g class="st44">
		
			<linearGradient id="SVGID_26_" gradientUnits="userSpaceOnUse" x1="728.9659" y1="334.6398" x2="777.0845" y2="334.6398" gradientTransform="matrix(-1 0 0 1 928 0)">
			<stop  offset="0.1336" style="stop-color:#242422;stop-opacity:0.3"/>
			<stop  offset="1" style="stop-color:#242422;stop-opacity:0"/>
		</linearGradient>
		<path class="st45" d="M171.1,238.1c1.3,14.4,2.6,28.8,2.7,43.3c0.1,15.6-2.2,33.3-15.9,42.7c6.4,3,13.8,7.6,12.9,14.1
			c-0.9,7-10.2,9.6-17.1,12.8c-1.1,0.5-2.3,1.2-2.7,2.3c-0.4,1,0.1,2.2,0.6,3.2c7.9,17.4,14,37.2,6.6,54.7c-2.6,6.2-7,12.4-6.1,19
			c6,0.3,12,0.6,18,0.9c2.3-6.9,8.5-12,13.5-17.6c6.7-7.6,11.5-16.7,13.7-26.3c3.5-14.8,1-30.2-1.5-45.2
			c-5.6-34-11.3-68.1-21.7-101.1"/>
	</g>
</g>
<g class="st46">
	<linearGradient id="SVGID_27_" gradientUnits="userSpaceOnUse" x1="728.2565" y1="179.6973" x2="742.638" y2="179.6973">
		<stop  offset="0" style="stop-color:#FFFFFF;stop-opacity:0.3"/>
		<stop  offset="1" style="stop-color:#FFFFFF;stop-opacity:0"/>
	</linearGradient>
	<path class="st47" d="M742.6,251.4c-2.4-19.2-4.8-38.6-4.4-57.9c0.5-26.7,6.3-53.8,0.5-80c-0.6-2.9-3.1-6.6-6-5.3
		c2,9.9,3.9,20,3.1,30.1c-0.7,9.8-4.1,19.3-5.9,29.1c-5.2,28,2.5,56.5,10.1,84.1"/>
</g>
<g class="st46">
	
		<linearGradient id="SVGID_28_" gradientUnits="userSpaceOnUse" x1="800.6867" y1="179.6973" x2="815.0682" y2="179.6973" gradientTransform="matrix(-1 0 0 1 918 0)">
		<stop  offset="0" style="stop-color:#FFFFFF;stop-opacity:0.3"/>
		<stop  offset="1" style="stop-color:#FFFFFF;stop-opacity:0"/>
	</linearGradient>
	<path class="st48" d="M102.9,251.4c2.4-19.2,4.8-38.6,4.4-57.9c-0.5-26.7-6.3-53.8-0.5-80c0.6-2.9,3.1-6.6,6-5.3
		c-2,9.9-3.9,20-3.1,30.1c0.7,9.8,4.1,19.3,5.9,29.1c5.2,28-2.5,56.5-10.1,84.1"/>
</g>
<g>
	<defs>
		<filter id="Adobe_OpacityMaskFilter_13_" filterUnits="userSpaceOnUse" x="664.6" y="235.7" width="48.1" height="193.1">
			<feFlood  style="flood-color:white;flood-opacity:1" result="back"/>
			<feBlend  in="SourceGraphic" in2="back" mode="normal"/>
		</filter>
	</defs>
	<mask maskUnits="userSpaceOnUse" x="664.6" y="235.7" width="48.1" height="193.1" id="SVGID_29_">
		<g class="st49">
			<image style="overflow:visible;" width="53" height="199" xlink:href="7DF0CB95.jpg"  transform="matrix(1 0 0 1 662 232.8)">
			</image>
		</g>
	</mask>
	<g class="st50">
		<defs>
			<filter id="Adobe_OpacityMaskFilter_14_" filterUnits="userSpaceOnUse" x="664.6" y="235.7" width="48.1" height="193.1">
				<feFlood  style="flood-color:white;flood-opacity:1" result="back"/>
				<feBlend  in="SourceGraphic" in2="back" mode="normal"/>
			</filter>
		</defs>
		<mask maskUnits="userSpaceOnUse" x="664.6" y="235.7" width="48.1" height="193.1" id="SVGID_29_">
			<g class="st51">
				<image style="overflow:visible;" width="53" height="199" xlink:href="7DF0CB8B.jpg"  transform="matrix(1 0 0 1 662 232.8)">
				</image>
			</g>
		</mask>
		<g>
			<linearGradient id="SVGID_30_" gradientUnits="userSpaceOnUse" x1="664.5877" y1="332.2803" x2="712.7062" y2="332.2803">
				<stop  offset="0.1336" style="stop-color:#242422;stop-opacity:0.3"/>
				<stop  offset="1" style="stop-color:#242422;stop-opacity:0"/>
			</linearGradient>
			<path class="st52" d="M692.5,235.7c-1.3,14.4-2.6,28.8-2.7,43.3c-0.1,15.6,2.2,33.3,15.9,42.7c-6.4,3-13.8,7.6-12.9,14.1
				c0.9,7,10.2,9.6,17.1,12.8c1.1,0.5,2.3,1.2,2.7,2.3c0.4,1-0.1,2.2-0.6,3.2c-7.9,17.4-14,37.2-6.6,54.7c2.6,6.2,7,12.4,6.1,19
				c-6,0.3-12,0.6-18,0.9c-2.3-6.9-8.5-12-13.5-17.6c-6.7-7.6-11.5-16.7-13.7-26.3c-3.5-14.8-1-30.2,1.5-45.2
				c5.6-34,11.3-68.1,21.7-101.1"/>
		</g>
	</g>
</g>
<linearGradient id="SVGID_31_" gradientUnits="userSpaceOnUse" x1="332.7922" y1="101.9413" x2="527.0622" y2="101.9413">
	<stop  offset="0" style="stop-color:#FFFFFF"/>
	<stop  offset="0.1373" style="stop-color:#EAEAEB"/>
	<stop  offset="0.5415" style="stop-color:#B0B2B4"/>
	<stop  offset="0.8408" style="stop-color:#8C8E92"/>
	<stop  offset="1" style="stop-color:#7E8185"/>
</linearGradient>
<path class="st53" d="M430.6,135.6c0,0-1.2-7.9,24.9-20.5s57-24.8,71.6-46.3c0,0-35,14.7-96,15c0,0-62.7,1.4-98.3-15.6
	c0,0,10.5,15.4,30.7,25.7S421.6,117.1,430.6,135.6z"/>
<radialGradient id="SVGID_32_" cx="678.7318" cy="37.9792" r="69.0993" gradientTransform="matrix(1.2894 0 0 1.1798 -445.4276 -1.9817)" gradientUnits="userSpaceOnUse">
	<stop  offset="0" style="stop-color:#1D1D1B;stop-opacity:0"/>
	<stop  offset="0.1214" style="stop-color:#20201E;stop-opacity:0"/>
	<stop  offset="0.1944" style="stop-color:#282826;stop-opacity:0"/>
	<stop  offset="0.2546" style="stop-color:#363634;stop-opacity:0"/>
	<stop  offset="0.3078" style="stop-color:#4A4A49;stop-opacity:0"/>
	<stop  offset="0.3565" style="stop-color:#646463;stop-opacity:0"/>
	<stop  offset="0.4018" style="stop-color:#848483;stop-opacity:0"/>
	<stop  offset="0.4446" style="stop-color:#AAAAAA;stop-opacity:0"/>
	<stop  offset="0.4842" style="stop-color:#D5D5D5;stop-opacity:0"/>
	<stop  offset="0.517" style="stop-color:#FFFFFF;stop-opacity:0"/>
	<stop  offset="0.5665" style="stop-color:#F2F2F1;stop-opacity:3.069510e-02"/>
	<stop  offset="0.6592" style="stop-color:#CECECD;stop-opacity:8.832882e-02"/>
	<stop  offset="0.7854" style="stop-color:#949493;stop-opacity:0.1667"/>
	<stop  offset="0.9386" style="stop-color:#464644;stop-opacity:0.2619"/>
	<stop  offset="1" style="stop-color:#242422;stop-opacity:0.3"/>
</radialGradient>
<path class="st54" d="M310.8,16.4c-1.2-0.8-2.3-1-2.9-0.5c-0.1,0.1-0.1,0.2-0.2,0.3c-0.1,0.1-0.1,0.2-0.2,0.3
	c-0.1,0.2-0.1,0.4-0.2,0.7c-0.1,0.9,0,2.3,0.4,4.3c0.1,0.5,0.2,1,0.4,1.5c0.2,0.9,0.5,1.9,0.9,3c0.1,0.2,0.1,0.4,0.2,0.7
	c0.2,0.7,0.5,1.4,0.8,2.2c0.2,0.5,0.4,1,0.6,1.6c0.2,0.5,0.4,1.1,0.6,1.7c0.8,2,1.7,4.3,2.8,6.8c0.5,1.1,1,2.3,1.5,3.4
	c0.2,0.3,0.3,0.7,0.5,1c1,1.9,2.2,4.3,3.7,6.9c0.5,0.2,1,0.4,1.5,0.7c0.5,0.2,0.9,0.4,1.4,0.6c0.3,0.1,0.5,0.2,0.8,0.3
	c0.5,0.2,1,0.4,1.4,0.6c0.3,0.1,0.6,0.2,0.8,0.3c0.5,0.2,0.9,0.4,1.4,0.5c0.3,0.1,0.7,0.3,1,0.4c22.3,8.6,55.1,16.3,100.8,16.3h1.6
	c45.7,0,78.5-7.8,100.8-16.3c0.3-0.1,0.7-0.3,1-0.4c0.5-0.2,0.9-0.4,1.4-0.5c0.3-0.1,0.6-0.2,0.8-0.3c0.5-0.2,1-0.4,1.4-0.6
	c0.3-0.1,0.5-0.2,0.8-0.3c0.5-0.2,0.9-0.4,1.4-0.6c0.5-0.2,1-0.4,1.5-0.6c1.5-2.6,2.7-5,3.7-6.9c0.2-0.3,0.3-0.7,0.5-1
	c0.7-1.6,1.2-2.7,1.4-3.2c0-0.1,0.1-0.1,0.1-0.2c1.1-2.5,2-4.7,2.8-6.8c0.2-0.6,0.4-1.1,0.6-1.7c0.2-0.5,0.4-1.1,0.6-1.6
	c0.3-0.8,0.5-1.5,0.8-2.2c0.1-0.2,0.2-0.4,0.2-0.7c0.4-1.1,0.7-2.1,0.9-3c0.1-0.5,0.3-1,0.4-1.5c0.4-1.9,0.5-3.3,0.4-4.3
	c0-0.3-0.1-0.5-0.2-0.7c0-0.1-0.1-0.2-0.2-0.3c-0.1-0.1-0.1-0.2-0.2-0.3c-0.6-0.6-1.7-0.3-2.9,0.5c-0.1,0.1-0.2,0.1-0.3,0.2v0h0l0,0
	c-12.8,9.4-48.6,28.5-117.9,28.5H429c-69.3-0.1-105.1-19.1-117.9-28.5c0,0,0,0,0,0v0C311,16.6,310.9,16.5,310.8,16.4z"/>
<path id="SVGID_x5F_33_x5F_" class="st55" d="M332.7,65.5C332.7,65.5,332.7,65.5,332.7,65.5c27.4,10.1,60.3,15.3,97.9,15.3l0.6,0
	l0.2,0c0.1,0,0.2,0,0.3,0h0.6c37.5,0,70.4-5.2,97.9-15.3l0,0"/>
<text class="st32"><textPath  xlink:href="#SVGID_x5F_33_x5F_" startOffset="0%">
<tspan  style="fill:#D4D6DC; font-family:'LucidaSansUnicode'; font-size:8.2584px; letter-spacing:86.9;">Qomba - Qomba - Qomba - Qomba</tspan></textPath>
</text>
<path class="st56" d="M634.4,871.1c-5,7.7-19,8.9-32.2,3c0.4,0.2,0.7,0.4,1.1,0.6c14.1,7.5,29.8,6.9,35.2-1.3
	c5.1-7.8-1.1-19.8-13.9-27.3C634.6,853.7,639,864,634.4,871.1z"/>
<path class="st56" d="M627.3,867.3c-4.6,6.4-16.6,7-27.7,1.5c0.3,0.2,0.6,0.4,0.9,0.6c11.7,6.9,25.2,6.9,30.2,0
	c4.7-6.5-0.2-16.9-10.8-23.9C628.2,852.4,631.6,861.4,627.3,867.3z"/>
<path class="st56" d="M651.3,893.8c-0.6,0.4-1.1,0.7-1.6,0.9c-0.5,0.2-1.1,0.3-1.8,0.3c-0.6,0-1.1-0.1-1.6-0.3
	c-0.5-0.2-0.8-0.5-1-0.9c-0.2-0.4-0.4-0.8-0.4-1.2c0-0.6,0.2-1.1,0.6-1.5c0.4-0.4,1-0.7,1.7-0.8c0.1,0,0.5-0.1,1.1-0.2
	c0.6-0.1,1.1-0.2,1.5-0.3c0.4-0.1,0.9-0.2,1.4-0.3c0-0.6-0.2-1-0.4-1.2c-0.2-0.3-0.7-0.4-1.4-0.4c-0.6,0-1,0.1-1.3,0.2
	c-0.3,0.1-0.6,0.4-0.8,0.7c-0.2,0.3-0.4,0.5-0.5,0.6c-0.1,0.1-0.3,0.1-0.6,0.1c-0.3,0-0.5-0.1-0.7-0.2c-0.2-0.2-0.3-0.3-0.3-0.6
	c0-0.4,0.1-0.7,0.4-1.1c0.3-0.3,0.8-0.6,1.4-0.9c0.6-0.2,1.4-0.3,2.3-0.3c1,0,1.8,0.1,2.4,0.3c0.6,0.2,1,0.6,1.2,1
	c0.2,0.5,0.4,1.1,0.4,1.9c0,0.5,0,0.9,0,1.3c0,0.3,0,0.7,0,1.2c0,0.4,0.1,0.8,0.2,1.2c0.1,0.4,0.2,0.7,0.2,0.8
	c0,0.2-0.1,0.4-0.3,0.6c-0.2,0.2-0.5,0.3-0.8,0.3c-0.2,0-0.5-0.1-0.7-0.3C651.8,894.5,651.6,894.2,651.3,893.8z M651.2,890.7
	c-0.3,0.1-0.8,0.2-1.5,0.4c-0.7,0.1-1.1,0.2-1.4,0.3c-0.3,0.1-0.5,0.2-0.7,0.3c-0.2,0.2-0.3,0.4-0.3,0.7c0,0.3,0.1,0.6,0.4,0.8
	c0.3,0.2,0.6,0.3,1.1,0.3c0.5,0,0.9-0.1,1.3-0.3c0.4-0.2,0.7-0.4,0.9-0.7c0.2-0.3,0.3-0.8,0.3-1.6V890.7z"/>
<path class="st56" d="M637,884.5v3.2c0.4-0.4,0.9-0.7,1.3-0.9c0.5-0.2,1-0.3,1.7-0.3c0.8,0,1.5,0.2,2,0.5c0.6,0.3,1,0.8,1.4,1.4
	c0.3,0.6,0.5,1.4,0.5,2.2c0,0.6-0.1,1.2-0.3,1.8c-0.2,0.5-0.4,1-0.8,1.4c-0.3,0.4-0.8,0.7-1.2,0.9c-0.5,0.2-1,0.3-1.6,0.3
	c-0.4,0-0.7,0-1-0.1c-0.3-0.1-0.6-0.2-0.8-0.3c-0.2-0.1-0.4-0.3-0.6-0.4c-0.2-0.1-0.4-0.3-0.6-0.6v0.2c0,0.4-0.1,0.7-0.3,0.9
	c-0.2,0.2-0.5,0.3-0.8,0.3c-0.3,0-0.6-0.1-0.8-0.3c-0.2-0.2-0.3-0.5-0.3-0.9v-9.2c0-0.4,0.1-0.8,0.3-1c0.2-0.2,0.5-0.3,0.8-0.3
	c0.4,0,0.6,0.1,0.8,0.3C636.9,883.8,637,884.1,637,884.5z M637.1,890.7c0,0.8,0.2,1.5,0.6,1.9c0.4,0.4,1,0.7,1.7,0.7
	c0.6,0,1.1-0.2,1.5-0.7c0.4-0.5,0.6-1.1,0.6-2c0-0.6-0.1-1-0.3-1.4c-0.2-0.4-0.4-0.7-0.8-0.9c-0.3-0.2-0.7-0.3-1.1-0.3
	c-0.4,0-0.8,0.1-1.2,0.3c-0.3,0.2-0.6,0.5-0.8,1C637.2,889.7,637.1,890.2,637.1,890.7z"/>
<path class="st56" d="M627.5,890.9v2.8c0,0.4-0.1,0.8-0.3,1c-0.2,0.2-0.5,0.3-0.9,0.3c-0.4,0-0.6-0.1-0.9-0.3
	c-0.2-0.2-0.3-0.6-0.3-1v-3.4c0-0.5,0-0.9-0.1-1.2c0-0.3-0.1-0.5-0.3-0.7c-0.2-0.2-0.5-0.3-0.8-0.3c-0.8,0-1.3,0.2-1.5,0.7
	c-0.2,0.5-0.4,1.2-0.4,2v2.9c0,0.4-0.1,0.8-0.3,1c-0.2,0.2-0.5,0.3-0.9,0.3c-0.4,0-0.6-0.1-0.9-0.3c-0.2-0.2-0.3-0.6-0.3-1v-6
	c0-0.4,0.1-0.7,0.3-0.9c0.2-0.2,0.5-0.3,0.8-0.3c0.3,0,0.6,0.1,0.8,0.3c0.2,0.2,0.3,0.5,0.3,0.8v0.2c0.4-0.4,0.8-0.8,1.3-1
	c0.5-0.2,1-0.3,1.5-0.3c0.6,0,1.1,0.1,1.5,0.3c0.4,0.2,0.8,0.5,1,1c0.4-0.4,0.8-0.8,1.3-1c0.5-0.2,1-0.3,1.5-0.3
	c0.6,0,1.2,0.1,1.7,0.3c0.5,0.2,0.8,0.5,1,1c0.2,0.4,0.3,1,0.3,1.8v4.1c0,0.4-0.1,0.8-0.3,1c-0.2,0.2-0.5,0.3-0.9,0.3
	c-0.4,0-0.6-0.1-0.9-0.3c-0.2-0.2-0.3-0.6-0.3-1v-3.5c0-0.5,0-0.8-0.1-1.1c0-0.3-0.2-0.5-0.3-0.7c-0.2-0.2-0.5-0.3-0.9-0.3
	c-0.3,0-0.6,0.1-0.9,0.2c-0.3,0.2-0.5,0.4-0.6,0.7C627.6,889.3,627.5,890,627.5,890.9z"/>
<path class="st56" d="M618.3,890.7c0,0.6-0.1,1.2-0.3,1.7c-0.2,0.5-0.5,1-0.9,1.4c-0.4,0.4-0.9,0.7-1.5,0.9
	c-0.6,0.2-1.2,0.3-1.9,0.3c-0.7,0-1.3-0.1-1.9-0.3c-0.6-0.2-1.1-0.5-1.5-0.9c-0.4-0.4-0.7-0.8-0.9-1.4c-0.2-0.5-0.3-1.1-0.3-1.7
	c0-0.6,0.1-1.2,0.3-1.8c0.2-0.5,0.5-1,0.9-1.4c0.4-0.4,0.9-0.7,1.5-0.9c0.6-0.2,1.2-0.3,1.9-0.3c0.7,0,1.3,0.1,1.9,0.3
	c0.6,0.2,1.1,0.5,1.5,0.9c0.4,0.4,0.7,0.8,0.9,1.4C618.1,889.5,618.3,890.1,618.3,890.7z M615.9,890.7c0-0.9-0.2-1.5-0.6-2
	c-0.4-0.5-1-0.7-1.7-0.7c-0.5,0-0.9,0.1-1.2,0.3c-0.3,0.2-0.6,0.5-0.8,0.9c-0.2,0.4-0.3,0.9-0.3,1.5c0,0.6,0.1,1,0.3,1.4
	c0.2,0.4,0.5,0.7,0.8,0.9c0.3,0.2,0.8,0.3,1.2,0.3c0.7,0,1.3-0.2,1.7-0.7C615.7,892.2,615.9,891.5,615.9,890.7z"/>
<path class="st56" d="M606.3,893.4c0.4,0.2,0.8,0.4,1.2,0.7c0.4,0.2,0.7,0.4,0.9,0.5c0.1,0.1,0.2,0.3,0.2,0.5c0,0.2-0.1,0.3-0.3,0.5
	c-0.2,0.2-0.4,0.2-0.6,0.2c-0.2,0-0.4-0.1-0.7-0.2c-0.3-0.1-0.6-0.3-1-0.5c-0.4-0.2-0.8-0.5-1.2-0.8c-0.8,0.4-1.8,0.6-3,0.6
	c-1,0-1.9-0.1-2.6-0.4c-0.8-0.3-1.4-0.7-1.9-1.2c-0.5-0.5-0.9-1.2-1.2-1.9c-0.3-0.7-0.4-1.5-0.4-2.4c0-0.9,0.1-1.7,0.4-2.4
	c0.3-0.7,0.7-1.3,1.2-1.9c0.5-0.5,1.2-0.9,1.9-1.2c0.8-0.3,1.6-0.4,2.6-0.4c1.3,0,2.4,0.2,3.4,0.7c0.9,0.5,1.6,1.2,2.1,2
	c0.5,0.9,0.7,1.9,0.7,3.1C607.9,890.9,607.3,892.3,606.3,893.4z M604.3,892.1c0.4-0.4,0.6-0.8,0.8-1.3c0.2-0.5,0.3-1.1,0.3-1.7
	c0-0.8-0.1-1.5-0.4-2.2c-0.3-0.6-0.7-1.1-1.3-1.4c-0.5-0.3-1.2-0.5-1.9-0.5c-0.5,0-1,0.1-1.4,0.3c-0.4,0.2-0.8,0.4-1.1,0.8
	c-0.3,0.3-0.6,0.8-0.7,1.3c-0.2,0.5-0.3,1.1-0.3,1.7c0,1.3,0.3,2.3,1,3c0.7,0.7,1.5,1.1,2.6,1.1c0.4,0,0.9-0.1,1.3-0.2
	c-0.3-0.2-0.6-0.4-1-0.5c-0.4-0.2-0.7-0.3-0.8-0.4c-0.2-0.1-0.2-0.2-0.2-0.4c0-0.2,0.1-0.3,0.2-0.4c0.1-0.1,0.3-0.2,0.5-0.2
	C602.2,891,603,891.4,604.3,892.1z"/>
<path class="st57" d="M433.4,101.6c-2.4,3.4-8.8,3.7-14.6,0.8c0.2,0.1,0.3,0.2,0.5,0.3c6.2,3.7,13.3,3.7,15.9,0
	c2.5-3.5-0.1-9.1-5.7-12.8C433.9,93.6,435.7,98.5,433.4,101.6z"/>
<path class="st57" d="M437.2,103.7c-2.7,4.1-10,4.7-17,1.6c0.2,0.1,0.4,0.2,0.6,0.3c7.4,4,15.7,3.7,18.5-0.7
	c2.7-4.2-0.6-10.6-7.3-14.6C437.3,94.3,439.6,99.9,437.2,103.7z"/>
<path class="st57" d="M422.3,115.6c0.2,0.1,0.4,0.2,0.6,0.4c0.2,0.1,0.4,0.2,0.5,0.3c0.1,0.1,0.1,0.2,0.1,0.3c0,0.1,0,0.2-0.1,0.3
	c-0.1,0.1-0.2,0.1-0.3,0.1c-0.1,0-0.2,0-0.4-0.1c-0.1-0.1-0.3-0.1-0.5-0.3c-0.2-0.1-0.4-0.3-0.6-0.4c-0.4,0.2-1,0.3-1.6,0.3
	c-0.5,0-1-0.1-1.4-0.2c-0.4-0.2-0.7-0.4-1-0.6c-0.3-0.3-0.5-0.6-0.6-1c-0.1-0.4-0.2-0.8-0.2-1.3c0-0.5,0.1-0.9,0.2-1.3
	c0.1-0.4,0.4-0.7,0.6-1c0.3-0.3,0.6-0.5,1-0.6c0.4-0.1,0.8-0.2,1.4-0.2c0.7,0,1.3,0.1,1.8,0.4c0.5,0.3,0.9,0.6,1.1,1.1
	c0.3,0.5,0.4,1,0.4,1.7C423.2,114.3,422.9,115,422.3,115.6z M421.3,114.9c0.2-0.2,0.3-0.4,0.4-0.7c0.1-0.3,0.1-0.6,0.1-0.9
	c0-0.4-0.1-0.8-0.2-1.2c-0.2-0.3-0.4-0.6-0.7-0.7c-0.3-0.2-0.6-0.2-1-0.2c-0.3,0-0.5,0-0.7,0.1c-0.2,0.1-0.4,0.2-0.6,0.4
	c-0.2,0.2-0.3,0.4-0.4,0.7c-0.1,0.3-0.1,0.6-0.1,0.9c0,0.7,0.2,1.2,0.5,1.6c0.4,0.4,0.8,0.6,1.3,0.6c0.2,0,0.5,0,0.7-0.1
	c-0.1-0.1-0.3-0.2-0.5-0.3c-0.2-0.1-0.4-0.2-0.4-0.2c-0.1-0.1-0.1-0.1-0.1-0.2c0-0.1,0-0.2,0.1-0.2c0.1-0.1,0.2-0.1,0.2-0.1
	C420.2,114.3,420.6,114.5,421.3,114.9z"/>
<path class="st57" d="M428.7,114.1c0,0.3-0.1,0.6-0.2,0.9c-0.1,0.3-0.3,0.5-0.5,0.7c-0.2,0.2-0.5,0.4-0.8,0.5
	c-0.3,0.1-0.6,0.2-1,0.2c-0.4,0-0.7-0.1-1-0.2c-0.3-0.1-0.6-0.3-0.8-0.5c-0.2-0.2-0.4-0.4-0.5-0.7c-0.1-0.3-0.2-0.6-0.2-0.9
	c0-0.3,0.1-0.7,0.2-0.9c0.1-0.3,0.3-0.5,0.5-0.7c0.2-0.2,0.5-0.4,0.8-0.5c0.3-0.1,0.6-0.2,1-0.2c0.4,0,0.7,0.1,1,0.2
	c0.3,0.1,0.6,0.3,0.8,0.5c0.2,0.2,0.4,0.4,0.5,0.7C428.6,113.5,428.7,113.8,428.7,114.1z M427.4,114.1c0-0.5-0.1-0.8-0.3-1.1
	c-0.2-0.3-0.5-0.4-0.9-0.4c-0.2,0-0.5,0.1-0.6,0.2c-0.2,0.1-0.3,0.3-0.4,0.5c-0.1,0.2-0.1,0.5-0.1,0.8c0,0.3,0,0.6,0.1,0.8
	c0.1,0.2,0.2,0.4,0.4,0.5c0.2,0.1,0.4,0.2,0.6,0.2c0.4,0,0.7-0.1,0.9-0.4C427.3,114.9,427.4,114.6,427.4,114.1z"/>
<path class="st57" d="M433.5,114.2v1.5c0,0.2-0.1,0.4-0.2,0.5c-0.1,0.1-0.3,0.2-0.5,0.2c-0.2,0-0.3-0.1-0.5-0.2
	c-0.1-0.1-0.2-0.3-0.2-0.5v-1.8c0-0.3,0-0.5,0-0.7c0-0.2-0.1-0.3-0.2-0.4c-0.1-0.1-0.2-0.2-0.4-0.2c-0.4,0-0.7,0.1-0.8,0.4
	c-0.1,0.3-0.2,0.6-0.2,1.1v1.5c0,0.2-0.1,0.4-0.2,0.5c-0.1,0.1-0.3,0.2-0.5,0.2c-0.2,0-0.3-0.1-0.5-0.2c-0.1-0.1-0.2-0.3-0.2-0.5
	v-3.2c0-0.2,0.1-0.4,0.2-0.5c0.1-0.1,0.2-0.2,0.4-0.2c0.2,0,0.3,0.1,0.4,0.2c0.1,0.1,0.2,0.2,0.2,0.4v0.1c0.2-0.2,0.4-0.4,0.7-0.5
	c0.2-0.1,0.5-0.2,0.8-0.2c0.3,0,0.6,0.1,0.8,0.2c0.2,0.1,0.4,0.3,0.6,0.5c0.2-0.2,0.4-0.4,0.7-0.5c0.2-0.1,0.5-0.2,0.8-0.2
	c0.3,0,0.6,0.1,0.9,0.2c0.2,0.1,0.4,0.3,0.5,0.5c0.1,0.2,0.2,0.5,0.2,1v2.2c0,0.2-0.1,0.4-0.2,0.5c-0.1,0.1-0.3,0.2-0.5,0.2
	c-0.2,0-0.3-0.1-0.5-0.2c-0.1-0.1-0.2-0.3-0.2-0.5v-1.9c0-0.2,0-0.4,0-0.6c0-0.1-0.1-0.3-0.2-0.4c-0.1-0.1-0.3-0.1-0.5-0.1
	c-0.2,0-0.3,0-0.5,0.1c-0.1,0.1-0.3,0.2-0.3,0.4C433.6,113.4,433.5,113.7,433.5,114.2z"/>
<path class="st57" d="M438.5,110.8v1.7c0.2-0.2,0.5-0.4,0.7-0.5c0.2-0.1,0.5-0.2,0.9-0.2c0.4,0,0.8,0.1,1.1,0.3
	c0.3,0.2,0.5,0.4,0.7,0.8c0.2,0.3,0.3,0.7,0.3,1.2c0,0.3,0,0.7-0.1,0.9c-0.1,0.3-0.2,0.5-0.4,0.7c-0.2,0.2-0.4,0.4-0.7,0.5
	c-0.3,0.1-0.5,0.2-0.9,0.2c-0.2,0-0.4,0-0.5-0.1c-0.2,0-0.3-0.1-0.4-0.2c-0.1-0.1-0.2-0.1-0.3-0.2c-0.1-0.1-0.2-0.2-0.3-0.3v0.1
	c0,0.2-0.1,0.4-0.2,0.5c-0.1,0.1-0.3,0.2-0.4,0.2c-0.2,0-0.3-0.1-0.4-0.2c-0.1-0.1-0.2-0.3-0.2-0.5v-4.9c0-0.2,0.1-0.4,0.2-0.5
	c0.1-0.1,0.2-0.2,0.4-0.2c0.2,0,0.3,0.1,0.4,0.2C438.5,110.4,438.5,110.6,438.5,110.8z M438.6,114.2c0,0.4,0.1,0.8,0.3,1
	c0.2,0.2,0.5,0.4,0.9,0.4c0.3,0,0.6-0.1,0.8-0.4c0.2-0.2,0.3-0.6,0.3-1.1c0-0.3,0-0.6-0.1-0.8c-0.1-0.2-0.2-0.4-0.4-0.5
	c-0.2-0.1-0.4-0.2-0.6-0.2c-0.2,0-0.4,0.1-0.6,0.2c-0.2,0.1-0.3,0.3-0.4,0.5C438.6,113.6,438.6,113.9,438.6,114.2z"/>
<path class="st57" d="M446.1,115.8c-0.3,0.2-0.6,0.4-0.9,0.5c-0.3,0.1-0.6,0.2-0.9,0.2c-0.3,0-0.6-0.1-0.8-0.2
	c-0.2-0.1-0.4-0.3-0.6-0.5c-0.1-0.2-0.2-0.4-0.2-0.6c0-0.3,0.1-0.6,0.3-0.8c0.2-0.2,0.5-0.4,0.9-0.4c0.1,0,0.3-0.1,0.6-0.1
	c0.3-0.1,0.6-0.1,0.8-0.2c0.2,0,0.5-0.1,0.7-0.2c0-0.3-0.1-0.5-0.2-0.7c-0.1-0.1-0.4-0.2-0.7-0.2c-0.3,0-0.5,0-0.7,0.1
	c-0.2,0.1-0.3,0.2-0.4,0.4c-0.1,0.2-0.2,0.3-0.2,0.3c0,0.1-0.1,0.1-0.3,0.1c-0.1,0-0.3,0-0.4-0.1c-0.1-0.1-0.1-0.2-0.1-0.3
	c0-0.2,0.1-0.4,0.2-0.6c0.2-0.2,0.4-0.3,0.7-0.5c0.3-0.1,0.7-0.2,1.2-0.2c0.5,0,1,0.1,1.3,0.2c0.3,0.1,0.5,0.3,0.7,0.6
	c0.1,0.3,0.2,0.6,0.2,1c0,0.3,0,0.5,0,0.7c0,0.2,0,0.4,0,0.6c0,0.2,0,0.4,0.1,0.7c0.1,0.2,0.1,0.4,0.1,0.4c0,0.1-0.1,0.2-0.2,0.3
	c-0.1,0.1-0.3,0.1-0.4,0.1c-0.1,0-0.3-0.1-0.4-0.2C446.3,116.2,446.2,116,446.1,115.8z M446,114.2c-0.2,0.1-0.4,0.1-0.8,0.2
	c-0.3,0.1-0.6,0.1-0.7,0.1c-0.1,0-0.3,0.1-0.4,0.2c-0.1,0.1-0.2,0.2-0.2,0.4c0,0.2,0.1,0.3,0.2,0.4c0.1,0.1,0.3,0.2,0.6,0.2
	c0.2,0,0.5,0,0.7-0.1c0.2-0.1,0.4-0.2,0.5-0.4c0.1-0.2,0.2-0.5,0.2-0.8V114.2z"/>
<g class="st58">
	<path class="st59" d="M191.6,871.1c41.1,5.1,67.7-1.5,105.6-1.4c57.9,0.3,95.5,5,129,5.6c46,0.9,95.7-6.7,134.4-6
		c53.3,1,68.6,5.2,100.3,1.1"/>
	<path class="st60" d="M195,849.1c40.5,5,66.7-1.5,104.1-1.3c57.1,0.3,94.2,4.8,127.3,5.4c45.4,0.8,94.2-6.5,132.2-5.8
		c52.7,1,67.9,5.1,98.8,1.2"/>
	<path class="st61" d="M198.3,827.1c39.9,4.8,65.7-1.5,102.6-1.3c56.3,0.3,93,4.6,125.6,5.2c44.7,0.8,92.6-6.3,130.1-5.5
		c52.2,1,67.3,4.9,97.4,1.2"/>
	<path class="st62" d="M201.7,805.1c39.4,4.6,64.8-1.4,101.1-1.3c55.4,0.3,91.8,4.5,123.9,5c44,0.8,91.1-6,128-5.3
		c51.6,1,66.6,4.8,95.9,1.3"/>
	<path class="st63" d="M205.1,783.2c38.8,4.5,63.8-1.4,99.5-1.2c54.6,0.3,90.6,4.3,122.2,4.8c43.3,0.8,89.5-5.8,125.9-5.1
		c51,0.9,66,4.7,94.5,1.3"/>
	<path class="st64" d="M208.5,761.2c38.2,4.3,62.8-1.4,98-1.2c53.7,0.3,89.4,4.1,120.5,4.7c42.7,0.8,88-5.5,123.8-4.9
		c50.5,0.9,65.3,4.6,93,1.4"/>
	<path class="st65" d="M211.9,739.2c37.6,4.2,61.8-1.3,96.5-1.2c52.9,0.3,88.2,3.9,118.8,4.5c42,0.7,86.4-5.3,121.6-4.7
		c49.9,0.9,64.6,4.5,91.6,1.4"/>
	<path class="st66" d="M215.3,717.2c37.1,4,60.9-1.3,95-1.1c52.1,0.3,86.9,3.7,117.1,4.3c41.3,0.7,84.8-5.1,119.5-4.4
		c49.3,0.9,64,4.3,90.1,1.5"/>
	<path class="st67" d="M218.7,695.2c36.5,3.8,59.9-1.3,93.5-1.1c51.2,0.2,85.7,3.5,115.4,4.1c40.7,0.7,83.3-4.8,117.4-4.2
		c48.8,0.8,63.3,4.2,88.6,1.5"/>
	<path class="st68" d="M222.1,673.2c35.9,3.7,58.9-1.2,91.9-1.1c50.4,0.2,84.5,3.4,113.7,3.9c40,0.7,81.7-4.6,115.3-4
		c48.2,0.8,62.7,4.1,87.2,1.6"/>
	<path class="st69" d="M225.5,651.2c35.3,3.5,58-1.2,90.4-1.1c49.5,0.2,83.3,3.2,112,3.7c39.3,0.7,80.2-4.3,113.2-3.8
		c47.6,0.8,62,4,85.7,1.6"/>
	<path class="st70" d="M228.9,629.2c34.7,3.3,57-1.2,88.9-1c48.7,0.2,82.1,3,110.3,3.5c38.7,0.6,78.6-4.1,111.1-3.6
		c47.1,0.8,61.4,3.9,84.3,1.7"/>
	<path class="st71" d="M232.3,607.2c34.2,3.2,56-1.1,87.4-1c47.8,0.2,80.8,2.8,108.6,3.3c38,0.6,77-3.9,108.9-3.3
		c46.5,0.8,60.7,3.7,82.8,1.7"/>
	<path class="st72" d="M235.6,585.2c33.6,3,55.1-1.1,85.9-1c47,0.2,79.6,2.6,106.8,3.1c37.3,0.6,75.5-3.6,106.8-3.1
		c46,0.7,60,3.6,81.4,1.8"/>
	<path class="st73" d="M239,563.2c33,2.9,54.1-1.1,84.3-0.9c46.2,0.2,78.4,2.5,105.1,2.9c36.7,0.6,73.9-3.4,104.7-2.9
		c45.4,0.7,59.4,3.5,79.9,1.8"/>
	<path class="st74" d="M242.4,541.2c32.4,2.7,53.1-1,82.8-0.9c45.3,0.2,77.2,2.3,103.4,2.7c36,0.6,72.4-3.2,102.6-2.7
		c44.8,0.7,58.7,3.4,78.5,1.9"/>
	<path class="st75" d="M245.8,519.3c31.9,2.5,52.1-1,81.3-0.9c44.5,0.2,76,2.1,101.7,2.5c35.3,0.5,70.8-2.9,100.5-2.5
		c44.3,0.7,58.1,3.3,77,1.9"/>
	<path class="st76" d="M249.2,497.3c31.3,2.4,51.2-1,79.8-0.8c43.6,0.2,74.8,1.9,100,2.3c34.7,0.5,69.3-2.7,98.3-2.2
		c43.7,0.6,57.4,3.1,75.5,1.9"/>
	<path class="st77" d="M252.6,475.3c30.7,2.2,50.2-0.9,78.3-0.8c42.8,0.2,73.5,1.7,98.3,2.1c34,0.5,67.7-2.4,96.2-2
		c43.1,0.6,56.7,3,74.1,2"/>
	<path class="st78" d="M256,453.3c30.1,2.1,49.2-0.9,76.7-0.8c42,0.2,72.3,1.6,96.6,1.9c33.3,0.5,66.1-2.2,94.1-1.8
		c42.6,0.6,56.1,2.9,72.6,2"/>
	<path class="st79" d="M259.4,431.3c29.6,1.9,48.3-0.9,75.2-0.7c41.1,0.2,71.1,1.4,94.9,1.7c32.7,0.5,64.6-2,92-1.6
		c42,0.6,55.4,2.8,71.2,2.1"/>
	<path class="st80" d="M262.8,409.3c29,1.7,47.3-0.8,73.7-0.7c40.3,0.2,69.9,1.2,93.2,1.5c32,0.4,63-1.7,89.9-1.4
		c41.5,0.5,54.8,2.7,69.7,2.1"/>
</g>
<g class="st81">
	<g>
		<path class="st82" d="M589,36.1c-0.1,0.4-0.2,0.8-0.3,1.2"/>
		<path class="st83" d="M588,39.9c-2.2,7.9-5.2,15.7-8.9,23.4"/>
		<path class="st82" d="M578.5,64.4C578.5,64.4,578.5,64.4,578.5,64.4c-0.2,0.4-0.4,0.8-0.6,1.1"/>
	</g>
</g>
<g class="st81">
	<g>
		<path class="st82" d="M284.3,36.1c0.1,0.4,0.2,0.8,0.3,1.2"/>
		<path class="st83" d="M285.3,39.9c2.2,7.9,5.2,15.7,8.9,23.4"/>
		<path class="st82" d="M294.8,64.4C294.8,64.4,294.9,64.5,294.8,64.4c0.2,0.4,0.4,0.8,0.6,1.1"/>
	</g>
</g>
<path class="st84" d="M174.8,911c2.5,1.6,6.6,2.9,11.5,4c4.2,0.9,8.9,1.6,13.9,2.1c4.9,0.6,10,1,14.9,1.3c21.9,2.3,55.5-5,97.7-2.8
	c29.7,1.6,63.7,3.7,101,5.3c2.4,0.1,9.1,0.5,15.7,0.5c7.6,0,15.2-0.5,18.4-0.6c36.1-1.5,69.1-3.6,98-5.1c42.3-2.2,75.8,5.1,97.7,2.8
	c4.8-0.3,10-0.7,14.9-1.3c4.9-0.5,9.7-1.2,13.9-2.1c5-1.1,9.2-2.4,11.7-4.1"/>
<g class="st81">
	<g>
		<line class="st82" x1="41" y1="362.1" x2="42" y2="362.8"/>
		<path class="st85" d="M44,364.2c0.8,0.5,1.6,1,2.5,1.4l1.2,0.6c0.4,0.2,0.7,0.4,1.1,0.6c10,5.7,33.2,14.9,62.3,22.8l3,0.8
			c18.2,4.9,45.2,11,70.9,12.5"/>
		<line class="st82" x1="186.2" y1="403" x2="187.5" y2="403.1"/>
	</g>
</g>
<g class="st81">
	<g>
		<path class="st82" d="M520.9,76.4c-0.4,0.1-0.8,0.2-1.2,0.4"/>
		<path class="st86" d="M517.3,77.5c-25.1,7.3-53.9,11-85.9,11h-1.5c-32.6,0-61.9-3.9-87.3-11.4"/>
		<path class="st82" d="M341.4,76.7c-0.4-0.1-0.8-0.2-1.2-0.4"/>
	</g>
</g>
<g class="st81">
	<g>
		<line class="st82" x1="673.9" y1="403.1" x2="675.1" y2="403"/>
		<path class="st85" d="M677.6,402.8c25.3-1.7,51.8-7.6,69.7-12.4c0.6-0.2,3.1-0.8,3.1-0.8c29-7.9,52.2-17.1,62.3-22.8
			c0.3-0.2,0.6-0.3,1-0.5l1.3-0.6c1.3-0.7,2.5-1.4,3.5-2.1"/>
		<line class="st82" x1="819.4" y1="362.8" x2="820.4" y2="362"/>
	</g>
</g>
<g class="st81">
	<g>
		<path class="st82" d="M176.1,906.5c0.4,0.2,0.7,0.4,1.1,0.6"/>
		<path class="st87" d="M179.5,908.1c1.8,0.6,3.9,1,6.8,1.6c4.2,0.9,8.9,1.6,13.9,2.1c4.9,0.6,10,1,14.9,1.3
			c21.9,2.3,55.5-5,97.7-2.8c29.7,1.6,63.7,3.7,101,5.3c2.4,0.1,9.1,0.5,15.7,0.5c7.6,0,15.2-0.5,18.4-0.6c36.1-1.5,69.1-3.6,98-5.1
			c42.3-2.2,75.8,5.1,97.7,2.8c4.8-0.3,10-0.7,14.9-1.3c4.9-0.5,9.7-1.2,13.9-2.1c3.8-0.8,7-1.7,9.5-2.9"/>
		<path class="st82" d="M682.9,906.3c0.4-0.2,0.7-0.4,1.1-0.6"/>
	</g>
</g>
<g class="st81">
	<g>
		<path class="st82" d="M144.4,103.2c0.1,0.4,0.2,0.8,0.1,1.2"/>
		<path class="st88" d="M143.7,106.8c-1.5,2.6-4.4,5-4.4,5c-5,4.5-6.3,12.3-3.2,18.5l1.5,3.1c0.1,0.1,0.1,0.3,0.2,0.4
			c0.4,0.9,0.9,1.8,1.4,2.7"/>
		<path class="st82" d="M139.7,137.7c0.2,0.4,0.4,0.7,0.6,1.1"/>
	</g>
</g>
<g class="st81">
	<g>
		<path class="st82" d="M716.9,103.2c-0.1,0.4-0.2,0.8-0.1,1.2"/>
		<path class="st89" d="M717.6,106.8c1.5,2.6,4.4,5,4.4,5c5,4.5,6.3,12.3,3.2,18.5l-1.5,3.1c-0.1,0.1-0.1,0.3-0.2,0.4
			c-0.4,0.8-0.8,1.7-1.3,2.6"/>
		<path class="st82" d="M721.6,137.5c-0.2,0.4-0.4,0.7-0.6,1.1"/>
	</g>
</g>
<g class="st81">
	<g>
		<path class="st82" d="M197.1,392.4c0.3-0.3,0.5-0.6,0.8-1"/>
		<path class="st90" d="M199.2,389.3c2.7-5.5,2.3-13,2.1-15.2c-9.5-118.6-40.5-192.4-57.6-228.2"/>
		<path class="st82" d="M143.2,144.8c-0.2-0.4-0.4-0.8-0.5-1.1c0.3-0.2,0.7-0.5,1-0.7"/>
		<path class="st91" d="M145.8,141.6c15.7-9.9,36.4-17.7,47-21.6c2.1-0.8,3.8-1.4,5-1.9l1.4-0.5c0.9-0.3,1.7-0.7,2.4-1
			c34.6-13.9,64.2-29,88.3-44.9"/>
		<path class="st82" d="M290.9,71c0.3-0.2,0.7-0.5,1-0.7c0.2,0.4,0.4,0.7,0.6,1.1"/>
		<path class="st92" d="M293.8,73.5c0.3,0.5,0.6,1,0.9,1.5l0.1,0.1c10,15.3,33.4,36.8,61.2,48.1c17.2,6.9,26.3,14.7,26.4,14.8
			l1.6,1.4h42.1h9.1H475l2.3,0l1.6-1.4c0.1-0.1,9.2-7.8,26.4-14.8c27.8-11.2,51.2-32.8,61.2-48.1l0.1-0.1c0.5-0.8,1-1.7,1.5-2.5"/>
		<path class="st82" d="M568.8,71.4c0.2-0.4,0.4-0.7,0.6-1.1c0.3,0.2,0.7,0.5,1,0.7"/>
		<path class="st93" d="M572.5,72.4c23.8,15.6,53.1,30.5,87.2,44.2c0.7,0.3,1.6,0.6,2.4,1l1.4,0.5c1.2,0.5,2.9,1.1,5,1.9
			c10.9,4.1,32.2,12,48,22.3"/>
		<path class="st82" d="M717.6,143c0.3,0.2,0.7,0.5,1,0.7c-0.2,0.4-0.4,0.7-0.5,1.1"/>
		<path class="st94" d="M717,147c-17.2,36.2-47.6,109.7-57,227.1c-0.2,2.3-0.6,10.7,2.7,16.2"/>
		<path class="st82" d="M663.4,391.4c0.2,0.3,0.5,0.7,0.8,1"/>
	</g>
</g>
</svg>
