<?xml version="1.0" encoding="utf-8"?>
<!-- Generator: Adobe Illustrator 24.1.0, SVG Export Plug-In . SVG Version: 6.00 Build 0)  -->
<svg version="1.1" xmlns="http://www.w3.org/2000/svg" xmlns:xlink="http://www.w3.org/1999/xlink" x="0px" y="0px"
	 viewBox="0 0 850.4 963.8" enable-background="new 0 0 850.4 963.8" xml:space="preserve">
<g id="Capa_1">
	<g id="Capa_1_1_">
	</g>
	<g id="Short_principal">
	</g>
</g>
<g id="Cuello_y_Puños">
	<path opacity="0.75" fill="#1D1D1B" d="M181,407.2c0,0-3.4,3.8-5.1,5.3c-2.7,2.5-5.7,9.8-8.3,15.5c-0.4,0.8-0.7,2.7-3.4,2.7
		c-36.7-0.8-100-19.8-121.6-30.8c-0.6-0.3-10-4.3-11.2-6.1c-0.8-1.1-0.5-2.3,0-3.5c3.3-8.1,5.5-13.4,5.2-16.8
		c-0.3-3.2-1.8-7.1-1.8-7.2c1.3,1,2.9,2,4.7,2.9c0.4,0.2,0.8,0.4,1.2,0.6c0.3,0.1,0.6,0.3,0.9,0.4c10.5,5.9,34.2,15.4,63.7,23.4
		c1,0.3,2.1,0.6,3.1,0.8C132.1,400.8,158,405.8,181,407.2z"/>
	<path opacity="0.75" fill="#1D1D1B" d="M673.4,406c0,0,3.4,3.8,5.1,5.3c2.7,2.5,5.7,9.8,8.3,15.5c0.4,0.8,0.7,2.7,3.4,2.7
		c36.7-0.8,100-19.8,121.6-30.8c0.6-0.3,10-4.3,11.2-6.1c0.8-1.1,0.5-2.3,0-3.5c-3.3-8.1-5.5-13.4-5.2-16.8c0.3-3.2,1.8-7.1,1.8-7.2
		c-1.3,1-2.9,2-4.7,2.9c-0.4,0.2-0.8,0.4-1.2,0.6c-0.3,0.1-0.6,0.3-0.9,0.4c-10.5,5.9-34.2,15.4-63.7,23.4c-1,0.3-2.1,0.6-3.1,0.8
		C722.4,399.6,696.4,404.7,673.4,406z"/>
	<path opacity="0.75" fill="#1D1D1B" d="M307.6,16.5c-1.2-0.8-2.3-1-2.9-0.5c-0.1,0.1-0.1,0.2-0.2,0.3c-0.1,0.1-0.1,0.2-0.2,0.3
		c-0.1,0.2-0.1,0.4-0.2,0.7c-0.1,0.9,0,2.3,0.4,4.3c0.1,0.5,0.2,1,0.4,1.5c0.2,0.9,0.5,1.9,0.9,3c0.1,0.2,0.1,0.4,0.2,0.7
		c0.2,0.7,0.5,1.4,0.8,2.2c0.2,0.5,0.4,1,0.6,1.6c0.2,0.5,0.4,1.1,0.6,1.7c0.8,2,1.7,4.3,2.8,6.8c0.5,1.1,1,2.3,1.5,3.4
		c0.2,0.3,0.3,0.7,0.5,1c1,1.9,2.2,4.3,3.7,6.9c0.5,0.2,1,0.4,1.5,0.7c0.5,0.2,0.9,0.4,1.4,0.6c0.3,0.1,0.5,0.2,0.8,0.3
		c0.5,0.2,1,0.4,1.4,0.6c0.3,0.1,0.6,0.2,0.8,0.3c0.5,0.2,0.9,0.4,1.4,0.5c0.3,0.1,0.7,0.3,1,0.4C347.3,62.3,380.1,70,425.8,70h1.6
		c45.7,0,78.5-7.8,100.8-16.3c0.3-0.1,0.7-0.3,1-0.4c0.5-0.2,0.9-0.4,1.4-0.5c0.3-0.1,0.6-0.2,0.8-0.3c0.5-0.2,1-0.4,1.4-0.6
		c0.3-0.1,0.5-0.2,0.8-0.3c0.5-0.2,0.9-0.4,1.4-0.6c0.5-0.2,1-0.4,1.5-0.6c1.5-2.6,2.7-5,3.7-6.9c0.2-0.3,0.3-0.7,0.5-1
		c0.7-1.6,1.2-2.7,1.4-3.2c0-0.1,0.1-0.1,0.1-0.2c1.1-2.5,2-4.7,2.8-6.8c0.2-0.6,0.4-1.1,0.6-1.7c0.2-0.5,0.4-1.1,0.6-1.6
		c0.3-0.8,0.5-1.5,0.8-2.2c0.1-0.2,0.2-0.4,0.2-0.7c0.4-1.1,0.7-2.1,0.9-3c0.1-0.5,0.3-1,0.4-1.5c0.4-1.9,0.5-3.3,0.4-4.3
		c0-0.3-0.1-0.5-0.2-0.7c0-0.1-0.1-0.2-0.2-0.3c-0.1-0.1-0.1-0.2-0.2-0.3c-0.6-0.6-1.7-0.3-2.9,0.5c-0.1,0.1-0.2,0.1-0.3,0.2v0h0
		l0,0c-12.8,9.4-48.6,28.5-117.9,28.5h-1.5C356.6,45.1,320.8,26.1,308,16.7c0,0,0,0,0,0v0C307.8,16.6,307.7,16.5,307.6,16.5z"/>
	<path opacity="0.75" fill="#1D1D1B" d="M426.5,132h-44.2c0,0-9.6-8.3-28-15.8c-25.9-10.4-48.8-30.9-58.6-46
		c-2.1-3.5-4-6.9-5.6-10.1c-6.7-13.4-9.6-24.6-10.8-29.8c0.2-0.1,0.3-0.2,0.5-0.4c0.2-0.1,0.4-0.3,0.6-0.4
		c4.6-3.5,11.2-8.4,14.3-11.3c2.1-1.9,3.8-3.6,4.9-4.7c0.8-0.8,1.8-1.3,2.9-1.3c1,0,1.8,0.4,2.4,0.8c0.6,0.4,1.1,0.9,1.6,1.3
		c0.5,0.4,0.9,0.7,1.5,1.2c-0.1-0.1-0.2-0.1-0.3-0.2c-1.2-0.8-2.3-1-2.9-0.5c-0.1,0.1-0.1,0.2-0.2,0.3c-0.1,0.1-0.1,0.2-0.2,0.3
		c-0.1,0.2-0.1,0.4-0.2,0.7c-0.1,0.9,0,2.3,0.4,4.3c0.1,0.5,0.2,1,0.4,1.5c0.2,0.9,0.5,1.9,0.9,3c0.1,0.2,0.1,0.4,0.2,0.7
		c0.2,0.7,0.5,1.4,0.8,2.2c0.2,0.5,0.4,1,0.6,1.6c0.2,0.5,0.4,1.1,0.6,1.7c0.8,2,1.7,4.3,2.8,6.8c0.5,1.1,1,2.3,1.5,3.4
		c0.1,0.2,0.2,0.5,0.3,0.7c0.1,0.1,0.1,0.2,0.2,0.3c1,1.9,2.2,4.3,3.7,6.9c2.8,4.9,6.8,10.9,12.1,17.1
		c10.1,11.9,25.1,24.9,46.9,34.1C428.7,122.5,426.5,132,426.5,132z"/>
	<path opacity="0.75" fill="#1D1D1B" d="M574,30.3c-1.2,5.2-4.1,16.4-10.8,29.8c-1.6,3.3-3.5,6.7-5.6,10.1
		c-9.8,15.1-32.7,35.5-58.6,46c-18.5,7.5-28,15.8-28,15.8h-44.2c0,0-2.2-9.5,50.8-31.8c21.9-9.2,36.9-22.2,46.9-34.1
		c5.3-6.2,9.2-12.2,12.1-17.1c1.5-2.6,2.7-5,3.7-6.9c0.1-0.1,0.1-0.2,0.2-0.3c0.1-0.2,0.2-0.5,0.3-0.7c0.7-1.6,1.2-2.7,1.4-3.2
		c0-0.1,0.1-0.1,0.1-0.2c1.1-2.5,2-4.7,2.8-6.8c0.2-0.6,0.4-1.1,0.6-1.7c0.2-0.5,0.4-1.1,0.6-1.6c0.3-0.8,0.5-1.5,0.8-2.2
		c0.1-0.2,0.2-0.4,0.2-0.7c0.4-1.1,0.7-2.1,0.9-3c0.2-0.5,0.3-1,0.4-1.5c0.4-1.9,0.5-3.3,0.4-4.3c0-0.3-0.1-0.5-0.2-0.7
		c0-0.1-0.1-0.2-0.2-0.3c-0.1-0.1-0.1-0.2-0.2-0.3c-0.6-0.6-1.7-0.3-2.9,0.5c-0.1,0.1-0.2,0.1-0.3,0.2c0.6-0.4,1-0.8,1.5-1.2
		c0.5-0.4,1.1-0.9,1.6-1.3c0.6-0.4,1.5-0.8,2.4-0.8c1.1,0,2.1,0.5,2.9,1.3c1,1.1,2.7,2.8,4.9,4.7c3.2,2.9,9.8,7.8,14.3,11.3
		c0.2,0.1,0.4,0.3,0.6,0.4C573.7,30.1,573.8,30.2,574,30.3z"/>
</g>
<g id="Mangas_y_Hombros">
	<path fill="#1CA538" d="M115.9,116.9c4.8-3.4,10-6.7,15.3-9.7c-6.8,6.2-8.5,16.3-4.4,24.4c0.5,1,1,2,1.6,3.1c0,0.1,0.1,0.2,0.1,0.2
		c17.2,34.6,54.2,112.9,63.6,246.5v0c-2.8,6.1-5,9.9-8,17.1c-0.7,1.7-0.6,6.7-3.1,8.7c-51.2-2.9-117-24.5-139.4-36.9
		c-0.7-0.4-1.4-0.7-2-1c-1.8-0.9-3.4-1.9-4.7-2.9c-0.8-3.8,2.6-4.9,3.4-7.3c11.6-36.3,23.9-64.2,28.3-98.4
		c11.1-86.5,16.8-112.1,38.8-134.3C107.9,123.7,113.1,118.9,115.9,116.9z"/>
	<path fill="#1CA538" d="M290,61.3c-15.7,11.1-44.5,29.3-94.7,49.5c-1.1,0.4-2.4,0.9-3.8,1.5c-8.5,3.4-40.6,14.2-60.1,28.9
		c-1-2.1-2-4.1-2.9-5.9c0-0.1-0.1-0.2-0.1-0.2c-0.6-1.1-1.1-2.2-1.6-3.2c-4.1-8.2-2.5-18.4,4.4-24.7c19.7-11.3,41.2-19.4,51.1-23.4
		c59.8-24,86-44.3,97.4-52.7c-0.2,0.1-0.3,0.3-0.5,0.4C280.4,36.7,283.3,47.9,290,61.3z"/>
	<path fill="#1CA538" d="M737.3,116.9c-4.8-3.4-10-6.7-15.3-9.7c6.8,6.2,8.5,16.3,4.4,24.4c-0.5,1-1,2-1.6,3.1
		c0,0.1-0.1,0.2-0.1,0.2c-17.2,34.6-54.2,112.9-63.6,246.5v0c2.8,6.1,5,9.9,8,17.1c0.7,1.7,0.6,6.7,3.1,8.7
		c51.2-2.9,117-24.5,139.4-36.9c0.7-0.4,1.4-0.7,2-1c1.8-0.9,3.4-1.9,4.7-2.9c0.8-3.8-2.6-4.9-3.4-7.3
		c-11.6-36.3-23.9-64.2-28.3-98.4c-11.1-86.5-16.8-112.1-38.8-134.3C745.3,123.7,740.1,118.9,737.3,116.9z"/>
	<path fill="#1CA538" d="M563.2,61.3c15.7,11.1,44.5,29.3,94.7,49.5c1.1,0.4,2.4,0.9,3.8,1.5c8.5,3.4,40.6,14.2,60.1,28.9
		c1-2.1,2-4.1,2.9-5.9c0-0.1,0.1-0.2,0.1-0.2c0.6-1.1,1.1-2.2,1.6-3.2c4.1-8.2,2.5-18.4-4.4-24.7c-19.7-11.3-41.2-19.4-51.1-23.4
		c-59.8-24-86-44.3-97.4-52.7c0.2,0.1,0.3,0.3,0.5,0.4C572.8,36.7,569.9,47.9,563.2,61.3z"/>
</g>
<g id="Camiseta">
	<path fill="#E7EAEF" d="M681.3,902.6c-1.1-6.1-1.8-12.4-2.3-18.6c-6.6-72.1-17.8-173.8-19.5-197.6c-1.8-23.8-5.3-51.3-4.7-80.8
		c0.7-20.1-0.6-37.2-0.2-57.1c-2.7-30.2,1.3-91.2,1.3-91.2c0-17.7-1-34,2.2-48.9c0,0,0,0,0-0.1c0.9-8.4,1.9-16.7,3-24.7v0
		c9-128.1,42.6-205.9,60.8-243.5c-19.4-14.7-51.6-25.5-60.1-28.9c-1.4-0.6-2.7-1-3.8-1.5c-50.2-20.2-79-38.4-94.7-49.5
		c0.3-0.5,0.5-1,0.7-1.5c-1.8,3.7-3.9,7.6-6.4,11.7c-9.8,15.1-32.7,35.5-58.6,46c-18.5,7.5-28,15.8-28,15.8h-44.2c0,0-0.1,0-0.1,0v0
		c0,0,0,0,0,0c0,0,0,0,0,0v0c0,0-0.1,0-0.1,0h-44.2c0,0-9.6-8.3-28-15.8c-25.9-10.4-48.8-30.9-58.6-46c-2.5-4-4.6-7.9-6.4-11.7
		c0.2,0.5,0.5,1,0.7,1.5c-15.7,11.1-44.5,29.3-94.7,49.5c-1.1,0.4-2.4,0.9-3.8,1.5c-8.5,3.4-40.6,14.2-60.1,28.9
		c18.1,37.6,51.8,115.4,60.8,243.5v0c1.1,8,2.1,16.3,3,24.7c0,0,0,0,0,0.1c3.2,14.9,2.2,31.2,2.2,48.9c0,0,4,61,1.3,91.2
		c0.3,19.9-0.9,37-0.2,57.1c0.5,29.4-3,57-4.7,80.8c-1.8,23.8-12.9,125.4-19.5,197.6c-0.6,6.3-1.3,12.5-2.3,18.6
		c-1.2,7.2-6,27.5-2.1,31.4c2.2,2.2,6.9,3.8,13,5.1c4.2,0.9,8.9,1.6,13.9,2.1c5,0.5,10.1,0.9,14.9,1.2c22,2.3,55.6-5,98-2.8
		c33.9,1.8,73.4,4.3,116.9,5.9h0h0h0c43.5-1.5,83-4.1,116.9-5.9c42.4-2.2,76.1,5.1,98,2.8c4.9-0.3,10-0.7,14.9-1.2
		c5-0.6,9.7-1.3,13.9-2.1c6-1.3,10.8-2.9,13-5.1C687.2,930.1,682.5,909.7,681.3,902.6z"/>
</g>
<g id="Estampa">
	<g>
		<defs>
			<path id="SVGID_1_" d="M681.3,903.4c-1.1-6.2-1.8-12.4-2.3-18.6c-6.6-72.2-8.4-74.5-13.4-119.6c-4-36.6-4.4-54.5-6.2-78.3
				c-1.8-23.8-5.3-51.4-4.7-80.9c0.7-20.1-0.6-37.3-0.2-57.2c-2.7-30.2,1.3-91.3,1.3-91.3c0-17.8-1-34,2.2-49c0,0,0,0,0-0.1
				c0.9-8.4,1.9-16.7,3-24.7v0c9-128.3,42.6-206.2,60.8-243.9c-19.4-14.8-51.6-25.6-60.1-29c-1.4-0.6-2.7-1.1-3.8-1.5
				c-50.3-20.2-79-38.5-94.7-49.5c0.3-0.5,0.5-1,0.7-1.5c-1.8,3.7-3.9,7.7-6.4,11.7c-9.8,15.1-32.7,35.6-58.6,46
				c-18.5,7.5-28,15.8-28,15.8h-44.2c0,0-0.1,0-0.1,0v0c0,0,0,0,0,0c0,0,0,0,0,0v0c0,0-0.1,0-0.1,0h-44.2c0,0-9.6-8.3-28-15.8
				c-25.9-10.4-48.8-30.9-58.6-46c-2.5-4-4.6-7.9-6.4-11.7c0.2,0.5,0.5,1,0.7,1.5c-15.7,11.1-44.5,29.3-94.7,49.5
				c-1.1,0.4-2.4,0.9-3.8,1.5c-8.5,3.4-40.6,14.2-60.1,29c18.1,37.7,51.8,115.6,60.8,243.9v0c1.1,8,2.1,16.3,3,24.7c0,0,0,0,0,0.1
				c3.2,15,2.2,31.2,2.2,49c0,0,4,61.1,1.3,91.3c0.3,19.9-0.9,37.1-0.2,57.2c0.5,29.5-3,57.1-4.7,80.9c-1.8,23.8-6.7,42.7-10.7,79.3
				c-5,45.1-2.2,46.3-8.8,118.6c-0.6,6.3-1.3,12.5-2.3,18.6c-1.2,7.2-0.2,14.2-2.7,21c-0.8,2.2-3.2,6.6,0.6,10.4
				c2.2,2.2,7,3.8,13,5.1c4.2,0.9,8.9,1.6,13.9,2.1c5,0.5,10.1,0.9,14.9,1.3c22,2.3,55.6-5,98-2.8c33.9,1.8,73.4,4.3,116.9,5.9h0h0
				h0c43.5-1.5,83-4.1,116.9-5.9c42.4-2.2,76.1,5.1,98,2.8c4.9-0.3,10-0.7,14.9-1.3c5-0.6,9.7-1.3,13.9-2.1c6-1.3,10.8-2.9,13-5.1
				c3.9-3.9,1.5-8.3,0.6-10.4C681.4,917.6,682.5,910.6,681.3,903.4z"/>
		</defs>
		<clipPath id="SVGID_2_">
			<use xlink:href="#SVGID_1_"  overflow="visible"/>
		</clipPath>
		<g clip-path="url(#SVGID_2_)">
			<rect x="190.2" y="52.7" opacity="0.72" fill="#239B38" width="36.4" height="33.3"/>
			<rect x="262.9" y="52.7" opacity="0.72" fill="#239B38" width="36.4" height="33.3"/>
			<rect x="335.7" y="52.7" opacity="0.72" fill="#239B38" width="36.4" height="33.3"/>
			<rect x="444.7" y="52.7" opacity="0.39" fill="#239B38" width="36.4" height="33.3"/>
			<rect x="481.1" y="52.7" fill="#239B38" width="36.4" height="33.3"/>
			<rect x="517.5" y="52.7" fill="#239B38" width="36.4" height="33.3"/>
			<rect x="553.8" y="52.7" fill="#239B38" width="36.4" height="33.3"/>
			<rect x="590.2" y="52.7" fill="#239B38" width="36.4" height="33.3"/>
			<rect x="626.5" y="52.7" fill="#239B38" width="36.4" height="33.3"/>
			<rect x="662.9" y="52.7" fill="#239B38" width="36.4" height="33.3"/>
			<rect x="699.2" y="52.7" fill="#239B38" width="36.4" height="33.3"/>
			<rect x="735.6" y="52.7" fill="#239B38" width="36.4" height="33.3"/>
			<rect x="408.4" y="86" opacity="0.72" fill="#239B38" width="36.4" height="33.3"/>
			<rect x="444.7" y="86" fill="#239B38" width="36.4" height="33.3"/>
			<rect x="481.1" y="86" opacity="7.000000e-02" fill="#239B38" width="36.4" height="33.3"/>
			<rect x="517.5" y="86" fill="#239B38" width="36.4" height="33.3"/>
			<rect x="553.8" y="86" fill="#239B38" width="36.4" height="33.3"/>
			<rect x="590.2" y="86" fill="#239B38" width="36.4" height="33.3"/>
			<rect x="626.5" y="86" fill="#239B38" width="36.4" height="33.3"/>
			<rect x="662.9" y="86" fill="#239B38" width="36.4" height="33.3"/>
			<rect x="699.2" y="86" fill="#239B38" width="36.4" height="33.3"/>
			<rect x="735.6" y="86" fill="#239B38" width="36.4" height="33.3"/>
			<rect x="117.5" y="119.3" opacity="0.39" fill="#239B38" width="36.4" height="33.3"/>
			<rect x="226.6" y="119.3" opacity="0.39" fill="#239B38" width="36.4" height="33.3"/>
			<rect x="335.7" y="119.3" opacity="0.72" fill="#239B38" width="36.4" height="33.3"/>
			<rect x="444.7" y="119.3" opacity="7.000000e-02" fill="#239B38" width="36.4" height="33.3"/>
			<rect x="481.1" y="119.3" opacity="7.000000e-02" fill="#239B38" width="36.4" height="33.3"/>
			<rect x="517.5" y="119.3" fill="#239B38" width="36.4" height="33.3"/>
			<rect x="553.8" y="119.3" opacity="0.72" fill="#239B38" width="36.4" height="33.3"/>
			<rect x="590.2" y="119.3" opacity="0.72" fill="#239B38" width="36.4" height="33.3"/>
			<rect x="626.5" y="119.3" fill="#239B38" width="36.4" height="33.3"/>
			<rect x="662.9" y="119.3" fill="#239B38" width="36.4" height="33.3"/>
			<rect x="735.6" y="119.3" fill="#239B38" width="36.4" height="33.3"/>
			<rect x="335.7" y="152.6" opacity="0.39" fill="#239B38" width="36.4" height="33.3"/>
			<rect x="372" y="152.6" opacity="0.72" fill="#239B38" width="36.4" height="33.3"/>
			<rect x="444.7" y="152.6" opacity="0.72" fill="#239B38" width="36.4" height="33.3"/>
			<rect x="481.1" y="152.6" opacity="0.39" fill="#239B38" width="36.4" height="33.3"/>
			<rect x="517.5" y="152.6" opacity="0.72" fill="#239B38" width="36.4" height="33.3"/>
			<rect x="553.8" y="152.6" fill="#239B38" width="36.4" height="33.3"/>
			<rect x="590.2" y="152.6" opacity="7.000000e-02" fill="#239B38" width="36.4" height="33.3"/>
			<rect x="626.5" y="152.6" fill="#239B38" width="36.4" height="33.3"/>
			<rect x="662.9" y="152.6" fill="#239B38" width="36.4" height="33.3"/>
			<rect x="226.6" y="185.9" opacity="0.39" fill="#239B38" width="36.4" height="33.3"/>
			<rect x="553.8" y="185.9" opacity="0.39" fill="#239B38" width="36.4" height="33.3"/>
			<rect x="590.2" y="185.9" opacity="0.72" fill="#239B38" width="36.4" height="33.3"/>
			<rect x="626.5" y="185.9" opacity="7.000000e-02" fill="#239B38" width="36.4" height="33.3"/>
			<rect x="662.9" y="185.9" fill="#239B38" width="36.4" height="33.3"/>
			<rect x="699.2" y="185.9" fill="#239B38" width="36.4" height="33.3"/>
			<rect x="735.6" y="185.9" fill="#239B38" width="36.4" height="33.3"/>
			<rect x="299.3" y="219.2" opacity="0.39" fill="#239B38" width="36.4" height="33.3"/>
			<rect x="408.4" y="219.2" opacity="0.39" fill="#239B38" width="36.4" height="33.3"/>
			<rect x="481.1" y="219.2" opacity="0.39" fill="#239B38" width="36.4" height="33.3"/>
			<rect x="590.2" y="219.2" opacity="0.39" fill="#239B38" width="36.4" height="33.3"/>
			<rect x="626.5" y="219.2" opacity="0.72" fill="#239B38" width="36.4" height="33.3"/>
			<rect x="662.9" y="219.2" opacity="0.72" fill="#239B38" width="36.4" height="33.3"/>
			<rect x="699.2" y="219.2" fill="#239B38" width="36.4" height="33.3"/>
			<rect x="735.6" y="219.2" opacity="7.000000e-02" fill="#239B38" width="36.4" height="33.3"/>
			<rect x="372" y="252.6" opacity="0.39" fill="#239B38" width="36.4" height="33.3"/>
			<rect x="626.5" y="252.6" opacity="0.72" fill="#239B38" width="36.4" height="33.3"/>
			<rect x="662.9" y="252.6" opacity="7.000000e-02" fill="#239B38" width="36.4" height="33.3"/>
			<rect x="699.2" y="252.6" fill="#239B38" width="36.4" height="33.3"/>
			<rect x="735.6" y="252.6" fill="#239B38" width="36.4" height="33.3"/>
			<rect x="226.6" y="285.9" opacity="0.39" fill="#239B38" width="36.4" height="33.3"/>
			<rect x="662.9" y="285.9" opacity="0.39" fill="#239B38" width="36.4" height="33.3"/>
			<rect x="699.2" y="285.9" opacity="0.72" fill="#239B38" width="36.4" height="33.3"/>
			<rect x="190.2" y="319.2" opacity="0.39" fill="#239B38" width="36.4" height="33.3"/>
			<rect x="335.7" y="319.2" opacity="0.39" fill="#239B38" width="36.4" height="33.3"/>
			<rect x="481.1" y="319.2" opacity="0.39" fill="#239B38" width="36.4" height="33.3"/>
			<rect x="699.2" y="319.2" opacity="0.72" fill="#239B38" width="36.4" height="33.3"/>
			<rect x="117.5" y="352.5" opacity="0.39" fill="#239B38" width="36.4" height="33.3"/>
			<rect x="699.2" y="352.5" opacity="0.72" fill="#239B38" width="36.4" height="33.3"/>
			<rect x="553.8" y="385.8" opacity="0.39" fill="#239B38" width="36.4" height="33.3"/>
			<rect x="190.2" y="419.1" opacity="0.39" fill="#239B38" width="36.4" height="33.3"/>
			<rect x="262.9" y="419.1" opacity="0.39" fill="#239B38" width="36.4" height="33.3"/>
			<rect x="408.4" y="419.1" opacity="0.39" fill="#239B38" width="36.4" height="33.3"/>
			<rect x="735.6" y="419.1" opacity="0.39" fill="#239B38" width="36.4" height="33.3"/>
			<rect x="153.9" y="452.4" opacity="0.39" fill="#239B38" width="36.4" height="33.3"/>
			<rect x="662.9" y="452.4" opacity="0.39" fill="#239B38" width="36.4" height="33.3"/>
			<rect x="81.1" y="485.7" fill="#239B38" width="36.4" height="33.3"/>
			<rect x="335.7" y="485.7" opacity="0.39" fill="#239B38" width="36.4" height="33.3"/>
			<rect x="81.1" y="519.1" opacity="0.72" fill="#239B38" width="36.4" height="33.3"/>
			<rect x="117.5" y="519.1" opacity="0.72" fill="#239B38" width="36.4" height="33.3"/>
			<rect x="153.9" y="519.1" opacity="0.72" fill="#239B38" width="36.4" height="33.3"/>
			<rect x="481.1" y="519.1" opacity="0.39" fill="#239B38" width="36.4" height="33.3"/>
			<rect x="81.1" y="552.4" fill="#239B38" width="36.4" height="33.3"/>
			<rect x="117.5" y="552.4" opacity="7.000000e-02" fill="#239B38" width="36.4" height="33.3"/>
			<rect x="153.9" y="552.4" opacity="0.72" fill="#239B38" width="36.4" height="33.3"/>
			<rect x="190.2" y="552.4" opacity="0.39" fill="#239B38" width="36.4" height="33.3"/>
			<rect x="226.6" y="552.4" opacity="7.000000e-02" fill="#239B38" width="36.4" height="33.3"/>
			<rect x="262.9" y="552.4" opacity="0.39" fill="#239B38" width="36.4" height="33.3"/>
			<rect x="372" y="552.4" opacity="0.39" fill="#239B38" width="36.4" height="33.3"/>
			<rect x="553.8" y="552.4" opacity="0.39" fill="#239B38" width="36.4" height="33.3"/>
			<rect x="662.9" y="552.4" opacity="0.39" fill="#239B38" width="36.4" height="33.3"/>
			<rect x="81.1" y="585.7" opacity="0.72" fill="#239B38" width="36.4" height="33.3"/>
			<rect x="117.5" y="585.7" opacity="7.000000e-02" fill="#239B38" width="36.4" height="33.3"/>
			<rect x="153.9" y="585.7" opacity="0.72" fill="#239B38" width="36.4" height="33.3"/>
			<rect x="190.2" y="585.7" opacity="7.000000e-02" fill="#239B38" width="36.4" height="33.3"/>
			<rect x="226.6" y="585.7" opacity="0.72" fill="#239B38" width="36.4" height="33.3"/>
			<rect x="81.1" y="619" opacity="0.72" fill="#239B38" width="36.4" height="33.3"/>
			<rect x="117.5" y="619" opacity="0.72" fill="#239B38" width="36.4" height="33.3"/>
			<rect x="153.9" y="619" opacity="0.39" fill="#239B38" width="36.4" height="33.3"/>
			<rect x="481.1" y="619" opacity="0.39" fill="#239B38" width="36.4" height="33.3"/>
			<rect x="81.1" y="652.3" fill="#239B38" width="36.4" height="33.3"/>
			<rect x="153.9" y="652.3" opacity="0.72" fill="#239B38" width="36.4" height="33.3"/>
			<rect x="190.2" y="652.3" fill="#239B38" width="36.4" height="33.3"/>
			<rect x="226.6" y="652.3" opacity="7.000000e-02" fill="#239B38" width="36.4" height="33.3"/>
			<rect x="262.9" y="652.3" opacity="7.000000e-02" fill="#239B38" width="36.4" height="33.3"/>
			<rect x="299.3" y="652.3" opacity="0.72" fill="#239B38" width="36.4" height="33.3"/>
			<rect x="335.7" y="652.3" opacity="0.39" fill="#239B38" width="36.4" height="33.3"/>
			<rect x="444.7" y="652.3" opacity="0.39" fill="#239B38" width="36.4" height="33.3"/>
			<rect x="81.1" y="685.6" fill="#239B38" width="36.4" height="33.3"/>
			<rect x="153.9" y="685.6" fill="#239B38" width="36.4" height="33.3"/>
			<rect x="190.2" y="685.6" opacity="0.72" fill="#239B38" width="36.4" height="33.3"/>
			<rect x="226.6" y="685.6" opacity="7.000000e-02" fill="#239B38" width="36.4" height="33.3"/>
			<rect x="262.9" y="685.6" opacity="0.72" fill="#239B38" width="36.4" height="33.3"/>
			<rect x="553.8" y="685.6" opacity="0.39" fill="#239B38" width="36.4" height="33.3"/>
			<rect x="81.1" y="718.9" fill="#239B38" width="36.4" height="33.3"/>
			<rect x="117.5" y="718.9" opacity="0.72" fill="#239B38" width="36.4" height="33.3"/>
			<rect x="153.9" y="718.9" opacity="0.72" fill="#239B38" width="36.4" height="33.3"/>
			<rect x="190.2" y="718.9" fill="#239B38" width="36.4" height="33.3"/>
			<rect x="262.9" y="718.9" opacity="0.72" fill="#239B38" width="36.4" height="33.3"/>
			<rect x="299.3" y="718.9" opacity="0.72" fill="#239B38" width="36.4" height="33.3"/>
			<rect x="335.7" y="718.9" opacity="0.39" fill="#239B38" width="36.4" height="33.3"/>
			<rect x="444.7" y="718.9" opacity="0.72" fill="#239B38" width="36.4" height="33.3"/>
			<rect x="81.1" y="752.2" fill="#239B38" width="36.4" height="33.3"/>
			<rect x="117.5" y="752.2" fill="#239B38" width="36.4" height="33.3"/>
			<rect x="153.9" y="752.2" fill="#239B38" width="36.4" height="33.3"/>
			<rect x="190.2" y="752.2" opacity="0.39" fill="#239B38" width="36.4" height="33.3"/>
			<rect x="226.6" y="752.2" fill="#239B38" width="36.4" height="33.3"/>
			<rect x="262.9" y="752.2" opacity="0.72" fill="#239B38" width="36.4" height="33.3"/>
			<rect x="299.3" y="752.2" opacity="0.39" fill="#239B38" width="36.4" height="33.3"/>
			<rect x="335.7" y="752.2" opacity="0.72" fill="#239B38" width="36.4" height="33.3"/>
			<rect x="372" y="752.2" opacity="0.39" fill="#239B38" width="36.4" height="33.3"/>
			<rect x="735.6" y="752.2" opacity="0.39" fill="#239B38" width="36.4" height="33.3"/>
			<rect x="81.1" y="785.5" opacity="0.72" fill="#239B38" width="36.4" height="33.3"/>
			<rect x="117.5" y="785.5" fill="#239B38" width="36.4" height="33.3"/>
			<rect x="153.9" y="785.5" opacity="0.39" fill="#239B38" width="36.4" height="33.3"/>
			<rect x="190.2" y="785.5" fill="#239B38" width="36.4" height="33.3"/>
			<rect x="226.6" y="785.5" opacity="0.72" fill="#239B38" width="36.4" height="33.3"/>
			<rect x="262.9" y="785.5" fill="#239B38" width="36.4" height="33.3"/>
			<rect x="299.3" y="785.5" opacity="0.72" fill="#239B38" width="36.4" height="33.3"/>
			<rect x="335.7" y="785.5" opacity="0.39" fill="#239B38" width="36.4" height="33.3"/>
			<rect x="481.1" y="785.5" opacity="0.72" fill="#239B38" width="36.4" height="33.3"/>
			<rect x="590.2" y="785.5" opacity="0.39" fill="#239B38" width="36.4" height="33.3"/>
			<rect x="626.5" y="785.5" opacity="7.000000e-02" fill="#239B38" width="36.4" height="33.3"/>
			<rect x="662.9" y="785.5" opacity="0.39" fill="#239B38" width="36.4" height="33.3"/>
			<rect x="81.1" y="818.9" fill="#239B38" width="36.4" height="33.3"/>
			<rect x="117.5" y="818.9" fill="#239B38" width="36.4" height="33.3"/>
			<rect x="153.9" y="818.9" fill="#239B38" width="36.4" height="33.3"/>
			<rect x="190.2" y="818.9" fill="#239B38" width="36.4" height="33.3"/>
			<rect x="226.6" y="818.9" opacity="0.39" fill="#239B38" width="36.4" height="33.3"/>
			<rect x="262.9" y="818.9" fill="#239B38" width="36.4" height="33.3"/>
			<rect x="299.3" y="818.9" fill="#239B38" width="36.4" height="33.3"/>
			<rect x="444.7" y="818.9" opacity="0.39" fill="#239B38" width="36.4" height="33.3"/>
			<rect x="481.1" y="818.9" opacity="7.000000e-02" fill="#239B38" width="36.4" height="33.3"/>
			<rect x="81.1" y="852.2" fill="#239B38" width="36.4" height="33.3"/>
			<rect x="117.5" y="852.2" fill="#239B38" width="36.4" height="33.3"/>
			<rect x="153.9" y="852.2" opacity="0.39" fill="#239B38" width="36.4" height="33.3"/>
			<rect x="190.2" y="852.2" fill="#239B38" width="36.4" height="33.3"/>
			<rect x="226.6" y="852.2" fill="#239B38" width="36.4" height="33.3"/>
			<rect x="262.9" y="852.2" fill="#239B38" width="36.4" height="33.3"/>
			<rect x="299.3" y="852.2" fill="#239B38" width="36.4" height="33.3"/>
			<rect x="372" y="852.2" opacity="7.000000e-02" fill="#239B38" width="36.4" height="33.3"/>
			<rect x="408.4" y="852.2" opacity="0.39" fill="#239B38" width="36.4" height="33.3"/>
			<rect x="444.7" y="852.2" opacity="0.72" fill="#239B38" width="36.4" height="33.3"/>
			<rect x="481.1" y="852.2" opacity="7.000000e-02" fill="#239B38" width="36.4" height="33.3"/>
			<rect x="517.5" y="852.2" opacity="0.72" fill="#239B38" width="36.4" height="33.3"/>
			<rect x="81.1" y="885.5" fill="#239B38" width="36.4" height="33.3"/>
			<rect x="117.5" y="885.5" fill="#239B38" width="36.4" height="33.3"/>
			<rect x="153.9" y="885.5" fill="#239B38" width="36.4" height="33.3"/>
			<rect x="190.2" y="885.5" fill="#239B38" width="36.4" height="33.3"/>
			<rect x="226.6" y="885.5" fill="#239B38" width="36.4" height="33.3"/>
			<rect x="262.9" y="885.5" opacity="0.72" fill="#239B38" width="36.4" height="33.3"/>
			<rect x="299.3" y="885.5" opacity="0.39" fill="#239B38" width="36.4" height="33.3"/>
			<rect x="335.7" y="885.5" fill="#239B38" width="36.4" height="33.3"/>
			<rect x="372" y="885.5" fill="#239B38" width="36.4" height="33.3"/>
			<rect x="408.4" y="885.5" fill="#239B38" width="36.4" height="33.3"/>
			<rect x="444.7" y="885.5" opacity="0.72" fill="#239B38" width="36.4" height="33.3"/>
			<rect x="481.1" y="885.5" opacity="0.72" fill="#239B38" width="36.4" height="33.3"/>
			<rect x="517.5" y="885.5" opacity="7.000000e-02" fill="#239B38" width="36.4" height="33.3"/>
			<rect x="590.2" y="885.5" opacity="0.72" fill="#239B38" width="36.4" height="33.3"/>
			<rect x="81.1" y="918.8" fill="#239B38" width="36.4" height="33.3"/>
			<rect x="117.5" y="918.8" fill="#239B38" width="36.4" height="33.3"/>
			<rect x="153.9" y="918.8" fill="#239B38" width="36.4" height="33.3"/>
			<rect x="190.2" y="918.8" fill="#239B38" width="36.4" height="33.3"/>
			<rect x="226.6" y="918.8" opacity="0.72" fill="#239B38" width="36.4" height="33.3"/>
			<rect x="262.9" y="918.8" fill="#239B38" width="36.4" height="33.3"/>
			<rect x="299.3" y="918.8" fill="#239B38" width="36.4" height="33.3"/>
			<rect x="335.7" y="918.8" fill="#239B38" width="36.4" height="33.3"/>
			<rect x="372" y="918.8" fill="#239B38" width="36.4" height="33.3"/>
			<rect x="408.4" y="918.8" opacity="7.000000e-02" fill="#239B38" width="36.4" height="33.3"/>
			<rect x="444.7" y="918.8" fill="#239B38" width="36.4" height="33.3"/>
			<rect x="662.9" y="918.8" opacity="0.72" fill="#239B38" width="36.4" height="33.3"/>
			<rect x="699.2" y="918.8" opacity="0.39" fill="#239B38" width="36.4" height="33.3"/>
		</g>
	</g>
</g>
<g id="GENERICO">
	<linearGradient id="SVGID_3_" gradientUnits="userSpaceOnUse" x1="279.2061" y1="72.211" x2="426.5111" y2="72.211">
		<stop  offset="0" style="stop-color:#12110B;stop-opacity:0.3"/>
		<stop  offset="0.1471" style="stop-color:#12110B;stop-opacity:0.2559"/>
		<stop  offset="1" style="stop-color:#12110B;stop-opacity:0"/>
	</linearGradient>
	<path opacity="0.36" fill="url(#SVGID_3_)" d="M426.5,132.1h-44.2c0,0-9.6-8.3-28-15.8c-25.9-10.4-48.8-30.9-58.6-46
		c-2.1-3.5-4-6.9-5.6-10.1c-6.7-13.4-9.6-24.6-10.8-29.8c0.2-0.1,0.3-0.2,0.5-0.4c0.2-0.1,0.4-0.3,0.6-0.4
		c4.6-3.5,11.2-8.4,14.3-11.3c2.1-1.9,3.8-3.6,4.9-4.7c0.8-0.8,1.8-1.3,2.9-1.3c1,0,1.8,0.4,2.4,0.8c0.6,0.4,1.1,0.9,1.6,1.3
		c0.5,0.4,0.9,0.7,1.5,1.2c-0.1-0.1-0.2-0.1-0.3-0.2c-1.2-0.8-2.3-1-2.9-0.5c-0.1,0.1-0.1,0.2-0.2,0.3c-0.1,0.1-0.1,0.2-0.2,0.3
		c-0.1,0.2-0.1,0.4-0.2,0.7c-0.1,0.9,0,2.3,0.4,4.3c0.1,0.5,0.2,1,0.4,1.5c0.2,0.9,0.5,1.9,0.9,3c0.1,0.2,0.1,0.4,0.2,0.7
		c0.2,0.7,0.5,1.4,0.8,2.2c0.2,0.5,0.4,1,0.6,1.6c0.2,0.5,0.4,1.1,0.6,1.7c0.8,2,1.7,4.3,2.8,6.8c0.5,1.1,1,2.3,1.5,3.4
		c0.1,0.2,0.2,0.5,0.3,0.7c0.1,0.1,0.1,0.2,0.2,0.3c1,1.9,2.2,4.3,3.7,6.9c2.8,4.9,6.8,10.9,12.1,17.1
		c10.1,11.9,25.1,24.9,46.9,34.1C428.7,122.6,426.5,132.1,426.5,132.1z"/>
	<linearGradient id="SVGID_4_" gradientUnits="userSpaceOnUse" x1="573.9824" y1="72.1082" x2="426.6786" y2="72.1082">
		<stop  offset="0" style="stop-color:#12110B;stop-opacity:0.3"/>
		<stop  offset="0.1471" style="stop-color:#12110B;stop-opacity:0.2559"/>
		<stop  offset="1" style="stop-color:#12110B;stop-opacity:0"/>
	</linearGradient>
	<path opacity="0.36" fill="url(#SVGID_4_)" d="M574,30.3c-1.2,5.2-4.1,16.4-10.8,29.8c-1.6,3.3-3.5,6.7-5.6,10.1
		c-9.8,15.1-32.7,35.5-58.6,46c-18.5,7.5-28,15.8-28,15.8h-44.2c0,0-2.2-9.5,50.8-31.8c21.9-9.2,36.9-22.2,46.9-34.1
		c5.3-6.2,9.2-12.2,12.1-17.1c1.5-2.6,2.7-5,3.7-6.9c0.1-0.1,0.1-0.2,0.2-0.3c0.1-0.2,0.2-0.5,0.3-0.7c0.7-1.6,1.2-2.7,1.4-3.2
		c0-0.1,0.1-0.1,0.1-0.2c1.1-2.5,2-4.7,2.8-6.8c0.2-0.6,0.4-1.1,0.6-1.7c0.2-0.5,0.4-1.1,0.6-1.6c0.3-0.8,0.5-1.5,0.8-2.2
		c0.1-0.2,0.2-0.4,0.2-0.7c0.4-1.1,0.7-2.1,0.9-3c0.2-0.5,0.3-1,0.4-1.5c0.4-1.9,0.5-3.3,0.4-4.3c0-0.3-0.1-0.5-0.2-0.7
		c0-0.1-0.1-0.2-0.2-0.3c-0.1-0.1-0.1-0.2-0.2-0.3c-0.6-0.6-1.7-0.3-2.9,0.5c-0.1,0.1-0.2,0.1-0.3,0.2c0.6-0.4,1-0.8,1.5-1.2
		c0.5-0.4,1.1-0.9,1.6-1.3c0.6-0.4,1.5-0.8,2.4-0.8c1.1,0,2.1,0.5,2.9,1.3c1,1.1,2.7,2.8,4.9,4.7c3.2,2.9,9.8,7.8,14.3,11.3
		c0.2,0.1,0.4,0.3,0.6,0.4C573.7,30.1,573.8,30.2,574,30.3z"/>
	<linearGradient id="SVGID_5_" gradientUnits="userSpaceOnUse" x1="168.94" y1="712.9601" x2="214.7738" y2="712.9601">
		<stop  offset="0.1336" style="stop-color:#12110B;stop-opacity:0.3"/>
		<stop  offset="1" style="stop-color:#12110B;stop-opacity:0"/>
	</linearGradient>
	<path fill="url(#SVGID_5_)" d="M199.8,481.5c0,0,21.3,246.1,13.1,463c0,0-30.3-0.9-40.2-7.2c-9.9-6.3,3-43.5,3.6-57.9
		s8.4-120.3,11.3-140.4C190.5,718.8,208.5,540.7,199.8,481.5z"/>
	
		<linearGradient id="SVGID_6_" gradientUnits="userSpaceOnUse" x1="213.1193" y1="712.7975" x2="258.9531" y2="712.7975" gradientTransform="matrix(-1 0 0 1 898 0)">
		<stop  offset="0.1336" style="stop-color:#12110B;stop-opacity:0.3"/>
		<stop  offset="1" style="stop-color:#12110B;stop-opacity:0"/>
	</linearGradient>
	<path fill="url(#SVGID_6_)" d="M654,481.3c0,0-21.3,246.1-13.1,463c0,0,30.3-0.9,40.2-7.2c9.9-6.3-3-45.5-3.6-59.9
		c-0.6-14.5-8.4-118.3-11.3-138.4C663.3,718.7,645.3,540.5,654,481.3z"/>
	<g opacity="0.13">
		<defs>
			<filter id="Adobe_OpacityMaskFilter" filterUnits="userSpaceOnUse" x="513.3" y="273.9" width="165.4" height="670.3">
				<feFlood  style="flood-color:white;flood-opacity:1" result="back"/>
				<feBlend  in="SourceGraphic" in2="back" mode="normal"/>
			</filter>
		</defs>
		<mask maskUnits="userSpaceOnUse" x="513.3" y="273.9" width="165.4" height="670.3" id="SVGID_7_">
			<g filter="url(#Adobe_OpacityMaskFilter)">
				<image overflow="visible" width="170" height="675" xlink:href="198CCABB.jpg"  transform="matrix(1 0 0 1 511 271.8)">
				</image>
			</g>
		</mask>
		<g mask="url(#SVGID_7_)">
			
				<linearGradient id="SVGID_8_" gradientUnits="userSpaceOnUse" x1="271.4355" y1="609.0922" x2="436.8268" y2="609.0922" gradientTransform="matrix(-1 0 0 1 950.1758 0)">
				<stop  offset="0.1336" style="stop-color:#12110B;stop-opacity:0.3"/>
				<stop  offset="1" style="stop-color:#12110B;stop-opacity:0"/>
			</linearGradient>
			<path fill="url(#SVGID_8_)" d="M562.5,896.1c6.3-71.1,20.9-141.6,24.6-212.9c5.3-100.2-10.9-200.7-1.9-300.7
				c0.6-6.2,1.3-12.6,4.1-18.3c2.6-5.1,6.7-9.4,10.8-13.6c14.5-14.8,64.1-61.9,78.6-76.8c0.9,21.2-68.4,104.9-77,124.6
				c-12.1,27.8,7.3,25.8,7.5,55.7c0.6,106,1.2,212.1,1.8,318.1c0.3,51.9,0.7,104.5,15.1,154.7c0.7,2.4,1.4,5,0.1,7.2
				c-1.7,3-6,3.6-9.6,3.8c-33.9,2.1-67.8,4.2-101.7,6.4c-4.6-107.9,0.7-216.2,16-323.2c9.3,7.7,10.4,20.5,10.8,32
				c1.6,47.7,3.2,95.5,4.7,143.2c1.1,33,2.3,66.5,12.4,98.2"/>
		</g>
	</g>
	<g opacity="0.76">
		<defs>
			<filter id="Adobe_OpacityMaskFilter_1_" filterUnits="userSpaceOnUse" x="599" y="524.9" width="42.2" height="417.5">
				<feFlood  style="flood-color:white;flood-opacity:1" result="back"/>
				<feBlend  in="SourceGraphic" in2="back" mode="normal"/>
			</filter>
		</defs>
		<mask maskUnits="userSpaceOnUse" x="599" y="524.9" width="42.2" height="417.5" id="SVGID_9_">
			<g filter="url(#Adobe_OpacityMaskFilter_1_)">
				<image overflow="visible" width="47" height="422" xlink:href="198CCAB9.jpg"  transform="matrix(1 0 0 1 597 522.8)">
				</image>
			</g>
		</mask>
		<g mask="url(#SVGID_9_)">
			<linearGradient id="SVGID_10_" gradientUnits="userSpaceOnUse" x1="599.0206" y1="733.6777" x2="641.2352" y2="733.6777">
				<stop  offset="0" style="stop-color:#FFFFFF;stop-opacity:0.3"/>
				<stop  offset="1" style="stop-color:#FFFFFF;stop-opacity:0"/>
			</linearGradient>
			<path fill="url(#SVGID_10_)" d="M641.2,941.1c-23.4-123.8-34-249.6-31.6-375.2c0.3-14,0.5-28.8-7.1-41
				c-17,136.7,34.7,277.7-2,411c12.4-1.8,25.5,0.5,36.3,6.5"/>
		</g>
	</g>
	<g opacity="0.13">
		<defs>
			<filter id="Adobe_OpacityMaskFilter_2_" filterUnits="userSpaceOnUse" x="526" y="342.8" width="98.7" height="596.4">
				<feFlood  style="flood-color:white;flood-opacity:1" result="back"/>
				<feBlend  in="SourceGraphic" in2="back" mode="normal"/>
			</filter>
		</defs>
		<mask maskUnits="userSpaceOnUse" x="526" y="342.8" width="98.7" height="596.4" id="SVGID_11_">
			<g filter="url(#Adobe_OpacityMaskFilter_2_)">
				<image overflow="visible" width="104" height="601" xlink:href="198CCABF.jpg"  transform="matrix(1 0 0 1 523 340.8)">
				</image>
			</g>
		</mask>
		<g mask="url(#SVGID_11_)">
			
				<radialGradient id="SVGID_12_" cx="791.6147" cy="545.0425" r="180.779" gradientTransform="matrix(1.2894 0 0 1.1798 -445.4276 -1.9817)" gradientUnits="userSpaceOnUse">
				<stop  offset="0" style="stop-color:#FFFFFF;stop-opacity:0.3"/>
				<stop  offset="1" style="stop-color:#FFFFFF;stop-opacity:0"/>
			</radialGradient>
			<path fill="url(#SVGID_12_)" d="M539.2,767.1c-16.6-29.6-7.2-37.8-8.2-71.1c-1.5-47.5-3-95-4.5-142.6
				c-0.9-27.8-1.6-56.2,8.2-82.5c7.7-20.7,21.6-38.9,35.3-56.8c18.2-23.8,36.4-47.6,54.7-71.3c-21.9,51.8-31.5,113.8-39.5,168.9
				c-4.4,29.9,0.2,67.4,4,97.4c13.6,108.9-20.9,254.1-21.2,330.2c-2.5-7-17.6-136-20.1-143L539.2,767.1z"/>
		</g>
	</g>
	<g opacity="0.13">
		<defs>
			<filter id="Adobe_OpacityMaskFilter_3_" filterUnits="userSpaceOnUse" x="227.2" y="342.8" width="98.7" height="596.4">
				<feFlood  style="flood-color:white;flood-opacity:1" result="back"/>
				<feBlend  in="SourceGraphic" in2="back" mode="normal"/>
			</filter>
		</defs>
		<mask maskUnits="userSpaceOnUse" x="227.2" y="342.8" width="98.7" height="596.4" id="SVGID_13_">
			<g filter="url(#Adobe_OpacityMaskFilter_3_)">
				<image overflow="visible" width="103" height="601" xlink:href="198CCAB8.jpg"  transform="matrix(1 0 0 1 225 340.8)">
				</image>
			</g>
		</mask>
		<g mask="url(#SVGID_13_)">
			
				<radialGradient id="SVGID_14_" cx="369.2716" cy="545.0425" r="180.779" gradientTransform="matrix(-1.2894 0 0 1.1798 752.6824 -1.9817)" gradientUnits="userSpaceOnUse">
				<stop  offset="0" style="stop-color:#FFFFFF;stop-opacity:0.3"/>
				<stop  offset="1" style="stop-color:#FFFFFF;stop-opacity:0"/>
			</radialGradient>
			<path fill="url(#SVGID_14_)" d="M312.7,767.1c16.6-29.6,7.2-37.8,8.2-71.1c1.5-47.5,3-95,4.5-142.6c0.9-27.8,1.6-56.2-8.2-82.5
				c-7.7-20.7-21.6-38.9-35.3-56.8c-18.2-23.8-36.4-47.6-54.7-71.3c21.9,51.8,31.5,113.8,39.5,168.9c4.4,29.9-0.2,67.4-4,97.4
				C249.2,718,289.7,863.2,290,939.3c2.5-7,11.6-136,14.1-143L312.7,767.1z"/>
		</g>
	</g>
	<g opacity="0.13">
		<defs>
			<filter id="Adobe_OpacityMaskFilter_4_" filterUnits="userSpaceOnUse" x="169.8" y="273.9" width="166.5" height="670.3">
				<feFlood  style="flood-color:white;flood-opacity:1" result="back"/>
				<feBlend  in="SourceGraphic" in2="back" mode="normal"/>
			</filter>
		</defs>
		<mask maskUnits="userSpaceOnUse" x="169.8" y="273.9" width="166.5" height="670.3" id="SVGID_15_">
			<g filter="url(#Adobe_OpacityMaskFilter_4_)">
				<image overflow="visible" width="172" height="675" xlink:href="198CCAB6.jpg"  transform="matrix(1 0 0 1 167 271.8)">
				</image>
			</g>
		</mask>
		<g mask="url(#SVGID_15_)">
			<linearGradient id="SVGID_16_" gradientUnits="userSpaceOnUse" x1="169.7622" y1="609.0922" x2="336.2227" y2="609.0922">
				<stop  offset="0.1336" style="stop-color:#12110B;stop-opacity:0.3"/>
				<stop  offset="1" style="stop-color:#12110B;stop-opacity:0"/>
			</linearGradient>
			<path fill="url(#SVGID_16_)" d="M286,896.1c-6.3-71.1-20.9-141.6-24.6-212.9c-5.3-100.2,10.9-200.7,1.9-300.7
				c-0.6-6.2-1.3-12.6-4.1-18.3c-2.6-5.1-6.7-9.4-10.8-13.6c-14.5-14.8-64.1-61.9-78.6-76.8c-0.9,21.2,68.4,104.9,77,124.6
				c12.1,27.8-7.3,25.8-7.5,55.7c-0.6,106-1.2,212.1-1.8,318.1c-0.3,51.9-0.7,104.5-15.1,154.7c-0.7,2.4-1.4,5-0.1,7.2
				c1.7,3,6,3.6,9.6,3.8c33.9,2.1,67.8,4.2,101.7,6.4c4.6-107.9,4.6-322.8-10.7-429.9c-9.3,7.7-6.6,185.1-7,196.6
				c-1.6,47.7-7.6,39.7-9.2,87.4c-1.1,33-6.8,64.4-16.9,96.1"/>
		</g>
	</g>
	<g opacity="0.54">
		<defs>
			<filter id="Adobe_OpacityMaskFilter_5_" filterUnits="userSpaceOnUse" x="612.6" y="246.2" width="69.1" height="340.1">
				<feFlood  style="flood-color:white;flood-opacity:1" result="back"/>
				<feBlend  in="SourceGraphic" in2="back" mode="normal"/>
			</filter>
		</defs>
		<mask maskUnits="userSpaceOnUse" x="612.6" y="246.2" width="69.1" height="340.1" id="SVGID_17_">
			<g filter="url(#Adobe_OpacityMaskFilter_5_)">
				<image overflow="visible" width="74" height="345" xlink:href="198CCAB7.jpg"  transform="matrix(1 0 0 1 610 243.8)">
				</image>
			</g>
		</mask>
		<g mask="url(#SVGID_17_)">
			<defs>
				<filter id="Adobe_OpacityMaskFilter_6_" filterUnits="userSpaceOnUse" x="612.6" y="246.2" width="69.1" height="340.1">
					<feFlood  style="flood-color:white;flood-opacity:1" result="back"/>
					<feBlend  in="SourceGraphic" in2="back" mode="normal"/>
				</filter>
			</defs>
			<mask maskUnits="userSpaceOnUse" x="612.6" y="246.2" width="69.1" height="340.1" id="SVGID_17_">
				<g filter="url(#Adobe_OpacityMaskFilter_6_)">
					<image overflow="visible" width="74" height="345" xlink:href="198CCAC7.jpg"  transform="matrix(1 0 0 1 610 243.8)">
					</image>
				</g>
			</mask>
			<g>
				
					<linearGradient id="SVGID_18_" gradientUnits="userSpaceOnUse" x1="280.2981" y1="416.2773" x2="385.3591" y2="416.2773" gradientTransform="matrix(-1 0 0 1 962 0)">
					<stop  offset="0" style="stop-color:#12110B;stop-opacity:0.3"/>
					<stop  offset="0.9795" style="stop-color:#12110B;stop-opacity:0"/>
				</linearGradient>
				<path fill="url(#SVGID_18_)" d="M681.7,246.2c0,0-44.6,61.2-66.1,97.5c-12,20.3,13.3,20.1,39.9,242.6l4.7-205.8L681.7,246.2z"/>
			</g>
		</g>
	</g>
	<g opacity="0.54">
		<defs>
			<filter id="Adobe_OpacityMaskFilter_7_" filterUnits="userSpaceOnUse" x="169.8" y="251.2" width="69.9" height="340.1">
				<feFlood  style="flood-color:white;flood-opacity:1" result="back"/>
				<feBlend  in="SourceGraphic" in2="back" mode="normal"/>
			</filter>
		</defs>
		<mask maskUnits="userSpaceOnUse" x="169.8" y="251.2" width="69.9" height="340.1" id="SVGID_19_">
			<g filter="url(#Adobe_OpacityMaskFilter_7_)">
				<image overflow="visible" width="75" height="345" xlink:href="198CCAC9.jpg"  transform="matrix(1 0 0 1 167 248.8)">
				</image>
			</g>
		</mask>
		<g mask="url(#SVGID_19_)">
			<defs>
				<filter id="Adobe_OpacityMaskFilter_8_" filterUnits="userSpaceOnUse" x="169.8" y="251.2" width="69.9" height="340.1">
					<feFlood  style="flood-color:white;flood-opacity:1" result="back"/>
					<feBlend  in="SourceGraphic" in2="back" mode="normal"/>
				</filter>
			</defs>
			<mask maskUnits="userSpaceOnUse" x="169.8" y="251.2" width="69.9" height="340.1" id="SVGID_19_">
				<g filter="url(#Adobe_OpacityMaskFilter_8_)">
					<image overflow="visible" width="75" height="345" xlink:href="198CCACB.jpg"  transform="matrix(1 0 0 1 167 248.8)">
					</image>
				</g>
			</mask>
			<g>
				
					<linearGradient id="SVGID_20_" gradientUnits="userSpaceOnUse" x1="201.7755" y1="421.2582" x2="307.9377" y2="421.2582" gradientTransform="matrix(1 0 0 1 -32 0)">
					<stop  offset="0" style="stop-color:#12110B;stop-opacity:0.3"/>
					<stop  offset="0.9795" style="stop-color:#12110B;stop-opacity:0"/>
				</linearGradient>
				<path fill="url(#SVGID_20_)" d="M169.8,251.2c0,0,44.6,61.2,66.1,97.5c12,20.3-6,20.1-32.6,242.6l-12-205.8L169.8,251.2z"/>
			</g>
		</g>
	</g>
	<g opacity="0.33">
		<defs>
			<filter id="Adobe_OpacityMaskFilter_9_" filterUnits="userSpaceOnUse" x="116.7" y="31.9" width="614.7" height="328.6">
				<feFlood  style="flood-color:white;flood-opacity:1" result="back"/>
				<feBlend  in="SourceGraphic" in2="back" mode="normal"/>
			</filter>
		</defs>
		<mask maskUnits="userSpaceOnUse" x="116.7" y="31.9" width="614.7" height="328.6" id="SVGID_21_">
			<g filter="url(#Adobe_OpacityMaskFilter_9_)">
				<image overflow="visible" width="620" height="333" xlink:href="B1594D18.jpg"  transform="matrix(1 0 0 1 114 29.8)">
				</image>
			</g>
		</mask>
		<g mask="url(#SVGID_21_)">
			<defs>
				<filter id="Adobe_OpacityMaskFilter_10_" filterUnits="userSpaceOnUse" x="116.7" y="31.9" width="614.7" height="328.6">
					<feFlood  style="flood-color:white;flood-opacity:1" result="back"/>
					<feBlend  in="SourceGraphic" in2="back" mode="normal"/>
				</filter>
			</defs>
			<mask maskUnits="userSpaceOnUse" x="116.7" y="31.9" width="614.7" height="328.6" id="SVGID_21_">
				<g filter="url(#Adobe_OpacityMaskFilter_10_)">
					<image overflow="visible" width="620" height="333" xlink:href="B1594D1F.jpg"  transform="matrix(1 0 0 1 114 29.8)">
					</image>
				</g>
			</mask>
			<g>
				<linearGradient id="SVGID_22_" gradientUnits="userSpaceOnUse" x1="590.4139" y1="332.2126" x2="242.0734" y2="-16.1278">
					<stop  offset="0" style="stop-color:#FFFFFF;stop-opacity:0.3"/>
					<stop  offset="1" style="stop-color:#FFFFFF;stop-opacity:0"/>
				</linearGradient>
				<path fill="url(#SVGID_22_)" d="M116.7,109.3c0,0,56.6,177.7,127.8,222.5c82.1,51.7,286.2,22.2,328.8,0
					c42.5-22.2,106.2-65,158.1-207.8l-182.2-92c0,0-34.8,56.9-104.5,68.2s-77.2-0.1-77.2-0.1s-78.1-32.3-94.5-65.9L116.7,109.3z"/>
			</g>
		</g>
	</g>
	<g>
		<defs>
			<filter id="Adobe_OpacityMaskFilter_11_" filterUnits="userSpaceOnUse" x="739.7" y="115.9" width="85.4" height="297.2">
				<feFlood  style="flood-color:white;flood-opacity:1" result="back"/>
				<feBlend  in="SourceGraphic" in2="back" mode="normal"/>
			</filter>
		</defs>
		<mask maskUnits="userSpaceOnUse" x="739.7" y="115.9" width="85.4" height="297.2" id="SVGID_23_">
			<g filter="url(#Adobe_OpacityMaskFilter_11_)">
				<image overflow="visible" width="91" height="302" xlink:href="B1594D19.jpg"  transform="matrix(1 0 0 1 737 113.8)">
				</image>
			</g>
		</mask>
		<g mask="url(#SVGID_23_)">
			<linearGradient id="SVGID_24_" gradientUnits="userSpaceOnUse" x1="739.7305" y1="264.5133" x2="825.0988" y2="264.5133">
				<stop  offset="0.1336" style="stop-color:#12110B;stop-opacity:0.3"/>
				<stop  offset="1" style="stop-color:#12110B;stop-opacity:0"/>
			</linearGradient>
			<path fill="url(#SVGID_24_)" d="M789,413.1c-28.8-63.7-42.4-133.1-39.6-202c1.3-32.2,5.8-66.2-9.7-95.2
				c13.2,14.8,26.7,30.1,33.1,48.3c6.8,19.4,4.8,40.3,5.3,60.7c1.6,58.7,24.4,114.9,46.9,169.8c-12.7,2.6-24.8,7.7-35.2,14.9"/>
		</g>
	</g>
	<g opacity="0.93">
		<defs>
			<filter id="Adobe_OpacityMaskFilter_12_" filterUnits="userSpaceOnUse" x="692.2" y="109.2" width="86.9" height="313.9">
				<feFlood  style="flood-color:white;flood-opacity:1" result="back"/>
				<feBlend  in="SourceGraphic" in2="back" mode="normal"/>
			</filter>
		</defs>
		<mask maskUnits="userSpaceOnUse" x="692.2" y="109.2" width="86.9" height="313.9" id="SVGID_25_">
			<g filter="url(#Adobe_OpacityMaskFilter_12_)">
				<image overflow="visible" width="92" height="319" xlink:href="B1594D1B.jpg"  transform="matrix(1 0 0 1 690 106.8)">
				</image>
			</g>
		</mask>
		<g mask="url(#SVGID_25_)">
			<linearGradient id="SVGID_26_" gradientUnits="userSpaceOnUse" x1="803.64" y1="230.4393" x2="664.5151" y2="310.7631">
				<stop  offset="0" style="stop-color:#FFFFFF;stop-opacity:0.3"/>
				<stop  offset="0.7436" style="stop-color:#FFFFFF;stop-opacity:0"/>
			</linearGradient>
			<path fill="url(#SVGID_26_)" d="M727.5,109.2c10,5.2,16.1,15.2,18.7,25.4s1.9,20.9,1.5,31.4c-3.3,82.2,4.4,165.4,31.3,243.8
				c-12.9,7.8-28.2,12.4-43.6,13.2c-1.9,0.1-3.9,0.1-5.6-0.8c-1.4-0.8-2.3-2.2-3-3.6c-34.6-60.5-43.7-132.8-25.3-199
				c9.9-35.5,27.6-70,27.2-106.7"/>
		</g>
	</g>
	<g opacity="0.83">
		<defs>
			<filter id="Adobe_OpacityMaskFilter_13_" filterUnits="userSpaceOnUse" x="25.2" y="115.9" width="85.4" height="297.2">
				<feFlood  style="flood-color:white;flood-opacity:1" result="back"/>
				<feBlend  in="SourceGraphic" in2="back" mode="normal"/>
			</filter>
		</defs>
		<mask maskUnits="userSpaceOnUse" x="25.2" y="115.9" width="85.4" height="297.2" id="SVGID_27_">
			<g filter="url(#Adobe_OpacityMaskFilter_13_)">
				<image overflow="visible" width="90" height="302" xlink:href="B1594D06.jpg"  transform="matrix(1 0 0 1 23 113.8)">
				</image>
			</g>
		</mask>
		<g mask="url(#SVGID_27_)">
			
				<linearGradient id="SVGID_28_" gradientUnits="userSpaceOnUse" x1="817.4105" y1="264.5133" x2="902.7787" y2="264.5133" gradientTransform="matrix(-1 0 0 1 928 0)">
				<stop  offset="0.1336" style="stop-color:#12110B;stop-opacity:0.3"/>
				<stop  offset="1" style="stop-color:#12110B;stop-opacity:0"/>
			</linearGradient>
			<path fill="url(#SVGID_28_)" d="M61.3,413.1c28.8-63.7,42.4-133.1,39.6-202c-1.3-32.2-5.8-66.2,9.7-95.2
				c-13.2,14.8-26.7,30.1-33.1,48.3c-6.8,19.4-4.8,40.3-5.3,60.7c-1.6,58.7-24.4,114.9-46.9,169.8c12.7,2.6,24.8,7.7,35.2,14.9"/>
		</g>
	</g>
	<g opacity="0.93">
		<defs>
			<filter id="Adobe_OpacityMaskFilter_14_" filterUnits="userSpaceOnUse" x="71.3" y="109.2" width="86.9" height="313.9">
				<feFlood  style="flood-color:white;flood-opacity:1" result="back"/>
				<feBlend  in="SourceGraphic" in2="back" mode="normal"/>
			</filter>
		</defs>
		<mask maskUnits="userSpaceOnUse" x="71.3" y="109.2" width="86.9" height="313.9" id="SVGID_29_">
			<g filter="url(#Adobe_OpacityMaskFilter_14_)">
				<image overflow="visible" width="92" height="319" xlink:href="B1594D07.jpg"  transform="matrix(1 0 0 1 69 106.8)">
				</image>
			</g>
		</mask>
		<g mask="url(#SVGID_29_)">
			
				<linearGradient id="SVGID_30_" gradientUnits="userSpaceOnUse" x1="881.32" y1="230.4393" x2="742.1951" y2="310.7631" gradientTransform="matrix(-1 0 0 1 928 0)">
				<stop  offset="0" style="stop-color:#FFFFFF;stop-opacity:0.3"/>
				<stop  offset="0.7436" style="stop-color:#FFFFFF;stop-opacity:0"/>
			</linearGradient>
			<path fill="url(#SVGID_30_)" d="M122.8,109.2c-10,5.2-16.1,15.2-18.7,25.4c-2.5,10.3-1.9,20.9-1.5,31.4
				c3.3,82.2-4.4,165.4-31.3,243.8c12.9,7.8,28.2,12.4,43.6,13.2c1.9,0.1,3.9,0.1,5.6-0.8c1.4-0.8,2.3-2.2,3-3.6
				c34.6-60.5,43.7-132.8,25.3-199c-9.9-35.5-27.6-70-27.2-106.7"/>
		</g>
	</g>
	<g>
		<defs>
			<filter id="Adobe_OpacityMaskFilter_15_" filterUnits="userSpaceOnUse" x="146.8" y="237.1" width="48.1" height="193.1">
				<feFlood  style="flood-color:white;flood-opacity:1" result="back"/>
				<feBlend  in="SourceGraphic" in2="back" mode="normal"/>
			</filter>
		</defs>
		<mask maskUnits="userSpaceOnUse" x="146.8" y="237.1" width="48.1" height="193.1" id="SVGID_31_">
			<g filter="url(#Adobe_OpacityMaskFilter_15_)">
				<image overflow="visible" width="53" height="198" xlink:href="B1594D08.jpg"  transform="matrix(1 0 0 1 144 234.8)">
				</image>
			</g>
		</mask>
		<g mask="url(#SVGID_31_)">
			
				<linearGradient id="SVGID_32_" gradientUnits="userSpaceOnUse" x1="733.038" y1="333.6653" x2="781.1565" y2="333.6653" gradientTransform="matrix(-1 0 0 1 928 0)">
				<stop  offset="0.1336" style="stop-color:#12110B;stop-opacity:0.3"/>
				<stop  offset="1" style="stop-color:#12110B;stop-opacity:0"/>
			</linearGradient>
			<path fill="url(#SVGID_32_)" d="M167,237.1c1.3,14.4,2.6,28.8,2.7,43.3c0.1,15.6-2.2,33.3-15.9,42.7c6.4,3,13.8,7.6,12.9,14.1
				c-0.9,7-10.2,9.6-17.1,12.8c-1.1,0.5-2.3,1.2-2.7,2.3c-0.4,1,0.1,2.2,0.6,3.2c7.9,17.4,14,37.2,6.6,54.7c-2.6,6.2-7,12.4-6.1,19
				c6,0.3,12,0.6,18,0.9c2.3-6.9,8.5-12,13.5-17.6c6.7-7.6,11.5-16.7,13.7-26.3c3.5-14.8,1-30.2-1.5-45.2
				c-5.6-34-11.3-68.1-21.7-101.1"/>
		</g>
	</g>
	<g opacity="0.29">
		<linearGradient id="SVGID_33_" gradientUnits="userSpaceOnUse" x1="724.1844" y1="178.7227" x2="738.566" y2="178.7227">
			<stop  offset="0" style="stop-color:#FFFFFF;stop-opacity:0.3"/>
			<stop  offset="1" style="stop-color:#FFFFFF;stop-opacity:0"/>
		</linearGradient>
		<path fill="url(#SVGID_33_)" d="M738.6,250.5c-2.4-19.2-4.8-38.6-4.4-57.9c0.5-26.7,6.3-53.8,0.5-80c-0.6-2.9-3.1-6.6-6-5.3
			c2,9.9,3.9,20,3.1,30.1c-0.7,9.8-4.1,19.3-5.9,29.1c-5.2,28,2.5,56.5,10.1,84.1"/>
	</g>
	<g opacity="0.29">
		
			<linearGradient id="SVGID_34_" gradientUnits="userSpaceOnUse" x1="804.7587" y1="178.7227" x2="819.1403" y2="178.7227" gradientTransform="matrix(-1 0 0 1 918 0)">
			<stop  offset="0" style="stop-color:#FFFFFF;stop-opacity:0.3"/>
			<stop  offset="1" style="stop-color:#FFFFFF;stop-opacity:0"/>
		</linearGradient>
		<path fill="url(#SVGID_34_)" d="M98.9,250.5c2.4-19.2,4.8-38.6,4.4-57.9c-0.5-26.7-6.3-53.8-0.5-80c0.6-2.9,3.1-6.6,6-5.3
			c-2,9.9-3.9,20-3.1,30.1c0.7,9.8,4.1,19.3,5.9,29.1c5.2,28-2.5,56.5-10.1,84.1"/>
	</g>
	<g>
		<defs>
			<filter id="Adobe_OpacityMaskFilter_16_" filterUnits="userSpaceOnUse" x="660.5" y="234.7" width="48.1" height="193.1">
				<feFlood  style="flood-color:white;flood-opacity:1" result="back"/>
				<feBlend  in="SourceGraphic" in2="back" mode="normal"/>
			</filter>
		</defs>
		<mask maskUnits="userSpaceOnUse" x="660.5" y="234.7" width="48.1" height="193.1" id="SVGID_35_">
			<g filter="url(#Adobe_OpacityMaskFilter_16_)">
				<image overflow="visible" width="53" height="199" xlink:href="B1594D0B.jpg"  transform="matrix(1 0 0 1 658 231.8)">
				</image>
			</g>
		</mask>
		<g mask="url(#SVGID_35_)">
			<defs>
				<filter id="Adobe_OpacityMaskFilter_17_" filterUnits="userSpaceOnUse" x="660.5" y="234.7" width="48.1" height="193.1">
					<feFlood  style="flood-color:white;flood-opacity:1" result="back"/>
					<feBlend  in="SourceGraphic" in2="back" mode="normal"/>
				</filter>
			</defs>
			<mask maskUnits="userSpaceOnUse" x="660.5" y="234.7" width="48.1" height="193.1" id="SVGID_35_">
				<g filter="url(#Adobe_OpacityMaskFilter_17_)">
					<image overflow="visible" width="53" height="199" xlink:href="B1594D09.jpg"  transform="matrix(1 0 0 1 658 231.8)">
					</image>
				</g>
			</mask>
			<g>
				<linearGradient id="SVGID_36_" gradientUnits="userSpaceOnUse" x1="660.5157" y1="331.3057" x2="708.6343" y2="331.3057">
					<stop  offset="0.1336" style="stop-color:#12110B;stop-opacity:0.3"/>
					<stop  offset="1" style="stop-color:#12110B;stop-opacity:0"/>
				</linearGradient>
				<path fill="url(#SVGID_36_)" d="M688.4,234.7c-1.3,14.4-2.6,28.8-2.7,43.3c-0.1,15.6,2.2,33.3,15.9,42.7
					c-6.4,3-13.8,7.6-12.9,14.1c0.9,7,10.2,9.6,17.1,12.8c1.1,0.5,2.3,1.2,2.7,2.3c0.4,1-0.1,2.2-0.6,3.2
					c-7.9,17.4-14,37.2-6.6,54.7c2.6,6.2,7,12.4,6.1,19c-6,0.3-12,0.6-18,0.9c-2.3-6.9-8.5-12-13.5-17.6
					c-6.7-7.6-11.5-16.7-13.7-26.3c-3.5-14.8-1-30.2,1.5-45.2c5.6-34,11.3-68.1,21.7-101.1"/>
			</g>
		</g>
	</g>
	<linearGradient id="SVGID_37_" gradientUnits="userSpaceOnUse" x1="328.7202" y1="99.6617" x2="522.9902" y2="99.6617">
		<stop  offset="0" style="stop-color:#FFFFFF"/>
		<stop  offset="9.072596e-02" style="stop-color:#F2F2F2"/>
		<stop  offset="0.5168" style="stop-color:#B8B8B8"/>
		<stop  offset="0.8322" style="stop-color:#949494"/>
		<stop  offset="1" style="stop-color:#868686"/>
	</linearGradient>
	<path fill="url(#SVGID_37_)" d="M426.5,132c0,0-1.2-7.6,24.9-19.7s57-23.9,71.6-44.5c0,0-35,14.2-96,14.4c0,0-62.7,1.3-98.3-14.9
		c0,0,10.5,14.8,30.7,24.7S417.5,114.3,426.5,132z"/>
	
		<radialGradient id="SVGID_38_" cx="676.3493" cy="38.0007" r="69.0993" gradientTransform="matrix(1.2894 0 0 1.1798 -445.4276 -1.9817)" gradientUnits="userSpaceOnUse">
		<stop  offset="0" style="stop-color:#1D1D1B;stop-opacity:0"/>
		<stop  offset="0.1214" style="stop-color:#20201E;stop-opacity:0"/>
		<stop  offset="0.1944" style="stop-color:#282826;stop-opacity:0"/>
		<stop  offset="0.2546" style="stop-color:#363634;stop-opacity:0"/>
		<stop  offset="0.3078" style="stop-color:#4A4A49;stop-opacity:0"/>
		<stop  offset="0.3565" style="stop-color:#646463;stop-opacity:0"/>
		<stop  offset="0.4018" style="stop-color:#848483;stop-opacity:0"/>
		<stop  offset="0.4446" style="stop-color:#AAAAAA;stop-opacity:0"/>
		<stop  offset="0.4842" style="stop-color:#D5D5D5;stop-opacity:0"/>
		<stop  offset="0.517" style="stop-color:#FFFFFF;stop-opacity:0"/>
		<stop  offset="0.5626" style="stop-color:#F2F2F1;stop-opacity:2.831993e-02"/>
		<stop  offset="0.6483" style="stop-color:#CFCFCD;stop-opacity:8.151227e-02"/>
		<stop  offset="0.7647" style="stop-color:#969693;stop-opacity:0.1539"/>
		<stop  offset="0.906" style="stop-color:#494844;stop-opacity:0.2416"/>
		<stop  offset="1" style="stop-color:#12110B;stop-opacity:0.3"/>
	</radialGradient>
	<path opacity="0.36" fill="url(#SVGID_38_)" d="M307.7,16.5c-1.2-0.8-2.3-1-2.9-0.5c-0.1,0.1-0.1,0.2-0.2,0.3
		c-0.1,0.1-0.1,0.2-0.2,0.3c-0.1,0.2-0.1,0.4-0.2,0.7c-0.1,0.9,0,2.3,0.4,4.3c0.1,0.5,0.2,1,0.4,1.5c0.2,0.9,0.5,1.9,0.9,3
		c0.1,0.2,0.1,0.4,0.2,0.7c0.2,0.7,0.5,1.4,0.8,2.2c0.2,0.5,0.4,1,0.6,1.6c0.2,0.5,0.4,1.1,0.6,1.7c0.8,2,1.7,4.3,2.8,6.8
		c0.5,1.1,1,2.3,1.5,3.4c0.2,0.3,0.3,0.7,0.5,1c1,1.9,2.2,4.3,3.7,6.9c0.5,0.2,1,0.4,1.5,0.7c0.5,0.2,0.9,0.4,1.4,0.6
		c0.3,0.1,0.5,0.2,0.8,0.3c0.5,0.2,1,0.4,1.4,0.6c0.3,0.1,0.6,0.2,0.8,0.3c0.5,0.2,0.9,0.4,1.4,0.5c0.3,0.1,0.7,0.3,1,0.4
		C347.4,62.3,380.1,70,425.9,70h1.6c45.7,0,78.5-7.8,100.8-16.3c0.3-0.1,0.7-0.3,1-0.4c0.5-0.2,0.9-0.4,1.4-0.5
		c0.3-0.1,0.6-0.2,0.8-0.3c0.5-0.2,1-0.4,1.4-0.6c0.3-0.1,0.5-0.2,0.8-0.3c0.5-0.2,0.9-0.4,1.4-0.6c0.5-0.2,1-0.4,1.5-0.6
		c1.5-2.6,2.7-5,3.7-6.9c0.2-0.3,0.3-0.7,0.5-1c0.7-1.6,1.2-2.7,1.4-3.2c0-0.1,0.1-0.1,0.1-0.2c1.1-2.5,2-4.7,2.8-6.8
		c0.2-0.6,0.4-1.1,0.6-1.7c0.2-0.5,0.4-1.1,0.6-1.6c0.3-0.8,0.5-1.5,0.8-2.2c0.1-0.2,0.2-0.4,0.2-0.7c0.4-1.1,0.7-2.1,0.9-3
		c0.1-0.5,0.3-1,0.4-1.5c0.4-1.9,0.5-3.3,0.4-4.3c0-0.3-0.1-0.5-0.2-0.7c0-0.1-0.1-0.2-0.2-0.3c-0.1-0.1-0.1-0.2-0.2-0.3
		c-0.6-0.6-1.7-0.3-2.9,0.5c-0.1,0.1-0.2,0.1-0.3,0.2v0h0l0,0c-12.8,9.4-48.6,28.5-117.9,28.5H426c-69.3-0.1-105.1-19.1-117.9-28.5
		c0,0,0,0,0,0v0C307.9,16.6,307.8,16.5,307.7,16.5z"/>
	<path fill="#FFFFFF" d="M429.4,100.7c-2.4,3.4-8.8,3.7-14.6,0.8c0.2,0.1,0.3,0.2,0.5,0.3c6.2,3.7,13.3,3.7,15.9,0
		c2.5-3.5-0.1-9.1-5.7-12.8C429.8,92.7,431.6,97.5,429.4,100.7z"/>
	<path fill="#FFFFFF" d="M433.1,102.7c-2.7,4.1-10,4.7-17,1.6c0.2,0.1,0.4,0.2,0.6,0.3c7.4,4,15.7,3.7,18.5-0.7
		c2.7-4.2-0.6-10.6-7.3-14.6C433.2,93.4,435.5,98.9,433.1,102.7z"/>
	<path fill="#FFFFFF" d="M418.3,114.6c0.2,0.1,0.4,0.2,0.6,0.4c0.2,0.1,0.4,0.2,0.5,0.3c0.1,0.1,0.1,0.2,0.1,0.3
		c0,0.1,0,0.2-0.1,0.3c-0.1,0.1-0.2,0.1-0.3,0.1c-0.1,0-0.2,0-0.4-0.1c-0.1-0.1-0.3-0.1-0.5-0.3c-0.2-0.1-0.4-0.3-0.6-0.4
		c-0.4,0.2-1,0.3-1.6,0.3c-0.5,0-1-0.1-1.4-0.2c-0.4-0.2-0.7-0.4-1-0.6c-0.3-0.3-0.5-0.6-0.6-1c-0.1-0.4-0.2-0.8-0.2-1.3
		c0-0.5,0.1-0.9,0.2-1.3c0.1-0.4,0.4-0.7,0.6-1c0.3-0.3,0.6-0.5,1-0.6c0.4-0.1,0.8-0.2,1.4-0.2c0.7,0,1.3,0.1,1.8,0.4
		c0.5,0.3,0.9,0.6,1.1,1.1c0.3,0.5,0.4,1,0.4,1.7C419.1,113.3,418.8,114,418.3,114.6z M417.2,113.9c0.2-0.2,0.3-0.4,0.4-0.7
		c0.1-0.3,0.1-0.6,0.1-0.9c0-0.4-0.1-0.8-0.2-1.2c-0.2-0.3-0.4-0.6-0.7-0.7c-0.3-0.2-0.6-0.2-1-0.2c-0.3,0-0.5,0-0.7,0.1
		c-0.2,0.1-0.4,0.2-0.6,0.4c-0.2,0.2-0.3,0.4-0.4,0.7c-0.1,0.3-0.1,0.6-0.1,0.9c0,0.7,0.2,1.2,0.5,1.6c0.4,0.4,0.8,0.6,1.3,0.6
		c0.2,0,0.5,0,0.7-0.1c-0.1-0.1-0.3-0.2-0.5-0.3c-0.2-0.1-0.4-0.2-0.4-0.2c-0.1-0.1-0.1-0.1-0.1-0.2c0-0.1,0-0.2,0.1-0.2
		c0.1-0.1,0.2-0.1,0.2-0.1C416.1,113.3,416.6,113.5,417.2,113.9z"/>
	<path fill="#FFFFFF" d="M424.6,113.2c0,0.3-0.1,0.6-0.2,0.9c-0.1,0.3-0.3,0.5-0.5,0.7c-0.2,0.2-0.5,0.4-0.8,0.5
		c-0.3,0.1-0.6,0.2-1,0.2c-0.4,0-0.7-0.1-1-0.2c-0.3-0.1-0.6-0.3-0.8-0.5c-0.2-0.2-0.4-0.4-0.5-0.7c-0.1-0.3-0.2-0.6-0.2-0.9
		c0-0.3,0.1-0.7,0.2-0.9c0.1-0.3,0.3-0.5,0.5-0.7c0.2-0.2,0.5-0.4,0.8-0.5c0.3-0.1,0.6-0.2,1-0.2c0.4,0,0.7,0.1,1,0.2
		c0.3,0.1,0.6,0.3,0.8,0.5c0.2,0.2,0.4,0.4,0.5,0.7C424.5,112.5,424.6,112.8,424.6,113.2z M423.4,113.2c0-0.5-0.1-0.8-0.3-1.1
		c-0.2-0.3-0.5-0.4-0.9-0.4c-0.2,0-0.5,0.1-0.6,0.2c-0.2,0.1-0.3,0.3-0.4,0.5c-0.1,0.2-0.1,0.5-0.1,0.8c0,0.3,0,0.6,0.1,0.8
		c0.1,0.2,0.2,0.4,0.4,0.5c0.2,0.1,0.4,0.2,0.6,0.2c0.4,0,0.7-0.1,0.9-0.4C423.2,114,423.4,113.6,423.4,113.2z"/>
	<path fill="#FFFFFF" d="M429.5,113.2v1.5c0,0.2-0.1,0.4-0.2,0.5c-0.1,0.1-0.3,0.2-0.5,0.2c-0.2,0-0.3-0.1-0.5-0.2
		c-0.1-0.1-0.2-0.3-0.2-0.5v-1.8c0-0.3,0-0.5,0-0.7c0-0.2-0.1-0.3-0.2-0.4c-0.1-0.1-0.2-0.2-0.4-0.2c-0.4,0-0.7,0.1-0.8,0.4
		c-0.1,0.3-0.2,0.6-0.2,1.1v1.5c0,0.2-0.1,0.4-0.2,0.5c-0.1,0.1-0.3,0.2-0.5,0.2c-0.2,0-0.3-0.1-0.5-0.2c-0.1-0.1-0.2-0.3-0.2-0.5
		v-3.2c0-0.2,0.1-0.4,0.2-0.5c0.1-0.1,0.2-0.2,0.4-0.2c0.2,0,0.3,0.1,0.4,0.2c0.1,0.1,0.2,0.2,0.2,0.4v0.1c0.2-0.2,0.4-0.4,0.7-0.5
		c0.2-0.1,0.5-0.2,0.8-0.2c0.3,0,0.6,0.1,0.8,0.2c0.2,0.1,0.4,0.3,0.6,0.5c0.2-0.2,0.4-0.4,0.7-0.5c0.2-0.1,0.5-0.2,0.8-0.2
		c0.3,0,0.6,0.1,0.9,0.2c0.2,0.1,0.4,0.3,0.5,0.5c0.1,0.2,0.2,0.5,0.2,1v2.2c0,0.2-0.1,0.4-0.2,0.5c-0.1,0.1-0.3,0.2-0.5,0.2
		c-0.2,0-0.3-0.1-0.5-0.2c-0.1-0.1-0.2-0.3-0.2-0.5v-1.9c0-0.2,0-0.4,0-0.6c0-0.1-0.1-0.3-0.2-0.4c-0.1-0.1-0.3-0.1-0.5-0.1
		c-0.2,0-0.3,0-0.5,0.1c-0.1,0.1-0.3,0.2-0.3,0.4C429.5,112.4,429.5,112.8,429.5,113.2z"/>
	<path fill="#FFFFFF" d="M434.5,109.8v1.7c0.2-0.2,0.5-0.4,0.7-0.5c0.2-0.1,0.5-0.2,0.9-0.2c0.4,0,0.8,0.1,1.1,0.3
		c0.3,0.2,0.5,0.4,0.7,0.8c0.2,0.3,0.3,0.7,0.3,1.2c0,0.3,0,0.7-0.1,0.9c-0.1,0.3-0.2,0.5-0.4,0.7c-0.2,0.2-0.4,0.4-0.7,0.5
		c-0.3,0.1-0.5,0.2-0.9,0.2c-0.2,0-0.4,0-0.5-0.1c-0.2,0-0.3-0.1-0.4-0.2c-0.1-0.1-0.2-0.1-0.3-0.2c-0.1-0.1-0.2-0.2-0.3-0.3v0.1
		c0,0.2-0.1,0.4-0.2,0.5c-0.1,0.1-0.3,0.2-0.4,0.2c-0.2,0-0.3-0.1-0.4-0.2c-0.1-0.1-0.2-0.3-0.2-0.5v-4.9c0-0.2,0.1-0.4,0.2-0.5
		c0.1-0.1,0.2-0.2,0.4-0.2c0.2,0,0.3,0.1,0.4,0.2C434.4,109.5,434.5,109.6,434.5,109.8z M434.5,113.2c0,0.4,0.1,0.8,0.3,1
		c0.2,0.2,0.5,0.4,0.9,0.4c0.3,0,0.6-0.1,0.8-0.4c0.2-0.2,0.3-0.6,0.3-1.1c0-0.3,0-0.6-0.1-0.8c-0.1-0.2-0.2-0.4-0.4-0.5
		c-0.2-0.1-0.4-0.2-0.6-0.2c-0.2,0-0.4,0.1-0.6,0.2c-0.2,0.1-0.3,0.3-0.4,0.5C434.6,112.6,434.5,112.9,434.5,113.2z"/>
	<path fill="#FFFFFF" d="M442,114.8c-0.3,0.2-0.6,0.4-0.9,0.5c-0.3,0.1-0.6,0.2-0.9,0.2c-0.3,0-0.6-0.1-0.8-0.2
		c-0.2-0.1-0.4-0.3-0.6-0.5c-0.1-0.2-0.2-0.4-0.2-0.6c0-0.3,0.1-0.6,0.3-0.8c0.2-0.2,0.5-0.4,0.9-0.4c0.1,0,0.3-0.1,0.6-0.1
		c0.3-0.1,0.6-0.1,0.8-0.2c0.2,0,0.5-0.1,0.7-0.2c0-0.3-0.1-0.5-0.2-0.7c-0.1-0.1-0.4-0.2-0.7-0.2c-0.3,0-0.5,0-0.7,0.1
		c-0.2,0.1-0.3,0.2-0.4,0.4c-0.1,0.2-0.2,0.3-0.2,0.3c0,0.1-0.1,0.1-0.3,0.1c-0.1,0-0.3,0-0.4-0.1c-0.1-0.1-0.1-0.2-0.1-0.3
		c0-0.2,0.1-0.4,0.2-0.6c0.2-0.2,0.4-0.3,0.7-0.5c0.3-0.1,0.7-0.2,1.2-0.2c0.5,0,1,0.1,1.3,0.2c0.3,0.1,0.5,0.3,0.7,0.6
		c0.1,0.3,0.2,0.6,0.2,1c0,0.3,0,0.5,0,0.7c0,0.2,0,0.4,0,0.6c0,0.2,0,0.4,0.1,0.7c0.1,0.2,0.1,0.4,0.1,0.4c0,0.1-0.1,0.2-0.2,0.3
		c-0.1,0.1-0.3,0.1-0.4,0.1c-0.1,0-0.3-0.1-0.4-0.2C442.3,115.2,442.1,115,442,114.8z M441.9,113.2c-0.2,0.1-0.4,0.1-0.8,0.2
		c-0.3,0.1-0.6,0.1-0.7,0.1c-0.1,0-0.3,0.1-0.4,0.2c-0.1,0.1-0.2,0.2-0.2,0.4c0,0.2,0.1,0.3,0.2,0.4c0.1,0.1,0.3,0.2,0.6,0.2
		c0.2,0,0.5,0,0.7-0.1c0.2-0.1,0.4-0.2,0.5-0.4c0.1-0.2,0.2-0.5,0.2-0.8V113.2z"/>
	<path fill="none" d="M328.7,64.6C328.7,64.6,328.7,64.6,328.7,64.6c27.4,10.1,60.3,15.3,97.9,15.3l0.6,0l0.2,0c0.1,0,0.2,0,0.3,0
		h0.6c37.5,0,70.4-5.2,97.9-15.3l0,0"/>
	<g opacity="0.93">
		
			<text transform="matrix(1.0466 0.315 -0.2882 0.9576 337.2657 67.5503)" fill="#D9D9D9" font-family="'LucidaSansUnicode'" font-size="8.2584px">Q</text>
		
			<text transform="matrix(1.056 0.2816 -0.2577 0.9662 344.7628 69.7798)" fill="#D9D9D9" font-family="'LucidaSansUnicode'" font-size="8.2584px">o</text>
		
			<text transform="matrix(1.0647 0.2467 -0.2258 0.9742 350.9078 71.4283)" fill="#D9D9D9" font-family="'LucidaSansUnicode'" font-size="8.2584px">m</text>
		
			<text transform="matrix(1.0719 0.2135 -0.1953 0.9807 359.9244 73.481)" fill="#D9D9D9" font-family="'LucidaSansUnicode'" font-size="8.2584px">b</text>
		
			<text transform="matrix(1.0765 0.1887 -0.1726 0.985 366.3199 74.7398)" fill="#D9D9D9" font-family="'LucidaSansUnicode'" font-size="8.2584px">a</text>
		
			<text transform="matrix(1.0796 0.1703 -0.1558 0.9878 372.0655 75.73)" fill="#D9D9D9" font-family="'LucidaSansUnicode'" font-size="8.2584px"> </text>
		
			<text transform="matrix(1.0823 0.1521 -0.1391 0.9903 375.7115 76.3076)" fill="#D9D9D9" font-family="'LucidaSansUnicode'" font-size="8.2584px">-</text>
		
			<text transform="matrix(1.0846 0.1345 -0.123 0.9924 381.7242 77.1358)" fill="#D9D9D9" font-family="'LucidaSansUnicode'" font-size="8.2584px"> </text>
		
			<text transform="matrix(1.0869 0.1145 -0.1048 0.9945 385.3687 77.5992)" fill="#D9D9D9" font-family="'LucidaSansUnicode'" font-size="8.2584px">Q</text>
		
			<text transform="matrix(1.0892 9.087690e-02 -8.314827e-02 0.9965 393.1749 78.4034)" fill="#D9D9D9" font-family="'LucidaSansUnicode'" font-size="8.2584px">o</text>
		
			<text transform="matrix(1.0909 6.625052e-02 -6.061624e-02 0.9982 399.5226 78.9395)" fill="#D9D9D9" font-family="'LucidaSansUnicode'" font-size="8.2584px">m</text>
		
			<text transform="matrix(1.0921 4.267620e-02 -3.904680e-02 0.9992 408.7574 79.4756)" fill="#D9D9D9" font-family="'LucidaSansUnicode'" font-size="8.2584px">b</text>
		
			<text transform="matrix(1.0927 2.501973e-02 -2.289193e-02 0.9997 415.2867 79.7212)" fill="#D9D9D9" font-family="'LucidaSansUnicode'" font-size="8.2584px">a</text>
		
			<text transform="matrix(1.0929 1.203925e-02 -1.101537e-02 0.9999 421.1212 79.8428)" fill="#D9D9D9" font-family="'LucidaSansUnicode'" font-size="8.2584px"> </text>
		
			<text transform="matrix(1.0929 -3.541729e-04 3.240522e-04 1 424.7979 79.8711)" fill="#D9D9D9" font-family="'LucidaSansUnicode'" font-size="8.2584px">-</text>
		
			<text transform="matrix(1.0929 -1.250388e-02 1.144049e-02 0.9999 430.8922 79.8736)" fill="#D9D9D9" font-family="'LucidaSansUnicode'" font-size="8.2584px"> </text>
		
			<text transform="matrix(1.0926 -2.798535e-02 2.560533e-02 0.9997 434.5777 79.8423)" fill="#D9D9D9" font-family="'LucidaSansUnicode'" font-size="8.2584px">Q</text>
		
			<text transform="matrix(1.0919 -4.853584e-02 4.440811e-02 0.999 442.4293 79.6265)" fill="#D9D9D9" font-family="'LucidaSansUnicode'" font-size="8.2584px">o</text>
		
			<text transform="matrix(1.0906 -7.222160e-02 6.607951e-02 0.9978 448.795 79.3516)" fill="#D9D9D9" font-family="'LucidaSansUnicode'" font-size="8.2584px">m</text>
		
			<text transform="matrix(1.0886 -9.740268e-02 8.911907e-02 0.996 458.0211 78.7159)" fill="#D9D9D9" font-family="'LucidaSansUnicode'" font-size="8.2584px">b</text>
		
			<text transform="matrix(1.0866 -0.1181 0.1081 0.9941 464.5162 78.1236)" fill="#D9D9D9" font-family="'LucidaSansUnicode'" font-size="8.2584px">a</text>
		
			<text transform="matrix(1.0846 -0.1346 0.1232 0.9924 470.2882 77.4825)" fill="#D9D9D9" font-family="'LucidaSansUnicode'" font-size="8.2584px"> </text>
		
			<text transform="matrix(1.0823 -0.1522 0.1393 0.9903 473.962 77.0288)" fill="#D9D9D9" font-family="'LucidaSansUnicode'" font-size="8.2584px">-</text>
		
			<text transform="matrix(1.0796 -0.1704 0.1559 0.9878 479.9566 76.169)" fill="#D9D9D9" font-family="'LucidaSansUnicode'" font-size="8.2584px"> </text>
		
			<text transform="matrix(1.0758 -0.1928 0.1764 0.9843 483.6046 75.607)" fill="#D9D9D9" font-family="'LucidaSansUnicode'" font-size="8.2584px">Q</text>
		
			<text transform="matrix(1.0703 -0.2215 0.2027 0.9792 491.3033 74.2066)" fill="#D9D9D9" font-family="'LucidaSansUnicode'" font-size="8.2584px">o</text>
		
			<text transform="matrix(1.0628 -0.255 0.2333 0.9724 497.5435 72.9268)" fill="#D9D9D9" font-family="'LucidaSansUnicode'" font-size="8.2584px">m</text>
		
			<text transform="matrix(1.0536 -0.2906 0.2659 0.964 506.5289 70.7349)" fill="#D9D9D9" font-family="'LucidaSansUnicode'" font-size="8.2584px">b</text>
		
			<text transform="matrix(1.0451 -0.3199 0.2927 0.9562 512.7858 68.9927)" fill="#D9D9D9" font-family="'LucidaSansUnicode'" font-size="8.2584px">a</text>
	</g>
	<path fill="#3C3C3B" d="M630.3,870.2c-5,7.7-19,8.9-32.2,3c0.4,0.2,0.7,0.4,1.1,0.6c14.1,7.5,29.8,6.9,35.2-1.3
		c5.1-7.8-1.1-19.8-13.9-27.3C630.5,852.7,634.9,863.1,630.3,870.2z"/>
	<path fill="#3C3C3B" d="M623.2,866.3c-4.6,6.4-16.6,7-27.7,1.5c0.3,0.2,0.6,0.4,0.9,0.6c11.7,6.9,25.2,6.9,30.2,0
		c4.7-6.5-0.2-16.9-10.8-23.9C624.1,851.4,627.5,860.4,623.2,866.3z"/>
	<path fill="#3C3C3B" d="M647.2,892.8c-0.6,0.4-1.1,0.7-1.6,0.9c-0.5,0.2-1.1,0.3-1.8,0.3c-0.6,0-1.1-0.1-1.6-0.3
		c-0.5-0.2-0.8-0.5-1-0.9c-0.2-0.4-0.4-0.8-0.4-1.2c0-0.6,0.2-1.1,0.6-1.5c0.4-0.4,1-0.7,1.7-0.8c0.1,0,0.5-0.1,1.1-0.2
		c0.6-0.1,1.1-0.2,1.5-0.3c0.4-0.1,0.9-0.2,1.4-0.3c0-0.6-0.2-1-0.4-1.2c-0.2-0.3-0.7-0.4-1.4-0.4c-0.6,0-1,0.1-1.3,0.2
		c-0.3,0.1-0.6,0.4-0.8,0.7c-0.2,0.3-0.4,0.5-0.5,0.6c-0.1,0.1-0.3,0.1-0.6,0.1c-0.3,0-0.5-0.1-0.7-0.2c-0.2-0.2-0.3-0.3-0.3-0.6
		c0-0.4,0.1-0.7,0.4-1.1c0.3-0.3,0.8-0.6,1.4-0.9c0.6-0.2,1.4-0.3,2.3-0.3c1,0,1.8,0.1,2.4,0.3c0.6,0.2,1,0.6,1.2,1
		c0.2,0.5,0.4,1.1,0.4,1.9c0,0.5,0,0.9,0,1.3c0,0.3,0,0.7,0,1.2c0,0.4,0.1,0.8,0.2,1.2c0.1,0.4,0.2,0.7,0.2,0.8
		c0,0.2-0.1,0.4-0.3,0.6c-0.2,0.2-0.5,0.3-0.8,0.3c-0.2,0-0.5-0.1-0.7-0.3C647.8,893.5,647.5,893.2,647.2,892.8z M647.1,889.8
		c-0.3,0.1-0.8,0.2-1.5,0.4c-0.7,0.1-1.1,0.2-1.4,0.3c-0.3,0.1-0.5,0.2-0.7,0.3c-0.2,0.2-0.3,0.4-0.3,0.7c0,0.3,0.1,0.6,0.4,0.8
		c0.3,0.2,0.6,0.3,1.1,0.3c0.5,0,0.9-0.1,1.3-0.3c0.4-0.2,0.7-0.4,0.9-0.7c0.2-0.3,0.3-0.8,0.3-1.6V889.8z"/>
	<path fill="#3C3C3B" d="M632.9,883.5v3.2c0.4-0.4,0.9-0.7,1.3-0.9c0.5-0.2,1-0.3,1.7-0.3c0.8,0,1.5,0.2,2,0.5
		c0.6,0.3,1,0.8,1.4,1.4c0.3,0.6,0.5,1.4,0.5,2.2c0,0.6-0.1,1.2-0.3,1.8c-0.2,0.5-0.4,1-0.8,1.4c-0.3,0.4-0.8,0.7-1.2,0.9
		c-0.5,0.2-1,0.3-1.6,0.3c-0.4,0-0.7,0-1-0.1c-0.3-0.1-0.6-0.2-0.8-0.3c-0.2-0.1-0.4-0.3-0.6-0.4c-0.2-0.1-0.4-0.3-0.6-0.6v0.2
		c0,0.4-0.1,0.7-0.3,0.9c-0.2,0.2-0.5,0.3-0.8,0.3c-0.3,0-0.6-0.1-0.8-0.3c-0.2-0.2-0.3-0.5-0.3-0.9v-9.2c0-0.4,0.1-0.8,0.3-1
		c0.2-0.2,0.5-0.3,0.8-0.3c0.4,0,0.6,0.1,0.8,0.3C632.8,882.8,632.9,883.1,632.9,883.5z M633,889.8c0,0.8,0.2,1.5,0.6,1.9
		c0.4,0.4,1,0.7,1.7,0.7c0.6,0,1.1-0.2,1.5-0.7c0.4-0.5,0.6-1.1,0.6-2c0-0.6-0.1-1-0.3-1.4c-0.2-0.4-0.4-0.7-0.8-0.9
		c-0.3-0.2-0.7-0.3-1.1-0.3c-0.4,0-0.8,0.1-1.2,0.3c-0.3,0.2-0.6,0.5-0.8,1C633.1,888.7,633,889.2,633,889.8z"/>
	<path fill="#3C3C3B" d="M623.4,889.9v2.8c0,0.4-0.1,0.8-0.3,1c-0.2,0.2-0.5,0.3-0.9,0.3c-0.4,0-0.6-0.1-0.9-0.3
		c-0.2-0.2-0.3-0.6-0.3-1v-3.4c0-0.5,0-0.9-0.1-1.2c0-0.3-0.1-0.5-0.3-0.7c-0.2-0.2-0.5-0.3-0.8-0.3c-0.8,0-1.3,0.2-1.5,0.7
		c-0.2,0.5-0.4,1.2-0.4,2v2.9c0,0.4-0.1,0.8-0.3,1c-0.2,0.2-0.5,0.3-0.9,0.3c-0.4,0-0.6-0.1-0.9-0.3c-0.2-0.2-0.3-0.6-0.3-1v-6
		c0-0.4,0.1-0.7,0.3-0.9c0.2-0.2,0.5-0.3,0.8-0.3c0.3,0,0.6,0.1,0.8,0.3c0.2,0.2,0.3,0.5,0.3,0.8v0.2c0.4-0.4,0.8-0.8,1.3-1
		c0.5-0.2,1-0.3,1.5-0.3c0.6,0,1.1,0.1,1.5,0.3c0.4,0.2,0.8,0.5,1,1c0.4-0.4,0.8-0.8,1.3-1c0.5-0.2,1-0.3,1.5-0.3
		c0.6,0,1.2,0.1,1.7,0.3c0.5,0.2,0.8,0.5,1,1c0.2,0.4,0.3,1,0.3,1.8v4.1c0,0.4-0.1,0.8-0.3,1c-0.2,0.2-0.5,0.3-0.9,0.3
		c-0.4,0-0.6-0.1-0.9-0.3c-0.2-0.2-0.3-0.6-0.3-1v-3.5c0-0.5,0-0.8-0.1-1.1c0-0.3-0.2-0.5-0.3-0.7c-0.2-0.2-0.5-0.3-0.9-0.3
		c-0.3,0-0.6,0.1-0.9,0.2c-0.3,0.2-0.5,0.4-0.6,0.7C623.5,888.4,623.4,889,623.4,889.9z"/>
	<path fill="#3C3C3B" d="M614.2,889.7c0,0.6-0.1,1.2-0.3,1.7c-0.2,0.5-0.5,1-0.9,1.4c-0.4,0.4-0.9,0.7-1.5,0.9
		c-0.6,0.2-1.2,0.3-1.9,0.3c-0.7,0-1.3-0.1-1.9-0.3c-0.6-0.2-1.1-0.5-1.5-0.9c-0.4-0.4-0.7-0.8-0.9-1.4c-0.2-0.5-0.3-1.1-0.3-1.7
		c0-0.6,0.1-1.2,0.3-1.8c0.2-0.5,0.5-1,0.9-1.4c0.4-0.4,0.9-0.7,1.5-0.9c0.6-0.2,1.2-0.3,1.9-0.3c0.7,0,1.3,0.1,1.9,0.3
		c0.6,0.2,1.1,0.5,1.5,0.9c0.4,0.4,0.7,0.8,0.9,1.4C614.1,888.5,614.2,889.1,614.2,889.7z M611.8,889.7c0-0.9-0.2-1.5-0.6-2
		c-0.4-0.5-1-0.7-1.7-0.7c-0.5,0-0.9,0.1-1.2,0.3c-0.3,0.2-0.6,0.5-0.8,0.9c-0.2,0.4-0.3,0.9-0.3,1.5c0,0.6,0.1,1,0.3,1.4
		c0.2,0.4,0.5,0.7,0.8,0.9c0.3,0.2,0.8,0.3,1.2,0.3c0.7,0,1.3-0.2,1.7-0.7C611.6,891.2,611.8,890.6,611.8,889.7z"/>
	<path fill="#3C3C3B" d="M602.2,892.4c0.4,0.2,0.8,0.4,1.2,0.7c0.4,0.2,0.7,0.4,0.9,0.5c0.1,0.1,0.2,0.3,0.2,0.5
		c0,0.2-0.1,0.3-0.3,0.5c-0.2,0.2-0.4,0.2-0.6,0.2c-0.2,0-0.4-0.1-0.7-0.2c-0.3-0.1-0.6-0.3-1-0.5c-0.4-0.2-0.8-0.5-1.2-0.8
		c-0.8,0.4-1.8,0.6-3,0.6c-1,0-1.9-0.1-2.6-0.4c-0.8-0.3-1.4-0.7-1.9-1.2c-0.5-0.5-0.9-1.2-1.2-1.9c-0.3-0.7-0.4-1.5-0.4-2.4
		c0-0.9,0.1-1.7,0.4-2.4c0.3-0.7,0.7-1.3,1.2-1.9c0.5-0.5,1.2-0.9,1.9-1.2c0.8-0.3,1.6-0.4,2.6-0.4c1.3,0,2.4,0.2,3.4,0.7
		c0.9,0.5,1.6,1.2,2.1,2c0.5,0.9,0.7,1.9,0.7,3.1C603.8,889.9,603.3,891.4,602.2,892.4z M600.2,891.2c0.4-0.4,0.6-0.8,0.8-1.3
		c0.2-0.5,0.3-1.1,0.3-1.7c0-0.8-0.1-1.5-0.4-2.2c-0.3-0.6-0.7-1.1-1.3-1.4c-0.5-0.3-1.2-0.5-1.9-0.5c-0.5,0-1,0.1-1.4,0.3
		c-0.4,0.2-0.8,0.4-1.1,0.8c-0.3,0.3-0.6,0.8-0.7,1.3c-0.2,0.5-0.3,1.1-0.3,1.7c0,1.3,0.3,2.3,1,3c0.7,0.7,1.5,1.1,2.6,1.1
		c0.4,0,0.9-0.1,1.3-0.2c-0.3-0.2-0.6-0.4-1-0.5c-0.4-0.2-0.7-0.3-0.8-0.4c-0.2-0.1-0.2-0.2-0.2-0.4c0-0.2,0.1-0.3,0.2-0.4
		c0.1-0.1,0.3-0.2,0.5-0.2C598.1,890,599,890.4,600.2,891.2z"/>
	<path fill="#FFFFFF" d="M429.4,100.7c-2.4,3.4-8.8,3.7-14.6,0.8c0.2,0.1,0.3,0.2,0.5,0.3c6.2,3.7,13.3,3.7,15.9,0
		c2.5-3.5-0.1-9.1-5.7-12.8C429.8,92.7,431.6,97.5,429.4,100.7z"/>
	<path fill="#FFFFFF" d="M433.1,102.7c-2.7,4.1-10,4.7-17,1.6c0.2,0.1,0.4,0.2,0.6,0.3c7.4,4,15.7,3.7,18.5-0.7
		c2.7-4.2-0.6-10.6-7.3-14.6C433.2,93.4,435.5,98.9,433.1,102.7z"/>
	<path fill="#FFFFFF" d="M418.3,114.6c0.2,0.1,0.4,0.2,0.6,0.4c0.2,0.1,0.4,0.2,0.5,0.3c0.1,0.1,0.1,0.2,0.1,0.3
		c0,0.1,0,0.2-0.1,0.3c-0.1,0.1-0.2,0.1-0.3,0.1c-0.1,0-0.2,0-0.4-0.1c-0.1-0.1-0.3-0.1-0.5-0.3c-0.2-0.1-0.4-0.3-0.6-0.4
		c-0.4,0.2-1,0.3-1.6,0.3c-0.5,0-1-0.1-1.4-0.2c-0.4-0.2-0.7-0.4-1-0.6c-0.3-0.3-0.5-0.6-0.6-1c-0.1-0.4-0.2-0.8-0.2-1.3
		c0-0.5,0.1-0.9,0.2-1.3c0.1-0.4,0.4-0.7,0.6-1c0.3-0.3,0.6-0.5,1-0.6c0.4-0.1,0.8-0.2,1.4-0.2c0.7,0,1.3,0.1,1.8,0.4
		c0.5,0.3,0.9,0.6,1.1,1.1c0.3,0.5,0.4,1,0.4,1.7C419.1,113.3,418.8,114,418.3,114.6z M417.2,113.9c0.2-0.2,0.3-0.4,0.4-0.7
		c0.1-0.3,0.1-0.6,0.1-0.9c0-0.4-0.1-0.8-0.2-1.2c-0.2-0.3-0.4-0.6-0.7-0.7c-0.3-0.2-0.6-0.2-1-0.2c-0.3,0-0.5,0-0.7,0.1
		c-0.2,0.1-0.4,0.2-0.6,0.4c-0.2,0.2-0.3,0.4-0.4,0.7c-0.1,0.3-0.1,0.6-0.1,0.9c0,0.7,0.2,1.2,0.5,1.6c0.4,0.4,0.8,0.6,1.3,0.6
		c0.2,0,0.5,0,0.7-0.1c-0.1-0.1-0.3-0.2-0.5-0.3c-0.2-0.1-0.4-0.2-0.4-0.2c-0.1-0.1-0.1-0.1-0.1-0.2c0-0.1,0-0.2,0.1-0.2
		c0.1-0.1,0.2-0.1,0.2-0.1C416.1,113.3,416.6,113.5,417.2,113.9z"/>
	<path fill="#FFFFFF" d="M424.6,113.2c0,0.3-0.1,0.6-0.2,0.9c-0.1,0.3-0.3,0.5-0.5,0.7c-0.2,0.2-0.5,0.4-0.8,0.5
		c-0.3,0.1-0.6,0.2-1,0.2c-0.4,0-0.7-0.1-1-0.2c-0.3-0.1-0.6-0.3-0.8-0.5c-0.2-0.2-0.4-0.4-0.5-0.7c-0.1-0.3-0.2-0.6-0.2-0.9
		c0-0.3,0.1-0.7,0.2-0.9c0.1-0.3,0.3-0.5,0.5-0.7c0.2-0.2,0.5-0.4,0.8-0.5c0.3-0.1,0.6-0.2,1-0.2c0.4,0,0.7,0.1,1,0.2
		c0.3,0.1,0.6,0.3,0.8,0.5c0.2,0.2,0.4,0.4,0.5,0.7C424.5,112.5,424.6,112.8,424.6,113.2z M423.4,113.2c0-0.5-0.1-0.8-0.3-1.1
		c-0.2-0.3-0.5-0.4-0.9-0.4c-0.2,0-0.5,0.1-0.6,0.2c-0.2,0.1-0.3,0.3-0.4,0.5c-0.1,0.2-0.1,0.5-0.1,0.8c0,0.3,0,0.6,0.1,0.8
		c0.1,0.2,0.2,0.4,0.4,0.5c0.2,0.1,0.4,0.2,0.6,0.2c0.4,0,0.7-0.1,0.9-0.4C423.2,114,423.4,113.6,423.4,113.2z"/>
	<path fill="#FFFFFF" d="M429.5,113.2v1.5c0,0.2-0.1,0.4-0.2,0.5c-0.1,0.1-0.3,0.2-0.5,0.2c-0.2,0-0.3-0.1-0.5-0.2
		c-0.1-0.1-0.2-0.3-0.2-0.5v-1.8c0-0.3,0-0.5,0-0.7c0-0.2-0.1-0.3-0.2-0.4c-0.1-0.1-0.2-0.2-0.4-0.2c-0.4,0-0.7,0.1-0.8,0.4
		c-0.1,0.3-0.2,0.6-0.2,1.1v1.5c0,0.2-0.1,0.4-0.2,0.5c-0.1,0.1-0.3,0.2-0.5,0.2c-0.2,0-0.3-0.1-0.5-0.2c-0.1-0.1-0.2-0.3-0.2-0.5
		v-3.2c0-0.2,0.1-0.4,0.2-0.5c0.1-0.1,0.2-0.2,0.4-0.2c0.2,0,0.3,0.1,0.4,0.2c0.1,0.1,0.2,0.2,0.2,0.4v0.1c0.2-0.2,0.4-0.4,0.7-0.5
		c0.2-0.1,0.5-0.2,0.8-0.2c0.3,0,0.6,0.1,0.8,0.2c0.2,0.1,0.4,0.3,0.6,0.5c0.2-0.2,0.4-0.4,0.7-0.5c0.2-0.1,0.5-0.2,0.8-0.2
		c0.3,0,0.6,0.1,0.9,0.2c0.2,0.1,0.4,0.3,0.5,0.5c0.1,0.2,0.2,0.5,0.2,1v2.2c0,0.2-0.1,0.4-0.2,0.5c-0.1,0.1-0.3,0.2-0.5,0.2
		c-0.2,0-0.3-0.1-0.5-0.2c-0.1-0.1-0.2-0.3-0.2-0.5v-1.9c0-0.2,0-0.4,0-0.6c0-0.1-0.1-0.3-0.2-0.4c-0.1-0.1-0.3-0.1-0.5-0.1
		c-0.2,0-0.3,0-0.5,0.1c-0.1,0.1-0.3,0.2-0.3,0.4C429.5,112.4,429.5,112.8,429.5,113.2z"/>
	<path fill="#FFFFFF" d="M434.5,109.8v1.7c0.2-0.2,0.5-0.4,0.7-0.5c0.2-0.1,0.5-0.2,0.9-0.2c0.4,0,0.8,0.1,1.1,0.3
		c0.3,0.2,0.5,0.4,0.7,0.8c0.2,0.3,0.3,0.7,0.3,1.2c0,0.3,0,0.7-0.1,0.9c-0.1,0.3-0.2,0.5-0.4,0.7c-0.2,0.2-0.4,0.4-0.7,0.5
		c-0.3,0.1-0.5,0.2-0.9,0.2c-0.2,0-0.4,0-0.5-0.1c-0.2,0-0.3-0.1-0.4-0.2c-0.1-0.1-0.2-0.1-0.3-0.2c-0.1-0.1-0.2-0.2-0.3-0.3v0.1
		c0,0.2-0.1,0.4-0.2,0.5c-0.1,0.1-0.3,0.2-0.4,0.2c-0.2,0-0.3-0.1-0.4-0.2c-0.1-0.1-0.2-0.3-0.2-0.5v-4.9c0-0.2,0.1-0.4,0.2-0.5
		c0.1-0.1,0.2-0.2,0.4-0.2c0.2,0,0.3,0.1,0.4,0.2C434.4,109.5,434.5,109.6,434.5,109.8z M434.5,113.2c0,0.4,0.1,0.8,0.3,1
		c0.2,0.2,0.5,0.4,0.9,0.4c0.3,0,0.6-0.1,0.8-0.4c0.2-0.2,0.3-0.6,0.3-1.1c0-0.3,0-0.6-0.1-0.8c-0.1-0.2-0.2-0.4-0.4-0.5
		c-0.2-0.1-0.4-0.2-0.6-0.2c-0.2,0-0.4,0.1-0.6,0.2c-0.2,0.1-0.3,0.3-0.4,0.5C434.6,112.6,434.5,112.9,434.5,113.2z"/>
	<path fill="#FFFFFF" d="M442,114.8c-0.3,0.2-0.6,0.4-0.9,0.5c-0.3,0.1-0.6,0.2-0.9,0.2c-0.3,0-0.6-0.1-0.8-0.2
		c-0.2-0.1-0.4-0.3-0.6-0.5c-0.1-0.2-0.2-0.4-0.2-0.6c0-0.3,0.1-0.6,0.3-0.8c0.2-0.2,0.5-0.4,0.9-0.4c0.1,0,0.3-0.1,0.6-0.1
		c0.3-0.1,0.6-0.1,0.8-0.2c0.2,0,0.5-0.1,0.7-0.2c0-0.3-0.1-0.5-0.2-0.7c-0.1-0.1-0.4-0.2-0.7-0.2c-0.3,0-0.5,0-0.7,0.1
		c-0.2,0.1-0.3,0.2-0.4,0.4c-0.1,0.2-0.2,0.3-0.2,0.3c0,0.1-0.1,0.1-0.3,0.1c-0.1,0-0.3,0-0.4-0.1c-0.1-0.1-0.1-0.2-0.1-0.3
		c0-0.2,0.1-0.4,0.2-0.6c0.2-0.2,0.4-0.3,0.7-0.5c0.3-0.1,0.7-0.2,1.2-0.2c0.5,0,1,0.1,1.3,0.2c0.3,0.1,0.5,0.3,0.7,0.6
		c0.1,0.3,0.2,0.6,0.2,1c0,0.3,0,0.5,0,0.7c0,0.2,0,0.4,0,0.6c0,0.2,0,0.4,0.1,0.7c0.1,0.2,0.1,0.4,0.1,0.4c0,0.1-0.1,0.2-0.2,0.3
		c-0.1,0.1-0.3,0.1-0.4,0.1c-0.1,0-0.3-0.1-0.4-0.2C442.3,115.2,442.1,115,442,114.8z M441.9,113.2c-0.2,0.1-0.4,0.1-0.8,0.2
		c-0.3,0.1-0.6,0.1-0.7,0.1c-0.1,0-0.3,0.1-0.4,0.2c-0.1,0.1-0.2,0.2-0.2,0.4c0,0.2,0.1,0.3,0.2,0.4c0.1,0.1,0.3,0.2,0.6,0.2
		c0.2,0,0.5,0,0.7-0.1c0.2-0.1,0.4-0.2,0.5-0.4c0.1-0.2,0.2-0.5,0.2-0.8V113.2z"/>
	<g opacity="0.1">
		<path fill="none" stroke="#FFFFFF" stroke-linecap="round" stroke-miterlimit="10" d="M187.5,870.1c41.1,5.1,67.7-1.5,105.6-1.4
			c57.9,0.3,95.5,5,129,5.6c46,0.9,95.7-6.7,134.4-6c53.3,1,68.6,5.2,100.3,1.1"/>
		<path fill="none" stroke="#FFFFFF" stroke-width="0.979" stroke-linecap="round" stroke-miterlimit="10" d="M190.9,848.2
			c40.5,5,66.7-1.5,104.1-1.3c57.1,0.3,94.2,4.8,127.3,5.4c45.4,0.8,94.2-6.5,132.2-5.8c52.7,1,67.9,5.1,98.8,1.2"/>
		<path fill="none" stroke="#FFFFFF" stroke-width="0.958" stroke-linecap="round" stroke-miterlimit="10" d="M194.3,826.2
			c39.9,4.8,65.7-1.5,102.6-1.3c56.3,0.3,93,4.6,125.6,5.2c44.7,0.8,92.6-6.3,130.1-5.5c52.2,1,67.3,4.9,97.4,1.2"/>
		<path fill="none" stroke="#FFFFFF" stroke-width="0.937" stroke-linecap="round" stroke-miterlimit="10" d="M197.7,804.2
			c39.4,4.6,64.8-1.4,101.1-1.3c55.4,0.3,91.8,4.5,123.9,5c44,0.8,91.1-6,128-5.3c51.6,1,66.6,4.8,95.9,1.3"/>
		<path fill="none" stroke="#FFFFFF" stroke-width="0.916" stroke-linecap="round" stroke-miterlimit="10" d="M201.1,782.2
			c38.8,4.5,63.8-1.4,99.5-1.2c54.6,0.3,90.6,4.3,122.2,4.8c43.3,0.8,89.5-5.8,125.9-5.1c51,0.9,66,4.7,94.5,1.3"/>
		<path fill="none" stroke="#FFFFFF" stroke-width="0.895" stroke-linecap="round" stroke-miterlimit="10" d="M204.4,760.2
			c38.2,4.3,62.8-1.4,98-1.2c53.7,0.3,89.4,4.1,120.5,4.7c42.7,0.8,88-5.5,123.8-4.9c50.5,0.9,65.3,4.6,93,1.4"/>
		<path fill="none" stroke="#FFFFFF" stroke-width="0.874" stroke-linecap="round" stroke-miterlimit="10" d="M207.8,738.2
			c37.6,4.2,61.8-1.3,96.5-1.2c52.9,0.3,88.2,3.9,118.8,4.5c42,0.7,86.4-5.3,121.6-4.7c49.9,0.9,64.6,4.5,91.6,1.4"/>
		<path fill="none" stroke="#FFFFFF" stroke-width="0.853" stroke-linecap="round" stroke-miterlimit="10" d="M211.2,716.2
			c37.1,4,60.9-1.3,95-1.1c52.1,0.3,86.9,3.7,117.1,4.3c41.3,0.7,84.8-5.1,119.5-4.4c49.3,0.9,64,4.3,90.1,1.5"/>
		<path fill="none" stroke="#FFFFFF" stroke-width="0.832" stroke-linecap="round" stroke-miterlimit="10" d="M214.6,694.2
			c36.5,3.8,59.9-1.3,93.5-1.1c51.2,0.2,85.7,3.5,115.4,4.1c40.7,0.7,83.3-4.8,117.4-4.2c48.8,0.8,63.3,4.2,88.6,1.5"/>
		<path fill="none" stroke="#FFFFFF" stroke-width="0.811" stroke-linecap="round" stroke-miterlimit="10" d="M218,672.2
			c35.9,3.7,58.9-1.2,91.9-1.1c50.4,0.2,84.5,3.4,113.7,3.9c40,0.7,81.7-4.6,115.3-4c48.2,0.8,62.7,4.1,87.2,1.6"/>
		<path fill="none" stroke="#FFFFFF" stroke-width="0.79" stroke-linecap="round" stroke-miterlimit="10" d="M221.4,650.2
			c35.3,3.5,58-1.2,90.4-1.1c49.5,0.2,83.3,3.2,112,3.7c39.3,0.7,80.2-4.3,113.2-3.8c47.6,0.8,62,4,85.7,1.6"/>
		<path fill="none" stroke="#FFFFFF" stroke-width="0.769" stroke-linecap="round" stroke-miterlimit="10" d="M224.8,628.2
			c34.7,3.3,57-1.2,88.9-1c48.7,0.2,82.1,3,110.3,3.5c38.7,0.6,78.6-4.1,111.1-3.6c47.1,0.8,61.4,3.9,84.3,1.7"/>
		<path fill="none" stroke="#FFFFFF" stroke-width="0.748" stroke-linecap="round" stroke-miterlimit="10" d="M228.2,606.2
			c34.2,3.2,56-1.1,87.4-1c47.8,0.2,80.8,2.8,108.6,3.3c38,0.6,77-3.9,108.9-3.3c46.5,0.8,60.7,3.7,82.8,1.7"/>
		<path fill="none" stroke="#FFFFFF" stroke-width="0.727" stroke-linecap="round" stroke-miterlimit="10" d="M231.6,584.3
			c33.6,3,55.1-1.1,85.9-1c47,0.2,79.6,2.6,106.8,3.1c37.3,0.6,75.5-3.6,106.8-3.1c46,0.7,60,3.6,81.4,1.8"/>
		<path fill="none" stroke="#FFFFFF" stroke-width="0.706" stroke-linecap="round" stroke-miterlimit="10" d="M235,562.3
			c33,2.9,54.1-1.1,84.3-0.9c46.2,0.2,78.4,2.5,105.1,2.9c36.7,0.6,73.9-3.4,104.7-2.9c45.4,0.7,59.4,3.5,79.9,1.8"/>
		<path fill="none" stroke="#FFFFFF" stroke-width="0.685" stroke-linecap="round" stroke-miterlimit="10" d="M238.4,540.3
			c32.4,2.7,53.1-1,82.8-0.9c45.3,0.2,77.2,2.3,103.4,2.7c36,0.6,72.4-3.2,102.6-2.7c44.8,0.7,58.7,3.4,78.5,1.9"/>
		<path fill="none" stroke="#FFFFFF" stroke-width="0.664" stroke-linecap="round" stroke-miterlimit="10" d="M241.8,518.3
			c31.9,2.5,52.1-1,81.3-0.9c44.5,0.2,76,2.1,101.7,2.5c35.3,0.5,70.8-2.9,100.5-2.5c44.3,0.7,58.1,3.3,77,1.9"/>
		<path fill="none" stroke="#FFFFFF" stroke-width="0.643" stroke-linecap="round" stroke-miterlimit="10" d="M245.1,496.3
			c31.3,2.4,51.2-1,79.8-0.8c43.6,0.2,74.8,1.9,100,2.3c34.7,0.5,69.3-2.7,98.3-2.2c43.7,0.6,57.4,3.1,75.5,1.9"/>
		<path fill="none" stroke="#FFFFFF" stroke-width="0.622" stroke-linecap="round" stroke-miterlimit="10" d="M248.5,474.3
			c30.7,2.2,50.2-0.9,78.3-0.8c42.8,0.2,73.5,1.7,98.3,2.1c34,0.5,67.7-2.4,96.2-2c43.1,0.6,56.7,3,74.1,2"/>
		<path fill="none" stroke="#FFFFFF" stroke-width="0.6009" stroke-linecap="round" stroke-miterlimit="10" d="M251.9,452.3
			c30.1,2.1,49.2-0.9,76.7-0.8c42,0.2,72.3,1.6,96.6,1.9c33.3,0.5,66.1-2.2,94.1-1.8c42.6,0.6,56.1,2.9,72.6,2"/>
		<path fill="none" stroke="#FFFFFF" stroke-width="0.5799" stroke-linecap="round" stroke-miterlimit="10" d="M255.3,430.3
			c29.6,1.9,48.3-0.9,75.2-0.7c41.1,0.2,71.1,1.4,94.9,1.7c32.7,0.5,64.6-2,92-1.6c42,0.6,55.4,2.8,71.2,2.1"/>
		<path fill="none" stroke="#FFFFFF" stroke-width="0.5589" stroke-linecap="round" stroke-miterlimit="10" d="M258.7,408.3
			c29,1.7,47.3-0.8,73.7-0.7c40.3,0.2,69.9,1.2,93.2,1.5c32,0.4,63-1.7,89.9-1.4c41.5,0.5,54.8,2.7,69.7,2.1"/>
	</g>
	<g opacity="0.5">
		<g>
			<path fill="none" stroke="#12110B" stroke-width="0.5" stroke-linecap="round" stroke-miterlimit="10" d="M584.9,35.1
				c-0.1,0.4-0.2,0.8-0.3,1.2"/>
			
				<path fill="none" stroke="#12110B" stroke-width="0.5" stroke-linecap="round" stroke-miterlimit="10" stroke-dasharray="2.6356,2.6356" d="
				M584,38.9c-2.2,7.9-5.2,15.7-8.9,23.4"/>
			<path fill="none" stroke="#12110B" stroke-width="0.5" stroke-linecap="round" stroke-miterlimit="10" d="M574.4,63.4
				C574.4,63.4,574.4,63.5,574.4,63.4c-0.2,0.4-0.4,0.8-0.6,1.1"/>
		</g>
	</g>
	<g opacity="0.5">
		<g>
			<path fill="none" stroke="#12110B" stroke-width="0.5" stroke-linecap="round" stroke-miterlimit="10" d="M280.2,35.1
				c0.1,0.4,0.2,0.8,0.3,1.2"/>
			
				<path fill="none" stroke="#12110B" stroke-width="0.5" stroke-linecap="round" stroke-miterlimit="10" stroke-dasharray="2.6356,2.6356" d="
				M281.2,38.9c2.2,7.9,5.2,15.7,8.9,23.4"/>
			<path fill="none" stroke="#12110B" stroke-width="0.5" stroke-linecap="round" stroke-miterlimit="10" d="M290.8,63.4
				C290.8,63.5,290.8,63.5,290.8,63.4c0.2,0.4,0.4,0.8,0.6,1.1"/>
		</g>
	</g>
	<path fill="none" stroke="#12110B" stroke-width="0.5" stroke-linejoin="round" stroke-miterlimit="10" d="M170.7,910
		c2.5,1.6,6.6,2.9,11.5,4c4.2,0.9,8.9,1.6,13.9,2.1c4.9,0.6,10,1,14.9,1.3c21.9,2.3,55.5-5,97.7-2.8c29.7,1.6,63.7,3.7,101,5.3
		c2.4,0.1,9.1,0.5,15.7,0.5c7.6,0,15.2-0.5,18.4-0.6c36.1-1.5,69.1-3.6,98-5.1c42.3-2.2,75.8,5.1,97.7,2.8c4.8-0.3,10-0.7,14.9-1.3
		c4.9-0.5,9.7-1.2,13.9-2.1c5-1.1,9.2-2.4,11.7-4.1"/>
	<g opacity="0.5">
		<g>
			
				<line fill="none" stroke="#12110B" stroke-width="0.5" stroke-linecap="round" stroke-miterlimit="10" x1="36.9" y1="361.1" x2="37.9" y2="361.8"/>
			
				<path fill="none" stroke="#12110B" stroke-width="0.5" stroke-linecap="round" stroke-miterlimit="10" stroke-dasharray="2.4725,2.4725" d="
				M39.9,363.3c0.8,0.5,1.6,1,2.5,1.4l1.2,0.6c0.4,0.2,0.7,0.4,1.1,0.6c10,5.7,33.2,14.9,62.3,22.8l3,0.8
				c18.2,4.9,45.2,11,70.9,12.5"/>
			
				<line fill="none" stroke="#12110B" stroke-width="0.5" stroke-linecap="round" stroke-miterlimit="10" x1="182.1" y1="402" x2="183.4" y2="402.1"/>
		</g>
	</g>
	<g opacity="0.5">
		<g>
			<path fill="none" stroke="#12110B" stroke-width="0.5" stroke-linecap="round" stroke-miterlimit="10" d="M516.8,75.4
				c-0.4,0.1-0.8,0.2-1.2,0.4"/>
			
				<path fill="none" stroke="#12110B" stroke-width="0.5" stroke-linecap="round" stroke-miterlimit="10" stroke-dasharray="2.4723,2.4723" d="
				M513.3,76.5c-25.1,7.3-53.9,11-85.9,11h-1.5c-32.6,0-61.9-3.9-87.3-11.4"/>
			<path fill="none" stroke="#12110B" stroke-width="0.5" stroke-linecap="round" stroke-miterlimit="10" d="M337.3,75.7
				c-0.4-0.1-0.8-0.2-1.2-0.4"/>
		</g>
	</g>
	<g opacity="0.5">
		<g>
			
				<line fill="none" stroke="#12110B" stroke-width="0.5" stroke-linecap="round" stroke-miterlimit="10" x1="669.8" y1="402.1" x2="671.1" y2="402"/>
			
				<path fill="none" stroke="#12110B" stroke-width="0.5" stroke-linecap="round" stroke-miterlimit="10" stroke-dasharray="2.4725,2.4725" d="
				M673.5,401.9c25.3-1.7,51.8-7.6,69.7-12.4c0.6-0.2,3.1-0.8,3.1-0.8c29-7.9,52.2-17.1,62.3-22.8c0.3-0.2,0.6-0.3,1-0.5l1.3-0.6
				c1.3-0.7,2.5-1.4,3.5-2.1"/>
			
				<line fill="none" stroke="#12110B" stroke-width="0.5" stroke-linecap="round" stroke-miterlimit="10" x1="815.3" y1="361.8" x2="816.3" y2="361.1"/>
		</g>
	</g>
	<g opacity="0.5">
		<g>
			<path fill="none" stroke="#12110B" stroke-width="0.5" stroke-linecap="round" stroke-miterlimit="10" d="M172,905.5
				c0.4,0.2,0.7,0.4,1.1,0.6"/>
			
				<path fill="none" stroke="#12110B" stroke-width="0.5" stroke-linecap="round" stroke-miterlimit="10" stroke-dasharray="2.5011,2.5011" d="
				M175.4,907.1c1.8,0.6,3.9,1,6.8,1.6c4.2,0.9,8.9,1.6,13.9,2.1c4.9,0.6,10,1,14.9,1.3c21.9,2.3,55.5-5,97.7-2.8
				c29.7,1.6,63.7,3.7,101,5.3c2.4,0.1,9.1,0.5,15.7,0.5c7.6,0,15.2-0.5,18.4-0.6c36.1-1.5,69.1-3.6,98-5.1
				c42.3-2.2,75.8,5.1,97.7,2.8c4.8-0.3,10-0.7,14.9-1.3c4.9-0.5,9.7-1.2,13.9-2.1c3.8-0.8,7-1.7,9.5-2.9"/>
			<path fill="none" stroke="#12110B" stroke-width="0.5" stroke-linecap="round" stroke-miterlimit="10" d="M678.9,905.4
				c0.4-0.2,0.7-0.4,1.1-0.6"/>
		</g>
	</g>
	<g opacity="0.5">
		<g>
			<path fill="none" stroke="#12110B" stroke-width="0.5" stroke-linecap="round" stroke-miterlimit="10" d="M140.3,102.3
				c0.1,0.4,0.2,0.8,0.1,1.2"/>
			
				<path fill="none" stroke="#12110B" stroke-width="0.5" stroke-linecap="round" stroke-miterlimit="10" stroke-dasharray="2.501,2.501" d="
				M139.6,105.8c-1.5,2.6-4.4,5-4.4,5c-5,4.5-6.3,12.3-3.2,18.5l1.5,3.1c0.1,0.1,0.1,0.3,0.2,0.4c0.4,0.9,0.9,1.8,1.4,2.7"/>
			<path fill="none" stroke="#12110B" stroke-width="0.5" stroke-linecap="round" stroke-miterlimit="10" d="M135.7,136.7
				c0.2,0.4,0.4,0.7,0.6,1.1"/>
		</g>
	</g>
	<g opacity="0.5">
		<g>
			<path fill="none" stroke="#12110B" stroke-width="0.5" stroke-linecap="round" stroke-miterlimit="10" d="M712.9,102.3
				c-0.1,0.4-0.2,0.8-0.1,1.2"/>
			
				<path fill="none" stroke="#12110B" stroke-width="0.5" stroke-linecap="round" stroke-miterlimit="10" stroke-dasharray="2.4908,2.4908" d="
				M713.6,105.8c1.5,2.6,4.4,5,4.4,5c5,4.5,6.3,12.3,3.2,18.5l-1.5,3.1c-0.1,0.1-0.1,0.3-0.2,0.4c-0.4,0.8-0.8,1.7-1.3,2.6"/>
			<path fill="none" stroke="#12110B" stroke-width="0.5" stroke-linecap="round" stroke-miterlimit="10" d="M717.6,136.6
				c-0.2,0.4-0.4,0.7-0.6,1.1"/>
		</g>
	</g>
	<g opacity="0.5">
		<g>
			<path fill="none" stroke="#12110B" stroke-width="0.5" stroke-linecap="round" stroke-miterlimit="10" d="M193.1,391.4
				c0.3-0.3,0.5-0.6,0.8-1"/>
			
				<path fill="none" stroke="#12110B" stroke-width="0.5" stroke-linecap="round" stroke-miterlimit="10" stroke-dasharray="2.4844,2.4844" d="
				M195.1,388.3c2.7-5.5,2.3-13,2.1-15.2c-9.5-118.6-40.5-192.4-57.6-228.2"/>
			<path fill="none" stroke="#12110B" stroke-width="0.5" stroke-linecap="round" stroke-miterlimit="10" d="M139.1,143.8
				c-0.2-0.4-0.4-0.8-0.5-1.1c0.3-0.2,0.7-0.5,1-0.7"/>
			
				<path fill="none" stroke="#12110B" stroke-width="0.5" stroke-linecap="round" stroke-miterlimit="10" stroke-dasharray="2.5262,2.5262" d="
				M141.8,140.6c15.7-9.9,36.4-17.7,47-21.6c2.1-0.8,3.8-1.4,5-1.9l1.4-0.5c0.9-0.3,1.7-0.7,2.4-1c34.6-13.9,64.2-29,88.3-44.9"/>
			<path fill="none" stroke="#12110B" stroke-width="0.5" stroke-linecap="round" stroke-miterlimit="10" d="M286.8,70
				c0.3-0.2,0.7-0.5,1-0.7c0.2,0.4,0.4,0.7,0.6,1.1"/>
			
				<path fill="none" stroke="#12110B" stroke-width="0.5" stroke-linecap="round" stroke-miterlimit="10" stroke-dasharray="2.5171,2.5171" d="
				M289.8,72.6c0.3,0.5,0.6,1,0.9,1.5l0.1,0.1c10,15.3,33.4,36.8,61.2,48.1c17.2,6.9,26.3,14.7,26.4,14.8l1.6,1.4h42.1h9.1h39.8
				l2.3,0l1.6-1.4c0.1-0.1,9.2-7.8,26.4-14.8c27.8-11.2,51.2-32.8,61.2-48.1l0.1-0.1c0.5-0.8,1-1.7,1.5-2.5"/>
			<path fill="none" stroke="#12110B" stroke-width="0.5" stroke-linecap="round" stroke-miterlimit="10" d="M564.7,70.4
				c0.2-0.4,0.4-0.7,0.6-1.1c0.3,0.2,0.7,0.5,1,0.7"/>
			
				<path fill="none" stroke="#12110B" stroke-width="0.5" stroke-linecap="round" stroke-miterlimit="10" stroke-dasharray="2.5258,2.5258" d="
				M568.5,71.4c23.8,15.6,53.1,30.5,87.2,44.2c0.7,0.3,1.6,0.6,2.4,1l1.4,0.5c1.2,0.5,2.9,1.1,5,1.9c10.9,4.1,32.2,12,48,22.3"/>
			<path fill="none" stroke="#12110B" stroke-width="0.5" stroke-linecap="round" stroke-miterlimit="10" d="M713.5,142
				c0.3,0.2,0.7,0.5,1,0.7c-0.2,0.4-0.4,0.7-0.5,1.1"/>
			
				<path fill="none" stroke="#12110B" stroke-width="0.5" stroke-linecap="round" stroke-miterlimit="10" stroke-dasharray="2.4845,2.4845" d="
				M713,146c-17.2,36.2-47.6,109.7-57,227.1c-0.2,2.3-0.6,10.7,2.7,16.2"/>
			<path fill="none" stroke="#12110B" stroke-width="0.5" stroke-linecap="round" stroke-miterlimit="10" d="M659.3,390.5
				c0.2,0.3,0.5,0.7,0.8,1"/>
		</g>
	</g>
	<path id="TIRA_LIMPIEZA_1_" fill="#E20A13" stroke="#242422" stroke-width="0.75" stroke-miterlimit="10" d="M536.6,50.2
		c-2.8,4.9-6.8,10.9-12.1,17.1c-22.2,8-53.9,14.9-97.1,14.9h-0.3c0,0,0,0,0,0h0c0,0,0,0,0,0h-0.8c0,0,0,0,0,0h0c0,0,0,0,0,0h-0.3
		c-43.3,0-74.9-6.9-97.1-14.9c-5.3-6.2-9.2-12.2-12.1-17.1c0.5,0.2,1,0.4,1.5,0.7c0.5,0.2,0.9,0.4,1.4,0.6c0.3,0.1,0.5,0.2,0.8,0.3
		c0.5,0.2,1,0.4,1.4,0.6c0.3,0.1,0.6,0.2,0.8,0.3c0.5,0.2,0.9,0.4,1.4,0.5c0.3,0.1,0.7,0.3,1,0.4C347.3,62.3,380.1,70,425.8,70h1.6
		c45.7,0,78.5-7.8,100.8-16.3c0.3-0.1,0.7-0.3,1-0.4c0.5-0.2,0.9-0.4,1.4-0.5c0.3-0.1,0.6-0.2,0.8-0.3c0.5-0.2,1-0.4,1.4-0.6
		c0.3-0.1,0.5-0.2,0.8-0.3c0.5-0.2,0.9-0.4,1.4-0.6C535.6,50.7,536.1,50.4,536.6,50.2z"/>
</g>
<g id="Escudo_Camiseta">
	
		<image overflow="visible" width="200" height="200" xlink:href="../../../../../Downloads/escudo-01.png"  transform="matrix(0.5456 0 0 0.5456 208.0237 222.3525)">
	</image>
</g>
<g id="Número_delantero">
	
		<text id="numero_4_" transform="matrix(1 0 0 1 385.9189 353.0931)" fill="#1D1D1B" font-family="'SablonUp-College'" font-size="100px">10</text>
</g>
</svg>
