<?xml version="1.0" encoding="utf-8"?>
<!-- Generator: Adobe Illustrator 24.1.0, SVG Export Plug-In . SVG Version: 6.00 Build 0)  -->
<svg version="1.1" xmlns="http://www.w3.org/2000/svg" xmlns:xlink="http://www.w3.org/1999/xlink" x="0px" y="0px"
	 viewBox="0 0 850.4 963.8" enable-background="new 0 0 850.4 963.8" xml:space="preserve">
<g id="Capa_1">
	<g id="Capa_1_1_">
	</g>
	<g id="Short_principal">
	</g>
</g>
<g id="Remera_principal">
	<path fill="#EDEDED" d="M415.6,919.7c0,0-41.4,1.3-52.2-1.3c-10.7-2.7-59.8-1.3-101.3,2.7c-41.4,4-89-6.7-89-6.7s6.1-25.3,6.1-49.2
		c0-24,27.6-123.7,33.8-187.6s4.6-146.4,4.6-173c0-26.6-18.4-139.7-23-188.9s-32.2-113.1-36.8-142.4s3.1-53.2,3.1-53.2
		s41.4-22.6,61.4-27.9s61.4-30.6,61.4-30.6c3.1,27.9,36.8,63.9,66.8,79c30,15.1,49.8,32.8,49.8,32.8h15.3H431
		c0,0,19.9-17.7,49.8-32.8c30-15.1,63.7-51,66.8-79c0,0,41.4,25.3,61.4,30.6s61.4,27.9,61.4,27.9s7.7,24,3.1,53.2
		s-32.2,93.1-36.8,142.4s-23,162.3-23,188.9c0,26.6-1.5,109.1,4.6,173S652,841.2,652,865.2c0,24,6.1,49.2,6.1,49.2
		s-47.6,10.6-89,6.7c-41.4-4-90.5-5.3-101.3-2.7S415.6,919.7,415.6,919.7z"/>
	<path fill="#EDEDED" d="M670.4,120.1c0,0,19.9,10.6,29.2,39.9s14.6,85.8,23.8,104.5s32.2,70.5,30.7,75.8
		c-1.5,5.3-12.3,49.2-108.9,55.9L629.5,374c0,0,4.9-70.6,17.9-111.4C660.4,221.9,685,156.7,670.4,120.1z"/>
	<path fill="#EDEDED" d="M160.9,120.1c0,0-19.9,10.6-29.2,39.9c-9.2,29.3-14.6,85.8-23.8,104.5S75.8,335,77.3,340.3
		c1.5,5.3,12.3,49.2,108.9,55.9l15.6-22.1c0,0-4.9-70.6-17.9-111.4C170.9,221.9,146.3,156.7,160.9,120.1z"/>
</g>
<g id="Remera_cuello_y_puños">
	<path fill="#AA1A1A" stroke="#FF0600" stroke-width="0.25" stroke-miterlimit="10" d="M751.3,329.3l2.8,10.2c0,0-4.3,50-109.4,56.7
		l-5.5-8.4C639.2,387.8,724.4,377.4,751.3,329.3z"/>
	<path fill="#AA1A1A" stroke="#FF0600" stroke-width="0.25" stroke-miterlimit="10" d="M80.6,329.3l-2.8,10.2c0,0,4.3,50,109.4,56.7
		l5.5-8.4C192.7,387.8,107.5,377.4,80.6,329.3z"/>
	<path fill="#AA1A1A" stroke="#0D0D0C" stroke-width="0.25" stroke-miterlimit="10" d="M417.5,149.7c-21.5-8-62.9-29.3-90.5-59.9
		s-15.3-46.6-15.3-46.6l-27.6,20c4.6,25.3,27.6,57.2,62.9,75.8s55.2,34.6,55.2,34.6h15.3h-1.5h15.3c0,0,19.9-16,55.2-34.6
		s58.3-50.6,62.9-75.8l-27.6-20c0,0,12.3,16-15.3,46.6c-27.6,30.6-69.1,51.9-90.5,59.9"/>
	<path fill="#AA1A1A" stroke="#0D0D0C" stroke-width="0.25" stroke-miterlimit="10" d="M417.5,76.8H396c-21.5,0-41.4-6.7-41.4-6.7
		c-43-13.3-42.2-28.6-42.2-28.6s-11.5,12.4,10,41.8c0,0,33.8,18.7,72.1,17.4h23h-1.5h23c38.4,1.3,72.1-17.4,72.1-17.4
		c21.5-29.4,10-41.8,10-41.8s0.8,15.3-42.2,28.6c0,0-19.9,6.7-41.4,6.7h-21.5"/>
</g>
<g id="GENERICO">
	<path fill="none" stroke="#070606" stroke-width="0.5" stroke-linecap="round" stroke-miterlimit="10" stroke-dasharray="2.5" d="
		M714.1,82.5"/>
	<path fill="none" stroke="#070606" stroke-width="0.5" stroke-linecap="round" stroke-miterlimit="10" stroke-dasharray="2.5" d="
		M713.7,80.7"/>
	<linearGradient id="SVGID_1_" gradientUnits="userSpaceOnUse" x1="343.4887" y1="133.2655" x2="488.4021" y2="133.2655">
		<stop  offset="0" style="stop-color:#FFFFFF"/>
		<stop  offset="0.2497" style="stop-color:#D2D2D2"/>
		<stop  offset="0.6011" style="stop-color:#989898"/>
		<stop  offset="0.8615" style="stop-color:#747474"/>
		<stop  offset="1" style="stop-color:#666666"/>
	</linearGradient>
	<path fill="url(#SVGID_1_)" d="M343.5,106.6l72.2,53.4l72.8-53.4C488.4,106.6,417,125.6,343.5,106.6z"/>
	<g opacity="0.53">
		<defs>
			<filter id="Adobe_OpacityMaskFilter" filterUnits="userSpaceOnUse" x="636.8" y="245.6" width="42.6" height="145.7">
				<feFlood  style="flood-color:white;flood-opacity:1" result="back"/>
				<feBlend  in="SourceGraphic" in2="back" mode="normal"/>
			</filter>
		</defs>
		<mask maskUnits="userSpaceOnUse" x="636.8" y="245.6" width="42.6" height="145.7" id="SVGID_2_">
			<g filter="url(#Adobe_OpacityMaskFilter)">
				<image overflow="visible" width="48" height="151" xlink:href="3B0570D7.jpg"  transform="matrix(1 0 0 1 633.8452 242.7105)">
				</image>
			</g>
		</mask>
		<g mask="url(#SVGID_2_)">
			<linearGradient id="SVGID_3_" gradientUnits="userSpaceOnUse" x1="636.8141" y1="318.4374" x2="679.4161" y2="318.4374">
				<stop  offset="0.1336" style="stop-color:#070606;stop-opacity:0.3"/>
				<stop  offset="1" style="stop-color:#070606;stop-opacity:0"/>
			</linearGradient>
			<path fill="url(#SVGID_3_)" d="M666.7,385.5c-4-25.1-3.1-50.9,2.5-75.8c4.8-21.3,13.2-42.7,9.1-64.1C668,256.1,657.5,267,652,280
				c-2.4,5.6-3.8,11.4-5.1,17.3c-5.8,24.8-11.7,50.1-9.6,75.4c0.7,8,4.4,17.9,13.7,18.6c5.4,0.4,10.3-2.8,14.5-5.8"/>
		</g>
	</g>
	<g opacity="0.58">
		<defs>
			<filter id="Adobe_OpacityMaskFilter_1_" filterUnits="userSpaceOnUse" x="665.4" y="170" width="81.6" height="223.2">
				<feFlood  style="flood-color:white;flood-opacity:1" result="back"/>
				<feBlend  in="SourceGraphic" in2="back" mode="normal"/>
			</filter>
		</defs>
		<mask maskUnits="userSpaceOnUse" x="665.4" y="170" width="81.6" height="223.2" id="SVGID_4_">
			<g filter="url(#Adobe_OpacityMaskFilter_1_)">
				<image overflow="visible" width="87" height="228" xlink:href="3B0570DC.jpg"  transform="matrix(1 0 0 1 662.8452 167.7105)">
				</image>
			</g>
		</mask>
		<g mask="url(#SVGID_4_)">
			<linearGradient id="SVGID_5_" gradientUnits="userSpaceOnUse" x1="757.5922" y1="327.7744" x2="636.3393" y2="257.769">
				<stop  offset="0" style="stop-color:#FFFFFF;stop-opacity:0.3"/>
				<stop  offset="1" style="stop-color:#FFFFFF;stop-opacity:0"/>
			</linearGradient>
			<path fill="url(#SVGID_5_)" d="M667.9,390.9c-5.3-26.9-1.2-54.4,2.9-81.4c6.1-40.3,12.2-80.5,18.4-120.8c1-6.4,1.8-13.3-2.1-18.8
				c10.6,41.4,22.6,82.5,36,123.3c3.1,9.4,6.4,18.9,12.2,27.3c6,8.7,15.2,18.4,10.5,27.7c-2.9,5.9-10.4,8.9-15.6,13.4
				c-4.4,3.8-7.2,8.8-11.9,12.4c-4.2,3.3-9.6,5.1-14.8,6.9c-11.8,4-23.5,8.1-35.3,12.1"/>
		</g>
	</g>
	<g opacity="0.53">
		<defs>
			<filter id="Adobe_OpacityMaskFilter_2_" filterUnits="userSpaceOnUse" x="156.5" y="245.6" width="42.6" height="145.7">
				<feFlood  style="flood-color:white;flood-opacity:1" result="back"/>
				<feBlend  in="SourceGraphic" in2="back" mode="normal"/>
			</filter>
		</defs>
		<mask maskUnits="userSpaceOnUse" x="156.5" y="245.6" width="42.6" height="145.7" id="SVGID_6_">
			<g filter="url(#Adobe_OpacityMaskFilter_2_)">
				<image overflow="visible" width="48" height="151" xlink:href="3B0570DD.jpg"  transform="matrix(1 0 0 1 153.8452 242.7105)">
				</image>
			</g>
		</mask>
		<g mask="url(#SVGID_6_)">

				<linearGradient id="SVGID_7_" gradientUnits="userSpaceOnUse" x1="647.9202" y1="318.4374" x2="690.5222" y2="318.4374" gradientTransform="matrix(-1 0 0 1 847 0)">
				<stop  offset="0.1336" style="stop-color:#070606;stop-opacity:0.3"/>
				<stop  offset="1" style="stop-color:#070606;stop-opacity:0"/>
			</linearGradient>
			<path fill="url(#SVGID_7_)" d="M169.2,385.5c4-25.1,3.1-50.9-2.5-75.8c-4.8-21.3-13.2-42.7-9.1-64.1
				c10.3,10.5,20.9,21.4,26.4,34.4c2.4,5.6,3.8,11.4,5.1,17.3c5.8,24.8,11.7,50.1,9.6,75.4c-0.7,8-4.4,17.9-13.7,18.6
				c-5.4,0.4-10.3-2.8-14.5-5.8"/>
		</g>
	</g>
	<g opacity="0.58">
		<defs>
			<filter id="Adobe_OpacityMaskFilter_3_" filterUnits="userSpaceOnUse" x="88.9" y="170" width="81.6" height="223.2">
				<feFlood  style="flood-color:white;flood-opacity:1" result="back"/>
				<feBlend  in="SourceGraphic" in2="back" mode="normal"/>
			</filter>
		</defs>
		<mask maskUnits="userSpaceOnUse" x="88.9" y="170" width="81.6" height="223.2" id="SVGID_8_">
			<g filter="url(#Adobe_OpacityMaskFilter_3_)">
				<image overflow="visible" width="86" height="228" xlink:href="3B0570DF.jpg"  transform="matrix(1 0 0 1 86.8452 167.7105)">
				</image>
			</g>
		</mask>
		<g mask="url(#SVGID_8_)">

				<linearGradient id="SVGID_9_" gradientUnits="userSpaceOnUse" x1="768.6983" y1="327.7744" x2="647.4454" y2="257.769" gradientTransform="matrix(-1 0 0 1 847 0)">
				<stop  offset="0" style="stop-color:#FFFFFF;stop-opacity:0.3"/>
				<stop  offset="1" style="stop-color:#FFFFFF;stop-opacity:0"/>
			</linearGradient>
			<path fill="url(#SVGID_9_)" d="M168,390.9c5.3-26.9,1.2-54.4-2.9-81.4c-6.1-40.3-12.2-80.5-18.4-120.8c-1-6.4-1.8-13.3,2.1-18.8
				c-10.6,41.4-22.6,82.5-36,123.3c-3.1,9.4-6.4,18.9-12.2,27.3c-6,8.7-15.2,18.4-10.5,27.7c2.9,5.9,10.4,8.9,15.6,13.4
				c4.4,3.8,7.2,8.8,11.9,12.4c4.2,3.3,9.6,5.1,14.8,6.9c11.8,4,23.5,8.1,35.3,12.1"/>
		</g>
	</g>

		<radialGradient id="SVGID_10_" cx="502.0016" cy="310.1108" r="51.9508" gradientTransform="matrix(1.5345 0 0 1.3306 -353.3474 -339.7743)" gradientUnits="userSpaceOnUse">
		<stop  offset="0" style="stop-color:#000000;stop-opacity:0"/>
		<stop  offset="0.1171" style="stop-color:#030303;stop-opacity:0"/>
		<stop  offset="0.1875" style="stop-color:#0B0B0B;stop-opacity:0"/>
		<stop  offset="0.2456" style="stop-color:#191919;stop-opacity:0"/>
		<stop  offset="0.297" style="stop-color:#2E2E2E;stop-opacity:0"/>
		<stop  offset="0.344" style="stop-color:#484848;stop-opacity:0"/>
		<stop  offset="0.3877" style="stop-color:#686868;stop-opacity:0"/>
		<stop  offset="0.429" style="stop-color:#8F8F8F;stop-opacity:0"/>
		<stop  offset="0.4683" style="stop-color:#BBBBBB;stop-opacity:0"/>
		<stop  offset="0.5047" style="stop-color:#EDEDED;stop-opacity:0"/>
		<stop  offset="0.517" style="stop-color:#FFFFFF;stop-opacity:0"/>
		<stop  offset="0.5619" style="stop-color:#F1F1F1;stop-opacity:2.785662e-02"/>
		<stop  offset="0.6461" style="stop-color:#CECDCD;stop-opacity:8.015504e-02"/>
		<stop  offset="0.7606" style="stop-color:#949393;stop-opacity:0.1513"/>
		<stop  offset="0.8995" style="stop-color:#454444;stop-opacity:0.2376"/>
		<stop  offset="1" style="stop-color:#070606;stop-opacity:0.3"/>
	</radialGradient>
	<path opacity="0.36" fill="url(#SVGID_10_)" d="M417.7,78.5h-21.5c-21.5,0-41.4-6.7-41.4-6.7c-43-13.3-42.2-28.6-42.2-28.6
		s-11.5,12.4,10,41.8c0,0,33.8,18.7,72.1,17.4h23h-1.5h23c38.4,1.3,72.1-17.4,72.1-17.4c21.5-29.4,10-41.8,10-41.8
		s0.8,15.3-42.2,28.6c0,0-19.9,6.7-41.4,6.7h-21.5"/>

		<linearGradient id="SVGID_11_" gradientUnits="userSpaceOnUse" x1="720.5709" y1="108.3545" x2="986.0402" y2="108.3545" gradientTransform="matrix(-1 0 0 1 1270 0)">
		<stop  offset="0" style="stop-color:#070606;stop-opacity:0.3"/>
		<stop  offset="4.446354e-02" style="stop-color:#0D0C0C;stop-opacity:0.2724"/>
		<stop  offset="0.1064" style="stop-color:#1F1E1E;stop-opacity:0.2339"/>
		<stop  offset="0.1786" style="stop-color:#3D3C3C;stop-opacity:0.1891"/>
		<stop  offset="0.2585" style="stop-color:#666666;stop-opacity:0.1394"/>
		<stop  offset="0.3449" style="stop-color:#9B9B9B;stop-opacity:8.575617e-02"/>
		<stop  offset="0.4352" style="stop-color:#DADADA;stop-opacity:2.964893e-02"/>
		<stop  offset="0.4829" style="stop-color:#FFFFFF;stop-opacity:0"/>
		<stop  offset="0.9488" style="stop-color:#4D4D4D;stop-opacity:0"/>
	</linearGradient>
	<path opacity="0.36" fill="url(#SVGID_11_)" d="M415.9,149.6c21.5-8,62.9-29.3,90.5-59.9c27.6-30.6,15.3-46.6,15.3-46.6l27.6,20
		c-4.6,25.3-27.6,57.2-62.9,75.8s-55.2,34.6-55.2,34.6h-15.3h1.5h-15.3c0,0-19.9-16-55.2-34.6S288.6,88.4,284,63.1l27.6-20
		c0,0-12.3,16,15.3,46.6s69.1,51.9,90.5,59.9"/>
	<linearGradient id="SVGID_12_" gradientUnits="userSpaceOnUse" x1="642.9674" y1="393.191" x2="642.9674" y2="393.191">
		<stop  offset="0" style="stop-color:#FFFFFF;stop-opacity:0.3"/>
		<stop  offset="1" style="stop-color:#FFFFFF;stop-opacity:0"/>
	</linearGradient>
	<path fill="url(#SVGID_12_)" d="M643,393.2"/>
	<path fill="none" stroke="#070606" stroke-width="0.5" stroke-linecap="round" stroke-miterlimit="10" stroke-dasharray="2.5" d="
		M716.4,115.9"/>
	<path fill="none" stroke="#070606" stroke-width="0.5" stroke-linecap="round" stroke-miterlimit="10" stroke-dasharray="2.5" d="
		M643.5,393.5"/>
	<path fill="none" stroke="#070606" stroke-width="0.5" stroke-linecap="round" stroke-miterlimit="10" stroke-dasharray="2.5" d="
		M715.9,114.1"/>

		<path opacity="0.71" fill="none" stroke="#070606" stroke-width="0.25" stroke-linecap="round" stroke-miterlimit="10" stroke-dasharray="2.5" d="
		M643.5,393.5c0,0,93.6-9.3,110.5-58.5"/>

		<path opacity="0.71" fill="none" stroke="#070606" stroke-width="0.25" stroke-linecap="round" stroke-miterlimit="10" stroke-dasharray="2.5" d="
		M642,389.5c0,0,93.6-9.3,110.5-58.5"/>

		<path opacity="0.71" fill="none" stroke="#070606" stroke-width="0.25" stroke-linecap="round" stroke-miterlimit="10" stroke-dasharray="2.5" d="
		M189.3,392.2c0,0-93.6-9.3-110.5-58.5"/>

		<path opacity="0.71" fill="none" stroke="#070606" stroke-width="0.25" stroke-linecap="round" stroke-miterlimit="10" stroke-dasharray="2.5" d="
		M190.8,388.2c0,0-93.6-9.3-110.5-58.5"/>
	<g opacity="0.13">

			<radialGradient id="SVGID_13_" cx="382.8326" cy="748.7612" r="141.625" gradientTransform="matrix(1.5345 0 0 1.3306 -353.3474 -339.7743)" gradientUnits="userSpaceOnUse">
			<stop  offset="0" style="stop-color:#FFFFFF;stop-opacity:0.3"/>
			<stop  offset="1" style="stop-color:#FFFFFF;stop-opacity:0"/>
		</radialGradient>
		<path fill="url(#SVGID_13_)" d="M269.1,918.4c-7.6-69-12-138.2-13.1-207.5c-1.7-107.5,4.1-217.8-37.2-319.1
			c20.2,84.3,20.2,171.1,20.1,257.2c0,18.7,0,37.5-2.4,56.1c-2.7,22-8.6,43.6-13.6,65.2c-10.8,47-17.2,94.7-23.5,142.3
			c-0.3,2.1-0.5,4.4,0.9,6.2c1.9,2.3,5.6,2.5,8.8,2.4c19.4-0.4,38.7-2.2,57.8-5.3"/>
	</g>
	<g opacity="0.53">

			<linearGradient id="SVGID_14_" gradientUnits="userSpaceOnUse" x1="173.903" y1="644.9805" x2="241.5049" y2="644.9805" gradientTransform="matrix(-1 0 0 1 832 0)">
			<stop  offset="0.1336" style="stop-color:#070606;stop-opacity:0.3"/>
			<stop  offset="1" style="stop-color:#070606;stop-opacity:0"/>
		</linearGradient>
		<path fill="url(#SVGID_14_)" d="M628.9,371.5c-13.5,38.3-28.7,71.5-34.6,111.1c-4.8,33-4.3,66.3-2.8,99.5
			c4.9,109.7,46.6,336.2,46.6,336.2s15.3-2.7,19.9-4c-10.7-121.1-49.1-206.2-44.5-335.3c0.9-26.5-1.8-54.7,0-81.2
			C616.4,456,626.1,413.5,628.9,371.5L628.9,371.5z"/>
	</g>
	<g opacity="0.53">

			<linearGradient id="SVGID_15_" gradientUnits="userSpaceOnUse" x1="128.6234" y1="653.7563" x2="201.5252" y2="653.7563" gradientTransform="matrix(0.9999 -1.304139e-02 1.304139e-02 0.9999 32.9418 -8.3968)">
			<stop  offset="0.1336" style="stop-color:#070606;stop-opacity:0.3"/>
			<stop  offset="1" style="stop-color:#070606;stop-opacity:0"/>
		</linearGradient>
		<path fill="url(#SVGID_15_)" d="M200.6,369.8c14.1,38.1,29.8,71.1,36.2,110.7c5.3,32.9,5.3,66.3,4.3,99.5
			c-3.3,109.7-41.5,336.7-41.5,336.7s-21.4-1.9-26-3.1c8.9-121.2,47.2-203,45.5-336.4c-1.3-26.4,1-54.8-1.2-81.2
			C214.4,454.1,204.1,411.7,200.6,369.8L200.6,369.8z"/>
	</g>
	<g opacity="0.97">
		<defs>
			<filter id="Adobe_OpacityMaskFilter_4_" filterUnits="userSpaceOnUse" x="159.4" y="61.4" width="511.6" height="309.3">
				<feFlood  style="flood-color:white;flood-opacity:1" result="back"/>
				<feBlend  in="SourceGraphic" in2="back" mode="normal"/>
			</filter>
		</defs>
		<mask maskUnits="userSpaceOnUse" x="159.4" y="61.4" width="511.6" height="309.3" id="SVGID_16_">
			<g filter="url(#Adobe_OpacityMaskFilter_4_)">
				<image overflow="visible" width="517" height="315" xlink:href="3B0570DB.jpg"  transform="matrix(1 0 0 1 156.8452 58.7105)">
				</image>
			</g>
		</mask>
		<g mask="url(#SVGID_16_)">
			<defs>
				<filter id="Adobe_OpacityMaskFilter_5_" filterUnits="userSpaceOnUse" x="159.4" y="61.4" width="511.6" height="309.3">
					<feFlood  style="flood-color:white;flood-opacity:1" result="back"/>
					<feBlend  in="SourceGraphic" in2="back" mode="normal"/>
				</filter>
			</defs>
			<mask maskUnits="userSpaceOnUse" x="159.4" y="61.4" width="511.6" height="309.3" id="SVGID_16_">
				<g filter="url(#Adobe_OpacityMaskFilter_5_)">
					<image overflow="visible" width="517" height="315" xlink:href="3B0570D4.jpg"  transform="matrix(1 0 0 1 156.8452 58.7105)">
					</image>
				</g>
			</mask>
			<g>

					<linearGradient id="SVGID_17_" gradientUnits="userSpaceOnUse" x1="159.2957" y1="215.5245" x2="670.9605" y2="215.5245" gradientTransform="matrix(0.9998 0 0 1.012 0.1196 -2.0247)">
					<stop  offset="0" style="stop-color:#FFFFFF;stop-opacity:0.3"/>
					<stop  offset="1" style="stop-color:#FFFFFF;stop-opacity:0"/>
				</linearGradient>
				<path fill="url(#SVGID_17_)" d="M638.5,292c-23,30.7-32.6,73-74,78.2c-36.6,4.6-89.8-23.6-126.6-26.7
					c-41.3-3.5-80.7,13.6-120.7,23.3c-40,9.7-88.1-3.7-113.3-32.6c-11.5-13.2-18-48.9-21.5-65.2c-11.4-52.7-18.5-74-22.8-127.4
					c-0.3-4.1-0.6-8.3,1.1-12c2-4.4,6.5-7.6,10.8-10.5c28.1-19.3,56.3-38.8,87.4-54.2c4.3-2.1,9.1-4.2,13.8-3.1
					c5.1,1.2,8.1,5.6,10.7,9.6c25.9,38.9,65.1,70.8,111.2,90.6c5.7,2.4,11.6,4.7,17.9,5.2c12.9,1.1,24.9-5.3,35.9-11.4
					c35.5-19.9,72.2-40.7,95.1-71.8c3.2-4.3,6.4-9.1,11.9-10.9c7.2-2.4,15,1.1,21.6,4.6c25.7,13.4,51.4,26.9,77.1,40.3
					c5,2.6,10.2,5.4,13.2,9.8c2.4,3.5,3,7.7,3.4,11.7c4.4,52.1-41.7,100.7-32.5,152.3"/>
			</g>
		</g>
	</g>
	<path fill="#1A1A1A" d="M607.8,852.4c-5.9,8.7-22.3,10-37.8,3.4c0.4,0.2,0.9,0.5,1.3,0.7c16.5,8.4,35,7.8,41.3-1.5
		c6-8.8-1.3-22.3-16.4-30.8C608.1,832.7,613.2,844.4,607.8,852.4z"/>
	<path fill="#1A1A1A" d="M599.5,848.1c-5.4,7.3-19.5,7.8-32.5,1.7c0.4,0.2,0.7,0.4,1.1,0.6c13.8,7.7,29.6,7.8,35.4,0.1
		c5.5-7.4-0.2-19.1-12.7-26.9C600.5,831.3,604.5,841.4,599.5,848.1z"/>
	<path fill="#1A1A1A" d="M629.2,878c-0.7,0.4-1.3,0.8-1.9,1c-0.6,0.2-1.3,0.3-2.1,0.3c-0.7,0-1.3-0.1-1.8-0.4
		c-0.5-0.2-0.9-0.6-1.2-1c-0.3-0.4-0.4-0.9-0.4-1.3c0-0.7,0.2-1.2,0.7-1.7c0.5-0.5,1.1-0.8,2-0.9c0.2,0,0.6-0.1,1.3-0.2
		c0.7-0.1,1.3-0.2,1.8-0.3c0.5-0.1,1-0.2,1.6-0.4c0-0.6-0.2-1.1-0.4-1.4c-0.3-0.3-0.8-0.4-1.6-0.4c-0.7,0-1.2,0.1-1.6,0.3
		c-0.4,0.2-0.7,0.4-0.9,0.8c-0.3,0.3-0.4,0.6-0.5,0.7c-0.1,0.1-0.3,0.2-0.7,0.2c-0.3,0-0.6-0.1-0.8-0.3c-0.2-0.2-0.3-0.4-0.3-0.7
		c0-0.4,0.2-0.8,0.5-1.2c0.3-0.4,0.9-0.7,1.6-1c0.7-0.3,1.6-0.4,2.7-0.4c1.2,0,2.2,0.1,2.8,0.4c0.7,0.2,1.2,0.6,1.5,1.2
		c0.3,0.5,0.4,1.2,0.4,2.1c0,0.6,0,1,0,1.4c0,0.4,0,0.8,0,1.3c0,0.4,0.1,0.9,0.3,1.4c0.2,0.5,0.3,0.8,0.3,0.9c0,0.2-0.1,0.5-0.4,0.7
		c-0.3,0.2-0.6,0.3-0.9,0.3c-0.3,0-0.6-0.1-0.8-0.3C629.8,878.7,629.5,878.4,629.2,878z M629,874.5c-0.4,0.1-1,0.3-1.8,0.4
		c-0.8,0.1-1.3,0.2-1.6,0.3c-0.3,0.1-0.6,0.2-0.8,0.4c-0.3,0.2-0.4,0.5-0.4,0.8c0,0.4,0.2,0.7,0.5,0.9c0.3,0.3,0.7,0.4,1.2,0.4
		c0.5,0,1-0.1,1.5-0.3c0.5-0.2,0.8-0.5,1-0.8c0.3-0.4,0.4-1,0.4-1.8V874.5z"/>
	<path fill="#1A1A1A" d="M610.9,867.5v3.6c0.5-0.5,1-0.8,1.6-1.1c0.5-0.2,1.2-0.4,2-0.4c0.9,0,1.7,0.2,2.4,0.6
		c0.7,0.4,1.2,0.9,1.6,1.6c0.4,0.7,0.6,1.6,0.6,2.5c0,0.7-0.1,1.4-0.3,2c-0.2,0.6-0.5,1.1-0.9,1.6c-0.4,0.4-0.9,0.8-1.5,1
		c-0.6,0.2-1.2,0.4-1.9,0.4c-0.4,0-0.8,0-1.2-0.1c-0.4-0.1-0.7-0.2-0.9-0.3c-0.3-0.1-0.5-0.3-0.7-0.4c-0.2-0.2-0.4-0.4-0.7-0.7v0.2
		c0,0.4-0.1,0.8-0.4,1c-0.2,0.2-0.6,0.3-0.9,0.3c-0.4,0-0.7-0.1-0.9-0.3c-0.2-0.2-0.3-0.6-0.3-1v-10.4c0-0.5,0.1-0.8,0.3-1.1
		c0.2-0.2,0.5-0.4,0.9-0.4c0.4,0,0.8,0.1,1,0.4C610.7,866.7,610.9,867,610.9,867.5z M611,874.5c0,0.9,0.3,1.7,0.8,2.2
		c0.5,0.5,1.2,0.8,2,0.8c0.7,0,1.3-0.3,1.8-0.8c0.5-0.5,0.8-1.3,0.8-2.2c0-0.6-0.1-1.2-0.3-1.6c-0.2-0.5-0.5-0.8-0.9-1
		c-0.4-0.2-0.8-0.4-1.3-0.4c-0.5,0-1,0.1-1.4,0.4c-0.4,0.2-0.7,0.6-1,1.1C611.1,873.3,611,873.9,611,874.5z"/>
	<path fill="#1A1A1A" d="M601.3,874.7v3.2c0,0.5-0.1,0.9-0.4,1.1c-0.3,0.3-0.6,0.4-1,0.4c-0.4,0-0.8-0.1-1-0.4
		c-0.3-0.3-0.4-0.6-0.4-1.1V874c0-0.6,0-1.1-0.1-1.4c0-0.3-0.2-0.6-0.4-0.8c-0.2-0.2-0.5-0.3-1-0.3c-0.9,0-1.5,0.3-1.8,0.8
		c-0.3,0.5-0.4,1.3-0.4,2.3v3.2c0,0.5-0.1,0.9-0.4,1.1c-0.3,0.3-0.6,0.4-1,0.4c-0.4,0-0.8-0.1-1-0.4c-0.3-0.2-0.4-0.6-0.4-1.1V871
		c0-0.4,0.1-0.8,0.4-1c0.2-0.2,0.6-0.3,0.9-0.3c0.4,0,0.7,0.1,0.9,0.3c0.3,0.2,0.4,0.5,0.4,0.9v0.2c0.5-0.5,1-0.9,1.5-1.1
		c0.5-0.2,1.1-0.3,1.8-0.3c0.7,0,1.3,0.1,1.8,0.4c0.5,0.2,0.9,0.6,1.2,1.1c0.5-0.5,1-0.9,1.5-1.1c0.5-0.2,1.1-0.3,1.8-0.3
		c0.7,0,1.4,0.1,1.9,0.4c0.5,0.3,0.9,0.6,1.2,1.1c0.2,0.4,0.4,1.1,0.4,2v4.6c0,0.5-0.1,0.9-0.4,1.1c-0.3,0.3-0.6,0.4-1,0.4
		c-0.4,0-0.8-0.1-1-0.4c-0.3-0.2-0.4-0.6-0.4-1.1v-4c0-0.5,0-0.9-0.1-1.2c-0.1-0.3-0.2-0.6-0.4-0.8c-0.2-0.2-0.6-0.3-1-0.3
		c-0.4,0-0.7,0.1-1,0.3c-0.3,0.2-0.6,0.4-0.8,0.7C601.4,872.9,601.3,873.6,601.3,874.7z"/>
	<path fill="#1A1A1A" d="M590.4,874.5c0,0.7-0.1,1.4-0.4,2c-0.3,0.6-0.6,1.1-1.1,1.5c-0.5,0.4-1.1,0.8-1.7,1
		c-0.7,0.2-1.4,0.3-2.3,0.3c-0.8,0-1.6-0.1-2.2-0.3c-0.7-0.2-1.2-0.6-1.7-1c-0.5-0.4-0.9-0.9-1.1-1.5c-0.3-0.6-0.4-1.2-0.4-2
		c0-0.7,0.1-1.4,0.4-2c0.3-0.6,0.6-1.1,1.1-1.5c0.5-0.4,1-0.8,1.7-1c0.7-0.2,1.4-0.3,2.2-0.3c0.8,0,1.6,0.1,2.3,0.3
		c0.7,0.2,1.3,0.6,1.7,1c0.5,0.4,0.8,0.9,1.1,1.5C590.3,873.1,590.4,873.8,590.4,874.5z M587.7,874.5c0-1-0.2-1.7-0.7-2.3
		c-0.5-0.5-1.2-0.8-2-0.8c-0.5,0-1,0.1-1.4,0.4c-0.4,0.2-0.7,0.6-0.9,1.1c-0.2,0.5-0.3,1-0.3,1.6c0,0.6,0.1,1.2,0.3,1.6
		c0.2,0.5,0.5,0.8,0.9,1.1c0.4,0.2,0.9,0.4,1.4,0.4c0.8,0,1.5-0.3,2-0.8C587.4,876.2,587.7,875.4,587.7,874.5z"/>
	<path fill="#1A1A1A" d="M574.8,877.5c0.4,0.3,0.9,0.5,1.4,0.7c0.5,0.2,0.9,0.4,1,0.6c0.2,0.1,0.2,0.3,0.2,0.6
		c0,0.2-0.1,0.4-0.3,0.6c-0.2,0.2-0.4,0.3-0.7,0.3c-0.2,0-0.5-0.1-0.8-0.2c-0.3-0.1-0.7-0.3-1.1-0.6c-0.4-0.2-0.9-0.5-1.4-0.9
		c-1,0.4-2.2,0.6-3.6,0.6c-1.1,0-2.2-0.2-3.1-0.5c-0.9-0.3-1.7-0.8-2.3-1.4c-0.6-0.6-1.1-1.3-1.4-2.1c-0.3-0.8-0.5-1.7-0.5-2.7
		c0-1,0.2-1.9,0.5-2.7c0.3-0.8,0.8-1.5,1.4-2.1c0.6-0.6,1.4-1,2.3-1.3c0.9-0.3,1.9-0.5,3-0.5c1.5,0,2.8,0.3,3.9,0.8
		c1.1,0.5,1.9,1.3,2.5,2.3c0.6,1,0.8,2.2,0.8,3.5C576.7,874.7,576.1,876.3,574.8,877.5z M572.5,876.1c0.4-0.4,0.7-0.9,0.9-1.5
		c0.2-0.6,0.3-1.2,0.3-2c0-0.9-0.2-1.7-0.5-2.4c-0.3-0.7-0.8-1.2-1.5-1.6c-0.6-0.4-1.4-0.5-2.2-0.5c-0.6,0-1.1,0.1-1.6,0.3
		c-0.5,0.2-0.9,0.5-1.3,0.8c-0.4,0.4-0.7,0.9-0.9,1.4c-0.2,0.6-0.3,1.2-0.3,1.9c0,1.5,0.4,2.6,1.2,3.4c0.8,0.8,1.8,1.2,3,1.2
		c0.5,0,1-0.1,1.5-0.3c-0.3-0.2-0.7-0.4-1.2-0.6c-0.5-0.2-0.8-0.4-1-0.5c-0.2-0.1-0.3-0.3-0.3-0.5c0-0.2,0.1-0.3,0.2-0.5
		c0.2-0.1,0.4-0.2,0.6-0.2C570,874.8,571,875.2,572.5,876.1z"/>
	<path fill="none" stroke="#070606" stroke-width="0.25" stroke-linecap="round" stroke-miterlimit="10" stroke-dasharray="2.5" d="
		M279.2,64.2c0,0,7.5,43.9,62.8,77.2s55.2,37.3,55.2,37.3h18.4h18.4c0,0,0-4,55.2-37.3s62.8-77.2,62.8-77.2"/>
	<linearGradient id="SVGID_18_" gradientUnits="userSpaceOnUse" x1="282.9105" y1="106.7532" x2="548.3799" y2="106.7532">
		<stop  offset="0" style="stop-color:#070606;stop-opacity:0.3"/>
		<stop  offset="4.446354e-02" style="stop-color:#0D0C0C;stop-opacity:0.2724"/>
		<stop  offset="0.1064" style="stop-color:#1F1E1E;stop-opacity:0.2339"/>
		<stop  offset="0.1786" style="stop-color:#3D3C3C;stop-opacity:0.1891"/>
		<stop  offset="0.2585" style="stop-color:#666666;stop-opacity:0.1394"/>
		<stop  offset="0.3449" style="stop-color:#9B9B9B;stop-opacity:8.575617e-02"/>
		<stop  offset="0.4352" style="stop-color:#DADADA;stop-opacity:2.964893e-02"/>
		<stop  offset="0.4829" style="stop-color:#FFFFFF;stop-opacity:0"/>
		<stop  offset="0.9488" style="stop-color:#4D4D4D;stop-opacity:0"/>
	</linearGradient>
	<path opacity="0.36" fill="url(#SVGID_18_)" d="M416.4,148c-21.5-8-62.9-29.3-90.5-59.9c-27.6-30.6-15.3-46.6-15.3-46.6l-27.6,20
		c4.6,25.3,27.6,57.2,62.9,75.8s55.2,34.6,55.2,34.6h15.3h-1.5h15.3c0,0,19.9-16,55.2-34.6s58.3-50.6,62.9-75.8l-27.6-20
		c0,0,12.3,16-15.3,46.6c-27.6,30.6-69.1,51.9-90.5,59.9"/>
	<path fill="none" d="M338.7,101.5c0,0,86.8,21.4,153.2,0"/>

		<path opacity="0.5" fill="none" stroke="#070606" stroke-width="0.5" stroke-linecap="round" stroke-miterlimit="10" stroke-dasharray="2.5" d="
		M656.8,894.9c0,0-55.5,10.2-87.7,7.6c-32.2-2.7-62.9-4-99.7-1.3s-87.5,0-99.7-2.7s-89.7,2.2-100.1,4.4c-10.4,2.2-92-8-92-8"/>

		<path opacity="0.5" fill="none" stroke="#070606" stroke-width="0.5" stroke-linecap="round" stroke-miterlimit="10" stroke-dasharray="2.5" d="
		M656.8,900.2c0,0-55.5,10.2-87.7,7.6c-32.2-2.7-62.9-4-99.7-1.3s-87.5,0-99.7-2.7s-89.7,2.2-100.1,4.4s-92-8-92-8"/>
	<path fill="#FFFFFF" d="M415.6,127.2c-2.4,3.2-8.7,3.4-14.4,0.8c0.2,0.1,0.3,0.2,0.5,0.3c6.1,3.4,13.2,3.4,15.7,0
		c2.4-3.2-0.1-8.4-5.6-11.8C416.1,119.8,417.8,124.3,415.6,127.2z"/>
	<path fill="#FFFFFF" d="M419.3,129.1c-2.6,3.8-9.9,4.4-16.8,1.5c0.2,0.1,0.4,0.2,0.6,0.3c7.3,3.7,15.5,3.4,18.3-0.6
		c2.7-3.9-0.6-9.8-7.3-13.5C419.4,120.5,421.7,125.6,419.3,129.1z"/>
	<path fill="#FFFFFF" d="M404.6,140.1c0.2,0.1,0.4,0.2,0.6,0.3c0.2,0.1,0.4,0.2,0.5,0.3c0.1,0.1,0.1,0.1,0.1,0.3
		c0,0.1,0,0.2-0.1,0.2c-0.1,0.1-0.2,0.1-0.3,0.1c-0.1,0-0.2,0-0.4-0.1c-0.1-0.1-0.3-0.1-0.5-0.2c-0.2-0.1-0.4-0.2-0.6-0.4
		c-0.4,0.2-1,0.3-1.6,0.3c-0.5,0-1-0.1-1.4-0.2c-0.4-0.1-0.7-0.3-1-0.6c-0.3-0.3-0.5-0.6-0.6-0.9c-0.1-0.4-0.2-0.8-0.2-1.2
		c0-0.4,0.1-0.8,0.2-1.2c0.1-0.4,0.4-0.7,0.6-0.9c0.3-0.3,0.6-0.4,1-0.6c0.4-0.1,0.8-0.2,1.3-0.2c0.7,0,1.3,0.1,1.7,0.4
		c0.5,0.2,0.9,0.6,1.1,1c0.3,0.4,0.4,0.9,0.4,1.5C405.5,138.9,405.2,139.6,404.6,140.1z M403.6,139.5c0.2-0.2,0.3-0.4,0.4-0.6
		c0.1-0.2,0.1-0.5,0.1-0.9c0-0.4-0.1-0.8-0.2-1.1c-0.2-0.3-0.4-0.5-0.7-0.7c-0.3-0.2-0.6-0.2-1-0.2c-0.3,0-0.5,0-0.7,0.1
		c-0.2,0.1-0.4,0.2-0.6,0.4c-0.2,0.2-0.3,0.4-0.4,0.6c-0.1,0.3-0.1,0.5-0.1,0.9c0,0.6,0.2,1.1,0.5,1.5c0.4,0.3,0.8,0.5,1.3,0.5
		c0.2,0,0.4,0,0.7-0.1c-0.1-0.1-0.3-0.2-0.5-0.3c-0.2-0.1-0.4-0.2-0.4-0.2c-0.1,0-0.1-0.1-0.1-0.2c0-0.1,0-0.1,0.1-0.2
		c0.1-0.1,0.2-0.1,0.2-0.1C402.5,138.9,403,139.1,403.6,139.5z"/>
	<path fill="#FFFFFF" d="M410.9,138.8c0,0.3-0.1,0.6-0.2,0.9c-0.1,0.3-0.3,0.5-0.5,0.7c-0.2,0.2-0.5,0.3-0.8,0.4
		c-0.3,0.1-0.6,0.2-1,0.2c-0.4,0-0.7-0.1-1-0.2c-0.3-0.1-0.5-0.2-0.8-0.4c-0.2-0.2-0.4-0.4-0.5-0.7c-0.1-0.3-0.2-0.5-0.2-0.9
		c0-0.3,0.1-0.6,0.2-0.9c0.1-0.3,0.3-0.5,0.5-0.7c0.2-0.2,0.5-0.3,0.8-0.4c0.3-0.1,0.6-0.2,1-0.2c0.4,0,0.7,0.1,1,0.2
		c0.3,0.1,0.6,0.2,0.8,0.4c0.2,0.2,0.4,0.4,0.5,0.7C410.8,138.2,410.9,138.5,410.9,138.8z M409.7,138.8c0-0.4-0.1-0.8-0.3-1
		c-0.2-0.2-0.5-0.4-0.9-0.4c-0.2,0-0.4,0.1-0.6,0.2c-0.2,0.1-0.3,0.3-0.4,0.5c-0.1,0.2-0.1,0.4-0.1,0.7c0,0.3,0,0.5,0.1,0.7
		c0.1,0.2,0.2,0.4,0.4,0.5c0.2,0.1,0.4,0.2,0.6,0.2c0.4,0,0.7-0.1,0.9-0.4C409.6,139.6,409.7,139.2,409.7,138.8z"/>
	<path fill="#FFFFFF" d="M415.7,138.9v1.4c0,0.2-0.1,0.4-0.2,0.5c-0.1,0.1-0.3,0.2-0.5,0.2c-0.2,0-0.3-0.1-0.4-0.2
		c-0.1-0.1-0.2-0.3-0.2-0.5v-1.7c0-0.3,0-0.5,0-0.6c0-0.1-0.1-0.3-0.2-0.4c-0.1-0.1-0.2-0.1-0.4-0.1c-0.4,0-0.7,0.1-0.8,0.4
		c-0.1,0.2-0.2,0.6-0.2,1v1.4c0,0.2-0.1,0.4-0.2,0.5c-0.1,0.1-0.3,0.2-0.5,0.2c-0.2,0-0.3-0.1-0.5-0.2c-0.1-0.1-0.2-0.3-0.2-0.5v-3
		c0-0.2,0.1-0.3,0.2-0.4c0.1-0.1,0.2-0.2,0.4-0.2c0.2,0,0.3,0,0.4,0.1c0.1,0.1,0.2,0.2,0.2,0.4v0.1c0.2-0.2,0.4-0.4,0.7-0.5
		c0.2-0.1,0.5-0.2,0.8-0.2c0.3,0,0.6,0.1,0.8,0.2c0.2,0.1,0.4,0.3,0.5,0.5c0.2-0.2,0.4-0.4,0.7-0.5c0.2-0.1,0.5-0.2,0.8-0.2
		c0.3,0,0.6,0.1,0.9,0.2c0.2,0.1,0.4,0.3,0.5,0.5c0.1,0.2,0.2,0.5,0.2,0.9v2c0,0.2-0.1,0.4-0.2,0.5c-0.1,0.1-0.3,0.2-0.5,0.2
		c-0.2,0-0.3-0.1-0.5-0.2c-0.1-0.1-0.2-0.3-0.2-0.5v-1.8c0-0.2,0-0.4,0-0.5c0-0.1-0.1-0.2-0.2-0.3c-0.1-0.1-0.2-0.1-0.4-0.1
		c-0.2,0-0.3,0-0.5,0.1c-0.1,0.1-0.3,0.2-0.3,0.3C415.8,138.1,415.7,138.4,415.7,138.9z"/>
	<path fill="#FFFFFF" d="M420.7,135.7v1.6c0.2-0.2,0.5-0.4,0.7-0.5c0.2-0.1,0.5-0.2,0.9-0.2c0.4,0,0.8,0.1,1.1,0.2
		c0.3,0.2,0.5,0.4,0.7,0.7c0.2,0.3,0.3,0.7,0.3,1.1c0,0.3,0,0.6-0.1,0.9c-0.1,0.3-0.2,0.5-0.4,0.7c-0.2,0.2-0.4,0.3-0.6,0.4
		c-0.3,0.1-0.5,0.2-0.8,0.2c-0.2,0-0.4,0-0.5-0.1c-0.2,0-0.3-0.1-0.4-0.1c-0.1-0.1-0.2-0.1-0.3-0.2c-0.1-0.1-0.2-0.2-0.3-0.3v0.1
		c0,0.2-0.1,0.3-0.2,0.4c-0.1,0.1-0.3,0.2-0.4,0.2c-0.2,0-0.3-0.1-0.4-0.2c-0.1-0.1-0.2-0.2-0.2-0.4v-4.6c0-0.2,0.1-0.4,0.2-0.5
		c0.1-0.1,0.2-0.2,0.4-0.2c0.2,0,0.3,0.1,0.4,0.2C420.6,135.4,420.7,135.5,420.7,135.7z M420.7,138.8c0,0.4,0.1,0.7,0.3,1
		c0.2,0.2,0.5,0.3,0.9,0.3c0.3,0,0.6-0.1,0.8-0.3c0.2-0.2,0.3-0.6,0.3-1c0-0.3,0-0.5-0.1-0.7c-0.1-0.2-0.2-0.4-0.4-0.5
		c-0.2-0.1-0.4-0.2-0.6-0.2c-0.2,0-0.4,0.1-0.6,0.2c-0.2,0.1-0.3,0.3-0.4,0.5C420.8,138.3,420.7,138.5,420.7,138.8z"/>
	<path fill="#FFFFFF" d="M428.1,140.3c-0.3,0.2-0.6,0.3-0.9,0.4c-0.3,0.1-0.6,0.1-0.9,0.1c-0.3,0-0.6-0.1-0.8-0.2
		c-0.2-0.1-0.4-0.2-0.5-0.4c-0.1-0.2-0.2-0.4-0.2-0.6c0-0.3,0.1-0.5,0.3-0.7c0.2-0.2,0.5-0.3,0.9-0.4c0.1,0,0.3-0.1,0.6-0.1
		c0.3-0.1,0.6-0.1,0.8-0.1c0.2,0,0.5-0.1,0.7-0.2c0-0.3-0.1-0.5-0.2-0.6c-0.1-0.1-0.3-0.2-0.7-0.2c-0.3,0-0.5,0-0.7,0.1
		c-0.2,0.1-0.3,0.2-0.4,0.3c-0.1,0.1-0.2,0.2-0.2,0.3c0,0-0.1,0.1-0.3,0.1c-0.1,0-0.3,0-0.4-0.1c-0.1-0.1-0.1-0.2-0.1-0.3
		c0-0.2,0.1-0.4,0.2-0.5c0.2-0.2,0.4-0.3,0.7-0.4c0.3-0.1,0.7-0.2,1.2-0.2c0.5,0,1,0.1,1.3,0.2c0.3,0.1,0.5,0.3,0.6,0.5
		c0.1,0.2,0.2,0.5,0.2,0.9c0,0.2,0,0.5,0,0.6c0,0.2,0,0.4,0,0.6c0,0.2,0,0.4,0.1,0.6c0.1,0.2,0.1,0.3,0.1,0.4c0,0.1-0.1,0.2-0.2,0.3
		c-0.1,0.1-0.2,0.1-0.4,0.1c-0.1,0-0.2-0.1-0.4-0.2C428.4,140.7,428.3,140.5,428.1,140.3z M428,138.8c-0.2,0.1-0.4,0.1-0.8,0.2
		c-0.3,0.1-0.6,0.1-0.7,0.1c-0.1,0-0.3,0.1-0.4,0.2c-0.1,0.1-0.2,0.2-0.2,0.4c0,0.2,0.1,0.3,0.2,0.4c0.1,0.1,0.3,0.2,0.6,0.2
		c0.2,0,0.5,0,0.7-0.1c0.2-0.1,0.4-0.2,0.4-0.3c0.1-0.2,0.2-0.4,0.2-0.8V138.8z"/>
	<path fill="#FF0600" stroke="#0D0D0C" stroke-width="0.25" stroke-miterlimit="10" d="M415.6,100.8c0,0-13,0-37.8-0.5
		c-24.8-0.5-56.6-16.8-56.6-16.8l22.1,22.1c0,0,32.4,9.2,52.4,9.2c19.9,0,19.9,0,19.9,0s0,0,19.9,0c19.9,0,52.8-8.2,52.8-8.2
		l23.1-23c0,0-33.2,16.2-58,16.7S415.6,100.8,415.6,100.8z"/>
	<path fill="none" d="M297.8,92.9C297.8,92.9,297.8,92.9,297.8,92.9c32.6,11.4,71.8,17.2,116.5,17.3l0.8,0l0.3,0c0.1,0,0.2,0,0.3,0
		h0.7c44.6,0,83.8-5.9,116.5-17.3l0,0"/>
	<g opacity="0.99">

			<text transform="matrix(1.1363 0.1972 -0.171 0.9853 339.0303 103.6906)" fill="#CCCCCC" font-family="'LucidaSansUnicode'" font-size="9.3142px">Q</text>

			<text transform="matrix(1.1407 0.1695 -0.1469 0.9891 348.2178 105.2619)" fill="#CCCCCC" font-family="'LucidaSansUnicode'" font-size="9.3142px">o</text>

			<text transform="matrix(1.1446 0.1405 -0.1218 0.9926 355.7324 106.3859)" fill="#CCCCCC" font-family="'LucidaSansUnicode'" font-size="9.3142px">m</text>

			<text transform="matrix(1.1477 0.1129 -9.793454e-02 0.9952 366.6724 107.6954)" fill="#CCCCCC" font-family="'LucidaSansUnicode'" font-size="9.3142px">b</text>

			<text transform="matrix(1.1495 9.242293e-02 -8.014198e-02 0.9968 374.394 108.442)" fill="#CCCCCC" font-family="'LucidaSansUnicode'" font-size="9.3142px">a</text>

			<text transform="matrix(1.1507 7.718512e-02 -6.692894e-02 0.9978 381.3066 108.9826)" fill="#CCCCCC" font-family="'LucidaSansUnicode'" font-size="9.3142px"> </text>

			<text transform="matrix(1.1516 6.210912e-02 -5.385619e-02 0.9985 385.6821 109.2785)" fill="#CCCCCC" font-family="'LucidaSansUnicode'" font-size="9.3142px">-</text>

			<text transform="matrix(1.1523 4.742931e-02 -4.112701e-02 0.9992 392.9106 109.653)" fill="#CCCCCC" font-family="'LucidaSansUnicode'" font-size="9.3142px"> </text>

			<text transform="matrix(1.1528 3.078308e-02 -2.669270e-02 0.9996 397.2876 109.8434)" fill="#CCCCCC" font-family="'LucidaSansUnicode'" font-size="9.3142px">Q</text>

			<text transform="matrix(1.1532 1.118565e-02 -9.699321e-03 1 406.6255 110.0753)" fill="#CCCCCC" font-family="'LucidaSansUnicode'" font-size="9.3142px">o</text>

			<text transform="matrix(1.1532 -8.250588e-03 7.154268e-03 1 414.2334 110.1559)" fill="#CCCCCC" font-family="'LucidaSansUnicode'" font-size="9.3142px">m</text>

			<text transform="matrix(1.1529 -2.933238e-02 2.543475e-02 0.9997 425.2495 110.0563)" fill="#CCCCCC" font-family="'LucidaSansUnicode'" font-size="9.3142px">b</text>

			<text transform="matrix(1.1523 -4.720812e-02 4.093521e-02 0.9992 433.0239 109.8483)" fill="#CCCCCC" font-family="'LucidaSansUnicode'" font-size="9.3142px">a</text>

			<text transform="matrix(1.1516 -6.148535e-02 5.331531e-02 0.9986 439.9565 109.5499)" fill="#CCCCCC" font-family="'LucidaSansUnicode'" font-size="9.3142px"> </text>

			<text transform="matrix(1.1507 -7.653645e-02 6.636646e-02 0.9978 444.3364 109.32)" fill="#CCCCCC" font-family="'LucidaSansUnicode'" font-size="9.3142px">-</text>

			<text transform="matrix(1.1496 -9.216889e-02 7.992169e-02 0.9968 451.5464 108.8239)" fill="#CCCCCC" font-family="'LucidaSansUnicode'" font-size="9.3142px"> </text>

			<text transform="matrix(1.1479 -0.1113 9.651419e-02 0.9953 455.9233 108.485)" fill="#CCCCCC" font-family="'LucidaSansUnicode'" font-size="9.3142px">Q</text>

			<text transform="matrix(1.1452 -0.136 0.1179 0.993 465.2017 107.5665)" fill="#CCCCCC" font-family="'LucidaSansUnicode'" font-size="9.3142px">o</text>

			<text transform="matrix(1.1414 -0.1646 0.1428 0.9898 472.7476 106.6808)" fill="#CCCCCC" font-family="'LucidaSansUnicode'" font-size="9.3142px">m</text>

			<text transform="matrix(1.1366 -0.1953 0.1693 0.9856 483.645 105.0744)" fill="#CCCCCC" font-family="'LucidaSansUnicode'" font-size="9.3142px">b</text>
	</g>
	<g>
		<defs>
			<path id="SVGID_19_" d="M417.7,920c0,0-41.4,1.3-52.2-1.3s-59.8-1.3-101.3,2.7s-89-6.7-89-6.7s6.1-25.3,6.1-49.2
				c0-24,27.6-123.7,33.8-187.6s4.6-146.4,4.6-173c0-26.6-18.4-139.7-23-188.9s-32.2-113.1-36.8-142.4s3.1-53.2,3.1-53.2
				s41.4-22.6,61.4-27.9s61.4-30.6,61.4-30.6c3.1,27.9,36.8,63.9,66.8,79c30,15.1,49.8,32.8,49.8,32.8h15.3h15.3
				c0,0,19.9-17.7,49.8-32.8c30-15.1,63.7-51,66.8-79c0,0,41.4,25.3,61.4,30.6s61.4,27.9,61.4,27.9s7.7,24,3.1,53.2
				s-32.2,93.1-36.8,142.4s-23,162.3-23,188.9c0,26.6-1.5,109.1,4.6,173s33.8,163.7,33.8,187.6c0,24,6.1,49.2,6.1,49.2
				s-47.6,10.6-89,6.7c-41.4-4-90.5-5.3-101.3-2.7C459.2,921.4,417.7,920,417.7,920z"/>
		</defs>
		<clipPath id="SVGID_20_">
			<use xlink:href="#SVGID_19_"  overflow="visible"/>
		</clipPath>
		<path clip-path="url(#SVGID_20_)" fill="none" d="M418,920c0,0-41.4,1.3-52.2-1.3c-10.7-2.7-59.8-1.3-101.3,2.7s-89-6.7-89-6.7
			s6.1-25.3,6.1-49.2c0-24,27.6-123.7,33.8-187.6s4.6-146.4,4.6-173c0-26.6-18.4-139.7-23-188.9s-32.2-113.1-36.8-142.4
			s3.1-53.2,3.1-53.2s41.4-22.6,61.4-27.9S286,61.8,286,61.8c3.1,27.9,36.8,63.9,66.8,79c30,15.1,49.8,32.8,49.8,32.8H418h15.3
			c0,0,19.9-17.7,49.8-32.8c30-15.1,63.7-51,66.8-79c0,0,41.4,25.3,61.4,30.6c19.9,5.3,61.4,27.9,61.4,27.9s7.7,24,3.1,53.2
			s-32.2,93.1-36.8,142.4s-23,162.3-23,188.9c0,26.6-1.5,109.1,4.6,173c6.1,63.9,33.8,163.7,33.8,187.6c0,24,6.1,49.2,6.1,49.2
			s-47.6,10.6-89,6.7s-90.5-5.3-101.3-2.7C459.4,921.4,418,920,418,920z"/>
		<g id="estampa" clip-path="url(#SVGID_20_)">
			<g id="TRIANGULO_5_">
				<line fill="#030323" x1="662.8" y1="1055.5" x2="683.5" y2="1022.8"/>
				<polygon fill="#030323" points="621.8,1055.3 642.5,1022.6 662.8,1055.5 				"/>
				<polygon fill="#030323" points="580.7,1055.2 601.4,1022.5 621.8,1055.3 				"/>
				<polygon fill="#030323" points="539.7,1055 560.4,1022.3 580.7,1055.2 				"/>
				<polygon fill="#030323" points="498.6,1054.8 519.3,1022.2 539.7,1055 				"/>
				<polygon fill="#030323" points="457.6,1054.7 478.3,1022 498.6,1054.8 				"/>
				<polygon fill="#030323" points="416.6,1054.5 437.2,1021.8 457.6,1054.7 				"/>
				<polygon fill="#030323" points="375.5,1054.4 396.2,1021.7 416.6,1054.5 				"/>
				<polygon fill="#030323" points="334.5,1054.2 355.1,1021.5 375.5,1054.4 				"/>
				<polygon fill="#030323" points="293.4,1054 314.1,1021.4 334.5,1054.2 				"/>
				<polygon fill="#030323" points="252.4,1053.9 273,1021.2 293.4,1054 				"/>
				<polygon fill="#030323" points="211.3,1053.7 232,1021 252.4,1053.9 				"/>
				<polygon fill="#030323" points="170.3,1053.6 190.9,1020.9 211.3,1053.7 				"/>
				<polygon fill="#030323" points="129.2,1053.4 149.9,1020.7 170.3,1053.6 				"/>
				<path fill="#030323" d="M129.2,1053.4"/>
				<path opacity="0.5" fill="#030323" d="M683.5,1022.8"/>
				<path fill="#030323" d="M683.5,1022.8"/>
				<polygon fill="#030323" points="683.5,1022.8 662.8,1055.5 642.5,1022.6 				"/>
				<polygon opacity="0.5" fill="#030323" points="642.5,1022.6 663.1,989.9 683.5,1022.8 				"/>
				<polygon opacity="0.7" fill="#030323" points="642.5,1022.6 621.8,1055.3 601.4,1022.5 				"/>
				<polygon fill="#030323" points="601.4,1022.5 622.1,989.8 642.5,1022.6 				"/>
				<polygon opacity="0.7" fill="#030323" points="601.4,1022.5 580.7,1055.1 560.4,1022.3 				"/>
				<polygon fill="#030323" points="560.4,1022.3 581,989.6 601.4,1022.5 				"/>
				<polygon opacity="0.7" fill="#030323" points="560.4,1022.3 539.7,1055 519.3,1022.1 				"/>
				<polygon fill="#030323" points="519.3,1022.1 540,989.5 560.4,1022.3 				"/>
				<polygon opacity="0.7" fill="#030323" points="519.3,1022.1 498.6,1054.8 478.3,1022 				"/>
				<polygon fill="#030323" points="478.3,1022 498.9,989.3 519.3,1022.1 				"/>
				<polygon fill="#030323" points="478.3,1022 457.6,1054.7 437.2,1021.8 				"/>
				<polygon fill="#030323" points="437.2,1021.8 457.9,989.2 478.3,1022 				"/>
				<polygon opacity="0.7" fill="#030323" points="437.2,1021.8 416.6,1054.5 396.2,1021.7 				"/>
				<polygon fill="#030323" points="396.2,1021.7 416.9,989 437.2,1021.8 				"/>
				<polygon opacity="0.5" fill="#030323" points="396.2,1021.7 375.5,1054.3 355.1,1021.5 				"/>
				<polygon opacity="0.7" fill="#030323" points="355.1,1021.5 375.8,988.8 396.2,1021.7 				"/>
				<polygon opacity="0.7" fill="#030323" points="355.1,1021.5 334.5,1054.2 314.1,1021.3 				"/>
				<polygon fill="#030323" points="314.1,1021.3 334.8,988.7 355.1,1021.5 				"/>
				<polygon fill="#030323" points="314.1,1021.3 293.4,1054 273,1021.2 				"/>
				<polygon opacity="0.5" fill="#030323" points="273,1021.2 293.7,988.5 314.1,1021.3 				"/>
				<polygon opacity="0.7" fill="#030323" points="273,1021.2 252.4,1053.9 232,1021 				"/>
				<polygon opacity="0.5" fill="#030323" points="232,1021 252.7,988.4 273,1021.2 				"/>
				<polygon opacity="0.7" fill="#030323" points="232,1021 211.3,1053.7 190.9,1020.9 				"/>
				<polygon fill="#030323" points="190.9,1020.9 211.6,988.2 232,1021 				"/>
				<polygon fill="#030323" points="190.9,1020.9 170.3,1053.5 149.9,1020.7 				"/>
				<line fill="#030323" x1="149.9" y1="1020.7" x2="129.2" y2="1053.4"/>
				<line fill="#030323" x1="129.5" y1="987.9" x2="149.9" y2="1020.7"/>
				<line opacity="0.7" fill="#030323" x1="683.5" y1="1022.8" x2="663.1" y2="989.9"/>
				<line fill="#030323" x1="663.1" y1="989.9" x2="683.8" y2="957.3"/>
				<polygon opacity="0.2" fill="#030323" points="663.1,989.9 642.5,1022.6 622.1,989.8 				"/>
				<polygon fill="#030323" points="622.1,989.8 642.8,957.1 663.1,989.9 				"/>
				<polygon opacity="0.5" fill="#030323" points="622.1,989.8 601.4,1022.5 581,989.6 				"/>
				<polygon fill="#030323" points="581,989.6 601.7,957 622.1,989.8 				"/>
				<polygon opacity="0.5" fill="#030323" points="581,989.6 560.4,1022.3 540,989.5 				"/>
				<polygon fill="#030323" points="540,989.5 560.7,956.8 581,989.6 				"/>
				<polygon opacity="0.7" fill="#030323" points="540,989.5 519.3,1022.1 499,989.3 				"/>
				<polygon fill="#030323" points="498.9,989.3 519.6,956.6 540,989.5 				"/>
				<polygon fill="#030323" points="498.9,989.3 478.3,1022 457.9,989.2 				"/>
				<polygon fill="#030323" points="457.9,989.2 478.6,956.5 498.9,989.3 				"/>
				<polygon opacity="0.7" fill="#030323" points="457.9,989.2 437.2,1021.8 416.9,989 				"/>
				<polygon fill="#030323" points="416.9,989 437.5,956.3 457.9,989.2 				"/>
				<polygon fill="#030323" points="416.9,989 396.2,1021.7 375.8,988.8 				"/>
				<polygon opacity="0.7" fill="#030323" points="375.8,988.8 396.5,956.2 416.9,989 				"/>
				<polygon opacity="0.5" fill="#030323" points="375.8,988.8 355.1,1021.5 334.8,988.7 				"/>
				<polygon opacity="0.7" fill="#030323" points="334.8,988.7 355.4,956 375.8,988.8 				"/>
				<polygon opacity="0.7" fill="#030323" points="334.8,988.7 314.1,1021.3 293.7,988.5 				"/>
				<polygon fill="#030323" points="293.7,988.5 314.4,955.8 334.8,988.7 				"/>
				<polygon fill="#030323" points="293.7,988.5 273,1021.2 252.7,988.4 				"/>
				<polygon opacity="0.5" fill="#030323" points="252.7,988.4 273.3,955.7 293.7,988.5 				"/>
				<polygon opacity="0.7" fill="#030323" points="252.7,988.4 232,1021 211.6,988.2 				"/>
				<polygon fill="#030323" points="211.6,988.2 232.3,955.5 252.7,988.4 				"/>
				<polygon opacity="0.5" fill="#030323" points="211.6,988.2 190.9,1020.9 170.6,988 				"/>
				<polygon fill="#030323" points="170.6,988 191.2,955.4 211.6,988.2 				"/>
				<polygon opacity="0.7" fill="#030323" points="170.6,988 149.9,1020.7 129.5,987.9 				"/>
				<polygon fill="#030323" points="129.5,987.9 150.2,955.2 170.6,988 				"/>
				<path opacity="0.5" fill="#030323" d="M129.5,987.9"/>
				<path opacity="0.7" fill="#030323" d="M129.5,987.9"/>
				<path opacity="0.2" fill="#030323" d="M683.8,957.3"/>
				<path fill="#030323" d="M683.8,957.3"/>
				<polygon opacity="0.5" fill="#030323" points="683.8,957.3 663.1,990 642.8,957.1 				"/>
				<polygon fill="#030323" points="642.8,957.1 663.4,924.5 683.8,957.3 				"/>
				<polygon opacity="0.7" fill="#030323" points="642.8,957.1 622.1,989.8 601.7,957 				"/>
				<polygon fill="#030323" points="601.7,957 622.4,924.3 642.8,957.1 				"/>
				<polygon opacity="0.7" fill="#030323" points="601.7,957 581,989.6 560.7,956.8 				"/>
				<polygon opacity="0.5" fill="#030323" points="560.7,956.8 581.3,924.1 601.7,957 				"/>
				<polygon opacity="0.7" fill="#030323" points="560.7,956.8 540,989.5 519.6,956.7 				"/>
				<polygon opacity="0.5" fill="#030323" points="519.6,956.7 540.3,924 560.7,956.8 				"/>
				<polygon opacity="0.7" fill="#030323" points="519.6,956.7 498.9,989.3 478.6,956.5 				"/>
				<polygon fill="#030323" points="478.6,956.5 499.2,923.8 519.6,956.7 				"/>
				<polygon fill="#030323" points="478.6,956.5 457.9,989.2 437.5,956.3 				"/>
				<polygon fill="#030323" points="437.5,956.3 458.2,923.7 478.6,956.5 				"/>
				<polygon opacity="0.5" fill="#030323" points="437.5,956.3 416.9,989 396.5,956.2 				"/>
				<polygon fill="#030323" points="396.5,956.2 417.2,923.5 437.5,956.3 				"/>
				<polygon fill="#030323" points="396.5,956.2 375.8,988.8 355.4,956 				"/>
				<polygon fill="#030323" points="355.4,956 376.1,923.3 396.5,956.2 				"/>
				<polygon fill="#030323" points="355.4,956 334.8,988.7 314.4,955.9 				"/>
				<polygon fill="#030323" points="314.4,955.9 335.1,923.2 355.4,956 				"/>
				<polygon fill="#030323" points="314.4,955.9 293.7,988.5 273.3,955.7 				"/>
				<polygon fill="#030323" points="273.3,955.7 294,923 314.4,955.9 				"/>
				<polygon opacity="0.7" fill="#030323" points="273.3,955.7 252.7,988.4 232.3,955.5 				"/>
				<polygon opacity="0.7" fill="#030323" points="232.3,955.5 253,922.9 273.3,955.7 				"/>
				<polygon opacity="0.5" fill="#030323" points="232.3,955.5 211.6,988.2 191.2,955.4 				"/>
				<polygon opacity="0.7" fill="#030323" points="191.2,955.4 170.6,988.1 150.2,955.2 				"/>
				<polygon fill="#030323" points="150.2,955.2 170.9,922.5 191.2,955.4 				"/>
				<line opacity="0.5" fill="#030323" x1="150.2" y1="955.2" x2="129.5" y2="987.9"/>
				<line opacity="0.7" fill="#030323" x1="683.8" y1="957.3" x2="663.4" y2="924.5"/>
				<line fill="#030323" x1="663.4" y1="924.5" x2="684.1" y2="891.8"/>
				<polygon opacity="0.7" fill="#030323" points="663.4,924.5 642.8,957.1 622.4,924.3 				"/>
				<polygon fill="#030323" points="622.4,924.3 643.1,891.6 663.4,924.5 				"/>
				<polygon opacity="0.7" fill="#030323" points="622.4,924.3 601.7,957 581.3,924.1 				"/>
				<polygon fill="#030323" points="581.3,924.1 602,891.5 622.4,924.3 				"/>
				<polygon fill="#030323" points="581.3,924.1 560.7,956.8 540.3,924 				"/>
				<polygon fill="#030323" points="540.3,924 561,891.3 581.3,924.1 				"/>
				<polygon opacity="0.7" fill="#030323" points="540.3,924 519.6,956.7 499.2,923.8 				"/>
				<polygon opacity="0.5" fill="#030323" points="499.2,923.8 519.9,891.1 540.3,924 				"/>
				<polygon opacity="0.5" fill="#030323" points="499.2,923.8 478.6,956.5 458.2,923.7 				"/>
				<polygon fill="#030323" points="458.2,923.7 478.9,891 499.2,923.8 				"/>
				<polygon opacity="0.7" fill="#030323" points="458.2,923.7 437.5,956.3 417.2,923.5 				"/>
				<polygon fill="#030323" points="417.2,923.5 437.8,890.8 458.2,923.7 				"/>
				<polygon fill="#030323" points="417.2,923.5 396.5,956.2 376.1,923.3 				"/>
				<polygon opacity="0.7" fill="#030323" points="376.1,923.3 396.8,890.7 417.2,923.5 				"/>
				<polygon opacity="0.7" fill="#030323" points="376.1,923.3 355.4,956 335.1,923.2 				"/>
				<polygon fill="#030323" points="335.1,923.2 355.7,890.5 376.1,923.3 				"/>
				<polygon opacity="0.7" fill="#030323" points="335.1,923.2 314.4,955.9 294,923 				"/>
				<polygon fill="#030323" points="294,923 314.7,890.3 335.1,923.2 				"/>
				<polygon fill="#030323" points="253,922.9 273.6,890.2 294,923 				"/>
				<polygon fill="#030323" points="253,922.9 232.3,955.5 211.9,922.7 				"/>
				<polygon opacity="0.5" fill="#030323" points="211.9,922.7 232.6,890 253,922.9 				"/>
				<polygon opacity="0.7" fill="#030323" points="211.9,922.7 191.2,955.4 170.9,922.5 				"/>
				<polygon opacity="0.2" fill="#030323" points="170.9,922.5 191.5,889.9 211.9,922.7 				"/>
				<polygon opacity="0.5" fill="#030323" points="170.9,922.5 150.2,955.2 129.8,922.4 				"/>
				<path fill="#030323" d="M129.8,922.4"/>
				<path opacity="0.7" fill="#030323" d="M684.1,891.8"/>
				<polygon opacity="0.5" fill="#030323" points="643.1,891.6 663.7,859 684.1,891.8 				"/>
				<polygon opacity="0.7" fill="#030323" points="643.1,891.6 622.4,924.3 602,891.5 				"/>
				<polygon opacity="0.2" fill="#030323" points="602,891.5 622.7,858.8 643.1,891.6 				"/>
				<polygon opacity="0.5" fill="#030323" points="602,891.5 581.3,924.2 561,891.3 				"/>
				<polygon opacity="0.7" fill="#030323" points="561,891.3 581.6,858.6 602,891.5 				"/>
				<polygon opacity="0.7" fill="#030323" points="561,891.3 540.3,924 519.9,891.2 				"/>
				<polygon opacity="0.7" fill="#030323" points="519.9,891.2 540.6,858.5 561,891.3 				"/>
				<polygon opacity="0.7" fill="#030323" points="519.9,891.2 499.2,923.8 478.9,891 				"/>
				<polygon opacity="0.7" fill="#030323" points="478.9,891 499.5,858.3 519.9,891.2 				"/>
				<polygon opacity="0.5" fill="#030323" points="478.9,891 458.2,923.7 437.8,890.8 				"/>
				<polygon opacity="0.7" fill="#030323" points="437.8,890.8 458.5,858.2 478.9,891 				"/>
				<polygon opacity="0.5" fill="#030323" points="437.8,890.8 417.2,923.5 396.8,890.7 				"/>
				<polygon opacity="0.2" fill="#030323" points="396.8,890.7 417.5,858 437.8,890.8 				"/>
				<polygon fill="#030323" points="396.8,890.7 376.1,923.4 355.7,890.5 				"/>
				<polygon opacity="0.7" fill="#030323" points="355.7,890.5 376.4,857.8 396.8,890.7 				"/>
				<polygon fill="#030323" points="355.7,890.5 335.1,923.2 314.7,890.4 				"/>
				<polygon opacity="0.7" fill="#030323" points="314.7,890.4 335.4,857.7 355.7,890.5 				"/>
				<polygon opacity="0.5" fill="#030323" points="314.7,890.4 294,923 273.6,890.2 				"/>
				<polygon fill="#030323" points="273.6,890.2 253,922.9 232.6,890 				"/>
				<polygon opacity="0.7" fill="#030323" points="232.6,890 253.3,857.4 273.6,890.2 				"/>
				<polygon fill="#030323" points="232.6,890 211.9,922.7 191.5,889.9 				"/>
				<polygon fill="#030323" points="191.5,889.9 170.9,922.6 150.5,889.7 				"/>
				<polygon opacity="0.2" fill="#030323" points="150.5,889.7 171.2,857.1 191.5,889.9 				"/>
				<line fill="#030323" x1="150.5" y1="889.7" x2="129.8" y2="922.4"/>
				<line opacity="0.7" fill="#030323" x1="130.1" y1="856.9" x2="150.5" y2="889.7"/>
				<line opacity="0.7" fill="#030323" x1="684.1" y1="891.8" x2="663.7" y2="859"/>
				<line opacity="0.5" fill="#030323" x1="663.7" y1="859" x2="684.4" y2="826.3"/>
				<polygon opacity="0.7" fill="#030323" points="663.7,859 643.1,891.6 622.7,858.8 				"/>
				<polygon opacity="0.5" fill="#030323" points="622.7,858.8 602,891.5 581.6,858.6 				"/>
				<polygon opacity="0.7" fill="#030323" points="581.6,858.6 602.3,826 622.7,858.8 				"/>
				<polygon opacity="0.5" fill="#030323" points="581.6,858.6 561,891.3 540.6,858.5 				"/>
				<polygon opacity="0.5" fill="#030323" points="540.6,858.5 561.3,825.8 581.6,858.6 				"/>
				<polygon opacity="0.2" fill="#030323" points="540.6,858.5 519.9,891.2 499.5,858.3 				"/>
				<polygon opacity="0.7" fill="#030323" points="499.5,858.3 520.2,825.7 540.6,858.5 				"/>
				<polygon fill="#030323" points="499.5,858.3 478.9,891 458.5,858.2 				"/>
				<polygon opacity="0.7" fill="#030323" points="458.5,858.2 479.2,825.5 499.5,858.3 				"/>
				<polygon opacity="0.7" fill="#030323" points="458.5,858.2 437.8,890.8 417.5,858 				"/>
				<polygon opacity="0.7" fill="#030323" points="417.5,858 438.1,825.3 458.5,858.2 				"/>
				<polygon opacity="0.7" fill="#030323" points="417.5,858 396.8,890.7 376.4,857.8 				"/>
				<polygon opacity="0.2" fill="#030323" points="376.4,857.8 397.1,825.2 417.5,858 				"/>
				<polygon opacity="0.5" fill="#030323" points="376.4,857.8 355.7,890.5 335.4,857.7 				"/>
				<polygon opacity="0.7" fill="#030323" points="335.4,857.7 314.7,890.4 294.3,857.5 				"/>
				<polygon opacity="0.5" fill="#030323" points="294.3,857.5 315,824.9 335.4,857.7 				"/>
				<polygon opacity="0.7" fill="#030323" points="253.3,857.4 273.9,824.7 294.3,857.5 				"/>
				<polygon opacity="0.5" fill="#030323" points="253.3,857.4 232.6,890 212.2,857.2 				"/>
				<polygon opacity="0.7" fill="#030323" points="212.2,857.2 232.9,824.5 253.3,857.4 				"/>
				<polygon opacity="0.7" fill="#030323" points="212.2,857.2 191.5,889.9 171.2,857.1 				"/>
				<polygon opacity="0.5" fill="#030323" points="171.2,857.1 191.8,824.4 212.2,857.2 				"/>
				<polygon opacity="0.7" fill="#030323" points="130.1,856.9 150.8,824.2 171.2,857.1 				"/>
				<polygon opacity="0.2" fill="#030323" points="684.4,826.3 663.7,858.9 643.4,826.1 				"/>
				<polygon opacity="0.7" fill="#030323" points="643.4,826.1 622.7,858.8 602.3,826 				"/>
				<polygon opacity="0.2" fill="#030323" points="602.3,826 581.6,858.6 561.3,825.8 				"/>
				<polygon opacity="0.7" fill="#030323" points="561.3,825.8 581.9,793.1 602.3,826 				"/>
				<polygon opacity="0.5" fill="#030323" points="520.2,825.6 540.9,793 561.3,825.8 				"/>
				<polygon opacity="0.2" fill="#030323" points="520.2,825.6 499.5,858.3 479.2,825.5 				"/>
				<polygon opacity="0.5" fill="#030323" points="479.2,825.5 499.8,792.8 520.2,825.6 				"/>
				<polygon opacity="0.2" fill="#030323" points="479.2,825.5 458.5,858.2 438.1,825.3 				"/>
				<polygon opacity="0.5" fill="#030323" points="438.1,825.3 458.8,792.6 479.2,825.5 				"/>
				<polygon opacity="0.5" fill="#030323" points="438.1,825.3 417.5,858 397.1,825.2 				"/>
				<polygon opacity="0.2" fill="#030323" points="397.1,825.2 417.8,792.5 438.1,825.3 				"/>
				<polygon opacity="0.7" fill="#030323" points="397.1,825.2 376.4,857.8 356,825 				"/>
				<polygon opacity="0.2" fill="#030323" points="356,825 335.4,857.7 315,824.8 				"/>
				<polygon opacity="0.7" fill="#030323" points="315,824.8 335.7,792.2 356,825 				"/>
				<polygon opacity="0.5" fill="#030323" points="273.9,824.7 294.6,792 315,824.8 				"/>
				<polygon opacity="0.2" fill="#030323" points="273.9,824.7 253.3,857.4 232.9,824.5 				"/>
				<line opacity="0.7" fill="#030323" x1="684.4" y1="826.3" x2="664" y2="793.4"/>
				<polygon opacity="0.7" fill="#030323" points="664,793.4 643.4,826.1 623,793.3 				"/>
				<polygon opacity="0.5" fill="#030323" points="623,793.3 602.3,826 581.9,793.1 				"/>
				<polygon opacity="0.2" fill="#030323" points="581.9,793.1 561.3,825.8 540.9,793 				"/>
				<polygon opacity="0.2" fill="#030323" points="499.8,792.8 520.5,760.1 540.9,793 				"/>
				<polygon opacity="0.2" fill="#030323" points="499.8,792.8 479.2,825.5 458.8,792.6 				"/>
				<polygon opacity="0.2" fill="#030323" points="458.8,792.6 438.1,825.3 417.8,792.5 				"/>
				<polygon opacity="0.5" fill="#030323" points="417.8,792.5 438.4,759.8 458.8,792.6 				"/>
				<polygon opacity="0.5" fill="#030323" points="417.8,792.5 397.1,825.2 376.7,792.3 				"/>
				<polygon opacity="0.7" fill="#030323" points="376.7,792.3 397.4,759.7 417.8,792.5 				"/>
				<polygon opacity="0.2" fill="#030323" points="376.7,792.3 356,825 335.7,792.2 				"/>
				<polygon opacity="0.7" fill="#030323" points="335.7,792.2 356.3,759.5 376.7,792.3 				"/>
				<polygon opacity="0.5" fill="#030323" points="294.6,792 315.3,759.3 335.7,792.2 				"/>
				<polygon opacity="0.2" fill="#030323" points="253.6,791.8 274.2,759.2 294.6,792 				"/>
				<polygon opacity="0.5" fill="#030323" points="253.6,791.8 232.9,824.5 212.5,791.7 				"/>
				<polygon opacity="0.7" fill="#030323" points="602.6,760.4 623.3,727.7 643.7,760.6 				"/>
				<polygon opacity="0.5" fill="#030323" points="602.6,760.4 581.9,793.1 561.6,760.3 				"/>
				<polygon opacity="0.5" fill="#030323" points="561.6,760.3 540.9,792.9 520.5,760.1 				"/>
				<polygon opacity="0.2" fill="#030323" points="520.5,760.1 541.2,727.4 561.6,760.3 				"/>
				<polygon opacity="0.5" fill="#030323" points="520.5,760.1 499.8,792.8 479.5,759.9 				"/>
				<polygon opacity="0.2" fill="#030323" points="479.5,759.9 458.8,792.6 438.4,759.8 				"/>
				<polygon opacity="0.5" fill="#030323" points="397.4,759.6 418.1,727 438.4,759.8 				"/>
				<polygon opacity="0.5" fill="#030323" points="397.4,759.6 376.7,792.3 356.3,759.5 				"/>
				<polygon opacity="0.5" fill="#030323" points="356.3,759.5 377,726.8 397.4,759.6 				"/>
				<polygon opacity="0.5" fill="#030323" points="500.1,727.3 520.8,694.6 541.2,727.4 				"/>
				<polygon opacity="0.5" fill="#030323" points="500.1,727.3 479.5,759.9 459.1,727.1 				"/>
				<polygon opacity="0.2" fill="#030323" points="459.1,727.1 479.8,694.4 500.1,727.3 				"/>
				<polygon opacity="0.2" fill="#030323" points="459.1,727.1 438.4,759.8 418.1,727 				"/>
				<polygon opacity="0.5" fill="#030323" points="377,726.8 397.7,694.1 418.1,727 				"/>
				<polygon opacity="0.2" fill="#030323" points="294.9,726.5 315.6,693.8 336,726.6 				"/>
			</g>
			<g id="TRIANGULO_3_">
				<line fill="#030323" x1="142.7" y1="-24" x2="121.9" y2="8.6"/>
				<polygon fill="#030323" points="183.8,-23.8 163,8.9 142.7,-24 				"/>
				<polygon fill="#030323" points="224.8,-23.5 204,9.1 183.8,-23.8 				"/>
				<polygon fill="#030323" points="265.9,-23.2 245.1,9.4 224.8,-23.5 				"/>
				<polygon fill="#030323" points="306.9,-22.9 286.1,9.7 265.9,-23.2 				"/>
				<polygon fill="#030323" points="348,-22.6 327.1,10 306.9,-22.9 				"/>
				<polygon fill="#030323" points="389,-22.3 368.2,10.3 348,-22.6 				"/>
				<polygon fill="#030323" points="430.1,-22 409.2,10.6 389,-22.3 				"/>
				<polygon fill="#030323" points="471.1,-21.7 450.3,10.9 430.1,-22 				"/>
				<polygon fill="#030323" points="512.1,-21.4 491.3,11.2 471.1,-21.7 				"/>
				<polygon fill="#030323" points="553.2,-21.1 532.4,11.5 512.1,-21.4 				"/>
				<polygon fill="#030323" points="594.2,-20.8 573.4,11.8 553.2,-21.1 				"/>
				<polygon fill="#030323" points="635.3,-20.5 614.5,12.1 594.2,-20.8 				"/>
				<polygon fill="#030323" points="676.3,-20.2 655.5,12.4 635.3,-20.5 				"/>
				<path fill="#030323" d="M676.3-20.2"/>
				<path opacity="0.5" fill="#030323" d="M121.9,8.6"/>
				<path fill="#030323" d="M121.9,8.6"/>
				<polygon fill="#030323" points="121.9,8.6 142.7,-24 163,8.9 				"/>
				<polygon opacity="0.5" fill="#030323" points="163,8.9 142.1,41.5 121.9,8.6 				"/>
				<polygon opacity="0.7" fill="#030323" points="163,8.9 183.8,-23.7 204,9.2 				"/>
				<polygon fill="#030323" points="204,9.2 183.2,41.8 163,8.9 				"/>
				<polygon opacity="0.7" fill="#030323" points="204,9.2 224.8,-23.4 245.1,9.5 				"/>
				<polygon fill="#030323" points="245.1,9.5 224.2,42.1 204,9.2 				"/>
				<polygon opacity="0.7" fill="#030323" points="245.1,9.5 265.9,-23.1 286.1,9.8 				"/>
				<polygon fill="#030323" points="286.1,9.8 265.3,42.4 245.1,9.5 				"/>
				<polygon opacity="0.7" fill="#030323" points="286.1,9.8 306.9,-22.9 327.1,10 				"/>
				<polygon fill="#030323" points="327.1,10 306.3,42.7 286.1,9.8 				"/>
				<polygon fill="#030323" points="327.1,10 348,-22.6 368.2,10.3 				"/>
				<polygon fill="#030323" points="368.2,10.3 347.4,42.9 327.1,10 				"/>
				<polygon opacity="0.7" fill="#030323" points="368.2,10.3 389,-22.3 409.2,10.6 				"/>
				<polygon fill="#030323" points="409.2,10.6 388.4,43.2 368.2,10.3 				"/>
				<polygon opacity="0.5" fill="#030323" points="409.2,10.6 430.1,-22 450.3,10.9 				"/>
				<polygon opacity="0.7" fill="#030323" points="450.3,10.9 429.5,43.5 409.2,10.6 				"/>
				<polygon opacity="0.7" fill="#030323" points="450.3,10.9 471.1,-21.7 491.3,11.2 				"/>
				<polygon fill="#030323" points="491.3,11.2 470.5,43.8 450.3,10.9 				"/>
				<polygon fill="#030323" points="491.3,11.2 512.1,-21.4 532.4,11.5 				"/>
				<polygon opacity="0.5" fill="#030323" points="532.4,11.5 511.6,44.1 491.3,11.2 				"/>
				<polygon opacity="0.7" fill="#030323" points="532.4,11.5 553.2,-21.1 573.4,11.8 				"/>
				<polygon opacity="0.5" fill="#030323" points="573.4,11.8 552.6,44.4 532.4,11.5 				"/>
				<polygon opacity="0.7" fill="#030323" points="573.4,11.8 594.2,-20.8 614.5,12.1 				"/>
				<polygon fill="#030323" points="614.5,12.1 593.7,44.7 573.4,11.8 				"/>
				<polygon fill="#030323" points="614.5,12.1 635.3,-20.5 655.5,12.4 				"/>
				<line fill="#030323" x1="655.5" y1="12.4" x2="676.3" y2="-20.2"/>
				<line fill="#030323" x1="675.7" y1="45.3" x2="655.5" y2="12.4"/>
				<line opacity="0.7" fill="#030323" x1="121.9" y1="8.6" x2="142.1" y2="41.5"/>
				<line fill="#030323" x1="142.1" y1="41.5" x2="121.3" y2="74.1"/>
				<polygon opacity="0.2" fill="#030323" points="142.1,41.5 163,8.9 183.2,41.8 				"/>
				<polygon fill="#030323" points="183.2,41.8 162.4,74.4 142.1,41.5 				"/>
				<polygon opacity="0.5" fill="#030323" points="183.2,41.8 204,9.2 224.2,42.1 				"/>
				<polygon fill="#030323" points="224.2,42.1 203.4,74.7 183.2,41.8 				"/>
				<polygon opacity="0.5" fill="#030323" points="224.2,42.1 245.1,9.5 265.3,42.4 				"/>
				<polygon fill="#030323" points="265.3,42.4 244.5,75 224.2,42.1 				"/>
				<polygon opacity="0.7" fill="#030323" points="265.3,42.4 286.1,9.8 306.3,42.7 				"/>
				<polygon fill="#030323" points="306.3,42.7 285.5,75.3 265.3,42.4 				"/>
				<polygon fill="#030323" points="306.3,42.7 327.1,10 347.4,42.9 				"/>
				<polygon fill="#030323" points="347.4,42.9 326.6,75.6 306.3,42.7 				"/>
				<polygon opacity="0.7" fill="#030323" points="347.4,42.9 368.2,10.3 388.4,43.2 				"/>
				<polygon fill="#030323" points="388.4,43.2 367.6,75.8 347.4,42.9 				"/>
				<polygon fill="#030323" points="388.4,43.2 409.2,10.6 429.5,43.5 				"/>
				<polygon opacity="0.7" fill="#030323" points="429.5,43.5 408.7,76.1 388.4,43.2 				"/>
				<polygon opacity="0.5" fill="#030323" points="429.5,43.5 450.3,10.9 470.5,43.8 				"/>
				<polygon opacity="0.7" fill="#030323" points="470.5,43.8 449.7,76.4 429.5,43.5 				"/>
				<polygon opacity="0.7" fill="#030323" points="470.5,43.8 491.3,11.2 511.6,44.1 				"/>
				<polygon fill="#030323" points="511.6,44.1 490.7,76.7 470.5,43.8 				"/>
				<polygon fill="#030323" points="511.6,44.1 532.4,11.5 552.6,44.4 				"/>
				<polygon opacity="0.5" fill="#030323" points="552.6,44.4 531.8,77 511.6,44.1 				"/>
				<polygon opacity="0.7" fill="#030323" points="552.6,44.4 573.4,11.8 593.7,44.7 				"/>
				<polygon fill="#030323" points="593.7,44.7 572.8,77.3 552.6,44.4 				"/>
				<polygon opacity="0.5" fill="#030323" points="593.7,44.7 614.5,12.1 634.7,45 				"/>
				<polygon fill="#030323" points="634.7,45 613.9,77.6 593.7,44.7 				"/>
				<polygon opacity="0.7" fill="#030323" points="634.7,45 655.5,12.4 675.7,45.3 				"/>
				<polygon fill="#030323" points="675.7,45.3 654.9,77.9 634.7,45 				"/>
				<path opacity="0.5" fill="#030323" d="M675.7,45.3"/>
				<path opacity="0.7" fill="#030323" d="M675.7,45.3"/>
				<path opacity="0.2" fill="#030323" d="M121.3,74.1"/>
				<path fill="#030323" d="M121.3,74.1"/>
				<polygon opacity="0.5" fill="#030323" points="121.3,74.1 142.1,41.5 162.4,74.4 				"/>
				<polygon fill="#030323" points="162.4,74.4 141.6,107 121.3,74.1 				"/>
				<polygon opacity="0.7" fill="#030323" points="162.4,74.4 183.2,41.8 203.4,74.6 				"/>
				<polygon fill="#030323" points="203.4,74.6 182.6,107.3 162.4,74.4 				"/>
				<polygon opacity="0.7" fill="#030323" points="203.4,74.6 224.2,42 244.5,74.9 				"/>
				<polygon opacity="0.5" fill="#030323" points="244.5,74.9 223.6,107.6 203.4,74.6 				"/>
				<polygon opacity="0.7" fill="#030323" points="244.5,74.9 265.3,42.3 285.5,75.2 				"/>
				<polygon opacity="0.5" fill="#030323" points="285.5,75.2 264.7,107.8 244.5,74.9 				"/>
				<polygon opacity="0.7" fill="#030323" points="285.5,75.2 306.3,42.6 326.6,75.5 				"/>
				<polygon fill="#030323" points="326.6,75.5 305.7,108.1 285.5,75.2 				"/>
				<polygon fill="#030323" points="326.6,75.5 347.4,42.9 367.6,75.8 				"/>
				<polygon fill="#030323" points="367.6,75.8 346.8,108.4 326.6,75.5 				"/>
				<polygon opacity="0.5" fill="#030323" points="367.6,75.8 388.4,43.2 408.7,76.1 				"/>
				<polygon fill="#030323" points="408.7,76.1 387.8,108.7 367.6,75.8 				"/>
				<polygon fill="#030323" points="408.7,76.1 429.5,43.5 449.7,76.4 				"/>
				<polygon fill="#030323" points="449.7,76.4 428.9,109 408.7,76.1 				"/>
				<polygon fill="#030323" points="449.7,76.4 470.5,43.8 490.7,76.7 				"/>
				<polygon fill="#030323" points="490.7,76.7 469.9,109.3 449.7,76.4 				"/>
				<polygon fill="#030323" points="490.7,76.7 511.6,44.1 531.8,77 				"/>
				<polygon fill="#030323" points="531.8,77 511,109.6 490.7,76.7 				"/>
				<polygon opacity="0.7" fill="#030323" points="531.8,77 552.6,44.4 572.8,77.3 				"/>
				<polygon opacity="0.7" fill="#030323" points="572.8,77.3 552,109.9 531.8,77 				"/>
				<polygon opacity="0.5" fill="#030323" points="572.8,77.3 593.7,44.7 613.9,77.6 				"/>
				<polygon opacity="0.7" fill="#030323" points="613.9,77.6 634.7,45 654.9,77.9 				"/>
				<polygon fill="#030323" points="654.9,77.9 634.1,110.5 613.9,77.6 				"/>
				<line opacity="0.5" fill="#030323" x1="654.9" y1="77.9" x2="675.7" y2="45.3"/>
				<line opacity="0.7" fill="#030323" x1="121.3" y1="74.1" x2="141.6" y2="107"/>
				<line fill="#030323" x1="141.6" y1="107" x2="120.7" y2="139.6"/>
				<polygon opacity="0.7" fill="#030323" points="141.6,107 162.4,74.4 182.6,107.3 				"/>
				<polygon fill="#030323" points="182.6,107.3 161.8,139.9 141.6,107 				"/>
				<polygon opacity="0.7" fill="#030323" points="182.6,107.3 203.4,74.6 223.6,107.6 				"/>
				<polygon fill="#030323" points="223.6,107.6 202.8,140.2 182.6,107.3 				"/>
				<polygon fill="#030323" points="223.6,107.6 244.5,74.9 264.7,107.8 				"/>
				<polygon fill="#030323" points="264.7,107.8 243.9,140.4 223.6,107.6 				"/>
				<polygon opacity="0.7" fill="#030323" points="264.7,107.8 285.5,75.2 305.7,108.1 				"/>
				<polygon opacity="0.5" fill="#030323" points="305.7,108.1 284.9,140.7 264.7,107.8 				"/>
				<polygon opacity="0.5" fill="#030323" points="305.7,108.1 326.6,75.5 346.8,108.4 				"/>
				<polygon fill="#030323" points="346.8,108.4 326,141 305.7,108.1 				"/>
				<polygon opacity="0.7" fill="#030323" points="346.8,108.4 367.6,75.8 387.8,108.7 				"/>
				<polygon fill="#030323" points="387.8,108.7 367,141.3 346.8,108.4 				"/>
				<polygon fill="#030323" points="387.8,108.7 408.7,76.1 428.9,109 				"/>
				<polygon opacity="0.7" fill="#030323" points="428.9,109 408.1,141.6 387.8,108.7 				"/>
				<polygon opacity="0.7" fill="#030323" points="428.9,109 449.7,76.4 469.9,109.3 				"/>
				<polygon fill="#030323" points="469.9,109.3 449.1,141.9 428.9,109 				"/>
				<polygon opacity="0.7" fill="#030323" points="469.9,109.3 490.7,76.7 511,109.6 				"/>
				<polygon fill="#030323" points="511,109.6 490.2,142.2 469.9,109.3 				"/>
				<polygon fill="#030323" points="552,109.9 531.2,142.5 511,109.6 				"/>
				<polygon fill="#030323" points="552,109.9 572.8,77.3 593.1,110.2 				"/>
				<polygon opacity="0.5" fill="#030323" points="593.1,110.2 572.3,142.8 552,109.9 				"/>
				<polygon opacity="0.7" fill="#030323" points="593.1,110.2 613.9,77.6 634.1,110.5 				"/>
				<polygon opacity="0.2" fill="#030323" points="634.1,110.5 613.3,143.1 593.1,110.2 				"/>
				<polygon opacity="0.5" fill="#030323" points="634.1,110.5 654.9,77.9 675.2,110.8 				"/>
				<path fill="#030323" d="M675.2,110.8"/>
				<path opacity="0.7" fill="#030323" d="M120.7,139.6"/>
				<polygon opacity="0.5" fill="#030323" points="161.8,139.8 141,172.5 120.7,139.6 				"/>
				<polygon opacity="0.7" fill="#030323" points="161.8,139.8 182.6,107.2 202.8,140.1 				"/>
				<polygon opacity="0.2" fill="#030323" points="202.8,140.1 182,172.7 161.8,139.8 				"/>
				<polygon opacity="0.5" fill="#030323" points="202.8,140.1 223.6,107.5 243.9,140.4 				"/>
				<polygon opacity="0.7" fill="#030323" points="243.9,140.4 223.1,173 202.8,140.1 				"/>
				<polygon opacity="0.7" fill="#030323" points="243.9,140.4 264.7,107.8 284.9,140.7 				"/>
				<polygon opacity="0.7" fill="#030323" points="284.9,140.7 264.1,173.3 243.9,140.4 				"/>
				<polygon opacity="0.7" fill="#030323" points="284.9,140.7 305.7,108.1 326,141 				"/>
				<polygon opacity="0.7" fill="#030323" points="326,141 305.2,173.6 284.9,140.7 				"/>
				<polygon opacity="0.5" fill="#030323" points="326,141 346.8,108.4 367,141.3 				"/>
				<polygon opacity="0.7" fill="#030323" points="367,141.3 346.2,173.9 326,141 				"/>
				<polygon opacity="0.5" fill="#030323" points="367,141.3 387.8,108.7 408.1,141.6 				"/>
				<polygon opacity="0.2" fill="#030323" points="408.1,141.6 387.2,174.2 367,141.3 				"/>
				<polygon fill="#030323" points="408.1,141.6 428.9,109 449.1,141.9 				"/>
				<polygon opacity="0.7" fill="#030323" points="449.1,141.9 428.3,174.5 408.1,141.6 				"/>
				<polygon fill="#030323" points="449.1,141.9 469.9,109.3 490.2,142.2 				"/>
				<polygon opacity="0.7" fill="#030323" points="490.2,142.2 469.3,174.8 449.1,141.9 				"/>
				<polygon opacity="0.5" fill="#030323" points="490.2,142.2 511,109.6 531.2,142.5 				"/>
				<polygon fill="#030323" points="531.2,142.5 552,109.9 572.3,142.8 				"/>
				<polygon opacity="0.7" fill="#030323" points="572.3,142.8 551.4,175.4 531.2,142.5 				"/>
				<polygon fill="#030323" points="572.3,142.8 593.1,110.2 613.3,143.1 				"/>
				<polygon fill="#030323" points="613.3,143.1 634.1,110.5 654.3,143.4 				"/>
				<polygon opacity="0.2" fill="#030323" points="654.3,143.4 633.5,176 613.3,143.1 				"/>
				<line fill="#030323" x1="654.3" y1="143.4" x2="675.2" y2="110.8"/>
				<line opacity="0.7" fill="#030323" x1="674.6" y1="176.3" x2="654.3" y2="143.4"/>
				<line opacity="0.7" fill="#030323" x1="120.7" y1="139.6" x2="141" y2="172.5"/>
				<line opacity="0.5" fill="#030323" x1="141" y1="172.5" x2="120.2" y2="205.1"/>
				<polygon opacity="0.7" fill="#030323" points="141,172.5 161.8,139.8 182,172.7 				"/>
				<polygon opacity="0.5" fill="#030323" points="182,172.7 202.8,140.1 223.1,173 				"/>
				<polygon opacity="0.7" fill="#030323" points="223.1,173 202.2,205.6 182,172.7 				"/>
				<polygon opacity="0.5" fill="#030323" points="223.1,173 243.9,140.4 264.1,173.3 				"/>
				<polygon opacity="0.5" fill="#030323" points="264.1,173.3 243.3,205.9 223.1,173 				"/>
				<polygon opacity="0.2" fill="#030323" points="264.1,173.3 284.9,140.7 305.2,173.6 				"/>
				<polygon opacity="0.7" fill="#030323" points="305.2,173.6 284.3,206.2 264.1,173.3 				"/>
				<polygon fill="#030323" points="305.2,173.6 326,141 346.2,173.9 				"/>
				<polygon opacity="0.7" fill="#030323" points="346.2,173.9 325.4,206.5 305.2,173.6 				"/>
				<polygon opacity="0.7" fill="#030323" points="346.2,173.9 367,141.3 387.2,174.2 				"/>
				<polygon opacity="0.7" fill="#030323" points="387.2,174.2 366.4,206.8 346.2,173.9 				"/>
				<polygon opacity="0.7" fill="#030323" points="387.2,174.2 408.1,141.6 428.3,174.5 				"/>
				<polygon opacity="0.2" fill="#030323" points="428.3,174.5 407.5,207.1 387.2,174.2 				"/>
				<polygon opacity="0.5" fill="#030323" points="428.3,174.5 449.1,141.9 469.3,174.8 				"/>
				<polygon opacity="0.7" fill="#030323" points="469.3,174.8 490.2,142.2 510.4,175.1 				"/>
				<polygon opacity="0.5" fill="#030323" points="510.4,175.1 489.6,207.7 469.3,174.8 				"/>
				<polygon opacity="0.7" fill="#030323" points="551.4,175.4 530.6,208 510.4,175.1 				"/>
				<polygon opacity="0.5" fill="#030323" points="551.4,175.4 572.3,142.8 592.5,175.7 				"/>
				<polygon opacity="0.7" fill="#030323" points="592.5,175.7 571.7,208.3 551.4,175.4 				"/>
				<polygon opacity="0.7" fill="#030323" points="592.5,175.7 613.3,143.1 633.5,176 				"/>
				<polygon opacity="0.5" fill="#030323" points="633.5,176 612.7,208.6 592.5,175.7 				"/>
				<polygon opacity="0.7" fill="#030323" points="674.6,176.3 653.8,208.9 633.5,176 				"/>
				<polygon opacity="0.2" fill="#030323" points="120.2,205.1 141,172.5 161.2,205.4 				"/>
				<polygon opacity="0.7" fill="#030323" points="161.2,205.4 182,172.8 202.2,205.7 				"/>
				<polygon opacity="0.2" fill="#030323" points="202.2,205.7 223.1,173.1 243.3,206 				"/>
				<polygon opacity="0.7" fill="#030323" points="243.3,206 222.5,238.6 202.2,205.7 				"/>
				<polygon opacity="0.5" fill="#030323" points="284.3,206.3 263.5,238.9 243.3,206 				"/>
				<polygon opacity="0.2" fill="#030323" points="284.3,206.3 305.2,173.6 325.4,206.5 				"/>
				<polygon opacity="0.5" fill="#030323" points="325.4,206.5 304.6,239.2 284.3,206.3 				"/>
				<polygon opacity="0.2" fill="#030323" points="325.4,206.5 346.2,173.9 366.4,206.8 				"/>
				<polygon opacity="0.5" fill="#030323" points="366.4,206.8 345.6,239.4 325.4,206.5 				"/>
				<polygon opacity="0.5" fill="#030323" points="366.4,206.8 387.2,174.2 407.5,207.1 				"/>
				<polygon opacity="0.2" fill="#030323" points="407.5,207.1 386.7,239.7 366.4,206.8 				"/>
				<polygon opacity="0.7" fill="#030323" points="407.5,207.1 428.3,174.5 448.5,207.4 				"/>
				<polygon opacity="0.2" fill="#030323" points="448.5,207.4 469.3,174.8 489.6,207.7 				"/>
				<polygon opacity="0.7" fill="#030323" points="489.6,207.7 468.8,240.3 448.5,207.4 				"/>
				<polygon opacity="0.5" fill="#030323" points="530.6,208 509.8,240.6 489.6,207.7 				"/>
				<polygon opacity="0.2" fill="#030323" points="530.6,208 551.4,175.4 571.7,208.3 				"/>
				<line opacity="0.7" fill="#030323" x1="120.2" y1="205.1" x2="140.4" y2="238"/>
				<polygon opacity="0.7" fill="#030323" points="140.4,238 161.2,205.4 181.4,238.3 				"/>
				<polygon opacity="0.5" fill="#030323" points="181.4,238.3 202.2,205.7 222.5,238.6 				"/>
				<polygon opacity="0.2" fill="#030323" points="222.5,238.6 243.3,206 263.5,238.9 				"/>
				<polygon opacity="0.2" fill="#030323" points="304.6,239.2 283.8,271.8 263.5,238.9 				"/>
				<polygon opacity="0.2" fill="#030323" points="304.6,239.2 325.4,206.5 345.6,239.4 				"/>
				<polygon opacity="0.2" fill="#030323" points="345.6,239.4 366.4,206.8 386.7,239.7 				"/>
				<polygon opacity="0.5" fill="#030323" points="386.7,239.7 365.8,272.3 345.6,239.4 				"/>
				<polygon opacity="0.5" fill="#030323" points="386.7,239.7 407.5,207.1 427.7,240 				"/>
				<polygon opacity="0.7" fill="#030323" points="427.7,240 406.9,272.6 386.7,239.7 				"/>
				<polygon opacity="0.2" fill="#030323" points="427.7,240 448.5,207.4 468.8,240.3 				"/>
				<polygon opacity="0.7" fill="#030323" points="468.8,240.3 447.9,272.9 427.7,240 				"/>
				<polygon opacity="0.5" fill="#030323" points="509.8,240.6 489,273.2 468.8,240.3 				"/>
				<polygon opacity="0.2" fill="#030323" points="550.8,240.9 530,273.5 509.8,240.6 				"/>
				<polygon opacity="0.5" fill="#030323" points="550.8,240.9 571.7,208.3 591.9,241.2 				"/>
				<polygon opacity="0.7" fill="#030323" points="201.7,271.2 180.8,303.8 160.6,270.9 				"/>
				<polygon opacity="0.5" fill="#030323" points="201.7,271.2 222.5,238.6 242.7,271.5 				"/>
				<polygon opacity="0.5" fill="#030323" points="242.7,271.5 263.5,238.9 283.8,271.8 				"/>
				<polygon opacity="0.2" fill="#030323" points="283.8,271.8 262.9,304.4 242.7,271.5 				"/>
				<polygon opacity="0.5" fill="#030323" points="283.8,271.8 304.6,239.2 324.8,272.1 				"/>
				<polygon opacity="0.2" fill="#030323" points="324.8,272.1 345.6,239.5 365.8,272.4 				"/>
				<polygon opacity="0.5" fill="#030323" points="406.9,272.7 386.1,305.3 365.8,272.4 				"/>
				<polygon opacity="0.5" fill="#030323" points="406.9,272.7 427.7,240.1 447.9,273 				"/>
				<polygon opacity="0.5" fill="#030323" points="447.9,273 427.1,305.6 406.9,272.7 				"/>
				<polygon opacity="0.5" fill="#030323" points="304,304.7 283.2,337.3 262.9,304.4 				"/>
				<polygon opacity="0.5" fill="#030323" points="304,304.7 324.8,272.1 345,305 				"/>
				<polygon opacity="0.2" fill="#030323" points="345,305 324.2,337.6 304,304.7 				"/>
				<polygon opacity="0.2" fill="#030323" points="345,305 365.8,272.4 386.1,305.3 				"/>
				<polygon opacity="0.5" fill="#030323" points="427.1,305.6 406.3,338.2 386.1,305.3 				"/>
				<polygon opacity="0.2" fill="#030323" points="509.2,306.2 488.4,338.8 468.2,305.9 				"/>
			</g>
		</g>
	</g>
</g>
<g id="Número_delantero" visibility="hidden">
	<text transform="matrix(1.0493 0 0 1 532.4854 330.5138)" fill="#0A0A35" font-family="'SablonUp-College'" font-size="90px">10</text>
</g>
<g id="Remera_escudo" visibility="hidden">

		<image overflow="visible" width="200" height="200" xlink:href="../../../../../Downloads/escudo-01.png"  transform="matrix(0.5725 0 0 0.5456 202.9796 247.5539)">
	</image>
</g>
</svg>
