<?xml version="1.0" encoding="utf-8"?>
<!-- Generator: Adobe Illustrator 24.1.0, SVG Export Plug-In . SVG Version: 6.00 Build 0)  -->
<svg version="1.1" id="Capa_1" xmlns="http://www.w3.org/2000/svg" xmlns:xlink="http://www.w3.org/1999/xlink" x="0px" y="0px"
	 viewBox="0 0 850.4 963.8" style="enable-background:new 0 0 850.4 963.8;" xml:space="preserve">
<style type="text/css">
	.st0{fill:#345594;}
	.st1{fill:#FFFFFF;}
	.st2{fill:#E2E5E5;stroke:#AFB1B2;stroke-miterlimit:10;}
	.st3{clip-path:url(#SVGID_2_);}
	.st4{fill:#0C2E75;}
	.st5{fill:#FF0600;stroke:#0D0D0C;stroke-width:0.75;stroke-miterlimit:10;}
	.st6{fill:url(#SVGID_3_);}
	.st7{fill:url(#SVGID_4_);}
	.st8{opacity:0.13;}
	.st9{filter:url(#Adobe_OpacityMaskFilter);}
	.st10{mask:url(#SVGID_5_);}
	.st11{fill:url(#SVGID_6_);}
	.st12{filter:url(#Adobe_OpacityMaskFilter_1_);}
	.st13{mask:url(#SVGID_7_);}
	.st14{fill:url(#SVGID_8_);}
	.st15{filter:url(#Adobe_OpacityMaskFilter_2_);}
	.st16{mask:url(#SVGID_9_);}
	.st17{fill:url(#SVGID_10_);}
	.st18{opacity:0.54;}
	.st19{filter:url(#Adobe_OpacityMaskFilter_3_);}
	.st20{mask:url(#SVGID_11_);}
	.st21{filter:url(#Adobe_OpacityMaskFilter_4_);}
	.st22{fill:url(#SVGID_12_);}
	.st23{filter:url(#Adobe_OpacityMaskFilter_5_);}
	.st24{mask:url(#SVGID_13_);}
	.st25{filter:url(#Adobe_OpacityMaskFilter_6_);}
	.st26{fill:url(#SVGID_14_);}
	.st27{opacity:0.33;}
	.st28{filter:url(#Adobe_OpacityMaskFilter_7_);}
	.st29{mask:url(#SVGID_15_);}
	.st30{filter:url(#Adobe_OpacityMaskFilter_8_);}
	.st31{fill:url(#SVGID_16_);}
	.st32{opacity:0.61;}
	.st33{filter:url(#Adobe_OpacityMaskFilter_9_);}
	.st34{mask:url(#SVGID_17_);}
	.st35{fill:url(#SVGID_18_);}
	.st36{opacity:0.93;}
	.st37{filter:url(#Adobe_OpacityMaskFilter_10_);}
	.st38{mask:url(#SVGID_19_);}
	.st39{fill:url(#SVGID_20_);}
	.st40{filter:url(#Adobe_OpacityMaskFilter_11_);}
	.st41{mask:url(#SVGID_21_);}
	.st42{fill:url(#SVGID_22_);}
	.st43{filter:url(#Adobe_OpacityMaskFilter_12_);}
	.st44{mask:url(#SVGID_23_);}
	.st45{fill:url(#SVGID_24_);}
	.st46{filter:url(#Adobe_OpacityMaskFilter_13_);}
	.st47{mask:url(#SVGID_25_);}
	.st48{fill:url(#SVGID_26_);}
	.st49{opacity:0.29;}
	.st50{fill:url(#SVGID_27_);}
	.st51{fill:url(#SVGID_28_);}
	.st52{filter:url(#Adobe_OpacityMaskFilter_14_);}
	.st53{mask:url(#SVGID_29_);}
	.st54{filter:url(#Adobe_OpacityMaskFilter_15_);}
	.st55{fill:url(#SVGID_30_);}
	.st56{fill:url(#SVGID_31_);}
	.st57{opacity:0.36;fill:url(#SVGID_32_);}
	.st58{fill:none;}
	.st59{fill:#1A1A1A;}
	.st60{opacity:0.5;}
	.st61{fill:none;stroke:#070606;stroke-width:0.5;stroke-linecap:round;stroke-miterlimit:10;}
	.st62{fill:none;stroke:#070606;stroke-width:0.5;stroke-linecap:round;stroke-miterlimit:10;stroke-dasharray:2.6356,2.6356;}
	.st63{fill:none;stroke:#070606;stroke-width:0.5;stroke-linejoin:round;stroke-miterlimit:10;}
	.st64{fill:none;stroke:#070606;stroke-width:0.5;stroke-linecap:round;stroke-miterlimit:10;stroke-dasharray:2.4725,2.4725;}
	.st65{fill:none;stroke:#070606;stroke-width:0.5;stroke-linecap:round;stroke-miterlimit:10;stroke-dasharray:2.4723,2.4723;}
	.st66{fill:none;stroke:#070606;stroke-width:0.5;stroke-linecap:round;stroke-miterlimit:10;stroke-dasharray:2.5011,2.5011;}
	.st67{fill:none;stroke:#070606;stroke-width:0.5;stroke-linecap:round;stroke-miterlimit:10;stroke-dasharray:2.501,2.501;}
	.st68{fill:none;stroke:#070606;stroke-width:0.5;stroke-linecap:round;stroke-miterlimit:10;stroke-dasharray:2.4908,2.4908;}
	.st69{fill:none;stroke:#070606;stroke-width:0.5;stroke-linecap:round;stroke-miterlimit:10;stroke-dasharray:2.4844,2.4844;}
	.st70{fill:none;stroke:#070606;stroke-width:0.5;stroke-linecap:round;stroke-miterlimit:10;stroke-dasharray:2.5262,2.5262;}
	.st71{fill:none;stroke:#070606;stroke-width:0.5;stroke-linecap:round;stroke-miterlimit:10;stroke-dasharray:2.5171,2.5171;}
	.st72{fill:none;stroke:#070606;stroke-width:0.5;stroke-linecap:round;stroke-miterlimit:10;stroke-dasharray:2.5258,2.5258;}
	.st73{fill:none;stroke:#070606;stroke-width:0.5;stroke-linecap:round;stroke-miterlimit:10;stroke-dasharray:2.4845,2.4845;}
	.st74{clip-path:url(#SVGID_35_);}
	.st75{fill:#0480C6;}
	.st76{fill:url(#SVGID_36_);}
	.st77{fill:url(#SVGID_37_);}
	.st78{fill:url(#SVGID_38_);}
	.st79{fill:url(#SVGID_39_);}
	.st80{opacity:0.81;fill:url(#SVGID_40_);}
	.st81{fill:url(#SVGID_41_);}
	.st82{opacity:0.6;fill:url(#SVGID_42_);}
	.st83{fill:url(#SVGID_43_);}
	.st84{fill:url(#SVGID_44_);}
	.st85{fill:url(#SVGID_45_);}
	.st86{fill:url(#SVGID_46_);}
	.st87{fill:url(#SVGID_47_);}
	.st88{fill:url(#SVGID_48_);}
	.st89{fill:url(#SVGID_49_);}
	.st90{fill:url(#SVGID_50_);}
	.st91{fill:url(#SVGID_51_);}
	.st92{fill:url(#SVGID_52_);}
	.st93{fill:url(#SVGID_53_);}
	.st94{fill:url(#SVGID_54_);}
	.st95{opacity:0.83;fill:url(#SVGID_55_);}
	.st96{fill:url(#SVGID_56_);}
	.st97{opacity:0.68;fill:url(#SVGID_57_);}
	.st98{fill:url(#SVGID_58_);}
	.st99{opacity:0.68;fill:url(#SVGID_59_);}
	.st100{fill:url(#SVGID_60_);}
	.st101{fill:url(#SVGID_61_);}
	.st102{fill:url(#SVGID_62_);}
	.st103{fill:url(#SVGID_63_);}
	.st104{fill:url(#SVGID_64_);}
	.st105{fill:url(#SVGID_65_);}
	.st106{fill:url(#SVGID_66_);}
	.st107{fill:url(#SVGID_67_);}
	.st108{opacity:0.81;fill:url(#SVGID_68_);}
</style>
<g id="Remera_cuello_y_puños">
</g>
<g id="Remera_principal">
</g>
<g id="Mangas">
</g>
<g id="Estampa">
</g>
<g id="Banda_Central">
</g>
<path class="st0" d="M303.2,17.5c-1.2-0.8-2.3-1-2.9-0.5c-0.1,0.1-0.1,0.2-0.2,0.3c-0.1,0.1-0.1,0.2-0.2,0.3
	c-0.1,0.2-0.1,0.4-0.2,0.7c-0.1,0.9,0,2.3,0.4,4.3c0.1,0.5,0.2,1,0.4,1.5c0.2,0.9,0.5,1.9,0.9,3c0.1,0.2,0.1,0.4,0.2,0.7
	c0.2,0.7,0.5,1.4,0.8,2.2c0.2,0.5,0.4,1,0.6,1.6c0.2,0.5,0.4,1.1,0.6,1.7c0.8,2,1.7,4.3,2.8,6.8c0.5,1.1,1,2.3,1.5,3.4
	c0.2,0.3,0.3,0.7,0.5,1c1,1.9,2.2,4.3,3.7,6.9c0.5,0.2,1,0.4,1.5,0.7c0.5,0.2,0.9,0.4,1.4,0.6c0.3,0.1,0.5,0.2,0.8,0.3
	c0.5,0.2,1,0.4,1.4,0.6c0.3,0.1,0.6,0.2,0.8,0.3c0.5,0.2,0.9,0.4,1.4,0.5c0.3,0.1,0.7,0.3,1,0.4c22.3,8.6,55.1,16.3,100.8,16.3h1.6
	c45.7,0,78.5-7.8,100.8-16.3c0.3-0.1,0.7-0.3,1-0.4c0.5-0.2,0.9-0.4,1.4-0.5c0.3-0.1,0.6-0.2,0.8-0.3c0.5-0.2,1-0.4,1.4-0.6
	c0.3-0.1,0.5-0.2,0.8-0.3c0.5-0.2,0.9-0.4,1.4-0.6c0.5-0.2,1-0.4,1.5-0.6c1.5-2.6,2.7-5,3.7-6.9c0.2-0.3,0.3-0.7,0.5-1
	c0.7-1.6,1.2-2.7,1.4-3.2c0-0.1,0.1-0.1,0.1-0.2c1.1-2.5,2-4.7,2.8-6.8c0.2-0.6,0.4-1.1,0.6-1.7c0.2-0.5,0.4-1.1,0.6-1.6
	c0.3-0.8,0.5-1.5,0.8-2.2c0.1-0.2,0.2-0.4,0.2-0.7c0.4-1.1,0.7-2.1,0.9-3c0.1-0.5,0.3-1,0.4-1.5c0.4-1.9,0.5-3.3,0.4-4.3
	c0-0.3-0.1-0.5-0.2-0.7c0-0.1-0.1-0.2-0.2-0.3c-0.1-0.1-0.1-0.2-0.2-0.3c-0.6-0.6-1.7-0.3-2.9,0.5c-0.1,0.1-0.2,0.1-0.3,0.2v0h0l0,0
	c-12.8,9.4-48.6,28.5-117.9,28.5h-1.5c-69.3-0.1-105.1-19.1-117.9-28.5c0,0,0,0,0,0v0C303.4,17.7,303.3,17.6,303.2,17.5z"/>
<path class="st0" d="M422.1,133.1h-44.2c0,0-9.6-8.3-28-15.8c-25.9-10.4-48.8-30.9-58.6-46c-2.1-3.5-4-6.9-5.6-10.1
	c-6.7-13.4-9.6-24.6-10.8-29.8c0.2-0.1,0.3-0.2,0.5-0.4c0.2-0.1,0.4-0.3,0.6-0.4c4.6-3.5,11.2-8.4,14.3-11.3
	c2.1-1.9,3.8-3.6,4.9-4.7c0.8-0.8,1.8-1.3,2.9-1.3c1,0,1.8,0.4,2.4,0.8c0.6,0.4,1.1,0.9,1.6,1.3c0.5,0.4,0.9,0.7,1.5,1.2
	c-0.1-0.1-0.2-0.1-0.3-0.2c-1.2-0.8-2.3-1-2.9-0.5c-0.1,0.1-0.1,0.2-0.2,0.3c-0.1,0.1-0.1,0.2-0.2,0.3c-0.1,0.2-0.1,0.4-0.2,0.7
	c-0.1,0.9,0,2.3,0.4,4.3c0.1,0.5,0.2,1,0.4,1.5c0.2,0.9,0.5,1.9,0.9,3c0.1,0.2,0.1,0.4,0.2,0.7c0.2,0.7,0.5,1.4,0.8,2.2
	c0.2,0.5,0.4,1,0.6,1.6c0.2,0.5,0.4,1.1,0.6,1.7c0.8,2,1.7,4.3,2.8,6.8c0.5,1.1,1,2.3,1.5,3.4c0.1,0.2,0.2,0.5,0.3,0.7
	c0.1,0.1,0.1,0.2,0.2,0.3c1,1.9,2.2,4.3,3.7,6.9c2.8,4.9,6.8,10.9,12.1,17.1c10.1,11.9,25.1,24.9,46.9,34.1
	C424.2,123.6,422.1,133.1,422.1,133.1z"/>
<path class="st0" d="M569.6,31.4c-1.2,5.2-4.1,16.4-10.8,29.8c-1.6,3.3-3.5,6.7-5.6,10.1c-9.8,15.1-32.7,35.5-58.6,46
	c-18.5,7.5-28,15.8-28,15.8h-44.2c0,0-2.2-9.5,50.8-31.8C495,92.1,510,79.1,520,67.2c5.3-6.2,9.2-12.2,12.1-17.1
	c1.5-2.6,2.7-5,3.7-6.9c0.1-0.1,0.1-0.2,0.2-0.3c0.1-0.2,0.2-0.5,0.3-0.7c0.7-1.6,1.2-2.7,1.4-3.2c0-0.1,0.1-0.1,0.1-0.2
	c1.1-2.5,2-4.7,2.8-6.8c0.2-0.6,0.4-1.1,0.6-1.7c0.2-0.5,0.4-1.1,0.6-1.6c0.3-0.8,0.5-1.5,0.8-2.2c0.1-0.2,0.2-0.4,0.2-0.7
	c0.4-1.1,0.7-2.1,0.9-3c0.2-0.5,0.3-1,0.4-1.5c0.4-1.9,0.5-3.3,0.4-4.3c0-0.3-0.1-0.5-0.2-0.7c0-0.1-0.1-0.2-0.2-0.3
	c-0.1-0.1-0.1-0.2-0.2-0.3c-0.6-0.6-1.7-0.3-2.9,0.5c-0.1,0.1-0.2,0.1-0.3,0.2c0.6-0.4,1-0.8,1.5-1.2c0.5-0.4,1.1-0.9,1.6-1.3
	c0.6-0.4,1.5-0.8,2.4-0.8c1.1,0,2.1,0.5,2.9,1.3c1,1.1,2.7,2.8,4.9,4.7c3.2,2.9,9.8,7.8,14.3,11.3c0.2,0.1,0.4,0.3,0.6,0.4
	C569.2,31.1,569.4,31.3,569.6,31.4z"/>
<path class="st0" d="M422.1,133.2h-44.2c0,0-9.6-8.3-28-15.8c-25.9-10.4-48.8-30.9-58.6-46c-2.1-3.5-4-6.9-5.6-10.1
	c-6.7-13.4-9.6-24.6-10.8-29.8c0.2-0.1,0.3-0.2,0.5-0.4c0.2-0.1,0.4-0.3,0.6-0.4c4.6-3.5,11.2-8.4,14.3-11.3
	c2.1-1.9,3.8-3.6,4.9-4.7c0.8-0.8,1.8-1.3,2.9-1.3c1,0,1.8,0.4,2.4,0.8c0.6,0.4,1.1,0.9,1.6,1.3c0.5,0.4,0.9,0.7,1.5,1.2
	c-0.1-0.1-0.2-0.1-0.3-0.2c-1.2-0.8-2.3-1-2.9-0.5c-0.1,0.1-0.1,0.2-0.2,0.3c-0.1,0.1-0.1,0.2-0.2,0.3c-0.1,0.2-0.1,0.4-0.2,0.7
	c-0.1,0.9,0,2.3,0.4,4.3c0.1,0.5,0.2,1,0.4,1.5c0.2,0.9,0.5,1.9,0.9,3c0.1,0.2,0.1,0.4,0.2,0.7c0.2,0.7,0.5,1.4,0.8,2.2
	c0.2,0.5,0.4,1,0.6,1.6c0.2,0.5,0.4,1.1,0.6,1.7c0.8,2,1.7,4.3,2.8,6.8c0.5,1.1,1,2.3,1.5,3.4c0.1,0.2,0.2,0.5,0.3,0.7
	c0.1,0.1,0.1,0.2,0.2,0.3c1,1.9,2.2,4.3,3.7,6.9c2.8,4.9,6.8,10.9,12.1,17.1c10.1,11.9,25.1,24.9,46.9,34.1
	C424.2,123.7,422.1,133.2,422.1,133.2z"/>
<path class="st0" d="M569.6,31.4c-1.2,5.2-4.1,16.4-10.8,29.8c-1.6,3.3-3.5,6.7-5.6,10.1c-9.8,15.1-32.7,35.5-58.6,46
	c-18.5,7.5-28,15.8-28,15.8h-44.2c0,0-2.2-9.5,50.8-31.8C495,92.1,510,79.1,520,67.2c5.3-6.2,9.2-12.2,12.1-17.1
	c1.5-2.6,2.7-5,3.7-6.9c0.1-0.1,0.1-0.2,0.2-0.3c0.1-0.2,0.2-0.5,0.3-0.7c0.7-1.6,1.2-2.7,1.4-3.2c0-0.1,0.1-0.1,0.1-0.2
	c1.1-2.5,2-4.7,2.8-6.8c0.2-0.6,0.4-1.1,0.6-1.7c0.2-0.5,0.4-1.1,0.6-1.6c0.3-0.8,0.5-1.5,0.8-2.2c0.1-0.2,0.2-0.4,0.2-0.7
	c0.4-1.1,0.7-2.1,0.9-3c0.2-0.5,0.3-1,0.4-1.5c0.4-1.9,0.5-3.3,0.4-4.3c0-0.3-0.1-0.5-0.2-0.7c0-0.1-0.1-0.2-0.2-0.3
	c-0.1-0.1-0.1-0.2-0.2-0.3c-0.6-0.6-1.7-0.3-2.9,0.5c-0.1,0.1-0.2,0.1-0.3,0.2c0.6-0.4,1-0.8,1.5-1.2c0.5-0.4,1.1-0.9,1.6-1.3
	c0.6-0.4,1.5-0.8,2.4-0.8c1.1,0,2.1,0.5,2.9,1.3c1,1.1,2.7,2.8,4.9,4.7c3.2,2.9,9.8,7.8,14.3,11.3c0.2,0.1,0.4,0.3,0.6,0.4
	C569.2,31.1,569.4,31.3,569.6,31.4z"/>
<path class="st0" d="M669,408.1c0,0,3.4,3.8,5.1,5.3c2.7,2.5,5.7,9.8,8.3,15.5c0.4,0.8,0.7,2.7,3.4,2.7
	c36.7-0.8,100-19.8,121.6-30.8c0.6-0.3,10-4.3,11.2-6.1c0.8-1.1,0.5-2.3,0-3.5c-3.3-8.1-5.5-13.4-5.2-16.8c0.3-3.2,1.8-7.1,1.8-7.2
	c-1.3,1-2.9,2-4.7,2.9c-0.4,0.2-0.8,0.4-1.2,0.6c-0.3,0.1-0.6,0.3-0.9,0.4c-10.5,5.9-34.2,15.4-63.7,23.4c-1,0.3-2.1,0.6-3.1,0.8
	C718,401.7,692,406.7,669,408.1z"/>
<path class="st1" d="M176.6,409.2c0,0-3.4,3.8-5.1,5.3c-2.7,2.5-5.7,9.8-8.3,15.5c-0.4,0.8-0.7,2.7-3.4,2.7
	c-36.7-0.8-100-19.8-121.6-30.8c-0.6-0.3-10-4.3-11.2-6.1c-0.8-1.1-0.5-2.3,0-3.5c3.3-8.1,5.5-13.4,5.2-16.8
	c-0.3-3.2-1.8-7.1-1.8-7.2c1.3,1,2.9,2,4.7,2.9c0.4,0.2,0.8,0.4,1.2,0.6c0.3,0.1,0.6,0.3,0.9,0.4c10.5,5.9,34.2,15.4,63.7,23.4
	c1,0.3,2.1,0.6,3.1,0.8C127.6,402.8,153.6,407.9,176.6,409.2z"/>
<path class="st2" d="M285.5,63.4c-15.7,11.1-44.5,29.3-94.7,49.5c-1.1,0.4-2.4,0.9-3.8,1.5c-8.5,3.4-40.6,14.2-60.1,28.9
	c-1-2.1-2-4.1-2.9-5.9c0-0.1-0.1-0.2-0.1-0.2c-0.6-1.1-1.1-2.2-1.6-3.2c-4.1-8.2-2.5-18.4,4.4-24.7C146.5,98,168,89.8,177.8,85.9
	c59.8-24,86-44.3,97.4-52.7c-0.2,0.1-0.3,0.3-0.5,0.4C276,38.8,278.8,50,285.5,63.4z"/>
<path class="st2" d="M558.8,63.4c15.7,11.1,44.5,29.3,94.7,49.5c1.1,0.4,2.4,0.9,3.8,1.5c8.5,3.4,40.6,14.2,60.1,28.9
	c1-2.1,2-4.1,2.9-5.9c0-0.1,0.1-0.2,0.1-0.2c0.6-1.1,1.1-2.2,1.6-3.2c4.1-8.2,2.5-18.4-4.4-24.7c-19.7-11.3-41.2-19.4-51.1-23.4
	c-59.8-24-86-44.3-97.4-52.7c0.2,0.1,0.3,0.3,0.5,0.4C568.4,38.8,565.5,50,558.8,63.4z"/>
<path class="st2" d="M111.5,119c4.8-3.4,10-6.7,15.3-9.7c-6.8,6.2-8.5,16.3-4.4,24.4c0.5,1,1,2,1.6,3.1c0,0.1,0.1,0.2,0.1,0.2
	c17.2,34.6,54.2,112.9,63.6,246.5v0c-2.8,6.1-5,9.9-8,17.1c-0.7,1.7-0.6,6.7-3.1,8.7c-51.2-2.9-117-24.5-139.4-36.9
	c-0.7-0.4-1.4-0.7-2-1c-1.8-0.9-3.4-1.9-4.7-2.9c-0.8-3.8,2.6-4.9,3.4-7.3c11.6-36.3,23.9-64.2,28.3-98.4
	c11.1-86.5,16.8-112.1,38.8-134.3C103.5,125.7,108.6,121,111.5,119z"/>
<path class="st2" d="M732.9,119c-4.8-3.4-10-6.7-15.3-9.7c6.8,6.2,8.5,16.3,4.4,24.4c-0.5,1-1,2-1.6,3.1c0,0.1-0.1,0.2-0.1,0.2
	c-17.2,34.6-54.2,112.9-63.6,246.5v0c2.8,6.1,5,9.9,8,17.1c0.7,1.7,0.6,6.7,3.1,8.7c51.2-2.9,117-24.5,139.4-36.9
	c0.7-0.4,1.4-0.7,2-1c1.8-0.9,3.4-1.9,4.7-2.9c0.8-3.8-2.6-4.9-3.4-7.3c-11.6-36.3-23.9-64.2-28.3-98.4
	c-11.1-86.5-16.8-112.1-38.8-134.3C740.8,125.7,735.7,121,732.9,119z"/>
<g>
	<defs>
		<path id="SVGID_1_" d="M675.8,903.6c-1.1-6.1-1.8-12.4-2.3-18.6c-6.6-72.1-17.8-173.8-19.5-197.6c-1.8-23.8-5.3-51.3-4.7-80.8
			c0.7-20.1-0.6-37.2-0.2-57.1c-2.7-30.2,1.3-91.2,1.3-91.2c0-17.7-1-34,2.2-48.9c0,0,0,0,0-0.1c0.9-8.4,1.9-16.7,3-24.7v0
			c9-128.1,41.9-202.4,60-240c12-14,10.5-33.6,2-37c-1.4-0.6-52.9-23.6-54-24c-50.2-20.2-78.3-39.9-94-51c0.3-0.5-14,33-17.4,38.7
			c-9.3,15.4-32.7,35.5-58.6,46c-18.5,7.5-28,15.8-28,15.8h-44.2c0,0-0.1,0-0.1,0v0c0,0,0,0,0,0c0,0,0,0,0,0v0c0,0-0.1,0-0.1,0
			h-44.2c0,0-9.6-8.3-28-15.8c-25.9-10.4-48.8-30.9-58.6-46c-2.5-4-15.8-39.2-15.6-38.7c-15.7,11.1-86.6,47.4-88,48
			c-28,18-66,16-66,44c25,84,57.2,131.9,66.1,260v0c1.1,8,2.1,16.3,3,24.7c0,0,0,0,0,0.1c3.2,14.9,2.2,31.2,2.2,48.9
			c0,0,4,61,1.3,91.2c0.3,19.9-0.9,37-0.2,57.1c0.5,29.4-3,57-4.7,80.8c-1.8,23.8-12.9,125.4-19.5,197.6c-0.6,6.3-1.3,12.5-2.3,18.6
			c-1.2,7.2-6,27.5-2.1,31.4c2.2,2.2,6.9,3.8,13,5.1c4.2,0.9,8.9,1.6,13.9,2.1c5,0.5,10.1,0.9,14.9,1.3c22,2.3,55.6-5,98-2.8
			c33.9,1.8,73.4,4.3,116.9,5.9h0h0h0c43.5-1.5,83-4.1,116.9-5.9c42.4-2.2,76.1,5.1,98,2.8c4.9-0.3,10-0.7,14.9-1.3
			c5-0.6,9.7-1.3,13.9-2.1c6-1.3,10.8-2.9,13-5.1C681.8,931.2,677.1,910.8,675.8,903.6z"/>
	</defs>
	<clipPath id="SVGID_2_">
		<use xlink:href="#SVGID_1_"  style="overflow:visible;"/>
	</clipPath>
	<g id="triangulos" class="st3">
		<g>
			<path class="st4" d="M587,49"/>
			<g>
				<polygon class="st4" points="742.1,134.9 661.2,112.3 580.3,89.7 601.8,159.9 623.3,230.1 682.7,182.5 				"/>
			</g>
			<g>
				<polygon class="st4" points="746.1,116.3 665.2,93.7 584.3,71.1 605.8,141.3 627.3,211.5 686.7,163.9 				"/>
			</g>
			<g>
				<polygon class="st4" points="752.1,79.1 671.2,56.5 590.2,33.9 611.8,104.1 633.3,174.3 692.7,126.7 				"/>
			</g>
			<g>
				<polygon class="st4" points="758.1,58.6 677.1,36 596.2,13.5 617.7,83.6 639.2,153.8 698.7,106.2 				"/>
			</g>
			<g>
				<polygon class="st4" points="758.1,41.9 677.1,19.3 596.2,-3.3 617.7,66.9 639.2,137 698.7,89.5 				"/>
			</g>
			<g>
				<polygon class="st4" points="676.2,2.8 595.2,-19.8 514.3,-42.4 535.8,27.8 557.3,98 616.7,50.4 				"/>
			</g>
			<g>
				<polygon class="st4" points="644.2,79.1 563.3,56.5 482.4,33.9 503.9,104.1 525.4,174.3 584.8,126.7 				"/>
			</g>
			<g>
				<polygon class="st4" points="550.3,144.2 469.4,121.6 388.5,99 410,169.2 431.5,239.4 490.9,191.8 				"/>
			</g>
			<g>
				<polygon class="st4" points="556.3,116.3 475.4,93.7 394.5,71.1 416,141.3 437.5,211.5 496.9,163.9 				"/>
			</g>
			<g>
				<polygon class="st4" points="532.3,53.1 451.4,30.5 370.5,7.9 392,78 413.5,148.2 472.9,100.6 				"/>
			</g>
			<g>
				<polygon class="st4" points="568.3,71.7 487.4,49.1 406.5,26.5 428,96.6 449.5,166.8 508.9,119.2 				"/>
			</g>
			<g>
				<polygon class="st4" points="456.4,66.1 375.5,43.5 294.6,20.9 316.1,91.1 337.6,161.2 397,113.7 				"/>
			</g>
			<g>
				<polygon class="st4" points="390.5,45.6 309.6,23 228.7,0.4 250.2,70.6 271.7,140.8 331.1,93.2 				"/>
			</g>
			<g>
				<polygon class="st4" points="332.6,-6.5 251.7,-29.1 170.8,-51.7 192.3,18.5 213.8,88.7 273.2,41.1 				"/>
			</g>
			<g>
				<polygon class="st4" points="286.6,23.3 205.7,0.7 124.8,-21.9 146.3,48.3 167.8,118.4 227.2,70.9 				"/>
			</g>
			<g>
				<polygon class="st4" points="246.7,62.4 165.8,39.8 84.9,17.2 106.4,87.3 127.9,157.5 187.3,109.9 				"/>
			</g>
			<g>
				<polygon class="st4" points="208.7,86.6 127.8,64 46.9,41.4 68.4,111.5 89.9,181.7 149.3,134.1 				"/>
			</g>
			<g>
				<polygon class="st4" points="269,219.5 350.2,241.4 431.3,263.3 409.1,193.3 386.9,123.3 328,171.4 				"/>
			</g>
			<g>
				<polygon class="st4" points="215.1,204.6 296.2,226.5 377.3,248.4 355.2,178.4 333,108.5 274.1,156.5 				"/>
			</g>
			<g>
				<polygon class="st4" points="197.1,172.9 278.2,194.9 359.4,216.8 337.2,146.8 315,76.8 256.1,124.9 				"/>
			</g>
			<g>
				<polygon class="st4" points="155.2,159.9 236.3,181.8 317.4,203.8 295.2,133.8 273.1,63.8 214.1,111.9 				"/>
			</g>
			<g>
				<polygon class="st4" points="122.4,301.1 193,257.9 263.6,214.8 192.1,185 120.6,155.2 121.5,228.1 				"/>
			</g>
			<g>
				<polygon class="st4" points="114.4,278.8 185,235.6 255.6,192.4 184.1,162.6 112.6,132.9 113.5,205.8 				"/>
			</g>
			<g>
				<polygon class="st4" points="131.5,263.3 209.7,293.2 287.8,323 273.8,251.3 259.7,179.5 195.6,221.4 				"/>
			</g>
			<g>
				<polygon class="st4" points="107.6,306.1 185.7,336 263.9,365.8 249.8,294 235.8,222.3 171.7,264.2 				"/>
			</g>
			<g>
				<polygon class="st4" points="129.5,419.6 207.7,449.5 285.8,479.3 271.8,407.5 257.7,335.8 193.6,377.7 				"/>
			</g>
			<g>
				<polygon class="st4" points="67.6,406.6 145.8,436.5 223.9,466.3 209.9,394.5 195.8,322.7 131.7,364.7 				"/>
			</g>
			<g>
				<polygon class="st4" points="31.7,389.9 109.8,419.7 187.9,449.6 173.9,377.8 159.9,306 95.8,347.9 				"/>
			</g>
			<g>
				<polygon class="st4" points="5.7,365.7 83.8,395.5 162,425.4 147.9,353.6 133.9,281.8 69.8,323.7 				"/>
			</g>
			<g>
				<polygon class="st4" points="-4.3,475.5 73.8,505.3 152,535.2 138,463.4 123.9,391.6 59.8,433.5 				"/>
			</g>
			<g>
				<polygon class="st4" points="13.7,447.5 91.8,477.4 170,507.2 155.9,435.5 141.9,363.7 77.8,405.6 				"/>
			</g>
			<g>
				<polygon class="st4" points="33.7,423.4 111.8,453.2 189.9,483.1 175.9,411.3 161.9,339.5 97.8,381.4 				"/>
			</g>
			<g>
				<polygon class="st4" points="267,219.5 348.2,241.4 429.3,263.3 407.1,193.3 384.9,123.3 326,171.4 				"/>
			</g>
		</g>
	</g>
</g>
<path id="TIRA_LIMPIEZA_1_" class="st5" d="M532.1,52.3c-2.8,4.9-6.8,10.9-12.1,17.1c-22.2,8-53.9,14.9-97.1,14.9h-0.3c0,0,0,0,0,0
	h0c0,0,0,0,0,0h-0.8c0,0,0,0,0,0h0c0,0,0,0,0,0h-0.3c-43.3,0-74.9-6.9-97.1-14.9c-5.3-6.2-9.2-12.2-12.1-17.1c0.5,0.2,1,0.4,1.5,0.7
	c0.5,0.2,0.9,0.4,1.4,0.6c0.3,0.1,0.5,0.2,0.8,0.3c0.5,0.2,1,0.4,1.4,0.6c0.3,0.1,0.6,0.2,0.8,0.3c0.5,0.2,0.9,0.4,1.4,0.5
	c0.3,0.1,0.7,0.3,1,0.4c22.3,8.6,55.1,16.3,100.8,16.3h1.6c45.7,0,78.5-7.8,100.8-16.3c0.3-0.1,0.7-0.3,1-0.4
	c0.5-0.2,0.9-0.4,1.4-0.5c0.3-0.1,0.6-0.2,0.8-0.3c0.5-0.2,1-0.4,1.4-0.6c0.3-0.1,0.5-0.2,0.8-0.3c0.5-0.2,0.9-0.4,1.4-0.6
	C531.1,52.7,531.6,52.5,532.1,52.3z"/>
<linearGradient id="SVGID_3_" gradientUnits="userSpaceOnUse" x1="164.5093" y1="719.0347" x2="210.3432" y2="719.0347">
	<stop  offset="0.1336" style="stop-color:#070606;stop-opacity:0.3"/>
	<stop  offset="1" style="stop-color:#070606;stop-opacity:0"/>
</linearGradient>
<path class="st6" d="M195.4,487.6c0,0,21.3,246.1,13.1,463c0,0-30.3-0.9-40.2-7.2c-9.9-6.3,3-43.5,3.6-57.9
	c0.6-14.5,8.4-120.3,11.3-140.4C186.1,724.9,204.1,546.8,195.4,487.6z"/>
<linearGradient id="SVGID_4_" gradientUnits="userSpaceOnUse" x1="217.5499" y1="713.8721" x2="263.3838" y2="713.8721" gradientTransform="matrix(-1 0 0 1 898 0)">
	<stop  offset="0.1336" style="stop-color:#070606;stop-opacity:0.3"/>
	<stop  offset="1" style="stop-color:#070606;stop-opacity:0"/>
</linearGradient>
<path class="st7" d="M649.6,482.4c0,0-21.3,246.1-13.1,463c0,0,30.3-0.9,40.2-7.2c9.9-6.3-3-45.5-3.6-59.9
	c-0.6-14.5-8.4-118.3-11.3-138.4S640.9,541.6,649.6,482.4z"/>
<g class="st8">
	<defs>
		<filter id="Adobe_OpacityMaskFilter" filterUnits="userSpaceOnUse" x="508.9" y="276" width="165.4" height="670.3">
			<feFlood  style="flood-color:white;flood-opacity:1" result="back"/>
			<feBlend  in="SourceGraphic" in2="back" mode="normal"/>
		</filter>
	</defs>
	<mask maskUnits="userSpaceOnUse" x="508.9" y="276" width="165.4" height="670.3" id="SVGID_5_">
		<g class="st9">
			
				<image style="overflow:visible;" width="170" height="675" xlink:href="79D02693.jpg"  transform="matrix(1 0 0 1 506.4622 273.5826)">
			</image>
		</g>
	</mask>
	<g class="st10">
		
			<linearGradient id="SVGID_6_" gradientUnits="userSpaceOnUse" x1="275.8662" y1="611.1667" x2="441.2575" y2="611.1667" gradientTransform="matrix(-1 0 0 1 950.1758 0)">
			<stop  offset="0.1336" style="stop-color:#070606;stop-opacity:0.3"/>
			<stop  offset="1" style="stop-color:#070606;stop-opacity:0"/>
		</linearGradient>
		<path class="st11" d="M558.1,898.2c6.3-71.1,20.9-141.6,24.6-212.9c5.3-100.2-10.9-200.7-1.9-300.7c0.6-6.2,1.3-12.6,4.1-18.3
			c2.6-5.1,6.7-9.4,10.8-13.6c14.5-14.8,64.1-61.9,78.6-76.8c0.9,21.2-68.4,104.9-77,124.6c-12.1,27.8,7.3,25.8,7.5,55.7
			c0.6,106,1.2,212.1,1.8,318.1c0.3,51.9,0.7,104.5,15.1,154.7c0.7,2.4,1.4,5,0.1,7.2c-1.7,3-6,3.6-9.6,3.8
			c-33.9,2.1-67.8,4.2-101.7,6.4c-4.6-107.9,0.7-216.2,16-323.2c9.3,7.7,10.4,20.5,10.8,32c1.6,47.7,3.2,95.5,4.7,143.2
			c1.1,33,2.3,66.5,12.4,98.2"/>
	</g>
</g>
<g class="st8">
	<defs>
		<filter id="Adobe_OpacityMaskFilter_1_" filterUnits="userSpaceOnUse" x="521.5" y="344.9" width="98.7" height="596.4">
			<feFlood  style="flood-color:white;flood-opacity:1" result="back"/>
			<feBlend  in="SourceGraphic" in2="back" mode="normal"/>
		</filter>
	</defs>
	<mask maskUnits="userSpaceOnUse" x="521.5" y="344.9" width="98.7" height="596.4" id="SVGID_7_">
		<g class="st12">
			
				<image style="overflow:visible;" width="103" height="601" xlink:href="79D02691.jpg"  transform="matrix(1 0 0 1 519.4622 342.5826)">
			</image>
		</g>
	</mask>
	<g class="st13">
		
			<radialGradient id="SVGID_8_" cx="788.1786" cy="546.801" r="180.779" gradientTransform="matrix(1.2894 0 0 1.1798 -445.4276 -1.9817)" gradientUnits="userSpaceOnUse">
			<stop  offset="0" style="stop-color:#FFFFFF;stop-opacity:0.3"/>
			<stop  offset="1" style="stop-color:#FFFFFF;stop-opacity:0"/>
		</radialGradient>
		<path class="st14" d="M534.7,769.1c-16.6-29.6-7.2-37.8-8.2-71.1c-1.5-47.5-3-95-4.5-142.6c-0.9-27.8-1.6-56.2,8.2-82.5
			c7.7-20.7,21.6-38.9,35.3-56.8c18.2-23.8,36.4-47.6,54.7-71.3c-21.9,51.8-31.5,113.8-39.5,168.9c-4.4,29.9,0.2,67.4,4,97.4
			c13.6,108.9-20.9,254.1-21.2,330.2c-2.5-7-17.6-136-20.1-143L534.7,769.1z"/>
	</g>
</g>
<g class="st8">
	<defs>
		<filter id="Adobe_OpacityMaskFilter_2_" filterUnits="userSpaceOnUse" x="222.8" y="344.9" width="98.7" height="596.4">
			<feFlood  style="flood-color:white;flood-opacity:1" result="back"/>
			<feBlend  in="SourceGraphic" in2="back" mode="normal"/>
		</filter>
	</defs>
	<mask maskUnits="userSpaceOnUse" x="222.8" y="344.9" width="98.7" height="596.4" id="SVGID_9_">
		<g class="st15">
			
				<image style="overflow:visible;" width="103" height="601" xlink:href="79D02697.jpg"  transform="matrix(1 0 0 1 220.4622 342.5826)">
			</image>
		</g>
	</mask>
	<g class="st16">
		
			<radialGradient id="SVGID_10_" cx="372.7077" cy="546.801" r="180.779" gradientTransform="matrix(-1.2894 0 0 1.1798 752.6824 -1.9817)" gradientUnits="userSpaceOnUse">
			<stop  offset="0" style="stop-color:#FFFFFF;stop-opacity:0.3"/>
			<stop  offset="1" style="stop-color:#FFFFFF;stop-opacity:0"/>
		</radialGradient>
		<path class="st17" d="M308.2,769.1c16.6-29.6,7.2-37.8,8.2-71.1c1.5-47.5,3-95,4.5-142.6c0.9-27.8,1.6-56.2-8.2-82.5
			c-7.7-20.7-21.6-38.9-35.3-56.8c-18.2-23.8-36.4-47.6-54.7-71.3c21.9,51.8,31.5,113.8,39.5,168.9c4.4,29.9-0.2,67.4-4,97.4
			c-13.6,108.9,26.9,254.1,27.2,330.2c2.5-7,11.6-136,14.1-143L308.2,769.1z"/>
	</g>
</g>
<g class="st18">
	<defs>
		<filter id="Adobe_OpacityMaskFilter_3_" filterUnits="userSpaceOnUse" x="608.1" y="248.3" width="69.1" height="340.1">
			<feFlood  style="flood-color:white;flood-opacity:1" result="back"/>
			<feBlend  in="SourceGraphic" in2="back" mode="normal"/>
		</filter>
	</defs>
	<mask maskUnits="userSpaceOnUse" x="608.1" y="248.3" width="69.1" height="340.1" id="SVGID_11_">
		<g class="st19">
			
				<image style="overflow:visible;" width="74" height="345" xlink:href="79D02690.jpg"  transform="matrix(1 0 0 1 605.4622 245.5826)">
			</image>
		</g>
	</mask>
	<g class="st20">
		<defs>
			<filter id="Adobe_OpacityMaskFilter_4_" filterUnits="userSpaceOnUse" x="608.1" y="248.3" width="69.1" height="340.1">
				<feFlood  style="flood-color:white;flood-opacity:1" result="back"/>
				<feBlend  in="SourceGraphic" in2="back" mode="normal"/>
			</filter>
		</defs>
		<mask maskUnits="userSpaceOnUse" x="608.1" y="248.3" width="69.1" height="340.1" id="SVGID_11_">
			<g class="st21">
				
					<image style="overflow:visible;" width="74" height="345" xlink:href="79D0269E.jpg"  transform="matrix(1 0 0 1 605.4622 245.5826)">
				</image>
			</g>
		</mask>
		<g>
			
				<linearGradient id="SVGID_12_" gradientUnits="userSpaceOnUse" x1="284.7288" y1="418.3519" x2="389.7898" y2="418.3519" gradientTransform="matrix(-1 0 0 1 962 0)">
				<stop  offset="0" style="stop-color:#070606;stop-opacity:0.3"/>
				<stop  offset="0.9795" style="stop-color:#070606;stop-opacity:0"/>
			</linearGradient>
			<path class="st22" d="M677.3,248.3c0,0-44.6,61.2-66.1,97.5c-12,20.3,13.3,20.1,39.9,242.6l4.7-205.8L677.3,248.3z"/>
		</g>
	</g>
</g>
<g class="st18">
	<defs>
		<filter id="Adobe_OpacityMaskFilter_5_" filterUnits="userSpaceOnUse" x="165.3" y="253.3" width="69.9" height="340.1">
			<feFlood  style="flood-color:white;flood-opacity:1" result="back"/>
			<feBlend  in="SourceGraphic" in2="back" mode="normal"/>
		</filter>
	</defs>
	<mask maskUnits="userSpaceOnUse" x="165.3" y="253.3" width="69.9" height="340.1" id="SVGID_13_">
		<g class="st23">
			
				<image style="overflow:visible;" width="75" height="345" xlink:href="79D0269F.jpg"  transform="matrix(1 0 0 1 162.4622 250.5826)">
			</image>
		</g>
	</mask>
	<g class="st24">
		<defs>
			<filter id="Adobe_OpacityMaskFilter_6_" filterUnits="userSpaceOnUse" x="165.3" y="253.3" width="69.9" height="340.1">
				<feFlood  style="flood-color:white;flood-opacity:1" result="back"/>
				<feBlend  in="SourceGraphic" in2="back" mode="normal"/>
			</filter>
		</defs>
		<mask maskUnits="userSpaceOnUse" x="165.3" y="253.3" width="69.9" height="340.1" id="SVGID_13_">
			<g class="st25">
				
					<image style="overflow:visible;" width="75" height="345" xlink:href="79D02692.jpg"  transform="matrix(1 0 0 1 162.4622 250.5826)">
				</image>
			</g>
		</mask>
		<g>
			
				<linearGradient id="SVGID_14_" gradientUnits="userSpaceOnUse" x1="197.3448" y1="423.3328" x2="303.507" y2="423.3328" gradientTransform="matrix(1 0 0 1 -32 0)">
				<stop  offset="0" style="stop-color:#070606;stop-opacity:0.3"/>
				<stop  offset="0.9795" style="stop-color:#070606;stop-opacity:0"/>
			</linearGradient>
			<path class="st26" d="M165.3,253.3c0,0,44.6,61.2,66.1,97.5c12,20.3-6,20.1-32.6,242.6l-12-205.8L165.3,253.3z"/>
		</g>
	</g>
</g>
<g class="st27">
	<defs>
		<filter id="Adobe_OpacityMaskFilter_7_" filterUnits="userSpaceOnUse" x="112.3" y="34" width="614.7" height="328.6">
			<feFlood  style="flood-color:white;flood-opacity:1" result="back"/>
			<feBlend  in="SourceGraphic" in2="back" mode="normal"/>
		</filter>
	</defs>
	<mask maskUnits="userSpaceOnUse" x="112.3" y="34" width="614.7" height="328.6" id="SVGID_15_">
		<g class="st28">
			
				<image style="overflow:visible;" width="620" height="334" xlink:href="79D02695.jpg"  transform="matrix(1 0 0 1 109.4622 31.5825)">
			</image>
		</g>
	</mask>
	<g class="st29">
		<defs>
			<filter id="Adobe_OpacityMaskFilter_8_" filterUnits="userSpaceOnUse" x="112.3" y="34" width="614.7" height="328.6">
				<feFlood  style="flood-color:white;flood-opacity:1" result="back"/>
				<feBlend  in="SourceGraphic" in2="back" mode="normal"/>
			</filter>
		</defs>
		<mask maskUnits="userSpaceOnUse" x="112.3" y="34" width="614.7" height="328.6" id="SVGID_15_">
			<g class="st30">
				
					<image style="overflow:visible;" width="620" height="334" xlink:href="79D02696.jpg"  transform="matrix(1 0 0 1 109.4622 31.5825)">
				</image>
			</g>
		</mask>
		<g>
			<linearGradient id="SVGID_16_" gradientUnits="userSpaceOnUse" x1="585.9832" y1="334.2872" x2="237.6428" y2="-14.0532">
				<stop  offset="0" style="stop-color:#FFFFFF;stop-opacity:0.3"/>
				<stop  offset="1" style="stop-color:#FFFFFF;stop-opacity:0"/>
			</linearGradient>
			<path class="st31" d="M112.3,111.3c0,0,56.6,177.7,127.8,222.5c82.1,51.7,286.2,22.2,328.8,0c42.5-22.2,106.2-65,158.1-207.8
				L544.8,34c0,0-34.8,56.9-104.5,68.2s-77.2-0.1-77.2-0.1S285,69.8,268.6,36.3L112.3,111.3z"/>
		</g>
	</g>
</g>
<g class="st32">
	<defs>
		<filter id="Adobe_OpacityMaskFilter_9_" filterUnits="userSpaceOnUse" x="735.3" y="118" width="85.4" height="297.2">
			<feFlood  style="flood-color:white;flood-opacity:1" result="back"/>
			<feBlend  in="SourceGraphic" in2="back" mode="normal"/>
		</filter>
	</defs>
	<mask maskUnits="userSpaceOnUse" x="735.3" y="118" width="85.4" height="297.2" id="SVGID_17_">
		<g class="st33">
			
				<image style="overflow:visible;" width="91" height="302" xlink:href="9B159340.jpg"  transform="matrix(1 0 0 1 732.4622 115.5826)">
			</image>
		</g>
	</mask>
	<g class="st34">
		<linearGradient id="SVGID_18_" gradientUnits="userSpaceOnUse" x1="735.2999" y1="266.5879" x2="820.6681" y2="266.5879">
			<stop  offset="0.1336" style="stop-color:#070606;stop-opacity:0.3"/>
			<stop  offset="1" style="stop-color:#070606;stop-opacity:0"/>
		</linearGradient>
		<path class="st35" d="M784.6,415.2c-28.8-63.7-42.4-133.1-39.6-202c1.3-32.2,5.8-66.2-9.7-95.2c13.2,14.8,26.7,30.1,33.1,48.3
			c6.8,19.4,4.8,40.3,5.3,60.7c1.6,58.7,24.4,114.9,46.9,169.8c-12.7,2.6-24.8,7.7-35.2,14.9"/>
	</g>
</g>
<g class="st36">
	<defs>
		<filter id="Adobe_OpacityMaskFilter_10_" filterUnits="userSpaceOnUse" x="687.7" y="111.2" width="86.9" height="313.9">
			<feFlood  style="flood-color:white;flood-opacity:1" result="back"/>
			<feBlend  in="SourceGraphic" in2="back" mode="normal"/>
		</filter>
	</defs>
	<mask maskUnits="userSpaceOnUse" x="687.7" y="111.2" width="86.9" height="313.9" id="SVGID_19_">
		<g class="st37">
			
				<image style="overflow:visible;" width="92" height="319" xlink:href="9B159347.jpg"  transform="matrix(1 0 0 1 685.4622 108.5826)">
			</image>
		</g>
	</mask>
	<g class="st38">
		<linearGradient id="SVGID_20_" gradientUnits="userSpaceOnUse" x1="799.2094" y1="232.5139" x2="660.0845" y2="312.8377">
			<stop  offset="0" style="stop-color:#FFFFFF;stop-opacity:0.3"/>
			<stop  offset="0.7436" style="stop-color:#FFFFFF;stop-opacity:0"/>
		</linearGradient>
		<path class="st39" d="M723.1,111.2c10,5.2,16.1,15.2,18.7,25.4c2.5,10.3,1.9,20.9,1.5,31.4c-3.3,82.2,4.4,165.4,31.3,243.8
			c-12.9,7.8-28.2,12.4-43.6,13.2c-1.9,0.1-3.9,0.1-5.6-0.8c-1.4-0.8-2.3-2.2-3-3.6c-34.6-60.5-43.7-132.8-25.3-199
			c9.9-35.5,27.6-70,27.2-106.7"/>
	</g>
</g>
<g class="st32">
	<defs>
		<filter id="Adobe_OpacityMaskFilter_11_" filterUnits="userSpaceOnUse" x="20.8" y="118" width="85.4" height="297.2">
			<feFlood  style="flood-color:white;flood-opacity:1" result="back"/>
			<feBlend  in="SourceGraphic" in2="back" mode="normal"/>
		</filter>
	</defs>
	<mask maskUnits="userSpaceOnUse" x="20.8" y="118" width="85.4" height="297.2" id="SVGID_21_">
		<g class="st40">
			
				<image style="overflow:visible;" width="90" height="302" xlink:href="9B159341.jpg"  transform="matrix(1 0 0 1 18.4622 115.5826)">
			</image>
		</g>
	</mask>
	<g class="st41">
		
			<linearGradient id="SVGID_22_" gradientUnits="userSpaceOnUse" x1="821.8411" y1="266.5879" x2="907.2094" y2="266.5879" gradientTransform="matrix(-1 0 0 1 928 0)">
			<stop  offset="0.1336" style="stop-color:#070606;stop-opacity:0.3"/>
			<stop  offset="1" style="stop-color:#070606;stop-opacity:0"/>
		</linearGradient>
		<path class="st42" d="M56.9,415.2c28.8-63.7,42.4-133.1,39.6-202c-1.3-32.2-5.8-66.2,9.7-95.2c-13.2,14.8-26.7,30.1-33.1,48.3
			c-6.8,19.4-4.8,40.3-5.3,60.7C66.2,285.7,43.3,342,20.8,396.9c12.7,2.6,24.8,7.7,35.2,14.9"/>
	</g>
</g>
<g class="st36">
	<defs>
		<filter id="Adobe_OpacityMaskFilter_12_" filterUnits="userSpaceOnUse" x="66.9" y="111.2" width="86.9" height="313.9">
			<feFlood  style="flood-color:white;flood-opacity:1" result="back"/>
			<feBlend  in="SourceGraphic" in2="back" mode="normal"/>
		</filter>
	</defs>
	<mask maskUnits="userSpaceOnUse" x="66.9" y="111.2" width="86.9" height="313.9" id="SVGID_23_">
		<g class="st43">
			
				<image style="overflow:visible;" width="92" height="319" xlink:href="9B159343.jpg"  transform="matrix(1 0 0 1 64.4622 108.5826)">
			</image>
		</g>
	</mask>
	<g class="st44">
		
			<linearGradient id="SVGID_24_" gradientUnits="userSpaceOnUse" x1="885.7507" y1="232.5139" x2="746.6258" y2="312.8377" gradientTransform="matrix(-1 0 0 1 928 0)">
			<stop  offset="0" style="stop-color:#FFFFFF;stop-opacity:0.3"/>
			<stop  offset="0.7436" style="stop-color:#FFFFFF;stop-opacity:0"/>
		</linearGradient>
		<path class="st45" d="M118.3,111.2c-10,5.2-16.1,15.2-18.7,25.4c-2.5,10.3-1.9,20.9-1.5,31.4c3.3,82.2-4.4,165.4-31.3,243.8
			c12.9,7.8,28.2,12.4,43.6,13.2c1.9,0.1,3.9,0.1,5.6-0.8c1.4-0.8,2.3-2.2,3-3.6c34.6-60.5,43.7-132.8,25.3-199
			c-9.9-35.5-27.6-70-27.2-106.7"/>
	</g>
</g>
<g>
	<defs>
		<filter id="Adobe_OpacityMaskFilter_13_" filterUnits="userSpaceOnUse" x="142.4" y="239.2" width="48.1" height="193.1">
			<feFlood  style="flood-color:white;flood-opacity:1" result="back"/>
			<feBlend  in="SourceGraphic" in2="back" mode="normal"/>
		</filter>
	</defs>
	<mask maskUnits="userSpaceOnUse" x="142.4" y="239.2" width="48.1" height="193.1" id="SVGID_25_">
		<g class="st46">
			
				<image style="overflow:visible;" width="54" height="198" xlink:href="9B15935E.jpg"  transform="matrix(1 0 0 1 139.4622 236.5826)">
			</image>
		</g>
	</mask>
	<g class="st47">
		
			<linearGradient id="SVGID_26_" gradientUnits="userSpaceOnUse" x1="737.4686" y1="335.7398" x2="785.5872" y2="335.7398" gradientTransform="matrix(-1 0 0 1 928 0)">
			<stop  offset="0.1336" style="stop-color:#070606;stop-opacity:0.3"/>
			<stop  offset="1" style="stop-color:#070606;stop-opacity:0"/>
		</linearGradient>
		<path class="st48" d="M162.6,239.2c1.3,14.4,2.6,28.8,2.7,43.3c0.1,15.6-2.2,33.3-15.9,42.7c6.4,3,13.8,7.6,12.9,14.1
			c-0.9,7-10.2,9.6-17.1,12.8c-1.1,0.5-2.3,1.2-2.7,2.3c-0.4,1,0.1,2.2,0.6,3.2c7.9,17.4,14,37.2,6.6,54.7c-2.6,6.2-7,12.4-6.1,19
			c6,0.3,12,0.6,18,0.9c2.3-6.9,8.5-12,13.5-17.6c6.7-7.6,11.5-16.7,13.7-26.3c3.5-14.8,1-30.2-1.5-45.2
			c-5.6-34-11.3-68.1-21.7-101.1"/>
	</g>
</g>
<g class="st49">
	<linearGradient id="SVGID_27_" gradientUnits="userSpaceOnUse" x1="719.7538" y1="180.7973" x2="734.1353" y2="180.7973">
		<stop  offset="0" style="stop-color:#FFFFFF;stop-opacity:0.3"/>
		<stop  offset="1" style="stop-color:#FFFFFF;stop-opacity:0"/>
	</linearGradient>
	<path class="st50" d="M734.1,252.5c-2.4-19.2-4.8-38.6-4.4-57.9c0.5-26.7,6.3-53.8,0.5-80c-0.6-2.9-3.1-6.6-6-5.3
		c2,9.9,3.9,20,3.1,30.1c-0.7,9.8-4.1,19.3-5.9,29.1c-5.2,28,2.5,56.5,10.1,84.1"/>
</g>
<g class="st49">
	
		<linearGradient id="SVGID_28_" gradientUnits="userSpaceOnUse" x1="809.1894" y1="180.7973" x2="823.5709" y2="180.7973" gradientTransform="matrix(-1 0 0 1 918 0)">
		<stop  offset="0" style="stop-color:#FFFFFF;stop-opacity:0.3"/>
		<stop  offset="1" style="stop-color:#FFFFFF;stop-opacity:0"/>
	</linearGradient>
	<path class="st51" d="M94.4,252.5c2.4-19.2,4.8-38.6,4.4-57.9c-0.5-26.7-6.3-53.8-0.5-80c0.6-2.9,3.1-6.6,6-5.3
		c-2,9.9-3.9,20-3.1,30.1c0.7,9.8,4.1,19.3,5.9,29.1c5.2,28-2.5,56.5-10.1,84.1"/>
</g>
<g>
	<defs>
		<filter id="Adobe_OpacityMaskFilter_14_" filterUnits="userSpaceOnUse" x="656.1" y="236.8" width="48.1" height="193.1">
			<feFlood  style="flood-color:white;flood-opacity:1" result="back"/>
			<feBlend  in="SourceGraphic" in2="back" mode="normal"/>
		</filter>
	</defs>
	<mask maskUnits="userSpaceOnUse" x="656.1" y="236.8" width="48.1" height="193.1" id="SVGID_29_">
		<g class="st52">
			
				<image style="overflow:visible;" width="53" height="198" xlink:href="9B15935F.jpg"  transform="matrix(1 0 0 1 653.4622 234.5826)">
			</image>
		</g>
	</mask>
	<g class="st53">
		<defs>
			<filter id="Adobe_OpacityMaskFilter_15_" filterUnits="userSpaceOnUse" x="656.1" y="236.8" width="48.1" height="193.1">
				<feFlood  style="flood-color:white;flood-opacity:1" result="back"/>
				<feBlend  in="SourceGraphic" in2="back" mode="normal"/>
			</filter>
		</defs>
		<mask maskUnits="userSpaceOnUse" x="656.1" y="236.8" width="48.1" height="193.1" id="SVGID_29_">
			<g class="st54">
				
					<image style="overflow:visible;" width="53" height="198" xlink:href="9B159342.jpg"  transform="matrix(1 0 0 1 653.4622 234.5826)">
				</image>
			</g>
		</mask>
		<g>
			<linearGradient id="SVGID_30_" gradientUnits="userSpaceOnUse" x1="656.0851" y1="333.3803" x2="704.2036" y2="333.3803">
				<stop  offset="0.1336" style="stop-color:#070606;stop-opacity:0.3"/>
				<stop  offset="1" style="stop-color:#070606;stop-opacity:0"/>
			</linearGradient>
			<path class="st55" d="M684,236.8c-1.3,14.4-2.6,28.8-2.7,43.3c-0.1,15.6,2.2,33.3,15.9,42.7c-6.4,3-13.8,7.6-12.9,14.1
				c0.9,7,10.2,9.6,17.1,12.8c1.1,0.5,2.3,1.2,2.7,2.3c0.4,1-0.1,2.2-0.6,3.2c-7.9,17.4-14,37.2-6.6,54.7c2.6,6.2,7,12.4,6.1,19
				c-6,0.3-12,0.6-18,0.9c-2.3-6.9-8.5-12-13.5-17.6c-6.7-7.6-11.5-16.7-13.7-26.3c-3.5-14.8-1-30.2,1.5-45.2
				c5.6-34,11.3-68.1,21.7-101.1"/>
		</g>
	</g>
</g>
<linearGradient id="SVGID_31_" gradientUnits="userSpaceOnUse" x1="324.2895" y1="101.7363" x2="518.5596" y2="101.7363">
	<stop  offset="0" style="stop-color:#FFFFFF"/>
	<stop  offset="0.2497" style="stop-color:#D2D2D2"/>
	<stop  offset="0.6011" style="stop-color:#989898"/>
	<stop  offset="0.8615" style="stop-color:#747474"/>
	<stop  offset="1" style="stop-color:#666666"/>
</linearGradient>
<path class="st56" d="M422.1,134.1c0,0-1.2-7.6,24.9-19.7c26.1-12.1,57-23.9,71.6-44.5c0,0-35,14.2-96,14.4c0,0-62.7,1.3-98.3-14.9
	c0,0,10.5,14.8,30.7,24.7S413.1,116.3,422.1,134.1z"/>
<radialGradient id="SVGID_32_" cx="672.1376" cy="38.9116" r="69.0993" gradientTransform="matrix(1.2894 0 0 1.1798 -445.4276 -1.9817)" gradientUnits="userSpaceOnUse">
	<stop  offset="0" style="stop-color:#000000;stop-opacity:0"/>
	<stop  offset="0.1171" style="stop-color:#030303;stop-opacity:0"/>
	<stop  offset="0.1875" style="stop-color:#0B0B0B;stop-opacity:0"/>
	<stop  offset="0.2456" style="stop-color:#191919;stop-opacity:0"/>
	<stop  offset="0.297" style="stop-color:#2E2E2E;stop-opacity:0"/>
	<stop  offset="0.344" style="stop-color:#484848;stop-opacity:0"/>
	<stop  offset="0.3877" style="stop-color:#686868;stop-opacity:0"/>
	<stop  offset="0.429" style="stop-color:#8F8F8F;stop-opacity:0"/>
	<stop  offset="0.4683" style="stop-color:#BBBBBB;stop-opacity:0"/>
	<stop  offset="0.5047" style="stop-color:#EDEDED;stop-opacity:0"/>
	<stop  offset="0.517" style="stop-color:#FFFFFF;stop-opacity:0"/>
	<stop  offset="0.5619" style="stop-color:#F1F1F1;stop-opacity:2.785662e-02"/>
	<stop  offset="0.6461" style="stop-color:#CECDCD;stop-opacity:8.015504e-02"/>
	<stop  offset="0.7606" style="stop-color:#949393;stop-opacity:0.1513"/>
	<stop  offset="0.8995" style="stop-color:#454444;stop-opacity:0.2376"/>
	<stop  offset="1" style="stop-color:#070606;stop-opacity:0.3"/>
</radialGradient>
<path class="st57" d="M302.3,17.5c-1.2-0.8-2.3-1-2.9-0.5c-0.1,0.1-0.1,0.2-0.2,0.3c-0.1,0.1-0.1,0.2-0.2,0.3
	c-0.1,0.2-0.1,0.4-0.2,0.7c-0.1,0.9,0,2.3,0.4,4.3c0.1,0.5,0.2,1,0.4,1.5c0.2,0.9,0.5,1.9,0.9,3c0.1,0.2,0.1,0.4,0.2,0.7
	c0.2,0.7,0.5,1.4,0.8,2.2c0.2,0.5,0.4,1,0.6,1.6c0.2,0.5,0.4,1.1,0.6,1.7c0.8,2,1.7,4.3,2.8,6.8c0.5,1.1,1,2.3,1.5,3.4
	c0.2,0.3,0.3,0.7,0.5,1c1,1.9,2.2,4.3,3.7,6.9c0.5,0.2,1,0.4,1.5,0.7c0.5,0.2,0.9,0.4,1.4,0.6c0.3,0.1,0.5,0.2,0.8,0.3
	c0.5,0.2,1,0.4,1.4,0.6c0.3,0.1,0.6,0.2,0.8,0.3c0.5,0.2,0.9,0.4,1.4,0.5c0.3,0.1,0.7,0.3,1,0.4C342,63.3,374.7,71,420.4,71.1h1.6
	c45.7,0,78.5-7.8,100.8-16.3c0.3-0.1,0.7-0.3,1-0.4c0.5-0.2,0.9-0.4,1.4-0.5c0.3-0.1,0.6-0.2,0.8-0.3c0.5-0.2,1-0.4,1.4-0.6
	c0.3-0.1,0.5-0.2,0.8-0.3c0.5-0.2,0.9-0.4,1.4-0.6c0.5-0.2,1-0.4,1.5-0.6c1.5-2.6,2.7-5,3.7-6.9c0.2-0.3,0.3-0.7,0.5-1
	c0.7-1.6,1.2-2.7,1.4-3.2c0-0.1,0.1-0.1,0.1-0.2c1.1-2.5,2-4.7,2.8-6.8c0.2-0.6,0.4-1.1,0.6-1.7c0.2-0.5,0.4-1.1,0.6-1.6
	c0.3-0.8,0.5-1.5,0.8-2.2c0.1-0.2,0.2-0.4,0.2-0.7c0.4-1.1,0.7-2.1,0.9-3c0.1-0.5,0.3-1,0.4-1.5c0.4-1.9,0.5-3.3,0.4-4.3
	c0-0.3-0.1-0.5-0.2-0.7c0-0.1-0.1-0.2-0.2-0.3c-0.1-0.1-0.1-0.2-0.2-0.3c-0.6-0.6-1.7-0.3-2.9,0.5c-0.1,0.1-0.2,0.1-0.3,0.2v0h0l0,0
	c-12.8,9.4-48.6,28.5-117.9,28.5h-1.5c-69.3-0.1-105.1-19.1-117.9-28.5c0,0,0,0,0,0v0C302.5,17.7,302.4,17.6,302.3,17.5z"/>
<path id="SVGID_x5F_33_x5F_" class="st58" d="M324.2,66.6C324.2,66.6,324.2,66.6,324.2,66.6c27.4,10.1,60.3,15.3,97.9,15.3l0.6,0
	l0.2,0c0.1,0,0.2,0,0.3,0h0.6c37.5,0,70.4-5.2,97.9-15.3l0,0"/>
<text class="st36"><textPath  xlink:href="#SVGID_x5F_33_x5F_" startOffset="0%">
<tspan  style="fill:#CCCCCC; font-family:'LucidaSansUnicode'; font-size:8.2584px; letter-spacing:86.9;">Qomba - Qomba - Qomba - Qomba</tspan></textPath>
</text>
<path class="st59" d="M625.9,872.2c-5,7.7-19,8.9-32.2,3c0.4,0.2,0.7,0.4,1.1,0.6c14.1,7.5,29.8,6.9,35.2-1.3
	c5.1-7.8-1.1-19.8-13.9-27.3C626.1,854.8,630.5,865.1,625.9,872.2z"/>
<path class="st59" d="M618.8,868.4c-4.6,6.4-16.6,7-27.7,1.5c0.3,0.2,0.6,0.4,0.9,0.6c11.7,6.9,25.2,6.9,30.2,0
	c4.7-6.5-0.2-16.9-10.8-23.9C619.7,853.5,623.1,862.5,618.8,868.4z"/>
<path class="st59" d="M642.8,894.9c-0.6,0.4-1.1,0.7-1.6,0.9c-0.5,0.2-1.1,0.3-1.8,0.3c-0.6,0-1.1-0.1-1.6-0.3
	c-0.5-0.2-0.8-0.5-1-0.9c-0.2-0.4-0.4-0.8-0.4-1.2c0-0.6,0.2-1.1,0.6-1.5c0.4-0.4,1-0.7,1.7-0.8c0.1,0,0.5-0.1,1.1-0.2
	c0.6-0.1,1.1-0.2,1.5-0.3c0.4-0.1,0.9-0.2,1.4-0.3c0-0.6-0.2-1-0.4-1.2c-0.2-0.3-0.7-0.4-1.4-0.4c-0.6,0-1,0.1-1.3,0.2
	c-0.3,0.1-0.6,0.4-0.8,0.7c-0.2,0.3-0.4,0.5-0.5,0.6c-0.1,0.1-0.3,0.1-0.6,0.1c-0.3,0-0.5-0.1-0.7-0.2c-0.2-0.2-0.3-0.3-0.3-0.6
	c0-0.4,0.1-0.7,0.4-1.1c0.3-0.3,0.8-0.6,1.4-0.9c0.6-0.2,1.4-0.3,2.3-0.3c1,0,1.8,0.1,2.4,0.3c0.6,0.2,1,0.6,1.2,1
	c0.2,0.5,0.4,1.1,0.4,1.9c0,0.5,0,0.9,0,1.3c0,0.3,0,0.7,0,1.2c0,0.4,0.1,0.8,0.2,1.2c0.1,0.4,0.2,0.7,0.2,0.8
	c0,0.2-0.1,0.4-0.3,0.6c-0.2,0.2-0.5,0.3-0.8,0.3c-0.2,0-0.5-0.1-0.7-0.3C643.3,895.6,643.1,895.3,642.8,894.9z M642.7,891.8
	c-0.3,0.1-0.8,0.2-1.5,0.4c-0.7,0.1-1.1,0.2-1.4,0.3c-0.3,0.1-0.5,0.2-0.7,0.3c-0.2,0.2-0.3,0.4-0.3,0.7c0,0.3,0.1,0.6,0.4,0.8
	c0.3,0.2,0.6,0.3,1.1,0.3c0.5,0,0.9-0.1,1.3-0.3c0.4-0.2,0.7-0.4,0.9-0.7c0.2-0.3,0.3-0.8,0.3-1.6V891.8z"/>
<path class="st59" d="M628.5,885.6v3.2c0.4-0.4,0.9-0.7,1.3-0.9c0.5-0.2,1-0.3,1.7-0.3c0.8,0,1.5,0.2,2,0.5c0.6,0.3,1,0.8,1.4,1.4
	c0.3,0.6,0.5,1.4,0.5,2.2c0,0.6-0.1,1.2-0.3,1.8c-0.2,0.5-0.4,1-0.8,1.4c-0.3,0.4-0.8,0.7-1.2,0.9c-0.5,0.2-1,0.3-1.6,0.3
	c-0.4,0-0.7,0-1-0.1c-0.3-0.1-0.6-0.2-0.8-0.3c-0.2-0.1-0.4-0.3-0.6-0.4c-0.2-0.1-0.4-0.3-0.6-0.6v0.2c0,0.4-0.1,0.7-0.3,0.9
	c-0.2,0.2-0.5,0.3-0.8,0.3c-0.3,0-0.6-0.1-0.8-0.3c-0.2-0.2-0.3-0.5-0.3-0.9v-9.2c0-0.4,0.1-0.8,0.3-1c0.2-0.2,0.5-0.3,0.8-0.3
	c0.4,0,0.6,0.1,0.8,0.3C628.4,884.9,628.5,885.2,628.5,885.6z M628.6,891.8c0,0.8,0.2,1.5,0.6,1.9c0.4,0.4,1,0.7,1.7,0.7
	c0.6,0,1.1-0.2,1.5-0.7c0.4-0.5,0.6-1.1,0.6-2c0-0.6-0.1-1-0.3-1.4c-0.2-0.4-0.4-0.7-0.8-0.9c-0.3-0.2-0.7-0.3-1.1-0.3
	c-0.4,0-0.8,0.1-1.2,0.3c-0.3,0.2-0.6,0.5-0.8,1C628.7,890.8,628.6,891.3,628.6,891.8z"/>
<path class="st59" d="M619,892v2.8c0,0.4-0.1,0.8-0.3,1c-0.2,0.2-0.5,0.3-0.9,0.3c-0.4,0-0.6-0.1-0.9-0.3c-0.2-0.2-0.3-0.6-0.3-1
	v-3.4c0-0.5,0-0.9-0.1-1.2c0-0.3-0.1-0.5-0.3-0.7c-0.2-0.2-0.5-0.3-0.8-0.3c-0.8,0-1.3,0.2-1.5,0.7c-0.2,0.5-0.4,1.2-0.4,2v2.9
	c0,0.4-0.1,0.8-0.3,1c-0.2,0.2-0.5,0.3-0.9,0.3c-0.4,0-0.6-0.1-0.9-0.3c-0.2-0.2-0.3-0.6-0.3-1v-6c0-0.4,0.1-0.7,0.3-0.9
	c0.2-0.2,0.5-0.3,0.8-0.3c0.3,0,0.6,0.1,0.8,0.3c0.2,0.2,0.3,0.5,0.3,0.8v0.2c0.4-0.4,0.8-0.8,1.3-1c0.5-0.2,1-0.3,1.5-0.3
	c0.6,0,1.1,0.1,1.5,0.3c0.4,0.2,0.8,0.5,1,1c0.4-0.4,0.8-0.8,1.3-1c0.5-0.2,1-0.3,1.5-0.3c0.6,0,1.2,0.1,1.7,0.3
	c0.5,0.2,0.8,0.5,1,1c0.2,0.4,0.3,1,0.3,1.8v4.1c0,0.4-0.1,0.8-0.3,1c-0.2,0.2-0.5,0.3-0.9,0.3c-0.4,0-0.6-0.1-0.9-0.3
	c-0.2-0.2-0.3-0.6-0.3-1v-3.5c0-0.5,0-0.8-0.1-1.1c0-0.3-0.2-0.5-0.3-0.7c-0.2-0.2-0.5-0.3-0.9-0.3c-0.3,0-0.6,0.1-0.9,0.2
	c-0.3,0.2-0.5,0.4-0.6,0.7C619.1,890.4,619,891.1,619,892z"/>
<path class="st59" d="M609.8,891.8c0,0.6-0.1,1.2-0.3,1.7c-0.2,0.5-0.5,1-0.9,1.4c-0.4,0.4-0.9,0.7-1.5,0.9
	c-0.6,0.2-1.2,0.3-1.9,0.3c-0.7,0-1.3-0.1-1.9-0.3c-0.6-0.2-1.1-0.5-1.5-0.9c-0.4-0.4-0.7-0.8-0.9-1.4c-0.2-0.5-0.3-1.1-0.3-1.7
	c0-0.6,0.1-1.2,0.3-1.8c0.2-0.5,0.5-1,0.9-1.4c0.4-0.4,0.9-0.7,1.5-0.9c0.6-0.2,1.2-0.3,1.9-0.3c0.7,0,1.3,0.1,1.9,0.3
	c0.6,0.2,1.1,0.5,1.5,0.9c0.4,0.4,0.7,0.8,0.9,1.4C609.6,890.6,609.8,891.2,609.8,891.8z M607.4,891.8c0-0.9-0.2-1.5-0.6-2
	c-0.4-0.5-1-0.7-1.7-0.7c-0.5,0-0.9,0.1-1.2,0.3c-0.3,0.2-0.6,0.5-0.8,0.9c-0.2,0.4-0.3,0.9-0.3,1.5c0,0.6,0.1,1,0.3,1.4
	c0.2,0.4,0.5,0.7,0.8,0.9c0.3,0.2,0.8,0.3,1.2,0.3c0.7,0,1.3-0.2,1.7-0.7C607.2,893.3,607.4,892.6,607.4,891.8z"/>
<path class="st59" d="M597.8,894.5c0.4,0.2,0.8,0.4,1.2,0.7c0.4,0.2,0.7,0.4,0.9,0.5c0.1,0.1,0.2,0.3,0.2,0.5c0,0.2-0.1,0.3-0.3,0.5
	c-0.2,0.2-0.4,0.2-0.6,0.2c-0.2,0-0.4-0.1-0.7-0.2c-0.3-0.1-0.6-0.3-1-0.5c-0.4-0.2-0.8-0.5-1.2-0.8c-0.8,0.4-1.8,0.6-3,0.6
	c-1,0-1.9-0.1-2.6-0.4c-0.8-0.3-1.4-0.7-1.9-1.2c-0.5-0.5-0.9-1.2-1.2-1.9c-0.3-0.7-0.4-1.5-0.4-2.4c0-0.9,0.1-1.7,0.4-2.4
	c0.3-0.7,0.7-1.3,1.2-1.9c0.5-0.5,1.2-0.9,1.9-1.2c0.8-0.3,1.6-0.4,2.6-0.4c1.3,0,2.4,0.2,3.4,0.7c0.9,0.5,1.6,1.2,2.1,2
	c0.5,0.9,0.7,1.9,0.7,3.1C599.4,892,598.8,893.4,597.8,894.5z M595.8,893.2c0.4-0.4,0.6-0.8,0.8-1.3c0.2-0.5,0.3-1.1,0.3-1.7
	c0-0.8-0.1-1.5-0.4-2.2c-0.3-0.6-0.7-1.1-1.3-1.4c-0.5-0.3-1.2-0.5-1.9-0.5c-0.5,0-1,0.1-1.4,0.3c-0.4,0.2-0.8,0.4-1.1,0.8
	c-0.3,0.3-0.6,0.8-0.7,1.3c-0.2,0.5-0.3,1.1-0.3,1.7c0,1.3,0.3,2.3,1,3c0.7,0.7,1.5,1.1,2.6,1.1c0.4,0,0.9-0.1,1.3-0.2
	c-0.3-0.2-0.6-0.4-1-0.5c-0.4-0.2-0.7-0.3-0.8-0.4c-0.2-0.1-0.2-0.2-0.2-0.4c0-0.2,0.1-0.3,0.2-0.4c0.1-0.1,0.3-0.2,0.5-0.2
	C593.7,892.1,594.5,892.5,595.8,893.2z"/>
<path class="st1" d="M424.9,102.7c-2.4,3.4-8.8,3.7-14.6,0.8c0.2,0.1,0.3,0.2,0.5,0.3c6.2,3.7,13.3,3.7,15.9,0
	c2.5-3.5-0.1-9.1-5.7-12.8C425.4,94.7,427.2,99.6,424.9,102.7z"/>
<path class="st1" d="M428.7,104.8c-2.7,4.1-10,4.7-17,1.6c0.2,0.1,0.4,0.2,0.6,0.3c7.4,4,15.7,3.7,18.5-0.7
	c2.7-4.2-0.6-10.6-7.3-14.6C428.8,95.4,431.1,101,428.7,104.8z"/>
<path class="st1" d="M413.8,116.7c0.2,0.1,0.4,0.2,0.6,0.4c0.2,0.1,0.4,0.2,0.5,0.3c0.1,0.1,0.1,0.2,0.1,0.3c0,0.1,0,0.2-0.1,0.3
	c-0.1,0.1-0.2,0.1-0.3,0.1c-0.1,0-0.2,0-0.4-0.1c-0.1-0.1-0.3-0.1-0.5-0.3c-0.2-0.1-0.4-0.3-0.6-0.4c-0.4,0.2-1,0.3-1.6,0.3
	c-0.5,0-1-0.1-1.4-0.2c-0.4-0.2-0.7-0.4-1-0.6c-0.3-0.3-0.5-0.6-0.6-1c-0.1-0.4-0.2-0.8-0.2-1.3c0-0.5,0.1-0.9,0.2-1.3
	c0.1-0.4,0.4-0.7,0.6-1c0.3-0.3,0.6-0.5,1-0.6c0.4-0.1,0.8-0.2,1.4-0.2c0.7,0,1.3,0.1,1.8,0.4c0.5,0.3,0.9,0.6,1.1,1.1
	c0.3,0.5,0.4,1,0.4,1.7C414.7,115.4,414.4,116.1,413.8,116.7z M412.8,116c0.2-0.2,0.3-0.4,0.4-0.7c0.1-0.3,0.1-0.6,0.1-0.9
	c0-0.4-0.1-0.8-0.2-1.2c-0.2-0.3-0.4-0.6-0.7-0.7c-0.3-0.2-0.6-0.2-1-0.2c-0.3,0-0.5,0-0.7,0.1c-0.2,0.1-0.4,0.2-0.6,0.4
	c-0.2,0.2-0.3,0.4-0.4,0.7c-0.1,0.3-0.1,0.6-0.1,0.9c0,0.7,0.2,1.2,0.5,1.6c0.4,0.4,0.8,0.6,1.3,0.6c0.2,0,0.5,0,0.7-0.1
	c-0.1-0.1-0.3-0.2-0.5-0.3c-0.2-0.1-0.4-0.2-0.4-0.2c-0.1-0.1-0.1-0.1-0.1-0.2c0-0.1,0-0.2,0.1-0.2c0.1-0.1,0.2-0.1,0.2-0.1
	C411.7,115.4,412.1,115.6,412.8,116z"/>
<path class="st1" d="M420.2,115.2c0,0.3-0.1,0.6-0.2,0.9c-0.1,0.3-0.3,0.5-0.5,0.7c-0.2,0.2-0.5,0.4-0.8,0.5c-0.3,0.1-0.6,0.2-1,0.2
	c-0.4,0-0.7-0.1-1-0.2c-0.3-0.1-0.6-0.3-0.8-0.5c-0.2-0.2-0.4-0.4-0.5-0.7c-0.1-0.3-0.2-0.6-0.2-0.9c0-0.3,0.1-0.7,0.2-0.9
	c0.1-0.3,0.3-0.5,0.5-0.7c0.2-0.2,0.5-0.4,0.8-0.5c0.3-0.1,0.6-0.2,1-0.2c0.4,0,0.7,0.1,1,0.2c0.3,0.1,0.6,0.3,0.8,0.5
	c0.2,0.2,0.4,0.4,0.5,0.7C420.1,114.6,420.2,114.9,420.2,115.2z M418.9,115.2c0-0.5-0.1-0.8-0.3-1.1c-0.2-0.3-0.5-0.4-0.9-0.4
	c-0.2,0-0.5,0.1-0.6,0.2c-0.2,0.1-0.3,0.3-0.4,0.5c-0.1,0.2-0.1,0.5-0.1,0.8c0,0.3,0,0.6,0.1,0.8c0.1,0.2,0.2,0.4,0.4,0.5
	c0.2,0.1,0.4,0.2,0.6,0.2c0.4,0,0.7-0.1,0.9-0.4C418.8,116,418.9,115.7,418.9,115.2z"/>
<path class="st1" d="M425,115.3v1.5c0,0.2-0.1,0.4-0.2,0.5c-0.1,0.1-0.3,0.2-0.5,0.2c-0.2,0-0.3-0.1-0.5-0.2
	c-0.1-0.1-0.2-0.3-0.2-0.5V115c0-0.3,0-0.5,0-0.7c0-0.2-0.1-0.3-0.2-0.4c-0.1-0.1-0.2-0.2-0.4-0.2c-0.4,0-0.7,0.1-0.8,0.4
	c-0.1,0.3-0.2,0.6-0.2,1.1v1.5c0,0.2-0.1,0.4-0.2,0.5c-0.1,0.1-0.3,0.2-0.5,0.2c-0.2,0-0.3-0.1-0.5-0.2c-0.1-0.1-0.2-0.3-0.2-0.5
	v-3.2c0-0.2,0.1-0.4,0.2-0.5c0.1-0.1,0.2-0.2,0.4-0.2c0.2,0,0.3,0.1,0.4,0.2c0.1,0.1,0.2,0.2,0.2,0.4v0.1c0.2-0.2,0.4-0.4,0.7-0.5
	c0.2-0.1,0.5-0.2,0.8-0.2c0.3,0,0.6,0.1,0.8,0.2c0.2,0.1,0.4,0.3,0.6,0.5c0.2-0.2,0.4-0.4,0.7-0.5c0.2-0.1,0.5-0.2,0.8-0.2
	c0.3,0,0.6,0.1,0.9,0.2c0.2,0.1,0.4,0.3,0.5,0.5c0.1,0.2,0.2,0.5,0.2,1v2.2c0,0.2-0.1,0.4-0.2,0.5c-0.1,0.1-0.3,0.2-0.5,0.2
	c-0.2,0-0.3-0.1-0.5-0.2c-0.1-0.1-0.2-0.3-0.2-0.5v-1.9c0-0.2,0-0.4,0-0.6c0-0.1-0.1-0.3-0.2-0.4c-0.1-0.1-0.3-0.1-0.5-0.1
	c-0.2,0-0.3,0-0.5,0.1c-0.1,0.1-0.3,0.2-0.3,0.4C425.1,114.5,425,114.8,425,115.3z"/>
<path class="st1" d="M430,111.9v1.7c0.2-0.2,0.5-0.4,0.7-0.5c0.2-0.1,0.5-0.2,0.9-0.2c0.4,0,0.8,0.1,1.1,0.3
	c0.3,0.2,0.5,0.4,0.7,0.8c0.2,0.3,0.3,0.7,0.3,1.2c0,0.3,0,0.7-0.1,0.9c-0.1,0.3-0.2,0.5-0.4,0.7c-0.2,0.2-0.4,0.4-0.7,0.5
	c-0.3,0.1-0.5,0.2-0.9,0.2c-0.2,0-0.4,0-0.5-0.1c-0.2,0-0.3-0.1-0.4-0.2c-0.1-0.1-0.2-0.1-0.3-0.2c-0.1-0.1-0.2-0.2-0.3-0.3v0.1
	c0,0.2-0.1,0.4-0.2,0.5c-0.1,0.1-0.3,0.2-0.4,0.2c-0.2,0-0.3-0.1-0.4-0.2c-0.1-0.1-0.2-0.3-0.2-0.5V112c0-0.2,0.1-0.4,0.2-0.5
	c0.1-0.1,0.2-0.2,0.4-0.2c0.2,0,0.3,0.1,0.4,0.2C430,111.5,430,111.7,430,111.9z M430.1,115.3c0,0.4,0.1,0.8,0.3,1
	c0.2,0.2,0.5,0.4,0.9,0.4c0.3,0,0.6-0.1,0.8-0.4c0.2-0.2,0.3-0.6,0.3-1.1c0-0.3,0-0.6-0.1-0.8c-0.1-0.2-0.2-0.4-0.4-0.5
	c-0.2-0.1-0.4-0.2-0.6-0.2c-0.2,0-0.4,0.1-0.6,0.2c-0.2,0.1-0.3,0.3-0.4,0.5C430.1,114.7,430.1,115,430.1,115.3z"/>
<path class="st1" d="M437.6,116.9c-0.3,0.2-0.6,0.4-0.9,0.5c-0.3,0.1-0.6,0.2-0.9,0.2c-0.3,0-0.6-0.1-0.8-0.2
	c-0.2-0.1-0.4-0.3-0.6-0.5c-0.1-0.2-0.2-0.4-0.2-0.6c0-0.3,0.1-0.6,0.3-0.8c0.2-0.2,0.5-0.4,0.9-0.4c0.1,0,0.3-0.1,0.6-0.1
	c0.3-0.1,0.6-0.1,0.8-0.2c0.2,0,0.5-0.1,0.7-0.2c0-0.3-0.1-0.5-0.2-0.7c-0.1-0.1-0.4-0.2-0.7-0.2c-0.3,0-0.5,0-0.7,0.1
	c-0.2,0.1-0.3,0.2-0.4,0.4c-0.1,0.2-0.2,0.3-0.2,0.3c0,0.1-0.1,0.1-0.3,0.1c-0.1,0-0.3,0-0.4-0.1c-0.1-0.1-0.1-0.2-0.1-0.3
	c0-0.2,0.1-0.4,0.2-0.6c0.2-0.2,0.4-0.3,0.7-0.5c0.3-0.1,0.7-0.2,1.2-0.2c0.5,0,1,0.1,1.3,0.2c0.3,0.1,0.5,0.3,0.7,0.6
	c0.1,0.3,0.2,0.6,0.2,1c0,0.3,0,0.5,0,0.7c0,0.2,0,0.4,0,0.6c0,0.2,0,0.4,0.1,0.7c0.1,0.2,0.1,0.4,0.1,0.4c0,0.1-0.1,0.2-0.2,0.3
	c-0.1,0.1-0.3,0.1-0.4,0.1c-0.1,0-0.3-0.1-0.4-0.2C437.8,117.3,437.7,117.1,437.6,116.9z M437.5,115.3c-0.2,0.1-0.4,0.1-0.8,0.2
	c-0.3,0.1-0.6,0.1-0.7,0.1c-0.1,0-0.3,0.1-0.4,0.2c-0.1,0.1-0.2,0.2-0.2,0.4c0,0.2,0.1,0.3,0.2,0.4c0.1,0.1,0.3,0.2,0.6,0.2
	c0.2,0,0.5,0,0.7-0.1c0.2-0.1,0.4-0.2,0.5-0.4c0.1-0.2,0.2-0.5,0.2-0.8V115.3z"/>
<g class="st60">
	<g>
		<path class="st61" d="M580.5,37.2c-0.1,0.4-0.2,0.8-0.3,1.2"/>
		<path class="st62" d="M579.5,41c-2.2,7.9-5.2,15.7-8.9,23.4"/>
		<path class="st61" d="M570,65.5C570,65.5,570,65.5,570,65.5c-0.2,0.4-0.4,0.8-0.6,1.1"/>
	</g>
</g>
<g class="st60">
	<g>
		<path class="st61" d="M275.8,37.2c0.1,0.4,0.2,0.8,0.3,1.2"/>
		<path class="st62" d="M276.8,41c2.2,7.9,5.2,15.7,8.9,23.4"/>
		<path class="st61" d="M286.3,65.5C286.3,65.5,286.4,65.6,286.3,65.5c0.2,0.4,0.4,0.8,0.6,1.1"/>
	</g>
</g>
<path class="st63" d="M166.3,912.1c2.5,1.6,6.6,2.9,11.5,4c4.2,0.9,8.9,1.6,13.9,2.1c4.9,0.6,10,1,14.9,1.3
	c21.9,2.3,55.5-5,97.7-2.8c29.7,1.6,63.7,3.7,101,5.3c2.4,0.1,9.1,0.5,15.7,0.5c7.6,0,15.2-0.5,18.4-0.6c36.1-1.5,69.1-3.6,98-5.1
	c42.3-2.2,75.8,5.1,97.7,2.8c4.8-0.3,10-0.7,14.9-1.3c4.9-0.5,9.7-1.2,13.9-2.1c5-1.1,9.2-2.4,11.7-4.1"/>
<g class="st60">
	<g>
		<line class="st61" x1="32.5" y1="363.2" x2="33.5" y2="363.9"/>
		<path class="st64" d="M35.5,365.3c0.8,0.5,1.6,1,2.5,1.4l1.2,0.6c0.4,0.2,0.7,0.4,1.1,0.6c10,5.7,33.2,14.9,62.3,22.8l3,0.8
			c18.2,4.9,45.2,11,70.9,12.5"/>
		<line class="st61" x1="177.7" y1="404.1" x2="179" y2="404.2"/>
	</g>
</g>
<g class="st60">
	<g>
		<path class="st61" d="M512.4,77.5c-0.4,0.1-0.8,0.2-1.2,0.4"/>
		<path class="st65" d="M508.8,78.6c-25.1,7.3-53.9,11-85.9,11h-1.5c-32.6,0-61.9-3.9-87.3-11.4"/>
		<path class="st61" d="M332.9,77.8c-0.4-0.1-0.8-0.2-1.2-0.4"/>
	</g>
</g>
<g class="st60">
	<g>
		<line class="st61" x1="665.4" y1="404.2" x2="666.6" y2="404.1"/>
		<path class="st64" d="M669.1,403.9c25.3-1.7,51.8-7.6,69.7-12.4c0.6-0.2,3.1-0.8,3.1-0.8c29-7.9,52.2-17.1,62.3-22.8
			c0.3-0.2,0.6-0.3,1-0.5l1.3-0.6c1.3-0.7,2.5-1.4,3.5-2.1"/>
		<line class="st61" x1="810.9" y1="363.9" x2="811.9" y2="363.1"/>
	</g>
</g>
<g class="st60">
	<g>
		<path class="st61" d="M167.6,907.6c0.4,0.2,0.7,0.4,1.1,0.6"/>
		<path class="st66" d="M171,909.2c1.8,0.6,3.9,1,6.8,1.6c4.2,0.9,8.9,1.6,13.9,2.1c4.9,0.6,10,1,14.9,1.3c21.9,2.3,55.5-5,97.7-2.8
			c29.7,1.6,63.7,3.7,101,5.3c2.4,0.1,9.1,0.5,15.7,0.5c7.6,0,15.2-0.5,18.4-0.6c36.1-1.5,69.1-3.6,98-5.1
			c42.3-2.2,75.8,5.1,97.7,2.8c4.8-0.3,10-0.7,14.9-1.3c4.9-0.5,9.7-1.2,13.9-2.1c3.8-0.8,7-1.7,9.5-2.9"/>
		<path class="st61" d="M674.4,907.4c0.4-0.2,0.7-0.4,1.1-0.6"/>
	</g>
</g>
<g class="st60">
	<g>
		<path class="st61" d="M135.9,104.3c0.1,0.4,0.2,0.8,0.1,1.2"/>
		<path class="st67" d="M135.2,107.9c-1.5,2.6-4.4,5-4.4,5c-5,4.5-6.3,12.3-3.2,18.5l1.5,3.1c0.1,0.1,0.1,0.3,0.2,0.4
			c0.4,0.9,0.9,1.8,1.4,2.7"/>
		<path class="st61" d="M131.2,138.8c0.2,0.4,0.4,0.7,0.6,1.1"/>
	</g>
</g>
<g class="st60">
	<g>
		<path class="st61" d="M708.4,104.3c-0.1,0.4-0.2,0.8-0.1,1.2"/>
		<path class="st68" d="M709.1,107.9c1.5,2.6,4.4,5,4.4,5c5,4.5,6.3,12.3,3.2,18.5l-1.5,3.1c-0.1,0.1-0.1,0.3-0.2,0.4
			c-0.4,0.8-0.8,1.7-1.3,2.6"/>
		<path class="st61" d="M713.1,138.6c-0.2,0.4-0.4,0.7-0.6,1.1"/>
	</g>
</g>
<g class="st60">
	<g>
		<path class="st61" d="M188.6,393.5c0.3-0.3,0.5-0.6,0.8-1"/>
		<path class="st69" d="M190.7,390.4c2.7-5.5,2.3-13,2.1-15.2c-9.5-118.6-40.5-192.4-57.6-228.2"/>
		<path class="st61" d="M134.7,145.9c-0.2-0.4-0.4-0.8-0.5-1.1c0.3-0.2,0.7-0.5,1-0.7"/>
		<path class="st70" d="M137.3,142.7c15.7-9.9,36.4-17.7,47-21.6c2.1-0.8,3.8-1.4,5-1.9l1.4-0.5c0.9-0.3,1.7-0.7,2.4-1
			c34.6-13.9,64.2-29,88.3-44.9"/>
		<path class="st61" d="M282.4,72.1c0.3-0.2,0.7-0.5,1-0.7c0.2,0.4,0.4,0.7,0.6,1.1"/>
		<path class="st71" d="M285.3,74.6c0.3,0.5,0.6,1,0.9,1.5l0.1,0.1c10,15.3,33.4,36.8,61.2,48.1c17.2,6.9,26.3,14.7,26.4,14.8
			l1.6,1.4h42.1h9.1h39.8l2.3,0l1.6-1.4c0.1-0.1,9.2-7.8,26.4-14.8c27.8-11.2,51.2-32.8,61.2-48.1l0.1-0.1c0.5-0.8,1-1.7,1.5-2.5"/>
		<path class="st61" d="M560.3,72.5c0.2-0.4,0.4-0.7,0.6-1.1c0.3,0.2,0.7,0.5,1,0.7"/>
		<path class="st72" d="M564,73.5c23.8,15.6,53.1,30.5,87.2,44.2c0.7,0.3,1.6,0.6,2.4,1l1.4,0.5c1.2,0.5,2.9,1.1,5,1.9
			c10.9,4.1,32.2,12,48,22.3"/>
		<path class="st61" d="M709.1,144.1c0.3,0.2,0.7,0.5,1,0.7c-0.2,0.4-0.4,0.7-0.5,1.1"/>
		<path class="st73" d="M708.5,148.1c-17.2,36.2-47.6,109.7-57,227.1c-0.2,2.3-0.6,10.7,2.7,16.2"/>
		<path class="st61" d="M654.9,392.5c0.2,0.3,0.5,0.7,0.8,1"/>
	</g>
</g>
<g>
	<defs>
		<path id="SVGID_34_" d="M675.8,903.6c-1.1-6.1-1.8-12.4-2.3-18.6c-6.6-72.1-17.8-173.8-19.5-197.6c-1.8-23.8-5.3-51.3-4.7-80.8
			c0.7-20.1-0.6-37.2-0.2-57.1c-2.7-30.2,1.3-91.2,1.3-91.2c0-17.7-1-34,2.2-48.9c0,0,0,0,0-0.1c0.9-8.4,1.9-16.7,3-24.7v0
			c9-128.1,41.9-202.4,60-240c12-14,10.5-33.6,2-37c-1.4-0.6-52.9-23.6-54-24c-50.2-20.2-78.3-39.9-94-51c0.3-0.5-14,33-17.4,38.7
			c-9.3,15.4-32.7,35.5-58.6,46c-18.5,7.5-28,15.8-28,15.8h-44.2c0,0-0.1,0-0.1,0v0c0,0,0,0,0,0c0,0,0,0,0,0v0c0,0-0.1,0-0.1,0
			h-44.2c0,0-9.6-8.3-28-15.8c-25.9-10.4-48.8-30.9-58.6-46c-2.5-4-15.8-39.2-15.6-38.7c-15.7,11.1-86.6,47.4-88,48
			c-28,18-66,16-66,44c25,84,57.2,131.9,66.1,260v0c1.1,8,2.1,16.3,3,24.7c0,0,0,0,0,0.1c3.2,14.9,2.2,31.2,2.2,48.9
			c0,0,4,61,1.3,91.2c0.3,19.9-0.9,37-0.2,57.1c0.5,29.4-3,57-4.7,80.8c-1.8,23.8-12.9,125.4-19.5,197.6c-0.6,6.3-1.3,12.5-2.3,18.6
			c-1.2,7.2-6,27.5-2.1,31.4c2.2,2.2,6.9,3.8,13,5.1c4.2,0.9,8.9,1.6,13.9,2.1c5,0.5,10.1,0.9,14.9,1.3c22,2.3,55.6-5,98-2.8
			c33.9,1.8,73.4,4.3,116.9,5.9h0h0h0c43.5-1.5,83-4.1,116.9-5.9c42.4-2.2,76.1,5.1,98,2.8c4.9-0.3,10-0.7,14.9-1.3
			c5-0.6,9.7-1.3,13.9-2.1c6-1.3,10.8-2.9,13-5.1C681.8,931.2,677.1,910.8,675.8,903.6z"/>
	</defs>
	<clipPath id="SVGID_35_">
		<use xlink:href="#SVGID_34_"  style="overflow:visible;"/>
	</clipPath>
	<g class="st74">
		<path class="st75" d="M583,41.1"/>
		<linearGradient id="SVGID_36_" gradientUnits="userSpaceOnUse" x1="576.3822" y1="154.0762" x2="736.7438" y2="154.0762">
			<stop  offset="2.090417e-02" style="stop-color:#231F20;stop-opacity:0.3"/>
			<stop  offset="0.1123" style="stop-color:#2C2829;stop-opacity:0.3653"/>
			<stop  offset="0.2607" style="stop-color:#434041;stop-opacity:0.4714"/>
			<stop  offset="0.4475" style="stop-color:#6A6768;stop-opacity:0.605"/>
			<stop  offset="0.6655" style="stop-color:#9F9E9E;stop-opacity:0.7609"/>
			<stop  offset="0.9069" style="stop-color:#E3E2E3;stop-opacity:0.9335"/>
			<stop  offset="1" style="stop-color:#FFFFFF"/>
		</linearGradient>
		<polygon class="st76" points="736.7,128.6 656.6,105.6 576.4,82.6 597.7,154.1 619,225.5 677.9,177.1 		"/>
		<linearGradient id="SVGID_37_" gradientUnits="userSpaceOnUse" x1="580.3416" y1="135.131" x2="740.7032" y2="135.131">
			<stop  offset="2.090417e-02" style="stop-color:#231F20;stop-opacity:0.3"/>
			<stop  offset="0.1123" style="stop-color:#2C2829;stop-opacity:0.3653"/>
			<stop  offset="0.2607" style="stop-color:#434041;stop-opacity:0.4714"/>
			<stop  offset="0.4475" style="stop-color:#6A6768;stop-opacity:0.605"/>
			<stop  offset="0.6655" style="stop-color:#9F9E9E;stop-opacity:0.7609"/>
			<stop  offset="0.9069" style="stop-color:#E3E2E3;stop-opacity:0.9335"/>
			<stop  offset="1" style="stop-color:#FFFFFF"/>
		</linearGradient>
		<polygon class="st77" points="740.7,109.7 660.5,86.7 580.3,63.7 601.7,135.1 623,206.6 681.8,158.1 		"/>
		<linearGradient id="SVGID_38_" gradientUnits="userSpaceOnUse" x1="586.2806" y1="97.2405" x2="746.6423" y2="97.2405">
			<stop  offset="2.090417e-02" style="stop-color:#231F20;stop-opacity:0.3"/>
			<stop  offset="1" style="stop-color:#231F20;stop-opacity:0"/>
		</linearGradient>
		<polygon class="st78" points="746.6,71.8 666.5,48.8 586.3,25.8 607.6,97.2 628.9,168.7 687.8,120.2 		"/>
		<linearGradient id="SVGID_39_" gradientUnits="userSpaceOnUse" x1="592.2197" y1="76.4008" x2="752.5814" y2="76.4008">
			<stop  offset="2.090417e-02" style="stop-color:#231F20;stop-opacity:0.3"/>
			<stop  offset="1" style="stop-color:#231F20;stop-opacity:0"/>
		</linearGradient>
		<polygon class="st79" points="752.6,51 672.4,28 592.2,5 613.5,76.4 634.8,147.8 693.7,99.4 		"/>
		
			<radialGradient id="SVGID_40_" cx="-255.2487" cy="-228.976" r="39.1305" gradientTransform="matrix(1.9797 0 0 1.8945 1177.715 493.1502)" gradientUnits="userSpaceOnUse">
			<stop  offset="0.5744" style="stop-color:#130C0E"/>
			<stop  offset="0.7977" style="stop-color:#130C0E"/>
			<stop  offset="1" style="stop-color:#130C0E"/>
		</radialGradient>
		<polygon class="st80" points="752.6,33.9 672.4,10.9 592.2,-12.1 613.5,59.4 634.8,130.8 693.7,82.4 		"/>
		<linearGradient id="SVGID_41_" gradientUnits="userSpaceOnUse" x1="479.3771" y1="97.2405" x2="639.7388" y2="97.2405">
			<stop  offset="2.090417e-02" style="stop-color:#231F20;stop-opacity:0.3"/>
			<stop  offset="1" style="stop-color:#231F20;stop-opacity:0"/>
		</linearGradient>
		<polygon class="st81" points="639.7,71.8 559.6,48.8 479.4,25.8 500.7,97.2 522,168.7 580.9,120.2 		"/>
		
			<radialGradient id="SVGID_42_" cx="-359.2487" cy="-173.976" r="39.1305" gradientTransform="matrix(1.9797 0 0 1.8945 1177.715 493.1502)" gradientUnits="userSpaceOnUse">
			<stop  offset="0.5744" style="stop-color:#130C0E"/>
			<stop  offset="0.7977" style="stop-color:#130C0E"/>
			<stop  offset="1" style="stop-color:#130C0E"/>
		</radialGradient>
		<polygon class="st82" points="546.7,138.1 466.5,115.1 386.3,92.1 407.6,163.5 429,235 487.8,186.6 		"/>
		<linearGradient id="SVGID_43_" gradientUnits="userSpaceOnUse" x1="392.2706" y1="135.131" x2="552.6323" y2="135.131">
			<stop  offset="2.090417e-02" style="stop-color:#231F20;stop-opacity:0.3"/>
			<stop  offset="1" style="stop-color:#231F20;stop-opacity:0"/>
		</linearGradient>
		<polygon class="st83" points="552.6,109.7 472.5,86.7 392.3,63.7 413.6,135.1 434.9,206.6 493.8,158.1 		"/>
		<linearGradient id="SVGID_44_" gradientUnits="userSpaceOnUse" x1="368.5143" y1="70.7172" x2="528.8759" y2="70.7172">
			<stop  offset="2.090417e-02" style="stop-color:#231F20;stop-opacity:0.3"/>
			<stop  offset="1" style="stop-color:#231F20;stop-opacity:0"/>
		</linearGradient>
		<polygon class="st84" points="528.9,45.3 448.7,22.3 368.5,-0.7 389.8,70.7 411.1,142.2 470,93.7 		"/>
		<linearGradient id="SVGID_45_" gradientUnits="userSpaceOnUse" x1="404.1488" y1="89.6624" x2="564.5104" y2="89.6624">
			<stop  offset="2.090417e-02" style="stop-color:#231F20;stop-opacity:0.3"/>
			<stop  offset="0.1123" style="stop-color:#2C2829;stop-opacity:0.3653"/>
			<stop  offset="0.2607" style="stop-color:#434041;stop-opacity:0.4714"/>
			<stop  offset="0.4475" style="stop-color:#6A6768;stop-opacity:0.605"/>
			<stop  offset="0.6655" style="stop-color:#9F9E9E;stop-opacity:0.7609"/>
			<stop  offset="0.9069" style="stop-color:#E3E2E3;stop-opacity:0.9335"/>
			<stop  offset="1" style="stop-color:#FFFFFF"/>
		</linearGradient>
		<polygon class="st85" points="564.5,64.2 484.3,41.2 404.1,18.2 425.5,89.7 446.8,161.1 505.6,112.7 		"/>
		<linearGradient id="SVGID_46_" gradientUnits="userSpaceOnUse" x1="293.2859" y1="83.9789" x2="453.6475" y2="83.9789">
			<stop  offset="2.090417e-02" style="stop-color:#231F20;stop-opacity:0.3"/>
			<stop  offset="1" style="stop-color:#231F20;stop-opacity:0"/>
		</linearGradient>
		<polygon class="st86" points="453.6,58.5 373.5,35.5 293.3,12.5 314.6,84 335.9,155.4 394.8,107 		"/>
		<linearGradient id="SVGID_47_" gradientUnits="userSpaceOnUse" x1="227.9559" y1="63.1391" x2="388.3176" y2="63.1391">
			<stop  offset="2.090417e-02" style="stop-color:#231F20;stop-opacity:0.3"/>
			<stop  offset="1" style="stop-color:#231F20;stop-opacity:0"/>
		</linearGradient>
		<polygon class="st87" points="388.3,37.7 308.1,14.7 228,-8.3 249.3,63.1 270.6,134.6 329.4,86.1 		"/>
		
			<radialGradient id="SVGID_48_" cx="-468.2487" cy="-254.976" r="39.1305" gradientTransform="matrix(1.9797 0 0 1.8945 1177.715 493.1502)" gradientUnits="userSpaceOnUse">
			<stop  offset="0.5744" style="stop-color:#130C0E"/>
			<stop  offset="0.7977" style="stop-color:#130C0E"/>
			<stop  offset="1" style="stop-color:#130C0E"/>
		</radialGradient>
		<polygon class="st88" points="330.9,-15.3 250.7,-38.3 170.5,-61.3 191.9,10.1 213.2,81.5 272,33.1 		"/>
		<linearGradient id="SVGID_49_" gradientUnits="userSpaceOnUse" x1="125.0118" y1="40.4048" x2="285.3735" y2="40.4048">
			<stop  offset="2.090417e-02" style="stop-color:#231F20;stop-opacity:0.3"/>
			<stop  offset="1" style="stop-color:#231F20;stop-opacity:0"/>
		</linearGradient>
		<polygon class="st89" points="285.4,15 205.2,-8 125,-31 146.3,40.4 167.6,111.8 226.5,63.4 		"/>
		<linearGradient id="SVGID_50_" gradientUnits="userSpaceOnUse" x1="85.418" y1="80.1898" x2="245.7796" y2="80.1898">
			<stop  offset="2.090417e-02" style="stop-color:#231F20;stop-opacity:0.3"/>
			<stop  offset="1" style="stop-color:#231F20;stop-opacity:0"/>
		</linearGradient>
		<polygon class="st90" points="245.8,54.8 165.6,31.8 85.4,8.7 106.7,80.2 128,151.6 186.9,103.2 		"/>
		<linearGradient id="SVGID_51_" gradientUnits="userSpaceOnUse" x1="47.8038" y1="104.8186" x2="208.1654" y2="104.8186">
			<stop  offset="2.090417e-02" style="stop-color:#231F20;stop-opacity:0.3"/>
			<stop  offset="1" style="stop-color:#231F20;stop-opacity:0"/>
		</linearGradient>
		<polygon class="st91" points="208.2,79.4 128,56.4 47.8,33.4 69.1,104.8 90.4,176.3 149.3,127.8 		"/>
		<linearGradient id="SVGID_52_" gradientUnits="userSpaceOnUse" x1="267.9494" y1="188.1114" x2="428.7266" y2="188.1114">
			<stop  offset="2.090417e-02" style="stop-color:#231F20;stop-opacity:0.3"/>
			<stop  offset="1" style="stop-color:#231F20;stop-opacity:0"/>
		</linearGradient>
		<polygon class="st92" points="267.9,214.7 348.3,237 428.7,259.4 406.8,188.1 384.8,116.9 326.4,165.8 		"/>
		<linearGradient id="SVGID_53_" gradientUnits="userSpaceOnUse" x1="214.4977" y1="172.9552" x2="375.2748" y2="172.9552">
			<stop  offset="2.090417e-02" style="stop-color:#231F20;stop-opacity:0.3"/>
			<stop  offset="1" style="stop-color:#231F20;stop-opacity:0"/>
		</linearGradient>
		<polygon class="st93" points="214.5,199.6 294.9,221.9 375.3,244.2 353.3,173 331.3,101.7 272.9,150.6 		"/>
		<linearGradient id="SVGID_54_" gradientUnits="userSpaceOnUse" x1="196.6804" y1="140.7483" x2="357.4576" y2="140.7483">
			<stop  offset="2.090417e-02" style="stop-color:#231F20;stop-opacity:0.3"/>
			<stop  offset="1" style="stop-color:#231F20;stop-opacity:0"/>
		</linearGradient>
		<polygon class="st94" points="196.7,167.3 277.1,189.7 357.5,212 335.5,140.7 313.5,69.5 255.1,118.4 		"/>
		
			<radialGradient id="SVGID_55_" cx="-475.9419" cy="-193.011" r="39.1388" gradientTransform="matrix(1.9797 0 0 1.8945 1177.715 493.1502)" gradientUnits="userSpaceOnUse">
			<stop  offset="0.5744" style="stop-color:#130C0E"/>
			<stop  offset="0.7977" style="stop-color:#130C0E"/>
			<stop  offset="1" style="stop-color:#130C0E"/>
		</radialGradient>
		<polygon class="st95" points="155.1,154.1 235.5,176.4 315.9,198.7 293.9,127.5 272,56.2 213.5,105.2 		"/>
		<linearGradient id="SVGID_56_" gradientUnits="userSpaceOnUse" x1="120.8345" y1="223.555" x2="262.5789" y2="223.555">
			<stop  offset="2.090417e-02" style="stop-color:#231F20;stop-opacity:0.3"/>
			<stop  offset="1" style="stop-color:#231F20;stop-opacity:0"/>
		</linearGradient>
		<polygon class="st96" points="122.6,297.8 192.6,253.9 262.6,209.9 191.7,179.6 120.8,149.3 121.7,223.6 		"/>
		
			<radialGradient id="SVGID_57_" cx="-502.0608" cy="-154.3025" r="37.5454" gradientTransform="matrix(1.9797 0 0 1.8945 1177.715 493.1502)" gradientUnits="userSpaceOnUse">
			<stop  offset="0.5744" style="stop-color:#130C0E"/>
			<stop  offset="0.7977" style="stop-color:#130C0E"/>
			<stop  offset="1" style="stop-color:#130C0E"/>
		</radialGradient>
		<polygon class="st97" points="114.7,275.1 184.7,231.2 254.7,187.2 183.8,156.9 112.9,126.5 113.8,200.8 		"/>
		<linearGradient id="SVGID_58_" gradientUnits="userSpaceOnUse" x1="131.67" y1="247.0831" x2="286.5666" y2="247.0831">
			<stop  offset="2.090417e-02" style="stop-color:#231F20;stop-opacity:0.3"/>
			<stop  offset="1" style="stop-color:#231F20;stop-opacity:0"/>
		</linearGradient>
		<polygon class="st98" points="131.7,259.4 209.1,289.8 286.6,320.2 272.7,247.1 258.7,174 195.2,216.7 		"/>
		
			<radialGradient id="SVGID_59_" cx="-501.2657" cy="-106.8835" r="38.8521" gradientTransform="matrix(1.9797 0 0 1.8945 1177.715 493.1502)" gradientUnits="userSpaceOnUse">
			<stop  offset="0.5744" style="stop-color:#130C0E"/>
			<stop  offset="0.7977" style="stop-color:#130C0E"/>
			<stop  offset="1" style="stop-color:#130C0E"/>
		</radialGradient>
		<polygon class="st99" points="107.9,303 185.4,333.4 262.8,363.7 248.9,290.7 235,217.6 171.4,260.3 		"/>
		<linearGradient id="SVGID_60_" gradientUnits="userSpaceOnUse" x1="129.6903" y1="406.223" x2="284.5869" y2="406.223">
			<stop  offset="2.090417e-02" style="stop-color:#231F20;stop-opacity:0.3"/>
			<stop  offset="0.1123" style="stop-color:#2C2829;stop-opacity:0.3653"/>
			<stop  offset="0.2607" style="stop-color:#434041;stop-opacity:0.4714"/>
			<stop  offset="0.4475" style="stop-color:#6A6768;stop-opacity:0.605"/>
			<stop  offset="0.6655" style="stop-color:#9F9E9E;stop-opacity:0.7609"/>
			<stop  offset="0.9069" style="stop-color:#E3E2E3;stop-opacity:0.9335"/>
			<stop  offset="1" style="stop-color:#FFFFFF"/>
		</linearGradient>
		<polygon class="st100" points="129.7,418.5 207.1,448.9 284.6,479.3 270.7,406.2 256.8,333.1 193.2,375.8 		"/>
		<linearGradient id="SVGID_61_" gradientUnits="userSpaceOnUse" x1="68.3198" y1="392.9613" x2="223.2164" y2="392.9613">
			<stop  offset="2.090417e-02" style="stop-color:#231F20;stop-opacity:0.3"/>
			<stop  offset="1" style="stop-color:#231F20;stop-opacity:0"/>
		</linearGradient>
		<polygon class="st101" points="68.3,405.3 145.8,435.7 223.2,466.1 209.3,393 195.4,319.9 131.9,362.6 		"/>
		<linearGradient id="SVGID_62_" gradientUnits="userSpaceOnUse" x1="32.6853" y1="375.9106" x2="187.5819" y2="375.9106">
			<stop  offset="2.090417e-02" style="stop-color:#231F20;stop-opacity:0.3"/>
			<stop  offset="1" style="stop-color:#231F20;stop-opacity:0"/>
		</linearGradient>
		<polygon class="st102" points="32.7,388.2 110.1,418.6 187.6,449 173.7,375.9 159.8,302.8 96.2,345.5 		"/>
		<linearGradient id="SVGID_63_" gradientUnits="userSpaceOnUse" x1="6.9493" y1="351.2818" x2="161.8459" y2="351.2818">
			<stop  offset="2.090417e-02" style="stop-color:#231F20;stop-opacity:0.3"/>
			<stop  offset="1" style="stop-color:#231F20;stop-opacity:0"/>
		</linearGradient>
		<polygon class="st103" points="6.9,363.6 84.4,394 161.8,424.4 147.9,351.3 134,278.2 70.5,320.9 		"/>
		<linearGradient id="SVGID_64_" gradientUnits="userSpaceOnUse" x1="-2.9492" y1="463.0586" x2="151.9474" y2="463.0586">
			<stop  offset="2.090417e-02" style="stop-color:#231F20;stop-opacity:0.3"/>
			<stop  offset="0.1123" style="stop-color:#2C2829;stop-opacity:0.3653"/>
			<stop  offset="0.2607" style="stop-color:#434041;stop-opacity:0.4714"/>
			<stop  offset="0.4475" style="stop-color:#6A6768;stop-opacity:0.605"/>
			<stop  offset="0.6655" style="stop-color:#9F9E9E;stop-opacity:0.7609"/>
			<stop  offset="0.9069" style="stop-color:#E3E2E3;stop-opacity:0.9335"/>
			<stop  offset="1" style="stop-color:#FFFFFF"/>
		</linearGradient>
		<polygon class="st104" points="-2.9,475.4 74.5,505.8 151.9,536.2 138,463.1 124.1,390 60.6,432.7 		"/>
		<linearGradient id="SVGID_65_" gradientUnits="userSpaceOnUse" x1="14.868" y1="434.6408" x2="169.7646" y2="434.6408">
			<stop  offset="2.090417e-02" style="stop-color:#231F20;stop-opacity:0.3"/>
			<stop  offset="1" style="stop-color:#231F20;stop-opacity:0"/>
		</linearGradient>
		<polygon class="st105" points="14.9,446.9 92.3,477.3 169.8,507.7 155.8,434.6 141.9,361.5 78.4,404.2 		"/>
		<linearGradient id="SVGID_66_" gradientUnits="userSpaceOnUse" x1="34.665" y1="410.012" x2="189.5616" y2="410.012">
			<stop  offset="2.090417e-02" style="stop-color:#231F20;stop-opacity:0.3"/>
			<stop  offset="1" style="stop-color:#231F20;stop-opacity:0"/>
		</linearGradient>
		<polygon class="st106" points="34.7,422.3 112.1,452.7 189.6,483.1 175.6,410 161.7,336.9 98.2,379.6 		"/>
		<linearGradient id="SVGID_67_" gradientUnits="userSpaceOnUse" x1="265.9697" y1="188.1114" x2="426.7469" y2="188.1114">
			<stop  offset="2.090417e-02" style="stop-color:#FFFFFF;stop-opacity:0.3"/>
			<stop  offset="1" style="stop-color:#FFFFFF"/>
		</linearGradient>
		<polygon class="st107" points="266,214.7 346.4,237 426.7,259.4 404.8,188.1 382.8,116.9 324.4,165.8 		"/>
		
			<radialGradient id="SVGID_68_" cx="-296.2487" cy="-249.976" r="39.1305" gradientTransform="matrix(1.9797 0 0 1.8945 1177.715 493.1502)" gradientUnits="userSpaceOnUse">
			<stop  offset="0.5744" style="stop-color:#130C0E"/>
			<stop  offset="0.7977" style="stop-color:#130C0E"/>
			<stop  offset="1" style="stop-color:#130C0E"/>
		</radialGradient>
		<polygon class="st108" points="671.4,-5.9 591.2,-28.9 511.1,-51.9 532.4,19.6 553.7,91 612.5,42.6 		"/>
	</g>
</g>
</svg>
