<?xml version="1.0" encoding="utf-8"?>
<!-- Generator: Adobe Illustrator 24.1.0, SVG Export Plug-In . SVG Version: 6.00 Build 0)  -->
<svg version="1.1" id="Capa_1" xmlns="http://www.w3.org/2000/svg" xmlns:xlink="http://www.w3.org/1999/xlink" x="0px" y="0px"
	 viewBox="0 0 850.4 963.8" style="enable-background:new 0 0 850.4 963.8;" xml:space="preserve">
<style type="text/css">
	.st0{fill:#484A99;}
	.st1{fill:#E7EAEF;stroke:#BCC0C8;stroke-miterlimit:10;}
	.st2{fill:#FCDE1D;}
	.st3{fill:#008B3D;}
	.st4{fill:#E22120;stroke:#292A27;stroke-width:0.75;stroke-miterlimit:10;}
	.st5{fill:url(#SVGID_1_);}
	.st6{fill:url(#SVGID_2_);}
	.st7{opacity:0.13;}
	.st8{filter:url(#Adobe_OpacityMaskFilter);}
	.st9{mask:url(#SVGID_3_);}
	.st10{fill:url(#SVGID_4_);}
	.st11{filter:url(#Adobe_OpacityMaskFilter_1_);}
	.st12{mask:url(#SVGID_5_);}
	.st13{fill:url(#SVGID_6_);}
	.st14{filter:url(#Adobe_OpacityMaskFilter_2_);}
	.st15{mask:url(#SVGID_7_);}
	.st16{fill:url(#SVGID_8_);}
	.st17{filter:url(#Adobe_OpacityMaskFilter_3_);}
	.st18{mask:url(#SVGID_9_);}
	.st19{fill:url(#SVGID_10_);}
	.st20{opacity:0.54;}
	.st21{filter:url(#Adobe_OpacityMaskFilter_4_);}
	.st22{mask:url(#SVGID_11_);}
	.st23{filter:url(#Adobe_OpacityMaskFilter_5_);}
	.st24{fill:url(#SVGID_12_);}
	.st25{filter:url(#Adobe_OpacityMaskFilter_6_);}
	.st26{mask:url(#SVGID_13_);}
	.st27{filter:url(#Adobe_OpacityMaskFilter_7_);}
	.st28{fill:url(#SVGID_14_);}
	.st29{filter:url(#Adobe_OpacityMaskFilter_8_);}
	.st30{mask:url(#SVGID_15_);}
	.st31{fill:url(#SVGID_16_);}
	.st32{opacity:0.93;}
	.st33{filter:url(#Adobe_OpacityMaskFilter_9_);}
	.st34{mask:url(#SVGID_17_);}
	.st35{fill:url(#SVGID_18_);}
	.st36{opacity:0.83;}
	.st37{filter:url(#Adobe_OpacityMaskFilter_10_);}
	.st38{mask:url(#SVGID_19_);}
	.st39{fill:url(#SVGID_20_);}
	.st40{filter:url(#Adobe_OpacityMaskFilter_11_);}
	.st41{mask:url(#SVGID_21_);}
	.st42{fill:url(#SVGID_22_);}
	.st43{filter:url(#Adobe_OpacityMaskFilter_12_);}
	.st44{mask:url(#SVGID_23_);}
	.st45{fill:url(#SVGID_24_);}
	.st46{opacity:0.29;}
	.st47{fill:url(#SVGID_25_);}
	.st48{fill:url(#SVGID_26_);}
	.st49{filter:url(#Adobe_OpacityMaskFilter_13_);}
	.st50{mask:url(#SVGID_27_);}
	.st51{filter:url(#Adobe_OpacityMaskFilter_14_);}
	.st52{fill:url(#SVGID_28_);}
	.st53{fill:url(#SVGID_29_);}
	.st54{opacity:0.36;fill:url(#SVGID_30_);}
	.st55{fill:none;}
	.st56{fill:#2F3331;}
	.st57{fill:#FFFFFF;}
	.st58{opacity:0.5;}
	.st59{fill:none;stroke:#242422;stroke-width:0.5;stroke-linecap:round;stroke-miterlimit:10;}
	.st60{fill:none;stroke:#242422;stroke-width:0.5;stroke-linecap:round;stroke-miterlimit:10;stroke-dasharray:2.6356,2.6356;}
	.st61{fill:none;stroke:#242422;stroke-width:0.5;stroke-linejoin:round;stroke-miterlimit:10;}
	.st62{fill:none;stroke:#242422;stroke-width:0.5;stroke-linecap:round;stroke-miterlimit:10;stroke-dasharray:2.4725,2.4725;}
	.st63{fill:none;stroke:#242422;stroke-width:0.5;stroke-linecap:round;stroke-miterlimit:10;stroke-dasharray:2.4723,2.4723;}
	.st64{fill:none;stroke:#242422;stroke-width:0.5;stroke-linecap:round;stroke-miterlimit:10;stroke-dasharray:2.5011,2.5011;}
	.st65{fill:none;stroke:#242422;stroke-width:0.5;stroke-linecap:round;stroke-miterlimit:10;stroke-dasharray:2.501,2.501;}
	.st66{fill:none;stroke:#242422;stroke-width:0.5;stroke-linecap:round;stroke-miterlimit:10;stroke-dasharray:2.4908,2.4908;}
	.st67{fill:none;stroke:#242422;stroke-width:0.5;stroke-linecap:round;stroke-miterlimit:10;stroke-dasharray:2.4844,2.4844;}
	.st68{fill:none;stroke:#242422;stroke-width:0.5;stroke-linecap:round;stroke-miterlimit:10;stroke-dasharray:2.5262,2.5262;}
	.st69{fill:none;stroke:#242422;stroke-width:0.5;stroke-linecap:round;stroke-miterlimit:10;stroke-dasharray:2.5171,2.5171;}
	.st70{fill:none;stroke:#242422;stroke-width:0.5;stroke-linecap:round;stroke-miterlimit:10;stroke-dasharray:2.5258,2.5258;}
	.st71{fill:none;stroke:#242422;stroke-width:0.5;stroke-linecap:round;stroke-miterlimit:10;stroke-dasharray:2.4845,2.4845;}
</style>
<g id="Remera_cuello_y_puños">
</g>
<g id="Remera_principal">
</g>
<g id="Mangas">
</g>
<g id="Estampa">
</g>
<g id="Banda_Central">
</g>
<path class="st0" d="M652,864.4l-13.9-33c0,0-133.3,35.5-438.9,0l-11.1,33C188.1,864.4,424.2,897.4,652,864.4z"/>
<path class="st1" d="M179.6,410.1c0,0-3.4,3.8-5.1,5.3c-2.7,2.5-5.7,9.8-8.3,15.5c-0.4,0.8-0.7,2.7-3.4,2.7
	c-36.7-0.8-100-19.8-121.6-30.8c-0.6-0.3-10-4.3-11.2-6.1c-0.8-1.1-0.5-2.3,0-3.5c3.3-8.1,5.5-13.4,5.2-16.8
	c-0.3-3.2-1.8-7.1-1.8-7.2c1.3,1,2.9,2,4.7,2.9c0.4,0.2,0.8,0.4,1.2,0.6c0.3,0.1,0.6,0.3,0.9,0.4c10.5,5.9,34.2,15.4,63.7,23.4
	c1,0.3,2.1,0.6,3.1,0.8C130.6,403.7,156.6,408.8,179.6,410.1z"/>
<path class="st1" d="M672,408.9c0,0,3.4,3.8,5.1,5.3c2.7,2.5,5.7,9.8,8.3,15.5c0.4,0.8,0.7,2.7,3.4,2.7
	c36.7-0.8,100-19.8,121.6-30.8c0.6-0.3,10-4.3,11.2-6.1c0.8-1.1,0.5-2.3,0-3.5c-3.3-8.1-5.5-13.4-5.2-16.8c0.3-3.2,1.8-7.1,1.8-7.2
	c-1.3,1-2.9,2-4.7,2.9c-0.4,0.2-0.8,0.4-1.2,0.6c-0.3,0.1-0.6,0.3-0.9,0.4c-10.5,5.9-34.2,15.4-63.7,23.4c-1,0.3-2.1,0.6-3.1,0.8
	C721,402.5,695,407.6,672,408.9z"/>
<path class="st1" d="M306.2,19.4c-1.2-0.8-2.3-1-2.9-0.5c-0.1,0.1-0.1,0.2-0.2,0.3c-0.1,0.1-0.1,0.2-0.2,0.3
	c-0.1,0.2-0.1,0.4-0.2,0.7c-0.1,0.9,0,2.3,0.4,4.3c0.1,0.5,0.2,1,0.4,1.5c0.2,0.9,0.5,1.9,0.9,3c0.1,0.2,0.1,0.4,0.2,0.7
	c0.2,0.7,0.5,1.4,0.8,2.2c0.2,0.5,0.4,1,0.6,1.6c0.2,0.5,0.4,1.1,0.6,1.7c0.8,2,1.7,4.3,2.8,6.8c0.5,1.1,1,2.3,1.5,3.4
	c0.2,0.3,0.3,0.7,0.5,1c1,1.9,2.2,4.3,3.7,6.9c0.5,0.2,1,0.4,1.5,0.7c0.5,0.2,0.9,0.4,1.4,0.6c0.3,0.1,0.5,0.2,0.8,0.3
	c0.5,0.2,1,0.4,1.4,0.6c0.3,0.1,0.6,0.2,0.8,0.3c0.5,0.2,0.9,0.4,1.4,0.5c0.3,0.1,0.7,0.3,1,0.4c22.3,8.6,55.1,16.3,100.8,16.3h1.6
	c45.7,0,78.5-7.8,100.8-16.3c0.3-0.1,0.7-0.3,1-0.4c0.5-0.2,0.9-0.4,1.4-0.5c0.3-0.1,0.6-0.2,0.8-0.3c0.5-0.2,1-0.4,1.4-0.6
	c0.3-0.1,0.5-0.2,0.8-0.3c0.5-0.2,0.9-0.4,1.4-0.6c0.5-0.2,1-0.4,1.5-0.6c1.5-2.6,2.7-5,3.7-6.9c0.2-0.3,0.3-0.7,0.5-1
	c0.7-1.6,1.2-2.7,1.4-3.2c0-0.1,0.1-0.1,0.1-0.2c1.1-2.5,2-4.7,2.8-6.8c0.2-0.6,0.4-1.1,0.6-1.7c0.2-0.5,0.4-1.1,0.6-1.6
	c0.3-0.8,0.5-1.5,0.8-2.2c0.1-0.2,0.2-0.4,0.2-0.7c0.4-1.1,0.7-2.1,0.9-3c0.1-0.5,0.3-1,0.4-1.5c0.4-1.9,0.5-3.3,0.4-4.3
	c0-0.3-0.1-0.5-0.2-0.7c0-0.1-0.1-0.2-0.2-0.3c-0.1-0.1-0.1-0.2-0.2-0.3c-0.6-0.6-1.7-0.3-2.9,0.5c-0.1,0.1-0.2,0.1-0.3,0.2v0h0l0,0
	c-12.8,9.4-48.6,28.5-117.9,28.5h-1.5c-69.3-0.1-105.1-19.1-117.9-28.5c0,0,0,0,0,0v0C306.4,19.5,306.3,19.5,306.2,19.4z"/>
<path class="st1" d="M425.1,134.9h-44.2c0,0-9.6-8.3-28-15.8c-25.9-10.4-48.8-30.9-58.6-46c-2.1-3.5-4-6.9-5.6-10.1
	c-6.7-13.4-9.6-24.6-10.8-29.8c0.2-0.1,0.3-0.2,0.5-0.4c0.2-0.1,0.4-0.3,0.6-0.4c4.6-3.5,11.2-8.4,14.3-11.3
	c2.1-1.9,3.8-3.6,4.9-4.7c0.8-0.8,1.8-1.3,2.9-1.3c1,0,1.8,0.4,2.4,0.8c0.6,0.4,1.1,0.9,1.6,1.3c0.5,0.4,0.9,0.7,1.5,1.2
	c-0.1-0.1-0.2-0.1-0.3-0.2c-1.2-0.8-2.3-1-2.9-0.5c-0.1,0.1-0.1,0.2-0.2,0.3c-0.1,0.1-0.1,0.2-0.2,0.3c-0.1,0.2-0.1,0.4-0.2,0.7
	c-0.1,0.9,0,2.3,0.4,4.3c0.1,0.5,0.2,1,0.4,1.5c0.2,0.9,0.5,1.9,0.9,3c0.1,0.2,0.1,0.4,0.2,0.7c0.2,0.7,0.5,1.4,0.8,2.2
	c0.2,0.5,0.4,1,0.6,1.6c0.2,0.5,0.4,1.1,0.6,1.7c0.8,2,1.7,4.3,2.8,6.8c0.5,1.1,1,2.3,1.5,3.4c0.1,0.2,0.2,0.5,0.3,0.7
	c0.1,0.1,0.1,0.2,0.2,0.3c1,1.9,2.2,4.3,3.7,6.9c2.8,4.9,6.8,10.9,12.1,17.1c10.1,11.9,25.1,24.9,46.9,34.1
	C427.2,125.4,425.1,134.9,425.1,134.9z"/>
<path class="st1" d="M572.5,33.3c-1.2,5.2-4.1,16.4-10.8,29.8c-1.6,3.3-3.5,6.7-5.6,10.1c-9.8,15.1-32.7,35.5-58.6,46
	c-18.5,7.5-28,15.8-28,15.8h-44.2c0,0-2.2-9.5,50.8-31.8C498,93.9,513,81,523,69.1c5.3-6.2,9.2-12.2,12.1-17.1
	c1.5-2.6,2.7-5,3.7-6.9c0.1-0.1,0.1-0.2,0.2-0.3c0.1-0.2,0.2-0.5,0.3-0.7c0.7-1.6,1.2-2.7,1.4-3.2c0-0.1,0.1-0.1,0.1-0.2
	c1.1-2.5,2-4.7,2.8-6.8c0.2-0.6,0.4-1.1,0.6-1.7c0.2-0.5,0.4-1.1,0.6-1.6c0.3-0.8,0.5-1.5,0.8-2.2c0.1-0.2,0.2-0.4,0.2-0.7
	c0.4-1.1,0.7-2.1,0.9-3c0.2-0.5,0.3-1,0.4-1.5c0.4-1.9,0.5-3.3,0.4-4.3c0-0.3-0.1-0.5-0.2-0.7c0-0.1-0.1-0.2-0.2-0.3
	c-0.1-0.1-0.1-0.2-0.2-0.3c-0.6-0.6-1.7-0.3-2.9,0.5c-0.1,0.1-0.2,0.1-0.3,0.2c0.6-0.4,1-0.8,1.5-1.2c0.5-0.4,1.1-0.9,1.6-1.3
	c0.6-0.4,1.5-0.8,2.4-0.8c1.1,0,2.1,0.5,2.9,1.3c1,1.1,2.7,2.8,4.9,4.7c3.2,2.9,9.8,7.8,14.3,11.3c0.2,0.1,0.4,0.3,0.6,0.4
	C572.2,33,572.4,33.1,572.5,33.3z"/>
<path class="st1" d="M679.8,905.5c-1.1-6.1-1.8-12.4-2.3-18.6c-6.6-72.1-17.8-173.8-19.5-197.6c-1.8-23.8-5.3-51.3-4.7-80.8
	c0.7-20.1-0.6-37.2-0.2-57.1c-2.7-30.2,1.3-91.2,1.3-91.2c0-17.7-1-34,2.2-48.9c0,0,0,0,0-0.1c0.9-8.4,1.9-16.7,3-24.7v0
	c9-128.1,42.6-205.9,60.8-243.5c-19.4-14.7-51.6-25.5-60.1-28.9c-1.4-0.6-2.7-1-3.8-1.5c-50.2-20.2-79-38.4-94.7-49.5
	c0.3-0.5,0.5-1,0.7-1.5c-1.8,3.7-3.9,7.6-6.4,11.7c-9.8,15.1-32.7,35.5-58.6,46c-18.5,7.5-28,15.8-28,15.8h-44.2c0,0-0.1,0-0.1,0v0
	c0,0,0,0,0,0c0,0,0,0,0,0v0c0,0-0.1,0-0.1,0h-44.2c0,0-9.6-8.3-28-15.8c-25.9-10.4-48.8-30.9-58.6-46c-2.5-4-4.6-7.9-6.4-11.7
	c0.2,0.5,0.5,1,0.7,1.5c-15.7,11.1-44.5,29.3-94.7,49.5c-1.1,0.4-2.4,0.9-3.8,1.5c-8.5,3.4-40.6,14.2-60.1,28.9
	c18.1,37.6,51.8,115.4,60.8,243.5v0c1.1,8,2.1,16.3,3,24.7c0,0,0,0,0,0.1c3.2,14.9,2.2,31.2,2.2,48.9c0,0,4,61,1.3,91.2
	c0.3,19.9-0.9,37-0.2,57.1c0.5,29.4-3,57-4.7,80.8c-1.8,23.8-12.9,125.4-19.5,197.6c-0.6,6.3-1.3,12.5-2.3,18.6
	c-1.2,7.2-6,27.5-2.1,31.4c2.2,2.2,6.9,3.8,13,5.1c4.2,0.9,8.9,1.6,13.9,2.1c5,0.5,10.1,0.9,14.9,1.3c22,2.3,55.6-5,98-2.8
	c33.9,1.8,73.4,4.3,116.9,5.9h0h0h0c43.5-1.5,83-4.1,116.9-5.9c42.4-2.2,76.1,5.1,98,2.8c4.9-0.3,10-0.7,14.9-1.3
	c5-0.6,9.7-1.3,13.9-2.1c6-1.3,10.8-2.9,13-5.1C685.8,933,681,912.7,679.8,905.5z"/>
<path class="st1" d="M288.5,64.3c-15.7,11.1-44.5,29.3-94.7,49.5c-1.1,0.4-2.4,0.9-3.8,1.5c-8.5,3.4-40.6,14.2-60.1,28.9
	c-1-2.1-2-4.1-2.9-5.9c0-0.1-0.1-0.2-0.1-0.2c-0.6-1.1-1.1-2.2-1.6-3.2c-4.1-8.2-2.5-18.4,4.4-24.7c19.7-11.3,41.2-19.4,51.1-23.4
	c59.8-24,86-44.3,97.4-52.7c-0.2,0.1-0.3,0.3-0.5,0.4C279,39.6,281.8,50.9,288.5,64.3z"/>
<path class="st1" d="M561.8,64.3c15.7,11.1,44.5,29.3,94.7,49.5c1.1,0.4,2.4,0.9,3.8,1.5c8.5,3.4,40.6,14.2,60.1,28.9
	c1-2.1,2-4.1,2.9-5.9c0-0.1,0.1-0.2,0.1-0.2c0.6-1.1,1.1-2.2,1.6-3.2c4.1-8.2,2.5-18.4-4.4-24.7c-19.7-11.3-41.2-19.4-51.1-23.4
	c-59.8-24-86-44.3-97.4-52.7c0.2,0.1,0.3,0.3,0.5,0.4C571.4,39.6,568.5,50.9,561.8,64.3z"/>
<path class="st1" d="M114.5,119.8c4.8-3.4,10-6.7,15.3-9.7c-6.8,6.2-8.5,16.3-4.4,24.4c0.5,1,1,2,1.6,3.1c0,0.1,0.1,0.2,0.1,0.2
	c17.2,34.6,54.2,112.9,63.6,246.5v0c-2.8,6.1-5,9.9-8,17.1c-0.7,1.7-0.6,6.7-3.1,8.7c-51.2-2.9-117-24.5-139.4-36.9
	c-0.7-0.4-1.4-0.7-2-1c-1.8-0.9-3.4-1.9-4.7-2.9c-0.8-3.8,2.6-4.9,3.4-7.3c11.6-36.3,23.9-64.2,28.3-98.4
	c11.1-86.5,16.8-112.1,38.8-134.3C106.5,126.6,111.6,121.8,114.5,119.8z"/>
<path class="st1" d="M735.8,119.8c-4.8-3.4-10-6.7-15.3-9.7c6.8,6.2,8.5,16.3,4.4,24.4c-0.5,1-1,2-1.6,3.1c0,0.1-0.1,0.2-0.1,0.2
	c-17.2,34.6-54.2,112.9-63.6,246.5v0c2.8,6.1,5,9.9,8,17.1c0.7,1.7,0.6,6.7,3.1,8.7c51.2-2.9,117-24.5,139.4-36.9
	c0.7-0.4,1.4-0.7,2-1c1.8-0.9,3.4-1.9,4.7-2.9c0.8-3.8-2.6-4.9-3.4-7.3c-11.6-36.3-23.9-64.2-28.3-98.4
	c-11.1-86.5-16.8-112.1-38.8-134.3C743.8,126.6,738.7,121.8,735.8,119.8z"/>
<polygon class="st2" points="560.8,942.1 529.4,942.1 527.6,103 560.8,64.7 "/>
<polygon class="st3" points="592.6,945.3 561.3,945.3 560.8,64.7 592.3,82.8 "/>
<polygon class="st0" points="623.2,945.3 591.8,945.3 592.3,82.8 623.2,98.6 "/>
<path id="TIRA_LIMPIEZA_2_" class="st4" d="M535.1,53.2c-2.8,4.9-6.8,10.9-12.1,17.1c-22.2,8-53.9,14.9-97.1,14.9h-0.3c0,0,0,0,0,0
	h0c0,0,0,0,0,0h-0.8c0,0,0,0,0,0h0c0,0,0,0,0,0h-0.3c-43.3,0-74.9-6.9-97.1-14.9C322,64,318,58.1,315.2,53.2c0.5,0.2,1,0.4,1.5,0.7
	c0.5,0.2,0.9,0.4,1.4,0.6c0.3,0.1,0.5,0.2,0.8,0.3c0.5,0.2,1,0.4,1.4,0.6c0.3,0.1,0.6,0.2,0.8,0.3c0.5,0.2,0.9,0.4,1.4,0.5
	c0.3,0.1,0.7,0.3,1,0.4c22.3,8.6,55.1,16.3,100.8,16.3h1.6c45.7,0,78.5-7.8,100.8-16.3c0.3-0.1,0.7-0.3,1-0.4
	c0.5-0.2,0.9-0.4,1.4-0.5c0.3-0.1,0.6-0.2,0.8-0.3c0.5-0.2,1-0.4,1.4-0.6c0.3-0.1,0.5-0.2,0.8-0.3c0.5-0.2,0.9-0.4,1.4-0.6
	C534.1,53.6,534.6,53.4,535.1,53.2z"/>
<linearGradient id="SVGID_1_" gradientUnits="userSpaceOnUse" x1="167.5" y1="713.9006" x2="213.3338" y2="713.9006">
	<stop  offset="0.1336" style="stop-color:#242422;stop-opacity:0.3"/>
	<stop  offset="1" style="stop-color:#242422;stop-opacity:0"/>
</linearGradient>
<path class="st5" d="M198.4,482.4c0,0,21.3,246.1,13.1,463c0,0-30.3-0.9-40.2-7.2c-9.9-6.3,3-43.5,3.6-57.9
	c0.6-14.5,8.4-120.3,11.3-140.4C189,719.8,207.1,541.6,198.4,482.4z"/>
<linearGradient id="SVGID_2_" gradientUnits="userSpaceOnUse" x1="214.5593" y1="714.738" x2="260.3931" y2="714.738" gradientTransform="matrix(-1 0 0 1 898 0)">
	<stop  offset="0.1336" style="stop-color:#242422;stop-opacity:0.3"/>
	<stop  offset="1" style="stop-color:#242422;stop-opacity:0"/>
</linearGradient>
<path class="st6" d="M652.6,483.3c0,0-21.3,246.1-13.1,463c0,0,30.3-0.9,40.2-7.2c9.9-6.3-3-45.5-3.6-59.9
	c-0.6-14.5-8.4-118.3-11.3-138.4C661.9,720.6,643.8,542.5,652.6,483.3z"/>
<g class="st7">
	<defs>
		<filter id="Adobe_OpacityMaskFilter" filterUnits="userSpaceOnUse" x="511.9" y="276.9" width="165.4" height="670.3">
			<feFlood  style="flood-color:white;flood-opacity:1" result="back"/>
			<feBlend  in="SourceGraphic" in2="back" mode="normal"/>
		</filter>
	</defs>
	<mask maskUnits="userSpaceOnUse" x="511.9" y="276.9" width="165.4" height="670.3" id="SVGID_3_">
		<g class="st8">
			<image style="overflow:visible;" width="171" height="675" xlink:href="8C297340.jpg"  transform="matrix(1 0 0 1 509 274.8)">
			</image>
		</g>
	</mask>
	<g class="st9">
		
			<linearGradient id="SVGID_4_" gradientUnits="userSpaceOnUse" x1="272.8755" y1="612.0327" x2="438.2668" y2="612.0327" gradientTransform="matrix(-1 0 0 1 950.1758 0)">
			<stop  offset="0.1336" style="stop-color:#242422;stop-opacity:0.3"/>
			<stop  offset="1" style="stop-color:#242422;stop-opacity:0"/>
		</linearGradient>
		<path class="st10" d="M561,899.1c6.3-71.1,20.9-141.6,24.6-212.9c5.3-100.2-10.9-200.7-1.9-300.7c0.6-6.2,1.3-12.6,4.1-18.3
			c2.6-5.1,6.7-9.4,10.8-13.6c14.5-14.8,64.1-61.9,78.6-76.8c0.9,21.2-68.4,104.9-77,124.6c-12.1,27.8,7.3,25.8,7.5,55.7
			c0.6,106,1.2,212.1,1.8,318.1c0.3,51.9,0.7,104.5,15.1,154.7c0.7,2.4,1.4,5,0.1,7.2c-1.7,3-6,3.6-9.6,3.8
			c-33.9,2.1-67.8,4.2-101.7,6.4c-4.6-107.9,0.7-216.2,16-323.2c9.3,7.7,10.4,20.5,10.8,32c1.6,47.7,3.2,95.5,4.7,143.2
			c1.1,33,2.3,66.5,12.4,98.2"/>
	</g>
</g>
<g class="st7">
	<defs>
		<filter id="Adobe_OpacityMaskFilter_1_" filterUnits="userSpaceOnUse" x="524.5" y="345.8" width="98.7" height="596.4">
			<feFlood  style="flood-color:white;flood-opacity:1" result="back"/>
			<feBlend  in="SourceGraphic" in2="back" mode="normal"/>
		</filter>
	</defs>
	<mask maskUnits="userSpaceOnUse" x="524.5" y="345.8" width="98.7" height="596.4" id="SVGID_5_">
		<g class="st11">
			<image style="overflow:visible;" width="104" height="602" xlink:href="8C297341.jpg"  transform="matrix(1 0 0 1 522 342.8)">
			</image>
		</g>
	</mask>
	<g class="st12">
		
			<radialGradient id="SVGID_6_" cx="790.4979" cy="547.535" r="180.779" gradientTransform="matrix(1.2894 0 0 1.1798 -445.4276 -1.9817)" gradientUnits="userSpaceOnUse">
			<stop  offset="0" style="stop-color:#FFFFFF;stop-opacity:0.3"/>
			<stop  offset="1" style="stop-color:#FFFFFF;stop-opacity:0"/>
		</radialGradient>
		<path class="st13" d="M537.7,770c-16.6-29.6-7.2-37.8-8.2-71.1c-1.5-47.5-3-95-4.5-142.6c-0.9-27.8-1.6-56.2,8.2-82.5
			c7.7-20.7,21.6-38.9,35.3-56.8c18.2-23.8,36.4-47.6,54.7-71.3c-21.9,51.8-31.5,113.8-39.5,168.9c-4.4,29.9,0.2,67.4,4,97.4
			c13.6,108.9-20.9,254.1-21.2,330.2c-2.5-7-17.6-136-20.1-143L537.7,770z"/>
	</g>
</g>
<g class="st7">
	<defs>
		<filter id="Adobe_OpacityMaskFilter_2_" filterUnits="userSpaceOnUse" x="225.8" y="345.8" width="98.7" height="596.4">
			<feFlood  style="flood-color:white;flood-opacity:1" result="back"/>
			<feBlend  in="SourceGraphic" in2="back" mode="normal"/>
		</filter>
	</defs>
	<mask maskUnits="userSpaceOnUse" x="225.8" y="345.8" width="98.7" height="596.4" id="SVGID_7_">
		<g class="st14">
			<image style="overflow:visible;" width="104" height="602" xlink:href="8C297347.jpg"  transform="matrix(1 0 0 1 223 342.8)">
			</image>
		</g>
	</mask>
	<g class="st15">
		
			<radialGradient id="SVGID_8_" cx="370.3883" cy="547.535" r="180.779" gradientTransform="matrix(-1.2894 0 0 1.1798 752.6824 -1.9817)" gradientUnits="userSpaceOnUse">
			<stop  offset="0" style="stop-color:#FFFFFF;stop-opacity:0.3"/>
			<stop  offset="1" style="stop-color:#FFFFFF;stop-opacity:0"/>
		</radialGradient>
		<path class="st16" d="M311.2,770c16.6-29.6,7.2-37.8,8.2-71.1c1.5-47.5,3-95,4.5-142.6c0.9-27.8,1.6-56.2-8.2-82.5
			c-7.7-20.7-21.6-38.9-35.3-56.8c-18.2-23.8-36.4-47.6-54.7-71.3c21.9,51.8,31.5,113.8,39.5,168.9c4.4,29.9-0.2,67.4-4,97.4
			c-13.6,108.9,26.9,254.1,27.2,330.2c2.5-7,11.6-136,14.1-143L311.2,770z"/>
	</g>
</g>
<g class="st7">
	<defs>
		<filter id="Adobe_OpacityMaskFilter_3_" filterUnits="userSpaceOnUse" x="168.3" y="276.9" width="166.5" height="670.3">
			<feFlood  style="flood-color:white;flood-opacity:1" result="back"/>
			<feBlend  in="SourceGraphic" in2="back" mode="normal"/>
		</filter>
	</defs>
	<mask maskUnits="userSpaceOnUse" x="168.3" y="276.9" width="166.5" height="670.3" id="SVGID_9_">
		<g class="st17">
			<image style="overflow:visible;" width="171" height="675" xlink:href="8C297342.jpg"  transform="matrix(1 0 0 1 166 274.8)">
			</image>
		</g>
	</mask>
	<g class="st18">
		<linearGradient id="SVGID_10_" gradientUnits="userSpaceOnUse" x1="168.3222" y1="612.0327" x2="334.7827" y2="612.0327">
			<stop  offset="0.1336" style="stop-color:#242422;stop-opacity:0.3"/>
			<stop  offset="1" style="stop-color:#242422;stop-opacity:0"/>
		</linearGradient>
		<path class="st19" d="M284.6,899.1c-6.3-71.1-20.9-141.6-24.6-212.9c-5.3-100.2,10.9-200.7,1.9-300.7c-0.6-6.2-1.3-12.6-4.1-18.3
			c-2.6-5.1-6.7-9.4-10.8-13.6c-14.5-14.8-64.1-61.9-78.6-76.8c-0.9,21.2,68.4,104.9,77,124.6c12.1,27.8-7.3,25.8-7.5,55.7
			c-0.6,106-1.2,212.1-1.8,318.1c-0.3,51.9-0.7,104.5-15.1,154.7c-0.7,2.4-1.4,5-0.1,7.2c1.7,3,6,3.6,9.6,3.8
			c33.9,2.1,67.8,4.2,101.7,6.4c4.6-107.9,4.6-322.8-10.7-429.9c-9.3,7.7-6.6,185.1-7,196.6c-1.6,47.7-7.6,39.7-9.2,87.4
			c-1.1,33-6.8,64.4-16.9,96.1"/>
	</g>
</g>
<g class="st20">
	<defs>
		<filter id="Adobe_OpacityMaskFilter_4_" filterUnits="userSpaceOnUse" x="611.1" y="249.2" width="69.1" height="340.1">
			<feFlood  style="flood-color:white;flood-opacity:1" result="back"/>
			<feBlend  in="SourceGraphic" in2="back" mode="normal"/>
		</filter>
	</defs>
	<mask maskUnits="userSpaceOnUse" x="611.1" y="249.2" width="69.1" height="340.1" id="SVGID_11_">
		<g class="st21">
			<image style="overflow:visible;" width="74" height="345" xlink:href="8C297343.jpg"  transform="matrix(1 0 0 1 609 246.8)">
			</image>
		</g>
	</mask>
	<g class="st22">
		<defs>
			<filter id="Adobe_OpacityMaskFilter_5_" filterUnits="userSpaceOnUse" x="611.1" y="249.2" width="69.1" height="340.1">
				<feFlood  style="flood-color:white;flood-opacity:1" result="back"/>
				<feBlend  in="SourceGraphic" in2="back" mode="normal"/>
			</filter>
		</defs>
		<mask maskUnits="userSpaceOnUse" x="611.1" y="249.2" width="69.1" height="340.1" id="SVGID_11_">
			<g class="st23">
				<image style="overflow:visible;" width="74" height="345" xlink:href="8C29734E.jpg"  transform="matrix(1 0 0 1 609 246.8)">
				</image>
			</g>
		</mask>
		<g>
			
				<linearGradient id="SVGID_12_" gradientUnits="userSpaceOnUse" x1="281.7381" y1="419.2178" x2="386.7991" y2="419.2178" gradientTransform="matrix(-1 0 0 1 962 0)">
				<stop  offset="0" style="stop-color:#242422;stop-opacity:0.3"/>
				<stop  offset="0.9795" style="stop-color:#242422;stop-opacity:0"/>
			</linearGradient>
			<path class="st24" d="M680.3,249.2c0,0-44.6,61.2-66.1,97.5c-12,20.3,13.3,20.1,39.9,242.6l4.7-205.8L680.3,249.2z"/>
		</g>
	</g>
</g>
<g class="st20">
	<defs>
		<filter id="Adobe_OpacityMaskFilter_6_" filterUnits="userSpaceOnUse" x="168.3" y="254.2" width="69.9" height="340.1">
			<feFlood  style="flood-color:white;flood-opacity:1" result="back"/>
			<feBlend  in="SourceGraphic" in2="back" mode="normal"/>
		</filter>
	</defs>
	<mask maskUnits="userSpaceOnUse" x="168.3" y="254.2" width="69.9" height="340.1" id="SVGID_13_">
		<g class="st25">
			<image style="overflow:visible;" width="75" height="345" xlink:href="8C29734F.jpg"  transform="matrix(1 0 0 1 166 251.8)">
			</image>
		</g>
	</mask>
	<g class="st26">
		<defs>
			<filter id="Adobe_OpacityMaskFilter_7_" filterUnits="userSpaceOnUse" x="168.3" y="254.2" width="69.9" height="340.1">
				<feFlood  style="flood-color:white;flood-opacity:1" result="back"/>
				<feBlend  in="SourceGraphic" in2="back" mode="normal"/>
			</filter>
		</defs>
		<mask maskUnits="userSpaceOnUse" x="168.3" y="254.2" width="69.9" height="340.1" id="SVGID_13_">
			<g class="st27">
				<image style="overflow:visible;" width="75" height="345" xlink:href="8C297344.jpg"  transform="matrix(1 0 0 1 166 251.8)">
				</image>
			</g>
		</mask>
		<g>
			
				<linearGradient id="SVGID_14_" gradientUnits="userSpaceOnUse" x1="200.3355" y1="424.1987" x2="306.4977" y2="424.1987" gradientTransform="matrix(1 0 0 1 -32 0)">
				<stop  offset="0" style="stop-color:#242422;stop-opacity:0.3"/>
				<stop  offset="0.9795" style="stop-color:#242422;stop-opacity:0"/>
			</linearGradient>
			<path class="st28" d="M168.3,254.2c0,0,44.6,61.2,66.1,97.5c12,20.3-6,20.1-32.6,242.6l-12-205.8L168.3,254.2z"/>
		</g>
	</g>
</g>
<g>
	<defs>
		<filter id="Adobe_OpacityMaskFilter_8_" filterUnits="userSpaceOnUse" x="738.3" y="118.8" width="85.4" height="297.2">
			<feFlood  style="flood-color:white;flood-opacity:1" result="back"/>
			<feBlend  in="SourceGraphic" in2="back" mode="normal"/>
		</filter>
	</defs>
	<mask maskUnits="userSpaceOnUse" x="738.3" y="118.8" width="85.4" height="297.2" id="SVGID_15_">
		<g class="st29">
			<image style="overflow:visible;" width="90" height="302" xlink:href="8C297345.jpg"  transform="matrix(1 0 0 1 736 116.8)">
			</image>
		</g>
	</mask>
	<g class="st30">
		<linearGradient id="SVGID_16_" gradientUnits="userSpaceOnUse" x1="738.2905" y1="267.4539" x2="823.6588" y2="267.4539">
			<stop  offset="0.1336" style="stop-color:#242422;stop-opacity:0.3"/>
			<stop  offset="1" style="stop-color:#242422;stop-opacity:0"/>
		</linearGradient>
		<path class="st31" d="M787.6,416.1c-28.8-63.7-42.4-133.1-39.6-202c1.3-32.2,5.8-66.2-9.7-95.2c13.2,14.8,26.7,30.1,33.1,48.3
			c6.8,19.4,4.8,40.3,5.3,60.7c1.6,58.7,24.4,114.9,46.9,169.8c-12.7,2.6-24.8,7.7-35.2,14.9"/>
	</g>
</g>
<g class="st32">
	<defs>
		<filter id="Adobe_OpacityMaskFilter_9_" filterUnits="userSpaceOnUse" x="690.7" y="112.1" width="86.9" height="313.9">
			<feFlood  style="flood-color:white;flood-opacity:1" result="back"/>
			<feBlend  in="SourceGraphic" in2="back" mode="normal"/>
		</filter>
	</defs>
	<mask maskUnits="userSpaceOnUse" x="690.7" y="112.1" width="86.9" height="313.9" id="SVGID_17_">
		<g class="st33">
			<image style="overflow:visible;" width="92" height="319" xlink:href="41FDA89F.jpg"  transform="matrix(1 0 0 1 688 109.8)">
			</image>
		</g>
	</mask>
	<g class="st34">
		<linearGradient id="SVGID_18_" gradientUnits="userSpaceOnUse" x1="802.2" y1="233.3799" x2="663.0751" y2="313.7036">
			<stop  offset="0" style="stop-color:#FFFFFF;stop-opacity:0.3"/>
			<stop  offset="0.7436" style="stop-color:#FFFFFF;stop-opacity:0"/>
		</linearGradient>
		<path class="st35" d="M726.1,112.1c10,5.2,16.1,15.2,18.7,25.4c2.5,10.3,1.9,20.9,1.5,31.4c-3.3,82.2,4.4,165.4,31.3,243.8
			c-12.9,7.8-28.2,12.4-43.6,13.2c-1.9,0.1-3.9,0.1-5.6-0.8c-1.4-0.8-2.3-2.2-3-3.6c-34.6-60.5-43.7-132.8-25.3-199
			c9.9-35.5,27.6-70,27.2-106.7"/>
	</g>
</g>
<g class="st36">
	<defs>
		<filter id="Adobe_OpacityMaskFilter_10_" filterUnits="userSpaceOnUse" x="23.8" y="118.8" width="85.4" height="297.2">
			<feFlood  style="flood-color:white;flood-opacity:1" result="back"/>
			<feBlend  in="SourceGraphic" in2="back" mode="normal"/>
		</filter>
	</defs>
	<mask maskUnits="userSpaceOnUse" x="23.8" y="118.8" width="85.4" height="297.2" id="SVGID_19_">
		<g class="st37">
			<image style="overflow:visible;" width="91" height="302" xlink:href="41FDA89D.jpg"  transform="matrix(1 0 0 1 21 116.8)">
			</image>
		</g>
	</mask>
	<g class="st38">
		
			<linearGradient id="SVGID_20_" gradientUnits="userSpaceOnUse" x1="818.8505" y1="267.4539" x2="904.2188" y2="267.4539" gradientTransform="matrix(-1 0 0 1 928 0)">
			<stop  offset="0.1336" style="stop-color:#242422;stop-opacity:0.3"/>
			<stop  offset="1" style="stop-color:#242422;stop-opacity:0"/>
		</linearGradient>
		<path class="st39" d="M59.9,416.1c28.8-63.7,42.4-133.1,39.6-202c-1.3-32.2-5.8-66.2,9.7-95.2c-13.2,14.8-26.7,30.1-33.1,48.3
			c-6.8,19.4-4.8,40.3-5.3,60.7c-1.6,58.7-24.4,114.9-46.9,169.8c12.7,2.6,24.8,7.7,35.2,14.9"/>
	</g>
</g>
<g class="st32">
	<defs>
		<filter id="Adobe_OpacityMaskFilter_11_" filterUnits="userSpaceOnUse" x="69.9" y="112.1" width="86.9" height="313.9">
			<feFlood  style="flood-color:white;flood-opacity:1" result="back"/>
			<feBlend  in="SourceGraphic" in2="back" mode="normal"/>
		</filter>
	</defs>
	<mask maskUnits="userSpaceOnUse" x="69.9" y="112.1" width="86.9" height="313.9" id="SVGID_21_">
		<g class="st40">
			<image style="overflow:visible;" width="92" height="319" xlink:href="41FDA89B.jpg"  transform="matrix(1 0 0 1 67 109.8)">
			</image>
		</g>
	</mask>
	<g class="st41">
		
			<linearGradient id="SVGID_22_" gradientUnits="userSpaceOnUse" x1="882.76" y1="233.3799" x2="743.6351" y2="313.7036" gradientTransform="matrix(-1 0 0 1 928 0)">
			<stop  offset="0" style="stop-color:#FFFFFF;stop-opacity:0.3"/>
			<stop  offset="0.7436" style="stop-color:#FFFFFF;stop-opacity:0"/>
		</linearGradient>
		<path class="st42" d="M121.3,112.1c-10,5.2-16.1,15.2-18.7,25.4s-1.9,20.9-1.5,31.4c3.3,82.2-4.4,165.4-31.3,243.8
			c12.9,7.8,28.2,12.4,43.6,13.2c1.9,0.1,3.9,0.1,5.6-0.8c1.4-0.8,2.3-2.2,3-3.6c34.6-60.5,43.7-132.8,25.3-199
			c-9.9-35.5-27.6-70-27.2-106.7"/>
	</g>
</g>
<g>
	<defs>
		<filter id="Adobe_OpacityMaskFilter_12_" filterUnits="userSpaceOnUse" x="145.4" y="240" width="48.1" height="193.1">
			<feFlood  style="flood-color:white;flood-opacity:1" result="back"/>
			<feBlend  in="SourceGraphic" in2="back" mode="normal"/>
		</filter>
	</defs>
	<mask maskUnits="userSpaceOnUse" x="145.4" y="240" width="48.1" height="193.1" id="SVGID_23_">
		<g class="st43">
			<image style="overflow:visible;" width="53" height="198" xlink:href="41FDA895.jpg"  transform="matrix(1 0 0 1 143 237.8)">
			</image>
		</g>
	</mask>
	<g class="st44">
		
			<linearGradient id="SVGID_24_" gradientUnits="userSpaceOnUse" x1="734.478" y1="336.6058" x2="782.5965" y2="336.6058" gradientTransform="matrix(-1 0 0 1 928 0)">
			<stop  offset="0.1336" style="stop-color:#242422;stop-opacity:0.3"/>
			<stop  offset="1" style="stop-color:#242422;stop-opacity:0"/>
		</linearGradient>
		<path class="st45" d="M165.6,240c1.3,14.4,2.6,28.8,2.7,43.3c0.1,15.6-2.2,33.3-15.9,42.7c6.4,3,13.8,7.6,12.9,14.1
			c-0.9,7-10.2,9.6-17.1,12.8c-1.1,0.5-2.3,1.2-2.7,2.3c-0.4,1,0.1,2.2,0.6,3.2c7.9,17.4,14,37.2,6.6,54.7c-2.6,6.2-7,12.4-6.1,19
			c6,0.3,12,0.6,18,0.9c2.3-6.9,8.5-12,13.5-17.6c6.7-7.6,11.5-16.7,13.7-26.3c3.5-14.8,1-30.2-1.5-45.2
			c-5.6-34-11.3-68.1-21.7-101.1"/>
	</g>
</g>
<g class="st46">
	<linearGradient id="SVGID_25_" gradientUnits="userSpaceOnUse" x1="722.7444" y1="181.6633" x2="737.126" y2="181.6633">
		<stop  offset="0" style="stop-color:#FFFFFF;stop-opacity:0.3"/>
		<stop  offset="1" style="stop-color:#FFFFFF;stop-opacity:0"/>
	</linearGradient>
	<path class="st47" d="M737.1,253.4c-2.4-19.2-4.8-38.6-4.4-57.9c0.5-26.7,6.3-53.8,0.5-80c-0.6-2.9-3.1-6.6-6-5.3
		c2,9.9,3.9,20,3.1,30.1c-0.7,9.8-4.1,19.3-5.9,29.1c-5.2,28,2.5,56.5,10.1,84.1"/>
</g>
<g class="st46">
	
		<linearGradient id="SVGID_26_" gradientUnits="userSpaceOnUse" x1="806.1987" y1="181.6633" x2="820.5803" y2="181.6633" gradientTransform="matrix(-1 0 0 1 918 0)">
		<stop  offset="0" style="stop-color:#FFFFFF;stop-opacity:0.3"/>
		<stop  offset="1" style="stop-color:#FFFFFF;stop-opacity:0"/>
	</linearGradient>
	<path class="st48" d="M97.4,253.4c2.4-19.2,4.8-38.6,4.4-57.9c-0.5-26.7-6.3-53.8-0.5-80c0.6-2.9,3.1-6.6,6-5.3
		c-2,9.9-3.9,20-3.1,30.1c0.7,9.8,4.1,19.3,5.9,29.1c5.2,28-2.5,56.5-10.1,84.1"/>
</g>
<g>
	<defs>
		<filter id="Adobe_OpacityMaskFilter_13_" filterUnits="userSpaceOnUse" x="659.1" y="237.7" width="48.1" height="193.1">
			<feFlood  style="flood-color:white;flood-opacity:1" result="back"/>
			<feBlend  in="SourceGraphic" in2="back" mode="normal"/>
		</filter>
	</defs>
	<mask maskUnits="userSpaceOnUse" x="659.1" y="237.7" width="48.1" height="193.1" id="SVGID_27_">
		<g class="st49">
			<image style="overflow:visible;" width="53" height="199" xlink:href="41FDA897.jpg"  transform="matrix(1 0 0 1 657 234.8)">
			</image>
		</g>
	</mask>
	<g class="st50">
		<defs>
			<filter id="Adobe_OpacityMaskFilter_14_" filterUnits="userSpaceOnUse" x="659.1" y="237.7" width="48.1" height="193.1">
				<feFlood  style="flood-color:white;flood-opacity:1" result="back"/>
				<feBlend  in="SourceGraphic" in2="back" mode="normal"/>
			</filter>
		</defs>
		<mask maskUnits="userSpaceOnUse" x="659.1" y="237.7" width="48.1" height="193.1" id="SVGID_27_">
			<g class="st51">
				<image style="overflow:visible;" width="53" height="199" xlink:href="41FDA88A.jpg"  transform="matrix(1 0 0 1 657 234.8)">
				</image>
			</g>
		</mask>
		<g>
			<linearGradient id="SVGID_28_" gradientUnits="userSpaceOnUse" x1="659.0757" y1="334.2462" x2="707.1943" y2="334.2462">
				<stop  offset="0.1336" style="stop-color:#242422;stop-opacity:0.3"/>
				<stop  offset="1" style="stop-color:#242422;stop-opacity:0"/>
			</linearGradient>
			<path class="st52" d="M687,237.7c-1.3,14.4-2.6,28.8-2.7,43.3c-0.1,15.6,2.2,33.3,15.9,42.7c-6.4,3-13.8,7.6-12.9,14.1
				c0.9,7,10.2,9.6,17.1,12.8c1.1,0.5,2.3,1.2,2.7,2.3c0.4,1-0.1,2.2-0.6,3.2c-7.9,17.4-14,37.2-6.6,54.7c2.6,6.2,7,12.4,6.1,19
				c-6,0.3-12,0.6-18,0.9c-2.3-6.9-8.5-12-13.5-17.6c-6.7-7.6-11.5-16.7-13.7-26.3c-3.5-14.8-1-30.2,1.5-45.2
				c5.6-34,11.3-68.1,21.7-101.1"/>
		</g>
	</g>
</g>
<linearGradient id="SVGID_29_" gradientUnits="userSpaceOnUse" x1="327.2802" y1="102.6023" x2="521.5502" y2="102.6023">
	<stop  offset="0" style="stop-color:#FFFFFF"/>
	<stop  offset="0.1373" style="stop-color:#EAEAEB"/>
	<stop  offset="0.5415" style="stop-color:#B0B2B4"/>
	<stop  offset="0.8408" style="stop-color:#8C8E92"/>
	<stop  offset="1" style="stop-color:#7E8185"/>
</linearGradient>
<path class="st53" d="M425.1,134.9c0,0-1.2-7.6,24.9-19.7c26.1-12.1,57-23.9,71.6-44.5c0,0-35,14.2-96,14.4c0,0-62.7,1.3-98.3-14.9
	c0,0,10.5,14.8,30.7,24.7S416.1,117.2,425.1,134.9z"/>
<radialGradient id="SVGID_30_" cx="674.457" cy="39.6456" r="69.0993" gradientTransform="matrix(1.2894 0 0 1.1798 -445.4276 -1.9817)" gradientUnits="userSpaceOnUse">
	<stop  offset="0" style="stop-color:#1D1D1B;stop-opacity:0"/>
	<stop  offset="0.1214" style="stop-color:#20201E;stop-opacity:0"/>
	<stop  offset="0.1944" style="stop-color:#282826;stop-opacity:0"/>
	<stop  offset="0.2546" style="stop-color:#363634;stop-opacity:0"/>
	<stop  offset="0.3078" style="stop-color:#4A4A49;stop-opacity:0"/>
	<stop  offset="0.3565" style="stop-color:#646463;stop-opacity:0"/>
	<stop  offset="0.4018" style="stop-color:#848483;stop-opacity:0"/>
	<stop  offset="0.4446" style="stop-color:#AAAAAA;stop-opacity:0"/>
	<stop  offset="0.4842" style="stop-color:#D5D5D5;stop-opacity:0"/>
	<stop  offset="0.517" style="stop-color:#FFFFFF;stop-opacity:0"/>
	<stop  offset="0.5665" style="stop-color:#F2F2F1;stop-opacity:3.069510e-02"/>
	<stop  offset="0.6592" style="stop-color:#CECECD;stop-opacity:8.832882e-02"/>
	<stop  offset="0.7854" style="stop-color:#949493;stop-opacity:0.1667"/>
	<stop  offset="0.9386" style="stop-color:#464644;stop-opacity:0.2619"/>
	<stop  offset="1" style="stop-color:#242422;stop-opacity:0.3"/>
</radialGradient>
<path class="st54" d="M305.3,18.4c-1.2-0.8-2.3-1-2.9-0.5c-0.1,0.1-0.1,0.2-0.2,0.3c-0.1,0.1-0.1,0.2-0.2,0.3
	c-0.1,0.2-0.1,0.4-0.2,0.7c-0.1,0.9,0,2.3,0.4,4.3c0.1,0.5,0.2,1,0.4,1.5c0.2,0.9,0.5,1.9,0.9,3c0.1,0.2,0.1,0.4,0.2,0.7
	c0.2,0.7,0.5,1.4,0.8,2.2c0.2,0.5,0.4,1,0.6,1.6c0.2,0.5,0.4,1.1,0.6,1.7c0.8,2,1.7,4.3,2.8,6.8c0.5,1.1,1,2.3,1.5,3.4
	c0.2,0.3,0.3,0.7,0.5,1c1,1.9,2.2,4.3,3.7,6.9c0.5,0.2,1,0.4,1.5,0.7c0.5,0.2,0.9,0.4,1.4,0.6c0.3,0.1,0.5,0.2,0.8,0.3
	c0.5,0.2,1,0.4,1.4,0.6c0.3,0.1,0.6,0.2,0.8,0.3c0.5,0.2,0.9,0.4,1.4,0.5c0.3,0.1,0.7,0.3,1,0.4c22.3,8.6,55.1,16.3,100.8,16.3h1.6
	c45.7,0,78.5-7.8,100.8-16.3c0.3-0.1,0.7-0.3,1-0.4c0.5-0.2,0.9-0.4,1.4-0.5c0.3-0.1,0.6-0.2,0.8-0.3c0.5-0.2,1-0.4,1.4-0.6
	c0.3-0.1,0.5-0.2,0.8-0.3c0.5-0.2,0.9-0.4,1.4-0.6c0.5-0.2,1-0.4,1.5-0.6c1.5-2.6,2.7-5,3.7-6.9c0.2-0.3,0.3-0.7,0.5-1
	c0.7-1.6,1.2-2.7,1.4-3.2c0-0.1,0.1-0.1,0.1-0.2c1.1-2.5,2-4.7,2.8-6.8c0.2-0.6,0.4-1.1,0.6-1.7c0.2-0.5,0.4-1.1,0.6-1.6
	c0.3-0.8,0.5-1.5,0.8-2.2c0.1-0.2,0.2-0.4,0.2-0.7c0.4-1.1,0.7-2.1,0.9-3c0.1-0.5,0.3-1,0.4-1.5c0.4-1.9,0.5-3.3,0.4-4.3
	c0-0.3-0.1-0.5-0.2-0.7c0-0.1-0.1-0.2-0.2-0.3c-0.1-0.1-0.1-0.2-0.2-0.3c-0.6-0.6-1.7-0.3-2.9,0.5c-0.1,0.1-0.2,0.1-0.3,0.2v0h0l0,0
	c-12.8,9.4-48.6,28.5-117.9,28.5h-1.5c-69.3-0.1-105.1-19.1-117.9-28.5c0,0,0,0,0,0v0C305.5,18.5,305.4,18.5,305.3,18.4z"/>
<path id="SVGID_x5F_31_x5F_" class="st55" d="M327.2,67.5C327.2,67.5,327.2,67.5,327.2,67.5c27.4,10.1,60.3,15.3,97.9,15.3l0.6,0
	l0.2,0c0.1,0,0.2,0,0.3,0h0.6c37.5,0,70.4-5.2,97.9-15.3l0,0"/>
<text class="st32"><textPath  xlink:href="#SVGID_x5F_31_x5F_" startOffset="0%">
<tspan  style="fill:#D4D6DC; font-family:'LucidaSansUnicode'; font-size:8.2584px; letter-spacing:86.9;">Qomba - Qomba - Qomba - Qomba</tspan></textPath>
</text>
<path class="st56" d="M583.5,870.9c-5,7.7-19,8.9-32.2,3c0.4,0.2,0.7,0.4,1.1,0.6c14.1,7.5,29.8,6.9,35.2-1.3
	c5.1-7.8-1.1-19.8-13.9-27.3C583.7,853.4,588.2,863.8,583.5,870.9z"/>
<path class="st56" d="M576.4,867c-4.6,6.4-16.6,7-27.7,1.5c0.3,0.2,0.6,0.4,0.9,0.6c11.7,6.9,25.2,6.9,30.2,0
	c4.7-6.5-0.2-16.9-10.8-23.9C577.3,852.1,580.7,861.1,576.4,867z"/>
<path class="st56" d="M600.5,893.5c-0.6,0.4-1.1,0.7-1.6,0.9c-0.5,0.2-1.1,0.3-1.8,0.3c-0.6,0-1.1-0.1-1.6-0.3
	c-0.5-0.2-0.8-0.5-1-0.9c-0.2-0.4-0.4-0.8-0.4-1.2c0-0.6,0.2-1.1,0.6-1.5c0.4-0.4,1-0.7,1.7-0.8c0.1,0,0.5-0.1,1.1-0.2
	c0.6-0.1,1.1-0.2,1.5-0.3c0.4-0.1,0.9-0.2,1.4-0.3c0-0.6-0.2-1-0.4-1.2c-0.2-0.3-0.7-0.4-1.4-0.4c-0.6,0-1,0.1-1.3,0.2
	c-0.3,0.1-0.6,0.4-0.8,0.7c-0.2,0.3-0.4,0.5-0.5,0.6c-0.1,0.1-0.3,0.1-0.6,0.1c-0.3,0-0.5-0.1-0.7-0.2c-0.2-0.2-0.3-0.3-0.3-0.6
	c0-0.4,0.1-0.7,0.4-1.1c0.3-0.3,0.8-0.6,1.4-0.9c0.6-0.2,1.4-0.3,2.3-0.3c1,0,1.8,0.1,2.4,0.3c0.6,0.2,1,0.6,1.2,1
	c0.2,0.5,0.4,1.1,0.4,1.9c0,0.5,0,0.9,0,1.3c0,0.3,0,0.7,0,1.2c0,0.4,0.1,0.8,0.2,1.2c0.1,0.4,0.2,0.7,0.2,0.8
	c0,0.2-0.1,0.4-0.3,0.6c-0.2,0.2-0.5,0.3-0.8,0.3c-0.2,0-0.5-0.1-0.7-0.3C601,894.2,600.7,893.9,600.5,893.5z M600.3,890.5
	c-0.3,0.1-0.8,0.2-1.5,0.4c-0.7,0.1-1.1,0.2-1.4,0.3c-0.3,0.1-0.5,0.2-0.7,0.3c-0.2,0.2-0.3,0.4-0.3,0.7c0,0.3,0.1,0.6,0.4,0.8
	c0.3,0.2,0.6,0.3,1.1,0.3c0.5,0,0.9-0.1,1.3-0.3c0.4-0.2,0.7-0.4,0.9-0.7c0.2-0.3,0.3-0.8,0.3-1.6V890.5z"/>
<path class="st56" d="M586.1,884.2v3.2c0.4-0.4,0.9-0.7,1.3-0.9c0.5-0.2,1-0.3,1.7-0.3c0.8,0,1.5,0.2,2,0.5c0.6,0.3,1,0.8,1.4,1.4
	c0.3,0.6,0.5,1.4,0.5,2.2c0,0.6-0.1,1.2-0.3,1.8c-0.2,0.5-0.4,1-0.8,1.4c-0.3,0.4-0.8,0.7-1.2,0.9c-0.5,0.2-1,0.3-1.6,0.3
	c-0.4,0-0.7,0-1-0.1c-0.3-0.1-0.6-0.2-0.8-0.3c-0.2-0.1-0.4-0.3-0.6-0.4c-0.2-0.1-0.4-0.3-0.6-0.6v0.2c0,0.4-0.1,0.7-0.3,0.9
	c-0.2,0.2-0.5,0.3-0.8,0.3c-0.3,0-0.6-0.1-0.8-0.3c-0.2-0.2-0.3-0.5-0.3-0.9v-9.2c0-0.4,0.1-0.8,0.3-1c0.2-0.2,0.5-0.3,0.8-0.3
	c0.4,0,0.6,0.1,0.8,0.3C586,883.5,586.1,883.8,586.1,884.2z M586.2,890.5c0,0.8,0.2,1.5,0.6,1.9c0.4,0.4,1,0.7,1.7,0.7
	c0.6,0,1.1-0.2,1.5-0.7c0.4-0.5,0.6-1.1,0.6-2c0-0.6-0.1-1-0.3-1.4c-0.2-0.4-0.4-0.7-0.8-0.9c-0.3-0.2-0.7-0.3-1.1-0.3
	c-0.4,0-0.8,0.1-1.2,0.3c-0.3,0.2-0.6,0.5-0.8,1C586.3,889.4,586.2,889.9,586.2,890.5z"/>
<path class="st56" d="M576.6,890.6v2.8c0,0.4-0.1,0.8-0.3,1c-0.2,0.2-0.5,0.3-0.9,0.3c-0.4,0-0.6-0.1-0.9-0.3
	c-0.2-0.2-0.3-0.6-0.3-1V890c0-0.5,0-0.9-0.1-1.2c0-0.3-0.1-0.5-0.3-0.7c-0.2-0.2-0.5-0.3-0.8-0.3c-0.8,0-1.3,0.2-1.5,0.7
	c-0.2,0.5-0.4,1.2-0.4,2v2.9c0,0.4-0.1,0.8-0.3,1c-0.2,0.2-0.5,0.3-0.9,0.3c-0.4,0-0.6-0.1-0.9-0.3c-0.2-0.2-0.3-0.6-0.3-1v-6
	c0-0.4,0.1-0.7,0.3-0.9c0.2-0.2,0.5-0.3,0.8-0.3c0.3,0,0.6,0.1,0.8,0.3c0.2,0.2,0.3,0.5,0.3,0.8v0.2c0.4-0.4,0.8-0.8,1.3-1
	c0.5-0.2,1-0.3,1.5-0.3c0.6,0,1.1,0.1,1.5,0.3c0.4,0.2,0.8,0.5,1,1c0.4-0.4,0.8-0.8,1.3-1c0.5-0.2,1-0.3,1.5-0.3
	c0.6,0,1.2,0.1,1.7,0.3c0.5,0.2,0.8,0.5,1,1c0.2,0.4,0.3,1,0.3,1.8v4.1c0,0.4-0.1,0.8-0.3,1c-0.2,0.2-0.5,0.3-0.9,0.3
	c-0.4,0-0.6-0.1-0.9-0.3c-0.2-0.2-0.3-0.6-0.3-1v-3.5c0-0.5,0-0.8-0.1-1.1c0-0.3-0.2-0.5-0.3-0.7c-0.2-0.2-0.5-0.3-0.9-0.3
	c-0.3,0-0.6,0.1-0.9,0.2c-0.3,0.2-0.5,0.4-0.6,0.7C576.7,889.1,576.6,889.7,576.6,890.6z"/>
<path class="st56" d="M567.4,890.4c0,0.6-0.1,1.2-0.3,1.7c-0.2,0.5-0.5,1-0.9,1.4c-0.4,0.4-0.9,0.7-1.5,0.9
	c-0.6,0.2-1.2,0.3-1.9,0.3c-0.7,0-1.3-0.1-1.9-0.3c-0.6-0.2-1.1-0.5-1.5-0.9c-0.4-0.4-0.7-0.8-0.9-1.4c-0.2-0.5-0.3-1.1-0.3-1.7
	c0-0.6,0.1-1.2,0.3-1.8c0.2-0.5,0.5-1,0.9-1.4c0.4-0.4,0.9-0.7,1.5-0.9c0.6-0.2,1.2-0.3,1.9-0.3c0.7,0,1.3,0.1,1.9,0.3
	c0.6,0.2,1.1,0.5,1.5,0.9c0.4,0.4,0.7,0.8,0.9,1.4C567.3,889.2,567.4,889.8,567.4,890.4z M565,890.4c0-0.9-0.2-1.5-0.6-2
	c-0.4-0.5-1-0.7-1.7-0.7c-0.5,0-0.9,0.1-1.2,0.3c-0.3,0.2-0.6,0.5-0.8,0.9c-0.2,0.4-0.3,0.9-0.3,1.5c0,0.6,0.1,1,0.3,1.4
	c0.2,0.4,0.5,0.7,0.8,0.9c0.3,0.2,0.8,0.3,1.2,0.3c0.7,0,1.3-0.2,1.7-0.7C564.8,892,565,891.3,565,890.4z"/>
<path class="st56" d="M555.4,893.1c0.4,0.2,0.8,0.4,1.2,0.7c0.4,0.2,0.7,0.4,0.9,0.5c0.1,0.1,0.2,0.3,0.2,0.5c0,0.2-0.1,0.3-0.3,0.5
	c-0.2,0.2-0.4,0.2-0.6,0.2c-0.2,0-0.4-0.1-0.7-0.2c-0.3-0.1-0.6-0.3-1-0.5c-0.4-0.2-0.8-0.5-1.2-0.8c-0.8,0.4-1.8,0.6-3,0.6
	c-1,0-1.9-0.1-2.6-0.4c-0.8-0.3-1.4-0.7-1.9-1.2c-0.5-0.5-0.9-1.2-1.2-1.9c-0.3-0.7-0.4-1.5-0.4-2.4c0-0.9,0.1-1.7,0.4-2.4
	c0.3-0.7,0.7-1.3,1.2-1.9c0.5-0.5,1.2-0.9,1.9-1.2c0.8-0.3,1.6-0.4,2.6-0.4c1.3,0,2.4,0.2,3.4,0.7c0.9,0.5,1.6,1.2,2.1,2
	c0.5,0.9,0.7,1.9,0.7,3.1C557,890.7,556.5,892.1,555.4,893.1z M553.4,891.9c0.4-0.4,0.6-0.8,0.8-1.3c0.2-0.5,0.3-1.1,0.3-1.7
	c0-0.8-0.1-1.5-0.4-2.2c-0.3-0.6-0.7-1.1-1.3-1.4c-0.5-0.3-1.2-0.5-1.9-0.5c-0.5,0-1,0.1-1.4,0.3c-0.4,0.2-0.8,0.4-1.1,0.8
	c-0.3,0.3-0.6,0.8-0.7,1.3c-0.2,0.5-0.3,1.1-0.3,1.7c0,1.3,0.3,2.3,1,3c0.7,0.7,1.5,1.1,2.6,1.1c0.4,0,0.9-0.1,1.3-0.2
	c-0.3-0.2-0.6-0.4-1-0.5c-0.4-0.2-0.7-0.3-0.8-0.4c-0.2-0.1-0.2-0.2-0.2-0.4c0-0.2,0.1-0.3,0.2-0.4c0.1-0.1,0.3-0.2,0.5-0.2
	C551.3,890.7,552.2,891.1,553.4,891.9z"/>
<path class="st57" d="M427.9,103.6c-2.4,3.4-8.8,3.7-14.6,0.8c0.2,0.1,0.3,0.2,0.5,0.3c6.2,3.7,13.3,3.7,15.9,0
	c2.5-3.5-0.1-9.1-5.7-12.8C428.4,95.6,430.2,100.4,427.9,103.6z"/>
<path class="st57" d="M431.6,105.6c-2.7,4.1-10,4.7-17,1.6c0.2,0.1,0.4,0.2,0.6,0.3c7.4,4,15.7,3.7,18.5-0.7
	c2.7-4.2-0.6-10.6-7.3-14.6C431.8,96.3,434.1,101.9,431.6,105.6z"/>
<path class="st57" d="M416.8,117.5c0.2,0.1,0.4,0.2,0.6,0.4c0.2,0.1,0.4,0.2,0.5,0.3c0.1,0.1,0.1,0.2,0.1,0.3c0,0.1,0,0.2-0.1,0.3
	c-0.1,0.1-0.2,0.1-0.3,0.1c-0.1,0-0.2,0-0.4-0.1c-0.1-0.1-0.3-0.1-0.5-0.3c-0.2-0.1-0.4-0.3-0.6-0.4c-0.4,0.2-1,0.3-1.6,0.3
	c-0.5,0-1-0.1-1.4-0.2c-0.4-0.2-0.7-0.4-1-0.6c-0.3-0.3-0.5-0.6-0.6-1c-0.1-0.4-0.2-0.8-0.2-1.3c0-0.5,0.1-0.9,0.2-1.3
	c0.1-0.4,0.4-0.7,0.6-1c0.3-0.3,0.6-0.5,1-0.6c0.4-0.1,0.8-0.2,1.4-0.2c0.7,0,1.3,0.1,1.8,0.4c0.5,0.3,0.9,0.6,1.1,1.1
	c0.3,0.5,0.4,1,0.4,1.7C417.7,116.2,417.4,117,416.8,117.5z M415.8,116.9c0.2-0.2,0.3-0.4,0.4-0.7c0.1-0.3,0.1-0.6,0.1-0.9
	c0-0.4-0.1-0.8-0.2-1.2c-0.2-0.3-0.4-0.6-0.7-0.7c-0.3-0.2-0.6-0.2-1-0.2c-0.3,0-0.5,0-0.7,0.1c-0.2,0.1-0.4,0.2-0.6,0.4
	c-0.2,0.2-0.3,0.4-0.4,0.7c-0.1,0.3-0.1,0.6-0.1,0.9c0,0.7,0.2,1.2,0.5,1.6c0.4,0.4,0.8,0.6,1.3,0.6c0.2,0,0.5,0,0.7-0.1
	c-0.1-0.1-0.3-0.2-0.5-0.3c-0.2-0.1-0.4-0.2-0.4-0.2c-0.1-0.1-0.1-0.1-0.1-0.2c0-0.1,0-0.2,0.1-0.2c0.1-0.1,0.2-0.1,0.2-0.1
	C414.7,116.2,415.1,116.5,415.8,116.9z"/>
<path class="st57" d="M423.1,116.1c0,0.3-0.1,0.6-0.2,0.9c-0.1,0.3-0.3,0.5-0.5,0.7c-0.2,0.2-0.5,0.4-0.8,0.5
	c-0.3,0.1-0.6,0.2-1,0.2c-0.4,0-0.7-0.1-1-0.2c-0.3-0.1-0.6-0.3-0.8-0.5c-0.2-0.2-0.4-0.4-0.5-0.7c-0.1-0.3-0.2-0.6-0.2-0.9
	c0-0.3,0.1-0.7,0.2-0.9c0.1-0.3,0.3-0.5,0.5-0.7c0.2-0.2,0.5-0.4,0.8-0.5c0.3-0.1,0.6-0.2,1-0.2c0.4,0,0.7,0.1,1,0.2
	c0.3,0.1,0.6,0.3,0.8,0.5c0.2,0.2,0.4,0.4,0.5,0.7C423.1,115.5,423.1,115.8,423.1,116.1z M421.9,116.1c0-0.5-0.1-0.8-0.3-1.1
	c-0.2-0.3-0.5-0.4-0.9-0.4c-0.2,0-0.5,0.1-0.6,0.2c-0.2,0.1-0.3,0.3-0.4,0.5c-0.1,0.2-0.1,0.5-0.1,0.8c0,0.3,0,0.6,0.1,0.8
	c0.1,0.2,0.2,0.4,0.4,0.5c0.2,0.1,0.4,0.2,0.6,0.2c0.4,0,0.7-0.1,0.9-0.4C421.8,116.9,421.9,116.6,421.9,116.1z"/>
<path class="st57" d="M428,116.2v1.5c0,0.2-0.1,0.4-0.2,0.5c-0.1,0.1-0.3,0.2-0.5,0.2c-0.2,0-0.3-0.1-0.5-0.2
	c-0.1-0.1-0.2-0.3-0.2-0.5v-1.8c0-0.3,0-0.5,0-0.7c0-0.2-0.1-0.3-0.2-0.4c-0.1-0.1-0.2-0.2-0.4-0.2c-0.4,0-0.7,0.1-0.8,0.4
	c-0.1,0.3-0.2,0.6-0.2,1.1v1.5c0,0.2-0.1,0.4-0.2,0.5c-0.1,0.1-0.3,0.2-0.5,0.2c-0.2,0-0.3-0.1-0.5-0.2c-0.1-0.1-0.2-0.3-0.2-0.5
	v-3.2c0-0.2,0.1-0.4,0.2-0.5c0.1-0.1,0.2-0.2,0.4-0.2c0.2,0,0.3,0.1,0.4,0.2c0.1,0.1,0.2,0.2,0.2,0.4v0.1c0.2-0.2,0.4-0.4,0.7-0.5
	c0.2-0.1,0.5-0.2,0.8-0.2c0.3,0,0.6,0.1,0.8,0.2c0.2,0.1,0.4,0.3,0.6,0.5c0.2-0.2,0.4-0.4,0.7-0.5c0.2-0.1,0.5-0.2,0.8-0.2
	c0.3,0,0.6,0.1,0.9,0.2c0.2,0.1,0.4,0.3,0.5,0.5c0.1,0.2,0.2,0.5,0.2,1v2.2c0,0.2-0.1,0.4-0.2,0.5c-0.1,0.1-0.3,0.2-0.5,0.2
	c-0.2,0-0.3-0.1-0.5-0.2c-0.1-0.1-0.2-0.3-0.2-0.5v-1.9c0-0.2,0-0.4,0-0.6c0-0.1-0.1-0.3-0.2-0.4c-0.1-0.1-0.3-0.1-0.5-0.1
	c-0.2,0-0.3,0-0.5,0.1c-0.1,0.1-0.3,0.2-0.3,0.4C428.1,115.4,428,115.7,428,116.2z"/>
<path class="st57" d="M433,112.8v1.7c0.2-0.2,0.5-0.4,0.7-0.5c0.2-0.1,0.5-0.2,0.9-0.2c0.4,0,0.8,0.1,1.1,0.3
	c0.3,0.2,0.5,0.4,0.7,0.8c0.2,0.3,0.3,0.7,0.3,1.2c0,0.3,0,0.7-0.1,0.9c-0.1,0.3-0.2,0.5-0.4,0.7c-0.2,0.2-0.4,0.4-0.7,0.5
	c-0.3,0.1-0.5,0.2-0.9,0.2c-0.2,0-0.4,0-0.5-0.1c-0.2,0-0.3-0.1-0.4-0.2c-0.1-0.1-0.2-0.1-0.3-0.2c-0.1-0.1-0.2-0.2-0.3-0.3v0.1
	c0,0.2-0.1,0.4-0.2,0.5c-0.1,0.1-0.3,0.2-0.4,0.2c-0.2,0-0.3-0.1-0.4-0.2c-0.1-0.1-0.2-0.3-0.2-0.5v-4.9c0-0.2,0.1-0.4,0.2-0.5
	c0.1-0.1,0.2-0.2,0.4-0.2c0.2,0,0.3,0.1,0.4,0.2C433,112.4,433,112.6,433,112.8z M433.1,116.1c0,0.4,0.1,0.8,0.3,1
	c0.2,0.2,0.5,0.4,0.9,0.4c0.3,0,0.6-0.1,0.8-0.4c0.2-0.2,0.3-0.6,0.3-1.1c0-0.3,0-0.6-0.1-0.8c-0.1-0.2-0.2-0.4-0.4-0.5
	c-0.2-0.1-0.4-0.2-0.6-0.2c-0.2,0-0.4,0.1-0.6,0.2c-0.2,0.1-0.3,0.3-0.4,0.5C433.1,115.6,433.1,115.8,433.1,116.1z"/>
<path class="st57" d="M440.6,117.8c-0.3,0.2-0.6,0.4-0.9,0.5c-0.3,0.1-0.6,0.2-0.9,0.2c-0.3,0-0.6-0.1-0.8-0.2
	c-0.2-0.1-0.4-0.3-0.6-0.5c-0.1-0.2-0.2-0.4-0.2-0.6c0-0.3,0.1-0.6,0.3-0.8c0.2-0.2,0.5-0.4,0.9-0.4c0.1,0,0.3-0.1,0.6-0.1
	c0.3-0.1,0.6-0.1,0.8-0.2c0.2,0,0.5-0.1,0.7-0.2c0-0.3-0.1-0.5-0.2-0.7c-0.1-0.1-0.4-0.2-0.7-0.2c-0.3,0-0.5,0-0.7,0.1
	c-0.2,0.1-0.3,0.2-0.4,0.4c-0.1,0.2-0.2,0.3-0.2,0.3c0,0.1-0.1,0.1-0.3,0.1c-0.1,0-0.3,0-0.4-0.1c-0.1-0.1-0.1-0.2-0.1-0.3
	c0-0.2,0.1-0.4,0.2-0.6c0.2-0.2,0.4-0.3,0.7-0.5c0.3-0.1,0.7-0.2,1.2-0.2c0.5,0,1,0.1,1.3,0.2c0.3,0.1,0.5,0.3,0.7,0.6
	c0.1,0.3,0.2,0.6,0.2,1c0,0.3,0,0.5,0,0.7c0,0.2,0,0.4,0,0.6c0,0.2,0,0.4,0.1,0.7c0.1,0.2,0.1,0.4,0.1,0.4c0,0.1-0.1,0.2-0.2,0.3
	c-0.1,0.1-0.3,0.1-0.4,0.1c-0.1,0-0.3-0.1-0.4-0.2C440.8,118.1,440.7,118,440.6,117.8z M440.5,116.1c-0.2,0.1-0.4,0.1-0.8,0.2
	c-0.3,0.1-0.6,0.1-0.7,0.1c-0.1,0-0.3,0.1-0.4,0.2c-0.1,0.1-0.2,0.2-0.2,0.4c0,0.2,0.1,0.3,0.2,0.4c0.1,0.1,0.3,0.2,0.6,0.2
	c0.2,0,0.5,0,0.7-0.1c0.2-0.1,0.4-0.2,0.5-0.4c0.1-0.2,0.2-0.5,0.2-0.8V116.1z"/>
<g class="st58">
	<g>
		<path class="st59" d="M583.5,38.1c-0.1,0.4-0.2,0.8-0.3,1.2"/>
		<path class="st60" d="M582.5,41.8c-2.2,7.9-5.2,15.7-8.9,23.4"/>
		<path class="st59" d="M573,66.4C573,66.4,573,66.4,573,66.4c-0.2,0.4-0.4,0.8-0.6,1.1"/>
	</g>
</g>
<g class="st58">
	<g>
		<path class="st59" d="M278.8,38.1c0.1,0.4,0.2,0.8,0.3,1.2"/>
		<path class="st60" d="M279.8,41.8c2.2,7.9,5.2,15.7,8.9,23.4"/>
		<path class="st59" d="M289.3,66.4C289.3,66.4,289.3,66.4,289.3,66.4c0.2,0.4,0.4,0.8,0.6,1.1"/>
	</g>
</g>
<path class="st61" d="M169.2,912.9c2.5,1.6,6.6,2.9,11.5,4c4.2,0.9,8.9,1.6,13.9,2.1c4.9,0.6,10,1,14.9,1.3
	c21.9,2.3,55.5-5,97.7-2.8c29.7,1.6,63.7,3.7,101,5.3c2.4,0.1,9.1,0.5,15.7,0.5c7.6,0,15.2-0.5,18.4-0.6c36.1-1.5,69.1-3.6,98-5.1
	c42.3-2.2,75.8,5.1,97.7,2.8c4.8-0.3,10-0.7,14.9-1.3c4.9-0.5,9.7-1.2,13.9-2.1c5-1.1,9.2-2.4,11.7-4.1"/>
<g class="st58">
	<g>
		<line class="st59" x1="35.5" y1="364" x2="36.5" y2="364.8"/>
		<path class="st62" d="M38.5,366.2c0.8,0.5,1.6,1,2.5,1.4l1.2,0.6c0.4,0.2,0.7,0.4,1.1,0.6c10,5.7,33.2,14.9,62.3,22.8l3,0.8
			c18.2,4.9,45.2,11,70.9,12.5"/>
		<line class="st59" x1="180.7" y1="404.9" x2="181.9" y2="405"/>
	</g>
</g>
<g class="st58">
	<g>
		<path class="st59" d="M515.4,78.4c-0.4,0.1-0.8,0.2-1.2,0.4"/>
		<path class="st63" d="M511.8,79.4c-25.1,7.3-53.9,11-85.9,11h-1.5c-32.6,0-61.9-3.9-87.3-11.4"/>
		<path class="st59" d="M335.9,78.7c-0.4-0.1-0.8-0.2-1.2-0.4"/>
	</g>
</g>
<g class="st58">
	<g>
		<line class="st59" x1="668.4" y1="405" x2="669.6" y2="404.9"/>
		<path class="st62" d="M672.1,404.8c25.3-1.7,51.8-7.6,69.7-12.4c0.6-0.2,3.1-0.8,3.1-0.8c29-7.9,52.2-17.1,62.3-22.8
			c0.3-0.2,0.6-0.3,1-0.5l1.3-0.6c1.3-0.7,2.5-1.4,3.5-2.1"/>
		<line class="st59" x1="813.9" y1="364.8" x2="814.9" y2="364"/>
	</g>
</g>
<g class="st58">
	<g>
		<path class="st59" d="M170.6,908.5c0.4,0.2,0.7,0.4,1.1,0.6"/>
		<path class="st64" d="M173.9,910.1c1.8,0.6,3.9,1,6.8,1.6c4.2,0.9,8.9,1.6,13.9,2.1c4.9,0.6,10,1,14.9,1.3
			c21.9,2.3,55.5-5,97.7-2.8c29.7,1.6,63.7,3.7,101,5.3c2.4,0.1,9.1,0.5,15.7,0.5c7.6,0,15.2-0.5,18.4-0.6c36.1-1.5,69.1-3.6,98-5.1
			c42.3-2.2,75.8,5.1,97.7,2.8c4.8-0.3,10-0.7,14.9-1.3c4.9-0.5,9.7-1.2,13.9-2.1c3.8-0.8,7-1.7,9.5-2.9"/>
		<path class="st59" d="M677.4,908.3c0.4-0.2,0.7-0.4,1.1-0.6"/>
	</g>
</g>
<g class="st58">
	<g>
		<path class="st59" d="M138.9,105.2c0.1,0.4,0.2,0.8,0.1,1.2"/>
		<path class="st65" d="M138.1,108.8c-1.5,2.6-4.4,5-4.4,5c-5,4.5-6.3,12.3-3.2,18.5l1.5,3.1c0.1,0.1,0.1,0.3,0.2,0.4
			c0.4,0.9,0.9,1.8,1.4,2.7"/>
		<path class="st59" d="M134.2,139.6c0.2,0.4,0.4,0.7,0.6,1.1"/>
	</g>
</g>
<g class="st58">
	<g>
		<path class="st59" d="M711.4,105.2c-0.1,0.4-0.2,0.8-0.1,1.2"/>
		<path class="st66" d="M712.1,108.8c1.5,2.6,4.4,5,4.4,5c5,4.5,6.3,12.3,3.2,18.5l-1.5,3.1c-0.1,0.1-0.1,0.3-0.2,0.4
			c-0.4,0.8-0.8,1.7-1.3,2.6"/>
		<path class="st59" d="M716.1,139.5c-0.2,0.4-0.4,0.7-0.6,1.1"/>
	</g>
</g>
<g class="st58">
	<g>
		<path class="st59" d="M191.6,394.4c0.3-0.3,0.5-0.6,0.8-1"/>
		<path class="st67" d="M193.7,391.3c2.7-5.5,2.3-13,2.1-15.2c-9.5-118.6-40.5-192.4-57.6-228.2"/>
		<path class="st59" d="M137.7,146.8c-0.2-0.4-0.4-0.8-0.5-1.1c0.3-0.2,0.7-0.5,1-0.7"/>
		<path class="st68" d="M140.3,143.6c15.7-9.9,36.4-17.7,47-21.6c2.1-0.8,3.8-1.4,5-1.9l1.4-0.5c0.9-0.3,1.7-0.7,2.4-1
			c34.6-13.9,64.2-29,88.3-44.9"/>
		<path class="st59" d="M285.4,72.9c0.3-0.2,0.7-0.5,1-0.7c0.2,0.4,0.4,0.7,0.6,1.1"/>
		<path class="st69" d="M288.3,75.5c0.3,0.5,0.6,1,0.9,1.5l0.1,0.1c10,15.3,33.4,36.8,61.2,48.1c17.2,6.9,26.3,14.7,26.4,14.8
			l1.6,1.4h42.1h9.1h39.8l2.3,0l1.6-1.4c0.1-0.1,9.2-7.8,26.4-14.8c27.8-11.2,51.2-32.8,61.2-48.1l0.1-0.1c0.5-0.8,1-1.7,1.5-2.5"/>
		<path class="st59" d="M563.3,73.3c0.2-0.4,0.4-0.7,0.6-1.1c0.3,0.2,0.7,0.5,1,0.7"/>
		<path class="st70" d="M567,74.3c23.8,15.6,53.1,30.5,87.2,44.2c0.7,0.3,1.6,0.6,2.4,1l1.4,0.5c1.2,0.5,2.9,1.1,5,1.9
			c10.9,4.1,32.2,12,48,22.3"/>
		<path class="st59" d="M712.1,144.9c0.3,0.2,0.7,0.5,1,0.7c-0.2,0.4-0.4,0.7-0.5,1.1"/>
		<path class="st71" d="M711.5,149c-17.2,36.2-47.6,109.7-57,227.1c-0.2,2.3-0.6,10.7,2.7,16.2"/>
		<path class="st59" d="M657.9,393.4c0.2,0.3,0.5,0.7,0.8,1"/>
	</g>
</g>
</svg>
