<?xml version="1.0" encoding="utf-8"?>
<!-- Generator: Adobe Illustrator 24.1.0, SVG Export Plug-In . SVG Version: 6.00 Build 0)  -->
<svg version="1.1" id="Layer_1" xmlns="http://www.w3.org/2000/svg" xmlns:xlink="http://www.w3.org/1999/xlink" x="0px" y="0px"
	 viewBox="0 0 645 823.5" enable-background="new 0 0 645 823.5" xml:space="preserve">
<g id="principal">
	<path id="SVGID_1_" fill="#52B848" d="M517.9,771.6c-0.8-5.2-1.4-10.5-1.8-15.8c-5.1-61.2-3-62.2-6.8-100.4c-3.1-31-7-47-8.3-67.1
		c-1.4-20.2-4.1-43.5-3.7-68.5c0.5-17-0.5-31.6-0.2-48.4c-2.1-25.6,1-77.3,1-77.3c0-15-0.8-28.8,1.7-41.5c0,0,0,0,0-0.1
		c0.7-7.1,1.5-14.1,2.3-20.9l0,0c7-108.6,33-174.5,47.1-206.4c-15.1-12.5-40-21.7-46.6-24.5c-1.1-0.5-2.1-0.9-2.9-1.3
		c-39-17.1-65.6-35.9-77.8-45.3c0.2-0.4-11.6-8.3-11.6-8.3c-9,4.4-19.8,10-19.8,10c-24.1,9.1-69.6,9.1-69.6,9.1L300,64.1
		c0,0-27.3,0.8-49-9.6c-3.5-1.7-18.5-5.5-19.9-8.7c0.2,0.4-16.9,11.3-16.7,11.7c-12.2,9.4-34.5,24.8-73.5,41.9
		c-0.9,0.4-1.8,0.8-2.9,1.3c-6.6,2.9-31.5,12-46.6,24.5c14.1,31.9,40.2,97.9,47.1,206.4l0,0c0.9,6.8,1.6,13.8,2.3,20.9
		c0,0,0,0,0,0.1c2.5,12.7,1.7,26.5,1.7,41.5c0,0,3.1,51.7,1,77.3c0.3,16.9-0.7,31.4-0.2,48.4c0.4,25-2.3,48.3-3.7,68.5
		s-5.2,36.1-8.3,67.1c-3.8,38.2-1.7,39.2-6.8,100.4c-0.4,5.3-1,10.6-1.8,15.8c-0.9,6.1-0.1,12-2.1,17.8c-0.6,1.8-2.5,5.5,0.5,8.8
		c1.7,1.8,5.4,3.2,10.1,4.3c3.2,0.7,6.9,1.3,10.8,1.8c3.8,0.5,7.8,0.8,11.6,1.1c17,1.9,43.1-4.3,76-2.4c26.3,1.5,56.9,3.7,90.6,5
		l0,0l0,0l0,0c33.8-1.3,64.4-3.5,90.6-5c32.9-1.9,59,4.3,76,2.4c3.8-0.3,7.7-0.6,11.6-1.1c3.8-0.5,7.5-1.1,10.8-1.8
		c4.7-1.1,8.4-2.5,10.1-4.3c3-3.3,1.1-7,0.5-8.8C518,783.6,518.9,777.6,517.9,771.6z"/>
</g>
<g id="mangas">
	<path fill="#3E3E3E" d="M79.4,105.6c3.7-2.9,7.7-5.7,11.9-8.2c-5.3,5.2-6.6,13.8-3.4,20.7c0.4,0.8,0.8,1.7,1.2,2.7
		c0,0.1,0.1,0.1,0.1,0.2c13.3,29.3,42,95.7,49.4,208.9l0,0c-2.2,5.2-3.9,8.4-6.2,14.5c-0.6,1.4-0.5,5.7-2.4,7.3
		c-39.7-2.5-90.8-20.8-108.1-31.3c-0.5-0.3-1.1-0.6-1.6-0.9c-1.4-0.8-2.6-1.6-3.7-2.5c-0.6-3.2,2-4.1,2.6-6.2
		c9-30.8,18.5-54.5,21.9-83.4c8.6-73.3,13-95,30.1-113.9C73.2,111.4,77.2,107.3,79.4,105.6z"/>
	<path fill="#3E3E3E" d="M561.3,105.6c-3.7-2.9-7.7-5.7-11.9-8.2c5.3,5.2,6.6,13.8,3.4,20.7c-0.4,0.8-0.8,1.7-1.2,2.7
		c0,0.1-0.1,0.1-0.1,0.2c-13.3,29.3-42,95.7-49.4,208.9l0,0c2.2,5.2,3.9,8.4,6.2,14.5c0.6,1.4,0.5,5.7,2.4,7.3
		c39.7-2.5,90.8-20.8,108.1-31.3c0.5-0.3,1.1-0.6,1.6-0.9c1.4-0.8,2.6-1.6,3.7-2.5c0.6-3.2-2-4.1-2.6-6.2
		c-9-30.8-18.5-54.5-21.9-83.4c-8.6-73.3-13-95-30.1-113.9C567.5,111.4,563.5,107.3,561.3,105.6z"/>
	<path fill="#3E3E3E" d="M552.8,118.3c-0.4,0.8-0.8,1.7-1.2,2.7c0,0.1-0.1,0.1-0.1,0.2c-0.7,1.6-1.5,3.3-2.2,5
		c-15.1-12.5-40-21.7-46.6-24.5c-1.1-0.5-2.1-0.9-2.9-1.3c-39-17.1-61.3-32.5-73.5-41.9l0,0l0,0L410,46.8c0.4-0.2,0.9-0.5,1.4-0.8
		c0.4-0.2,0.7-0.4,1.1-0.6c0.7-0.4,1.5-0.8,2.3-1.2c0.3-0.2,0.6-0.3,1-0.5c0.7-0.4,1.4-0.7,2.1-1.1c0.5-0.3,1-0.6,1.6-0.8
		c0.8-0.4,1.7-0.9,2.5-1.4c0.5-0.3,0.9-0.5,1.4-0.7c4.1-2.2,8.1-4.5,11.4-6.4l0,0c-0.1-0.1-0.2-0.2-0.4-0.3
		c8.8,7.1,29.2,24.3,75.6,44.7c7.6,3.4,24.3,10.3,39.6,19.8C554.7,102.7,556,111.4,552.8,118.3z"/>
	<path fill="#3E3E3E" d="M230.7,46.8L230.7,46.8l-16.3,11.7c-12.2,9.4-34.5,24.8-73.5,41.9c-0.9,0.4-1.8,0.8-2.9,1.3
		c-6.6,2.9-31.5,12-46.6,24.5c-0.8-1.8-1.5-3.5-2.2-5c0-0.1-0.1-0.1-0.1-0.2c-0.4-0.9-0.8-1.8-1.2-2.7c-3.2-7-1.9-15.6,3.4-20.9
		c15.3-9.6,32-16.5,39.6-19.8C177,57.3,197.4,40.3,206.3,33c0,0,0.1,0,0.1-0.1c-0.1,0.1-0.2,0.2-0.3,0.3l0,0c1.8,1,3.8,2.2,5.9,3.4
		c0.1,0,0.1,0,0.1,0.1c4.1,2.3,8.6,4.7,12.5,6.8c1.8,1,3.4,1.8,4.9,2.6c0.2,0.1,0.4,0.2,0.6,0.3C230.3,46.6,230.5,46.7,230.7,46.8z"
		/>
</g>
<g id="bordes">
	<path fill="#FFFFFF" stroke="#010101" stroke-linejoin="round" stroke-miterlimit="10" d="M129.9,351.6c0,0-2.7,3.2-3.9,4.5
		c-2.1,2.1-4.4,8.3-6.4,13.1c-0.3,0.7-0.5,2.3-2.7,2.3c-28.4-0.7-77.5-16.8-94.3-26.1c-0.5-0.3-7.7-3.7-8.7-5.1c-0.6-0.9-0.4-2,0-3
		c2.5-6.8,4.3-11.4,4-14.3c-0.2-2.7-1.4-6.1-1.4-6.1c1,0.9,2.3,1.7,3.7,2.5c0.3,0.2,0.6,0.3,0.9,0.5c0.2,0.1,0.5,0.2,0.7,0.4
		c8.1,5,26.5,13,49.4,19.8c0.8,0.2,1.6,0.5,2.4,0.7C91.9,346.2,112.1,350.5,129.9,351.6z"/>
	<path fill="#FFFFFF" stroke="#010101" stroke-linejoin="round" stroke-miterlimit="10" d="M434.3,32.8L434.3,32.8
		c-0.2-0.1-0.3-0.2-0.5-0.4c-3.5-3-8.7-7.1-11.1-9.6c-1.6-1.6-3-3-3.8-4c-0.6-0.7-1.4-1.1-2.3-1.1c-0.8,0-1.4,0.3-1.9,0.7
		c-0.4,0.3-0.8,0.7-1.3,1.1c-0.4,0.3-0.7,0.6-1.2,1c0,0,0.1,0,0.1-0.1l-0.1,0.1l0,0l0,0l0,0c-9.9,8-37.7,24.1-91.4,24.2h-0.6h-0.6
		c-53.7,0-81.5-16.2-91.4-24.2l0,0l0,0l0,0l-0.1-0.1l0.1,0.1c0,0,0,0-0.1,0c-0.4-0.3-0.8-0.6-1.1-0.9c-0.4-0.4-0.8-0.8-1.3-1.1
		c-0.5-0.4-1.1-0.7-1.9-0.7c-0.7,0-1.4,0.3-2,0.9c-0.1,0.1-0.2,0.2-0.3,0.3c-0.3,0.3-0.6,0.7-0.9,1.1c-0.2,0.3-0.5,0.5-0.8,0.9
		c-0.4,0.5-0.9,0.9-1.4,1.5c-0.2,0.2-0.4,0.4-0.6,0.6l0,0c-2.4,2.4-7.6,6.6-11.1,9.6c-0.1,0.1-0.3,0.2-0.4,0.4l0,0
		c0,0-0.1,0-0.1,0.1c0,0-0.1,0-0.1,0.1c-0.1,0.1-0.1,0.1-0.2,0.2l0,0l0,0l0,0c1.8,1,3.8,2.2,5.9,3.4c0.1,0,0.1,0,0.1,0.1
		c4.1,2.3,8.6,4.8,12.5,6.8c1.8,1,3.4,1.8,4.9,2.6c0.2,0.1,0.4,0.2,0.6,0.3c0.2,0.1,0.4,0.2,0.6,0.3c1.9,1,3.3,1.7,3.9,2.1
		c0.1,0,0.1,0.1,0.2,0.1c0.1,0,0.1,0,0.1,0.1c0.1,0,0.1,0,0.1,0l0,0l0,0c0.4,0.2,0.8,0.4,1.1,0.5c0.2,0.1,0.4,0.2,0.6,0.3
		c0.2,0.1,0.4,0.2,0.5,0.3c0.2,0.1,0.4,0.2,0.6,0.3c0.4,0.2,0.7,0.3,1.1,0.5l0,0c0.2,0.1,0.4,0.2,0.6,0.3c0.4,0.2,0.7,0.3,1.1,0.5
		c0.3,0.1,0.5,0.2,0.8,0.3c17.3,7.3,42.7,13.8,78.2,13.8h0.6h0.6c35.5,0,60.9-6.6,78.2-13.8c0.3-0.1,0.5-0.2,0.8-0.3
		c0.4-0.2,0.7-0.3,1-0.5c0.2-0.1,0.4-0.2,0.6-0.3c0.4-0.2,0.8-0.3,1.1-0.5c0.2-0.1,0.4-0.2,0.6-0.3c0.4-0.2,0.7-0.3,1.1-0.5
		s0.8-0.4,1.2-0.5l0,0h0.1c0,0,0.1,0,0.1-0.1h0.1h0.1c0.7-0.3,2.1-1.1,3.9-2.1c0.4-0.2,0.9-0.5,1.4-0.8c0.4-0.2,0.7-0.4,1.1-0.6
		c0.7-0.4,1.5-0.8,2.3-1.2c0.3-0.2,0.6-0.3,1-0.5c0.7-0.4,1.4-0.7,2.1-1.1c0.5-0.3,1-0.6,1.6-0.8c0.8-0.4,1.7-0.9,2.5-1.4
		c0.5-0.3,0.9-0.5,1.4-0.7c4.1-2.2,8.1-4.5,11.4-6.4l0,0C434.5,33.1,434.4,33,434.3,32.8z"/>
	<path fill="#FFFFFF" stroke="#010101" stroke-linejoin="round" stroke-miterlimit="10" d="M510.8,351.6c0,0,2.7,3.2,3.9,4.5
		c2.1,2.1,4.4,8.3,6.4,13.1c0.3,0.7,0.5,2.3,2.7,2.3c28.4-0.7,77.5-16.8,94.3-26.1c0.5-0.3,7.7-3.7,8.7-5.1c0.6-0.9,0.4-2,0-3
		c-2.5-6.8-4.3-11.4-4-14.3c0.2-2.7,1.4-6.1,1.4-6.1c-1,0.9-2.3,1.7-3.7,2.5c-0.3,0.2-0.6,0.3-0.9,0.5c-0.2,0.1-0.4,0.2-0.7,0.4
		c-8.1,5-26.5,13-49.4,19.8c-0.8,0.2-1.6,0.5-2.4,0.7C548.8,346.2,528.6,350.5,510.8,351.6z"/>
</g>
<g>
	<g opacity="0.5">
		<g>
			<path fill="none" stroke="#010101" stroke-width="0.75" stroke-linecap="round" stroke-miterlimit="10" d="M98.3,92.1
				c0.1,0.4,0.1,0.8,0.1,1.2"/>

				<path fill="none" stroke="#010101" stroke-width="0.75" stroke-linecap="round" stroke-miterlimit="10" stroke-dasharray="2.3739,2.3739" d="
				M97.6,95.5c-1.2,2-3.2,3.9-3.2,3.9c-3.9,3.8-4.9,10.4-2.5,15.7l1.2,2.6c0.1,0.1,0.1,0.2,0.2,0.3c0.3,0.6,0.6,1.3,0.9,2"/>
			<path fill="none" stroke="#010101" stroke-width="0.75" stroke-linecap="round" stroke-miterlimit="10" d="M94.7,121.1
				c0.2,0.4,0.3,0.8,0.5,1.1"/>
		</g>
	</g>
	<g opacity="0.5">
		<g>
			<path fill="none" stroke="#010101" stroke-width="0.75" stroke-linecap="round" stroke-miterlimit="10" d="M542.4,92.1
				c-0.1,0.4-0.1,0.8-0.1,1.2"/>

				<path fill="none" stroke="#010101" stroke-width="0.75" stroke-linecap="round" stroke-miterlimit="10" stroke-dasharray="2.3555,2.3555" d="
				M543.2,95.5c1.2,2.1,3.2,3.9,3.2,3.9c3.9,3.8,4.9,10.4,2.5,15.7l-1.2,2.6c-0.1,0.1-0.1,0.2-0.2,0.3c-0.3,0.6-0.5,1.2-0.8,1.8"/>
			<path fill="none" stroke="#010101" stroke-width="0.75" stroke-linecap="round" stroke-miterlimit="10" d="M546.1,120.9
				c-0.2,0.4-0.3,0.8-0.5,1.1"/>
		</g>
	</g>
	<g opacity="0.5">
		<g>
			<path fill="none" stroke="#010101" stroke-width="0.75" stroke-linecap="round" stroke-miterlimit="10" d="M139.2,337.2
				c0.3-0.3,0.5-0.7,0.7-1"/>

				<path fill="none" stroke="#010101" stroke-width="0.75" stroke-linecap="round" stroke-miterlimit="10" stroke-dasharray="2.472,2.472" d="
				M141.1,334c1.8-4.6,1.5-10.5,1.4-12.3c-7.3-100-31.1-162.4-44.4-192.9"/>
			<path fill="none" stroke="#010101" stroke-width="0.75" stroke-linecap="round" stroke-miterlimit="10" d="M97.6,127.6
				c-0.2-0.4-0.3-0.8-0.5-1.1c0.3-0.2,0.7-0.5,1-0.7"/>

				<path fill="none" stroke="#010101" stroke-width="0.75" stroke-linecap="round" stroke-miterlimit="10" stroke-dasharray="2.4919,2.4919" d="
				M100.1,124.3c12.2-8.3,27.9-14.7,36-18.1c1.6-0.7,2.9-1.2,3.9-1.6l1.1-0.5c0.7-0.3,1.3-0.6,1.9-0.8c29.4-12.9,54.2-27,73.7-41.9
				c0,0,7-5.1,12.7-9"/>
			<path fill="none" stroke="#010101" stroke-width="0.75" stroke-linecap="round" stroke-miterlimit="10" d="M230.3,51.7
				c0.4-0.2,0.7-0.5,1-0.7c0.4,0.2,0.8,0.4,1.1,0.6"/>

				<path fill="none" stroke="#010101" stroke-width="0.75" stroke-linecap="round" stroke-miterlimit="10" stroke-dasharray="2.4812,2.4812" d="
				M234.7,52.7h0.1l0.3,0.1c0.1,0.1,0.2,0.1,0.3,0.2l0.1,0.1l0.1,0.1c0.1,0,0.2,0.1,0.3,0.1l0.3,0.2c0.2,0.1,0.4,0.2,0.6,0.3
				l1.3,0.6l0,0l1.7,0.7c22.3,9.4,49.2,14.2,79.9,14.2h1.3c30.7,0,57.5-4.8,79.8-14.2c0.2-0.1,0.4-0.2,0.6-0.3c0,0,1.1-0.5,1.3-0.6
				c0.2-0.1,1.8-0.8,1.8-0.8l0.3-0.1c0.1,0,0.2-0.1,0.3-0.1c0,0,0.9-0.4,1.2-0.6c0.4-0.2,0.7-0.3,1-0.5"/>
			<path fill="none" stroke="#010101" stroke-width="0.75" stroke-linecap="round" stroke-miterlimit="10" d="M408.5,51.5
				c0.2-0.1,0.6-0.3,1.1-0.6c0.3,0.2,0.7,0.5,1,0.7"/>

				<path fill="none" stroke="#010101" stroke-width="0.75" stroke-linecap="round" stroke-miterlimit="10" stroke-dasharray="2.489,2.489" d="
				M412.7,53c5.5,3.9,11.8,8.4,11.8,8.4c19.5,14.9,44.3,29,73.7,41.9c0.6,0.3,1.2,0.5,1.9,0.8l1.1,0.5c0.9,0.4,2.3,0.9,3.9,1.6
				c8.3,3.4,24.5,10,36.8,18.6"/>
			<path fill="none" stroke="#010101" stroke-width="0.75" stroke-linecap="round" stroke-miterlimit="10" d="M542.7,125.6
				c0.3,0.2,0.7,0.5,1,0.7c-0.2,0.4-0.3,0.8-0.5,1.1"/>

				<path fill="none" stroke="#010101" stroke-width="0.75" stroke-linecap="round" stroke-miterlimit="10" stroke-dasharray="2.4745,2.4745" d="
				M542.2,129.7c-13.4,30.9-36.8,93-44,192c-0.1,1.9-0.4,8.7,1.9,13.4"/>
			<path fill="none" stroke="#010101" stroke-width="0.75" stroke-linecap="round" stroke-miterlimit="10" d="M500.7,336.2
				c0.2,0.4,0.5,0.7,0.7,1"/>
		</g>
	</g>
	<g opacity="0.5">
		<g>

				<line fill="none" stroke="#010101" stroke-width="0.75" stroke-linecap="round" stroke-miterlimit="10" x1="202.5" y1="35" x2="203.5" y2="35.7"/>

				<path fill="none" stroke="#010101" stroke-width="0.75" stroke-linecap="round" stroke-miterlimit="10" stroke-dasharray="2.3003,2.3003" d="
				M205.5,36.9c1.3,0.8,2.8,1.6,4.4,2.5l0.3,0.1c3.6,2,7.8,4.3,12.4,6.8c0,0,0.9,0.5,2,1.1"/>
			<path fill="none" stroke="#010101" stroke-width="0.75" stroke-linecap="round" stroke-miterlimit="10" d="M225.7,48
				c0.4,0.2,0.8,0.4,1.1,0.6"/>
		</g>
	</g>
	<g opacity="0.5">
		<g>

				<line fill="none" stroke="#010101" stroke-width="0.75" stroke-linecap="round" stroke-miterlimit="10" x1="438.3" y1="35.1" x2="437.3" y2="35.7"/>

				<path fill="none" stroke="#010101" stroke-width="0.75" stroke-linecap="round" stroke-miterlimit="10" stroke-dasharray="2.2982,2.2982" d="
				M435.3,36.9c-2.7,1.5-6,3.4-9.9,5.5c-0.4,0.2-0.7,0.4-1,0.5l-0.9,0.5c-0.7,0.4-1.4,0.7-2,1.1l-1.5,0.8c-0.7,0.4-3.1,1.7-3.1,1.7
				c-0.2,0.1-0.5,0.2-0.7,0.4"/>

				<line fill="none" stroke="#010101" stroke-width="0.75" stroke-linecap="round" stroke-miterlimit="10" x1="415.1" y1="48" x2="414" y2="48.6"/>
		</g>
	</g>
</g>
<g id="numero_dorso" visibility="hidden">
	<text transform="matrix(1.0405 0 0 1 217.3989 480.5255)" font-family="'ArialMT'" font-size="381.4575px">9</text>
</g>
<g id="nombre" visibility="hidden">
	<text transform="matrix(1.3695 -4.974136e-03 3.206701e-03 1 138.5998 172.4368)" font-family="'ArialMT'" font-size="59.7343px">NOMBRE</text>
</g>
</svg>
