<?xml version="1.0" encoding="utf-8"?>
<!-- Generator: Adobe Illustrator 24.1.0, SVG Export Plug-In . SVG Version: 6.00 Build 0)  -->
<svg version="1.1" id="Layer_1" xmlns="http://www.w3.org/2000/svg" xmlns:xlink="http://www.w3.org/1999/xlink" x="0px" y="0px"
	 viewBox="0 0 640.5 813.9" enable-background="new 0 0 640.5 813.9" xml:space="preserve">
<g id="principal">
	<path id="SVGID_1_" fill="#52B848" d="M519.5,765.5c-0.8-5.2-1.4-10.5-1.8-15.8c-5.1-61.2-3-62.2-6.8-100.4c-3.1-31-7-47-8.3-67.1
		c-1.4-20.2-4.1-43.5-3.7-68.5c0.5-17-0.5-31.6-0.2-48.4c-2.1-25.6,1-77.3,1-77.3c0-15-0.8-28.8,1.7-41.5c0,0,0,0,0-0.1
		c0.7-7.1,1.5-14.1,2.3-20.9l0,0c7-108.6,33-174.5,47.1-206.4c-15.1-12.5-40-21.7-46.6-24.5c-1.1-0.5-2.1-0.9-2.9-1.3
		c-39-17.1-61.3-32.5-73.5-41.9c0.2-0.4,0.4-0.9,0.6-1.3c-1.4,3.2-3,6.5-4.9,9.9c-7.6,12.8-25.4,30.1-45.5,38.9
		c-14.3,6.3-21.7,13.4-21.7,13.4H322c0,0,0,0-0.1,0l0,0l0,0l0,0l0,0c0,0,0,0-0.1,0h-34.3c0,0-7.4-7-21.7-13.4
		c-20.1-8.8-37.8-26.2-45.5-39c-1.9-3.4-3.5-6.7-4.9-9.9c0.2,0.4,0.4,0.9,0.6,1.3c-12.2,9.4-34.5,24.8-73.5,41.9
		c-0.9,0.4-1.8,0.8-2.9,1.3c-6.6,2.9-31.5,12-46.6,24.5c14.1,31.9,40.2,97.9,47.1,206.4l0,0c0.9,6.8,1.6,13.8,2.3,20.9
		c0,0,0,0,0,0.1c2.5,12.7,1.7,26.5,1.7,41.5c0,0,3.1,51.7,1,77.3c0.3,16.9-0.7,31.4-0.2,48.4c0.4,25-2.3,48.3-3.7,68.5
		s-5.2,36.1-8.3,67.1c-3.8,38.2-1.7,39.2-6.8,100.4c-0.4,5.3-1,10.6-1.8,15.8c-0.9,6.1-0.1,12-2.1,17.8c-0.6,1.8-2.5,5.5,0.5,8.8
		c1.7,1.8,5.4,3.2,10.1,4.3c3.2,0.7,6.9,1.3,10.8,1.8c3.8,0.5,7.8,0.8,11.6,1.1c17,1.9,43.1-4.3,76-2.4c26.3,1.5,56.9,3.7,90.6,5
		l0,0l0,0l0,0c33.8-1.3,64.4-3.5,90.6-5c32.9-1.9,59,4.3,76,2.4c3.8-0.3,7.7-0.6,11.6-1.1c3.8-0.5,7.5-1.1,10.8-1.8
		c4.7-1.1,8.4-2.5,10.1-4.3c3-3.3,1.1-7,0.5-8.8C519.7,777.5,520.5,771.5,519.5,765.5z"/>
</g>
<g id="bordes">
	<path fill="#FFFFFF" stroke="#010101" stroke-linejoin="round" stroke-miterlimit="10" d="M131.6,344.5c0,0-2.7,3.2-3.9,4.5
		c-2.1,2.1-4.4,8.3-6.4,13.1c-0.3,0.7-0.5,2.3-2.7,2.3c-28.4-0.7-77.5-16.8-94.3-26.1c-0.5-0.3-7.7-3.7-8.7-5.1c-0.6-0.9-0.4-2,0-3
		c2.5-6.8,4.3-11.4,4-14.3c-0.2-2.7-1.4-6.1-1.4-6.1c1,0.9,2.3,1.7,3.7,2.5c0.3,0.2,0.6,0.3,0.9,0.5c0.2,0.1,0.5,0.2,0.7,0.4
		c8.1,5,26.5,13,49.4,19.8c0.8,0.2,1.6,0.5,2.4,0.7C93.6,339.1,113.7,343.4,131.6,344.5z"/>
	<path fill="#FFFFFF" stroke="#010101" stroke-linejoin="round" stroke-miterlimit="10" d="M513.4,344.5c0,0,2.7,3.2,3.9,4.5
		c2.1,2.1,4.4,8.3,6.4,13.1c0.3,0.7,0.5,2.3,2.7,2.3c28.4-0.7,77.5-16.8,94.3-26.1c0.5-0.3,7.7-3.7,8.7-5.1c0.6-0.9,0.4-2,0-3
		c-2.5-6.8-4.3-11.4-4-14.3c0.2-2.7,1.4-6.1,1.4-6.1c-1,0.9-2.3,1.7-3.7,2.5c-0.3,0.2-0.6,0.3-0.9,0.5c-0.2,0.1-0.4,0.2-0.7,0.4
		c-8.1,5-26.5,13-49.4,19.8c-0.8,0.2-1.6,0.5-2.4,0.7C551.4,339.1,531.3,343.4,513.4,344.5z"/>
	<path fill="#FFFFFF" stroke="#000000" stroke-miterlimit="10" d="M436.3,26.1c-0.9,4.4-3.1,13.9-8.4,25.3c-1.3,2.8-2.7,5.7-4.4,8.6
		c-7.6,12.8-25.4,30.1-45.5,39c-14.3,6.3-21.7,13.4-21.7,13.4H322c0,0-1.7-8.1,39.4-27c17-7.8,28.6-18.8,36.4-28.9
		c4.1-5.3,7.2-10.3,9.4-14.5c1.2-2.2,2.1-4.2,2.9-5.8c0-0.1,0.1-0.2,0.1-0.3c0.1-0.2,0.2-0.4,0.3-0.6c0.6-1.4,0.9-2.3,1.1-2.7
		c0,0,0-0.1,0.1-0.1c0.9-2.1,1.6-4,2.2-5.7c0.2-0.5,0.3-1,0.5-1.4s0.3-0.9,0.5-1.3c0.2-0.6,0.4-1.3,0.6-1.8c0.1-0.2,0.1-0.4,0.2-0.6
		c0.3-0.9,0.5-1.8,0.7-2.5c0.1-0.5,0.2-0.9,0.3-1.3c0.3-1.6,0.4-2.8,0.3-3.6c0-0.2-0.1-0.4-0.1-0.6c0-0.1-0.1-0.2-0.1-0.3
		c-0.1-0.1-0.1-0.2-0.2-0.2c-0.5-0.5-1.3-0.3-2.3,0.4c-0.1,0.1-0.2,0.1-0.2,0.2c0.4-0.4,0.8-0.7,1.2-1c0.4-0.4,0.8-0.8,1.3-1.1
		c0.5-0.4,1.1-0.7,1.9-0.7c0.9,0,1.6,0.4,2.3,1.1c0.8,0.9,2.1,2.3,3.8,4c2.5,2.4,7.6,6.6,11.1,9.6c0.1,0.1,0.3,0.2,0.4,0.4
		C436,25.9,436.2,26,436.3,26.1z"/>
	<path fill="#FFFFFF" stroke="#010101" stroke-linejoin="round" stroke-miterlimit="10" d="M321.9,112.3h-34.3c0,0-7.4-7-21.7-13.4
		c-20.1-8.8-37.8-26.2-45.5-39c-1.6-3-3.1-5.8-4.4-8.6c-5.2-11.4-7.4-20.9-8.4-25.3c0.1-0.1,0.3-0.2,0.4-0.3
		c0.1-0.1,0.3-0.2,0.4-0.4c3.5-3,8.7-7.1,11.1-9.6c1.6-1.6,3-3,3.8-4c0.6-0.7,1.4-1.1,2.3-1.1c0.8,0,1.4,0.3,1.9,0.7
		c0.4,0.3,0.8,0.7,1.3,1.1c0.4,0.3,0.7,0.6,1.2,1c-0.1-0.1-0.2-0.1-0.2-0.2c-0.9-0.6-1.8-0.9-2.3-0.4c-0.1,0.1-0.1,0.1-0.2,0.2
		s-0.1,0.2-0.1,0.3c-0.1,0.2-0.1,0.3-0.1,0.6c-0.1,0.8,0,2,0.3,3.6c0.1,0.4,0.2,0.8,0.3,1.3c0.2,0.8,0.4,1.6,0.7,2.5
		c0.1,0.2,0.1,0.4,0.2,0.6c0.2,0.6,0.4,1.2,0.6,1.8c0.1,0.4,0.3,0.9,0.5,1.3s0.3,0.9,0.5,1.4c0.6,1.7,1.4,3.6,2.2,5.7
		c0.4,1,0.8,1.9,1.2,2.9c0.1,0.2,0.2,0.4,0.3,0.6c0,0.1,0.1,0.2,0.1,0.3c0.7,1.6,1.7,3.6,2.9,5.8c2.2,4.2,5.3,9.2,9.4,14.5
		c7.8,10.1,19.4,21.1,36.4,28.9C323.6,104.2,321.9,112.3,321.9,112.3z"/>
	<path fill="#FFFFFF" stroke="#010101" stroke-linejoin="round" stroke-miterlimit="10" d="M229.7,13.4c-0.9-0.6-1.8-0.9-2.3-0.4
		c-0.1,0.1-0.1,0.1-0.2,0.2s-0.1,0.2-0.1,0.3c-0.1,0.2-0.1,0.3-0.1,0.6c-0.1,0.8,0,2,0.3,3.6c0.1,0.4,0.2,0.8,0.3,1.3
		c0.2,0.8,0.4,1.6,0.7,2.5c0.1,0.2,0.1,0.4,0.2,0.6c0.2,0.6,0.4,1.2,0.6,1.8c0.1,0.4,0.3,0.9,0.5,1.3s0.3,0.9,0.5,1.4
		c0.6,1.7,1.4,3.6,2.2,5.7c0.4,1,0.8,1.9,1.2,2.9c0.1,0.3,0.3,0.6,0.4,0.9c0.7,1.6,1.7,3.6,2.9,5.8c0.4,0.2,0.8,0.4,1.2,0.6
		c0.4,0.2,0.7,0.3,1.1,0.5c0.2,0.1,0.4,0.2,0.6,0.3c0.4,0.2,0.7,0.3,1.1,0.5c0.2,0.1,0.4,0.2,0.6,0.3c0.4,0.2,0.7,0.3,1.1,0.5
		c0.3,0.1,0.5,0.2,0.8,0.3c17.3,7.3,42.7,13.8,78.2,13.8h1.3c35.5,0,60.9-6.6,78.2-13.8c0.3-0.1,0.5-0.2,0.8-0.3
		c0.4-0.2,0.7-0.3,1.1-0.5c0.2-0.1,0.4-0.2,0.6-0.3c0.4-0.2,0.8-0.3,1.1-0.5c0.2-0.1,0.4-0.2,0.6-0.3c0.4-0.2,0.7-0.3,1.1-0.5
		s0.8-0.4,1.2-0.5c1.2-2.2,2.1-4.2,2.9-5.8c0.1-0.3,0.3-0.6,0.4-0.9c0.6-1.4,0.9-2.3,1.1-2.7c0,0,0-0.1,0.1-0.1
		c0.9-2.1,1.6-4,2.2-5.7c0.2-0.5,0.3-1,0.5-1.4s0.3-0.9,0.5-1.3c0.2-0.6,0.4-1.3,0.6-1.8c0.1-0.2,0.1-0.4,0.2-0.6
		c0.3-0.9,0.5-1.8,0.7-2.5c0.1-0.5,0.2-0.9,0.3-1.3c0.3-1.6,0.4-2.8,0.3-3.6c0-0.2-0.1-0.4-0.1-0.6c0-0.1-0.1-0.2-0.1-0.3
		c-0.1-0.1-0.1-0.2-0.2-0.2c-0.5-0.5-1.3-0.3-2.3,0.4c-0.1,0.1-0.2,0.1-0.2,0.2l0,0l0,0l0,0c-9.9,8-37.7,24.1-91.4,24.2h-1.1
		c-53.7,0-81.5-16.2-91.4-24.2l0,0l0,0C229.9,13.5,229.8,13.4,229.7,13.4z"/>
</g>
<path fill="#BCBEC0" d="M397.9,56.5c-7.8,10.1-19.4,21.1-36.4,28.9c-41.1,18.9-39.4,27-39.4,27s0,0-0.1,0h-0.1c0,0,1.7-8.1-39.4-27
	c-17-7.8-28.6-18.8-36.4-28.9c17.2,6.8,41.8,12.6,75.3,12.7h0.2l0,0l0,0l0,0h0.6l0,0l0,0l0,0h0.2C356.1,69.1,380.7,63.3,397.9,56.5z
	"/>
<g id="mangas">
	<path fill="#3E3E3E" d="M81,98.5c3.7-2.9,7.7-5.7,11.9-8.2c-5.3,5.2-6.6,13.8-3.4,20.7c0.4,0.8,0.8,1.7,1.2,2.7
		c0,0.1,0.1,0.1,0.1,0.2c13.3,29.3,42,95.7,49.4,208.9l0,0c-2.2,5.2-3.9,8.4-6.2,14.5c-0.6,1.4-0.5,5.7-2.4,7.3
		c-39.7-2.5-90.8-20.8-108.1-31.3c-0.5-0.3-1.1-0.6-1.6-0.9c-1.4-0.8-2.6-1.6-3.7-2.5c-0.6-3.2,2-4.1,2.6-6.2
		c9-30.8,18.5-54.5,21.9-83.4c8.6-73.3,13-95,30.1-113.9C74.9,104.2,78.8,100.2,81,98.5z"/>
	<path fill="#3E3E3E" d="M216,51.4c-12.2,9.4-34.5,24.8-73.5,41.9c-0.9,0.4-1.8,0.8-2.9,1.3c-6.6,2.9-31.5,12-46.6,24.5
		c-0.8-1.8-1.5-3.5-2.2-5c0-0.1-0.1-0.1-0.1-0.2c-0.4-0.9-0.8-1.8-1.2-2.7c-3.2-7-1.9-15.6,3.4-20.9c15.3-9.6,32-16.5,39.6-19.8
		c46.4-20.4,66.7-37.5,75.6-44.7c-0.1,0.1-0.3,0.2-0.4,0.3C208.6,30.5,210.8,40,216,51.4z"/>
	<path fill="#3E3E3E" d="M562.9,98.5c-3.7-2.9-7.7-5.7-11.9-8.2c5.3,5.2,6.6,13.8,3.4,20.7c-0.4,0.8-0.8,1.7-1.2,2.7
		c0,0.1-0.1,0.1-0.1,0.2c-13.3,29.3-42,95.7-49.4,208.9l0,0c2.2,5.2,3.9,8.4,6.2,14.5c0.6,1.4,0.5,5.7,2.4,7.3
		c39.7-2.5,90.8-20.8,108.1-31.3c0.5-0.3,1.1-0.6,1.6-0.9c1.4-0.8,2.6-1.6,3.7-2.5c0.6-3.2-2-4.1-2.6-6.2
		c-9-30.8-18.5-54.5-21.9-83.4c-8.6-73.3-13-95-30.1-113.9C569.1,104.2,565.2,100.2,562.9,98.5z"/>
	<path fill="#3E3E3E" d="M428,51.4c12.2,9.4,34.5,24.8,73.5,41.9c0.9,0.4,1.8,0.8,2.9,1.3c6.6,2.9,31.5,12,46.6,24.5
		c0.8-1.8,1.5-3.5,2.2-5c0-0.1,0.1-0.1,0.1-0.2c0.4-0.9,0.8-1.8,1.2-2.7c3.2-7,1.9-15.6-3.4-20.9c-15.3-9.6-32-16.5-39.6-19.8
		c-46.4-20.4-66.7-37.5-75.6-44.7c0.1,0.1,0.3,0.2,0.4,0.3C435.4,30.5,433.1,40,428,51.4z"/>
</g>
<path fill="#ED2024" d="M406.8,42.6c-2.2,4.2-5.3,9.2-9.4,14.5c-17.2,6.8-41.8,12.6-75.3,12.7h-0.2l0,0l0,0l0,0h-0.6l0,0l0,0l0,0
	H321c-33.6,0-58.1-5.9-75.3-12.7c-4.1-5.3-7.2-10.3-9.4-14.5c0.4,0.2,0.8,0.4,1.2,0.6c0.4,0.2,0.7,0.3,1.1,0.5
	c0.2,0.1,0.4,0.2,0.6,0.3c0.4,0.2,0.7,0.3,1.1,0.5c0.2,0.1,0.4,0.2,0.6,0.3c0.4,0.2,0.7,0.3,1.1,0.5c0.3,0.1,0.5,0.2,0.8,0.3
	c17.3,7.3,42.7,13.8,78.2,13.8h1.3c35.5,0,60.9-6.6,78.2-13.8c0.3-0.1,0.5-0.2,0.8-0.3c0.4-0.2,0.7-0.3,1-0.5
	c0.2-0.1,0.4-0.2,0.6-0.3c0.4-0.2,0.8-0.3,1.1-0.5c0.2-0.1,0.4-0.2,0.6-0.3c0.4-0.2,0.7-0.3,1.1-0.5C406.1,43,406.5,42.8,406.8,42.6
	z"/>
<text transform="matrix(0.9484 0.3172 -0.3172 0.9484 250.8606 58.2907)" fill="#D1D3D4" font-family="'ArialMT'" font-size="8.0005px">Q</text>
<text transform="matrix(0.959 0.2835 -0.2835 0.959 256.7918 60.1909)" fill="#D1D3D4" font-family="'ArialMT'" font-size="7.9996px">o</text>
<text transform="matrix(0.9687 0.2481 -0.2481 0.9687 261.7043 61.7229)" fill="#D1D3D4" font-family="'ArialMT'" font-size="7.9987px">m</text>
<text transform="matrix(0.9768 0.2142 -0.2142 0.9768 268.8127 63.5182)" fill="#D1D3D4" font-family="'ArialMT'" font-size="7.9996px">b</text>
<text transform="matrix(0.982 0.1889 -0.1889 0.982 274.0081 64.6101)" fill="#D1D3D4" font-family="'ArialMT'" font-size="7.9996px">a</text>
<text transform="matrix(0.9852 0.1715 -0.1715 0.9852 278.6385 65.4468)" fill="#D1D3D4" font-family="'ArialMT'" font-size="7.9996px"> </text>
<text transform="matrix(0.9874 0.1581 -0.1581 0.9874 280.9325 65.8637)" fill="#D1D3D4" font-family="'ArialMT'" font-size="7.9996px">-</text>
<text transform="matrix(0.9895 0.1448 -0.1448 0.9895 284.1053 66.4016)" fill="#D1D3D4" font-family="'ArialMT'" font-size="8.0005px"> </text>
<text transform="matrix(0.9922 0.125 -0.125 0.9922 286.5312 66.6805)" fill="#D1D3D4" font-family="'ArialMT'" font-size="8.0005px">Q</text>
<text transform="matrix(0.995 0.1003 -0.1003 0.995 292.7094 67.5664)" fill="#D1D3D4" font-family="'ArialMT'" font-size="8.0004px">o</text>
<text transform="matrix(0.9972 7.443000e-02 -7.443000e-02 0.9972 297.8766 68.0085)" fill="#D1D3D4" font-family="'ArialMT'" font-size="7.9996px">m</text>
<text transform="matrix(0.9988 4.958000e-02 -4.958000e-02 0.9988 305.1672 68.5681)" fill="#D1D3D4" font-family="'ArialMT'" font-size="7.9996px">b</text>
<text transform="matrix(0.9995 3.114000e-02 -3.114000e-02 0.9995 310.4644 68.72)" fill="#D1D3D4" font-family="'ArialMT'" font-size="7.9995px">a</text>
<text transform="matrix(0.9998 1.851000e-02 -1.851000e-02 0.9998 315.1142 68.9196)" fill="#D1D3D4" font-family="'ArialMT'" font-size="7.9996px"> </text>
<text transform="matrix(1 8.898945e-03 -8.898945e-03 1 317.4816 68.995)" fill="#D1D3D4" font-family="'ArialMT'" font-size="8.0005px">-</text>
<text transform="matrix(1 -3.700000e-04 3.700000e-04 1 320.7238 68.991)" fill="#D1D3D4" font-family="'ArialMT'" font-size="7.9996px"> </text>
<text transform="matrix(0.9999 -1.456000e-02 1.456000e-02 0.9999 323.121 68.9751)" fill="#D1D3D4" font-family="'ArialMT'" font-size="7.9995px">Q</text>
<text transform="matrix(0.9994 -3.447000e-02 3.447000e-02 0.9994 329.4545 68.9202)" fill="#D1D3D4" font-family="'ArialMT'" font-size="7.9995px">o</text>
<text transform="matrix(0.9983 -5.813000e-02 5.813000e-02 0.9983 334.5502 68.7081)" fill="#D1D3D4" font-family="'ArialMT'" font-size="7.9995px">m</text>
<text transform="matrix(0.9965 -8.341999e-02 8.341999e-02 0.9965 341.8482 68.2558)" fill="#D1D3D4" font-family="'ArialMT'" font-size="7.9996px">b</text>
<text transform="matrix(0.9946 -0.1042 0.1042 0.9946 347.1475 67.7952)" fill="#D1D3D4" font-family="'ArialMT'" font-size="8.0005px">a</text>
<text transform="matrix(0.9928 -0.1195 0.1195 0.9928 351.719 67.3648)" fill="#D1D3D4" font-family="'ArialMT'" font-size="7.9986px"> </text>
<text transform="matrix(0.9912 -0.132 0.132 0.9912 354.1472 67.0545)" fill="#D1D3D4" font-family="'ArialMT'" font-size="7.9984px">-</text>
<text transform="matrix(0.9894 -0.145 0.145 0.9894 357.3817 66.5961)" fill="#D1D3D4" font-family="'ArialMT'" font-size="7.9986px"> </text>
<text transform="matrix(0.9862 -0.1655 0.1655 0.9862 359.7112 66.2595)" fill="#D1D3D4" font-family="'ArialMT'" font-size="7.9995px">Q</text>
<text transform="matrix(0.9811 -0.1933 0.1933 0.9811 365.8401 65.2025)" fill="#D1D3D4" font-family="'ArialMT'" font-size="7.9987px">o</text>
<text transform="matrix(0.9742 -0.2258 0.2258 0.9742 370.8828 64.2512)" fill="#D1D3D4" font-family="'ArialMT'" font-size="7.9995px">m</text>
<text transform="matrix(0.9655 -0.2603 0.2603 0.9655 378.1341 62.5689)" fill="#D1D3D4" font-family="'ArialMT'" font-size="7.9995px">b</text>
<text transform="matrix(0.9574 -0.2887 0.2887 0.9574 383.2083 61.1567)" fill="#D1D3D4" font-family="'ArialMT'" font-size="7.9996px">a</text>
<text transform="matrix(0.951 -0.3093 0.3093 0.951 387.5674 59.8418)" fill="#D1D3D4" font-family="'ArialMT'" font-size="8.0005px"> </text>
<text transform="matrix(0.9452 -0.3265 0.3265 0.9452 389.8676 59.0123)" fill="#D1D3D4" font-family="'ArialMT'" font-size="7.9996px">-</text>
<g>
	<g>
		<path fill="#FFFFFF" d="M323.7,85.4c-1.9,2.9-6.8,3.2-11.3,0.7c0.1,0.1,0.2,0.2,0.4,0.3c4.8,3.1,10.3,3.1,12.3,0
			c1.9-3-0.1-7.7-4.4-10.8C324.1,78.6,325.4,82.7,323.7,85.4z"/>
	</g>
	<g>
		<g>
			<g>
				<path fill="#FFFFFF" d="M326.6,87.1c-2.1,3.5-7.8,4-13.2,1.4c0.1,0.1,0.3,0.2,0.5,0.3c5.8,3.4,12.2,3.1,14.4-0.6
					c2.1-3.5-0.5-9-5.7-12.4C326.7,79.2,328.5,83.9,326.6,87.1z"/>
			</g>
		</g>
	</g>
	<g>
		<g>
			<path fill="#FFFFFF" d="M315.1,97.2c0.2,0.1,0.3,0.2,0.5,0.3c0.2,0.1,0.3,0.2,0.4,0.2c0.1,0.1,0.1,0.1,0.1,0.2s0,0.2-0.1,0.2
				c-0.1,0.1-0.2,0.1-0.3,0.1c-0.1,0-0.2,0-0.3-0.1c-0.1-0.1-0.2-0.1-0.4-0.2c-0.2-0.1-0.3-0.2-0.5-0.3c-0.3,0.2-0.8,0.3-1.2,0.3
				c-0.4,0-0.8-0.1-1.1-0.2c-0.3-0.1-0.6-0.3-0.8-0.5s-0.4-0.5-0.5-0.9c-0.1-0.3-0.2-0.7-0.2-1.1s0.1-0.8,0.2-1.1
				c0.1-0.3,0.3-0.6,0.5-0.8c0.2-0.2,0.5-0.4,0.8-0.5s0.7-0.2,1-0.2c0.5,0,1,0.1,1.4,0.3c0.4,0.2,0.7,0.5,0.9,0.9
				c0.2,0.4,0.3,0.9,0.3,1.4C315.8,96.1,315.5,96.7,315.1,97.2z M314.3,96.6c0.1-0.2,0.3-0.4,0.3-0.6c0.1-0.2,0.1-0.5,0.1-0.8
				c0-0.4-0.1-0.7-0.2-1s-0.3-0.5-0.5-0.6s-0.5-0.2-0.8-0.2c-0.2,0-0.4,0-0.6,0.1s-0.3,0.2-0.5,0.3c-0.1,0.1-0.2,0.3-0.3,0.6
				c-0.1,0.2-0.1,0.5-0.1,0.8c0,0.6,0.1,1,0.4,1.4c0.3,0.3,0.6,0.5,1,0.5c0.2,0,0.4,0,0.5-0.1c-0.1-0.1-0.2-0.2-0.4-0.2
				c-0.2-0.1-0.3-0.1-0.3-0.2c-0.1,0-0.1-0.1-0.1-0.2s0-0.1,0.1-0.2s0.1-0.1,0.2-0.1C313.4,96.1,313.8,96.3,314.3,96.6z"/>
			<path fill="#FFFFFF" d="M320,96c0,0.3,0,0.5-0.1,0.8c-0.1,0.2-0.2,0.4-0.4,0.6c-0.2,0.2-0.4,0.3-0.6,0.4s-0.5,0.1-0.8,0.1
				s-0.5,0-0.8-0.1c-0.2-0.1-0.4-0.2-0.6-0.4c-0.2-0.2-0.3-0.4-0.4-0.6s-0.1-0.5-0.1-0.8s0-0.6,0.1-0.8s0.2-0.4,0.4-0.6
				c0.2-0.2,0.4-0.3,0.6-0.4s0.5-0.1,0.8-0.1s0.6,0,0.8,0.1c0.2,0.1,0.4,0.2,0.6,0.4c0.2,0.2,0.3,0.4,0.4,0.6
				C320,95.4,320,95.7,320,96z M319,96c0-0.4-0.1-0.7-0.3-0.9c-0.2-0.2-0.4-0.3-0.7-0.3c-0.2,0-0.4,0-0.5,0.1s-0.3,0.2-0.3,0.4
				c-0.1,0.2-0.1,0.4-0.1,0.7c0,0.3,0,0.5,0.1,0.7s0.2,0.3,0.3,0.4c0.1,0.1,0.3,0.1,0.5,0.1c0.3,0,0.5-0.1,0.7-0.3S319,96.4,319,96z
				"/>
			<path fill="#FFFFFF" d="M323.8,96v1.3c0,0.2,0,0.4-0.1,0.5s-0.2,0.2-0.4,0.2c-0.1,0-0.3-0.1-0.4-0.2s-0.1-0.3-0.1-0.5v-1.5
				c0-0.2,0-0.4,0-0.6c0-0.1-0.1-0.2-0.1-0.3c-0.1-0.1-0.2-0.1-0.3-0.1c-0.3,0-0.5,0.1-0.6,0.3c-0.1,0.2-0.1,0.5-0.1,0.9v1.3
				c0,0.2,0,0.3-0.1,0.4s-0.2,0.2-0.4,0.2s-0.3-0.1-0.4-0.2s-0.1-0.3-0.1-0.4v-2.7c0-0.2,0-0.3,0.1-0.4s0.2-0.1,0.3-0.1
				c0.1,0,0.2,0,0.3,0.1c0.1,0.1,0.1,0.2,0.1,0.4v0.1c0.2-0.2,0.3-0.3,0.5-0.4s0.4-0.1,0.6-0.1s0.4,0,0.6,0.1s0.3,0.2,0.4,0.4
				c0.2-0.2,0.3-0.3,0.5-0.4s0.4-0.1,0.6-0.1c0.3,0,0.5,0.1,0.7,0.2s0.3,0.3,0.4,0.4c0.1,0.2,0.1,0.4,0.1,0.8v1.9
				c0,0.2,0,0.4-0.1,0.5s-0.2,0.2-0.4,0.2c-0.1,0-0.3-0.1-0.4-0.2s-0.1-0.3-0.1-0.4V96c0-0.2,0-0.4,0-0.5s-0.1-0.2-0.1-0.3
				c-0.1-0.1-0.2-0.1-0.4-0.1c-0.1,0-0.2,0-0.4,0.1c-0.1,0.1-0.2,0.2-0.3,0.3C323.8,95.3,323.8,95.6,323.8,96z"/>
			<path fill="#FFFFFF" d="M327.7,93.2v1.5c0.2-0.2,0.4-0.3,0.5-0.4c0.2-0.1,0.4-0.1,0.7-0.1c0.3,0,0.6,0.1,0.8,0.2
				c0.2,0.2,0.4,0.4,0.6,0.7c0.1,0.3,0.2,0.6,0.2,1c0,0.3,0,0.6-0.1,0.8c-0.1,0.2-0.2,0.4-0.3,0.6c-0.1,0.2-0.3,0.3-0.5,0.4
				s-0.4,0.1-0.7,0.1c-0.1,0-0.3,0-0.4-0.1c-0.1,0-0.2-0.1-0.3-0.1c-0.1-0.1-0.2-0.1-0.2-0.2c-0.1-0.1-0.1-0.2-0.3-0.3v0.1
				c0,0.2,0,0.3-0.1,0.4s-0.2,0.1-0.3,0.1s-0.2,0-0.3-0.1c-0.1-0.1-0.1-0.2-0.1-0.4v-4.2c0-0.2,0-0.3,0.1-0.4s0.2-0.1,0.3-0.1
				c0.1,0,0.3,0,0.3,0.1C327.6,92.8,327.7,93,327.7,93.2z M327.7,96c0,0.4,0.1,0.7,0.3,0.9c0.2,0.2,0.4,0.3,0.7,0.3
				c0.2,0,0.4-0.1,0.6-0.3c0.2-0.2,0.3-0.5,0.3-0.9c0-0.3,0-0.5-0.1-0.7s-0.2-0.3-0.3-0.4c-0.1-0.1-0.3-0.1-0.5-0.1s-0.3,0-0.5,0.1
				c-0.1,0.1-0.3,0.2-0.3,0.4C327.8,95.5,327.7,95.7,327.7,96z"/>
			<path fill="#FFFFFF" d="M333.5,97.4c-0.2,0.2-0.5,0.3-0.7,0.4s-0.5,0.1-0.7,0.1s-0.5,0-0.6-0.1c-0.2-0.1-0.3-0.2-0.4-0.4
				c-0.1-0.2-0.2-0.3-0.2-0.5c0-0.3,0.1-0.5,0.2-0.7s0.4-0.3,0.7-0.4c0.1,0,0.2,0,0.5-0.1c0.2,0,0.4-0.1,0.6-0.1s0.4-0.1,0.6-0.2
				c0-0.3-0.1-0.4-0.2-0.6c-0.1-0.1-0.3-0.2-0.6-0.2c-0.2,0-0.4,0-0.5,0.1s-0.2,0.2-0.3,0.3c-0.1,0.1-0.1,0.2-0.2,0.3
				c0,0-0.1,0.1-0.2,0.1s-0.2,0-0.3-0.1c-0.1-0.1-0.1-0.2-0.1-0.3c0-0.2,0.1-0.3,0.2-0.5s0.3-0.3,0.6-0.4c0.3-0.1,0.6-0.2,0.9-0.2
				c0.4,0,0.8,0.1,1,0.1c0.2,0.1,0.4,0.3,0.5,0.5s0.1,0.5,0.1,0.9c0,0.2,0,0.4,0,0.6s0,0.3,0,0.5s0,0.4,0.1,0.6s0.1,0.3,0.1,0.4
				s0,0.2-0.1,0.3c-0.1,0.1-0.2,0.1-0.3,0.1c-0.1,0-0.2,0-0.3-0.1C333.7,97.7,333.6,97.6,333.5,97.4z M333.5,96
				c-0.1,0.1-0.3,0.1-0.6,0.2c-0.3,0.1-0.5,0.1-0.6,0.1s-0.2,0.1-0.3,0.2c-0.1,0.1-0.1,0.2-0.1,0.3c0,0.1,0.1,0.3,0.2,0.4
				s0.3,0.2,0.4,0.2c0.2,0,0.4,0,0.5-0.1c0.2-0.1,0.3-0.2,0.4-0.3c0.1-0.1,0.1-0.4,0.1-0.7V96L333.5,96z"/>
		</g>
	</g>
</g>
<g>
	<g>
		<path fill="#414042" d="M475.9,748.1c-3.5,5.5-12.7,5.9-21.2,1.3c0.2,0.2,0.5,0.3,0.7,0.5c9,5.8,19.3,5.8,23.1,0
			c3.6-5.5-0.1-14.4-8.3-20.2C476.6,735.4,479.2,743.1,475.9,748.1z"/>
	</g>
	<g>
		<g>
			<g>
				<path fill="#414042" d="M481.4,751.3c-3.9,6.5-14.5,7.5-24.6,2.6c0.3,0.2,0.6,0.4,0.9,0.5c10.8,6.3,22.8,5.8,26.9-1.1
					c3.9-6.6-0.9-16.7-10.7-23.2C481.5,736.6,484.9,745.3,481.4,751.3z"/>
			</g>
		</g>
	</g>
	<g>
		<g>
			<path fill="#414042" d="M459.9,770.2c0.3,0.2,0.6,0.4,0.9,0.6c0.3,0.2,0.6,0.3,0.7,0.4c0.1,0.1,0.2,0.3,0.2,0.5
				c0,0.1-0.1,0.3-0.2,0.4c-0.1,0.1-0.3,0.2-0.5,0.2c-0.1,0-0.3,0-0.5-0.1s-0.5-0.2-0.7-0.4c-0.3-0.2-0.6-0.4-0.9-0.6
				c-0.6,0.3-1.4,0.5-2.3,0.5c-0.7,0-1.4-0.1-2-0.4c-0.6-0.2-1.1-0.6-1.5-1s-0.7-1-0.9-1.6c-0.2-0.6-0.3-1.3-0.3-2s0.1-1.4,0.3-2
				c0.2-0.6,0.5-1.1,0.9-1.6c0.4-0.4,0.9-0.8,1.5-1s1.2-0.3,2-0.3c1,0,1.9,0.2,2.6,0.6c0.7,0.4,1.3,1,1.6,1.7
				c0.4,0.7,0.6,1.6,0.6,2.6C461.1,768.1,460.7,769.3,459.9,770.2z M458.3,769.1c0.3-0.3,0.5-0.7,0.6-1.1c0.1-0.4,0.2-0.9,0.2-1.5
				c0-0.7-0.1-1.3-0.3-1.8c-0.2-0.5-0.6-0.9-1-1.2s-0.9-0.4-1.5-0.4c-0.4,0-0.7,0.1-1.1,0.2c-0.3,0.1-0.6,0.4-0.9,0.6
				c-0.2,0.3-0.4,0.6-0.6,1.1c-0.1,0.4-0.2,0.9-0.2,1.5c0,1.1,0.3,2,0.8,2.5c0.5,0.6,1.2,0.9,2,0.9c0.3,0,0.7-0.1,1-0.2
				c-0.2-0.1-0.5-0.3-0.8-0.5s-0.5-0.3-0.6-0.4c-0.1-0.1-0.2-0.2-0.2-0.4c0-0.1,0.1-0.2,0.2-0.3s0.2-0.1,0.4-0.1
				C456.7,768.1,457.4,768.5,458.3,769.1z"/>
			<path fill="#414042" d="M469,767.9c0,0.5-0.1,1-0.3,1.5c-0.2,0.4-0.4,0.8-0.7,1.2c-0.3,0.3-0.7,0.6-1.1,0.7
				c-0.4,0.2-0.9,0.3-1.5,0.3c-0.5,0-1-0.1-1.5-0.3c-0.4-0.2-0.8-0.4-1.1-0.8c-0.3-0.3-0.6-0.7-0.7-1.1c-0.2-0.4-0.2-0.9-0.2-1.5
				c0-0.5,0.1-1,0.2-1.5s0.4-0.8,0.7-1.2c0.3-0.3,0.7-0.6,1.1-0.7c0.4-0.2,0.9-0.3,1.5-0.3c0.5,0,1,0.1,1.5,0.3
				c0.4,0.2,0.8,0.4,1.1,0.7s0.6,0.7,0.7,1.2C469,766.9,469,767.4,469,767.9z M467.2,767.9c0-0.7-0.2-1.3-0.5-1.7s-0.8-0.6-1.3-0.6
				c-0.4,0-0.7,0.1-0.9,0.3c-0.3,0.2-0.5,0.4-0.6,0.8c-0.1,0.4-0.2,0.8-0.2,1.2c0,0.5,0.1,0.9,0.2,1.2s0.3,0.6,0.6,0.8
				c0.3,0.2,0.6,0.3,0.9,0.3c0.5,0,1-0.2,1.3-0.6C467.1,769.2,467.2,768.6,467.2,767.9z"/>
			<path fill="#414042" d="M476.1,768.1v2.4c0,0.4-0.1,0.7-0.3,0.8c-0.2,0.2-0.4,0.3-0.7,0.3c-0.3,0-0.5-0.1-0.7-0.3
				s-0.3-0.5-0.3-0.8v-2.8c0-0.4,0-0.8,0-1c0-0.3-0.1-0.5-0.2-0.6c-0.1-0.2-0.3-0.2-0.6-0.2c-0.6,0-1,0.2-1.1,0.6
				c-0.2,0.4-0.3,1-0.3,1.7v2.4c0,0.4-0.1,0.7-0.3,0.8c-0.2,0.2-0.4,0.3-0.7,0.3s-0.5-0.1-0.7-0.3s-0.3-0.5-0.3-0.8v-5.1
				c0-0.3,0.1-0.6,0.2-0.8c0.2-0.2,0.4-0.3,0.6-0.3s0.4,0.1,0.6,0.2c0.2,0.2,0.2,0.4,0.2,0.7v0.2c0.3-0.4,0.6-0.6,1-0.8
				s0.7-0.3,1.2-0.3s0.8,0.1,1.2,0.3c0.3,0.2,0.6,0.4,0.8,0.8c0.3-0.4,0.6-0.6,1-0.8c0.3-0.2,0.7-0.3,1.1-0.3c0.5,0,0.9,0.1,1.3,0.3
				s0.6,0.5,0.8,0.8c0.1,0.3,0.2,0.8,0.2,1.5v3.5c0,0.4-0.1,0.7-0.3,0.8c-0.2,0.2-0.4,0.3-0.7,0.3c-0.3,0-0.5-0.1-0.7-0.3
				s-0.3-0.5-0.3-0.8v-3c0-0.4,0-0.7-0.1-0.9c0-0.2-0.1-0.4-0.3-0.6c-0.1-0.2-0.4-0.2-0.7-0.2c-0.2,0-0.5,0.1-0.7,0.2
				c-0.2,0.1-0.4,0.3-0.5,0.6C476.2,766.8,476.1,767.3,476.1,768.1z"/>
			<path fill="#414042" d="M483.4,762.7v2.7c0.3-0.4,0.7-0.6,1-0.8s0.8-0.3,1.3-0.3c0.6,0,1.1,0.1,1.6,0.4c0.4,0.3,0.8,0.7,1,1.2
				s0.4,1.2,0.4,1.9c0,0.5-0.1,1-0.2,1.5s-0.3,0.8-0.6,1.2c-0.3,0.3-0.6,0.6-1,0.8s-0.8,0.3-1.2,0.3c-0.3,0-0.5,0-0.8-0.1
				c-0.2-0.1-0.4-0.1-0.6-0.3c-0.2-0.1-0.3-0.2-0.4-0.3s-0.3-0.3-0.5-0.5v0.2c0,0.3-0.1,0.6-0.2,0.8c-0.2,0.2-0.4,0.3-0.6,0.3
				c-0.3,0-0.5-0.1-0.6-0.3s-0.2-0.4-0.2-0.8v-7.8c0-0.4,0.1-0.6,0.2-0.8s0.3-0.3,0.6-0.3c0.3,0,0.5,0.1,0.6,0.3
				C483.3,762.1,483.4,762.3,483.4,762.7z M483.4,768c0,0.7,0.2,1.3,0.5,1.6c0.3,0.4,0.8,0.6,1.3,0.6s0.8-0.2,1.2-0.6
				c0.3-0.4,0.5-0.9,0.5-1.7c0-0.5-0.1-0.9-0.2-1.2s-0.3-0.6-0.6-0.8c-0.2-0.2-0.5-0.3-0.9-0.3c-0.3,0-0.6,0.1-0.9,0.3
				s-0.5,0.5-0.6,0.8C483.5,767.1,483.4,767.5,483.4,768z"/>
			<path fill="#414042" d="M494.3,770.5c-0.4,0.3-0.9,0.6-1.3,0.8s-0.9,0.3-1.4,0.3s-0.9-0.1-1.2-0.3c-0.3-0.2-0.6-0.4-0.8-0.7
				c-0.2-0.3-0.3-0.6-0.3-1c0-0.5,0.2-0.9,0.5-1.3c0.3-0.3,0.7-0.6,1.3-0.7c0.1,0,0.4-0.1,0.8-0.2c0.5-0.1,0.8-0.2,1.2-0.2
				c0.3-0.1,0.7-0.2,1-0.3c0-0.5-0.1-0.8-0.3-1c-0.2-0.2-0.5-0.3-1-0.3c-0.4,0-0.8,0.1-1,0.2c-0.2,0.1-0.4,0.3-0.6,0.6
				s-0.3,0.4-0.4,0.5s-0.2,0.1-0.4,0.1c-0.2,0-0.4-0.1-0.5-0.2c-0.1-0.1-0.2-0.3-0.2-0.5c0-0.3,0.1-0.6,0.3-0.9
				c0.2-0.3,0.6-0.5,1-0.7c0.5-0.2,1.1-0.3,1.8-0.3c0.8,0,1.4,0.1,1.9,0.3s0.8,0.5,1,0.9s0.3,0.9,0.3,1.6c0,0.4,0,0.8,0,1.1
				s0,0.6,0,1c0,0.3,0.1,0.7,0.2,1c0.1,0.4,0.2,0.6,0.2,0.7c0,0.2-0.1,0.4-0.3,0.5c-0.2,0.1-0.4,0.2-0.6,0.2s-0.4-0.1-0.5-0.3
				C494.7,771.1,494.5,770.9,494.3,770.5z M494.2,768c-0.3,0.1-0.6,0.2-1.1,0.3s-0.8,0.2-1,0.2c-0.2,0.1-0.4,0.1-0.5,0.3
				c-0.2,0.1-0.3,0.4-0.3,0.6c0,0.3,0.1,0.5,0.3,0.7c0.2,0.2,0.5,0.3,0.8,0.3c0.4,0,0.7-0.1,1-0.2c0.3-0.2,0.5-0.4,0.7-0.6
				c0.2-0.3,0.2-0.7,0.2-1.3L494.2,768L494.2,768z"/>
		</g>
	</g>
</g>
<g id="numero_frente" visibility="hidden">
	<text id="numero" transform="matrix(1.1609 0 0 1 292.7095 227.8395)" font-family="'MyriadPro-Regular'" font-size="164.2046px">₉</text>
</g>
<g id="escudo_remera">
  <image overflow="visible" id="escudo" xlink:href="" transform="matrix(0.8 0 0 0.6 409.5905 155.7968)">
	</image>
</g>
</svg>
